<svg xmlns="http://www.w3.org/2000/svg" xmlns:xlink="http://www.w3.org/1999/xlink" width="1920" zoomAndPan="magnify" viewBox="0 0 1440 809.999993" height="1080" preserveAspectRatio="xMidYMid meet" version="1.0"><defs><clipPath id="a06109bf4f"><path d="M 550 42.039062 L 890 42.039062 L 890 766 L 550 766 Z M 550 42.039062 " clip-rule="nonzero"/></clipPath><clipPath id="e1a7176bc5"><path d="M 550 42.039062 L 890 42.039062 L 890 597 L 550 597 Z M 550 42.039062 " clip-rule="nonzero"/></clipPath></defs><g clip-path="url(#a06109bf4f)"><path fill="#4d4d4d" d="M 888.695312 98.851562 C 887.203125 102.660156 872.925781 104.824219 871.65625 109.515625 C 870.386719 114.203125 858.4375 118.476562 858.4375 118.476562 C 858.4375 118.476562 825.210938 155.273438 813.636719 163.878906 C 802.65625 172.0625 750.164062 213.476562 744.578125 217.882812 L 745.25 217.359375 C 745.25 220.808594 745.097656 222.855469 745.097656 222.855469 C 709.003906 239.878906 713.824219 312.328125 712.050781 340.300781 C 710.273438 368.273438 705.296875 383.507812 705.296875 383.507812 C 720.234375 427.175781 714.722656 518.503906 714.722656 518.503906 L 689.976562 527.925781 C 692.46875 535.929688 695.351562 547.339844 695.488281 557.4375 C 695.742188 575.476562 674.144531 596.582031 674.144531 596.582031 L 667.945312 612.320312 C 671.308594 648.164062 651.519531 688.878906 647.277344 697.300781 C 646.636719 708.113281 646.050781 717.96875 646.050781 717.96875 C 660.539062 736.652344 666.257812 748.46875 666.257812 748.46875 C 681.03125 750.707031 685.808594 755.933594 685.539062 759.921875 C 685.496094 760.40625 685.386719 760.875 685.210938 761.324219 C 685.132812 761.527344 685.042969 761.71875 684.941406 761.910156 C 684.832031 762.113281 684.699219 762.308594 684.554688 762.492188 C 684.433594 762.648438 684.304688 762.796875 684.164062 762.9375 L 684.046875 763.074219 C 683.882812 763.238281 683.703125 763.386719 683.523438 763.535156 C 678.953125 767.152344 622.515625 764.671875 610.34375 760.550781 C 610.007812 760.4375 609.679688 760.300781 609.359375 760.144531 L 609.089844 759.996094 C 608.886719 759.898438 608.695312 759.789062 608.507812 759.667969 L 608.238281 759.472656 C 608.074219 759.355469 607.917969 759.226562 607.773438 759.085938 L 607.550781 758.890625 C 607.386719 758.726562 607.238281 758.546875 607.085938 758.367188 L 606.984375 758.25 C 606.820312 758.027344 606.675781 757.792969 606.550781 757.546875 C 606.507812 757.480469 606.472656 757.410156 606.445312 757.339844 C 606.355469 757.160156 606.28125 756.964844 606.207031 756.785156 L 606.117188 756.503906 C 606.117188 756.324219 606.011719 756.144531 605.96875 755.964844 C 605.960938 755.863281 605.960938 755.765625 605.96875 755.664062 C 605.921875 755.457031 605.894531 755.25 605.878906 755.039062 C 605.871094 754.957031 605.871094 754.878906 605.878906 754.800781 C 605.878906 754.5 605.878906 754.203125 605.878906 753.902344 C 605.871094 753.839844 605.871094 753.773438 605.878906 753.710938 C 605.863281 753.460938 605.863281 753.210938 605.878906 752.960938 C 605.871094 752.851562 605.871094 752.742188 605.878906 752.632812 L 605.96875 751.992188 C 605.96875 751.871094 605.96875 751.753906 605.96875 751.632812 L 606.101562 750.976562 C 606.085938 750.921875 606.0625 750.867188 606.042969 750.8125 C 606.042969 750.511719 606.207031 750.214844 606.296875 749.902344 C 608.3125 743 613.988281 735.546875 613.988281 735.546875 C 613.988281 735.546875 608.011719 733.832031 603.699219 722.972656 C 603.539062 722.582031 603.40625 722.183594 603.292969 721.777344 C 603.292969 721.660156 603.292969 721.523438 603.191406 721.390625 L 603.054688 720.496094 C 603.054688 720.34375 603.054688 720.210938 602.980469 720.0625 C 602.9375 719.769531 602.90625 719.476562 602.890625 719.179688 L 602.890625 718.777344 C 602.890625 718.359375 602.890625 717.941406 602.890625 717.507812 C 602.867188 717.070312 602.867188 716.632812 602.890625 716.191406 L 602.890625 715.789062 C 602.890625 715.476562 602.890625 715.164062 603.011719 714.847656 C 603.128906 714.535156 603.011719 714.550781 603.011719 714.402344 C 603.011719 714.25 603.128906 713.773438 603.191406 713.460938 L 603.28125 713.058594 C 605.308594 704.097656 611.984375 695.464844 611.984375 695.464844 C 611.984375 695.464844 624.382812 665.339844 623.054688 631.410156 C 622.699219 625.046875 623.230469 618.757812 624.648438 612.542969 C 626.066406 606.328125 628.3125 600.429688 631.386719 594.847656 C 631.730469 585.453125 632.582031 576.507812 632.582031 576.507812 C 634.464844 570.921875 635.195312 557.988281 635.480469 547.910156 L 635.628906 534.304688 C 624.964844 538.785156 628.011719 533.796875 628.011719 533.796875 C 628.011719 533.796875 602.011719 476.402344 595.335938 449.128906 C 588.660156 421.859375 603.457031 375.949219 603.457031 375.949219 C 597.589844 372.378906 601.964844 332.476562 593.601562 306.800781 C 585.238281 281.128906 592.601562 253.394531 582.878906 247.808594 C 582.230469 247.429688 581.628906 246.984375 581.070312 246.480469 C 579.679688 245.191406 578.484375 243.738281 577.488281 242.121094 C 576.359375 240.34375 575.363281 238.496094 574.5 236.578125 C 574.140625 235.773438 573.785156 234.9375 573.441406 234.113281 L 573.335938 233.847656 C 572.988281 233 572.65625 232.148438 572.347656 231.292969 L 572.261719 231.082031 C 571.960938 230.246094 571.675781 229.425781 571.410156 228.621094 L 571.304688 228.335938 L 571.082031 227.617188 C 571.003906 227.410156 570.945312 227.199219 570.871094 227.007812 C 570.878906 226.941406 570.878906 226.875 570.871094 226.8125 C 570.347656 225.125 569.886719 223.511719 569.480469 222.09375 C 569.332031 221.496094 569.183594 220.957031 569.050781 220.421875 L 568.824219 219.539062 C 568.753906 219.230469 568.679688 218.929688 568.601562 218.644531 C 568.4375 217.925781 568.289062 217.3125 568.183594 216.851562 C 568.078125 216.386719 567.957031 215.773438 567.957031 215.773438 C 567.957031 215.773438 558.996094 185.144531 554.996094 174.601562 C 550.992188 164.054688 559.058594 96.042969 559.058594 96.042969 C 559.058594 96.042969 552.5 86.125 551.097656 83.589844 C 549.695312 81.050781 553.261719 78.882812 554.921875 72.910156 C 556.578125 66.9375 566.988281 68.726562 571.945312 66.308594 C 576.90625 63.890625 573.351562 43.429688 579.070312 42.90625 C 584.789062 42.382812 580.085938 57.273438 584.402344 66.800781 C 588.71875 76.328125 586.179688 95.773438 582.910156 107.214844 C 579.636719 118.65625 581.757812 143.566406 582.910156 155.261719 C 584.058594 166.953125 600.949219 188.5625 600.949219 188.5625 C 605.386719 192.742188 609.492188 197.222656 613.269531 202.003906 C 613.480469 202.273438 613.703125 202.527344 613.929688 202.765625 C 614 202.832031 614.070312 202.902344 614.136719 202.976562 L 614.675781 203.453125 L 614.898438 203.648438 C 615.136719 203.84375 615.375 204.007812 615.617188 204.171875 L 615.703125 204.171875 C 615.988281 204.363281 616.273438 204.53125 616.554688 204.695312 L 616.824219 204.828125 C 617.050781 204.933594 617.257812 205.050781 617.480469 205.140625 L 617.78125 205.277344 L 618.574219 205.589844 L 618.738281 205.589844 C 619.066406 205.710938 619.378906 205.8125 619.722656 205.902344 L 620.007812 205.902344 L 620.738281 206.097656 L 621.066406 206.097656 L 621.886719 206.261719 L 622.082031 206.261719 L 623.113281 206.410156 L 623.367188 206.410156 L 624.15625 206.5 L 624.457031 206.5 L 625.277344 206.574219 L 629.488281 206.574219 L 633.730469 206.1875 C 639.585938 203.199219 638.0625 192.445312 632.714844 185.847656 C 630.191406 182.722656 628.042969 179.359375 626.277344 175.75 C 625.605469 175.003906 624.949219 174.257812 624.277344 173.390625 C 588.433594 128.585938 649.488281 111.800781 672.742188 116.191406 C 695.992188 120.582031 685.585938 139.980469 685.585938 139.980469 C 685.585938 139.980469 692.664062 153.75 690.410156 184.335938 C 689.675781 194.464844 687.691406 201.214844 685.421875 205.695312 C 702.390625 195.980469 719.984375 187.566406 738.199219 180.453125 C 738.199219 180.453125 751.164062 174.867188 758.03125 166.222656 C 764.902344 157.574219 802.390625 129.109375 823.359375 120.714844 C 844.324219 112.324219 873.566406 54.734375 875.210938 56.644531 C 876.855469 58.558594 878.644531 57.914062 877.257812 63.515625 C 875.867188 69.117188 867.847656 84.605469 867.847656 84.605469 C 867.847656 84.605469 880.421875 79.527344 883.097656 87.589844 L 885.769531 95.714844 C 885.769531 95.714844 890.21875 95.027344 888.695312 98.851562 Z M 888.695312 98.851562 " fill-opacity="1" fill-rule="nonzero"/></g><g clip-path="url(#e1a7176bc5)"><path fill="#ddae92" d="M 567.882812 215.773438 C 567.882812 215.773438 558.921875 185.144531 554.921875 174.601562 C 550.917969 164.054688 558.984375 96.042969 558.984375 96.042969 C 558.984375 96.042969 552.5 86.125 551.097656 83.589844 C 549.695312 81.050781 553.261719 78.882812 554.921875 72.910156 C 556.578125 66.9375 566.988281 68.726562 571.945312 66.308594 C 576.90625 63.890625 573.351562 43.429688 579.070312 42.90625 C 584.789062 42.382812 580.085938 57.273438 584.402344 66.800781 C 588.71875 76.328125 586.179688 95.773438 582.910156 107.214844 C 579.636719 118.65625 581.757812 143.566406 582.910156 155.261719 C 584.058594 166.953125 600.964844 188.5625 600.964844 188.5625 C 599.140625 223.152344 567.882812 215.773438 567.882812 215.773438 Z M 744.113281 218.328125 C 744.113281 218.328125 802 172.570312 813.636719 163.878906 C 825.269531 155.183594 858.4375 118.476562 858.4375 118.476562 C 858.4375 118.476562 870.386719 114.175781 871.65625 109.515625 C 872.925781 104.855469 887.160156 102.660156 888.695312 98.851562 C 890.234375 95.042969 885.710938 95.789062 885.710938 95.789062 L 883.097656 87.710938 C 880.421875 79.570312 867.847656 84.722656 867.847656 84.722656 C 867.847656 84.722656 875.851562 69.222656 877.257812 63.636719 C 878.660156 58.050781 876.867188 58.675781 875.210938 56.765625 C 873.554688 54.855469 844.324219 112.441406 823.359375 120.820312 C 802.390625 129.199219 764.886719 157.679688 758.03125 166.328125 C 751.179688 174.972656 738.199219 180.558594 738.199219 180.558594 Z M 689.976562 527.925781 L 688.003906 521.953125 C 688.003906 521.953125 670.246094 515.800781 664.109375 521.191406 C 657.96875 526.582031 643.378906 531.882812 643.378906 531.882812 L 645.289062 543.324219 L 635.597656 547.910156 C 635.3125 557.988281 634.582031 570.921875 632.699219 576.507812 L 644.871094 571.160156 L 642.332031 581.078125 C 643.136719 582.417969 644.03125 583.695312 645.019531 584.90625 C 646.007812 586.117188 647.078125 587.25 648.226562 588.304688 C 649.378906 589.363281 650.601562 590.328125 651.890625 591.207031 C 653.183594 592.089844 654.53125 592.871094 655.9375 593.554688 C 657.339844 594.238281 658.789062 594.820312 660.277344 595.292969 C 661.765625 595.769531 663.277344 596.136719 664.820312 596.390625 C 666.363281 596.648438 667.914062 596.792969 669.476562 596.824219 C 671.039062 596.855469 672.59375 596.773438 674.144531 596.582031 C 674.144531 596.582031 695.742188 575.476562 695.488281 557.4375 C 695.351562 547.28125 692.5 535.929688 689.976562 527.925781 Z M 685.585938 139.980469 C 685.585938 139.980469 674.90625 146.851562 653.550781 139.980469 C 653.550781 139.980469 647.441406 141.25 647.949219 148.628906 C 648.457031 156.007812 644.960938 169.539062 644.960938 169.539062 C 644.960938 169.539062 636.835938 162.683594 628.191406 164.460938 C 619.542969 166.238281 627.367188 179.679688 632.699219 186.277344 C 638.03125 192.878906 639.570312 203.558594 633.714844 206.621094 C 633.714844 206.621094 648.980469 238.640625 669.8125 225.421875 C 669.8125 225.421875 664.480469 219.164062 674.90625 214.671875 C 674.90625 214.671875 688.125 214.894531 690.410156 184.324219 C 692.695312 153.75 685.585938 139.980469 685.585938 139.980469 Z M 685.585938 139.980469 " fill-opacity="1" fill-rule="nonzero"/></g><path fill="#333333" d="M 649.351562 258.699219 C 640.570312 233.097656 629.578125 207.292969 629.503906 207.023438 L 633.746094 206.636719 C 648.367188 243.242188 666.421875 301.050781 672.144531 308.742188 C 675.128906 300.304688 678.59375 247.4375 680.3125 212.355469 C 681.40625 211.488281 682.367188 210.492188 683.195312 209.367188 L 683.449219 209.367188 C 682.671875 225.601562 678.566406 306.847656 673.847656 311.761719 C 673.464844 312.167969 673 312.371094 672.441406 312.375 C 672.289062 312.394531 672.132812 312.394531 671.980469 312.375 C 670.351562 311.941406 667.378906 311.253906 649.351562 258.699219 Z M 666.257812 748.46875 C 666.257812 748.46875 660.539062 736.652344 646.050781 717.957031 C 646.050781 717.957031 646.636719 708.097656 647.277344 697.285156 C 646.738281 698.316406 646.425781 698.882812 646.425781 698.882812 C 647.84375 692.042969 641.0625 687.128906 636.523438 684.664062 C 626.875 686.757812 625.128906 700.332031 619.738281 703.46875 C 613.761719 706.890625 612.105469 695.449219 612.105469 695.449219 C 612.105469 695.449219 599.335938 712.042969 603.726562 722.914062 C 608.117188 733.785156 614.015625 735.488281 614.015625 735.488281 C 614.015625 735.488281 598.007812 756.488281 610.210938 760.667969 C 622.410156 764.851562 678.910156 767.34375 683.390625 763.65625 C 687.871094 759.964844 686.464844 751.527344 666.257812 748.46875 Z M 666.257812 748.46875 " fill-opacity="1" fill-rule="nonzero"/><path fill="#000000" d="M 882.828125 95.492188 C 880.722656 95.492188 878.703125 95.921875 876.777344 96.777344 C 875.117188 97.460938 873.394531 97.910156 871.613281 98.121094 C 870.734375 98.25 869.894531 98.128906 869.085938 97.761719 C 868.769531 97.519531 868.566406 97.207031 868.472656 96.820312 C 868.378906 96.429688 868.421875 96.058594 868.59375 95.699219 C 868.71875 95.332031 868.878906 94.976562 869.070312 94.636719 C 869.261719 94.296875 869.484375 93.980469 869.734375 93.683594 C 869.988281 93.386719 870.265625 93.113281 870.570312 92.871094 C 870.871094 92.625 871.195312 92.410156 871.539062 92.226562 C 871.882812 92.042969 872.242188 91.894531 872.613281 91.777344 C 872.984375 91.664062 873.363281 91.582031 873.75 91.539062 C 874.136719 91.496094 874.527344 91.488281 874.914062 91.515625 C 875.304688 91.546875 875.6875 91.609375 876.0625 91.710938 C 876.269531 91.769531 876.425781 91.890625 876.53125 92.074219 C 876.636719 92.257812 876.660156 92.453125 876.605469 92.660156 C 876.550781 92.867188 876.429688 93.023438 876.246094 93.128906 C 876.058594 93.234375 875.863281 93.261719 875.660156 93.207031 C 874.878906 93.003906 874.097656 93 873.316406 93.203125 C 872.535156 93.40625 871.851562 93.785156 871.269531 94.339844 C 870.691406 94.863281 870.289062 95.496094 870.058594 96.238281 C 870.058594 96.417969 869.953125 96.507812 870.058594 96.609375 C 870.164062 96.714844 870.597656 96.609375 870.746094 96.609375 C 871.195312 96.65625 871.640625 96.65625 872.089844 96.609375 C 875.792969 96.179688 879.035156 93.757812 882.886719 94.027344 C 883.828125 94.058594 883.828125 95.550781 882.828125 95.492188 Z M 866.863281 86.425781 C 865.746094 87.367188 865.039062 88.550781 864.742188 89.980469 C 864.691406 90.179688 864.71875 90.367188 864.820312 90.546875 C 864.921875 90.726562 865.070312 90.84375 865.265625 90.90625 C 865.460938 90.953125 865.648438 90.929688 865.824219 90.828125 C 866 90.726562 866.117188 90.578125 866.175781 90.382812 C 866.238281 90.082031 866.320312 89.789062 866.429688 89.503906 L 866.429688 89.398438 L 866.519531 89.203125 C 866.585938 89.058594 866.660156 88.921875 866.742188 88.785156 C 866.820312 88.648438 866.902344 88.519531 866.996094 88.398438 L 866.996094 88.308594 C 867.054688 88.253906 867.105469 88.195312 867.144531 88.128906 C 867.351562 87.890625 867.574219 87.671875 867.816406 87.472656 C 867.964844 87.324219 868.039062 87.148438 868.039062 86.941406 C 868.039062 86.734375 867.964844 86.558594 867.816406 86.410156 C 867.679688 86.296875 867.519531 86.242188 867.335938 86.246094 C 867.15625 86.246094 867 86.308594 866.863281 86.425781 Z M 867.101562 88.308594 Z M 670.648438 322.347656 L 671.949219 329.21875 L 678.074219 329.21875 C 678.074219 329.21875 681.820312 310.191406 671.949219 312.3125 C 671.949219 312.3125 663.972656 316.644531 670.648438 322.347656 Z M 685.511719 159.398438 C 685.308594 159.449219 685.15625 159.570312 685.054688 159.75 C 684.953125 159.933594 684.929688 160.121094 684.988281 160.324219 C 685.046875 160.519531 685.167969 160.664062 685.347656 160.761719 C 685.527344 160.863281 685.714844 160.882812 685.914062 160.832031 L 686.167969 160.832031 C 686.558594 160.785156 686.953125 160.785156 687.347656 160.832031 C 687.625 160.875 687.898438 160.933594 688.167969 161.007812 C 688.375 161.066406 688.570312 161.039062 688.753906 160.933594 C 688.941406 160.828125 689.0625 160.671875 689.117188 160.464844 C 689.171875 160.257812 689.148438 160.0625 689.039062 159.878906 C 688.933594 159.691406 688.777344 159.570312 688.570312 159.515625 C 687.5625 159.210938 686.539062 159.171875 685.511719 159.398438 Z M 684.554688 192.867188 C 682.144531 192.46875 679.722656 192.261719 677.28125 192.253906 C 674.90625 192.375 672.609375 192.875 670.394531 193.746094 C 669.5 194.074219 669.886719 195.523438 670.800781 195.238281 C 672.964844 194.375 675.214844 193.90625 677.550781 193.835938 C 679.898438 193.847656 682.234375 194.03125 684.554688 194.390625 C 685.496094 194.476562 685.496094 192.984375 684.554688 192.867188 Z M 686.765625 164.742188 C 686.105469 164.667969 685.464844 164.757812 684.851562 165.011719 C 684.398438 165.199219 684.070312 165.519531 683.867188 165.96875 C 683.734375 166.199219 683.667969 166.449219 683.667969 166.714844 C 683.667969 166.980469 683.734375 167.230469 683.867188 167.460938 C 684.160156 167.886719 684.5625 168.125 685.078125 168.179688 C 685.570312 168.25 686.070312 168.289062 686.570312 168.296875 C 687.488281 168.402344 688.296875 168.148438 688.988281 167.535156 C 689.28125 167.230469 689.453125 166.871094 689.5 166.453125 C 689.546875 166.03125 689.460938 165.640625 689.242188 165.28125 C 688.933594 164.929688 688.550781 164.703125 688.09375 164.605469 C 687.632812 164.503906 687.191406 164.550781 686.765625 164.742188 Z M 678.910156 181.964844 C 677.953125 182.128906 678.355469 183.574219 679.296875 183.457031 C 680.894531 183.15625 682.777344 182.605469 683.253906 180.828125 C 683.390625 179.859375 683.246094 178.933594 682.820312 178.050781 C 682.476562 177.003906 682.195312 175.960938 681.957031 174.882812 C 680.996094 170.535156 680.882812 166.164062 681.613281 161.769531 C 681.761719 160.832031 680.328125 160.425781 680.117188 161.382812 C 679.511719 165.105469 679.464844 168.832031 679.984375 172.570312 C 680.246094 174.449219 680.660156 176.296875 681.222656 178.109375 C 681.476562 178.945312 682.105469 180.023438 681.582031 180.828125 C 681.058594 181.632812 679.820312 181.796875 678.910156 181.964844 Z M 649.636719 203.15625 C 654.429688 207.964844 659.628906 213.027344 666.4375 214.671875 C 667.378906 214.894531 667.765625 213.460938 666.839844 213.175781 C 660.269531 211.667969 655.328125 206.738281 650.695312 202.09375 C 650.550781 201.949219 650.375 201.875 650.167969 201.878906 C 649.960938 201.878906 649.785156 201.949219 649.636719 202.097656 C 649.492188 202.242188 649.417969 202.417969 649.417969 202.625 C 649.417969 202.832031 649.492188 203.007812 649.636719 203.15625 Z M 697.710938 287.460938 C 711.824219 284.222656 713.152344 250.855469 713.152344 250.855469 C 711.898438 250.8125 710.65625 250.644531 709.433594 250.355469 C 708.207031 250.066406 707.023438 249.660156 705.878906 249.136719 C 704.734375 248.613281 703.652344 247.984375 702.632812 247.25 C 701.613281 246.511719 700.675781 245.683594 699.816406 244.761719 C 696.769531 250.5 682.210938 250.855469 682.210938 250.855469 C 679.222656 279.457031 697.710938 287.460938 697.710938 287.460938 Z M 670.261719 168.714844 C 670.296875 168.679688 670.324219 168.640625 670.351562 168.597656 C 670.578125 168.421875 670.742188 168.199219 670.84375 167.929688 C 670.941406 167.660156 670.964844 167.382812 670.902344 167.101562 C 670.789062 166.667969 670.53125 166.347656 670.128906 166.148438 C 669.59375 165.832031 669.019531 165.636719 668.402344 165.5625 C 667.785156 165.488281 667.183594 165.539062 666.585938 165.714844 C 665.914062 165.789062 665.296875 166.011719 664.734375 166.386719 C 664.0625 166.863281 663.375 167.761719 663.914062 168.597656 C 664.410156 169.25 665.066406 169.59375 665.886719 169.628906 C 666.597656 169.703125 667.308594 169.703125 668.019531 169.628906 C 668.871094 169.574219 669.617188 169.269531 670.261719 168.714844 Z M 664.289062 162.621094 C 665.179688 161.792969 666.234375 161.359375 667.453125 161.324219 C 668.078125 161.257812 668.707031 161.226562 669.335938 161.234375 C 670.0625 161.171875 670.769531 161.261719 671.457031 161.503906 C 671.632812 161.601562 671.820312 161.625 672.019531 161.570312 C 672.214844 161.519531 672.367188 161.40625 672.472656 161.234375 C 672.578125 161.058594 672.605469 160.867188 672.550781 160.667969 C 672.5 160.46875 672.382812 160.320312 672.203125 160.21875 C 671.375 159.871094 670.515625 159.710938 669.621094 159.738281 C 668.859375 159.738281 668.125 159.738281 667.335938 159.828125 C 665.753906 159.898438 664.390625 160.476562 663.242188 161.5625 C 662.601562 162.25 663.660156 163.308594 664.289062 162.621094 Z M 626.277344 176.199219 C 623.695312 170.730469 622.964844 165.488281 628.128906 164.429688 C 636.761719 162.652344 644.871094 169.507812 644.871094 169.507812 C 644.871094 169.507812 648.425781 156.066406 647.859375 148.597656 C 647.292969 141.132812 653.550781 139.980469 653.550781 139.980469 C 674.90625 146.851562 685.585938 139.980469 685.585938 139.980469 C 685.585938 139.980469 696.039062 120.984375 672.742188 116.59375 C 649.441406 112.203125 588.40625 128.988281 624.277344 173.792969 C 624.949219 174.675781 625.605469 175.453125 626.277344 176.199219 Z M 635.820312 171.226562 C 636.523438 171.867188 637.585938 170.820312 636.867188 170.164062 C 635.507812 168.925781 633.777344 167.773438 631.925781 168.789062 C 631.144531 169.328125 630.527344 170.007812 630.074219 170.835938 C 629.621094 171.664062 629.375 172.550781 629.339844 173.496094 C 629.234375 174.476562 629.390625 175.417969 629.804688 176.316406 C 630.289062 177.203125 630.941406 177.945312 631.761719 178.542969 C 633.414062 179.824219 634.699219 181.410156 635.613281 183.292969 C 636 184.171875 637.285156 183.410156 636.914062 182.546875 C 636.222656 181.039062 635.28125 179.710938 634.089844 178.558594 C 632.96875 177.453125 631.328125 176.601562 630.921875 174.972656 C 630.761719 174.207031 630.773438 173.445312 630.953125 172.683594 C 631.132812 171.925781 631.46875 171.238281 631.953125 170.628906 C 633.222656 169.222656 634.65625 170.179688 635.820312 171.226562 Z M 667.4375 759.652344 C 668.082031 759.097656 668.628906 758.460938 669.082031 757.742188 C 669.421875 757.214844 669.6875 756.652344 669.867188 756.050781 C 670.050781 755.453125 670.148438 754.839844 670.160156 754.210938 C 670.167969 753.585938 670.09375 752.96875 669.929688 752.363281 C 669.769531 751.757812 669.523438 751.183594 669.203125 750.648438 C 668.679688 749.839844 667.378906 750.648438 667.917969 751.394531 C 668.179688 751.832031 668.375 752.296875 668.5 752.789062 C 668.628906 753.28125 668.683594 753.785156 668.664062 754.292969 C 668.644531 754.800781 668.554688 755.296875 668.390625 755.78125 C 668.230469 756.261719 668 756.710938 667.707031 757.128906 C 666.9375 758.25 665.941406 759.109375 664.722656 759.710938 C 662.703125 759.710938 660.671875 759.710938 658.65625 759.710938 C 653.503906 757.105469 648.53125 754.195312 643.738281 750.976562 C 638.945312 747.753906 634.367188 744.253906 630.003906 740.46875 C 625.640625 736.683594 621.527344 732.648438 617.664062 728.355469 C 613.800781 724.066406 610.214844 719.550781 606.910156 714.820312 C 606.210938 713.796875 605.289062 713.050781 604.144531 712.578125 C 604.035156 712.308594 603.910156 712.042969 603.773438 711.789062 C 603.160156 713.601562 602.851562 715.464844 602.851562 717.378906 C 602.851562 719.296875 603.160156 721.160156 603.773438 722.972656 C 608.148438 733.832031 614.0625 735.546875 614.0625 735.546875 C 620.574219 742.417969 636.570312 754.410156 644.230469 759.953125 C 634.925781 758.785156 614.0625 754.589844 606.386719 749.824219 C 604.996094 754.53125 605.296875 759.011719 610.253906 760.714844 C 622.457031 764.910156 678.953125 767.390625 683.433594 763.699219 C 683.84375 763.402344 684.203125 763.054688 684.507812 762.652344 C 684.8125 762.246094 685.054688 761.808594 685.234375 761.335938 C 685.410156 760.859375 685.511719 760.371094 685.546875 759.867188 C 685.578125 759.359375 685.535156 758.863281 685.421875 758.367188 C 679.429688 759.054688 673.441406 759.445312 667.4375 759.609375 Z M 635.390625 697.375 C 633.984375 705.515625 631.773438 713.460938 635.390625 721.269531 C 639.003906 729.082031 646.214844 735.980469 651.816406 742.613281 C 655.566406 747.003906 661.867188 740.640625 658.148438 736.28125 C 653.820312 731.203125 648.90625 726.273438 645.246094 720.6875 C 640.765625 713.894531 642.707031 707.246094 644.007812 699.691406 C 645.007812 694.058594 636.375 691.640625 635.390625 697.332031 Z M 603.457031 375.949219 C 603.457031 375.949219 588.660156 421.890625 595.335938 449.128906 C 602.011719 476.371094 628.191406 533.78125 628.191406 533.78125 C 628.191406 533.78125 625.203125 538.796875 635.808594 534.289062 L 635.65625 547.894531 L 645.351562 543.308594 L 643.378906 531.882812 C 643.378906 531.882812 657.957031 526.613281 664.09375 521.207031 C 670.230469 515.800781 687.988281 521.96875 687.988281 521.96875 L 689.960938 527.941406 L 714.675781 518.5625 C 714.675781 518.5625 720.113281 427.234375 705.253906 383.566406 C 705.269531 383.550781 613.75 379.371094 603.457031 375.949219 Z M 644.558594 679.453125 C 646.457031 665.070312 651.921875 651.480469 658 638.429688 C 659.734375 634.695312 661.539062 630.960938 663.347656 627.285156 C 663.765625 626.421875 662.480469 625.671875 662.046875 626.539062 C 655.609375 639.742188 649.113281 653.109375 645.394531 667.386719 C 644.359375 671.359375 643.574219 675.382812 643.035156 679.453125 C 642.945312 680.394531 644.441406 680.394531 644.558594 679.453125 Z M 578.621094 78.929688 C 577.441406 79.089844 576.28125 78.996094 575.140625 78.644531 C 574.148438 78.265625 573.183594 77.828125 572.246094 77.332031 C 571.457031 76.871094 570.609375 76.605469 569.699219 76.535156 C 568.789062 76.464844 567.910156 76.59375 567.0625 76.925781 C 566.667969 77.089844 566.320312 77.324219 566.019531 77.632812 C 565.722656 77.9375 565.5 78.292969 565.347656 78.695312 C 565.199219 79.097656 565.132812 79.511719 565.15625 79.9375 C 565.179688 80.367188 565.289062 80.769531 565.480469 81.152344 C 566.421875 83.125 568.675781 83.664062 570.363281 84.796875 C 572.265625 86.070312 573.605469 87.78125 574.378906 89.933594 C 574.710938 90.832031 576.15625 90.441406 575.875 89.546875 C 575.265625 87.847656 574.332031 86.355469 573.066406 85.066406 C 572.4375 84.4375 571.75 83.878906 571.003906 83.394531 C 570.167969 82.871094 569.257812 82.496094 568.40625 82.003906 C 567.554688 81.59375 566.988281 80.9375 566.703125 80.035156 C 566.636719 79.699219 566.675781 79.378906 566.828125 79.074219 C 566.976562 78.769531 567.203125 78.539062 567.511719 78.390625 C 569.003906 77.496094 570.707031 78.195312 572.125 78.898438 C 573.078125 79.429688 574.074219 79.855469 575.113281 80.183594 C 576.28125 80.496094 577.464844 80.574219 578.667969 80.421875 C 578.871094 80.414062 579.042969 80.339844 579.1875 80.195312 C 579.332031 80.050781 579.40625 79.878906 579.414062 79.675781 C 579.417969 79.570312 579.398438 79.472656 579.355469 79.375 C 579.316406 79.28125 579.257812 79.195312 579.183594 79.125 C 579.109375 79.054688 579.023438 79 578.925781 78.96875 C 578.828125 78.933594 578.726562 78.917969 578.621094 78.929688 Z M 600.828125 269.4375 C 606.292969 257.308594 610.023438 244.667969 612.015625 231.515625 C 612.152344 230.574219 610.71875 230.171875 610.523438 231.128906 C 608.554688 244.152344 604.871094 256.675781 599.472656 268.6875 C 599.140625 269.554688 600.441406 270.316406 600.828125 269.4375 Z M 568.199219 84.542969 C 567.953125 84.859375 567.636719 85.050781 567.242188 85.113281 C 566.886719 85.074219 566.535156 85.074219 566.179688 85.113281 C 565.34375 85.351562 565.433594 86.140625 565.03125 86.738281 C 564.851562 87.046875 564.609375 87.285156 564.296875 87.460938 C 563.988281 87.632812 563.65625 87.71875 563.300781 87.710938 C 562.539062 87.710938 561.804688 87.277344 561.089844 87.605469 C 560.757812 87.753906 560.5 87.980469 560.3125 88.292969 C 560.164062 88.546875 560.101562 88.949219 559.863281 89.144531 C 559.296875 89.621094 558.28125 89.039062 557.789062 88.695312 C 556.417969 87.453125 555.511719 85.9375 555.070312 84.140625 C 554.742188 83.246094 553.292969 83.632812 553.578125 84.542969 C 554.160156 86.558594 555.21875 88.273438 556.757812 89.695312 C 557.996094 90.683594 560.3125 91.429688 561.238281 89.695312 C 561.445312 89.339844 561.460938 88.917969 561.941406 88.917969 C 562.417969 88.917969 562.882812 89.160156 563.359375 89.160156 C 564.257812 89.167969 565.046875 88.875 565.71875 88.277344 C 566.011719 88.015625 566.25 87.714844 566.433594 87.367188 C 566.535156 87.203125 566.617188 87.027344 566.675781 86.84375 C 566.675781 86.710938 566.675781 86.589844 566.777344 86.46875 C 566.777344 86.605469 566.777344 86.664062 566.941406 86.605469 C 567.71875 86.859375 568.808594 86.140625 569.273438 85.605469 C 569.734375 85.066406 568.839844 83.828125 568.199219 84.542969 Z M 568.199219 84.542969 " fill-opacity="1" fill-rule="nonzero"/><path fill="#e0e0e0" d="M 656.371094 612.246094 C 655.730469 613.742188 652.757812 612.605469 651.757812 614.324219 C 650.710938 612.652344 653.832031 611.917969 656.371094 612.246094 Z M 643.632812 651.808594 C 645.214844 651.496094 644.230469 653.304688 645.023438 653.691406 C 645.484375 652.09375 648.1875 652.378906 648.917969 651.019531 C 647.128906 651.078125 645.363281 651.34375 643.632812 651.808594 Z M 656.730469 611.367188 C 658.5 610.460938 660.152344 609.375 661.6875 608.109375 C 659.539062 608.78125 657.285156 609.363281 656.730469 611.367188 Z M 580.832031 74.269531 C 582.324219 74.566406 580.832031 73.386719 580.832031 74.269531 Z M 858.171875 89.070312 C 859.664062 89.351562 858.171875 88.1875 858.171875 89.070312 Z M 575.902344 94.699219 C 576.800781 95.847656 576.425781 93.714844 575.902344 94.699219 Z M 868.445312 97.28125 C 870.328125 97.613281 868.863281 96.386719 868.445312 97.28125 Z M 568.78125 103.792969 C 570.273438 104.078125 568.78125 102.914062 568.78125 103.792969 Z M 841.488281 106.167969 C 843.371094 106.484375 841.921875 105.273438 841.488281 106.167969 Z M 859.230469 107.050781 C 859.230469 107.050781 859.15625 106.992188 859.230469 107.125 Z M 844.296875 107.945312 Z M 838.320312 109.125 C 839.816406 109.410156 838.320312 108.246094 838.320312 109.125 Z M 836.828125 110.621094 Z M 564.523438 112.679688 C 563.65625 113.667969 565.703125 111.964844 564.523438 112.679688 Z M 845.042969 114.175781 C 846.535156 114.457031 845.117188 113.292969 845.042969 114.175781 Z M 835.46875 118.910156 C 836.964844 119.191406 835.46875 118.027344 835.46875 118.910156 Z M 562.03125 119.507812 C 563.523438 119.773438 562.03125 118.609375 562.03125 119.507812 Z M 575.472656 123.046875 C 576.351562 124.210938 575.980469 122.074219 575.472656 123.046875 Z M 559.503906 123.34375 C 560.609375 124.316406 560.101562 122.300781 559.503906 123.34375 Z M 558.011719 124.226562 C 559.503906 124.523438 558.011719 123.34375 558.011719 124.226562 Z M 575.039062 128.378906 C 576.53125 128.660156 575.113281 127.496094 575.039062 128.378906 Z M 825.417969 134.351562 Z M 814.066406 135.546875 C 815.5625 135.816406 814.066406 134.648438 814.066406 135.546875 Z M 820.042969 136.425781 C 821.535156 136.710938 820.042969 135.546875 820.042969 136.425781 Z M 558.683594 137.605469 C 557.324219 136.785156 557.117188 138.695312 558.683594 137.605469 Z M 811.1875 139.101562 Z M 816.859375 139.101562 Z M 680.953125 139.398438 Z M 669.960938 140.296875 C 671.84375 140.609375 670.382812 139.382812 669.960938 140.296875 Z M 671.738281 140.296875 Z M 643.960938 149.675781 C 645.453125 149.957031 643.960938 148.792969 643.960938 149.675781 Z M 814.21875 151.453125 C 811.949219 151.109375 813.441406 152.347656 814.21875 151.453125 Z M 686.898438 152.632812 Z M 644.335938 153.511719 C 643.484375 154.511719 645.53125 152.796875 644.335938 153.511719 Z M 662.792969 155.886719 C 661.941406 156.871094 663.988281 155.171875 662.792969 155.886719 Z M 644.351562 156.484375 C 646.230469 156.796875 644.78125 155.574219 644.351562 156.484375 Z M 675.5625 159.738281 C 677.058594 160.023438 675.5625 158.84375 675.5625 159.738281 Z M 800.042969 161.234375 C 801.925781 161.546875 800.460938 160.324219 800.042969 161.234375 Z M 780.179688 163.011719 C 780.421875 163.203125 780.03125 162.875 780.179688 163.011719 Z M 779.480469 163.292969 Z M 668.125 163.59375 C 669.621094 163.878906 668.125 162.710938 668.125 163.59375 Z M 566.644531 165.65625 C 564.824219 166.371094 567.867188 166.417969 566.644531 165.65625 Z M 679.417969 167.429688 C 680.910156 167.714844 679.492188 166.535156 679.417969 167.429688 Z M 792.203125 168.925781 C 794.085938 169.238281 792.621094 168.027344 792.203125 168.925781 Z M 784.734375 171 C 786.230469 171.285156 784.8125 170.105469 784.734375 171 Z M 570.886719 173.988281 C 570.035156 174.972656 572.082031 173.269531 570.886719 173.988281 Z M 681.539062 175.480469 Z M 679.402344 177.839844 Z M 663.808594 180.15625 C 662.957031 181.15625 665.003906 179.4375 663.808594 180.15625 Z M 765.605469 182.230469 C 767.097656 182.515625 765.605469 181.335938 765.605469 182.230469 Z M 758.136719 183.726562 C 757.285156 184.710938 759.332031 183.007812 758.136719 183.726562 Z M 570.886719 184.308594 C 571.394531 185.292969 571.765625 183.15625 570.886719 184.308594 Z M 658.835938 186.683594 C 660.328125 186.964844 658.835938 185.785156 658.835938 186.683594 Z M 755.660156 188.175781 C 757.539062 188.488281 756.078125 187.28125 755.660156 188.175781 Z M 671.605469 188.773438 Z M 678.699219 189.058594 C 680.191406 189.339844 678.699219 188.175781 678.699219 189.058594 Z M 576.574219 189.265625 C 578.457031 189.59375 576.996094 188.371094 576.574219 189.265625 Z M 758.871094 189.566406 C 760.734375 189.894531 759.289062 188.667969 758.871094 189.566406 Z M 673.039062 190.757812 Z M 662.40625 192.835938 C 663.898438 193.121094 662.40625 191.953125 662.40625 192.835938 Z M 665.945312 194.328125 C 667.4375 194.613281 665.945312 193.449219 665.945312 194.328125 Z M 736.871094 196.105469 Z M 669.84375 199.363281 Z M 737.585938 201.738281 C 736.722656 202.722656 738.765625 201.019531 737.585938 201.738281 Z M 585.132812 202.050781 C 586.628906 202.335938 585.207031 201.167969 585.132812 202.050781 Z M 659.597656 202.347656 C 660.121094 203.335938 660.496094 201.199219 659.597656 202.347656 Z M 736.914062 207.382812 Z M 590.808594 208.875 C 592.003906 209.773438 591.882812 207.785156 590.808594 208.875 Z M 587.972656 211.25 C 589.464844 211.535156 588.046875 210.355469 587.972656 211.25 Z M 718.128906 214.238281 Z M 596.484375 214.820312 C 597.976562 215.101562 596.558594 213.9375 596.484375 214.820312 Z M 665.632812 217.804688 C 667.125 218.089844 665.632812 216.910156 665.632812 217.804688 Z M 726.28125 219.867188 C 726.503906 220.0625 726.132812 219.746094 726.28125 219.867188 Z M 697.90625 221.359375 Z M 700.042969 222.855469 C 700.265625 223.035156 699.890625 222.71875 700.042969 222.855469 Z M 695.382812 225.109375 Z M 715.945312 225.109375 C 713.675781 224.765625 715.171875 226.019531 715.945312 225.109375 Z M 652.832031 225.992188 C 650.546875 225.660156 652.042969 226.902344 652.832031 225.992188 Z M 674.457031 227.484375 C 674.695312 227.679688 674.308594 227.351562 674.457031 227.484375 Z M 674.101562 228.066406 C 674.621094 229.050781 674.980469 226.917969 674.101562 228.066406 Z M 680.492188 228.960938 C 682.375 229.277344 680.910156 228.050781 680.492188 228.960938 Z M 676.578125 229.246094 C 678.074219 229.546875 676.578125 228.367188 676.578125 229.246094 Z M 690.410156 229.246094 C 690.15625 229.664062 691.273438 227.933594 690.410156 229.246094 Z M 714.886719 229.84375 C 716.378906 230.128906 714.960938 228.960938 714.886719 229.84375 Z M 613.507812 231.082031 C 614.628906 232.054688 614.121094 230.039062 613.507812 231.082031 Z M 671.320312 233.457031 C 672.816406 233.742188 671.320312 232.578125 671.320312 233.457031 Z M 684.449219 233.757812 C 685.941406 234.039062 684.523438 232.859375 684.449219 233.757812 Z M 648.917969 235.5625 C 650.414062 235.847656 648.996094 234.667969 648.917969 235.5625 Z M 676.234375 236.445312 Z M 647.5 236.742188 C 648.996094 237.027344 647.5 235.863281 647.5 236.742188 Z M 680.132812 238.238281 C 682.015625 238.566406 680.550781 237.339844 680.132812 238.238281 Z M 693.964844 240.894531 C 695.457031 241.179688 693.964844 240.015625 693.964844 240.894531 Z M 690.066406 241.195312 C 691.558594 241.476562 690.066406 240.3125 690.066406 241.195312 Z M 583.671875 242.089844 L 583.773438 241.910156 L 583.65625 242.089844 Z M 583.96875 241.613281 C 583.914062 241.707031 583.855469 241.796875 583.789062 241.882812 Z M 667.003906 247.125 C 667.886719 248.273438 667.527344 246.136719 667.003906 247.125 Z M 663.808594 248.886719 C 665.304688 249.167969 663.808594 248.003906 663.808594 248.886719 Z M 668.082031 250.066406 C 669.902344 249.363281 666.855469 249.320312 668.082031 250.066406 Z M 645.023438 250.066406 C 646.902344 250.394531 645.441406 249.183594 645.023438 250.066406 Z M 629.414062 253.917969 C 630.519531 254.890625 630.011719 252.875 629.414062 253.917969 Z M 690.765625 258.652344 C 691.871094 259.625 691.363281 257.609375 690.765625 258.652344 Z M 638.285156 261.640625 C 638.292969 261.699219 638.292969 261.757812 638.285156 261.820312 C 638.285156 261.820312 638.285156 261.730469 638.285156 261.699219 Z M 633.671875 265.238281 C 635.554688 265.566406 634.089844 264.34375 633.671875 265.238281 Z M 600.335938 269.390625 C 602.21875 269.703125 600.753906 268.480469 600.335938 269.390625 Z M 681.894531 274.425781 C 683.390625 274.707031 681.894531 273.527344 681.894531 274.425781 Z M 702.804688 277.964844 Z M 605.625 278.5625 C 607.117188 278.84375 605.625 277.679688 605.625 278.5625 Z M 608.820312 279.457031 C 609.925781 280.414062 609.417969 278.398438 608.820312 279.457031 Z M 688.960938 283.59375 C 690.453125 283.878906 688.960938 282.710938 688.960938 283.59375 Z M 610.941406 284.476562 C 610.566406 286.191406 612.433594 284.609375 610.941406 284.476562 Z M 656.34375 286.847656 C 658.222656 287.164062 656.761719 285.953125 656.34375 286.847656 Z M 684.71875 288.34375 Z M 665.585938 292.914062 C 666.78125 293.808594 666.664062 291.824219 665.585938 292.914062 Z M 614.882812 296.46875 C 616.378906 296.75 614.882812 295.585938 614.882812 296.46875 Z M 649.980469 298.289062 C 650.503906 299.273438 650.863281 297.140625 649.980469 298.289062 Z M 635.792969 298.871094 C 634.941406 299.871094 636.988281 298.171875 635.792969 298.871094 Z M 701.757812 300.648438 Z M 684.75 305.9375 C 686.242188 306.21875 684.75 305.054688 684.75 305.9375 Z M 632.925781 307.714844 C 630.65625 307.371094 632.148438 308.609375 632.925781 307.714844 Z M 647.097656 308.894531 C 648.589844 309.175781 647.097656 308.011719 647.097656 308.894531 Z M 611.644531 312.148438 C 613.523438 312.476562 612.0625 311.253906 611.644531 312.148438 Z M 626.949219 315.40625 C 628.832031 315.734375 627.367188 314.507812 626.949219 315.40625 Z M 689.75 316.613281 C 689.75 316.613281 689.675781 316.570312 689.675781 316.613281 Z M 640.46875 323.097656 C 642.347656 323.425781 640.886719 322.199219 640.46875 323.097656 Z M 682.613281 326.664062 C 684.496094 326.996094 683.03125 325.769531 682.613281 326.664062 Z M 622.320312 327.84375 C 623.203125 329.011719 622.84375 326.875 622.320312 327.84375 Z M 598.917969 328.742188 C 600.800781 329.054688 599.335938 327.84375 598.917969 328.742188 Z M 661.644531 334.355469 C 663.136719 334.640625 661.644531 333.476562 661.644531 334.355469 Z M 660.152344 336.132812 C 661.644531 336.417969 660.152344 335.253906 660.152344 336.132812 Z M 598.800781 338.808594 C 599.902344 339.761719 599.394531 337.761719 598.800781 338.808594 Z M 611.210938 347.976562 C 612.703125 348.261719 611.285156 347.097656 611.210938 347.976562 Z M 630.355469 349.15625 C 631.847656 349.441406 630.355469 348.277344 630.355469 349.15625 Z M 634.972656 353.636719 C 633.894531 354.625 636.285156 354.535156 634.972656 353.636719 Z M 672.921875 354.816406 C 674.800781 355.132812 673.339844 353.90625 672.921875 354.816406 Z M 599.15625 355.996094 C 598.292969 356.996094 600.335938 355.28125 599.15625 355.996094 Z M 671.859375 366.660156 Z M 678.59375 370.796875 C 680.089844 371.082031 678.59375 369.902344 678.59375 370.796875 Z M 688.527344 371.679688 C 687.660156 372.679688 689.707031 370.960938 688.527344 371.679688 Z M 650.21875 372.574219 C 651.710938 372.859375 650.21875 371.679688 650.21875 372.574219 Z M 647.023438 373.457031 C 648.515625 373.738281 647.023438 372.574219 647.023438 373.457031 Z M 661.957031 374.652344 C 662.464844 375.621094 662.839844 373.484375 661.957031 374.652344 Z M 685.359375 375.234375 Z M 638.898438 375.832031 C 640.390625 376.113281 638.898438 374.933594 638.898438 375.832031 Z M 643.183594 381 C 643.183594 381 643.183594 381.117188 643.183594 381.191406 C 643.222656 381.117188 643.253906 381.035156 643.273438 380.953125 Z M 681.105469 381.746094 Z M 684.660156 382.640625 Z M 613.507812 383.777344 C 615.003906 384.058594 613.507812 382.878906 613.507812 383.777344 Z M 666.003906 387.03125 C 667.5 387.316406 666.003906 386.136719 666.003906 387.03125 Z M 702.535156 389.691406 Z M 683.703125 390.886719 C 683.328125 392.601562 685.195312 391.019531 683.703125 390.886719 Z M 643.992188 392.378906 C 644.871094 393.527344 644.5 391.394531 643.992188 392.378906 Z M 692.933594 394.140625 C 694.425781 394.425781 692.933594 393.257812 692.933594 394.140625 Z M 690.796875 400.367188 C 692.289062 400.652344 690.796875 399.472656 690.796875 400.367188 Z M 679.445312 400.949219 C 677.175781 400.609375 678.667969 401.863281 679.445312 400.949219 Z M 611.71875 403.9375 C 612.914062 404.847656 612.792969 402.847656 611.71875 403.9375 Z M 702.820312 404.238281 C 703.042969 404.429688 702.671875 404.117188 702.820312 404.238281 Z M 657.417969 405.417969 C 659.300781 405.746094 657.835938 404.519531 657.417969 405.417969 Z M 655.925781 409.269531 C 657.804688 409.597656 656.34375 408.375 655.925781 409.269531 Z M 694.933594 409.269531 C 695.457031 410.253906 695.816406 408.121094 694.933594 409.269531 Z M 643.15625 412.523438 C 644.648438 412.808594 643.230469 411.644531 643.15625 412.523438 Z M 610.179688 414.019531 C 609.328125 415.019531 611.375 413.300781 610.179688 414.019531 Z M 633.941406 414.617188 C 635.433594 414.898438 633.941406 413.734375 633.941406 414.617188 Z M 644.574219 416.675781 C 646.066406 416.960938 644.574219 415.796875 644.574219 416.675781 Z M 639.617188 423.488281 C 641.109375 423.769531 639.691406 422.605469 639.617188 423.488281 Z M 637.839844 424.085938 C 639.332031 424.367188 637.839844 423.203125 637.839844 424.085938 Z M 693.515625 426.160156 C 691.246094 425.816406 692.738281 427.058594 693.515625 426.160156 Z M 658.433594 427.476562 L 658.433594 427.667969 C 658.476562 427.589844 658.503906 427.503906 658.523438 427.414062 Z M 649.351562 428.222656 C 650.847656 428.503906 649.351562 427.339844 649.351562 428.222656 Z M 655.730469 430.296875 C 657.222656 430.582031 655.730469 429.417969 655.730469 430.296875 Z M 606.445312 432.074219 C 608.328125 432.386719 606.863281 431.179688 606.445312 432.074219 Z M 661.703125 444.800781 C 663.585938 445.128906 662.121094 443.902344 661.703125 444.800781 Z M 613.121094 447.457031 C 614.613281 447.742188 613.195312 446.578125 613.121094 447.457031 Z M 629.085938 449.488281 C 629.085938 449.488281 629.085938 449.59375 629.085938 449.652344 C 629.09375 449.613281 629.09375 449.574219 629.085938 449.535156 Z M 618.4375 456.34375 C 620.320312 456.65625 618.855469 455.449219 618.4375 456.34375 Z M 629.429688 464.632812 C 631.3125 464.945312 629.847656 463.738281 629.429688 464.632812 Z M 664.898438 466.992188 C 664.035156 467.992188 666.078125 466.273438 664.898438 466.992188 Z M 668.769531 469.007812 C 670.261719 469.292969 668.769531 468.128906 668.769531 469.007812 Z M 627.996094 471.382812 C 629.488281 471.667969 627.996094 470.488281 627.996094 471.382812 Z M 704.253906 477.597656 C 703.058594 476.683594 703.175781 478.6875 704.253906 477.597656 Z M 612.746094 480.253906 C 614.242188 480.539062 612.746094 479.375 612.746094 480.253906 Z M 619.125 485.289062 C 620.617188 485.570312 619.199219 484.40625 619.125 485.289062 Z M 650.339844 485.289062 C 651.832031 485.570312 650.339844 484.40625 650.339844 485.289062 Z M 623.039062 485.585938 C 623.230469 484.390625 622.738281 487.332031 623.039062 485.585938 Z M 658.148438 488.574219 C 658.65625 489.558594 659.03125 487.421875 658.148438 488.574219 Z M 635.746094 489.171875 C 634.894531 490.15625 636.941406 488.453125 635.746094 489.171875 Z M 662.792969 489.453125 C 661.597656 488.558594 661.71875 490.558594 662.792969 489.453125 Z M 684.792969 496.921875 C 686.285156 497.207031 684.792969 496.023438 684.792969 496.921875 Z M 650.441406 498.699219 C 651.9375 498.984375 650.441406 497.800781 650.441406 498.699219 Z M 622.425781 499.878906 C 623.917969 500.164062 622.5 498.996094 622.425781 499.878906 Z M 637.675781 501.371094 C 636.824219 502.359375 638.867188 500.65625 637.675781 501.371094 Z M 638.75 503.148438 C 640.242188 503.433594 638.75 502.269531 638.75 503.148438 Z M 671.023438 505.507812 C 670.15625 506.507812 672.203125 504.808594 671.023438 505.507812 Z M 618.886719 508.496094 C 620.378906 508.78125 618.886719 507.601562 618.886719 508.496094 Z M 631.191406 511.855469 C 632.6875 512.140625 631.191406 510.976562 631.191406 511.855469 Z M 624.097656 515.410156 C 625.59375 515.695312 624.097656 514.53125 624.097656 515.410156 Z M 683.703125 516.335938 C 683.941406 516.53125 683.554688 516.203125 683.703125 516.335938 Z M 655.683594 520.175781 C 654.835938 521.175781 656.878906 519.457031 655.683594 520.175781 Z M 649.710938 522.25 C 648.84375 523.238281 650.890625 521.535156 649.710938 522.25 Z M 663.539062 523.746094 C 665.035156 524.027344 663.539062 522.863281 663.539062 523.746094 Z M 674.546875 525.835938 Z M 682.015625 530.554688 C 682.910156 531.703125 682.539062 529.570312 682.015625 530.554688 Z M 683.089844 542.679688 Z M 659.210938 549.507812 C 660.089844 550.65625 659.71875 548.519531 659.210938 549.507812 Z M 655.027344 551.507812 L 654.683594 551.835938 L 654.953125 551.582031 Z M 662.40625 563.710938 C 663.898438 563.992188 662.40625 562.828125 662.40625 563.710938 Z M 684.808594 570.519531 C 686.300781 570.804688 684.808594 569.636719 684.808594 570.519531 Z M 661.300781 572.296875 C 660.449219 573.28125 662.496094 571.582031 661.300781 572.296875 Z M 663.4375 575.851562 C 664.929688 576.136719 663.4375 574.957031 663.4375 575.851562 Z M 659.210938 579.0625 Z M 661.332031 579.359375 C 663.210938 579.675781 661.75 578.449219 661.332031 579.359375 Z M 645.378906 580.554688 C 647.261719 580.871094 645.796875 579.660156 645.378906 580.554688 Z M 654.59375 582.050781 C 656.089844 582.332031 654.59375 581.167969 654.59375 582.050781 Z M 666.304688 582.347656 C 666.8125 583.320312 667.183594 581.199219 666.304688 582.347656 Z M 685.089844 582.347656 C 686.585938 582.632812 685.089844 581.453125 685.089844 582.347656 Z M 646.441406 583.230469 L 646.039062 583.347656 L 646.8125 583.125 Z M 665.585938 584.425781 C 665.824219 584.617188 665.4375 584.289062 665.585938 584.425781 Z M 646.082031 585.035156 C 647.574219 585.320312 646.082031 584.15625 646.082031 585.035156 Z M 627.292969 585.632812 C 628.789062 585.917969 627.367188 584.738281 627.292969 585.632812 Z M 654.175781 585.933594 C 653.324219 586.917969 655.371094 585.214844 654.175781 585.933594 Z M 652.117188 588.023438 C 653.609375 588.308594 652.191406 587.140625 652.117188 588.023438 Z M 662.046875 589.203125 C 663.539062 589.5 662.046875 588.320312 662.046875 589.203125 Z M 664.527344 592.191406 C 665.050781 593.160156 665.40625 591.039062 664.527344 592.191406 Z M 659.554688 592.488281 C 660.671875 593.445312 660.164062 591.429688 659.554688 592.488281 Z M 668.425781 592.488281 C 668.664062 592.683594 668.273438 592.355469 668.425781 592.488281 Z M 649.636719 594.847656 C 649.261719 596.566406 651.128906 594.96875 649.636719 594.847656 Z M 631.894531 597.222656 C 633.777344 597.535156 632.3125 596.3125 631.894531 597.222656 Z M 673.039062 598.105469 C 674.921875 598.433594 673.457031 597.207031 673.039062 598.105469 Z M 653.894531 598.703125 C 655.386719 598.984375 653.894531 597.804688 653.894531 598.703125 Z M 652.398438 599.582031 L 652.144531 599.820312 L 652.59375 599.386719 Z M 672.605469 599.582031 C 673.800781 600.480469 673.683594 598.492188 672.605469 599.582031 Z M 676.863281 600.179688 C 677.96875 601.152344 677.460938 599.132812 676.863281 600.179688 Z M 652.398438 602.242188 C 652.25 602.121094 652.625 602.449219 652.398438 602.242188 Z M 626.949219 604.554688 C 627.175781 604.75 626.800781 604.4375 626.949219 604.554688 Z M 676.234375 605.453125 C 678.117188 605.765625 676.652344 604.542969 676.234375 605.453125 Z M 649.980469 617.578125 C 650.21875 617.773438 649.847656 617.460938 649.980469 617.578125 Z M 656.371094 619.074219 Z M 632.925781 619.386719 Z M 627.953125 622.375 C 629.757812 623.179688 629.265625 621.34375 627.953125 622.375 Z M 660.582031 624.152344 Z M 658.449219 627.703125 C 659.941406 627.988281 658.449219 626.808594 658.449219 627.703125 Z M 628.578125 629.199219 C 629.101562 630.183594 629.476562 628.035156 628.578125 629.199219 Z M 634.269531 629.78125 C 634.464844 627.882812 631.863281 630.050781 634.269531 629.78125 Z M 655.175781 630.378906 Z M 636.015625 630.976562 C 637.507812 631.257812 636.089844 630.078125 636.015625 630.976562 Z M 659.777344 632.15625 Z M 652.636719 634.933594 L 652.414062 635.292969 C 652.625 635.082031 652.726562 634.933594 652.773438 634.859375 Z M 652.324219 635.410156 L 652.414062 635.292969 C 652.40625 635.332031 652.40625 635.371094 652.414062 635.410156 Z M 630.699219 636.308594 C 629.847656 637.292969 631.894531 635.589844 630.699219 636.308594 Z M 649.351562 646.582031 C 648.007812 645.761719 647.859375 647.671875 649.351562 646.582031 Z M 643.378906 650.136719 Z M 623.054688 652.242188 C 622.964844 652.152344 623.007812 652.242188 623.054688 652.242188 Z M 623.054688 652.242188 Z M 650.695312 653.734375 C 652.191406 654.019531 650.695312 652.839844 650.695312 653.734375 Z M 636.507812 657.871094 C 638.003906 658.15625 636.582031 656.992188 636.507812 657.871094 Z M 628.699219 674.449219 C 628.9375 674.644531 628.5625 674.332031 628.699219 674.449219 Z M 622.320312 681.214844 Z M 621.621094 681.5 C 621.84375 681.695312 621.46875 681.378906 621.621094 681.5 Z M 645.378906 682.992188 C 646.875 683.292969 645.378906 682.113281 645.378906 682.992188 Z M 643.886719 683.589844 C 645.378906 683.875 643.886719 682.710938 643.886719 683.589844 Z M 620.46875 686.265625 C 621.960938 686.53125 620.46875 685.367188 620.46875 686.265625 Z M 616.914062 691.878906 L 616.988281 691.878906 Z M 630.058594 700.46875 L 629.984375 700.46875 Z M 611.597656 701.347656 Z M 624.726562 702.242188 C 626.21875 702.511719 624.726562 701.347656 624.726562 702.242188 Z M 647.425781 703.125 C 646.574219 704.125 648.621094 702.410156 647.425781 703.125 Z M 622.605469 703.722656 C 620.335938 703.378906 621.828125 704.617188 622.605469 703.722656 Z M 630.746094 704.304688 Z M 619.050781 704.605469 C 620.542969 704.886719 619.125 703.722656 619.050781 704.605469 Z M 617.648438 706.976562 Z M 632.925781 707.5 C 633.804688 708.664062 633.433594 706.53125 632.925781 707.5 Z M 636.105469 707.800781 C 637.597656 708.082031 636.179688 706.917969 636.105469 707.800781 Z M 620.859375 708.398438 C 620.007812 709.382812 622.050781 707.679688 620.859375 708.398438 Z M 608.445312 710.175781 C 608.6875 710.355469 608.296875 710.039062 608.445312 710.175781 Z M 601.710938 713.714844 C 603.203125 713.996094 601.710938 712.832031 601.710938 713.714844 Z M 648.875 714.011719 C 648.023438 715.011719 650.070312 713.296875 648.875 714.011719 Z M 611.984375 714.3125 L 612.0625 714.3125 Z M 607.746094 719.046875 C 609.238281 719.328125 607.746094 718.164062 607.746094 719.046875 Z M 572.320312 110.304688 C 571.347656 111.203125 573.394531 109.5 572.320312 110.304688 Z M 663.421875 151.453125 C 661.359375 151.585938 662.480469 152.527344 663.421875 151.453125 Z M 760.226562 183.113281 C 757.914062 183.113281 760.960938 184.25 760.226562 183.113281 Z M 619.214844 237.984375 L 618.886719 238.117188 Z M 619.214844 237.984375 Z M 619.214844 237.984375 L 619.765625 237.746094 L 619.4375 237.878906 Z M 683.703125 360.089844 C 682.730469 361 684.777344 359.28125 683.703125 360.089844 Z M 702.148438 399.457031 C 700.054688 399.832031 701.414062 401.667969 702.148438 399.457031 Z M 617.019531 466.664062 C 618.511719 467.082031 618.15625 464.511719 617.019531 466.664062 Z M 670.933594 466.960938 C 672.007812 467.785156 669.964844 466.066406 670.933594 466.960938 Z M 628.371094 481.464844 C 627.398438 482.375 629.445312 480.65625 628.371094 481.464844 Z M 646.457031 499.820312 C 645.484375 500.714844 647.53125 499.011719 646.457031 499.820312 Z M 688.660156 507.210938 C 686.601562 507.359375 687.71875 508.300781 688.660156 507.210938 Z M 648.90625 582.796875 L 648.488281 582.617188 Z M 648.488281 582.617188 L 648.007812 582.421875 Z M 687.316406 513.5 C 685.875 507.644531 684.597656 501.75 683.492188 495.816406 C 681.550781 485.363281 680.191406 474.90625 679.28125 464.453125 C 678.371094 454 677.730469 443.15625 675.546875 432.597656 C 675.355469 431.65625 676.804688 431.269531 677.042969 432.210938 C 678.191406 438.082031 679.03125 444.003906 679.550781 449.964844 C 680.582031 460.601562 681.253906 471.25 682.746094 481.851562 C 684.207031 492.367188 686.199219 502.78125 688.722656 513.097656 C 688.960938 514.035156 687.511719 514.425781 687.289062 513.5 Z M 667.902344 612.320312 C 671.753906 652.542969 646.367188 698.898438 646.367188 698.898438 C 647.785156 692.058594 641.003906 687.144531 636.464844 684.679688 C 626.816406 686.773438 625.070312 700.347656 619.675781 703.484375 C 613.703125 706.902344 612.046875 695.464844 612.046875 695.464844 C 612.046875 695.464844 624.441406 665.339844 623.113281 631.410156 C 622.761719 625.046875 623.292969 618.757812 624.707031 612.542969 C 626.125 606.328125 628.371094 600.429688 631.445312 594.847656 C 631.789062 585.453125 632.640625 576.507812 632.640625 576.507812 L 644.871094 571.160156 L 642.332031 581.078125 C 643.136719 582.417969 644.03125 583.695312 645.019531 584.90625 C 646.007812 586.117188 647.078125 587.25 648.226562 588.304688 C 649.378906 589.363281 650.601562 590.328125 651.890625 591.207031 C 653.183594 592.089844 654.53125 592.871094 655.9375 593.554688 C 657.339844 594.238281 658.789062 594.820312 660.277344 595.292969 C 661.765625 595.769531 663.277344 596.136719 664.820312 596.390625 C 666.363281 596.648438 667.914062 596.792969 669.476562 596.824219 C 671.039062 596.855469 672.59375 596.773438 674.144531 596.582031 Z M 662.03125 626.539062 C 655.59375 639.742188 649.097656 653.109375 645.378906 667.386719 C 644.347656 671.359375 643.558594 675.382812 643.019531 679.453125 C 642.902344 680.394531 644.394531 680.394531 644.515625 679.453125 C 646.410156 665.070312 651.875 651.480469 657.957031 638.429688 C 659.6875 634.695312 661.496094 630.960938 663.300781 627.285156 C 663.792969 626.421875 662.511719 625.671875 662.078125 626.539062 Z M 656.207031 735.5625 C 654.535156 738.472656 652.25 740.773438 649.351562 742.464844 C 649.25 742.519531 649.144531 742.550781 649.027344 742.558594 C 648.910156 742.566406 648.800781 742.550781 648.691406 742.507812 C 648.585938 742.460938 648.492188 742.398438 648.414062 742.3125 C 648.335938 742.226562 648.28125 742.125 648.246094 742.015625 C 648.128906 739.980469 648.578125 738.078125 649.59375 736.308594 C 647.75 736.3125 646.027344 736.765625 644.425781 737.667969 C 643.648438 738.148438 642.929688 737.101562 643.511719 736.488281 C 644.734375 735.050781 645.824219 733.515625 646.785156 731.890625 C 644.933594 732.292969 643.09375 732.785156 641.289062 733.382812 C 640.972656 733.457031 640.714844 733.367188 640.515625 733.109375 C 640.3125 732.855469 640.289062 732.582031 640.4375 732.292969 L 642.542969 728.140625 C 641.050781 728.335938 639.675781 728.515625 638.226562 728.632812 C 637.421875 728.632812 637.316406 727.617188 637.851562 727.246094 C 639.617188 725.941406 641.042969 724.335938 642.140625 722.4375 C 639.621094 722.203125 637.132812 722.371094 634.671875 722.945312 C 634.511719 722.988281 634.351562 722.976562 634.195312 722.914062 C 634.039062 722.851562 633.921875 722.746094 633.835938 722.601562 C 633.75 722.457031 633.714844 722.300781 633.734375 722.136719 C 633.753906 721.96875 633.824219 721.824219 633.941406 721.703125 L 638.003906 717.402344 C 636.078125 717.121094 634.183594 716.6875 632.328125 716.101562 C 632.121094 716.074219 631.957031 715.980469 631.832031 715.816406 C 631.703125 715.652344 631.65625 715.464844 631.683594 715.261719 C 631.707031 715.054688 631.804688 714.890625 631.96875 714.761719 C 632.132812 714.636719 632.316406 714.585938 632.523438 714.609375 C 634.695312 714.457031 636.632812 713.703125 638.332031 712.339844 C 636.097656 711.800781 633.921875 711.082031 631.804688 710.1875 C 631.683594 710.15625 631.578125 710.09375 631.488281 710.007812 C 631.394531 709.917969 631.332031 709.8125 631.292969 709.691406 C 631.257812 709.574219 631.25 709.449219 631.273438 709.328125 C 631.296875 709.203125 631.351562 709.09375 631.429688 708.996094 C 632.925781 707.308594 635.121094 706.933594 637.195312 706.457031 L 637.570312 706.351562 C 635.621094 705.347656 633.824219 704.121094 632.179688 702.675781 C 631.953125 702.4375 631.902344 702.164062 632.03125 701.859375 C 632.15625 701.554688 632.386719 701.398438 632.714844 701.394531 C 636.484375 701.425781 640.21875 701.078125 643.917969 700.347656 C 644.859375 700.152344 645.261719 701.601562 644.320312 701.839844 C 641.171875 702.460938 637.996094 702.820312 634.792969 702.917969 C 636.300781 704.042969 637.914062 704.988281 639.628906 705.753906 C 641.257812 705.148438 642.753906 704.300781 644.109375 703.214844 C 644.859375 702.632812 645.917969 703.679688 645.171875 704.273438 C 644.070312 705.15625 642.882812 705.910156 641.617188 706.53125 C 641.988281 706.664062 642.347656 706.8125 642.722656 706.933594 C 642.917969 706.988281 643.070312 707.105469 643.171875 707.28125 C 643.273438 707.460938 643.296875 707.648438 643.246094 707.84375 C 642.800781 709.203125 642.128906 710.4375 641.226562 711.546875 C 642.332031 711.742188 643.4375 711.90625 644.558594 712.011719 C 644.765625 711.984375 644.953125 712.03125 645.117188 712.15625 C 645.285156 712.28125 645.382812 712.449219 645.410156 712.652344 C 645.4375 712.859375 645.390625 713.046875 645.265625 713.210938 C 645.140625 713.378906 644.972656 713.476562 644.769531 713.503906 C 643.328125 714.171875 642.101562 715.117188 641.09375 716.34375 C 642.765625 716.34375 645.15625 716.179688 645.113281 718.34375 C 645.054688 719.386719 644.808594 720.382812 644.363281 721.332031 C 645.191406 721.46875 646.007812 721.65625 646.8125 721.882812 C 646.941406 721.917969 647.050781 721.984375 647.140625 722.078125 C 647.234375 722.171875 647.296875 722.28125 647.332031 722.410156 C 647.363281 722.535156 647.363281 722.664062 647.332031 722.789062 C 647.296875 722.917969 647.234375 723.027344 647.144531 723.121094 C 646.332031 724.046875 645.664062 725.070312 645.140625 726.183594 C 646.410156 725.945312 647.679688 725.691406 648.933594 725.378906 C 649.132812 725.324219 649.324219 725.347656 649.503906 725.449219 C 649.683594 725.550781 649.804688 725.703125 649.859375 725.902344 C 650.195312 727.277344 650.078125 728.609375 649.503906 729.902344 C 650.667969 729.710938 651.832031 729.542969 653.011719 729.425781 C 653.640625 729.425781 653.847656 730.097656 653.652344 730.558594 L 651.816406 734.832031 C 653.019531 734.816406 654.214844 734.699219 655.402344 734.488281 C 655.707031 734.421875 655.957031 734.511719 656.152344 734.757812 C 656.347656 735 656.382812 735.265625 656.253906 735.546875 Z M 633.433594 709.324219 C 635.453125 710.101562 637.519531 710.722656 639.628906 711.191406 C 640.460938 710.265625 641.109375 709.222656 641.570312 708.070312 C 640.914062 707.859375 640.242188 707.636719 639.601562 707.367188 C 639.316406 707.457031 639.046875 707.574219 638.777344 707.652344 C 636.914062 707.941406 635.132812 708.5 633.433594 709.324219 Z M 639.242188 716.132812 L 639.390625 715.984375 C 640.304688 714.964844 641.300781 714.03125 642.378906 713.191406 C 641.617188 713.085938 640.886719 712.953125 640.109375 712.804688 C 638.8125 714.035156 637.320312 714.941406 635.628906 715.519531 C 636.867188 715.773438 638.046875 715.984375 639.242188 716.132812 Z M 642.855469 721.078125 C 643.210938 720.277344 643.464844 719.445312 643.617188 718.582031 C 643.722656 717.894531 643.289062 717.894531 642.75 717.878906 C 642.214844 717.867188 641.707031 717.878906 641.257812 717.878906 C 640.808594 717.878906 640.363281 717.777344 639.914062 717.730469 L 636.628906 721.210938 C 638.699219 720.910156 640.773438 720.863281 642.855469 721.078125 Z M 640.511719 726.917969 C 641.46875 726.8125 642.410156 726.675781 643.335938 726.527344 C 643.910156 725.320312 644.574219 724.160156 645.320312 723.046875 L 643.707031 722.734375 C 643.4375 723.226562 643.15625 723.691406 642.871094 724.109375 C 642.191406 725.132812 641.402344 726.070312 640.511719 726.917969 Z M 644.335938 727.871094 L 642.496094 731.398438 C 644.230469 730.902344 645.960938 730.484375 647.726562 730.140625 C 648.308594 729.144531 648.589844 728.070312 648.5625 726.917969 C 647.15625 727.304688 645.753906 727.589844 644.335938 727.828125 Z M 648.695312 731.574219 C 648.695312 731.695312 648.5625 731.828125 648.488281 731.964844 C 647.8125 733.128906 647.074219 734.253906 646.277344 735.339844 C 647.566406 735.054688 648.871094 734.90625 650.1875 734.890625 C 650.726562 733.636719 651.265625 732.367188 651.816406 731.097656 C 650.847656 731.171875 649.726562 731.398438 648.695312 731.53125 Z M 654.074219 736.175781 C 653.132812 736.25 652.160156 736.265625 651.191406 736.296875 C 650.488281 737.621094 649.992188 739.019531 649.695312 740.492188 C 651.414062 739.300781 652.875 737.84375 654.074219 736.132812 Z M 654.074219 736.175781 " fill-opacity="1" fill-rule="nonzero"/></svg>