<svg xmlns="http://www.w3.org/2000/svg" xmlns:xlink="http://www.w3.org/1999/xlink" width="1920" zoomAndPan="magnify" viewBox="0 0 1440 809.999993" height="1080" preserveAspectRatio="xMidYMid meet" version="1.0"><defs><clipPath id="7fbed418c9"><path d="M 694 44.363281 L 802 44.363281 L 802 184 L 694 184 Z M 694 44.363281 " clip-rule="nonzero"/></clipPath></defs><path fill="#332a3d" d="M 708.746094 168.941406 C 708.480469 168.941406 708.230469 168.941406 707.996094 169.003906 C 687.363281 172.976562 671.492188 174.949219 654.386719 187.546875 C 625.296875 208.972656 601.042969 238.316406 580.992188 263.949219 C 555.320312 296.777344 593.886719 339.128906 613.242188 348.464844 C 627.148438 352.769531 632.808594 340.722656 637.644531 333.589844 L 671.816406 331.78125 C 672.90625 341.667969 673.453125 351.828125 673.453125 359.582031 L 673.949219 393.222656 L 665.53125 532.644531 C 666.941406 563.554688 654.914062 620.941406 656.011719 637.8125 C 656.648438 647.632812 657.972656 660.28125 664.785156 664.269531 L 666.132812 693.90625 C 678.335938 700.113281 689.613281 697.078125 701.035156 695.472656 C 702.027344 683.703125 703.082031 672.5 704.519531 662.945312 C 713.207031 658.707031 713.835938 643.542969 713.398438 633.003906 C 712.929688 621.800781 718.664062 552.933594 718.054688 535.925781 L 734.570312 441.855469 L 751.089844 535.925781 C 750.480469 552.933594 756.210938 621.800781 755.746094 633.003906 C 755.308594 643.542969 755.933594 658.707031 764.625 662.945312 C 766.0625 672.5 767.117188 683.703125 768.105469 695.472656 C 779.527344 697.078125 790.808594 700.113281 803.011719 693.90625 L 804.359375 664.269531 C 811.167969 660.28125 812.496094 647.632812 813.132812 637.8125 C 814.230469 620.941406 802.203125 563.554688 803.613281 532.644531 L 795.195312 393.222656 L 795.691406 359.582031 C 797.003906 318.714844 795.5 285.808594 797.640625 254.964844 C 815.347656 269.054688 848.871094 292.558594 866.3125 290.839844 C 883.890625 289.105469 884.460938 259.199219 879.1875 248.152344 C 869.625 228.113281 862.804688 219.242188 835.28125 195.402344 L 821.398438 197.132812 C 815.683594 192.914062 805.34375 183.839844 797.78125 180.1875 C 779.867188 174.296875 764.992188 171.964844 748.792969 169.011719 C 738.710938 185.808594 716.953125 168.894531 708.746094 168.949219 Z M 708.746094 168.941406 " fill-opacity="1" fill-rule="evenodd"/><path fill="#191223" d="M 643.183594 245.316406 C 632.96875 245.242188 622.648438 248.347656 613.792969 254.871094 C 591.996094 270.929688 587.339844 301.628906 603.394531 323.433594 C 619.445312 345.230469 650.136719 349.890625 671.9375 333.832031 C 689.644531 320.785156 696.042969 298.074219 689.203125 278.320312 C 687.621094 273.761719 685.34375 269.359375 682.332031 265.273438 C 672.804688 252.328125 658.109375 245.425781 643.183594 245.316406 Z M 794.792969 383.382812 L 691.496094 386.925781 L 794.726562 391.660156 Z M 679.371094 692.101562 C 674.996094 692.101562 670.585938 692.648438 666.132812 693.90625 C 666.105469 702.710938 663.058594 705.015625 657.464844 711.296875 C 653.640625 715.585938 646.085938 720.894531 636.675781 727.457031 C 625.664062 730.851562 617.804688 741.089844 616.605469 748.351562 C 615.871094 752.796875 617.164062 758.839844 621.949219 761.34375 C 630.316406 765.722656 642.164062 764.351562 649.726562 760.132812 C 657.308594 755.898438 674.492188 746.871094 680.144531 743.917969 C 686.148438 740.78125 696.578125 740.199219 702.050781 736.554688 C 703.761719 735.417969 705.980469 733.902344 706.582031 730.109375 C 707.992188 721.21875 699.128906 712.144531 701.039062 695.472656 C 693.867188 693.511719 686.664062 692.082031 679.371094 692.101562 Z M 790.082031 692.101562 C 782.789062 692.101562 775.585938 693.511719 768.414062 695.472656 C 770.324219 712.144531 761.460938 721.21875 762.871094 730.109375 C 763.472656 733.902344 765.691406 735.417969 767.402344 736.554688 C 772.875 740.203125 783.304688 740.78125 789.304688 743.917969 C 794.960938 746.871094 812.144531 755.898438 819.726562 760.132812 C 827.289062 764.351562 839.136719 765.722656 847.503906 761.34375 C 852.289062 758.839844 853.582031 752.796875 852.847656 748.351562 C 851.648438 741.089844 843.785156 730.851562 832.773438 727.457031 C 823.367188 720.894531 815.808594 715.585938 811.988281 711.296875 C 806.394531 705.015625 803.347656 702.710938 803.320312 693.90625 C 798.863281 692.648438 794.457031 692.121094 790.082031 692.101562 Z M 790.082031 692.101562 " fill-opacity="1" fill-rule="evenodd"/><path fill="#eeb58a" d="M 753.164062 70.929688 C 744.84375 70.785156 717.546875 88.265625 701.632812 95.414062 C 701.097656 95.660156 700.578125 95.898438 700.082031 96.144531 C 701.570312 106.347656 705.324219 139.828125 704.011719 149.019531 L 707.804688 148.003906 L 709.519531 175.074219 C 709.957031 181.964844 716.539062 196.425781 731.027344 196.28125 C 744.652344 196.148438 752.464844 186.023438 752.800781 176.789062 L 753.03125 170.441406 C 760.703125 167.699219 774.515625 176.871094 777.839844 177.320312 C 778.539062 177.664062 778.394531 170.78125 780.390625 162.992188 C 780.53125 162.441406 781.597656 161.203125 781.738281 160.644531 C 782.210938 158.792969 782.6875 156.925781 783.152344 155.121094 C 783.277344 154.636719 783.773438 153.363281 783.898438 152.890625 C 785.589844 146.414062 787.808594 142.53125 788.449219 142.777344 C 791.296875 143.867188 795.269531 143.910156 799.378906 143.75 C 801.117188 143.683594 801.402344 139.914062 801.128906 138.625 C 799.890625 132.757812 792.230469 121.074219 791.960938 118.363281 C 792.265625 117.136719 795.652344 113.515625 795.808594 111.921875 C 796.292969 107.039062 789.359375 81.984375 788.53125 75.007812 C 773.453125 69.6875 765.511719 74.636719 754.25 71.089844 C 753.9375 70.992188 753.574219 70.945312 753.164062 70.933594 Z M 795.097656 144.800781 C 793.699219 144.84375 792.589844 145.234375 792.671875 146.539062 C 790.441406 146.953125 790.007812 149.773438 791.578125 151.007812 C 789.804688 152.472656 791.707031 155.816406 793.570312 156.046875 C 799.757812 158.027344 803.402344 159.988281 806.148438 162.605469 C 807.945312 168.1875 808.265625 170.027344 808.183594 176.742188 C 808.183594 176.742188 804.273438 175.628906 801.75 172.800781 C 800.1875 171.132812 798.632812 170.023438 797.277344 168.164062 C 794.199219 169.492188 792.921875 168.226562 790.726562 168.164062 C 791.800781 171.976562 793.589844 174.890625 794.960938 178.007812 C 796.230469 180.902344 801.078125 187.015625 803.980469 190.382812 C 805.546875 194.347656 808.835938 195.078125 811.972656 196.859375 C 818.28125 200.445312 821.011719 205.265625 822.230469 206.230469 L 835.28125 195.398438 C 835.28125 195.398438 828.03125 184.378906 825.671875 179.996094 C 822.128906 173.410156 823.289062 162.351562 817.855469 153.355469 C 816.984375 151.910156 804.472656 145.84375 797.402344 144.953125 C 796.847656 144.886719 796.269531 144.824219 795.710938 144.804688 C 795.503906 144.804688 795.296875 144.804688 795.097656 144.804688 Z M 632.085938 314.660156 C 631.347656 314.703125 630.625 314.992188 630.285156 315.570312 C 626.234375 322.464844 624.679688 327.25 619.167969 331.402344 C 615.375 334.257812 612.390625 331.257812 609.570312 330.03125 C 607.210938 332.5625 607.054688 335.519531 607.445312 337.195312 C 609.238281 344.898438 617.355469 346.929688 623.078125 348.847656 C 629.609375 351.035156 648.457031 352.46875 660.691406 345.925781 C 663.933594 344.191406 670.140625 342.800781 672.695312 339.527344 C 674.359375 337.402344 674.59375 335.089844 673.609375 333.261719 C 655.363281 342.40625 647.898438 341.207031 636.6875 338.941406 C 633.1875 338.230469 632.785156 335.78125 633.359375 333.0625 L 635.476562 323.019531 C 635.996094 320.554688 635.382812 316.640625 633.726562 315.175781 C 633.382812 314.871094 632.902344 314.703125 632.398438 314.667969 C 632.292969 314.667969 632.191406 314.667969 632.085938 314.667969 Z M 632.085938 314.660156 " fill-opacity="1" fill-rule="evenodd"/><path fill="#ffffff" d="M 780.230469 114.207031 C 777.386719 114.25 774.574219 114.515625 771.773438 114.953125 C 776.632812 118.179688 782.035156 121.238281 786.542969 121.617188 C 788.488281 119.765625 788.71875 117.386719 788.851562 114.976562 C 785.945312 114.40625 783.074219 114.179688 780.230469 114.207031 Z M 780.160156 153.023438 C 777.234375 153.269531 777.375 156.925781 778.945312 158.722656 L 787.292969 160.175781 C 787.964844 166.292969 791.90625 168.351562 795.304688 167.945312 C 798.703125 167.535156 802.140625 164.675781 800.273438 159.160156 C 800.199219 158.945312 800.097656 158.730469 799.980469 158.515625 C 798.1875 157.667969 796.101562 156.859375 793.570312 156.046875 C 792.726562 155.945312 791.882812 155.203125 791.367188 154.289062 Z M 653.238281 249.078125 C 648.148438 254.132812 643.0625 259.1875 637.972656 264.246094 L 639.910156 276.734375 C 645.722656 279.851562 651.535156 282.964844 657.351562 286.078125 L 670.167969 280.417969 C 671.648438 273.453125 673.207031 266.316406 674.558594 260.457031 C 668.394531 254.652344 661.003906 250.859375 653.238281 249.078125 Z M 618.300781 254.894531 C 612.261719 258.738281 607.171875 263.917969 603.589844 269.542969 C 606.316406 275.425781 609.039062 281.316406 611.757812 287.203125 L 624.402344 289.699219 C 628.910156 285.375 633.414062 281.050781 637.921875 276.722656 L 635.941406 263.953125 C 630.0625 260.929688 624.179688 257.914062 618.300781 254.894531 Z M 670.085938 282.597656 L 658.183594 287.851562 C 657.074219 294.0625 655.957031 300.269531 654.84375 306.476562 L 664.210938 316.242188 C 671.15625 315.285156 678.097656 314.332031 685.039062 313.378906 C 687.859375 307.140625 689.238281 300.402344 689.152344 293.667969 C 682.496094 289.828125 676.882812 286.550781 670.085938 282.597656 Z M 611.9375 289.238281 C 607.046875 293.769531 602.160156 298.300781 597.273438 302.832031 C 598.792969 310.9375 602.484375 318.71875 608.371094 325.253906 C 614.472656 324.199219 620.570312 323.140625 626.671875 322.085938 C 626.96875 321.554688 627.261719 321.015625 627.566406 320.453125 L 632.015625 311.398438 C 628.5625 304.542969 625.097656 297.121094 622.675781 291.359375 Z M 654.300781 308.746094 C 647.582031 309.679688 640.863281 310.597656 634.144531 311.519531 L 632.582031 314.691406 C 633.015625 314.753906 633.425781 314.910156 633.726562 315.175781 C 635.382812 316.640625 635.996094 320.554688 635.476562 323.019531 L 633.757812 331.160156 C 635.175781 333.839844 636.589844 336.523438 638.003906 339.203125 C 640.945312 339.785156 643.667969 340.265625 646.429688 340.460938 C 650.773438 340.128906 655.082031 339.183594 659.214844 337.621094 C 660.414062 330.953125 661.613281 324.285156 662.8125 317.617188 Z M 703.789062 663.230469 C 692.191406 667.726562 679.933594 667.644531 665.917969 664.390625 C 666.71875 677.726562 668.773438 693.414062 666.441406 702.019531 C 670.347656 697.476562 676.261719 700.65625 679.152344 703.351562 C 688.972656 712.523438 695.925781 707.996094 699.65625 701.949219 C 700.226562 689.667969 701.789062 675.515625 703.789062 663.230469 Z M 765.664062 663.230469 C 767.664062 675.515625 769.226562 689.667969 769.796875 701.949219 C 773.527344 707.996094 780.480469 712.523438 790.300781 703.351562 C 793.1875 700.65625 799.101562 697.476562 803.007812 702.019531 C 800.679688 693.414062 802.734375 677.722656 803.53125 664.390625 C 789.519531 667.644531 777.261719 667.726562 765.664062 663.230469 Z M 809.863281 711.476562 C 809.769531 711.476562 809.675781 711.476562 809.585938 711.519531 C 804.222656 713.058594 798.835938 714.75 796.121094 719.4375 C 795.039062 721.308594 798.226562 723.105469 799.609375 721.28125 C 803.265625 716.46875 806.472656 716.015625 811.449219 714.199219 C 812.757812 713.722656 811.25 711.417969 809.863281 711.476562 Z M 659.589844 711.476562 C 658.203125 711.417969 656.695312 713.71875 658 714.195312 C 662.980469 716.015625 666.183594 716.46875 669.84375 721.28125 C 671.226562 723.101562 674.414062 721.324219 673.328125 719.433594 C 670.617188 714.75 665.230469 713.058594 659.863281 711.519531 C 659.773438 711.476562 659.679688 711.476562 659.589844 711.472656 Z M 814.792969 715.855469 C 814.699219 715.855469 814.609375 715.855469 814.519531 715.898438 C 809.152344 717.4375 803.765625 719.128906 801.050781 723.816406 C 799.96875 725.6875 803.15625 727.484375 804.539062 725.660156 C 808.199219 720.847656 811.402344 720.394531 816.378906 718.578125 C 817.6875 718.101562 816.179688 715.796875 814.792969 715.855469 Z M 654.660156 715.855469 C 653.269531 715.796875 651.765625 718.097656 653.070312 718.578125 C 658.050781 720.394531 661.253906 720.847656 664.910156 725.660156 C 666.292969 727.480469 669.484375 725.703125 668.398438 723.8125 C 665.6875 719.128906 660.300781 717.4375 654.933594 715.898438 C 654.84375 715.855469 654.75 715.855469 654.660156 715.851562 Z M 649.566406 720.292969 C 648.179688 720.238281 646.671875 722.539062 647.980469 723.015625 C 652.957031 724.832031 656.164062 725.289062 659.820312 730.101562 C 661.203125 731.921875 664.394531 730.140625 663.308594 728.253906 C 660.59375 723.570312 655.207031 721.875 649.84375 720.339844 C 649.75 720.296875 649.660156 720.296875 649.566406 720.292969 Z M 819.882812 720.292969 C 819.792969 720.292969 819.699219 720.292969 819.609375 720.339844 C 814.242188 721.878906 808.859375 723.570312 806.144531 728.253906 C 805.058594 730.128906 808.246094 731.921875 809.632812 730.101562 C 813.289062 725.289062 816.492188 724.835938 821.472656 723.019531 C 822.78125 722.542969 821.273438 720.238281 819.882812 720.296875 Z M 644.152344 724.195312 C 642.761719 724.140625 641.253906 726.441406 642.5625 726.917969 C 647.542969 728.734375 650.746094 729.191406 654.402344 734.003906 C 655.789062 735.824219 658.976562 734.042969 657.890625 732.15625 C 655.175781 727.46875 649.792969 725.777344 644.425781 724.242188 C 644.335938 724.199219 644.242188 724.199219 644.152344 724.195312 Z M 825.300781 724.195312 C 825.207031 724.195312 825.117188 724.195312 825.027344 724.238281 C 819.660156 725.777344 814.273438 727.46875 811.5625 732.152344 C 810.476562 734.027344 813.664062 735.820312 815.046875 734 C 818.703125 729.1875 821.910156 728.734375 826.890625 726.917969 C 828.195312 726.4375 826.6875 724.136719 825.300781 724.195312 Z M 705.109375 725.398438 C 698.363281 735.453125 686.308594 734.589844 676.40625 739.140625 C 665.515625 744.148438 651.941406 753.640625 642.660156 757.117188 C 633.695312 760.472656 621.410156 758.792969 618.667969 749.300781 C 618.375 762.300781 636.148438 762.507812 643.59375 759.480469 C 654.054688 755.230469 667.183594 746.867188 678.546875 741.292969 C 685.488281 737.890625 696.761719 737.488281 705.074219 730.339844 C 705.476562 729.285156 705.527344 726.222656 705.109375 725.398438 Z M 764.339844 725.398438 C 763.925781 726.222656 763.976562 729.285156 764.378906 730.339844 C 772.691406 737.488281 783.960938 737.890625 790.902344 741.292969 C 802.265625 746.867188 815.398438 755.230469 825.855469 759.480469 C 833.300781 762.507812 851.074219 762.300781 850.785156 749.300781 C 848.039062 758.792969 835.753906 760.472656 826.789062 757.117188 C 817.507812 753.644531 803.9375 744.148438 793.046875 739.140625 C 783.140625 734.589844 771.089844 735.453125 764.339844 725.398438 Z M 637.09375 730.773438 L 636.417969 730.773438 C 634.410156 730.824219 632.390625 731.328125 630.484375 732.410156 C 635.597656 731.476562 645.835938 731.683594 652.148438 740.652344 C 650.71875 736.179688 644.035156 730.914062 637.09375 730.769531 Z M 832.359375 730.773438 C 825.417969 730.917969 818.734375 736.179688 817.300781 740.652344 C 823.613281 731.6875 833.851562 731.480469 838.96875 732.414062 C 837.0625 731.328125 835.042969 730.828125 833.03125 730.773438 Z M 832.359375 730.773438 " fill-opacity="1" fill-rule="evenodd"/><g clip-path="url(#7fbed418c9)"><path fill="#41241d" d="M 791.089844 44.359375 C 786.960938 55.378906 776.8125 55.097656 766.441406 57.015625 C 749.90625 60.078125 736.835938 49.664062 722.179688 54.507812 C 702.128906 61.132812 697.117188 75.253906 694.664062 97.21875 C 693.703125 105.820312 700.25 138.027344 704.007812 149.015625 C 712.132812 147.242188 719.347656 143.878906 726.027344 140.652344 C 728.582031 139.40625 738.699219 134.167969 738.21875 132.214844 C 732.058594 135.597656 729.074219 134.386719 725.007812 128.625 C 721.722656 123.96875 719.464844 115.175781 719.390625 111.59375 C 719.238281 103.941406 723.53125 101.390625 731.503906 101.925781 C 737.328125 102.316406 739.902344 110.554688 741.734375 119.285156 C 743.066406 125.648438 743.476562 129.15625 743.824219 132.742188 C 744.644531 137.113281 740.367188 137.042969 740.863281 139.933594 C 739.765625 152.34375 755.945312 169.460938 757.011719 170.445312 C 762.410156 175.4375 770.820312 184.746094 776.726562 183.179688 C 780.199219 180.21875 784.628906 168.027344 780.027344 164.429688 C 779.355469 166.78125 777.578125 170.835938 776.492188 170.796875 C 764.429688 170.378906 763.808594 154.597656 763.835938 150.601562 C 766.652344 149.558594 769.507812 148.433594 772.441406 148.425781 C 779.207031 148.558594 780.640625 150.921875 785.363281 152.558594 C 789.277344 150.390625 788.921875 148.871094 788.296875 144.902344 C 780.839844 141.796875 776.964844 141.609375 770.890625 141.339844 C 766.96875 141.171875 763.058594 142.238281 759.796875 144.265625 C 757.105469 146.46875 750.34375 123.980469 746.789062 99.472656 C 756.292969 95.882812 758.726562 92.027344 759.921875 79.910156 C 765.546875 84.695312 784.035156 83.570312 789.992188 78.550781 C 800.964844 69.304688 803.085938 51.394531 791.089844 44.359375 Z M 782.757812 105.679688 C 779.929688 105.734375 777.339844 106.054688 774.558594 106.820312 C 772.605469 107.355469 771.207031 107.863281 770.148438 108.34375 C 768.390625 109.148438 767.585938 109.886719 766.777344 110.605469 C 775.464844 109.28125 784.1875 109.425781 792.988281 112.988281 C 794.53125 111.339844 794.554688 108.125 792.371094 106.125 C 788.648438 105.832031 785.582031 105.625 782.757812 105.679688 Z M 729.761719 108.910156 C 729.222656 108.953125 728.722656 109.050781 728.296875 109.222656 C 727.726562 109.449219 727.289062 109.765625 727.066406 110.058594 C 723.402344 114.871094 727.476562 127.792969 733.316406 128.707031 C 737.535156 129.367188 737.628906 125.097656 736.652344 123.390625 C 735.386719 121.171875 733.160156 120.003906 732.253906 123.871094 C 728.074219 123.097656 727.617188 114.542969 727.878906 112.257812 C 728.058594 110.652344 731.355469 109.449219 734.648438 112.71875 C 733.332031 109.679688 731.378906 108.847656 729.761719 108.910156 Z M 784.832031 115.558594 C 784.613281 115.558594 784.390625 115.617188 784.171875 115.703125 C 784.386719 115.917969 784.5625 116.171875 784.6875 116.433594 C 785.039062 117.199219 784.84375 117.828125 784.234375 117.84375 C 783.78125 117.84375 783.210938 117.523438 782.796875 117 C 782.65625 117.257812 782.550781 117.539062 782.480469 117.828125 C 782.113281 119.351562 782.796875 120.824219 784.007812 121.117188 C 785.222656 121.414062 786.503906 120.414062 786.871094 118.894531 C 787.238281 117.371094 786.554688 115.898438 785.34375 115.605469 C 785.246094 115.566406 785.152344 115.566406 785.054688 115.5625 C 784.980469 115.5625 784.910156 115.5625 784.835938 115.5625 Z M 780.011719 152.6875 C 778.460938 152.6875 775.917969 153.507812 775.734375 155.324219 C 775.597656 156.671875 777.269531 158.941406 778.933594 159.179688 L 786.539062 160.976562 C 786.734375 163.421875 788.105469 165.957031 789.671875 167.246094 C 791.378906 168.648438 793.488281 169.125 795.417969 168.890625 C 797.339844 168.664062 799.296875 167.742188 800.535156 166.027344 C 801.773438 164.3125 802.183594 161.828125 801.175781 158.855469 C 797.875 157.339844 794.800781 156.476562 793.058594 155.734375 C 791.609375 155.109375 791.261719 154.085938 791 153.308594 Z M 779.949219 153.542969 L 790.566406 154.242188 C 790.746094 154.886719 791.257812 155.789062 792.65625 156.40625 C 794.671875 157.300781 797.640625 158.082031 800.273438 159.160156 C 802.140625 164.675781 798.703125 167.535156 795.304688 167.945312 C 791.90625 168.351562 787.964844 166.292969 787.292969 160.175781 L 779.175781 158.300781 C 777.566406 157.269531 777.292969 154.113281 779.949219 153.542969 Z M 772.253906 160.183594 C 775.527344 162.675781 778.1875 163.285156 780.085938 163.273438 C 780.128906 163.097656 780.378906 162.664062 780.347656 162.535156 C 778.664062 162.710938 775.144531 161.351562 772.253906 160.183594 Z M 772.253906 160.183594 " fill-opacity="1" fill-rule="evenodd"/></g></svg>