<svg xmlns="http://www.w3.org/2000/svg" xmlns:xlink="http://www.w3.org/1999/xlink" width="1920" zoomAndPan="magnify" viewBox="0 0 1440 809.999993" height="1080" preserveAspectRatio="xMidYMid meet" version="1.0"><defs><clipPath id="d8547864a9"><path d="M 599 138.847656 L 861 138.847656 L 861 583 L 599 583 Z M 599 138.847656 " clip-rule="nonzero"/></clipPath></defs><path fill="#ff7400" d="M 924.355469 528.707031 C 924.90625 537.640625 925.355469 544.207031 925.25 552.773438 C 925.199219 563.925781 922.773438 567.191406 917.894531 570.277344 C 889.347656 588.492188 836.042969 621.207031 804.726562 639.1875 C 789.9375 647.675781 741.351562 670.871094 668.433594 647.621094 C 595.570312 624.398438 568.179688 614.195312 542.742188 604.285156 C 533.066406 600.539062 526.292969 595.847656 527.425781 575.390625 C 528.113281 562.660156 527.980469 550.824219 531.90625 548.371094 C 543.429688 541.09375 553.523438 556.675781 566.496094 560.996094 C 582.179688 566.21875 717.019531 611.71875 745.59375 602.199219 C 774.09375 592.710938 924.355469 528.707031 924.355469 528.707031 Z M 924.355469 528.707031 " fill-opacity="1" fill-rule="nonzero"/><path fill="#ff5a00" d="M 851.253906 499.734375 C 874.742188 507.246094 928.914062 516.027344 924.117188 531.445312 C 895.832031 551.585938 864.117188 569.855469 831.507812 589.574219 C 811.894531 601.542969 773.0625 620.152344 724.453125 621.207031 C 675.867188 622.261719 578.648438 583.167969 559.667969 576.816406 C 540.632812 570.488281 510.054688 550.558594 550.175781 535.664062 C 579.597656 524.644531 596.257812 518.320312 609.304688 512.78125 C 627.996094 504.875 851.253906 499.734375 851.253906 499.734375 Z M 851.253906 499.734375 " fill-opacity="1" fill-rule="nonzero"/><g clip-path="url(#d8547864a9)"><path fill="#ff7400" d="M 698.25 138.847656 L 737.871094 138.847656 C 741.90625 165.207031 848.035156 483.601562 860.71875 522.695312 C 863.878906 541.648438 808.941406 580.796875 738.160156 582.535156 C 695.902344 583.617188 623.015625 575.179688 599.761719 542.414062 C 608.226562 499.046875 698.25 138.847656 698.25 138.847656 Z M 698.25 138.847656 " fill-opacity="1" fill-rule="nonzero"/></g><path fill="#ffffff" d="M 635.640625 388.859375 C 651.933594 406.914062 782.183594 407.996094 817.195312 388.59375 C 824.046875 409.738281 835.726562 445.007812 843.105469 469.261719 C 803.222656 496.730469 634.242188 491.957031 617.109375 467.546875 C 626.625 424.207031 635.640625 388.859375 635.640625 388.859375 Z M 635.640625 388.859375 " fill-opacity="1" fill-rule="nonzero"/><path fill="#ffffff" d="M 676.421875 224.941406 C 695.746094 229.582031 742.0625 230.269531 763.757812 225.761719 C 769.609375 243.792969 782.816406 282.804688 791.359375 311.011719 C 759.355469 319.289062 694.847656 318.738281 655.4375 309.773438 C 666.140625 266.121094 676.421875 224.941406 676.421875 224.941406 Z M 676.421875 224.941406 " fill-opacity="1" fill-rule="nonzero"/></svg>