<svg xmlns="http://www.w3.org/2000/svg" xmlns:xlink="http://www.w3.org/1999/xlink" width="1920" zoomAndPan="magnify" viewBox="0 0 1440 809.999993" height="1080" preserveAspectRatio="xMidYMid meet" version="1.0"><defs><clipPath id="e5ca0aebda"><path d="M 488.496094 293 L 951.246094 293 L 951.246094 538 L 488.496094 538 Z M 488.496094 293 " clip-rule="nonzero"/></clipPath><clipPath id="bc0703f325"><path d="M 686 337 L 690 337 L 690 338 L 686 338 Z M 686 337 " clip-rule="nonzero"/></clipPath><clipPath id="03b708e3a8"><path d="M 689.59375 337.945312 C 688.519531 337.816406 687.453125 337.679688 686.394531 337.535156 C 687.453125 337.675781 688.519531 337.816406 689.59375 337.945312 Z M 689.59375 337.945312 " clip-rule="nonzero"/></clipPath><linearGradient x1="1206.327083" gradientTransform="matrix(0.164276, 0, 0, 0.164276, 488.497562, 272.014598)" y1="395.756313" x2="1222.473435" gradientUnits="userSpaceOnUse" y2="404.432754" id="0443fbdf13"><stop stop-opacity="1" stop-color="rgb(99.21875%, 54.119873%, 59.21936%)" offset="0"/><stop stop-opacity="1" stop-color="rgb(99.21875%, 54.119873%, 59.21936%)" offset="0.0078125"/><stop stop-opacity="1" stop-color="rgb(99.217224%, 53.93219%, 59.013367%)" offset="0.0117188"/><stop stop-opacity="1" stop-color="rgb(99.215698%, 53.744507%, 58.807373%)" offset="0.015625"/><stop stop-opacity="1" stop-color="rgb(99.211121%, 53.346252%, 58.369446%)" offset="0.0195312"/><stop stop-opacity="1" stop-color="rgb(99.208069%, 52.947998%, 57.933044%)" offset="0.0234375"/><stop stop-opacity="1" stop-color="rgb(99.205017%, 52.549744%, 57.495117%)" offset="0.0273438"/><stop stop-opacity="1" stop-color="rgb(99.201965%, 52.153015%, 57.058716%)" offset="0.03125"/><stop stop-opacity="1" stop-color="rgb(99.197388%, 51.754761%, 56.620789%)" offset="0.0351562"/><stop stop-opacity="1" stop-color="rgb(99.194336%, 51.356506%, 56.184387%)" offset="0.0390625"/><stop stop-opacity="1" stop-color="rgb(99.189758%, 50.958252%, 55.74646%)" offset="0.0429687"/><stop stop-opacity="1" stop-color="rgb(99.186707%, 50.559998%, 55.310059%)" offset="0.046875"/><stop stop-opacity="1" stop-color="rgb(99.182129%, 50.161743%, 54.872131%)" offset="0.0507812"/><stop stop-opacity="1" stop-color="rgb(99.179077%, 49.765015%, 54.43573%)" offset="0.0546875"/><stop stop-opacity="1" stop-color="rgb(99.176025%, 49.36676%, 53.997803%)" offset="0.0585937"/><stop stop-opacity="1" stop-color="rgb(99.172974%, 48.968506%, 53.561401%)" offset="0.0625"/><stop stop-opacity="1" stop-color="rgb(99.168396%, 48.570251%, 53.123474%)" offset="0.0664062"/><stop stop-opacity="1" stop-color="rgb(99.165344%, 48.171997%, 52.687073%)" offset="0.0703125"/><stop stop-opacity="1" stop-color="rgb(99.160767%, 47.773743%, 52.249146%)" offset="0.0742188"/><stop stop-opacity="1" stop-color="rgb(99.157715%, 47.377014%, 51.812744%)" offset="0.078125"/><stop stop-opacity="1" stop-color="rgb(99.153137%, 46.97876%, 51.374817%)" offset="0.0820312"/><stop stop-opacity="1" stop-color="rgb(99.150085%, 46.580505%, 50.938416%)" offset="0.0859375"/><stop stop-opacity="1" stop-color="rgb(99.147034%, 46.182251%, 50.500488%)" offset="0.0898437"/><stop stop-opacity="1" stop-color="rgb(99.143982%, 45.783997%, 50.064087%)" offset="0.09375"/><stop stop-opacity="1" stop-color="rgb(99.139404%, 45.385742%, 49.62616%)" offset="0.0976562"/><stop stop-opacity="1" stop-color="rgb(99.136353%, 44.989014%, 49.189758%)" offset="0.101562"/><stop stop-opacity="1" stop-color="rgb(99.131775%, 44.590759%, 48.751831%)" offset="0.105469"/><stop stop-opacity="1" stop-color="rgb(99.128723%, 44.192505%, 48.31543%)" offset="0.109375"/><stop stop-opacity="1" stop-color="rgb(99.124146%, 43.79425%, 47.877502%)" offset="0.113281"/><stop stop-opacity="1" stop-color="rgb(99.121094%, 43.395996%, 47.441101%)" offset="0.117187"/><stop stop-opacity="1" stop-color="rgb(99.118042%, 42.997742%, 47.0047%)" offset="0.121094"/><stop stop-opacity="1" stop-color="rgb(99.11499%, 42.601013%, 46.568298%)" offset="0.125"/><stop stop-opacity="1" stop-color="rgb(99.110413%, 42.202759%, 46.130371%)" offset="0.128906"/><stop stop-opacity="1" stop-color="rgb(99.107361%, 41.804504%, 45.69397%)" offset="0.132812"/><stop stop-opacity="1" stop-color="rgb(99.102783%, 41.40625%, 45.256042%)" offset="0.136719"/><stop stop-opacity="1" stop-color="rgb(99.099731%, 41.007996%, 44.819641%)" offset="0.140625"/><stop stop-opacity="1" stop-color="rgb(99.095154%, 40.609741%, 44.381714%)" offset="0.144531"/><stop stop-opacity="1" stop-color="rgb(99.092102%, 40.213013%, 43.945312%)" offset="0.148438"/><stop stop-opacity="1" stop-color="rgb(99.08905%, 39.814758%, 43.507385%)" offset="0.152344"/><stop stop-opacity="1" stop-color="rgb(99.085999%, 39.416504%, 43.070984%)" offset="0.15625"/><stop stop-opacity="1" stop-color="rgb(99.081421%, 39.01825%, 42.633057%)" offset="0.160156"/><stop stop-opacity="1" stop-color="rgb(99.078369%, 38.619995%, 42.196655%)" offset="0.164062"/><stop stop-opacity="1" stop-color="rgb(99.073792%, 38.221741%, 41.758728%)" offset="0.167969"/><stop stop-opacity="1" stop-color="rgb(99.07074%, 37.825012%, 41.322327%)" offset="0.171875"/><stop stop-opacity="1" stop-color="rgb(99.066162%, 37.426758%, 40.884399%)" offset="0.175781"/><stop stop-opacity="1" stop-color="rgb(99.06311%, 37.028503%, 40.447998%)" offset="0.179687"/><stop stop-opacity="1" stop-color="rgb(99.060059%, 36.630249%, 40.010071%)" offset="0.183594"/><stop stop-opacity="1" stop-color="rgb(99.057007%, 36.231995%, 39.573669%)" offset="0.1875"/><stop stop-opacity="1" stop-color="rgb(99.052429%, 35.83374%, 39.135742%)" offset="0.191406"/><stop stop-opacity="1" stop-color="rgb(99.049377%, 35.437012%, 38.699341%)" offset="0.195312"/><stop stop-opacity="1" stop-color="rgb(99.0448%, 35.038757%, 38.261414%)" offset="0.199219"/><stop stop-opacity="1" stop-color="rgb(99.041748%, 34.640503%, 37.825012%)" offset="0.203125"/><stop stop-opacity="1" stop-color="rgb(99.03717%, 34.242249%, 37.387085%)" offset="0.207031"/><stop stop-opacity="1" stop-color="rgb(99.034119%, 33.843994%, 36.950684%)" offset="0.210937"/><stop stop-opacity="1" stop-color="rgb(99.031067%, 33.44574%, 36.512756%)" offset="0.214844"/><stop stop-opacity="1" stop-color="rgb(99.028015%, 33.049011%, 36.076355%)" offset="0.21875"/><stop stop-opacity="1" stop-color="rgb(99.023438%, 32.650757%, 35.638428%)" offset="0.222656"/><stop stop-opacity="1" stop-color="rgb(99.020386%, 32.252502%, 35.202026%)" offset="0.226562"/><stop stop-opacity="1" stop-color="rgb(99.015808%, 31.854248%, 34.764099%)" offset="0.230469"/><stop stop-opacity="1" stop-color="rgb(99.012756%, 31.455994%, 34.327698%)" offset="0.234375"/><stop stop-opacity="1" stop-color="rgb(99.008179%, 31.057739%, 33.889771%)" offset="0.238281"/><stop stop-opacity="1" stop-color="rgb(99.005127%, 30.661011%, 33.453369%)" offset="0.242188"/><stop stop-opacity="1" stop-color="rgb(99.002075%, 30.262756%, 33.015442%)" offset="0.246094"/><stop stop-opacity="1" stop-color="rgb(98.999023%, 29.864502%, 32.579041%)" offset="0.25"/><stop stop-opacity="1" stop-color="rgb(98.994446%, 29.466248%, 32.141113%)" offset="0.253906"/><stop stop-opacity="1" stop-color="rgb(98.991394%, 29.067993%, 31.704712%)" offset="0.257812"/><stop stop-opacity="1" stop-color="rgb(98.986816%, 28.669739%, 31.266785%)" offset="0.261719"/><stop stop-opacity="1" stop-color="rgb(98.983765%, 28.27301%, 30.830383%)" offset="0.265625"/><stop stop-opacity="1" stop-color="rgb(98.979187%, 27.874756%, 30.392456%)" offset="0.269531"/><stop stop-opacity="1" stop-color="rgb(98.976135%, 27.476501%, 29.956055%)" offset="0.273438"/><stop stop-opacity="1" stop-color="rgb(98.973083%, 27.078247%, 29.518127%)" offset="0.277344"/><stop stop-opacity="1" stop-color="rgb(98.970032%, 26.679993%, 29.081726%)" offset="0.28125"/><stop stop-opacity="1" stop-color="rgb(98.965454%, 26.281738%, 28.643799%)" offset="0.285156"/><stop stop-opacity="1" stop-color="rgb(98.962402%, 25.88501%, 28.207397%)" offset="0.289062"/><stop stop-opacity="1" stop-color="rgb(98.957825%, 25.486755%, 27.76947%)" offset="0.292969"/><stop stop-opacity="1" stop-color="rgb(98.954773%, 25.088501%, 27.333069%)" offset="0.296875"/><stop stop-opacity="1" stop-color="rgb(98.950195%, 24.690247%, 26.895142%)" offset="0.300781"/><stop stop-opacity="1" stop-color="rgb(98.947144%, 24.291992%, 26.45874%)" offset="0.304688"/><stop stop-opacity="1" stop-color="rgb(98.944092%, 23.893738%, 26.020813%)" offset="0.308594"/><stop stop-opacity="1" stop-color="rgb(98.94104%, 23.495483%, 25.584412%)" offset="0.3125"/><stop stop-opacity="1" stop-color="rgb(98.936462%, 23.097229%, 25.146484%)" offset="0.316406"/><stop stop-opacity="1" stop-color="rgb(98.933411%, 22.7005%, 24.710083%)" offset="0.320312"/><stop stop-opacity="1" stop-color="rgb(98.928833%, 22.302246%, 24.272156%)" offset="0.324219"/><stop stop-opacity="1" stop-color="rgb(98.925781%, 21.903992%, 23.835754%)" offset="0.328125"/><stop stop-opacity="1" stop-color="rgb(98.921204%, 21.505737%, 23.397827%)" offset="0.332031"/><stop stop-opacity="1" stop-color="rgb(98.918152%, 21.107483%, 22.961426%)" offset="0.335937"/><stop stop-opacity="1" stop-color="rgb(98.9151%, 20.709229%, 22.523499%)" offset="0.339844"/><stop stop-opacity="1" stop-color="rgb(98.912048%, 20.3125%, 22.087097%)" offset="0.34375"/><stop stop-opacity="1" stop-color="rgb(98.907471%, 19.914246%, 21.64917%)" offset="0.347656"/><stop stop-opacity="1" stop-color="rgb(98.904419%, 19.515991%, 21.212769%)" offset="0.351562"/><stop stop-opacity="1" stop-color="rgb(98.899841%, 19.117737%, 20.774841%)" offset="0.355469"/><stop stop-opacity="1" stop-color="rgb(98.89679%, 18.719482%, 20.33844%)" offset="0.359375"/><stop stop-opacity="1" stop-color="rgb(98.892212%, 18.321228%, 19.900513%)" offset="0.363281"/><stop stop-opacity="1" stop-color="rgb(98.88916%, 17.9245%, 19.464111%)" offset="0.367187"/><stop stop-opacity="1" stop-color="rgb(98.886108%, 17.526245%, 19.026184%)" offset="0.371094"/><stop stop-opacity="1" stop-color="rgb(98.883057%, 17.127991%, 18.589783%)" offset="0.375"/><stop stop-opacity="1" stop-color="rgb(98.878479%, 16.729736%, 18.151855%)" offset="0.378906"/><stop stop-opacity="1" stop-color="rgb(98.875427%, 16.331482%, 17.715454%)" offset="0.382812"/><stop stop-opacity="1" stop-color="rgb(98.87085%, 15.933228%, 17.277527%)" offset="0.386719"/><stop stop-opacity="1" stop-color="rgb(98.867798%, 15.536499%, 16.841125%)" offset="0.390625"/><stop stop-opacity="1" stop-color="rgb(98.86322%, 15.138245%, 16.403198%)" offset="0.394531"/><stop stop-opacity="1" stop-color="rgb(98.860168%, 14.73999%, 15.966797%)" offset="0.398437"/><stop stop-opacity="1" stop-color="rgb(98.857117%, 14.341736%, 15.52887%)" offset="0.402344"/><stop stop-opacity="1" stop-color="rgb(98.854065%, 13.943481%, 15.092468%)" offset="0.40625"/><stop stop-opacity="1" stop-color="rgb(98.849487%, 13.545227%, 14.654541%)" offset="0.410156"/><stop stop-opacity="1" stop-color="rgb(98.846436%, 13.148499%, 14.21814%)" offset="0.414062"/><stop stop-opacity="1" stop-color="rgb(98.841858%, 12.750244%, 13.780212%)" offset="0.417969"/><stop stop-opacity="1" stop-color="rgb(98.838806%, 12.35199%, 13.343811%)" offset="0.421875"/><stop stop-opacity="1" stop-color="rgb(98.834229%, 11.953735%, 12.905884%)" offset="0.425781"/><stop stop-opacity="1" stop-color="rgb(98.831177%, 11.555481%, 12.469482%)" offset="0.429688"/><stop stop-opacity="1" stop-color="rgb(98.828125%, 11.157227%, 12.031555%)" offset="0.433594"/><stop stop-opacity="1" stop-color="rgb(98.825073%, 10.760498%, 11.595154%)" offset="0.4375"/><stop stop-opacity="1" stop-color="rgb(98.822021%, 10.479736%, 11.286926%)" offset="0.441406"/><stop stop-opacity="1" stop-color="rgb(98.81897%, 10.198975%, 10.978699%)" offset="0.445312"/><stop stop-opacity="1" stop-color="rgb(98.81897%, 10.198975%, 10.978699%)" offset="0.453125"/><stop stop-opacity="1" stop-color="rgb(98.81897%, 10.198975%, 10.978699%)" offset="0.46875"/><stop stop-opacity="1" stop-color="rgb(98.81897%, 10.198975%, 10.978699%)" offset="0.5"/><stop stop-opacity="1" stop-color="rgb(98.81897%, 10.198975%, 10.978699%)" offset="0.935182"/><stop stop-opacity="1" stop-color="rgb(98.81897%, 10.198975%, 10.978699%)" offset="1"/></linearGradient><clipPath id="d183932aac"><path d="M 488.496094 420 L 951.246094 420 L 951.246094 538 L 488.496094 538 Z M 488.496094 420 " clip-rule="nonzero"/></clipPath></defs><g clip-path="url(#e5ca0aebda)"><path fill="#0941be" d="M 951.496094 442.113281 C 951.496094 495.0625 847.847656 537.976562 719.996094 537.976562 C 718.5 537.976562 717.003906 537.972656 715.511719 537.960938 C 715.082031 537.957031 714.652344 537.953125 714.222656 537.949219 C 713.65625 537.941406 713.097656 537.9375 712.535156 537.929688 C 712.09375 537.921875 711.652344 537.917969 711.214844 537.910156 C 710.933594 537.90625 710.652344 537.902344 710.371094 537.894531 C 709.972656 537.890625 709.570312 537.882812 709.171875 537.875 C 708.847656 537.871094 708.527344 537.863281 708.207031 537.855469 C 707.316406 537.835938 706.429688 537.816406 705.546875 537.792969 C 705.039062 537.78125 704.527344 537.769531 704.023438 537.753906 C 703.492188 537.738281 702.957031 537.722656 702.425781 537.707031 C 702.054688 537.695312 701.6875 537.683594 701.316406 537.667969 C 700.628906 537.648438 699.9375 537.621094 699.253906 537.597656 C 698.207031 537.558594 697.164062 537.519531 696.121094 537.472656 C 695.21875 537.4375 694.316406 537.394531 693.414062 537.351562 C 692.929688 537.328125 692.445312 537.304688 691.964844 537.28125 C 691.558594 537.261719 691.15625 537.242188 690.753906 537.21875 C 690.449219 537.203125 690.148438 537.1875 689.847656 537.171875 C 689.382812 537.148438 688.914062 537.121094 688.449219 537.09375 C 687.839844 537.0625 687.226562 537.023438 686.621094 536.988281 C 686.148438 536.960938 685.679688 536.929688 685.210938 536.902344 C 684.695312 536.871094 684.179688 536.835938 683.664062 536.804688 C 683.148438 536.769531 682.636719 536.734375 682.121094 536.699219 C 682.039062 536.695312 681.957031 536.691406 681.875 536.683594 C 680.929688 536.621094 679.988281 536.550781 679.046875 536.484375 C 678.535156 536.445312 678.023438 536.40625 677.515625 536.367188 C 676.59375 536.296875 675.675781 536.222656 674.757812 536.148438 C 672.605469 535.972656 670.46875 535.78125 668.339844 535.582031 C 667.859375 535.535156 667.375 535.492188 666.894531 535.441406 C 666.589844 535.414062 666.289062 535.386719 665.992188 535.355469 C 665.636719 535.320312 665.277344 535.285156 664.921875 535.246094 C 664.578125 535.214844 664.234375 535.179688 663.890625 535.140625 C 663.390625 535.089844 662.894531 535.039062 662.394531 534.988281 C 658.609375 534.585938 654.863281 534.144531 651.15625 533.667969 C 650.785156 533.621094 650.410156 533.570312 650.039062 533.523438 C 649.507812 533.453125 648.976562 533.382812 648.445312 533.3125 C 647.542969 533.1875 646.644531 533.066406 645.75 532.941406 C 645.300781 532.878906 644.855469 532.816406 644.40625 532.75 C 642.601562 532.492188 640.8125 532.226562 639.027344 531.949219 C 638.175781 531.816406 637.324219 531.683594 636.472656 531.546875 C 636.019531 531.476562 635.566406 531.402344 635.113281 531.328125 C 634.757812 531.269531 634.402344 531.210938 634.046875 531.152344 C 633.929688 531.132812 633.8125 531.113281 633.691406 531.09375 C 633.292969 531.027344 632.894531 530.960938 632.492188 530.894531 C 632.058594 530.820312 631.625 530.746094 631.191406 530.667969 C 630.507812 530.550781 629.828125 530.433594 629.152344 530.3125 C 628.765625 530.246094 628.375 530.175781 627.988281 530.105469 C 627.757812 530.066406 627.53125 530.023438 627.300781 529.984375 C 626.871094 529.90625 626.441406 529.828125 626.011719 529.746094 C 625.210938 529.601562 624.410156 529.449219 623.613281 529.300781 C 543.878906 514.160156 488.496094 480.816406 488.496094 442.113281 C 488.496094 428.175781 495.679688 414.929688 508.601562 402.984375 L 508.664062 402.929688 L 511.621094 400.308594 L 631.890625 293.546875 C 627.714844 297.363281 625.421875 301.527344 625.421875 305.878906 C 625.421875 319.03125 646.375 330.429688 676.984375 336.035156 C 677.128906 336.0625 677.269531 336.089844 677.414062 336.113281 C 677.871094 336.199219 678.328125 336.28125 678.789062 336.359375 C 678.917969 336.382812 679.042969 336.402344 679.175781 336.425781 C 679.933594 336.554688 680.699219 336.679688 681.472656 336.804688 C 681.761719 336.847656 682.046875 336.894531 682.335938 336.941406 C 682.671875 336.992188 683.011719 337.042969 683.351562 337.097656 C 684.007812 337.195312 684.660156 337.292969 685.320312 337.382812 C 685.679688 337.4375 686.039062 337.484375 686.398438 337.53125 C 687.453125 337.679688 688.519531 337.816406 689.59375 337.945312 C 689.628906 337.949219 689.660156 337.953125 689.695312 337.957031 C 690.054688 338 690.410156 338.042969 690.765625 338.082031 C 691.136719 338.128906 691.503906 338.171875 691.875 338.210938 C 692.234375 338.25 692.589844 338.289062 692.949219 338.328125 C 693.714844 338.410156 694.480469 338.488281 695.253906 338.5625 C 695.519531 338.585938 695.785156 338.613281 696.054688 338.636719 C 696.21875 338.652344 696.382812 338.667969 696.550781 338.683594 C 696.792969 338.707031 697.035156 338.730469 697.277344 338.75 C 697.421875 338.761719 697.570312 338.773438 697.71875 338.785156 C 698.007812 338.8125 698.296875 338.835938 698.585938 338.859375 C 700.226562 338.996094 701.882812 339.117188 703.550781 339.222656 C 703.761719 339.238281 703.972656 339.25 704.1875 339.261719 C 704.371094 339.273438 704.558594 339.285156 704.746094 339.292969 C 705.027344 339.3125 705.3125 339.328125 705.597656 339.339844 C 706.378906 339.386719 707.164062 339.421875 707.953125 339.460938 C 708.238281 339.472656 708.527344 339.484375 708.8125 339.496094 C 709.003906 339.507812 709.195312 339.515625 709.386719 339.523438 C 709.601562 339.53125 709.816406 339.539062 710.03125 339.546875 C 710.214844 339.554688 710.394531 339.558594 710.574219 339.566406 C 710.890625 339.578125 711.207031 339.589844 711.523438 339.597656 C 712.488281 339.628906 713.457031 339.65625 714.429688 339.671875 C 714.796875 339.683594 715.164062 339.691406 715.535156 339.695312 C 715.941406 339.703125 716.351562 339.707031 716.757812 339.710938 C 716.945312 339.714844 717.128906 339.71875 717.316406 339.71875 C 718.207031 339.726562 719.101562 339.734375 720 339.734375 C 772.230469 339.734375 814.574219 324.574219 814.574219 305.875 C 814.574219 301.503906 812.265625 297.328125 808.050781 293.496094 L 928.375 400.308594 L 931.332031 402.929688 L 931.394531 402.984375 C 944.316406 414.925781 951.5 428.175781 951.5 442.109375 Z M 951.496094 442.113281 " fill-opacity="1" fill-rule="nonzero"/></g><g clip-path="url(#bc0703f325)"><g clip-path="url(#03b708e3a8)"><path fill="url(#0443fbdf13)" d="M 686.394531 337.535156 L 686.394531 337.945312 L 689.59375 337.945312 L 689.59375 337.535156 Z M 686.394531 337.535156 " fill-rule="nonzero"/></g></g><path fill="#5271ff" d="M 822 311.566406 C 822 331.730469 776.332031 348.085938 719.996094 348.085938 C 719.007812 348.085938 718.019531 348.078125 717.035156 348.066406 C 716.71875 348.066406 716.414062 348.058594 716.097656 348.050781 C 715.429688 348.046875 714.753906 348.039062 714.085938 348.023438 C 713.722656 348.011719 713.355469 348.003906 712.992188 347.996094 C 712.363281 347.984375 711.734375 347.960938 711.113281 347.941406 C 710.753906 347.933594 710.390625 347.921875 710.035156 347.90625 C 709.351562 347.886719 708.675781 347.859375 708 347.832031 C 707.707031 347.816406 707.421875 347.804688 707.125 347.789062 C 706.203125 347.75 705.28125 347.707031 704.363281 347.652344 C 704.019531 347.632812 703.683594 347.613281 703.351562 347.59375 C 702.75 347.558594 702.15625 347.523438 701.5625 347.484375 C 701.136719 347.457031 700.714844 347.429688 700.300781 347.402344 C 699.792969 347.363281 699.289062 347.328125 698.78125 347.292969 C 698.339844 347.257812 697.886719 347.222656 697.449219 347.183594 C 696.972656 347.148438 696.5 347.109375 696.03125 347.066406 C 695.578125 347.027344 695.121094 346.992188 694.671875 346.945312 C 694.207031 346.902344 693.75 346.863281 693.289062 346.816406 C 692.410156 346.730469 691.53125 346.636719 690.65625 346.546875 C 690.289062 346.507812 689.917969 346.464844 689.558594 346.425781 C 689.023438 346.371094 688.503906 346.308594 687.980469 346.246094 C 687.636719 346.207031 687.289062 346.164062 686.949219 346.125 C 686.414062 346.054688 685.882812 345.988281 685.351562 345.917969 C 685.035156 345.878906 684.730469 345.835938 684.414062 345.796875 L 682.753906 345.570312 C 682.523438 345.535156 682.289062 345.503906 682.058594 345.46875 C 680.066406 345.179688 678.105469 344.875 676.179688 344.546875 C 676.007812 344.519531 675.839844 344.492188 675.667969 344.457031 C 675.085938 344.363281 674.507812 344.261719 673.9375 344.152344 C 673.714844 344.109375 673.488281 344.074219 673.261719 344.027344 C 640.4375 337.964844 617.992188 325.699219 617.992188 311.566406 C 617.992188 308.914062 618.777344 306.335938 620.28125 303.851562 L 631.886719 293.546875 C 627.714844 297.363281 625.421875 301.527344 625.421875 305.878906 C 625.421875 318.984375 646.226562 330.351562 676.664062 335.980469 C 676.875 336.019531 677.082031 336.054688 677.289062 336.09375 C 677.824219 336.191406 678.355469 336.285156 678.890625 336.375 C 679.046875 336.402344 679.210938 336.429688 679.367188 336.457031 C 681.15625 336.765625 682.972656 337.050781 684.816406 337.3125 C 685.035156 337.34375 685.253906 337.378906 685.464844 337.40625 C 685.976562 337.480469 686.488281 337.550781 687 337.617188 C 687.292969 337.652344 687.582031 337.695312 687.875 337.726562 C 688.367188 337.796875 688.859375 337.855469 689.355469 337.917969 C 689.671875 337.953125 689.992188 337.992188 690.304688 338.027344 C 690.796875 338.085938 691.28125 338.140625 691.769531 338.195312 C 692.109375 338.238281 692.453125 338.273438 692.785156 338.308594 C 693.597656 338.394531 694.417969 338.476562 695.234375 338.558594 C 695.660156 338.601562 696.082031 338.640625 696.511719 338.683594 C 696.929688 338.71875 697.351562 338.757812 697.777344 338.792969 C 698.210938 338.824219 698.648438 338.867188 699.085938 338.902344 C 699.496094 338.9375 699.90625 338.96875 700.320312 338.996094 C 700.785156 339.03125 701.257812 339.066406 701.726562 339.097656 C 702.117188 339.125 702.507812 339.152344 702.894531 339.179688 C 703.449219 339.214844 704 339.25 704.554688 339.28125 C 704.867188 339.300781 705.183594 339.316406 705.5 339.335938 C 706.351562 339.382812 707.203125 339.425781 708.066406 339.464844 C 708.332031 339.480469 708.597656 339.484375 708.871094 339.5 C 709.5 339.527344 710.128906 339.546875 710.753906 339.570312 C 711.089844 339.582031 711.421875 339.597656 711.757812 339.605469 C 712.332031 339.625 712.914062 339.640625 713.5 339.652344 C 713.835938 339.660156 714.175781 339.664062 714.511719 339.679688 C 715.132812 339.6875 715.753906 339.699219 716.382812 339.707031 C 716.667969 339.714844 716.953125 339.714844 717.25 339.722656 C 718.15625 339.726562 719.074219 339.734375 719.992188 339.734375 C 772.226562 339.734375 814.566406 324.574219 814.566406 305.878906 C 814.566406 301.507812 812.257812 297.328125 808.046875 293.5 L 819.714844 303.859375 C 821.210938 306.34375 821.996094 308.925781 821.996094 311.566406 Z M 822 311.566406 " fill-opacity="1" fill-rule="nonzero"/><path fill="#004aad" d="M 814.570312 305.875 C 814.570312 324.574219 772.226562 339.734375 719.996094 339.734375 C 667.765625 339.734375 625.421875 324.574219 625.421875 305.875 C 625.421875 301.527344 627.71875 297.363281 631.890625 293.542969 L 631.945312 293.496094 L 632.210938 293.257812 C 646.1875 280.804688 680.226562 272.015625 719.996094 272.015625 C 759.765625 272.015625 793.804688 280.804688 807.785156 293.257812 L 808.050781 293.5 C 812.265625 297.328125 814.574219 301.507812 814.574219 305.878906 Z M 814.570312 305.875 " fill-opacity="1" fill-rule="nonzero"/><g clip-path="url(#d183932aac)"><path fill="#004aad" d="M 951.496094 442.113281 C 951.496094 495.0625 847.847656 537.976562 719.996094 537.976562 C 717.921875 537.976562 715.851562 537.964844 713.78125 537.941406 C 713.105469 537.9375 712.429688 537.921875 711.746094 537.910156 C 710.367188 537.890625 708.988281 537.867188 707.617188 537.839844 C 706.800781 537.820312 705.996094 537.796875 705.191406 537.777344 C 703.949219 537.746094 702.710938 537.710938 701.476562 537.667969 C 700.621094 537.640625 699.777344 537.609375 698.929688 537.582031 C 697.742188 537.53125 696.5625 537.492188 695.378906 537.4375 C 694.511719 537.394531 693.652344 537.355469 692.785156 537.3125 C 691.628906 537.261719 690.476562 537.199219 689.328125 537.136719 C 688.453125 537.089844 687.585938 537.042969 686.71875 536.988281 C 685.585938 536.917969 684.445312 536.851562 683.3125 536.773438 C 682.453125 536.722656 681.585938 536.660156 680.726562 536.597656 C 679.597656 536.515625 678.464844 536.433594 677.339844 536.34375 C 676.492188 536.285156 675.636719 536.214844 674.792969 536.144531 C 673.664062 536.050781 672.539062 535.957031 671.410156 535.851562 C 670.578125 535.78125 669.746094 535.710938 668.917969 535.628906 C 667.777344 535.523438 666.644531 535.414062 665.519531 535.296875 C 664.714844 535.214844 663.90625 535.140625 663.101562 535.050781 C 661.941406 534.929688 660.789062 534.804688 659.625 534.675781 C 658.867188 534.585938 658.109375 534.503906 657.351562 534.417969 C 656.128906 534.28125 654.914062 534.128906 653.699219 533.980469 C 653.023438 533.890625 652.339844 533.816406 651.664062 533.726562 C 650.296875 533.550781 648.9375 533.371094 647.585938 533.1875 C 647.066406 533.113281 646.546875 533.050781 646.035156 532.976562 C 642.273438 532.449219 638.550781 531.890625 634.878906 531.28125 C 634.496094 531.222656 634.121094 531.160156 633.738281 531.089844 C 632.304688 530.851562 630.863281 530.613281 629.441406 530.359375 C 628.867188 530.257812 628.300781 530.15625 627.726562 530.054688 C 626.507812 529.828125 625.285156 529.609375 624.066406 529.375 C 623.917969 529.347656 623.761719 529.320312 623.613281 529.292969 L 623.613281 529.289062 C 543.882812 514.152344 488.496094 480.816406 488.496094 442.113281 C 488.496094 434.53125 490.621094 427.160156 494.644531 420.089844 C 493.414062 424.050781 492.777344 428.09375 492.777344 432.191406 C 492.777344 470.179688 547.140625 502.902344 625.394531 517.761719 C 625.542969 517.792969 625.695312 517.816406 625.84375 517.84375 C 627.03125 518.066406 628.234375 518.285156 629.433594 518.503906 C 629.996094 518.605469 630.554688 518.710938 631.117188 518.8125 C 632.515625 519.058594 633.921875 519.289062 635.335938 519.527344 C 635.710938 519.589844 636.078125 519.652344 636.449219 519.710938 C 640.0625 520.304688 643.710938 520.859375 647.402344 521.371094 C 647.90625 521.445312 648.417969 521.507812 648.925781 521.578125 C 650.257812 521.761719 651.585938 521.9375 652.925781 522.109375 C 653.589844 522.199219 654.257812 522.273438 654.925781 522.355469 C 656.113281 522.503906 657.3125 522.65625 658.511719 522.792969 C 659.257812 522.878906 660 522.957031 660.746094 523.046875 C 661.878906 523.167969 663.011719 523.296875 664.15625 523.414062 C 664.941406 523.496094 665.734375 523.578125 666.519531 523.652344 C 667.632812 523.761719 668.746094 523.871094 669.859375 523.980469 C 670.679688 524.058594 671.492188 524.125 672.3125 524.199219 C 673.417969 524.296875 674.515625 524.390625 675.628906 524.488281 C 676.460938 524.554688 677.296875 524.617188 678.128906 524.6875 C 679.234375 524.769531 680.339844 524.851562 681.453125 524.933594 C 682.300781 524.988281 683.140625 525.050781 683.992188 525.101562 C 685.097656 525.179688 686.21875 525.246094 687.332031 525.316406 L 689.894531 525.457031 C 691.019531 525.519531 692.152344 525.582031 693.289062 525.636719 C 694.132812 525.675781 694.980469 525.71875 695.832031 525.753906 C 696.988281 525.804688 698.15625 525.847656 699.316406 525.890625 C 700.148438 525.921875 700.980469 525.957031 701.816406 525.984375 C 703.023438 526.023438 704.246094 526.054688 705.460938 526.085938 C 706.253906 526.105469 707.046875 526.132812 707.839844 526.148438 C 709.191406 526.175781 710.542969 526.195312 711.902344 526.214844 C 712.5625 526.230469 713.226562 526.242188 713.894531 526.25 C 715.925781 526.269531 717.953125 526.285156 719.992188 526.285156 C 845.480469 526.285156 947.210938 484.160156 947.210938 432.195312 C 947.210938 428.097656 946.578125 424.054688 945.347656 420.09375 C 949.371094 427.160156 951.492188 434.535156 951.492188 442.117188 Z M 951.496094 442.113281 " fill-opacity="1" fill-rule="nonzero"/></g><path fill="#5271ff" d="M 518.113281 448.285156 C 520.179688 450.09375 522.386719 451.738281 524.609375 453.34375 C 540.1875 464.371094 557.554688 472.679688 575.324219 479.472656 C 623.835938 497.765625 676.019531 503.957031 727.585938 505.484375 C 740.996094 505.878906 755.394531 505.882812 768.785156 505.898438 C 760.621094 507.226562 752.402344 508.222656 744.164062 509.019531 C 731.144531 510.226562 717.933594 510.851562 704.851562 510.855469 C 649.269531 510.699219 588.769531 499.554688 541.792969 468.433594 C 537.785156 465.75 533.804688 462.832031 530.074219 459.773438 C 525.8125 456.246094 521.65625 452.539062 518.109375 448.28125 Z M 518.113281 448.285156 " fill-opacity="1" fill-rule="nonzero"/></svg>