<svg xmlns="http://www.w3.org/2000/svg" xmlns:xlink="http://www.w3.org/1999/xlink" width="1920" zoomAndPan="magnify" viewBox="0 0 1440 809.999993" height="1080" preserveAspectRatio="xMidYMid meet" version="1.0"><defs><clipPath id="45985dbb10"><path d="M 629 144 L 811 144 L 811 666.386719 L 629 666.386719 Z M 629 144 " clip-rule="nonzero"/></clipPath></defs><path fill="#ecc19c" d="M 723.960938 544.53125 C 723.714844 543.15625 723.539062 541.65625 723.480469 539.902344 C 723.375 536.980469 723.675781 535.753906 724.117188 531.511719 C 724.800781 524.917969 724.628906 522.597656 724.929688 505.867188 C 725 501.96875 725.109375 496.53125 725.277344 489.875 C 725.296875 489.136719 725.316406 488.382812 725.335938 487.621094 C 719.21875 488.25 713.101562 488.886719 706.980469 489.535156 C 699.625 490.308594 692.261719 491.097656 684.902344 491.894531 C 687.375 499.535156 688.730469 506.171875 689.523438 511.246094 C 690.992188 520.660156 691.089844 528.351562 691.085938 531.296875 C 691.082031 540.765625 690.015625 543.773438 690.402344 552.71875 C 690.550781 556.09375 690.851562 559.121094 691.195312 561.703125 C 691.378906 561.617188 691.578125 561.558594 691.792969 561.535156 C 698.136719 560.824219 704.929688 559.796875 712.09375 558.339844 C 716.789062 557.386719 721.261719 556.328125 725.492188 555.199219 C 725.886719 555.097656 726.28125 555.121094 726.640625 555.246094 C 725.765625 550.933594 724.617188 548.164062 723.960938 544.539062 C 723.957031 544.535156 723.960938 544.53125 723.960938 544.53125 Z M 723.960938 544.53125 " fill-opacity="1" fill-rule="nonzero"/><path fill="#ecc19c" d="M 747.328125 494.082031 C 738.839844 493.597656 731.691406 491.917969 726.261719 490.191406 C 726.613281 493.441406 727.03125 497.714844 727.398438 502.734375 C 728.035156 511.339844 728.453125 517.246094 728.183594 524.839844 C 728.0625 528.175781 727.78125 532.675781 727.074219 538.023438 C 729.410156 541.140625 735.300781 547.515625 744.640625 547.921875 C 750.972656 548.203125 755.832031 545.597656 758.410156 543.824219 C 758.613281 543.683594 758.839844 543.636719 759.050781 543.667969 C 759.164062 541.808594 759.300781 539.722656 759.480469 537.457031 C 759.695312 534.707031 760.257812 528.109375 762 515.304688 C 762.816406 509.332031 763.910156 501.863281 765.355469 493.203125 C 760.324219 493.984375 754.222656 494.476562 747.328125 494.082031 Z M 747.328125 494.082031 " fill-opacity="1" fill-rule="nonzero"/><path fill="#ecc19c" d="M 697.316406 197.175781 C 699.003906 199.722656 702.390625 201.832031 704.101562 200.835938 C 704.628906 204.789062 705.011719 209.128906 705.148438 213.816406 C 705.199219 215.679688 705.210938 217.488281 705.183594 219.238281 C 705.175781 219.582031 705.167969 219.929688 705.164062 220.277344 L 705.164062 220.285156 C 705.15625 220.796875 705.042969 221.304688 704.820312 221.769531 C 704.273438 222.902344 703.773438 224.382812 703.75 226.109375 C 703.648438 233.152344 711.484375 239.570312 718.621094 241.140625 C 731.101562 243.882812 744.601562 232.667969 744.214844 225.816406 C 744.203125 225.574219 743.984375 222.414062 742.082031 220.796875 C 741.6875 220.464844 741.433594 220 741.402344 219.484375 L 741.402344 219.476562 C 741.386719 219.253906 741.375 219.03125 741.363281 218.8125 C 741.246094 216.445312 741.292969 214.238281 741.4375 212.21875 C 741.503906 212.128906 741.5625 212.046875 741.617188 211.976562 C 743.046875 210.046875 744.355469 207.574219 745.25 200.613281 C 746.222656 200.136719 747.484375 199.292969 748.332031 197.851562 C 748.539062 197.492188 749.078125 196.503906 749.160156 192.636719 C 749.257812 188.105469 749.28125 185.269531 747.382812 183.785156 C 747.027344 183.511719 746.660156 183.324219 746.320312 183.195312 C 746.386719 179.824219 746.390625 175.980469 746.269531 171.742188 C 744.21875 172.1875 742.675781 171.019531 738.105469 169.378906 C 735.160156 168.324219 716.390625 161.585938 708.574219 168.980469 C 707.257812 170.222656 706.667969 171.476562 705.820312 173.261719 C 702.027344 181.296875 704.398438 190.246094 703.941406 190.292969 C 703.511719 190.339844 703.46875 186.171875 700.515625 184.117188 C 700.355469 184.007812 699.714844 183.5625 698.941406 183.308594 C 698.34375 183.109375 697.671875 183.027344 697.089844 183.304688 C 695.171875 184.21875 695.539062 188.425781 695.777344 191.148438 C 696.003906 193.75 696.148438 195.410156 697.316406 197.175781 Z M 737.976562 181.796875 C 739.054688 181.75 739.984375 183.003906 740.054688 184.59375 C 740.121094 186.1875 739.300781 187.511719 738.222656 187.558594 C 737.140625 187.605469 736.210938 186.351562 736.140625 184.761719 C 736.074219 183.171875 736.894531 181.84375 737.976562 181.796875 Z M 718.363281 181.792969 C 719.445312 181.746094 720.375 183 720.441406 184.59375 C 720.511719 186.183594 719.691406 187.507812 718.613281 187.554688 C 717.53125 187.601562 716.601562 186.351562 716.53125 184.757812 C 716.464844 183.167969 717.285156 181.839844 718.363281 181.792969 Z M 718.363281 181.792969 " fill-opacity="1" fill-rule="nonzero"/><path fill="#4d4d4d" d="M 739.859375 644.046875 C 734.488281 633.78125 738.113281 623.375 733.472656 620.488281 C 732.199219 619.691406 730.835938 619.617188 730.835938 619.617188 C 729.945312 619.570312 729.136719 619.757812 728.433594 620.046875 C 728.527344 621.746094 728.671875 623.277344 728.882812 624.558594 C 729.132812 626.136719 729.445312 627.5625 729.679688 628.5625 C 729.894531 629.472656 730.050781 630.03125 730.050781 630.03125 C 730.609375 632.035156 731.160156 633.472656 731.683594 634.734375 C 732.324219 636.28125 732.929688 637.5625 733.476562 639.308594 C 733.734375 640.117188 733.992188 641.082031 734.207031 642.214844 C 733.472656 642.207031 733.410156 644.429688 732.230469 644.679688 C 730.46875 645.054688 729.53125 640.347656 725.542969 638.199219 C 722.625 636.628906 718.597656 636.710938 715.796875 638.519531 C 713.558594 639.964844 712.53125 642.242188 711.742188 644.089844 L 711.742188 644.09375 C 711.714844 644.15625 711.6875 644.21875 711.660156 644.28125 C 710.59375 646.789062 711.027344 647.375 710.296875 649.59375 C 709.019531 653.46875 706.429688 655.558594 704.527344 657.671875 C 703.210938 659.125 702.226562 660.589844 702.226562 662.652344 C 702.226562 663.738281 702.5 664.242188 702.660156 664.484375 C 703.914062 666.347656 707.394531 665.75 711.25 665.441406 C 716.855469 664.988281 722.5 665.519531 728.121094 665.441406 C 734.273438 665.351562 735.328125 665.351562 736.332031 664.332031 C 739.3125 664.449219 741.796875 663.597656 743.160156 661.945312 C 745.667969 658.898438 744.144531 653.425781 743.597656 651.453125 C 742.644531 648.003906 741.359375 646.917969 739.859375 644.046875 Z M 739.859375 644.046875 " fill-opacity="1" fill-rule="nonzero"/><path fill="#4d4d4d" d="M 809.683594 299.761719 C 809.484375 298.621094 809.167969 297.238281 808.996094 296.503906 C 808.023438 292.292969 806.886719 288.742188 805.871094 285.96875 C 803.632812 288.726562 800.058594 292.242188 794.804688 294.875 C 788.707031 297.925781 783.050781 298.433594 779.664062 298.429688 C 779.570312 298.429688 779.480469 298.425781 779.390625 298.414062 C 779.839844 299.613281 780.402344 300.898438 781.113281 302.234375 C 781.777344 303.5 782.476562 304.628906 783.171875 305.625 C 783.167969 305.625 783.167969 305.628906 783.167969 305.628906 C 782.328125 306.765625 780.957031 308.960938 779.714844 316.90625 C 779.421875 318.800781 779.105469 321.199219 778.875 324.007812 C 778.425781 324.503906 778.4375 324.65625 776.5625 327.394531 C 775.914062 328.34375 775.316406 329.199219 774.792969 329.933594 C 774.441406 329.921875 774.078125 329.925781 773.707031 329.945312 C 771.710938 330.03125 769.3125 330.453125 765.167969 330.84375 C 753.863281 331.902344 750.367188 330.734375 748.953125 333.207031 C 748.695312 333.660156 748.542969 334.175781 748.480469 334.71875 C 748.257812 336.695312 749.242188 339.066406 750.714844 340.378906 C 751.1875 340.800781 751.824219 341.214844 753.769531 341.519531 C 754.886719 341.695312 756.441406 341.839844 758.640625 341.921875 C 765.34375 342.175781 767.496094 341.503906 768.246094 342.726562 C 768.691406 343.445312 768.460938 344.515625 765.167969 349.917969 C 760.765625 357.136719 759.425781 358.078125 759.445312 360.480469 C 759.449219 361.066406 759.535156 361.660156 759.6875 362.242188 C 760.441406 365.175781 762.855469 367.871094 765.160156 368.21875 C 764.703125 369.355469 764.351562 370.910156 764.730469 372.65625 C 765.273438 375.175781 767.292969 377.917969 769.628906 378.078125 C 769.660156 378.082031 769.6875 378.085938 769.714844 378.085938 C 770.027344 378.097656 770.335938 378.0625 770.652344 377.964844 C 770.714844 378.703125 770.917969 379.640625 771.476562 380.578125 C 772.429688 382.183594 774.242188 383.480469 775.949219 383.523438 C 776.160156 384.023438 776.503906 384.558594 777.046875 384.980469 C 777.046875 384.980469 778.007812 385.726562 779.246094 385.726562 C 779.96875 385.726562 780.675781 385.378906 781.351562 384.785156 C 784.652344 381.914062 787.304688 373.34375 787.832031 371.628906 C 788.542969 369.335938 788.96875 367.3125 789.816406 363.265625 C 789.960938 362.578125 791.175781 356.679688 791.796875 348.742188 C 791.96875 346.523438 792.03125 345.003906 791.796875 343.589844 C 792.527344 342.445312 793.289062 341.105469 794.023438 339.574219 C 794.925781 337.679688 795.519531 336.4375 795.851562 335.25 C 799.308594 331.941406 803.917969 326.558594 806.929688 318.890625 C 808.050781 316.035156 811.136719 308.183594 809.683594 299.761719 Z M 809.683594 299.761719 " fill-opacity="1" fill-rule="nonzero"/><path fill="#4d4d4d" d="M 754.394531 385.527344 C 753.042969 384.144531 751.042969 383.761719 747.847656 383.261719 C 745.875 382.953125 743.453125 382.601562 740.445312 381.949219 C 736.777344 381.148438 723.765625 378.316406 723.648438 374.6875 C 723.585938 372.777344 727.097656 371.0625 732.304688 368.523438 C 733.328125 368.023438 734.257812 367.609375 735.105469 367.25 C 739.734375 365.28125 741.835938 365.066406 742.550781 363.117188 C 743.53125 360.445312 741.300781 356.121094 737.996094 354.539062 C 736.417969 353.777344 735.039062 353.859375 733.292969 354.414062 C 730.554688 355.289062 726.917969 357.332031 720.199219 359.132812 C 719.214844 359.398438 718.261719 359.601562 717.347656 359.769531 C 716.953125 359.84375 716.570312 359.90625 716.1875 359.96875 C 712.792969 360.507812 709.988281 360.636719 708.003906 361.632812 C 702.425781 358.570312 696.851562 355.5 691.273438 352.433594 C 689.953125 351.707031 688.34375 351.769531 687.074219 352.585938 C 686.886719 352.707031 686.691406 352.839844 686.492188 352.980469 C 684.921875 351.933594 683.605469 351.015625 682.570312 350.28125 C 678.136719 347.144531 674.980469 344.609375 670.949219 341.457031 C 670.398438 341.027344 669.828125 340.582031 669.234375 340.121094 C 668.066406 339.21875 666.8125 338.253906 665.429688 337.210938 C 664.210938 336.289062 662.890625 335.304688 661.441406 334.242188 C 659.664062 332.9375 658.339844 331.988281 657.304688 331.28125 C 657.449219 331.0625 657.59375 330.84375 657.734375 330.621094 C 659.265625 328.234375 660.800781 325.695312 662.320312 322.992188 C 663.960938 320.085938 665.429688 317.25 666.753906 314.511719 C 667.304688 313.378906 667.828125 312.261719 668.324219 311.164062 C 664.574219 310.613281 660.570312 309.859375 656.371094 308.851562 C 649.078125 307.09375 642.601562 304.890625 637.015625 302.613281 C 636.527344 302.417969 636.132812 302.09375 635.847656 301.695312 C 633.882812 309.015625 632.582031 315.28125 631.707031 320.058594 C 628.84375 335.714844 629.570312 340.898438 632.273438 345.019531 C 633.28125 346.554688 634.398438 347.558594 636.597656 349.503906 C 643.597656 355.683594 650.433594 359.046875 659.386719 363.097656 C 661.722656 364.152344 664.15625 365.230469 666.679688 366.328125 L 666.679688 366.332031 C 670.601562 368.042969 674.746094 369.796875 679.113281 371.578125 C 679.128906 371.640625 679.136719 371.703125 679.152344 371.765625 C 679.417969 372.972656 680.230469 373.992188 681.347656 374.535156 C 684.835938 376.230469 688.425781 377.921875 692.105469 379.601562 C 694.953125 380.898438 697.769531 382.148438 700.546875 383.351562 C 700.574219 383.535156 700.613281 383.71875 700.664062 383.90625 C 701.070312 385.433594 702.046875 386.410156 702.71875 387.085938 C 711.359375 395.769531 724.429688 401.363281 724.429688 401.363281 C 724.714844 401.488281 724.996094 401.605469 725.273438 401.722656 C 740.269531 408.046875 744.574219 407.382812 746.277344 406.46875 C 746.554688 406.320312 746.800781 406.132812 746.800781 406.132812 C 747.433594 405.683594 747.933594 405.164062 748.324219 404.628906 C 748.550781 404.332031 748.742188 404.023438 748.90625 403.726562 C 750.023438 403.515625 751.011719 403.0625 751.792969 402.242188 C 752.347656 401.664062 752.71875 400.980469 752.957031 400.261719 C 753.417969 398.894531 753.402344 397.402344 753.269531 396.234375 C 753.570312 396.101562 753.832031 395.933594 754.074219 395.730469 C 756.410156 393.804688 756.875 389.160156 755.023438 386.320312 C 754.828125 386.023438 754.621094 385.761719 754.394531 385.527344 Z M 754.394531 385.527344 " fill-opacity="1" fill-rule="nonzero"/><path fill="#80ff00" d="M 759.050781 543.667969 C 758.839844 543.636719 758.613281 543.683594 758.410156 543.824219 C 755.832031 545.597656 750.972656 548.203125 744.640625 547.921875 C 735.300781 547.515625 729.410156 541.140625 727.074219 538.023438 C 727.074219 538.023438 727.074219 538.019531 727.074219 538.019531 C 727.050781 537.992188 727.03125 537.960938 727.007812 537.929688 C 726.554688 537.320312 725.59375 537.488281 725.378906 538.214844 C 725.097656 539.183594 724.832031 540.203125 724.585938 541.273438 C 724.335938 542.394531 724.128906 543.484375 723.960938 544.53125 C 723.960938 544.53125 723.957031 544.535156 723.960938 544.539062 C 724.617188 548.164062 725.765625 550.933594 726.640625 555.246094 C 726.28125 555.121094 725.886719 555.097656 725.492188 555.199219 C 721.261719 556.328125 716.789062 557.386719 712.09375 558.339844 C 704.929688 559.796875 698.136719 560.824219 691.792969 561.535156 C 691.578125 561.558594 691.378906 561.617188 691.195312 561.703125 C 690.386719 562.066406 689.898438 562.960938 690.09375 563.882812 C 690.664062 566.558594 691.445312 569.976562 692.464844 573.925781 C 692.835938 575.347656 693.234375 576.839844 693.667969 578.394531 C 699.597656 599.570312 704.964844 607.238281 708.828125 624.261719 C 709.886719 628.921875 711.144531 635.664062 711.742188 644.089844 C 712.53125 642.242188 713.558594 639.964844 715.796875 638.519531 C 718.597656 636.710938 722.625 636.628906 725.542969 638.199219 C 729.53125 640.347656 730.46875 645.054688 732.230469 644.679688 C 733.410156 644.429688 733.472656 642.207031 734.207031 642.214844 C 733.992188 641.082031 733.734375 640.117188 733.476562 639.308594 C 732.929688 637.5625 732.324219 636.28125 731.683594 634.734375 C 731.160156 633.472656 730.609375 632.035156 730.050781 630.03125 C 730.050781 630.03125 729.894531 629.472656 729.679688 628.5625 C 729.445312 627.5625 729.132812 626.136719 728.882812 624.558594 C 728.671875 623.277344 728.527344 621.746094 728.433594 620.046875 C 729.136719 619.757812 729.945312 619.570312 730.835938 619.617188 C 730.835938 619.617188 732.199219 619.691406 733.472656 620.488281 C 733.738281 615.972656 734.527344 609.398438 736.910156 601.914062 C 741.542969 587.382812 748.144531 582.144531 753.980469 567.660156 C 756.003906 562.636719 758.554688 554.949219 759.84375 544.703125 C 759.910156 544.160156 759.519531 543.730469 759.050781 543.667969 Z M 759.050781 543.667969 " fill-opacity="1" fill-rule="nonzero"/><path fill="#80ff00" d="M 807.40625 281.414062 C 797.777344 260.085938 790.070312 244.78125 787.320312 240.738281 C 785.441406 237.96875 783.214844 235.824219 783.214844 235.824219 C 781.203125 233.882812 779.253906 232.554688 777.492188 231.496094 C 769.570312 226.738281 758.9375 223.601562 754.445312 222.351562 C 751.691406 221.582031 748.042969 220.628906 743.683594 219.675781 L 743.679688 219.675781 C 742.878906 219.226562 742.058594 218.96875 741.363281 218.8125 C 741.375 219.03125 741.386719 219.253906 741.402344 219.476562 L 741.402344 219.484375 C 741.433594 220 741.6875 220.464844 742.082031 220.796875 C 743.984375 222.414062 744.203125 225.574219 744.214844 225.816406 C 744.601562 232.667969 731.101562 243.882812 718.621094 241.140625 C 711.484375 239.570312 703.648438 233.152344 703.75 226.109375 C 703.773438 224.382812 704.273438 222.902344 704.820312 221.769531 C 705.042969 221.304688 705.15625 220.796875 705.164062 220.285156 L 705.164062 220.277344 C 705.167969 219.929688 705.175781 219.582031 705.183594 219.238281 C 704.871094 219.414062 704.542969 219.621094 704.210938 219.871094 C 703.988281 220.03125 703.765625 220.214844 703.546875 220.414062 C 691.761719 224.222656 683.34375 229.09375 677.984375 232.730469 C 670.558594 237.765625 669.773438 239.890625 658.0625 249.351562 C 657.382812 249.902344 655.988281 251.117188 654.390625 252.953125 C 654.390625 252.953125 651.660156 256.085938 649.570312 260.261719 C 647.359375 264.6875 641.886719 279.191406 635.46875 299.320312 C 635.207031 300.15625 635.367188 301.023438 635.847656 301.691406 L 635.847656 301.695312 C 636.132812 302.09375 636.527344 302.417969 637.015625 302.613281 C 642.601562 304.890625 649.078125 307.09375 656.371094 308.851562 C 660.570312 309.859375 664.574219 310.613281 668.324219 311.164062 C 667.828125 312.261719 667.304688 313.378906 666.753906 314.511719 C 666.332031 318.996094 665.988281 323.652344 665.746094 328.472656 C 665.597656 331.445312 665.492188 334.359375 665.429688 337.210938 C 666.8125 338.253906 668.066406 339.21875 669.234375 340.121094 C 669.828125 340.582031 670.398438 341.027344 670.949219 341.457031 C 674.980469 344.609375 678.136719 347.144531 682.570312 350.28125 C 683.605469 351.015625 684.921875 351.933594 686.492188 352.980469 C 686.691406 352.839844 686.886719 352.707031 687.074219 352.585938 C 688.34375 351.769531 689.953125 351.707031 691.273438 352.433594 C 696.851562 355.5 702.425781 358.570312 708.003906 361.632812 C 709.988281 360.636719 712.792969 360.507812 716.1875 359.96875 C 716.570312 359.90625 716.953125 359.84375 717.347656 359.769531 C 718.261719 359.601562 719.214844 359.398438 720.199219 359.132812 C 726.917969 357.332031 730.554688 355.289062 733.292969 354.414062 C 735.039062 353.859375 736.417969 353.777344 737.996094 354.539062 C 741.300781 356.121094 743.53125 360.445312 742.550781 363.117188 C 741.835938 365.066406 739.734375 365.28125 735.105469 367.25 C 734.257812 367.609375 733.328125 368.023438 732.304688 368.523438 C 727.097656 371.0625 723.585938 372.777344 723.648438 374.6875 C 723.765625 378.316406 736.777344 381.148438 740.445312 381.949219 C 743.453125 382.601562 745.875 382.953125 747.847656 383.261719 C 751.042969 383.761719 753.042969 384.144531 754.394531 385.527344 C 754.621094 385.761719 754.828125 386.023438 755.023438 386.320312 C 756.875 389.160156 756.410156 393.804688 754.074219 395.730469 C 753.832031 395.933594 753.570312 396.101562 753.269531 396.234375 C 753.402344 397.402344 753.417969 398.894531 752.957031 400.261719 C 752.71875 400.980469 752.347656 401.664062 751.792969 402.242188 C 751.011719 403.0625 750.023438 403.515625 748.90625 403.726562 C 748.742188 404.023438 748.550781 404.332031 748.324219 404.628906 C 747.933594 405.164062 747.433594 405.683594 746.800781 406.132812 C 746.800781 406.132812 746.554688 406.320312 746.277344 406.46875 C 744.574219 407.382812 740.269531 408.046875 725.273438 401.722656 C 724.996094 401.605469 724.714844 401.488281 724.429688 401.363281 C 724.429688 401.363281 711.359375 395.769531 702.71875 387.085938 C 702.046875 386.410156 701.070312 385.433594 700.664062 383.90625 C 700.613281 383.71875 700.574219 383.535156 700.546875 383.351562 C 697.769531 382.148438 694.953125 380.898438 692.105469 379.601562 C 688.425781 377.921875 684.835938 376.230469 681.347656 374.535156 C 680.230469 373.992188 679.417969 372.972656 679.152344 371.765625 C 679.136719 371.703125 679.128906 371.640625 679.113281 371.578125 C 674.746094 369.796875 670.601562 368.042969 666.679688 366.332031 C 666.699219 372.480469 666.417969 379.207031 665.671875 386.398438 C 665.382812 389.175781 665.042969 391.863281 664.660156 394.460938 C 664.417969 396.085938 664.164062 397.675781 663.894531 399.222656 C 663.59375 400.949219 664.753906 402.589844 666.484375 402.878906 C 667.199219 402.996094 667.914062 403.113281 668.636719 403.226562 C 668.175781 415.234375 668.167969 428.199219 668.839844 441.996094 C 669.699219 459.671875 671.535156 475.929688 673.859375 490.554688 C 674.085938 491.957031 675.363281 492.933594 676.777344 492.777344 C 679.484375 492.480469 682.195312 492.183594 684.902344 491.894531 C 692.261719 491.097656 699.625 490.308594 706.980469 489.535156 C 713.101562 488.886719 719.21875 488.25 725.335938 487.621094 C 725.316406 488.382812 725.296875 489.136719 725.277344 489.875 C 725.597656 489.980469 725.925781 490.085938 726.261719 490.191406 C 731.691406 491.917969 738.839844 493.597656 747.328125 494.082031 C 754.222656 494.476562 760.324219 493.984375 765.355469 493.203125 C 766.144531 493.078125 766.90625 492.949219 767.640625 492.8125 C 769.578125 492.460938 771.125 491.007812 771.613281 489.101562 C 774.0625 479.5625 776.222656 468.648438 777.550781 456.523438 C 779.605469 437.777344 779.117188 421.132812 777.730469 407.480469 C 778.050781 407.453125 778.367188 407.429688 778.683594 407.402344 C 780.351562 407.265625 781.621094 405.84375 781.574219 404.164062 C 781.542969 403.058594 781.484375 401.910156 781.398438 400.730469 C 781.242188 398.546875 780.984375 396.242188 780.597656 393.832031 C 780.277344 391.847656 779.898438 389.96875 779.480469 388.199219 C 780.164062 387.105469 780.792969 385.964844 781.351562 384.785156 C 780.675781 385.378906 779.96875 385.726562 779.246094 385.726562 C 778.007812 385.726562 777.046875 384.980469 777.046875 384.980469 C 776.503906 384.558594 776.160156 384.023438 775.949219 383.523438 C 774.242188 383.480469 772.429688 382.183594 771.476562 380.578125 C 770.917969 379.640625 770.714844 378.703125 770.652344 377.964844 C 770.335938 378.0625 770.027344 378.097656 769.714844 378.085938 C 769.6875 378.085938 769.660156 378.082031 769.628906 378.078125 C 767.292969 377.917969 765.273438 375.175781 764.730469 372.65625 C 764.351562 370.910156 764.703125 369.355469 765.160156 368.21875 C 762.855469 367.871094 760.441406 365.175781 759.6875 362.242188 C 759.535156 361.660156 759.449219 361.066406 759.445312 360.480469 C 759.425781 358.078125 760.765625 357.136719 765.167969 349.917969 C 768.460938 344.515625 768.691406 343.445312 768.246094 342.726562 C 767.496094 341.503906 765.34375 342.175781 758.640625 341.921875 C 756.441406 341.839844 754.886719 341.695312 753.769531 341.519531 C 751.824219 341.214844 751.1875 340.800781 750.714844 340.378906 C 749.242188 339.066406 748.257812 336.695312 748.480469 334.71875 C 748.542969 334.175781 748.695312 333.660156 748.953125 333.207031 C 750.367188 330.734375 753.863281 331.902344 765.167969 330.84375 C 769.3125 330.453125 771.710938 330.03125 773.707031 329.945312 C 773.035156 324.273438 772.4375 315.769531 773.386719 305.5625 C 773.78125 301.285156 774.351562 297.707031 775.023438 294.414062 C 775.804688 295.382812 776.585938 296.355469 777.367188 297.328125 C 777.867188 297.953125 778.597656 298.34375 779.390625 298.414062 C 779.480469 298.425781 779.570312 298.429688 779.664062 298.429688 C 783.050781 298.433594 788.707031 297.925781 794.804688 294.875 C 800.058594 292.242188 803.632812 288.726562 805.871094 285.96875 C 806.347656 285.386719 806.761719 284.835938 807.117188 284.335938 C 807.730469 283.484375 807.835938 282.371094 807.40625 281.414062 Z M 676.414062 300.894531 C 676.414062 300.894531 676.417969 300.894531 676.414062 300.894531 Z M 766.941406 400.164062 L 766.945312 400.164062 C 766.941406 400.167969 766.941406 400.164062 766.941406 400.164062 Z M 766.941406 400.164062 " fill-opacity="1" fill-rule="nonzero"/><path fill="#f9f9f8" d="M 781.351562 384.785156 C 781.136719 384.976562 780.917969 385.136719 780.695312 385.273438 C 780.222656 385.5625 779.738281 385.726562 779.246094 385.726562 C 778.007812 385.726562 777.046875 384.980469 777.046875 384.980469 C 776.503906 384.558594 776.160156 384.023438 775.949219 383.523438 C 774.242188 383.480469 772.429688 382.183594 771.476562 380.578125 C 770.917969 379.640625 770.714844 378.703125 770.652344 377.964844 C 770.335938 378.0625 770.027344 378.097656 769.714844 378.085938 C 769.6875 378.085938 769.660156 378.082031 769.628906 378.078125 C 769.550781 378.074219 769.472656 378.066406 769.394531 378.050781 C 769.027344 378 768.664062 377.886719 768.320312 377.71875 C 766.566406 376.867188 765.167969 374.691406 764.730469 372.65625 C 764.351562 370.910156 764.703125 369.355469 765.160156 368.21875 C 762.855469 367.871094 760.441406 365.175781 759.6875 362.242188 C 759.609375 361.953125 759.550781 361.660156 759.511719 361.367188 C 759.472656 361.070312 759.449219 360.773438 759.445312 360.480469 L 759.445312 360.445312 C 759.441406 358.070312 760.785156 357.105469 765.167969 349.917969 C 765.921875 348.683594 766.511719 347.675781 766.976562 346.847656 C 767.003906 346.796875 767.03125 346.746094 767.058594 346.695312 C 767.082031 346.648438 767.109375 346.601562 767.136719 346.554688 C 767.289062 346.273438 767.429688 346.011719 767.550781 345.773438 C 768.539062 343.832031 768.542969 343.203125 768.246094 342.726562 C 767.753906 341.917969 766.640625 341.9375 764.011719 341.96875 C 763.769531 341.972656 763.507812 341.976562 763.234375 341.980469 C 762.011719 341.992188 760.5 341.992188 758.640625 341.921875 C 756.441406 341.839844 754.886719 341.695312 753.769531 341.519531 C 752.160156 341.265625 751.445312 340.941406 750.980469 340.597656 C 750.898438 340.535156 750.824219 340.476562 750.757812 340.417969 C 750.421875 340.417969 750.085938 340.414062 749.75 340.414062 C 746.917969 338.863281 744.089844 337.320312 741.261719 335.773438 L 741.261719 335.769531 C 735.835938 337.113281 730.90625 339.722656 726.808594 343.265625 C 725.683594 345.914062 724.5625 348.558594 723.4375 351.207031 L 723.4375 351.210938 C 721.097656 354.117188 718.765625 357.023438 716.429688 359.929688 C 716.535156 359.914062 716.636719 359.894531 716.742188 359.878906 C 716.941406 359.84375 717.144531 359.808594 717.347656 359.769531 C 718.261719 359.601562 719.214844 359.398438 720.199219 359.132812 C 724.542969 357.96875 727.601562 356.703125 729.957031 355.71875 C 730.394531 355.535156 730.804688 355.363281 731.195312 355.203125 C 731.894531 354.914062 732.53125 354.664062 733.125 354.46875 C 733.179688 354.449219 733.238281 354.433594 733.292969 354.414062 C 733.617188 354.3125 733.925781 354.222656 734.230469 354.15625 C 737.449219 352.691406 740.664062 351.222656 743.882812 349.753906 C 746.777344 353.378906 749.671875 357 752.5625 360.628906 C 749.898438 364.296875 747.234375 367.964844 744.574219 371.628906 L 731.492188 369.035156 C 731.492188 368.996094 731.492188 368.960938 731.488281 368.921875 C 731.484375 368.925781 731.480469 368.929688 731.476562 368.929688 C 726.730469 371.25 723.589844 372.878906 723.648438 374.6875 C 723.671875 375.429688 724.234375 376.136719 725.144531 376.800781 C 725.375 376.96875 725.628906 377.136719 725.902344 377.300781 C 729.820312 379.632812 737.714844 381.355469 740.445312 381.949219 C 743.453125 382.601562 745.875 382.953125 747.847656 383.261719 C 748.363281 383.34375 748.847656 383.421875 749.300781 383.5 C 749.789062 383.582031 750.238281 383.667969 750.664062 383.765625 C 751.160156 383.875 751.617188 383.992188 752.035156 384.132812 C 752.328125 384.230469 752.605469 384.339844 752.863281 384.460938 C 756.707031 384.714844 760.550781 384.972656 764.394531 385.222656 C 764.492188 389.042969 764.589844 392.863281 764.6875 396.683594 C 760.535156 398.355469 756.382812 400.03125 752.234375 401.707031 C 752.167969 401.800781 752.101562 401.886719 752.03125 401.976562 C 752 402.015625 751.964844 402.054688 751.929688 402.09375 C 751.925781 402.097656 751.921875 402.105469 751.917969 402.109375 C 751.882812 402.148438 751.84375 402.191406 751.804688 402.230469 C 751.800781 402.234375 751.796875 402.238281 751.792969 402.242188 C 751.402344 402.652344 750.953125 402.972656 750.464844 403.214844 C 750.320312 403.289062 750.175781 403.351562 750.019531 403.410156 C 749.667969 403.550781 749.296875 403.652344 748.90625 403.726562 C 748.785156 403.945312 748.648438 404.171875 748.492188 404.398438 C 748.441406 404.476562 748.382812 404.554688 748.324219 404.628906 C 748.289062 404.675781 748.253906 404.722656 748.21875 404.769531 C 748.664062 404.789062 749.113281 404.800781 749.566406 404.800781 C 749.613281 404.800781 749.660156 404.800781 749.710938 404.800781 C 757.9375 404.800781 765.5 401.96875 771.480469 397.21875 C 775.660156 393.894531 779.066406 389.640625 781.378906 384.761719 C 781.371094 384.769531 781.359375 384.78125 781.351562 384.785156 Z M 781.351562 384.785156 " fill-opacity="1" fill-rule="nonzero"/><path fill="#231f20" d="M 737.976562 181.796875 C 736.894531 181.84375 736.074219 183.171875 736.140625 184.761719 C 736.210938 186.351562 737.140625 187.605469 738.222656 187.558594 C 739.300781 187.511719 740.121094 186.1875 740.054688 184.59375 C 739.984375 183.003906 739.054688 181.75 737.976562 181.796875 Z M 737.976562 181.796875 " fill-opacity="1" fill-rule="nonzero"/><path fill="#231f20" d="M 718.363281 181.792969 C 717.285156 181.839844 716.464844 183.167969 716.53125 184.757812 C 716.601562 186.351562 717.53125 187.601562 718.613281 187.554688 C 719.691406 187.507812 720.511719 186.183594 720.441406 184.59375 C 720.375 183 719.445312 181.746094 718.363281 181.792969 Z M 718.363281 181.792969 " fill-opacity="1" fill-rule="nonzero"/><path fill="#231f20" d="M 720.089844 177.957031 C 722.25 178.382812 724.203125 179.3125 726.042969 180.570312 C 724.230469 178.265625 721.292969 176.785156 718.347656 176.695312 C 715.382812 176.605469 712.347656 177.976562 710.570312 180.339844 C 713.382812 178.328125 716.675781 177.320312 720.089844 177.957031 Z M 720.089844 177.957031 " fill-opacity="1" fill-rule="nonzero"/><path fill="#231f20" d="M 745.65625 180.664062 C 743.960938 178.242188 740.96875 176.765625 738.003906 176.761719 C 735.054688 176.75 732.074219 178.132812 730.183594 180.378906 C 732.066406 179.179688 734.046875 178.316406 736.222656 177.964844 C 739.65625 177.441406 742.910156 178.554688 745.65625 180.664062 Z M 745.65625 180.664062 " fill-opacity="1" fill-rule="nonzero"/><path fill="#231f20" d="M 731.734375 195.421875 C 731.539062 194.28125 730.949219 193.316406 730.640625 192.21875 C 729.734375 189.4375 729.449219 186.523438 729.128906 183.601562 C 728.589844 186.5625 728.699219 189.660156 729.617188 192.550781 C 729.789062 193.09375 730 193.632812 730.238281 194.152344 C 730.890625 195.515625 731.492188 197.074219 729.675781 197.835938 C 729.035156 198.121094 728.300781 198.253906 727.566406 198.375 C 729.683594 198.746094 732.183594 198.085938 731.734375 195.421875 Z M 731.734375 195.421875 " fill-opacity="1" fill-rule="nonzero"/><path fill="#231f20" d="M 721.476562 205.511719 C 725.519531 208.121094 731.199219 208.121094 735.222656 205.46875 C 730.390625 206.660156 726.320312 206.664062 721.476562 205.511719 Z M 721.476562 205.511719 " fill-opacity="1" fill-rule="nonzero"/><path fill="#231f20" d="M 702.3125 195.652344 C 701.660156 195.035156 700.839844 194.210938 701.175781 193.269531 C 701.277344 193.007812 701.503906 192.742188 701.734375 192.402344 C 702.234375 191.726562 702.300781 190.757812 702.054688 189.972656 C 701.238281 187.207031 698.503906 188.503906 697.8125 190.59375 C 698.332031 189.675781 699.210938 188.792969 700.292969 188.808594 C 701.339844 188.890625 701.613281 190.257812 701.484375 191.109375 C 701.367188 191.878906 700.773438 192.191406 700.40625 192.929688 C 700 193.761719 700.3125 194.789062 700.84375 195.464844 C 701.085938 195.796875 701.359375 196.082031 701.625 196.355469 C 701.777344 196.507812 702.0625 196.777344 702.234375 196.988281 C 701.941406 197.023438 701.617188 196.976562 701.300781 196.902344 C 698.710938 196.230469 697.636719 192.507812 697.296875 190.148438 C 697.226562 189.445312 697.21875 188.726562 697.28125 188.015625 C 697.394531 187.128906 697.441406 186.21875 697.796875 185.429688 C 698.546875 183.824219 701.390625 187.457031 701.902344 188.183594 C 700.398438 185.269531 697.324219 181.882812 696.546875 187.351562 C 696.035156 189.828125 696.5 192.421875 697.554688 194.699219 C 698.238281 196.140625 699.394531 197.5625 701.054688 197.933594 C 701.71875 198.058594 702.605469 198.214844 703.179688 197.664062 C 703.492188 197.34375 703.402344 196.8125 703.15625 196.515625 C 702.914062 196.191406 702.585938 195.914062 702.3125 195.652344 Z M 702.3125 195.652344 " fill-opacity="1" fill-rule="nonzero"/><path fill="#231f20" d="M 721.84375 641.460938 C 722.117188 641.335938 722.398438 641.21875 722.683594 641.109375 C 723.554688 640.769531 724.464844 640.507812 725.429688 640.265625 C 723.839844 639.953125 722.179688 640.203125 720.695312 640.863281 C 719.203125 640.214844 717.546875 639.980469 715.960938 640.300781 C 717.257812 640.589844 718.445312 640.976562 719.546875 641.476562 C 717.863281 642.539062 716.527344 644.15625 715.984375 646.058594 C 717.339844 644.449219 718.894531 643.066406 720.691406 642.046875 C 722.453125 643.019531 724 644.320312 725.449219 646.023438 C 724.894531 644.117188 723.542969 642.507812 721.84375 641.460938 Z M 721.84375 641.460938 " fill-opacity="1" fill-rule="nonzero"/><path fill="#231f20" d="M 721.84375 647.734375 C 722.117188 647.609375 722.398438 647.492188 722.683594 647.382812 C 723.554688 647.042969 724.464844 646.78125 725.429688 646.539062 C 723.839844 646.226562 722.179688 646.476562 720.695312 647.132812 C 719.203125 646.488281 717.546875 646.253906 715.960938 646.574219 C 717.257812 646.863281 718.445312 647.25 719.546875 647.746094 C 717.863281 648.808594 716.527344 650.429688 715.984375 652.332031 C 717.339844 650.722656 718.894531 649.339844 720.691406 648.320312 C 722.453125 649.292969 724 650.59375 725.449219 652.296875 C 724.890625 650.390625 723.542969 648.78125 721.84375 647.734375 Z M 721.84375 647.734375 " fill-opacity="1" fill-rule="nonzero"/><g clip-path="url(#45985dbb10)"><path fill="#231f20" d="M 809.933594 298.820312 C 808.957031 294.457031 807.644531 290.171875 805.910156 286.066406 C 806.226562 285.691406 806.53125 285.3125 806.828125 284.921875 C 806.828125 284.921875 807.082031 284.601562 807.082031 284.601562 C 807.960938 283.625 808.046875 282.144531 807.441406 281.003906 C 807.441406 281.003906 806.148438 278.007812 806.148438 278.007812 C 803.125 271.09375 799.914062 264.046875 796.632812 257.242188 C 794.269531 252.367188 791.835938 247.417969 789.160156 242.707031 C 787.808594 240.296875 786.125 238.085938 784.214844 236.097656 C 775.699219 227.164062 756.011719 222.117188 743.921875 219.726562 C 743.207031 219.316406 742.398438 219.023438 741.53125 218.847656 C 741.394531 216.953125 741.351562 215.042969 741.40625 213.144531 C 742.0625 212.304688 742.660156 211.417969 743.1875 210.492188 C 744.8125 207.351562 745.324219 203.875 745.746094 200.425781 C 746.871094 199.953125 747.890625 199.160156 748.585938 198.144531 C 749.878906 196.246094 749.71875 191.914062 749.699219 189.601562 C 749.636719 187.226562 749.207031 184.054688 746.589844 183.265625 C 746.589844 179.550781 746.484375 175.84375 746.292969 172.179688 C 747.027344 172.027344 747.734375 171.722656 748.351562 171.316406 C 752.042969 168.855469 753.796875 163.703125 754.261719 159.480469 C 754.472656 157.207031 754.472656 153.71875 752.589844 152.097656 C 752.535156 152.046875 752.476562 152 752.414062 151.957031 C 752.414062 151.953125 752.410156 151.949219 752.40625 151.949219 C 751.6875 151.351562 750.6875 151.417969 749.820312 151.554688 C 748.933594 151.691406 748.0625 151.847656 747.179688 151.914062 C 746.300781 151.984375 745.410156 152 744.53125 151.9375 C 739.855469 151.714844 736.433594 148.824219 732.332031 146.96875 C 730.691406 146.21875 728.9375 145.636719 727.167969 145.269531 C 719.289062 143.644531 710.28125 145.097656 703.886719 150.179688 C 701.742188 151.90625 700.09375 154.230469 698.972656 156.714844 C 697.285156 160.308594 696.855469 163.417969 697.175781 167.335938 C 697.5625 172.527344 698.144531 177.695312 698.878906 182.847656 C 697.542969 182.449219 696.199219 182.738281 695.539062 184.460938 C 694.796875 186.570312 695.0625 188.8125 695.226562 190.972656 C 695.371094 192.394531 695.449219 193.859375 695.878906 195.242188 C 696.527344 197.378906 698.117188 199.128906 699.980469 200.292969 C 701.371094 201.160156 703.039062 201.644531 704.117188 201 C 704.765625 207.113281 704.96875 213.300781 704.8125 219.445312 C 704.320312 219.734375 703.847656 220.078125 703.414062 220.457031 C 692.28125 223.859375 681.488281 229.027344 672.371094 236.371094 C 667.914062 240.1875 663.671875 244.1875 659.085938 247.84375 C 658.257812 248.527344 657.148438 249.382812 656.375 250.128906 C 653.75 252.550781 651.621094 255.46875 649.871094 258.570312 C 648.15625 261.671875 646.9375 265.015625 645.652344 268.296875 C 642.339844 277.070312 639.371094 285.964844 636.574219 294.910156 L 635.535156 298.269531 C 635.394531 298.769531 635.097656 299.511719 635.113281 300.035156 C 635.101562 300.648438 635.292969 301.257812 635.640625 301.757812 C 635.640625 301.757812 635.640625 301.765625 635.640625 301.765625 C 635.683594 301.824219 635.730469 301.882812 635.777344 301.941406 C 632.878906 312.109375 630.363281 322.46875 629.480469 333.042969 C 629.371094 334.832031 629.332031 336.632812 629.507812 338.445312 C 629.832031 342.171875 631.4375 345.597656 634.25 348.105469 C 638.167969 351.78125 642.492188 355.023438 647.1875 357.625 C 651.828125 360.226562 656.785156 362.398438 661.664062 364.496094 C 661.664062 364.496094 666.089844 366.382812 666.398438 366.515625 C 666.398438 366.515625 666.398438 366.523438 666.398438 366.523438 C 666.398438 366.523438 666.566406 366.589844 666.566406 366.589844 C 666.601562 366.601562 666.636719 366.617188 666.671875 366.628906 C 666.621094 370.101562 666.488281 373.574219 666.265625 377.035156 C 665.890625 382.824219 665.238281 388.59375 664.355469 394.324219 C 664.136719 395.683594 663.730469 397.925781 663.523438 399.285156 C 663.230469 401.042969 664.476562 402.859375 666.226562 403.222656 C 666.3125 403.242188 666.488281 403.277344 666.574219 403.289062 L 667.238281 403.402344 L 668.558594 403.625 C 668.578125 403.628906 668.597656 403.632812 668.617188 403.632812 C 667.738281 421.609375 668.027344 439.632812 669.449219 457.574219 C 670.15625 466.554688 671.175781 475.703125 672.445312 484.613281 C 672.664062 486.148438 673.089844 488.996094 673.328125 490.5 C 673.445312 491.488281 674.054688 492.441406 674.945312 492.914062 C 675.527344 493.246094 676.234375 493.371094 676.894531 493.289062 C 679.488281 493.011719 682.226562 492.71875 685.050781 492.417969 C 688.964844 506.355469 690.90625 520.828125 690.503906 535.300781 C 690.441406 538.234375 690.183594 541.152344 690.054688 544.089844 C 689.90625 547.035156 689.953125 549.996094 690.148438 552.9375 C 690.347656 555.75 690.664062 558.554688 691.132812 561.328125 C 690.273438 561.675781 689.636719 562.5625 689.664062 563.519531 C 689.664062 563.671875 689.691406 563.863281 689.722656 564.007812 C 689.722656 564.007812 689.804688 564.417969 689.804688 564.417969 C 690.644531 568.519531 691.601562 572.625 692.695312 576.664062 C 694.109375 582.070312 695.78125 587.425781 697.636719 592.699219 C 702.273438 605.292969 707.625 617.566406 709.875 630.84375 C 710.660156 634.910156 711.222656 639.050781 711.648438 643.179688 C 711.535156 643.4375 711.425781 643.683594 711.328125 643.914062 L 711.25 644.109375 C 710.617188 645.585938 710.488281 646.449219 710.363281 647.285156 C 710.269531 647.898438 710.171875 648.535156 709.871094 649.453125 C 708.867188 652.5 706.996094 654.441406 705.34375 656.152344 C 704.941406 656.570312 704.558594 656.964844 704.195312 657.371094 C 702.941406 658.757812 701.78125 660.359375 701.777344 662.652344 C 701.777344 663.539062 701.945312 664.21875 702.289062 664.734375 C 703.078125 665.910156 704.546875 666.230469 706.382812 666.230469 C 707.445312 666.230469 708.628906 666.125 709.878906 666.011719 C 710.339844 665.96875 710.808594 665.925781 711.285156 665.886719 C 714.71875 665.609375 718.238281 665.707031 721.644531 665.800781 C 723.769531 665.859375 725.964844 665.917969 728.125 665.886719 L 728.359375 665.882812 C 734.4375 665.800781 735.53125 665.785156 736.652344 664.648438 C 736.734375 664.5625 736.8125 664.472656 736.890625 664.371094 C 740.507812 664.535156 744.039062 663.09375 744.753906 659.128906 C 745.382812 656 744.355469 651.371094 743.027344 648.480469 C 742.226562 646.828125 741.171875 645.453125 740.359375 643.855469 C 739.566406 642.304688 738.90625 640.691406 738.414062 639.015625 C 737.40625 635.636719 737.078125 632.113281 736.738281 628.609375 C 736.398438 625.859375 736.261719 621.96875 733.640625 620.351562 C 733.59375 620.324219 733.542969 620.296875 733.492188 620.269531 C 734.542969 608.148438 738.328125 596.414062 744.785156 586.117188 C 745.828125 584.375 746.894531 582.636719 747.933594 580.878906 C 750.023438 577.375 751.96875 573.726562 753.574219 569.972656 C 757.046875 561.988281 759.1875 553.449219 760.160156 544.808594 C 760.300781 544.101562 759.746094 543.449219 759.085938 543.363281 C 760.8125 527.023438 763.363281 510.015625 765.296875 493.683594 C 765.445312 493.660156 765.597656 493.636719 765.746094 493.613281 L 767.78125 493.277344 C 768.511719 493.136719 769.222656 492.847656 769.839844 492.429688 C 771.089844 491.601562 771.914062 490.25 772.214844 488.796875 C 779.019531 462.429688 781.003906 434.789062 777.761719 407.742188 C 778.011719 407.71875 778.261719 407.699219 778.511719 407.675781 C 778.851562 407.648438 779.238281 407.589844 779.558594 407.460938 C 780.929688 406.988281 781.871094 405.542969 781.773438 404.109375 C 781.539062 398.929688 780.863281 393.765625 779.613281 388.730469 C 780.433594 387.4375 781.171875 386.085938 781.820312 384.695312 C 781.894531 384.625 781.96875 384.554688 782.039062 384.484375 C 782.917969 383.59375 783.605469 382.5625 784.230469 381.511719 C 785.457031 379.394531 786.417969 377.144531 787.265625 374.855469 C 788.105469 372.570312 788.84375 370.230469 789.367188 367.855469 C 791.035156 360.757812 792.09375 353.523438 792.292969 346.238281 C 792.332031 345.222656 792.234375 344.234375 792.015625 343.285156 C 793.296875 341.488281 794.34375 339.53125 795.316406 337.550781 C 795.65625 336.84375 795.988281 336.125 796.21875 335.351562 L 796.234375 335.3125 C 796.234375 335.3125 796.234375 335.308594 796.234375 335.304688 C 796.285156 335.136719 796.332031 334.964844 796.371094 334.792969 C 802.738281 329.128906 807.226562 321.429688 809.394531 313.191406 C 810.039062 310.71875 810.457031 308.175781 810.542969 305.613281 C 810.609375 303.339844 810.417969 301.042969 809.933594 298.820312 Z M 746.589844 183.347656 C 747.933594 184.167969 748.492188 185.613281 748.609375 187.167969 C 748.75 188.773438 748.660156 190.441406 748.632812 192.105469 C 748.617188 192.945312 748.605469 193.761719 748.554688 194.582031 C 748.453125 195.777344 748.4375 196.992188 747.808594 198.015625 C 747.289062 198.894531 746.585938 199.617188 745.769531 200.238281 C 745.796875 200.011719 745.824219 199.789062 745.851562 199.5625 C 746.367188 194.222656 746.589844 188.777344 746.589844 183.347656 Z M 705.082031 222.128906 C 705.386719 221.53125 705.558594 220.832031 705.535156 220.175781 C 705.554688 213.78125 705.164062 207.304688 704.128906 200.996094 C 704.714844 200.640625 705.125 199.953125 705.222656 198.808594 C 705.066406 199.554688 704.601562 200.472656 703.980469 200.71875 C 702.789062 201.226562 701.339844 200.40625 700.363281 199.722656 C 698.742188 198.523438 697.367188 196.917969 696.832031 194.964844 C 696.660156 194.324219 696.558594 193.652344 696.476562 192.96875 C 696.335938 191.597656 696.222656 190.171875 696.144531 188.792969 C 696.109375 187.378906 695.902344 184.125 697.53125 183.632812 C 698.347656 183.40625 699.429688 183.871094 700.179688 184.34375 C 701.65625 185.226562 702.558594 186.773438 703.144531 188.363281 C 703.371094 188.9375 703.519531 189.542969 703.761719 190.109375 C 703.800781 190.179688 703.84375 190.296875 703.941406 190.292969 C 703.953125 190.292969 703.960938 190.285156 703.96875 190.269531 C 703.972656 190.269531 703.972656 190.269531 703.972656 190.265625 C 703.976562 190.265625 703.976562 190.261719 703.976562 190.261719 C 703.996094 190.226562 703.996094 190.183594 704.003906 190.148438 C 704.019531 189.980469 704.007812 189.816406 704 189.648438 C 704 189.648438 703.960938 188.984375 703.960938 188.984375 C 703.878906 187.691406 703.765625 186.285156 703.785156 184.996094 C 703.777344 181.050781 704.398438 177.039062 706.132812 173.476562 C 706.699219 172.316406 707.269531 171.09375 708.089844 170.113281 C 708.632812 169.46875 709.277344 168.898438 709.980469 168.429688 C 714.910156 165.128906 722.164062 165.933594 727.730469 167.007812 C 732.046875 167.863281 736.285156 169.171875 740.390625 170.773438 C 741.644531 171.25 742.882812 171.835938 744.214844 172.152344 C 744.890625 172.324219 745.589844 172.320312 746.269531 172.183594 C 746.242188 179.445312 745.992188 186.707031 745.457031 193.945312 C 745.148438 197.625 744.804688 201.316406 744.019531 204.890625 C 743.613281 206.667969 743.109375 208.429688 742.261719 209.996094 C 741.402344 211.546875 740.222656 212.992188 738.976562 214.269531 C 737.089844 216.191406 734.777344 217.71875 732.207031 218.539062 C 731.996094 218.59375 731.441406 218.75 731.238281 218.804688 C 728.925781 219.382812 726.5 219.1875 724.152344 218.949219 C 716.933594 218.1875 709.421875 214.898438 706.660156 207.710938 C 705.992188 206 705.597656 204.175781 705.464844 202.328125 C 705.496094 205.121094 706.144531 207.933594 707.523438 210.378906 C 711.058594 216.714844 718.546875 219.460938 725.441406 220.035156 C 727.441406 220.226562 729.496094 220.296875 731.472656 219.8125 C 731.695312 219.75 732.285156 219.589844 732.515625 219.527344 C 733.402344 219.242188 734.34375 218.867188 735.167969 218.429688 C 737.578125 217.160156 739.660156 215.347656 741.347656 213.214844 C 741.214844 214.867188 741.160156 216.527344 741.1875 218.1875 C 741.191406 218.464844 741.210938 219.019531 741.21875 219.304688 C 741.210938 219.710938 741.308594 220.121094 741.53125 220.464844 C 741.667969 220.691406 741.863281 220.878906 742.054688 221.058594 C 742.402344 221.378906 742.683594 221.769531 742.917969 222.1875 C 743.589844 223.445312 743.949219 224.910156 743.90625 226.339844 C 743.613281 229.976562 740.226562 233.496094 737.453125 235.628906 C 736.519531 236.355469 735.433594 237.078125 734.40625 237.664062 C 734.058594 237.878906 733.484375 238.167969 733.121094 238.367188 C 732.746094 238.542969 732.171875 238.832031 731.792969 238.988281 C 728.464844 240.445312 724.796875 241.257812 721.164062 240.972656 C 716.332031 240.574219 711.742188 238.203125 708.316406 234.8125 C 705.625 232.144531 703.609375 228.382812 704.332031 224.519531 C 704.480469 223.699219 704.742188 222.890625 705.082031 222.128906 Z M 704.128906 219.984375 C 704.339844 219.800781 704.574219 219.632812 704.8125 219.476562 C 704.804688 219.707031 704.800781 219.9375 704.792969 220.171875 C 704.796875 220.761719 704.640625 221.292969 704.371094 221.800781 C 703.988281 222.617188 703.691406 223.476562 703.511719 224.363281 C 702.625 228.496094 704.75 232.648438 707.589844 235.527344 C 711.171875 239.121094 715.984375 241.632812 721.082031 242.03125 C 723.359375 242.203125 725.683594 241.960938 727.902344 241.40625 C 733.507812 239.933594 738.746094 236.660156 742.234375 232 C 743.421875 230.34375 744.441406 228.457031 744.523438 226.367188 C 744.542969 225.335938 744.316406 224.308594 743.984375 223.339844 C 743.628906 222.375 743.121094 221.4375 742.335938 220.75 C 742.164062 220.601562 741.984375 220.441406 741.855469 220.25 C 741.660156 219.972656 741.570312 219.628906 741.566406 219.292969 L 741.535156 218.917969 C 741.535156 218.898438 741.535156 218.878906 741.53125 218.859375 C 747.652344 220.535156 747.785156 226.640625 745.757812 231.9375 C 742.070312 241.148438 729.445312 245.65625 720.152344 244.574219 C 714.460938 243.890625 708.304688 241.519531 704.402344 237.199219 C 702.703125 235.316406 701.609375 232.964844 701.175781 230.46875 C 700.449219 226.75 700.984375 222.46875 704.128906 219.984375 Z M 665.167969 393.089844 C 666.105469 385.996094 666.597656 378.84375 666.699219 371.691406 C 666.714844 370.003906 666.707031 368.320312 666.679688 366.632812 C 670.402344 368.125 674.769531 369.878906 678.554688 371.359375 C 678.800781 372.558594 679.234375 373.617188 680.316406 374.441406 C 680.847656 374.890625 681.738281 375.191406 682.351562 375.503906 C 682.351562 375.503906 684.355469 376.414062 684.355469 376.414062 C 689.617188 378.84375 694.933594 381.136719 700.320312 383.261719 C 700.394531 383.878906 700.550781 384.484375 700.816406 385.046875 C 701.539062 386.589844 702.921875 387.695312 704.078125 388.894531 C 708.703125 393.222656 714.0625 396.6875 719.648438 399.640625 C 720.960938 400.328125 722.300781 400.976562 723.660156 401.585938 C 704.011719 399.910156 684.453125 397.566406 664.972656 394.511719 C 665.046875 393.980469 665.121094 393.441406 665.167969 393.089844 Z M 705.800781 364.890625 C 706.304688 363.6875 707.058594 362.667969 708.253906 362.078125 C 710.710938 360.890625 713.558594 360.773438 716.1875 359.96875 C 717.492188 359.808594 718.789062 359.621094 720.066406 359.324219 C 722.625 358.730469 725.144531 357.972656 727.605469 357.058594 C 728.839844 356.605469 730.054688 356.101562 731.265625 355.628906 C 732.445312 355.171875 733.65625 354.691406 734.898438 354.511719 C 738.507812 353.988281 741.867188 357.914062 742.222656 361.25 C 742.433594 363.5 741.289062 364.242188 739.371094 365.003906 C 737.554688 365.734375 735.695312 366.410156 733.925781 367.269531 C 731.605469 368.34375 729.125 369.589844 726.917969 370.878906 C 725.777344 371.589844 724.597656 372.28125 723.800781 373.421875 C 722.082031 376.167969 726.703125 377.902344 728.652344 378.621094 C 732.445312 380.292969 736.523438 381.367188 740.546875 382.332031 C 743.238281 382.972656 745.988281 383.421875 748.710938 383.878906 C 750.605469 384.242188 752.714844 384.511719 754.09375 385.964844 C 755.878906 388.019531 756.027344 391.269531 754.953125 393.691406 C 754.628906 394.378906 754.144531 395.046875 753.53125 395.492188 C 752.757812 396.035156 751.84375 396.078125 750.878906 396.035156 C 749.558594 395.957031 748.207031 395.683594 746.875 395.386719 C 740.160156 393.804688 733.550781 391.824219 726.949219 389.796875 C 733.378906 392.347656 739.953125 394.570312 746.660156 396.300781 C 748.011719 396.628906 749.378906 396.9375 750.816406 397.050781 C 751.59375 397.113281 752.488281 397.074219 753.277344 396.789062 C 753.265625 401.78125 750.714844 404.011719 745.511719 403.261719 C 741.257812 402.628906 736.992188 401.554688 733.039062 399.808594 C 730.382812 398.652344 727.855469 397.214844 725.382812 395.640625 C 729.792969 399.53125 735.265625 402.292969 741.03125 403.507812 C 743.1875 403.957031 745.417969 404.457031 747.664062 404.332031 C 747.976562 404.316406 748.277344 404.289062 748.5625 404.242188 C 747.546875 405.671875 746.050781 406.769531 744.238281 406.800781 C 742.613281 406.878906 740.984375 406.574219 739.40625 406.214844 C 737.945312 405.867188 736.113281 405.308594 734.679688 404.832031 C 731.277344 403.671875 727.878906 402.273438 724.570312 400.851562 C 718.910156 398.257812 713.441406 395.117188 708.417969 391.429688 C 706.316406 389.871094 704.28125 388.171875 702.421875 386.335938 C 701.519531 385.425781 700.875 384.285156 700.707031 383.007812 C 700.617188 382.375 700.628906 381.722656 700.671875 381.066406 C 700.785156 379.757812 700.929688 378.441406 701.25 377.152344 C 700.824219 378.414062 700.570312 379.722656 700.378906 381.035156 C 700.269531 381.757812 700.234375 382.507812 700.320312 383.242188 C 695.738281 381.027344 689.277344 377.914062 684.71875 375.65625 L 682.742188 374.691406 C 682.207031 374.417969 681.359375 374.085938 680.898438 373.699219 C 679.730469 372.800781 679.550781 371.46875 679.378906 370.105469 C 678.824219 365.859375 679.847656 361.441406 682.28125 357.914062 C 683.492188 356.152344 685.03125 354.621094 686.777344 353.378906 C 687.347656 352.96875 687.875 352.621094 688.554688 352.480469 C 689.550781 352.253906 690.523438 352.476562 691.40625 353.003906 C 696.726562 355.835938 702.066406 358.644531 707.453125 361.355469 C 706.667969 361.785156 705.984375 362.367188 705.503906 363.148438 C 704.722656 364.433594 704.324219 365.738281 703.859375 367.109375 C 703.128906 369.332031 702.609375 371.644531 702.445312 373.976562 C 703.425781 370.875 704.503906 367.859375 705.800781 364.890625 Z M 766.488281 346.285156 C 766.613281 346.425781 766.734375 346.566406 766.855469 346.707031 C 766.316406 347.785156 765.742188 348.847656 765.171875 349.910156 C 764.152344 351.351562 763.144531 352.8125 762.121094 354.246094 C 761.121094 355.730469 759.9375 357.117188 759.28125 358.8125 C 759.101562 359.34375 759.015625 359.890625 758.996094 360.445312 C 756.851562 360.445312 754.707031 360.492188 752.5625 360.628906 C 754.710938 360.933594 756.867188 361.15625 759.03125 361.328125 C 759.230469 363.269531 760.238281 365.195312 761.484375 366.585938 C 762.375 367.546875 763.589844 368.484375 764.921875 368.722656 C 763.808594 371.34375 764.46875 374.542969 766.347656 376.703125 C 766.816406 377.257812 767.402344 377.761719 768.070312 378.113281 C 767.886719 378.402344 767.707031 378.6875 767.539062 378.960938 C 766.433594 380.800781 765.082031 383.113281 764.238281 385.1875 C 761.980469 384.609375 759.6875 384.355469 757.375 384.1875 C 755.992188 384.105469 754.609375 384.054688 753.230469 384.085938 C 752.367188 383.660156 751.40625 383.402344 750.410156 383.207031 C 748.632812 379.269531 746.753906 375.367188 744.574219 371.628906 C 745.847656 375.5 747.414062 379.261719 749.070312 382.980469 C 749 382.96875 748.933594 382.957031 748.863281 382.945312 C 746.125 382.535156 743.402344 382.183594 740.695312 381.640625 C 736.640625 380.84375 732.558594 379.960938 728.640625 378.613281 C 728.027344 378.324219 726.949219 377.828125 725.972656 377.203125 C 727.304688 375.3125 728.621094 373.40625 729.90625 371.480469 C 730.324219 370.84375 730.742188 370.203125 731.15625 369.558594 C 731.414062 369.4375 731.667969 369.320312 731.917969 369.203125 C 732.820312 369.558594 733.738281 369.863281 734.664062 370.121094 C 735.738281 370.421875 736.824219 370.667969 737.921875 370.890625 C 740.117188 371.316406 742.320312 371.644531 744.574219 371.628906 C 745.414062 370.851562 746.191406 370.019531 746.929688 369.152344 C 747.660156 368.285156 748.355469 367.382812 749.03125 366.464844 C 750.359375 364.609375 751.609375 362.714844 752.5625 360.628906 C 752.023438 359.585938 751.410156 358.597656 750.753906 357.636719 C 750.09375 356.679688 749.390625 355.75 748.667969 354.835938 C 747.320312 353.164062 745.914062 351.554688 744.300781 350.125 C 746.257812 347.082031 748.304688 343.769531 750.152344 340.664062 L 750.179688 340.617188 C 751.191406 341.574219 752.410156 341.890625 754.257812 342.121094 C 757.335938 342.480469 760.433594 342.488281 763.515625 342.402344 C 764.429688 343.753906 765.441406 345.03125 766.488281 346.285156 Z M 764.425781 342.375 C 764.753906 342.363281 765.082031 342.351562 765.40625 342.347656 C 766.207031 342.378906 767.582031 342.179688 768.019531 342.957031 C 768.21875 343.269531 768.09375 343.785156 767.941406 344.261719 C 767.792969 344.707031 767.605469 345.152344 767.398438 345.59375 C 767.386719 345.578125 767.375 345.5625 767.363281 345.546875 C 766.421875 344.449219 765.453125 343.382812 764.425781 342.375 Z M 764.777344 397.160156 C 765.871094 397.207031 766.964844 397.234375 768.058594 397.25 C 768.988281 397.257812 769.910156 397.261719 770.835938 397.234375 C 764.757812 401.921875 757.496094 404.40625 749.785156 404.421875 C 749.449219 404.429688 748.882812 404.410156 748.523438 404.398438 C 748.558594 404.34375 748.59375 404.289062 748.628906 404.234375 C 750.335938 403.957031 751.578125 403.164062 752.378906 402.035156 C 754.226562 401.410156 756.058594 400.738281 757.878906 400.03125 C 760.203125 399.128906 762.503906 398.175781 764.777344 397.160156 Z M 725.234375 376.683594 C 724.132812 375.824219 723.425781 374.789062 724.234375 373.71875 C 724.992188 372.734375 726.179688 372.09375 727.265625 371.488281 C 728.425781 370.863281 729.710938 370.242188 730.964844 369.648438 C 730.507812 370.183594 730.058594 370.71875 729.605469 371.257812 C 728.125 373.046875 726.667969 374.859375 725.234375 376.683594 Z M 743.5 349.328125 C 742.472656 349.800781 741.457031 350.300781 740.4375 350.785156 C 738.550781 351.695312 736.675781 352.621094 734.816406 353.582031 C 733.527344 353.761719 732.246094 354.28125 730.945312 354.851562 C 730.875 354.882812 730.804688 354.910156 730.738281 354.941406 C 728.359375 353.597656 725.945312 352.308594 723.4375 351.207031 C 725.398438 352.738281 727.457031 354.125 729.554688 355.460938 C 725.410156 357.261719 721.203125 358.890625 716.78125 359.84375 C 718 358.75 719.078125 357.527344 720.113281 356.257812 C 721.367188 354.675781 722.542969 353.042969 723.4375 351.210938 C 723.4375 351.210938 723.4375 351.210938 723.4375 351.207031 C 725.027344 349.304688 726.316406 346.375 726.730469 343.84375 C 726.839844 343.746094 726.945312 343.648438 727.054688 343.554688 L 727.066406 343.542969 C 731.175781 339.996094 736.113281 337.4375 741.351562 336.140625 C 741.46875 336.109375 741.582031 336.085938 741.699219 336.058594 C 742.90625 336.847656 744.128906 337.605469 745.359375 338.359375 C 746.261719 338.902344 747.964844 339.921875 749.078125 340.570312 C 747.210938 343.398438 745.261719 346.453125 743.5 349.328125 Z M 710.390625 630.753906 C 709.691406 626.332031 708.761719 621.945312 707.558594 617.628906 C 705.203125 608.988281 701.609375 600.761719 698.652344 592.339844 C 696.777344 587.097656 695.121094 581.769531 693.640625 576.40625 C 693.410156 575.578125 693.183594 574.75 692.960938 573.917969 C 704.195312 573.78125 715.457031 571.238281 725.636719 566.488281 C 714.945312 569.851562 704.042969 572.304688 692.945312 573.855469 C 692.058594 570.539062 691.242188 567.191406 690.488281 563.84375 C 690.238281 562.933594 690.9375 561.964844 691.875 561.886719 L 692.292969 561.832031 C 696.730469 561.273438 701.144531 560.566406 705.535156 559.71875 C 707.730469 559.300781 709.914062 558.839844 712.09375 558.339844 C 709.894531 558.726562 707.691406 559.09375 705.484375 559.4375 C 701.078125 560.113281 696.648438 560.679688 692.210938 561.132812 C 692.210938 561.132812 691.796875 561.175781 691.796875 561.175781 C 691.578125 561.1875 691.363281 561.238281 691.164062 561.316406 C 690.914062 558.523438 690.730469 555.710938 690.679688 552.914062 C 690.445312 547.019531 691.246094 541.222656 691.523438 535.335938 C 691.644531 532.386719 691.636719 529.433594 691.53125 526.484375 C 691.070312 514.902344 689.019531 503.324219 685.089844 492.414062 C 696.8125 491.15625 710.027344 489.730469 720.808594 488.601562 C 721.726562 488.511719 724.015625 488.253906 725.308594 488.117188 C 724.574219 499.792969 724.316406 511.53125 724.113281 523.222656 C 724.066406 525.589844 723.933594 527.945312 723.726562 530.300781 C 723.542969 532.683594 723.1875 535.011719 723.0625 537.410156 C 722.960938 539.757812 723.21875 542.488281 723.644531 544.570312 C 724.003906 546.398438 724.558594 548.175781 725.113281 549.945312 C 725.632812 551.59375 726.136719 553.242188 726.554688 554.921875 C 726.183594 554.824219 725.785156 554.820312 725.40625 554.9375 C 721.003906 556.199219 716.554688 557.308594 712.09375 558.339844 C 716.34375 557.59375 720.566406 556.679688 724.761719 555.664062 C 725.171875 555.589844 725.816406 555.324219 726.238281 555.4375 C 726.929688 555.550781 727.496094 556.105469 727.601562 556.796875 C 727.601562 556.796875 727.738281 557.589844 727.738281 557.589844 C 728.945312 564.460938 729.59375 571.453125 729.515625 578.429688 C 729.503906 582.667969 729.0625 587.070312 728.734375 591.304688 C 728.203125 598.84375 727.789062 606.402344 727.835938 613.964844 C 727.878906 617.199219 727.960938 620.488281 728.398438 623.695312 C 728.90625 626.917969 729.652344 630.097656 730.835938 633.136719 C 731.988281 636 733.4375 638.742188 734.113281 641.769531 C 733.550781 641.828125 733.292969 642.429688 733.042969 643.011719 C 732.8125 643.546875 732.554688 644.152344 732.136719 644.242188 C 731.597656 644.359375 731.003906 643.480469 730.253906 642.371094 C 729.285156 640.945312 727.960938 638.992188 725.753906 637.804688 C 722.644531 636.132812 718.449219 636.273438 715.554688 638.140625 C 713.5 639.46875 712.410156 641.488281 711.6875 643.09375 C 711.460938 638.96875 711.019531 634.832031 710.390625 630.753906 Z M 725.359375 489.902344 C 725.660156 490.007812 725.960938 490.113281 726.265625 490.214844 C 726.734375 500.179688 727.59375 510.117188 727.753906 520.089844 C 727.824219 525.875 727.542969 531.636719 727.121094 537.410156 C 726.832031 537.195312 726.464844 537.085938 726.109375 537.144531 C 725.59375 537.207031 725.128906 537.605469 725.007812 538.109375 C 724.824219 538.8125 724.675781 539.519531 724.535156 540.230469 C 724.34375 541.191406 724.195312 542.160156 724.085938 543.132812 C 724 542.417969 723.941406 541.699219 723.917969 540.96875 C 723.765625 538.601562 724.003906 536.300781 724.324219 533.945312 C 724.789062 530.402344 725.101562 526.824219 725.183594 523.253906 C 725.359375 512.910156 725.457031 500.496094 725.359375 489.902344 Z M 736.011719 664.019531 C 735.152344 664.894531 734.113281 664.90625 728.347656 664.988281 L 728.113281 664.992188 C 725.96875 665.019531 723.785156 664.960938 721.667969 664.902344 C 718.242188 664.808594 714.695312 664.710938 711.210938 664.992188 C 710.734375 665.03125 710.261719 665.074219 709.796875 665.117188 C 706.675781 665.402344 703.980469 665.648438 703.03125 664.238281 C 702.945312 664.105469 702.675781 663.699219 702.675781 662.652344 C 702.675781 660.773438 703.550781 659.421875 704.859375 657.972656 C 705.054688 657.753906 705.261719 657.535156 705.46875 657.316406 C 709.644531 655.808594 714.011719 655.128906 718.441406 655.238281 C 721.667969 655.3125 725.878906 655.53125 728.464844 657.628906 C 729.371094 658.375 729.972656 659.429688 730.175781 660.597656 C 730.210938 659.363281 729.683594 658.140625 728.828125 657.246094 C 726.253906 654.671875 721.917969 654.242188 718.453125 654.164062 C 714.125 654.09375 709.695312 654.902344 705.851562 656.917969 C 705.898438 656.867188 705.941406 656.824219 705.988281 656.773438 C 707.707031 654.992188 709.65625 652.976562 710.722656 649.734375 C 711.046875 648.742188 711.148438 648.070312 711.25 647.417969 C 711.371094 646.601562 711.488281 645.832031 712.074219 644.460938 L 712.1875 644.191406 C 712.898438 642.527344 713.878906 640.292969 716.039062 638.894531 C 718.675781 637.195312 722.496094 637.070312 725.328125 638.59375 C 727.339844 639.679688 728.542969 641.449219 729.511719 642.875 C 730.453125 644.261719 731.195312 645.359375 732.324219 645.121094 C 733.195312 644.933594 733.566406 644.0625 733.867188 643.363281 C 733.96875 643.132812 734.113281 642.792969 734.214844 642.679688 C 734.351562 642.785156 734.8125 643.34375 735.371094 646.285156 C 735.742188 648.246094 736.023438 650.523438 736.257812 652.507812 C 737.445312 662.558594 736.476562 663.546875 736.011719 664.019531 Z M 735.90625 628.679688 C 736.175781 634.015625 736.828125 639.554688 739.417969 644.351562 C 740.515625 646.441406 742.027344 648.285156 742.789062 650.503906 C 743.789062 653.59375 744.855469 657.511719 743.609375 660.636719 C 742.53125 663.226562 739.582031 664.179688 736.933594 664.316406 C 737.675781 663.289062 738.167969 661.011719 737.148438 652.402344 C 736.210938 644.472656 735.472656 641.789062 734.210938 641.765625 L 734.203125 641.765625 C 734.175781 641.765625 734.152344 641.769531 734.128906 641.769531 C 733.777344 639.789062 733.148438 637.863281 732.375 636.007812 C 732.328125 635.890625 732.28125 635.773438 732.230469 635.65625 C 732.890625 636.34375 733.683594 636.921875 734.382812 637.515625 C 735.152344 638.136719 735.847656 638.730469 736.726562 639.257812 C 736.300781 637.304688 734.167969 635.597656 732.167969 635.503906 C 732.0625 635.246094 731.960938 634.988281 731.859375 634.730469 C 732.566406 634.714844 733.171875 634.550781 733.824219 634.335938 C 734.519531 634.085938 735.136719 633.816406 735.75 633.324219 C 734.390625 632.769531 732.617188 633.347656 731.792969 634.558594 C 731.074219 632.6875 730.472656 630.753906 730.027344 628.804688 C 730.933594 629.425781 731.871094 629.964844 732.753906 630.605469 C 733.773438 631.3125 734.675781 632.066406 735.710938 632.8125 C 734.964844 630.421875 732.472656 628.609375 729.972656 628.5625 C 729.957031 628.492188 729.941406 628.421875 729.925781 628.355469 C 729.910156 628.289062 729.898438 628.226562 729.882812 628.160156 C 730.800781 627.960938 731.644531 627.597656 732.5 627.253906 C 733.371094 626.882812 734.1875 626.546875 735.019531 626.015625 C 733.144531 625.496094 730.851562 626.441406 729.875 628.121094 C 729.277344 625.421875 728.929688 622.679688 728.816406 619.917969 C 730.371094 619.460938 732.09375 619.785156 733.414062 620.699219 C 735.722656 622.328125 735.664062 626.101562 735.90625 628.679688 Z M 759.511719 544.457031 C 759.527344 544.5625 759.53125 544.601562 759.507812 544.726562 C 759.507812 544.726562 759.28125 546.234375 759.28125 546.234375 C 758.746094 549.804688 758 553.347656 757.058594 556.832031 C 754.808594 557.171875 752.566406 557.425781 750.320312 557.53125 C 743.0625 557.917969 735.839844 556.640625 729.011719 554.167969 C 737.40625 558.886719 747.878906 559.902344 757.035156 556.925781 C 754.933594 564.65625 751.84375 572.109375 747.792969 579.027344 C 746.535156 581.21875 745.1875 583.414062 743.90625 585.601562 C 742.894531 587.332031 741.851562 589.179688 740.945312 590.976562 C 736.316406 600.019531 733.847656 610.160156 733.480469 620.261719 C 732.066406 619.464844 730.324219 619.285156 728.816406 619.878906 C 728.800781 619.519531 728.789062 619.15625 728.785156 618.796875 C 728.550781 608.589844 729.296875 598.34375 730.050781 588.164062 C 730.320312 584.933594 730.542969 581.679688 730.53125 578.433594 C 730.539062 571.125 729.726562 563.824219 728.226562 556.671875 C 728.082031 555.816406 727.394531 555.152344 726.585938 554.929688 C 726.449219 554.132812 726.296875 553.324219 726.117188 552.53125 C 725.429688 549.535156 724.585938 546.683594 724.167969 543.746094 C 724.640625 541.925781 725.160156 540.113281 725.753906 538.328125 C 725.894531 537.910156 726.46875 537.871094 726.675781 538.25 C 726.675781 538.25 726.703125 538.285156 726.710938 538.300781 C 726.710938 538.300781 726.707031 538.296875 726.707031 538.296875 C 728.773438 541.167969 731.414062 543.65625 734.507812 545.390625 C 737.410156 547.039062 740.730469 547.980469 744.070312 547.9375 C 749.160156 548.625 754.589844 546.777344 758.488281 544.128906 C 758.863281 543.8125 759.414062 543.988281 759.511719 544.457031 Z M 761.058594 518.292969 C 759.96875 526.605469 759.140625 534.96875 759.054688 543.359375 C 758.894531 543.339844 758.730469 543.355469 758.566406 543.414062 C 758.414062 543.457031 758.277344 543.550781 758.15625 543.636719 C 757.742188 543.925781 757.324219 544.207031 756.894531 544.464844 C 754.746094 545.789062 752.390625 546.785156 749.929688 547.355469 C 748.972656 547.582031 747.90625 547.738281 746.925781 547.839844 C 746.683594 547.851562 746.015625 547.902344 745.785156 547.910156 C 745.625 547.910156 744.910156 547.894531 744.328125 547.878906 C 743.359375 547.746094 742.367188 547.628906 741.457031 547.296875 C 730.109375 543.132812 727.273438 537.535156 727.175781 537.453125 C 728.949219 527.78125 729.109375 517.863281 728.292969 508.078125 C 727.816406 502.101562 727.246094 496.132812 726.265625 490.214844 C 736.289062 493.617188 746.988281 495.066406 757.570312 494.46875 C 760.136719 494.328125 762.703125 494.074219 765.25 493.691406 C 763.480469 501.824219 762.167969 510.046875 761.058594 518.292969 Z M 770.960938 489.472656 C 770.539062 490.628906 769.613281 491.582031 768.480469 492.0625 C 767.886719 492.347656 766.257812 492.550781 765.597656 492.683594 C 762.921875 493.128906 760.222656 493.4375 757.515625 493.632812 C 746.714844 494.386719 735.757812 493.117188 725.359375 489.898438 C 725.355469 489.296875 725.347656 488.703125 725.34375 488.113281 C 725.550781 488.09375 725.734375 488.074219 725.875 488.058594 C 726.527344 488.007812 727.1875 487.777344 727.695312 487.355469 C 728.28125 486.878906 728.6875 486.1875 728.8125 485.445312 C 728.824219 485.367188 728.84375 485.273438 728.847656 485.207031 L 728.894531 484.785156 C 731.582031 460.859375 732.269531 436.683594 730.898438 412.65625 C 731.699219 436.410156 730.769531 460.222656 728.035156 483.832031 C 728.003906 484.101562 727.917969 484.839844 727.886719 485.097656 C 727.828125 485.679688 727.539062 486.226562 727.078125 486.59375 C 726.710938 486.898438 726.25 487.046875 725.773438 487.078125 C 724.757812 487.191406 721.734375 487.476562 720.703125 487.59375 C 707.3125 488.953125 690.140625 490.777344 676.78125 492.25 C 676.316406 492.308594 675.859375 492.230469 675.449219 492.003906 C 674.945312 491.734375 674.574219 491.246094 674.421875 490.699219 C 674.371094 490.488281 674.25 489.722656 674.21875 489.496094 L 673.957031 487.820312 C 671.019531 468.816406 669.265625 449.617188 668.691406 430.394531 C 668.402344 421.480469 668.410156 412.554688 668.628906 403.636719 C 691.433594 407.429688 714.546875 409.386719 737.667969 409.476562 C 740.980469 427.992188 745.972656 446.230469 752.570312 463.847656 C 747.398438 445.851562 742.40625 427.605469 737.707031 409.476562 C 739.597656 409.484375 741.484375 409.476562 743.375 409.460938 C 750.007812 426.566406 758.238281 443.078125 767.929688 458.660156 C 759.53125 442.367188 751.363281 425.980469 743.417969 409.457031 C 747.871094 409.417969 752.324219 409.304688 756.773438 409.125 C 763.773438 408.839844 770.773438 408.375 777.75 407.742188 C 779.964844 435.121094 777.878906 462.878906 770.960938 489.472656 Z M 781.367188 404.121094 C 781.425781 405.386719 780.585938 406.605469 779.394531 406.996094 C 779.089844 407.101562 778.800781 407.144531 778.472656 407.160156 C 767.675781 407.960938 756.859375 408.402344 746.035156 408.488281 C 719.488281 408.695312 692.921875 406.675781 666.703125 402.515625 C 665.277344 402.367188 664.171875 401.117188 664.214844 399.679688 C 664.285156 398.855469 664.660156 396.609375 664.785156 395.746094 C 664.835938 395.441406 664.902344 394.992188 664.96875 394.53125 C 684.28125 399.003906 704.105469 401.410156 723.925781 401.707031 C 724.914062 402.144531 725.914062 402.558594 726.914062 402.949219 C 729.925781 404.15625 733.210938 405.324219 736.34375 406.183594 C 739.070312 406.878906 743.65625 408 746.234375 406.652344 C 746.917969 406.273438 747.503906 405.746094 747.996094 405.140625 C 748.511719 405.164062 749.03125 405.179688 749.550781 405.179688 C 749.605469 405.183594 749.65625 405.183594 749.710938 405.183594 C 755.101562 405.183594 760.28125 404 765.011719 401.726562 C 767.589844 401.957031 770.171875 401.925781 772.753906 401.804688 C 775.597656 401.644531 778.433594 401.375 781.226562 400.765625 C 781.296875 401.882812 781.34375 403.003906 781.367188 404.121094 Z M 781.222656 400.71875 C 778.375 400.515625 775.539062 400.59375 772.695312 400.730469 C 770.371094 400.863281 768.058594 401.03125 765.753906 401.355469 C 767.84375 400.289062 769.835938 399.007812 771.71875 397.515625 C 774.824219 395.046875 777.484375 392.070312 779.597656 388.753906 C 780.441406 392.695312 780.976562 396.699219 781.222656 400.71875 Z M 771.246094 396.921875 C 771.15625 396.988281 771.070312 397.054688 770.984375 397.121094 C 770.027344 396.941406 769.070312 396.792969 768.109375 396.648438 C 766.996094 396.488281 765.886719 396.34375 764.773438 396.21875 C 765.09375 394.46875 765.144531 392.707031 765.109375 390.941406 C 765.050781 389.039062 764.898438 387.160156 764.414062 385.304688 C 765.882812 383.605469 767.386719 381.382812 768.515625 379.554688 C 768.714844 379.222656 768.921875 378.867188 769.132812 378.503906 C 769.683594 378.621094 770.191406 378.601562 770.667969 378.480469 C 770.882812 381.210938 773.339844 383.910156 776.132812 383.949219 C 776.765625 385.195312 778.195312 385.992188 779.601562 385.878906 C 779.925781 385.839844 780.234375 385.742188 780.523438 385.605469 C 778.28125 389.960938 775.121094 393.84375 771.246094 396.921875 Z M 808.558594 312.117188 C 806.535156 320.535156 802.296875 328.316406 796.398438 334.671875 C 796.671875 333.4375 796.6875 332.148438 796.511719 330.902344 C 795.949219 326.417969 792.925781 322.121094 788.335938 321.140625 C 785.78125 320.554688 783 320.90625 780.691406 322.160156 C 780.074219 322.511719 779.46875 322.941406 778.957031 323.453125 C 779.515625 319.722656 780.128906 316 781.03125 312.339844 C 781.609375 310.121094 782.21875 307.804688 783.59375 305.941406 C 783.59375 305.941406 783.59375 305.9375 783.59375 305.9375 C 783.878906 305.5625 784.183594 305.195312 784.503906 304.84375 C 786.128906 303.089844 788.203125 301.777344 790.316406 300.675781 C 792.914062 299.375 795.761719 298.570312 798.636719 298.191406 C 800.570312 297.929688 802.539062 297.855469 804.511719 297.90625 C 798.621094 296.96875 792.296875 297.964844 787.246094 301.242188 C 786.398438 301.773438 785.566406 302.367188 784.804688 303.046875 C 784.128906 303.644531 783.519531 304.3125 782.96875 305.027344 C 782.574219 303.929688 782.066406 302.921875 781.535156 301.886719 C 780.960938 300.816406 780.394531 299.777344 779.675781 298.792969 C 780.226562 298.828125 780.785156 298.808594 781.332031 298.808594 C 789.425781 298.679688 797.558594 295.195312 802.960938 289.125 C 796.8125 294.191406 789.246094 297.394531 781.289062 297.96875 C 780.8125 298.011719 780.289062 298.035156 779.804688 298.054688 C 778.96875 298.125 778.144531 297.8125 777.574219 297.183594 C 776.875 296.410156 776.171875 295.628906 775.457031 294.867188 C 775.988281 292.304688 776.609375 289.710938 777.230469 287.191406 C 779.78125 283.34375 781.902344 279.210938 783.707031 274.964844 C 785.679688 270.242188 787.304688 265.355469 788.277344 260.328125 C 786.480469 265.105469 784.726562 269.863281 782.71875 274.546875 C 781.089844 278.433594 779.316406 282.238281 777.515625 286.046875 C 778.019531 284.023438 778.511719 282.0625 778.945312 280.222656 C 779.105469 279.539062 779.257812 278.855469 779.40625 278.171875 C 784.167969 268.296875 786.5 257.101562 786.074219 246.167969 C 785.15625 256.375 783.0625 266.398438 779.832031 276.101562 C 781.269531 268.894531 782.09375 261.566406 782.273438 254.222656 C 782.316406 252.53125 782.335938 250.65625 782.304688 248.976562 C 782.257812 245.480469 782.078125 241.988281 781.746094 238.511719 C 781.867188 242.003906 781.902344 245.492188 781.820312 248.972656 C 781.632812 259.261719 780.207031 270.4375 777.914062 279.988281 C 776.820312 284.460938 775.625 289.082031 774.699219 293.429688 C 772.261719 305.242188 771.953125 317.5 773.636719 329.433594 C 773.582031 329.4375 773.527344 329.441406 773.472656 329.445312 C 770.65625 329.703125 767.9375 330.28125 765.167969 330.84375 C 767.042969 330.894531 768.914062 330.785156 770.769531 330.640625 C 772.628906 330.503906 774.453125 330.316406 776.207031 330.597656 C 779.828125 331.207031 783.089844 333.003906 786 335.246094 C 783.378906 332.039062 779.382812 329.675781 775.191406 329.425781 C 775.941406 328.472656 776.730469 327.464844 777.425781 326.503906 C 777.855469 325.925781 778.277344 325.332031 778.679688 324.746094 C 778.878906 324.453125 779.09375 324.222656 779.355469 323.996094 C 780.371094 323.070312 781.671875 322.484375 782.996094 322.152344 C 787.613281 321.046875 792.046875 322.859375 794.261719 327.125 C 795.515625 329.542969 796.140625 332.46875 795.484375 335.144531 C 795.414062 335.464844 795.03125 336.640625 794.746094 337.292969 C 794.453125 338.003906 794.140625 338.714844 793.835938 339.425781 C 793.285156 340.714844 792.667969 341.976562 792 343.214844 C 791.378906 340.625 789.851562 338.335938 787.6875 336.636719 C 789.40625 338.285156 790.769531 340.382812 791.332031 342.703125 C 791.894531 345.027344 791.492188 347.449219 791.285156 349.8125 C 790.773438 354.597656 790.113281 359.378906 789.09375 364.085938 C 788.183594 368.828125 786.945312 373.449219 785.117188 377.910156 C 784.199219 380.089844 783.207031 382.328125 781.65625 384.121094 C 781.082031 384.761719 780.40625 385.363281 779.546875 385.519531 C 778.25 385.703125 776.890625 385.054688 776.179688 383.949219 C 776.308594 383.953125 776.433594 383.949219 776.5625 383.9375 C 778.679688 383.652344 780.445312 380.417969 781.417969 378.722656 C 783.910156 374.054688 785.835938 369.078125 787.027344 363.929688 C 784.894531 369.078125 782.742188 374.203125 780 379.050781 C 779.273438 380.253906 777.851562 382.792969 776.421875 383.046875 C 775.238281 383.242188 774.023438 382.695312 773.078125 381.980469 C 771.929688 381.109375 771.101562 379.863281 770.753906 378.457031 C 772.171875 378.054688 773.289062 376.757812 774.289062 375.570312 C 777.941406 370.925781 780.925781 365.757812 783.066406 360.261719 C 780.167969 365.339844 777.105469 370.324219 773.457031 374.886719 C 772.523438 375.964844 771.425781 377.429688 769.964844 377.585938 C 769.679688 377.609375 769.332031 377.558594 769.046875 377.480469 L 768.929688 377.453125 L 768.816406 377.410156 C 768.109375 377.152344 767.488281 376.679688 766.972656 376.140625 C 765.097656 374.171875 764.316406 371.378906 765.003906 368.738281 C 765.441406 368.804688 765.894531 368.800781 766.347656 368.691406 C 767.40625 368.316406 768.144531 367.484375 768.890625 366.71875 C 769.792969 365.714844 770.605469 364.667969 771.410156 363.59375 C 773.746094 360.375 775.910156 357.011719 777.785156 353.511719 C 774.695312 357.773438 771.683594 362.140625 768.144531 366.019531 C 767.882812 366.28125 767.511719 366.671875 767.230469 366.902344 C 766.785156 367.277344 766.355469 367.640625 765.816406 367.714844 C 764.425781 367.769531 763.199219 366.859375 762.257812 365.875 C 760.886719 364.351562 759.886719 362.332031 759.898438 360.257812 C 759.886719 358.972656 760.554688 357.910156 761.195312 356.792969 C 762.554688 354.53125 763.953125 352.257812 765.171875 349.910156 C 766.066406 348.597656 766.945312 347.277344 767.722656 345.890625 C 768.136719 345.113281 768.609375 344.308594 768.707031 343.402344 C 768.757812 341.636719 766.683594 341.589844 765.410156 341.570312 C 763.820312 341.546875 762.242188 341.546875 760.660156 341.503906 C 758.570312 341.433594 756.460938 341.34375 754.394531 341.078125 C 752.007812 340.753906 750.890625 340.394531 749.710938 338.175781 C 748.910156 336.574219 748.449219 334.226562 749.84375 332.847656 C 750.546875 332.230469 751.609375 332.09375 752.546875 331.976562 C 753.578125 331.859375 754.632812 331.816406 755.6875 331.75 C 758.855469 331.570312 762.027344 331.316406 765.167969 330.84375 C 763.050781 330.921875 760.941406 330.996094 758.832031 331.015625 C 756.703125 331.0625 754.605469 331.003906 752.46875 331.144531 C 751.347656 331.238281 750.15625 331.355469 749.222656 332.140625 C 748.542969 332.757812 748.167969 333.550781 748.019531 334.40625 C 745.703125 334.515625 743.40625 334.847656 741.167969 335.402344 C 735.8125 336.726562 730.757812 339.347656 726.558594 342.976562 L 726.546875 342.988281 C 723.867188 345.308594 721.574219 347.980469 719.71875 350.925781 C 717.957031 353.726562 716.59375 356.769531 715.671875 359.988281 C 713.96875 360.058594 712.289062 360.125 710.59375 360.375 C 709.554688 360.519531 708.457031 360.816406 707.496094 361.332031 C 702.316406 358.230469 697.078125 355.222656 691.824219 352.242188 C 691.523438 352.066406 691.15625 351.855469 690.769531 351.726562 C 689.617188 351.3125 688.296875 351.40625 687.203125 351.960938 C 686.808594 352.183594 686.4375 352.417969 686.078125 352.667969 C 684.359375 351.363281 682.5 350.015625 680.824219 348.703125 C 677.636719 346.226562 674.5 343.675781 671.339844 341.15625 C 679.316406 334.988281 685.25 326.265625 688.507812 316.75 C 689.597656 313.511719 690.414062 310.183594 690.835938 306.808594 C 689.03125 313.765625 686.402344 320.476562 682.738281 326.652344 C 679.570312 331.957031 675.699219 336.777344 671.292969 341.121094 C 670.703125 340.652344 670.117188 340.1875 669.527344 339.722656 C 678.921875 326.902344 685.277344 311.871094 688.308594 296.289062 C 688.734375 294.035156 689.101562 291.769531 689.367188 289.496094 C 688.378906 293.960938 687.292969 298.398438 685.984375 302.773438 C 682.175781 315.757812 676.527344 328.140625 669.496094 339.695312 C 668.175781 338.65625 666.851562 337.625 665.511719 336.605469 C 666.019531 333.082031 666.199219 329.425781 666.425781 325.882812 C 666.621094 322.355469 666.796875 318.839844 666.761719 315.304688 C 667.28125 314.074219 667.757812 312.820312 668.191406 311.554688 C 668.367188 311.582031 668.542969 311.609375 668.71875 311.636719 C 669.773438 311.863281 670.964844 311.503906 671.683594 310.683594 C 672.070312 310.234375 672.351562 309.703125 672.675781 309.203125 C 674.628906 306.0625 676.257812 302.792969 677.582031 299.425781 C 679.703125 296.671875 681.578125 293.683594 683.15625 290.570312 C 688.746094 279.523438 690.90625 266.761719 689.28125 254.492188 C 689.464844 261.148438 688.980469 267.78125 687.644531 274.289062 C 685.867188 282.882812 682.527344 291.078125 677.921875 298.546875 C 682.574219 286.140625 683.054688 272.460938 679.824219 258.964844 C 678.699219 254.335938 677.105469 249.828125 675.074219 245.542969 C 677.738281 252.132812 679.558594 259.03125 680.359375 266.082031 C 681.535156 275.539062 680.90625 284.902344 678.402344 293.691406 C 678.902344 281.457031 676.214844 269.035156 670.695312 258.109375 C 674.984375 269.773438 677.503906 281.984375 678.195312 294.386719 C 676.710938 299.386719 674.617188 304.199219 671.890625 308.730469 C 671.804688 308.875 671.25 309.792969 671.167969 309.910156 C 670.65625 310.65625 669.726562 311 668.839844 310.824219 C 661.351562 309.828125 653.957031 308.238281 646.699219 306.136719 C 653.644531 308.585938 660.824219 310.378906 668.097656 311.539062 C 666.390625 314.378906 664.296875 318.34375 662.71875 321.171875 C 661.242188 323.902344 659.144531 327.65625 657.667969 330.558594 C 652.636719 325.847656 646.003906 322.453125 639.238281 321.136719 C 642.414062 322.574219 645.5625 323.96875 648.648438 325.566406 C 651.714844 327.128906 654.664062 328.855469 657.660156 330.578125 C 657.617188 330.664062 657.574219 330.75 657.527344 330.835938 C 656.796875 330.34375 656.050781 329.867188 655.28125 329.433594 C 649.953125 326.65625 643.589844 326.226562 637.773438 327.394531 C 642.453125 326.90625 647.230469 327.222656 651.664062 328.828125 C 653.3125 329.398438 654.859375 330.183594 656.289062 331.1875 C 663.546875 336.277344 670.464844 341.824219 677.605469 347.082031 C 680.3125 349.058594 683.175781 350.929688 686.035156 352.699219 C 685.480469 353.085938 684.957031 353.507812 684.429688 353.957031 C 679.808594 357.898438 677.484375 364.242188 678.371094 370.238281 C 678.421875 370.609375 678.476562 370.96875 678.546875 371.320312 C 675.878906 370.109375 672.429688 368.578125 669.871094 367.441406 C 669.871094 367.441406 667.023438 366.175781 666.871094 366.109375 C 666.828125 366.089844 666.789062 366.070312 666.789062 366.070312 C 657.1875 361.574219 647.207031 357.582031 638.964844 350.804688 C 637.601562 349.695312 636.269531 348.511719 634.980469 347.328125 C 634.023438 346.433594 633.167969 345.507812 632.503906 344.390625 C 630.378906 341.066406 630.246094 336.945312 630.433594 333.097656 C 631.183594 322.597656 633.421875 312.195312 635.785156 301.953125 C 636.089844 302.3125 636.480469 302.597656 636.917969 302.769531 L 638.300781 303.300781 C 641.0625 304.347656 643.867188 305.296875 646.699219 306.136719 C 643.910156 305.167969 641.148438 304.128906 638.417969 303.003906 L 637.058594 302.433594 C 636.65625 302.257812 636.304688 301.976562 636.050781 301.625 C 635.71875 301.167969 635.550781 300.605469 635.578125 300.050781 C 635.59375 299.765625 635.652344 299.53125 635.75 299.257812 L 636.03125 298.425781 L 637.148438 295.097656 C 639.378906 288.5 641.726562 281.757812 644.125 275.226562 C 644.929688 273.03125 645.757812 270.84375 646.605469 268.664062 C 648.308594 264.347656 649.925781 259.960938 652.636719 256.15625 C 653.9375 254.242188 655.402344 252.476562 657.097656 250.898438 C 657.847656 250.183594 658.929688 249.320312 659.75 248.652344 C 664.316406 244.996094 668.554688 240.90625 672.953125 237.066406 C 681.90625 229.644531 692.433594 224.324219 703.402344 220.464844 C 703.292969 220.5625 703.183594 220.65625 703.082031 220.753906 C 701.175781 222.613281 700.386719 225.339844 700.386719 227.949219 C 700.382812 229.707031 700.644531 231.457031 701.179688 233.136719 C 703.503906 240.011719 710.757812 243.710938 717.433594 245.199219 C 722.59375 246.324219 728.039062 245.804688 733 244.046875 C 738.699219 241.980469 744.277344 238.070312 746.417969 232.179688 C 747.269531 229.699219 747.742188 227.011719 747.222656 224.402344 C 746.792969 222.265625 745.605469 220.703125 743.957031 219.746094 C 754.363281 222.363281 764.789062 225.375 774.355469 230.292969 C 776.199219 231.277344 778.183594 232.410156 779.847656 233.660156 C 782.445312 235.550781 784.660156 237.921875 786.527344 240.527344 C 788.351562 243.199219 789.8125 246.09375 791.335938 248.953125 C 796.832031 259.558594 801.933594 270.382812 807.070312 281.171875 C 807.671875 282.191406 807.636719 283.515625 806.863281 284.445312 C 806.707031 284.664062 806.308594 285.195312 806.144531 285.425781 C 805.183594 286.742188 804.105469 287.964844 802.960938 289.125 C 804.003906 288.179688 804.992188 287.15625 805.902344 286.074219 C 807.21875 290.328125 808.296875 294.636719 809.109375 298.984375 C 809.902344 303.335938 809.605469 307.820312 808.558594 312.117188 Z M 782.753906 305.308594 C 782.75 305.3125 782.746094 305.316406 782.742188 305.324219 L 782.746094 305.316406 C 782.25 305.984375 781.839844 306.734375 781.523438 307.488281 C 780.453125 310.113281 779.964844 312.90625 779.550781 315.679688 C 779.191406 318.277344 778.953125 320.910156 778.886719 323.527344 C 778.625 323.800781 778.386719 324.097656 778.1875 324.417969 C 777.222656 326.046875 776.109375 327.785156 775.105469 329.421875 C 774.628906 329.398438 774.144531 329.398438 773.664062 329.433594 C 772.792969 319.210938 773.070312 308.878906 774.730469 298.753906 C 774.929688 297.523438 775.167969 296.269531 775.425781 295.007812 C 775.953125 295.777344 776.496094 296.539062 777.039062 297.296875 C 777.53125 298.0625 778.34375 298.613281 779.261719 298.753906 C 779.316406 298.761719 779.371094 298.765625 779.425781 298.769531 C 779.6875 301.113281 781.007812 303.691406 782.769531 305.285156 C 782.761719 305.292969 782.753906 305.300781 782.746094 305.3125 C 782.746094 305.3125 782.753906 305.308594 782.753906 305.308594 Z M 783.179688 306.152344 L 783.589844 305.941406 C 783.492188 306.0625 783.324219 306.164062 783.179688 306.152344 Z M 783.59375 305.933594 C 783.597656 305.921875 783.695312 305.632812 783.695312 305.632812 C 783.691406 305.703125 783.691406 305.71875 783.667969 305.792969 C 783.660156 305.839844 783.632812 305.886719 783.59375 305.933594 Z M 665.386719 336.511719 C 664.007812 335.464844 662.621094 334.4375 661.210938 333.433594 C 660.011719 332.59375 658.832031 331.71875 657.613281 330.894531 C 659.917969 328.023438 661.882812 324.90625 663.664062 321.6875 C 664.6875 319.820312 665.632812 317.90625 666.484375 315.953125 C 665.269531 322.726562 664.972656 329.648438 665.386719 336.511719 Z M 665.386719 336.511719 " fill-opacity="1" fill-rule="nonzero"/></g></svg>