<svg xmlns="http://www.w3.org/2000/svg" xmlns:xlink="http://www.w3.org/1999/xlink" width="1920" zoomAndPan="magnify" viewBox="0 0 1440 809.999993" height="1080" preserveAspectRatio="xMidYMid meet" version="1.0"><defs><clipPath id="7ce72bb3dd"><path d="M 615.496094 127 L 824.746094 127 L 824.746094 683 L 615.496094 683 Z M 615.496094 127 " clip-rule="nonzero"/></clipPath></defs><path fill="#cbdb2a" d="M 730.050781 656.910156 C 730.617188 657.363281 730.425781 659.277344 731.480469 659.753906 C 733.945312 660.871094 737.960938 651.71875 746.941406 648.953125 C 749.726562 648.09375 751.453125 648.324219 752.40625 648.617188 C 752.65625 648.695312 752.851562 648.773438 753 648.839844 C 755.253906 649.855469 755.917969 651.890625 757.601562 654.992188 C 760.0625 659.511719 762.121094 663.289062 765.578125 665.667969 C 770.175781 668.828125 773.832031 667.171875 776.15625 670.699219 C 776.273438 670.878906 777.96875 673.535156 777.128906 676.203125 C 775.753906 680.574219 768.640625 681.613281 765.648438 682.050781 C 757.628906 683.226562 750.527344 680.773438 745.683594 678.324219 C 744.835938 677.894531 743.898438 677.695312 742.949219 677.753906 C 739.074219 677.984375 733.378906 678.019531 728.707031 676.65625 C 728.015625 676.453125 727.148438 676.164062 726.40625 675.394531 C 724.257812 673.179688 725.207031 669.128906 726.3125 664.691406 C 726.539062 663.785156 728.34375 656.644531 729.832031 656.816406 C 729.917969 656.824219 729.988281 656.859375 730.050781 656.910156 Z M 730.050781 656.910156 " fill-opacity="1" fill-rule="nonzero"/><path fill="#cbdb2a" d="M 668.339844 659.65625 C 668.472656 664.230469 668.542969 668.386719 665.972656 670.097656 C 665.078125 670.6875 664.171875 670.789062 663.453125 670.835938 C 658.601562 671.175781 653.042969 669.929688 649.304688 668.878906 C 648.390625 668.621094 647.429688 668.617188 646.511719 668.855469 C 641.257812 670.214844 633.796875 671.101562 626.207031 668.246094 C 623.382812 667.179688 616.652344 664.648438 616.238281 660.089844 C 615.984375 657.300781 618.207031 655.066406 618.359375 654.917969 C 621.382812 651.964844 624.601562 654.359375 629.761719 652.253906 C 633.648438 650.667969 636.464844 647.410156 639.832031 643.519531 C 642.136719 640.851562 643.21875 639 645.636719 638.488281 C 646.414062 638.324219 648.335938 638.085938 651.53125 639.886719 C 659.71875 644.503906 661.695312 654.300781 664.34375 653.734375 C 665.601562 653.464844 665.734375 651.136719 666.574219 651.214844 L 666.578125 651.214844 C 668.070312 651.363281 668.3125 658.722656 668.339844 659.65625 Z M 668.339844 659.65625 " fill-opacity="1" fill-rule="nonzero"/><path fill="#bcbec0" d="M 642.46875 372.304688 C 642.816406 377.753906 643.355469 384.007812 644.191406 390.941406 C 645.480469 389.203125 647.863281 386.671875 651.640625 385.332031 C 656.703125 383.53125 661.332031 384.910156 664.117188 386.21875 C 664.085938 383.292969 664.132812 379.542969 664.40625 375.226562 C 664.5 373.773438 664.609375 372.394531 664.730469 371.078125 C 665.851562 359.15625 668.160156 352.148438 669.878906 338.875 C 670.414062 334.722656 671.03125 328.898438 671.316406 321.789062 C 671.316406 321.761719 671.320312 321.734375 671.324219 321.707031 C 671.410156 319.726562 671.804688 317.777344 672.476562 315.914062 C 672.652344 315.414062 672.851562 314.917969 673.070312 314.433594 C 674.152344 312.039062 675.195312 309.433594 676.15625 306.621094 C 676.84375 304.59375 677.429688 302.632812 677.925781 300.757812 C 673.902344 299.925781 669.625 298.882812 665.140625 297.5625 C 659.851562 296.007812 654.996094 294.277344 650.59375 292.503906 C 650.027344 294.964844 649.355469 297.929688 648.613281 301.289062 L 648.613281 301.292969 C 648.214844 303.082031 647.800781 304.976562 647.367188 306.980469 C 647.070312 308.363281 646.792969 309.660156 646.527344 310.878906 C 646.203125 312.386719 645.90625 313.777344 645.628906 315.070312 C 644.292969 321.347656 643.492188 325.316406 642.933594 328.839844 C 640.953125 341.28125 641.390625 350.496094 642.140625 366.449219 C 642.226562 368.277344 642.335938 370.230469 642.46875 372.304688 Z M 642.46875 372.304688 " fill-opacity="1" fill-rule="nonzero"/><path fill="#bcbec0" d="M 674.453125 402.382812 C 673.613281 401.070312 672.652344 399.652344 671.550781 398.15625 C 670.21875 396.34375 668.6875 394.417969 666.929688 392.425781 C 666.84375 392.328125 666.761719 392.230469 666.675781 392.136719 C 665.660156 391 664.300781 390.21875 662.800781 389.941406 C 660.097656 389.441406 655.726562 389.195312 651.140625 391.324219 C 648.3125 392.636719 646.289062 394.4375 644.929688 395.980469 C 644.636719 396.3125 644.382812 396.671875 644.164062 397.046875 C 643.558594 398.085938 643.242188 399.28125 643.246094 400.5 C 643.25 401.347656 643.242188 402.308594 643.207031 403.363281 C 642.863281 413.910156 640.570312 416.273438 640.257812 422.335938 C 640.257812 422.335938 639.683594 433.464844 653.636719 449.042969 C 654.03125 449.484375 654.917969 450.441406 656.207031 450.558594 C 656.570312 450.589844 656.910156 450.550781 657.214844 450.472656 C 658.109375 451.132812 658.851562 451.371094 659.597656 451.4375 C 660.09375 451.476562 660.566406 451.441406 661 451.355469 C 661.097656 451.40625 661.199219 451.453125 661.300781 451.492188 C 661.851562 451.726562 662.417969 451.835938 662.980469 451.78125 C 663.746094 451.710938 664.945312 451.304688 666.304688 449.433594 C 666.542969 449.472656 666.78125 449.484375 667.023438 449.472656 C 668.953125 449.351562 670.605469 447.398438 671.335938 445.703125 C 673.445312 440.8125 668.335938 436.960938 665.777344 427.207031 C 665.773438 427.191406 665.769531 427.1875 665.761719 427.171875 L 665.761719 427.167969 C 663.628906 419.003906 664.394531 410.972656 665.546875 410.769531 C 666.007812 410.683594 666.421875 411.871094 668.445312 416 C 668.488281 416.09375 668.539062 416.1875 668.585938 416.285156 C 673.027344 425.347656 674.304688 426.363281 675.554688 426.671875 C 677.664062 427.195312 680.429688 426.078125 681.757812 424.164062 C 684.660156 419.96875 680.339844 412.445312 676.394531 405.582031 C 675.835938 404.609375 675.191406 403.535156 674.453125 402.382812 Z M 674.453125 402.382812 " fill-opacity="1" fill-rule="nonzero"/><path fill="#bcbec0" d="M 823.949219 424.222656 C 823.714844 418.15625 821.453125 415.765625 821.25 405.214844 C 821.230469 404.160156 821.234375 403.199219 821.25 402.351562 C 821.273438 401.132812 820.972656 399.9375 820.378906 398.890625 C 820.167969 398.507812 819.914062 398.148438 819.625 397.808594 C 818.285156 396.25 816.285156 394.417969 813.476562 393.070312 C 808.921875 390.886719 804.546875 391.070312 801.835938 391.535156 C 800.335938 391.792969 798.964844 392.554688 797.9375 393.675781 C 797.847656 393.773438 797.761719 393.871094 797.671875 393.964844 L 797.671875 393.96875 C 793.578125 398.488281 790.671875 402.683594 788.660156 405.957031 C 788.441406 406.3125 788.234375 406.660156 788.035156 406.996094 C 787.050781 408.660156 786.042969 410.363281 785.125 412.046875 C 782.277344 417.261719 780.277344 422.304688 782.429688 425.503906 C 783.730469 427.441406 786.480469 428.589844 788.597656 428.097656 C 788.816406 428.042969 789.039062 427.96875 789.28125 427.832031 C 790.402344 427.203125 791.945312 425.226562 795.707031 417.804688 C 797.902344 413.46875 798.34375 412.234375 798.816406 412.320312 C 799.96875 412.542969 800.625 420.609375 798.371094 428.757812 C 795.679688 438.480469 790.519531 442.261719 792.5625 447.183594 C 793.273438 448.886719 794.898438 450.859375 796.828125 451.003906 C 797.070312 451.023438 797.308594 451.015625 797.546875 450.972656 C 798.882812 452.867188 800.078125 453.285156 800.839844 453.367188 C 801.507812 453.441406 802.171875 453.292969 802.828125 452.96875 C 803.257812 453.0625 803.730469 453.105469 804.230469 453.066406 C 804.976562 453.015625 805.71875 452.785156 806.621094 452.136719 C 806.925781 452.214844 807.265625 452.261719 807.628906 452.234375 C 808.921875 452.132812 809.816406 451.1875 810.21875 450.75 C 824.375 435.359375 823.949219 424.222656 823.949219 424.222656 Z M 823.949219 424.222656 " fill-opacity="1" fill-rule="nonzero"/><path fill="#bcbec0" d="M 792.5625 315.898438 C 792.777344 316.386719 792.96875 316.882812 793.140625 317.382812 L 793.140625 317.386719 C 793.785156 319.257812 794.15625 321.214844 794.21875 323.199219 C 794.21875 323.226562 794.222656 323.253906 794.222656 323.28125 C 794.414062 330.394531 794.953125 336.214844 795.4375 340.378906 C 796.972656 353.675781 799.191406 360.714844 800.152344 372.648438 C 800.261719 373.96875 800.355469 375.347656 800.425781 376.800781 C 800.644531 381.121094 800.640625 384.871094 800.570312 387.792969 C 803.375 386.527344 808.019531 385.210938 813.058594 387.074219 C 816.816406 388.464844 819.167969 391.03125 820.433594 392.789062 C 821.355469 385.863281 821.976562 379.613281 822.398438 374.167969 C 822.5625 372.097656 822.695312 370.144531 822.804688 368.316406 C 823.769531 352.378906 824.320312 343.167969 822.511719 330.703125 C 821.992188 327.171875 821.25 323.195312 819.992188 316.898438 C 819.734375 315.601562 819.453125 314.207031 819.148438 312.699219 C 818.90625 311.46875 818.640625 310.171875 818.363281 308.785156 C 817.957031 306.777344 817.570312 304.871094 817.195312 303.082031 L 817.195312 303.078125 C 816.496094 299.703125 815.863281 296.738281 815.324219 294.269531 C 810.902344 295.984375 806.027344 297.648438 800.714844 299.136719 C 796.214844 300.398438 791.921875 301.386719 787.890625 302.160156 C 788.363281 304.039062 788.921875 306.007812 789.585938 308.042969 C 790.503906 310.875 791.515625 313.492188 792.566406 315.898438 Z M 792.5625 315.898438 " fill-opacity="1" fill-rule="nonzero"/><path fill="#ecc19c" d="M 763.785156 494.292969 C 752.503906 495.417969 742.082031 495.746094 732.730469 495.617188 C 732.675781 495.617188 732.621094 495.613281 732.566406 495.609375 C 734.570312 508.691406 734.707031 518.242188 734.386719 524.796875 C 734.277344 527.105469 733.960938 532.007812 734.097656 538.867188 C 734.15625 541.664062 734.277344 544.238281 734.425781 546.558594 C 734.675781 546.546875 734.9375 546.585938 735.191406 546.679688 C 740.035156 548.417969 748.277344 550.449219 758.007812 548.539062 C 762.332031 547.695312 765.960938 546.265625 768.8125 544.820312 C 769.066406 544.691406 769.332031 544.621094 769.597656 544.601562 C 769.472656 540.140625 769.445312 534.972656 769.632812 529.242188 C 769.773438 524.863281 769.996094 518.546875 770.964844 510.433594 C 771.539062 505.632812 772.425781 499.769531 773.855469 493.101562 C 770.597656 493.546875 767.238281 493.949219 763.785156 494.292969 Z M 763.785156 494.292969 " fill-opacity="1" fill-rule="nonzero"/><path fill="#ecc19c" d="M 741.421875 231.746094 C 749.039062 229.726562 757.183594 222.449219 756.75 214.867188 C 756.644531 213.007812 756.039062 211.4375 755.398438 210.238281 C 755.230469 209.929688 755.109375 209.59375 755.035156 209.25 C 754.992188 209.054688 754.96875 208.855469 754.957031 208.65625 C 754.957031 208.652344 754.957031 208.648438 754.957031 208.648438 C 754.933594 208.273438 754.910156 207.902344 754.886719 207.53125 C 754.777344 205.648438 754.707031 203.699219 754.675781 201.683594 C 754.601562 196.632812 754.816406 191.9375 755.199219 187.652344 L 755.292969 187.527344 C 755.347656 187.570312 755.410156 187.609375 755.472656 187.644531 C 755.476562 187.644531 755.484375 187.648438 755.492188 187.652344 C 757.382812 188.648438 760.929688 186.21875 762.628906 183.398438 C 763.8125 181.441406 763.886719 179.644531 764.011719 176.832031 C 764.140625 173.886719 764.339844 169.34375 762.234375 168.441406 C 761.59375 168.167969 760.875 168.289062 760.238281 168.53125 C 759.421875 168.84375 758.746094 169.351562 758.582031 169.476562 C 755.496094 171.824219 755.640625 176.316406 755.175781 176.289062 C 754.679688 176.257812 756.820312 166.507812 752.359375 158.023438 C 751.371094 156.140625 750.675781 154.816406 749.199219 153.539062 C 740.4375 145.9375 720.523438 154.0625 717.402344 155.335938 C 712.550781 157.3125 710.945312 158.644531 708.710938 158.257812 C 708.78125 162.832031 708.960938 166.976562 709.1875 170.601562 C 708.828125 170.757812 708.441406 170.972656 708.074219 171.285156 C 706.097656 172.972656 706.25 176.027344 706.566406 180.90625 C 706.832031 185.070312 707.460938 186.109375 707.699219 186.484375 C 708.679688 187.996094 710.078125 188.847656 711.148438 189.316406 C 712.4375 196.777344 713.960938 199.378906 715.589844 201.390625 C 715.617188 201.429688 715.652344 201.46875 715.6875 201.511719 L 715.503906 201.644531 C 715.734375 203.636719 715.882812 205.8125 715.890625 208.140625 C 715.890625 208.339844 715.890625 208.542969 715.886719 208.746094 C 715.886719 208.984375 715.882812 209.21875 715.878906 209.460938 L 715.878906 209.46875 C 715.867188 210.027344 715.613281 210.542969 715.207031 210.917969 C 713.230469 212.746094 713.140625 216.160156 713.136719 216.421875 C 713.039062 223.820312 728.101562 235.28125 741.421875 231.746094 Z M 739.242188 167.800781 C 740.410156 167.800781 741.355469 169.191406 741.355469 170.910156 C 741.355469 172.628906 740.410156 174.019531 739.242188 174.019531 C 738.078125 174.019531 737.132812 172.628906 737.132812 170.910156 C 737.132812 169.191406 738.078125 167.800781 739.242188 167.800781 Z M 718.117188 174.929688 C 716.949219 174.929688 716.007812 173.539062 716.007812 171.820312 C 716.007812 170.101562 716.949219 168.707031 718.117188 168.707031 C 719.28125 168.707031 720.226562 170.101562 720.226562 171.820312 C 720.226562 173.539062 719.28125 174.929688 718.117188 174.929688 Z M 718.117188 174.929688 " fill-opacity="1" fill-rule="nonzero"/><path fill="#ecc19c" d="M 661.445312 484.800781 C 661.558594 494.660156 660.777344 503.148438 659.824219 509.867188 C 658.433594 519.664062 657.742188 524.5625 655.484375 530.695312 C 652.769531 538.058594 649.816406 542.230469 648.375 550.835938 C 648.105469 552.457031 647.925781 553.976562 647.820312 555.367188 C 648.121094 555.207031 648.460938 555.117188 648.816406 555.097656 C 654.875 554.789062 662.058594 554.90625 670.042969 556.019531 C 675.390625 556.765625 680.226562 557.835938 684.496094 559.019531 C 684.902344 559.132812 685.265625 559.34375 685.554688 559.621094 C 685.933594 556.132812 686.101562 553.167969 686.183594 550.835938 C 686.425781 543.71875 685.898438 540.144531 687.464844 534.15625 C 688.035156 531.992188 688.339844 531.554688 690.628906 525.664062 C 691.234375 524.101562 692.972656 519.359375 696.449219 509.867188 C 697.472656 507.085938 698.738281 503.621094 700.230469 499.523438 C 701.238281 496.742188 702.351562 493.675781 703.566406 490.328125 L 703.566406 490.324219 C 699.121094 488.648438 694.035156 487.117188 688.359375 486.023438 C 677.59375 483.945312 668.261719 484.121094 661.445312 484.800781 Z M 661.445312 484.800781 " fill-opacity="1" fill-rule="nonzero"/><path fill="#80ff00" d="M 819.339844 290.992188 C 816.199219 282.328125 814.410156 275.105469 813.351562 270.109375 C 813.351562 270.109375 807.644531 243.097656 803.777344 235.753906 C 801.679688 231.773438 798.691406 228.695312 798.691406 228.695312 C 798.691406 228.695312 798.132812 228.121094 797.542969 227.574219 C 792.191406 222.640625 774.414062 217.066406 770.011719 215.613281 C 767.164062 214.675781 763.210938 213.261719 758.53125 211.183594 C 758.371094 211.03125 758.207031 210.886719 758.039062 210.75 L 758.035156 210.75 C 757.050781 209.964844 755.957031 209.515625 755.039062 209.25 L 755.035156 209.25 C 755.109375 209.59375 755.226562 209.929688 755.394531 210.238281 C 756.039062 211.4375 756.644531 213.007812 756.75 214.867188 C 757.183594 222.449219 749.039062 229.726562 741.421875 231.746094 C 728.101562 235.28125 713.039062 223.820312 713.136719 216.421875 C 713.140625 216.160156 713.230469 212.746094 715.207031 210.917969 C 715.613281 210.542969 715.867188 210.027344 715.878906 209.46875 L 715.878906 209.460938 C 715.882812 209.21875 715.886719 208.984375 715.886719 208.746094 C 715.890625 208.542969 715.890625 208.339844 715.890625 208.140625 C 715.476562 208.21875 715.046875 208.421875 714.757812 208.613281 C 714.46875 208.808594 714.175781 209.027344 713.886719 209.28125 C 707.730469 210.949219 700.113281 213.457031 696.945312 214.457031 C 692.523438 215.847656 674.671875 221.1875 669.257812 226.054688 C 668.660156 226.589844 668.09375 227.15625 668.09375 227.15625 C 668.09375 227.15625 665.070312 230.191406 662.917969 234.148438 C 658.953125 241.4375 652.890625 268.371094 652.890625 268.371094 C 651.769531 273.355469 649.882812 280.550781 646.625 289.171875 C 646.320312 289.972656 646.703125 290.871094 647.488281 291.210938 C 648.5 291.640625 649.53125 292.074219 650.59375 292.503906 C 654.996094 294.277344 659.851562 296.007812 665.140625 297.5625 C 669.625 298.882812 673.902344 299.925781 677.925781 300.757812 L 677.929688 300.757812 C 678.554688 300.886719 679.167969 301.011719 679.78125 301.128906 C 680.066406 306.90625 680.257812 313.910156 680.195312 321.867188 C 680.195312 321.867188 680.09375 335.382812 678.796875 351.28125 C 678.527344 354.542969 678.214844 357.898438 677.839844 361.269531 C 677.835938 361.269531 677.839844 361.269531 677.839844 361.273438 C 677.503906 364.269531 677.121094 367.273438 676.683594 370.207031 C 675.84375 375.875 674.742188 382.042969 674.742188 382.042969 C 674.359375 384.203125 673.960938 386.335938 673.554688 388.4375 C 673.527344 388.578125 673.5 388.71875 673.476562 388.859375 C 672.851562 392.023438 672.210938 395.125 671.550781 398.15625 C 672.652344 399.652344 673.613281 401.070312 674.453125 402.382812 C 675.191406 403.535156 675.835938 404.609375 676.394531 405.582031 C 680.339844 412.445312 684.660156 419.96875 681.757812 424.164062 C 680.429688 426.078125 677.664062 427.195312 675.554688 426.671875 C 674.304688 426.363281 673.027344 425.347656 668.585938 416.285156 C 668.539062 416.1875 668.488281 416.09375 668.445312 416 C 668.367188 416.300781 668.292969 416.609375 668.214844 416.914062 C 667.449219 420.035156 666.609375 423.457031 665.761719 427.167969 L 665.761719 427.171875 C 665.769531 427.1875 665.773438 427.191406 665.777344 427.207031 C 668.335938 436.960938 673.445312 440.8125 671.335938 445.703125 C 670.605469 447.398438 668.953125 449.351562 667.023438 449.472656 C 666.78125 449.484375 666.542969 449.472656 666.304688 449.433594 C 664.945312 451.304688 663.746094 451.710938 662.980469 451.78125 C 662.417969 451.835938 661.851562 451.726562 661.300781 451.492188 C 660.203125 459.828125 659.273438 470.453125 659.316406 482.953125 C 659.320312 484.054688 660.269531 484.917969 661.367188 484.808594 C 661.394531 484.804688 661.421875 484.804688 661.445312 484.800781 C 668.261719 484.121094 677.59375 483.945312 688.359375 486.023438 C 694.035156 487.117188 699.121094 488.648438 703.566406 490.324219 L 703.566406 490.328125 C 702.351562 493.675781 701.238281 496.742188 700.230469 499.523438 C 702.636719 499.894531 705.414062 500.152344 708.496094 500.140625 C 711.453125 500.132812 714.125 499.878906 716.449219 499.519531 C 717.90625 499.292969 719.042969 498.15625 719.28125 496.703125 C 719.777344 493.640625 720.507812 489.65625 721.578125 485.0625 C 723.5625 476.539062 724.992188 473.503906 726.214844 467.589844 C 726.527344 466.09375 726.769531 464.703125 726.964844 463.378906 C 727.171875 472.308594 726.773438 474.8125 727.996094 480.398438 C 728.375 482.125 728.84375 483.859375 729.308594 486.285156 C 729.457031 487.085938 729.675781 488.269531 729.871094 489.679688 C 730.054688 490.988281 730.183594 492.214844 730.273438 493.328125 C 730.371094 494.554688 731.351562 495.511719 732.566406 495.609375 C 732.621094 495.613281 732.675781 495.617188 732.730469 495.617188 C 742.082031 495.746094 752.503906 495.417969 763.785156 494.292969 C 767.238281 493.949219 770.597656 493.546875 773.855469 493.101562 C 781.269531 492.085938 788.171875 490.828125 794.527344 489.453125 C 795.796875 489.179688 796.640625 487.980469 796.476562 486.695312 C 794.464844 470.746094 792.5 454.789062 790.585938 438.835938 C 790.148438 435.167969 789.710938 431.503906 789.28125 427.832031 C 789.039062 427.96875 788.816406 428.042969 788.597656 428.097656 C 786.480469 428.589844 783.730469 427.441406 782.429688 425.503906 C 780.277344 422.304688 782.277344 417.261719 785.125 412.046875 C 786.042969 410.363281 787.050781 408.660156 788.035156 406.996094 C 788.234375 406.660156 788.441406 406.3125 788.660156 405.957031 L 788.660156 405.949219 C 788.398438 401.777344 788.160156 397.703125 787.945312 393.726562 C 787.574219 386.855469 787.269531 380.277344 787.023438 374.027344 C 786.667969 365.015625 786.441406 356.679688 786.3125 349.109375 L 786.3125 349.105469 C 786.089844 335.773438 786.183594 324.804688 786.476562 316.664062 C 786.589844 313.550781 786.816406 309.152344 787.199219 302.292969 C 787.429688 302.25 787.660156 302.203125 787.890625 302.160156 C 791.921875 301.386719 796.214844 300.398438 800.714844 299.136719 C 806.027344 297.648438 810.902344 295.984375 815.324219 294.269531 C 816.394531 293.851562 817.433594 293.433594 818.449219 293.015625 C 819.242188 292.6875 819.632812 291.792969 819.339844 290.992188 Z M 819.339844 290.992188 " fill-opacity="1" fill-rule="nonzero"/><path fill="#80ff00" d="M 771.835938 546.507812 C 771.730469 545.320312 770.6875 544.519531 769.597656 544.601562 C 769.332031 544.621094 769.066406 544.691406 768.8125 544.820312 C 765.960938 546.265625 762.332031 547.695312 758.007812 548.539062 C 748.277344 550.449219 740.035156 548.417969 735.191406 546.679688 C 734.9375 546.585938 734.675781 546.546875 734.425781 546.558594 C 733.414062 546.582031 732.519531 547.34375 732.398438 548.425781 C 731.507812 556.589844 731.121094 563.128906 730.933594 567.226562 C 729.476562 598.878906 733.886719 612.921875 731.648438 642.132812 C 731.191406 648.066406 730.574219 653.148438 730.050781 656.910156 C 730.617188 657.363281 730.425781 659.277344 731.480469 659.753906 C 733.945312 660.871094 737.960938 651.71875 746.941406 648.953125 C 749.726562 648.09375 751.453125 648.324219 752.40625 648.617188 C 752.417969 646.253906 752.523438 643.597656 752.777344 640.699219 C 753.960938 627.214844 757.410156 620.953125 764.671875 597.113281 C 768.253906 585.347656 770.066406 579.335938 771.015625 573.152344 C 772.117188 565.949219 772.386719 559.390625 772.25 553.765625 C 772.183594 551.132812 772.03125 548.707031 771.835938 546.507812 Z M 771.835938 546.507812 " fill-opacity="1" fill-rule="nonzero"/><path fill="#80ff00" d="M 684.496094 559.019531 C 680.226562 557.835938 675.390625 556.765625 670.042969 556.019531 C 662.058594 554.90625 654.875 554.789062 648.816406 555.097656 C 648.460938 555.117188 648.121094 555.207031 647.820312 555.367188 C 647.070312 555.746094 646.542969 556.503906 646.472656 557.394531 C 646.304688 559.695312 646.191406 561.769531 646.109375 563.566406 C 646.027344 565.40625 645.980469 566.957031 645.957031 568.164062 C 645.53125 586.78125 647.535156 607.085938 647.828125 621.769531 C 647.851562 622.816406 647.886719 625.007812 647.632812 627.890625 C 647.257812 632.144531 646.441406 635.738281 645.636719 638.488281 C 646.414062 638.324219 648.335938 638.085938 651.53125 639.886719 C 659.71875 644.503906 661.695312 654.300781 664.34375 653.734375 C 665.601562 653.464844 665.734375 651.136719 666.574219 651.214844 C 666.683594 646.148438 666.726562 642.761719 666.738281 642.210938 C 666.925781 631.886719 672.617188 607.023438 680.269531 587.523438 C 680.964844 585.75 682.292969 582.449219 683.570312 577.742188 C 685.320312 571.273438 686.015625 565.652344 686.308594 561.585938 C 686.367188 560.832031 686.074219 560.117188 685.554688 559.621094 C 685.265625 559.34375 684.902344 559.132812 684.496094 559.019531 Z M 684.496094 559.019531 " fill-opacity="1" fill-rule="nonzero"/><path fill="#231f20" d="M 737.132812 170.910156 C 737.132812 172.628906 738.078125 174.019531 739.242188 174.019531 C 740.410156 174.019531 741.355469 172.628906 741.355469 170.910156 C 741.355469 169.191406 740.410156 167.800781 739.242188 167.800781 C 738.078125 167.800781 737.132812 169.191406 737.132812 170.910156 Z M 737.132812 170.910156 " fill-opacity="1" fill-rule="nonzero"/><path fill="#231f20" d="M 718.117188 168.707031 C 716.949219 168.707031 716.007812 170.101562 716.007812 171.820312 C 716.007812 173.539062 716.949219 174.929688 718.117188 174.929688 C 719.28125 174.929688 720.226562 173.539062 720.226562 171.820312 C 720.226562 170.101562 719.28125 168.707031 718.117188 168.707031 Z M 718.117188 168.707031 " fill-opacity="1" fill-rule="nonzero"/><path fill="#231f20" d="M 739.027344 162.332031 C 735.859375 162.5625 732.773438 164.285156 730.914062 166.835938 C 732.902344 165.332031 735.058594 164.175781 737.472656 163.667969 C 741 162.902344 744.582031 163.882812 747.574219 165.875 C 745.539062 163.425781 742.210938 162.097656 739.027344 162.332031 Z M 739.027344 162.332031 " fill-opacity="1" fill-rule="nonzero"/><path fill="#231f20" d="M 718.15625 163.304688 C 714.863281 163.347656 711.574219 165.089844 709.789062 167.84375 C 712.527344 165.511719 715.957031 164.109375 719.554688 164.453125 C 722.015625 164.671875 724.292969 165.566406 726.445312 166.820312 C 724.363281 164.582031 721.230469 163.25 718.15625 163.304688 Z M 718.15625 163.304688 " fill-opacity="1" fill-rule="nonzero"/><path fill="#231f20" d="M 727.59375 179.902344 C 728.445312 176.75 728.425781 173.410156 727.730469 170.242188 C 727.542969 173.410156 727.371094 176.566406 726.527344 179.609375 C 726.242188 180.800781 725.648438 181.867188 725.492188 183.105469 C 725.140625 185.992188 727.835938 186.5625 730.101562 186.089844 C 729.300781 185.996094 728.503906 185.894531 727.796875 185.617188 C 725.785156 184.878906 726.351562 183.171875 726.996094 181.65625 C 727.230469 181.085938 727.429688 180.496094 727.59375 179.902344 Z M 727.59375 179.902344 " fill-opacity="1" fill-rule="nonzero"/><path fill="#231f20" d="M 736.984375 193.492188 C 731.871094 194.996094 727.398438 195.183594 722.175781 194.085938 C 726.644531 196.71875 732.738281 196.457031 736.984375 193.492188 Z M 736.984375 193.492188 " fill-opacity="1" fill-rule="nonzero"/><path fill="#231f20" d="M 756.332031 182.972656 C 756.085938 183.300781 756.011719 183.847656 756.359375 184.175781 C 756.988281 184.730469 757.933594 184.527344 758.632812 184.363281 C 760.398438 183.886719 761.570312 182.308594 762.234375 180.726562 C 763.265625 178.230469 763.648438 175.417969 762.988281 172.777344 C 761.902344 166.929688 758.757812 170.742188 757.273438 173.917969 C 758.085938 172.761719 759.515625 170.636719 760.925781 170.332031 C 761.445312 170.269531 761.644531 170.828125 761.792969 171.242188 C 762.445312 173.441406 762.582031 175.863281 761.96875 178.105469 C 761.441406 180.160156 760.519531 182.628906 758.332031 183.3125 C 757.980469 183.410156 757.613281 183.484375 757.277344 183.445312 C 757.453125 183.199219 757.769531 182.882812 757.933594 182.695312 C 758.839844 181.757812 759.789062 180.3125 759.085938 178.976562 C 758.660156 178.195312 758.003906 177.882812 757.847656 177.058594 C 757.664062 176.136719 757.90625 174.640625 759.035156 174.507812 C 760.203125 174.449219 761.195312 175.359375 761.789062 176.328125 C 761.480469 175.589844 760.972656 174.902344 760.25 174.457031 C 758.820312 173.582031 757.554688 174.300781 757.207031 175.859375 C 756.984375 176.714844 757.097656 177.742188 757.664062 178.445312 C 757.925781 178.800781 758.1875 179.078125 758.308594 179.355469 C 758.722656 180.363281 757.875 181.300781 757.195312 182.003906 C 756.914062 182.300781 756.574219 182.613281 756.332031 182.972656 Z M 756.332031 182.972656 " fill-opacity="1" fill-rule="nonzero"/><path fill="#231f20" d="M 768.960938 370.25 C 765.683594 373.375 762.417969 376.605469 758.683594 379.171875 C 758.113281 379.535156 757.558594 379.882812 756.945312 380.046875 C 756.839844 380.074219 756.761719 380.070312 756.707031 380.066406 C 756.644531 379.851562 756.695312 379.550781 756.765625 379.257812 C 756.957031 378.464844 757.285156 377.707031 757.628906 376.949219 C 759.5625 372.84375 762.089844 368.988281 764.234375 364.96875 C 770.535156 353.386719 775.578125 341.148438 779.648438 328.621094 C 780.472656 326.066406 781.410156 323.023438 782.160156 320.414062 C 781.226562 323.09375 780.273438 325.839844 779.3125 328.503906 C 774.785156 340.828125 769.605469 352.933594 763.285156 364.449219 C 760.855469 369.011719 757.859375 373.28125 755.976562 378.136719 C 755.65625 379.058594 755.128906 380.851562 756.5625 381.121094 C 757.585938 381.195312 758.464844 380.535156 759.257812 380.046875 C 761.1875 378.734375 762.902344 377.203125 764.621094 375.648438 C 769.695312 370.996094 774.410156 365.9375 778.597656 360.476562 C 781.375 356.832031 783.96875 353.042969 786.3125 349.105469 C 781.257812 356.710938 775.480469 363.855469 768.960938 370.25 Z M 768.960938 370.25 " fill-opacity="1" fill-rule="nonzero"/><path fill="#231f20" d="M 644.40625 640.296875 C 645.132812 641.152344 645.839844 642.003906 646.484375 642.890625 C 644.769531 643.050781 643.097656 643.5625 641.746094 644.4375 C 643.515625 644.28125 645.199219 644.054688 646.949219 643.96875 C 647.035156 643.960938 647.117188 643.957031 647.203125 643.953125 C 647.664062 644.6875 648.070312 645.453125 648.402344 646.28125 C 648.707031 647.015625 648.953125 647.785156 649.199219 648.609375 C 649.574219 647.003906 649.25 645.339844 648.464844 643.902344 C 649.695312 643.863281 650.910156 643.863281 652.175781 643.8125 C 650.863281 643.183594 649.328125 642.863281 647.773438 642.839844 C 646.894531 641.699219 645.71875 640.789062 644.40625 640.296875 Z M 644.40625 640.296875 " fill-opacity="1" fill-rule="nonzero"/><path fill="#231f20" d="M 640.371094 645.367188 C 641.097656 646.222656 641.804688 647.074219 642.449219 647.964844 C 640.734375 648.121094 639.0625 648.636719 637.710938 649.507812 C 639.480469 649.351562 641.164062 649.128906 642.914062 649.039062 C 643 649.035156 643.082031 649.03125 643.167969 649.027344 C 643.628906 649.757812 644.035156 650.527344 644.367188 651.351562 C 644.671875 652.085938 644.917969 652.855469 645.164062 653.679688 C 645.539062 652.074219 645.214844 650.410156 644.429688 648.972656 C 645.660156 648.9375 646.875 648.933594 648.140625 648.882812 C 646.832031 648.253906 645.292969 647.9375 643.738281 647.914062 C 642.863281 646.773438 641.683594 645.863281 640.371094 645.367188 Z M 640.371094 645.367188 " fill-opacity="1" fill-rule="nonzero"/><path fill="#231f20" d="M 750.050781 654.933594 C 748.5 654.839844 746.945312 655.046875 745.585938 655.578125 C 746.84375 655.722656 748.058594 655.8125 749.28125 655.941406 C 748.390625 657.316406 747.941406 658.953125 748.199219 660.582031 C 748.503906 659.777344 748.808594 659.03125 749.167969 658.320312 C 749.558594 657.519531 750.023438 656.785156 750.535156 656.085938 C 750.621094 656.097656 750.703125 656.109375 750.785156 656.121094 C 752.527344 656.339844 754.1875 656.6875 755.941406 656.972656 C 754.652344 656.003906 753.03125 655.363281 751.335938 655.078125 C 752.039062 654.242188 752.808594 653.445312 753.59375 652.648438 C 752.25 653.042969 751.011719 653.863281 750.050781 654.933594 Z M 750.050781 654.933594 " fill-opacity="1" fill-rule="nonzero"/><path fill="#231f20" d="M 753.699219 660.289062 C 752.148438 660.195312 750.59375 660.402344 749.234375 660.933594 C 750.492188 661.078125 751.707031 661.171875 752.929688 661.296875 C 752.039062 662.675781 751.589844 664.308594 751.847656 665.941406 C 752.152344 665.136719 752.457031 664.386719 752.816406 663.675781 C 753.207031 662.875 753.671875 662.140625 754.183594 661.445312 C 754.269531 661.457031 754.351562 661.464844 754.433594 661.476562 C 756.175781 661.695312 757.835938 662.046875 759.589844 662.332031 C 758.300781 661.359375 756.675781 660.71875 754.984375 660.433594 C 755.6875 659.597656 756.457031 658.800781 757.242188 658.003906 C 755.898438 658.398438 754.660156 659.21875 753.699219 660.289062 Z M 753.699219 660.289062 " fill-opacity="1" fill-rule="nonzero"/><g clip-path="url(#7ce72bb3dd)"><path fill="#231f20" d="M 824.308594 421.96875 C 823.933594 419.144531 823.046875 416.4375 822.539062 413.660156 C 822.125 411.527344 821.902344 409.355469 821.753906 407.1875 C 821.707031 406.289062 821.648438 405.28125 821.644531 404.382812 C 821.601562 403.265625 821.6875 401.636719 821.375 400.5625 C 821.214844 399.953125 820.972656 399.363281 820.65625 398.816406 C 820.65625 398.816406 820.65625 398.8125 820.65625 398.8125 C 820.648438 398.792969 820.636719 398.777344 820.625 398.757812 C 820.625 398.757812 820.625 398.753906 820.625 398.753906 C 820.578125 398.675781 820.53125 398.601562 820.484375 398.527344 C 820.664062 397.925781 820.832031 397.320312 821 396.71875 C 821.105469 396.351562 821.203125 396 821.296875 395.621094 C 821.480469 394.835938 821.40625 393.992188 821.078125 393.25 C 820.914062 392.914062 820.722656 392.59375 820.511719 392.285156 C 822.808594 377.550781 823.945312 362.628906 824.242188 347.722656 C 824.460938 336.386719 822.234375 325.105469 819.820312 314.082031 C 818.511719 307.90625 816.90625 300.777344 815.414062 294.632812 C 816.390625 294.261719 817.367188 293.886719 818.335938 293.496094 C 818.515625 293.414062 818.75 293.351562 818.914062 293.230469 C 819.742188 292.738281 820.074219 291.613281 819.703125 290.746094 C 814.355469 276.136719 812.40625 260.621094 807.921875 245.753906 C 806.933594 242.46875 805.972656 239.15625 804.496094 236.042969 C 803.296875 233.628906 801.707031 231.421875 799.960938 229.382812 C 799.582031 228.945312 799.195312 228.507812 798.777344 228.109375 C 798.097656 227.433594 797.371094 226.753906 796.578125 226.203125 C 792.78125 223.601562 788.492188 221.890625 784.246094 220.222656 C 778.589844 218.019531 772.765625 216.335938 767.011719 214.425781 C 764.242188 213.472656 761.503906 212.425781 758.800781 211.292969 C 758.746094 211.238281 758.695312 211.183594 758.640625 211.128906 L 758.097656 210.675781 L 758.074219 210.652344 C 758.074219 210.652344 758.039062 210.652344 758.039062 210.652344 C 757.511719 210.183594 756.410156 209.652344 755.46875 209.367188 C 755.421875 209.21875 755.386719 209.070312 755.371094 208.914062 C 755.363281 208.851562 755.34375 208.71875 755.34375 208.664062 C 755.335938 208.65625 755.347656 208.65625 755.335938 208.605469 C 755.308594 208.179688 755.269531 207.753906 755.246094 207.324219 C 755.199219 206.46875 755.097656 204.28125 755.046875 203.390625 C 754.765625 198.144531 754.882812 192.894531 755.199219 187.652344 C 754.6875 192.003906 754.445312 196.390625 754.390625 200.773438 C 754.386719 202.800781 754.472656 205.3125 754.511719 207.347656 C 754.523438 207.785156 754.550781 208.226562 754.574219 208.667969 C 754.574219 208.667969 754.574219 208.671875 754.574219 208.671875 C 754.574219 208.667969 754.574219 208.667969 754.574219 208.675781 C 754.578125 208.6875 754.613281 208.816406 754.613281 208.816406 C 754.585938 208.75 754.578125 208.707031 754.574219 208.683594 C 754.597656 209.148438 754.695312 209.605469 754.867188 210.039062 C 754.933594 210.234375 755.070312 210.457031 755.15625 210.648438 C 755.613281 211.566406 755.960938 212.550781 756.144531 213.558594 C 757.554688 221.816406 748.710938 229.15625 741.484375 231.152344 C 733.34375 233.359375 724.453125 230.117188 718.289062 224.652344 C 715.972656 222.503906 713.496094 219.589844 713.449219 216.289062 C 713.527344 214.664062 713.890625 212.941406 714.871094 211.617188 C 714.9375 211.535156 714.992188 211.449219 715.0625 211.375 C 715.0625 211.375 715.269531 211.152344 715.269531 211.152344 C 715.773438 210.6875 716.105469 210.007812 716.050781 209.308594 C 716.050781 206.953125 715.894531 204.589844 715.585938 202.253906 C 717.582031 204.648438 720.007812 206.703125 722.847656 208.023438 C 723.761719 208.457031 724.773438 208.8125 725.75 209.085938 C 725.996094 209.140625 726.648438 209.285156 726.882812 209.339844 C 728.523438 209.65625 730.238281 209.664062 731.882812 209.480469 C 738.835938 208.796875 746.21875 206.394531 750.625 200.664062 C 753.101562 197.445312 754.234375 193.351562 754.089844 189.324219 C 754.035156 191.320312 753.699219 193.308594 753.058594 195.183594 C 750.414062 203.066406 742.480469 206.957031 734.730469 208.121094 C 732.207031 208.484375 729.601562 208.808594 727.082031 208.292969 C 726.859375 208.242188 726.253906 208.101562 726.023438 208.050781 L 725.332031 207.839844 C 721.835938 206.746094 718.847656 204.414062 716.503906 201.640625 C 714.515625 199.449219 713.394531 196.742188 712.648438 193.875 C 711.640625 190.054688 711.09375 186.09375 710.597656 182.144531 C 709.699219 174.484375 709.082031 166.417969 708.734375 158.707031 C 708.949219 158.742188 709.167969 158.769531 709.390625 158.785156 C 711.414062 158.792969 713.195312 157.660156 714.996094 156.925781 C 719.347656 155.003906 723.851562 153.398438 728.464844 152.273438 C 735.886719 150.492188 747.140625 148.957031 751.367188 157.011719 C 753.828125 161.089844 754.945312 165.832031 755.105469 170.574219 C 755.171875 171.964844 755.140625 173.476562 755.097656 174.878906 L 755.082031 175.597656 C 755.082031 175.777344 755.078125 175.957031 755.101562 176.136719 C 755.109375 176.171875 755.113281 176.222656 755.136719 176.253906 C 755.136719 176.257812 755.136719 176.257812 755.140625 176.261719 C 755.140625 176.261719 755.140625 176.265625 755.144531 176.265625 C 755.152344 176.28125 755.164062 176.289062 755.175781 176.289062 C 755.28125 176.289062 755.316406 176.160156 755.359375 176.082031 C 755.59375 175.460938 755.722656 174.800781 755.9375 174.171875 C 756.488281 172.429688 757.390625 170.71875 758.9375 169.691406 C 759.757812 169.148438 760.78125 168.601562 761.773438 168.792969 C 763.988281 169.339844 763.492188 174.710938 763.472656 176.558594 C 763.371094 178.742188 763.421875 181.03125 762.320312 182.980469 C 761.214844 184.964844 758.9375 187.332031 756.585938 187.660156 C 755.25 187.816406 754.519531 186.726562 754.1875 185.519531 C 754.820312 190.125 759.667969 187.578125 761.699219 185.332031 C 763.101562 183.917969 764.054688 182.042969 764.3125 180.058594 C 764.472656 178.914062 764.511719 177.746094 764.570312 176.605469 C 764.644531 175.066406 764.691406 173.519531 764.515625 171.972656 C 764.421875 171.1875 764.273438 170.394531 763.929688 169.621094 C 763.144531 167.820312 761.707031 167.558594 760.285156 168.054688 C 760.828125 162.460938 761.214844 156.859375 761.382812 151.242188 C 761.546875 146.996094 760.941406 143.695312 758.953125 139.894531 C 757.632812 137.273438 755.75 134.851562 753.363281 133.089844 C 746.257812 127.917969 736.472656 126.765625 728.074219 128.878906 C 726.1875 129.351562 724.328125 130.058594 722.59375 130.945312 C 718.25 133.132812 714.71875 136.398438 709.671875 136.851562 C 708.730469 136.960938 707.765625 136.984375 706.820312 136.949219 C 705.863281 136.917969 704.914062 136.785156 703.953125 136.679688 C 703.015625 136.570312 701.9375 136.546875 701.1875 137.21875 C 701.1875 137.21875 701.1875 137.222656 701.1875 137.222656 C 701.1875 137.222656 701.183594 137.222656 701.183594 137.222656 C 701.117188 137.277344 701.054688 137.332031 700.992188 137.390625 C 699.050781 139.21875 699.207031 142.980469 699.546875 145.417969 C 700.214844 150.238281 703.300781 157.765625 708.710938 158.703125 C 708.679688 162.667969 708.742188 166.675781 708.914062 170.6875 C 706.128906 171.667969 705.828125 175.09375 705.867188 177.660156 C 705.957031 180.132812 705.988281 184.84375 707.457031 186.804688 C 708.253906 187.871094 709.394531 188.683594 710.632812 189.148438 C 711.335938 193.324219 712.148438 197.648438 714.710938 201.144531 C 714.980469 201.507812 715.261719 201.863281 715.546875 202.210938 C 715.667969 203.722656 715.730469 205.238281 715.746094 206.753906 C 715.75 207.226562 715.746094 207.699219 715.738281 208.171875 C 714.980469 208.34375 714.332031 208.816406 713.738281 209.320312 C 710.757812 210.074219 707.796875 210.917969 704.847656 211.796875 C 694.390625 215.042969 683.699219 217.757812 673.808594 222.585938 C 672.0625 223.484375 670.277344 224.480469 668.792969 225.820312 C 666.164062 228.242188 663.949219 231.121094 662.257812 234.273438 C 661.1875 236.402344 660.414062 238.648438 659.65625 240.890625 C 657.695312 246.847656 656.097656 252.90625 654.578125 258.988281 C 653.03125 265.035156 651.851562 271.183594 650.113281 277.183594 C 649.035156 280.925781 647.832031 284.636719 646.496094 288.296875 L 646.296875 288.847656 C 646.238281 289.007812 646.140625 289.269531 646.121094 289.507812 C 646.003906 290.519531 646.660156 291.394531 647.605469 291.691406 C 648.566406 292.09375 649.535156 292.484375 650.503906 292.867188 C 648.453125 300.847656 646.394531 309.6875 644.605469 317.773438 C 642.492188 326.972656 640.960938 336.359375 640.976562 345.835938 C 640.925781 353.390625 641.378906 360.917969 641.84375 368.449219 C 642.292969 375.8125 643.054688 383.152344 644.121094 390.441406 C 644.050781 390.539062 643.980469 390.636719 643.914062 390.738281 L 643.839844 390.84375 C 643.839844 390.84375 643.84375 390.84375 643.84375 390.847656 C 643.230469 391.753906 643.042969 392.941406 643.335938 393.984375 C 643.570312 394.890625 643.8125 395.792969 644.066406 396.691406 C 643.6875 397.253906 643.386719 397.863281 643.199219 398.523438 C 642.972656 399.230469 642.890625 400.019531 642.882812 400.753906 C 642.847656 402.015625 642.789062 403.8125 642.699219 405.0625 C 642.484375 407.925781 642.101562 410.765625 641.417969 413.542969 C 640.589844 417.050781 639.320312 420.730469 639.84375 424.386719 C 640.863281 431.292969 644.324219 437.601562 648.4375 443.132812 C 649.03125 443.957031 650.171875 445.308594 650.8125 446.113281 C 651.476562 446.890625 652.648438 448.164062 653.351562 448.945312 C 654.207031 449.96875 655.515625 450.808594 656.875 450.554688 C 657.953125 451.296875 659.160156 451.734375 660.496094 451.480469 C 660.742188 451.617188 660.996094 451.730469 661.25 451.816406 C 659.609375 462.105469 658.847656 472.546875 658.816406 482.972656 C 658.796875 484.3125 660.035156 485.46875 661.382812 485.332031 C 661.398438 485.328125 661.414062 485.328125 661.433594 485.328125 C 661.183594 494.207031 660.414062 503.03125 659.023438 511.800781 C 658.125 517.738281 657.34375 523.714844 655.386719 529.410156 C 653.480469 535.136719 650.480469 540.480469 649.0625 546.378906 C 648.390625 549.1875 647.980469 552.046875 647.84375 554.929688 C 646.859375 555.34375 646.113281 556.3125 646.058594 557.398438 C 646.058594 557.398438 645.945312 559.058594 645.945312 559.058594 C 644.46875 577.625 646.199219 596.898438 647.222656 615.480469 C 647.359375 618.535156 647.613281 622.375 647.523438 625.40625 C 647.421875 629.648438 646.808594 633.882812 645.761719 637.996094 C 645.6875 638.007812 645.613281 638.023438 645.542969 638.035156 C 643.410156 638.488281 642.246094 639.898438 640.636719 641.84375 C 640.273438 642.28125 639.902344 642.730469 639.472656 643.230469 C 636.195312 647.015625 633.367188 650.28125 629.589844 651.824219 C 627.320312 652.75 625.421875 652.777344 623.75 652.796875 C 621.636719 652.828125 619.816406 652.851562 618.039062 654.585938 C 617.9375 654.6875 615.5 657.074219 615.777344 660.128906 C 616.21875 664.972656 623.097656 667.566406 626.046875 668.679688 C 632.265625 671.015625 639.1875 671.226562 646.625 669.300781 C 647.472656 669.082031 648.355469 669.089844 649.179688 669.324219 C 653.988281 670.675781 658.207031 671.355469 661.75 671.355469 C 662.347656 671.355469 662.925781 671.335938 663.484375 671.296875 C 664.074219 671.257812 665.175781 671.179688 666.226562 670.480469 C 669.0625 668.597656 668.929688 664.046875 668.800781 659.644531 C 668.78125 658.894531 668.703125 656.945312 668.464844 655.082031 C 668.097656 652.179688 667.527344 650.84375 666.621094 650.753906 L 666.597656 650.753906 C 666.761719 647.328125 666.816406 643.378906 667.070312 640.015625 C 667.433594 636.335938 668.074219 632.601562 668.789062 628.96875 C 671.199219 617.160156 674.441406 605.511719 678.40625 594.132812 C 679.050781 592.265625 680.066406 589.546875 680.785156 587.675781 C 682.929688 582.308594 684.554688 576.710938 685.539062 571.019531 C 686.03125 568.171875 686.394531 565.300781 686.585938 562.417969 C 686.621094 561.878906 686.710938 561.09375 686.511719 560.585938 C 686.347656 560.066406 686.023438 559.609375 685.605469 559.269531 C 686.023438 556.40625 686.296875 553.515625 686.464844 550.617188 C 686.640625 547.617188 686.613281 544.589844 686.785156 541.597656 C 687.003906 537.882812 687.730469 534.210938 689.183594 530.78125 C 690.824219 526.871094 693.277344 520.039062 694.757812 515.972656 C 696.722656 510.519531 698.652344 505.058594 700.515625 499.570312 C 704.929688 500.347656 709.445312 500.515625 713.914062 500.128906 C 714.730469 500.058594 715.660156 499.941406 716.476562 499.832031 C 717.40625 499.703125 718.285156 499.21875 718.871094 498.476562 C 719.269531 497.988281 719.535156 497.394531 719.648438 496.773438 C 720.039062 494.527344 720.464844 492.292969 720.941406 490.066406 C 721.890625 485.609375 722.984375 481.195312 724.296875 476.835938 C 725.3125 473.5 726.289062 470.109375 726.96875 466.671875 C 726.9375 469.796875 726.863281 472.925781 727.105469 476.046875 C 727.386719 479.566406 728.414062 482.964844 729.027344 486.421875 C 729.386719 488.609375 729.742188 490.984375 729.898438 493.183594 C 729.90625 494.632812 731.109375 495.917969 732.566406 496 C 732.574219 496 732.589844 496 732.601562 496.003906 C 733.421875 504.332031 734.097656 512.664062 733.953125 521.03125 C 733.941406 522.886719 733.816406 525.511719 733.734375 527.394531 C 733.503906 533.667969 733.664062 539.976562 734.386719 546.214844 C 733.820312 546.234375 733.261719 546.441406 732.832031 546.828125 C 732.445312 547.171875 732.171875 547.644531 732.0625 548.152344 C 732.046875 548.25 732.023438 548.371094 732.015625 548.449219 L 731.957031 548.976562 L 731.71875 551.085938 C 730.324219 563.75 729.84375 576.511719 730.226562 589.242188 C 730.488281 597.730469 731.15625 606.179688 731.5625 614.648438 C 732.28125 628.582031 731.75 642.558594 730.109375 656.414062 C 730.039062 656.386719 729.960938 656.367188 729.886719 656.359375 C 728.980469 656.25 728.140625 657.4375 727.164062 660.195312 C 726.535156 661.964844 726.046875 663.851562 725.863281 664.578125 C 724.800781 668.851562 723.703125 673.269531 726.074219 675.71875 C 726.953125 676.625 728.011719 676.933594 728.578125 677.097656 C 732.257812 678.171875 737.238281 678.558594 742.976562 678.214844 C 743.832031 678.160156 744.695312 678.34375 745.472656 678.734375 C 750.851562 681.453125 756.195312 682.820312 761.425781 682.820312 C 762.863281 682.820312 764.296875 682.71875 765.714844 682.507812 C 768.824219 682.054688 776.105469 680.988281 777.570312 676.34375 C 778.480469 673.441406 776.621094 670.566406 776.539062 670.445312 C 775.175781 668.371094 773.398438 667.960938 771.339844 667.484375 C 769.710938 667.105469 767.863281 666.675781 765.839844 665.289062 C 762.476562 662.972656 760.40625 659.175781 758.007812 654.769531 C 757.703125 654.207031 757.433594 653.691406 757.175781 653.1875 C 756.015625 650.941406 755.175781 649.316406 753.1875 648.417969 C 753.046875 648.355469 752.824219 648.261719 752.542969 648.175781 C 752.503906 648.164062 752.464844 648.15625 752.425781 648.144531 C 752.5 645.796875 752.65625 643.457031 752.886719 641.121094 C 754.003906 628.578125 759.039062 616.925781 762.757812 605.011719 C 764.058594 601.027344 765.96875 594.683594 767.210938 590.640625 C 768.628906 585.820312 770.082031 580.992188 771.035156 576.050781 C 771.507812 573.574219 771.835938 571.074219 772.101562 568.570312 C 772.824219 561.691406 772.859375 554.742188 772.242188 547.851562 C 772.171875 547.300781 772.167969 546.445312 771.984375 545.925781 C 771.636719 544.902344 770.609375 544.3125 769.601562 544.382812 C 769.8125 535.824219 770.082031 527.289062 770.714844 518.757812 C 771.320312 510.34375 772.4375 502 773.765625 493.664062 C 780.222656 492.789062 786.644531 491.671875 793.019531 490.324219 C 793.3125 490.261719 794.179688 490.070312 794.457031 490.015625 C 794.636719 489.976562 794.820312 489.933594 794.992188 489.875 C 796.332031 489.429688 797.203125 487.992188 796.992188 486.605469 L 796.929688 486.121094 C 796.617188 483.628906 795.773438 477.03125 795.449219 474.457031 C 794.355469 465.847656 793.070312 456.125 791.800781 446.617188 C 792.136719 447.808594 792.785156 448.925781 793.636719 449.832031 C 795.101562 451.363281 796.527344 451.761719 797.851562 451.453125 C 798.640625 452.605469 799.75 453.617188 801.234375 453.660156 C 801.945312 453.65625 802.640625 453.449219 803.3125 453.097656 C 804.65625 453.378906 805.875 452.953125 806.96875 452.21875 C 808.929688 452.585938 810.171875 451.027344 811.398438 449.695312 C 812.15625 448.882812 813.214844 447.742188 813.902344 446.871094 C 813.902344 446.871094 815.109375 445.417969 815.109375 445.417969 C 815.109375 445.417969 816.246094 443.90625 816.246094 443.90625 C 817.03125 442.910156 817.960938 441.453125 818.667969 440.398438 C 818.816406 440.171875 819.261719 439.390625 819.398438 439.175781 C 820.359375 437.621094 821.253906 435.78125 822.003906 434.105469 C 822.308594 433.441406 822.613281 432.574219 822.890625 431.894531 C 823.117188 431.1875 823.429688 430.332031 823.609375 429.613281 C 824.082031 427.917969 824.445312 426.164062 824.503906 424.386719 C 824.484375 423.5625 824.40625 422.78125 824.308594 421.96875 Z M 708.261719 186.648438 C 707.527344 185.574219 707.453125 184.261719 707.285156 182.976562 C 707.191406 182.097656 707.136719 181.214844 707.082031 180.3125 C 706.976562 178.519531 706.808594 176.726562 706.890625 174.988281 C 706.949219 173.300781 707.492188 171.710938 708.917969 170.769531 C 709.175781 176.621094 709.667969 182.480469 710.476562 188.210938 C 710.515625 188.460938 710.558594 188.710938 710.601562 188.960938 C 709.675781 188.332031 708.871094 187.582031 708.261719 186.648438 Z M 820.488281 392.25 C 820.046875 391.609375 819.527344 391.015625 819.007812 390.441406 C 817.164062 388.457031 814.765625 386.964844 812.15625 386.207031 C 808.796875 385.207031 805.132812 385.515625 801.894531 386.796875 C 801.472656 386.976562 801.027344 387.152344 800.59375 387.351562 C 800.855469 382.410156 800.800781 377.425781 800.480469 372.484375 C 803.914062 370.726562 807.664062 369.714844 811.515625 369.980469 C 815.335938 370.230469 818.921875 371.699219 822.046875 373.917969 C 821.664062 380.035156 821.121094 386.144531 820.488281 392.25 Z M 817.027344 303.355469 C 815.921875 305.164062 814.414062 306.679688 812.851562 308.105469 C 808.691406 311.796875 804.089844 314.980469 799.382812 317.941406 C 799.382812 317.941406 796.519531 319.71875 796.519531 319.71875 C 803.0625 317.417969 814.410156 310.222656 817.050781 303.46875 C 817.667969 306.742188 818.292969 310.074219 818.796875 312.78125 C 816.953125 313.25 815.230469 314.144531 813.539062 314.992188 C 808.191406 317.796875 802.933594 320.753906 798.003906 324.257812 C 803.542969 321.847656 808.835938 318.917969 813.972656 315.75 C 815.578125 314.761719 817.128906 313.71875 818.8125 312.867188 C 818.902344 313.34375 818.988281 313.800781 819.066406 314.234375 C 819.234375 315.121094 819.402344 316.011719 819.570312 316.898438 C 818.085938 316.9375 816.632812 317.433594 815.230469 317.871094 C 813.699219 318.382812 812.195312 318.941406 810.699219 319.515625 C 807.699219 320.6875 804.722656 321.890625 801.851562 323.371094 C 806.589844 322.367188 811.136719 320.652344 815.546875 318.683594 C 816.890625 318.097656 818.183594 317.4375 819.589844 317.015625 C 820.816406 323.476562 822.0625 329.941406 822.660156 336.488281 C 823.710938 347.726562 822.816406 359.027344 822.261719 370.273438 C 822.199219 371.445312 822.128906 372.621094 822.054688 373.792969 C 820.789062 372.433594 819.25 371.304688 817.558594 370.46875 C 812.117188 367.730469 805.167969 368.539062 800.472656 372.382812 C 800.421875 371.601562 800.363281 370.820312 800.300781 370.042969 C 799.550781 361.191406 797.546875 352.515625 796.414062 343.71875 C 795.621094 337.878906 795.082031 332 794.789062 326.113281 C 794.753906 325.433594 794.6875 323.910156 794.644531 323.066406 C 802.34375 320.667969 809.414062 316.046875 814.683594 309.945312 C 811.441406 312.433594 808.203125 314.867188 804.777344 317.074219 C 801.496094 319.214844 798.09375 321.105469 794.640625 322.96875 C 794.636719 322.902344 794.632812 322.839844 794.632812 322.785156 C 794.511719 320.921875 794.132812 319.074219 793.496094 317.324219 C 801.847656 315.875 809.589844 310.746094 814.191406 303.628906 C 808.171875 309.890625 801.601562 314.246094 793.476562 317.261719 C 793.355469 316.964844 793.011719 316.109375 792.902344 315.84375 C 792.007812 313.855469 791.167969 311.847656 790.40625 309.808594 C 789.46875 307.296875 788.628906 304.75 787.890625 302.167969 C 793.636719 301.175781 799.316406 299.832031 804.910156 298.183594 C 808.429688 297.136719 811.941406 295.949219 815.394531 294.640625 C 815.84375 297.058594 816.429688 300.171875 817.027344 303.355469 Z M 715.738281 208.183594 C 715.730469 208.558594 715.722656 208.933594 715.710938 209.308594 C 715.714844 209.699219 715.609375 210.09375 715.382812 210.414062 C 715.140625 210.746094 714.773438 211.007812 714.523438 211.34375 C 713.410156 212.738281 712.960938 214.515625 712.835938 216.265625 C 712.773438 218.0625 713.460938 219.773438 714.371094 221.277344 C 718.128906 227.074219 724.714844 230.957031 731.386719 232.429688 C 738.59375 233.984375 745.347656 232.003906 750.90625 227.242188 C 755.597656 223.269531 759.039062 216.910156 756.164062 210.875 C 755.945312 210.382812 755.644531 209.917969 755.480469 209.40625 C 757.300781 210.085938 758.769531 211.199219 759.671875 212.953125 C 761.285156 216.242188 760.351562 220.316406 758.980469 223.539062 C 755.589844 231.0625 746.800781 235.078125 738.984375 236.078125 C 735.359375 236.511719 731.65625 236.359375 728.117188 235.449219 C 723.714844 234.308594 719.433594 232.34375 716.027344 229.289062 C 712.4375 226.085938 710.757812 221.960938 710.804688 217.171875 C 710.8125 214.441406 711.632812 211.617188 713.605469 209.648438 C 714.21875 209.046875 714.894531 208.429688 715.738281 208.183594 Z M 647.921875 290.957031 C 647.921875 290.957031 647.652344 290.84375 647.652344 290.84375 C 647 290.550781 646.757812 289.792969 647.085938 289.144531 C 653.214844 273.660156 655.40625 256.988281 660.683594 241.230469 C 661.417969 239.03125 662.171875 236.824219 663.203125 234.757812 C 664.253906 232.710938 665.601562 230.8125 667.070312 229.042969 C 667.96875 227.953125 669.011719 226.894531 670.089844 225.988281 C 672.59375 224.058594 675.546875 222.695312 678.441406 221.410156 C 687.042969 217.710938 696.070312 215.070312 704.933594 212.074219 C 707.855469 211.128906 710.78125 210.191406 713.730469 209.328125 C 713.648438 209.394531 713.570312 209.464844 713.492188 209.53125 C 711.363281 211.449219 710.394531 214.347656 710.28125 217.15625 C 709.992188 223.347656 712.636719 228.1875 717.609375 231.765625 C 723.769531 236.171875 731.609375 238.167969 739.121094 237.164062 C 747.265625 236.105469 756.332031 231.765625 759.648438 223.820312 C 761.191406 219.902344 762.050781 214.609375 758.828125 211.320312 C 766.949219 215.171875 775.683594 217.484375 783.980469 220.894531 C 788.132812 222.617188 792.359375 224.351562 796.035156 226.949219 C 797.214844 227.828125 798.269531 228.890625 799.226562 230.011719 C 800.789062 231.859375 802.195312 233.855469 803.324219 236 C 804.878906 239.191406 805.859375 242.632812 806.882812 246.054688 C 808.957031 253.320312 810.710938 260.683594 812.359375 268.058594 C 813.902344 275.484375 815.910156 282.839844 818.515625 289.964844 L 818.90625 291.035156 C 818.957031 291.175781 818.976562 291.234375 819.003906 291.363281 C 819.09375 291.886719 818.785156 292.4375 818.292969 292.640625 C 811.066406 295.675781 803.621094 298.230469 796.042969 300.21875 C 793.292969 300.9375 790.527344 301.582031 787.746094 302.171875 C 787.808594 301.058594 787.871094 299.980469 787.929688 298.957031 C 788.433594 292.015625 788.703125 283.96875 789.207031 276.242188 C 793.917969 276.34375 799.03125 274.507812 802.558594 271.421875 C 800.253906 272.320312 798.039062 273.265625 795.714844 274.058594 C 793.570312 274.816406 791.410156 275.417969 789.21875 276.074219 C 789.269531 275.273438 789.324219 274.472656 789.382812 273.683594 C 791.164062 273.449219 792.914062 272.84375 794.5 271.925781 C 799.777344 268.921875 802.511719 262.457031 801.742188 256.539062 C 801.203125 262.214844 798.847656 267.902344 794.03125 271.191406 C 792.625 272.179688 791.058594 272.953125 789.394531 273.554688 C 789.660156 269.960938 789.992188 266.476562 790.4375 263.242188 C 791.523438 256.171875 793.191406 249.191406 795.4375 242.398438 C 795.820312 241.265625 796.210938 240.136719 796.621094 239.015625 C 797.019531 237.886719 797.449219 236.773438 797.878906 235.65625 C 793.484375 245.496094 790.492188 255.984375 789.046875 266.671875 C 787.882812 277.269531 787.503906 288.238281 786.847656 298.898438 C 786.542969 304.378906 786.25 311.328125 786.007812 316.820312 C 785.730469 327.558594 785.894531 338.367188 786.3125 349.105469 C 786.386719 338.441406 786.484375 327.488281 786.933594 316.851562 C 787.183594 312.441406 787.476562 306.992188 787.746094 302.195312 C 787.792969 302.1875 787.84375 302.179688 787.890625 302.167969 C 788.464844 304.792969 789.167969 307.390625 790.003906 309.949219 C 790.675781 312.03125 791.453125 314.082031 792.285156 316.105469 L 792.457031 316.570312 C 792.457031 316.570312 792.78125 317.460938 792.792969 317.488281 C 792.796875 317.492188 792.796875 317.503906 792.796875 317.503906 C 793.246094 318.882812 793.558594 320.308594 793.695312 321.75 C 793.832031 323.203125 793.789062 324.6875 793.851562 326.152344 C 794.042969 332.074219 794.535156 337.988281 795.316406 343.867188 C 796.457031 352.664062 798.550781 361.304688 799.535156 370.121094 C 800.183594 375.835938 800.507812 381.609375 800.566406 387.363281 C 799.554688 387.828125 798.597656 388.40625 798.070312 389.414062 C 797.679688 390.113281 797.574219 390.921875 797.621094 391.707031 C 797.628906 392.265625 797.640625 392.824219 797.65625 393.382812 C 797.519531 393.519531 797.390625 393.660156 797.265625 393.800781 C 797.265625 393.800781 797.265625 393.804688 797.265625 393.804688 C 794.09375 397.21875 791.214844 400.910156 788.71875 404.847656 C 788.695312 404.886719 788.671875 404.921875 788.648438 404.957031 C 788.601562 401.207031 788.46875 397.222656 788.332031 393.511719 C 788.171875 387.363281 787.878906 380.140625 787.5625 373.972656 C 787.199219 365.699219 786.84375 357.375 786.3125 349.109375 C 786.058594 357.574219 786.183594 366.164062 786.519531 374.699219 C 784.382812 377.464844 781.734375 379.863281 778.566406 381.371094 C 775.746094 382.757812 772.585938 383.199219 769.78125 384.726562 C 765.953125 386.804688 763.699219 391.011719 763.300781 395.246094 C 764.3125 391.480469 766.371094 387.839844 769.835938 385.878906 C 771.75 384.785156 773.976562 384.273438 776.078125 383.535156 C 780.46875 382.105469 784.273438 378.957031 786.527344 374.960938 C 786.660156 378.210938 786.816406 381.453125 786.996094 384.675781 C 787.160156 387.75 787.351562 390.824219 787.578125 393.890625 C 785.875 394.648438 784.199219 395.4375 782.492188 396.167969 C 781.882812 396.421875 781.277344 396.683594 780.664062 396.914062 C 779.789062 397.210938 778.914062 397.605469 778.003906 397.605469 C 777.996094 397.605469 777.992188 397.601562 777.988281 397.601562 C 778.066406 397.359375 778.25 397.089844 778.398438 396.859375 C 778.957031 396.050781 779.574219 395.273438 780.152344 394.460938 C 783.304688 390.136719 785.410156 384.910156 785.710938 379.550781 C 784.394531 385.46875 781.761719 390.652344 778.089844 395.433594 C 777.632812 396.148438 776.488281 397.351562 777.117188 398.230469 C 778.269531 399.910156 785.449219 395.363281 787.582031 393.964844 C 787.855469 397.675781 788.179688 401.382812 788.570312 405.085938 C 788.390625 405.371094 788.214844 405.65625 788.039062 405.941406 C 783.753906 405.890625 778.21875 405.832031 774.089844 405.730469 C 764.695312 405.5625 754.390625 405.199219 744.972656 404.800781 C 735.585938 404.40625 726.183594 404.125 716.828125 403.191406 C 714.191406 402.90625 711.363281 402.550781 708.769531 402.011719 C 706.410156 401.539062 704.078125 400.925781 701.855469 400.039062 C 699.605469 399.117188 697.285156 398.273438 694.929688 397.652344 C 687.867188 395.738281 680.390625 395.363281 673.179688 396.554688 C 681.609375 395.550781 690.214844 396.535156 698.164062 399.480469 C 699.871094 400.101562 701.539062 400.875 703.25 401.5 C 704.292969 401.855469 705.71875 402.289062 706.78125 402.550781 C 710.003906 403.351562 713.417969 403.851562 716.714844 404.242188 C 721.242188 404.730469 725.824219 405.03125 730.367188 405.269531 C 747.359375 406.050781 764.367188 406.550781 781.375 406.15625 C 783.011719 406.125 786.078125 406.039062 788.023438 405.972656 C 787.027344 407.605469 786.09375 409.269531 785.132812 410.929688 C 784.929688 411.289062 784.722656 411.667969 784.511719 412.050781 C 782.808594 412.066406 778.132812 412.113281 778.132812 412.113281 C 761.824219 412.230469 745.53125 411.417969 729.257812 410.460938 C 722.296875 410.035156 715.332031 409.617188 708.453125 408.460938 C 705.917969 408.039062 703.3125 407.441406 700.855469 406.695312 C 700.074219 406.417969 699.167969 406.152344 698.410156 405.832031 C 697.324219 405.417969 696.261719 404.941406 695.171875 404.519531 C 688.800781 402.027344 681.777344 401.253906 675.015625 402.292969 C 673.972656 400.65625 672.863281 399.0625 671.691406 397.515625 C 672.332031 394.660156 672.976562 391.800781 673.582031 388.9375 C 675.132812 390.09375 676.65625 389.894531 678.199219 388.8125 C 679.28125 388.089844 680.488281 387.714844 681.78125 387.820312 C 682.59375 387.851562 683.886719 388.441406 684.210938 387.269531 C 684.273438 386.972656 684.210938 386.75 684.15625 386.570312 C 683.917969 385.941406 683.570312 385.535156 683.203125 385.035156 C 682.519531 384.164062 681.832031 383.34375 681.1875 382.484375 C 679.207031 379.914062 677.746094 377.066406 676.769531 373.933594 C 677.21875 378.578125 679.425781 382.179688 682.328125 385.714844 C 682.597656 386.070312 682.972656 386.539062 683.117188 386.929688 C 682.96875 386.917969 682.742188 386.886719 682.695312 386.882812 C 680.949219 386.589844 679.132812 387.074219 677.785156 388.210938 C 676.417969 389.390625 675.230469 389.660156 673.589844 388.910156 C 673.902344 387.417969 674.207031 385.925781 674.492188 384.425781 C 675.832031 377.632812 677.027344 370.78125 677.914062 363.90625 C 678.183594 367.375 679.125 370.851562 681.019531 373.792969 C 681.800781 375.03125 682.804688 376.132812 683.796875 377.1875 C 687.824219 381.285156 691.34375 385.714844 694.292969 390.65625 C 692.136719 385.296875 688.605469 380.5625 684.605469 376.429688 C 680.640625 372.585938 678.949219 367.972656 678.0625 362.722656 C 678.121094 362.253906 678.183594 361.785156 678.238281 361.316406 L 678.238281 361.273438 C 678.238281 361.273438 678.238281 361.269531 678.238281 361.269531 C 678.226562 361.425781 678.78125 355.980469 679.078125 353.082031 C 680.039062 358.820312 681.753906 364.46875 684.289062 369.714844 C 687.8125 377.261719 693.332031 383.695312 699.398438 389.320312 C 701.355469 391.207031 703.480469 392.96875 705.234375 395.027344 C 705.503906 395.359375 705.761719 395.722656 705.871094 396.03125 C 705.902344 396.105469 705.910156 396.171875 705.917969 396.21875 C 705.921875 396.269531 705.914062 396.289062 705.90625 396.304688 C 705.902344 396.320312 705.90625 396.316406 705.871094 396.34375 C 705.503906 396.539062 705.019531 396.507812 704.523438 396.492188 C 703.191406 396.394531 701.875 396.082031 700.574219 395.75 C 697.058594 394.816406 693.601562 393.628906 690.253906 392.1875 C 687.714844 391.136719 685.15625 389.78125 682.335938 389.753906 C 679.539062 389.707031 676.835938 390.929688 674.742188 392.730469 C 676.90625 391.097656 679.585938 390.03125 682.320312 390.179688 C 685.0625 390.335938 687.503906 391.742188 689.960938 392.847656 C 692.433594 394.0625 704.882812 399.132812 706.6875 397.015625 C 707.40625 396.152344 706.625 395.0625 706.070312 394.359375 C 704.265625 392.21875 702.140625 390.445312 700.15625 388.515625 C 692.007812 381.136719 685.359375 372.300781 681.746094 361.839844 C 680.65625 358.875 679.808594 355.820312 679.113281 352.730469 C 679.199219 351.871094 679.257812 351.308594 679.257812 351.320312 L 679.257812 351.300781 C 680.542969 335.960938 681.125 320.546875 680.5 305.160156 C 680.175781 297.453125 679.738281 289.757812 678.628906 282.113281 C 678.457031 280.894531 677.964844 277.523438 677.800781 276.363281 L 677.660156 275.40625 C 677.632812 275.089844 677.53125 274.789062 677.453125 274.484375 C 677.304688 273.882812 677.191406 273.265625 677.121094 272.648438 C 677.042969 272.019531 677.027344 271.414062 677.019531 270.769531 C 676.996094 269.785156 676.886719 268.800781 676.695312 267.835938 C 676.609375 267.414062 676.464844 266.882812 676.429688 266.453125 C 676.164062 264.125 675.949219 261.640625 675.902344 259.296875 C 675.625 249.050781 675.71875 238.796875 675.855469 228.550781 C 675.382812 239.4375 675.027344 250.339844 675.242188 261.242188 C 675.269531 262.703125 675.453125 264.601562 675.582031 266.058594 L 675.632812 266.539062 C 675.648438 266.707031 675.664062 266.855469 675.691406 267.039062 C 675.691406 267.039062 675.792969 267.527344 675.792969 267.527344 C 675.890625 268.019531 675.96875 268.40625 676.03125 268.917969 C 676.128906 269.574219 676.148438 270.234375 676.160156 270.894531 C 674.960938 270.40625 673.804688 269.84375 672.699219 269.175781 L 672.636719 269.136719 C 672.636719 269.136719 672.636719 269.136719 672.632812 269.136719 C 667.757812 266.222656 664.515625 261.429688 663.171875 255.945312 C 663.171875 261.492188 666.585938 266.800781 671.4375 269.410156 C 669.429688 269.183594 667.488281 268.777344 665.605469 268.046875 C 661.902344 266.679688 658.773438 264.210938 656.136719 261.277344 C 658.316406 265.679688 662.800781 268.878906 667.65625 269.613281 C 669.058594 269.824219 670.484375 269.84375 671.867188 269.632812 C 672.023438 269.710938 672.179688 269.785156 672.335938 269.855469 L 672.441406 269.90625 C 672.441406 269.90625 672.449219 269.902344 672.453125 269.902344 C 673.628906 270.429688 674.894531 270.824219 676.160156 271.011719 C 676.171875 271.589844 676.183594 272.167969 676.246094 272.746094 C 676.332031 273.5625 676.480469 274.382812 676.699219 275.175781 C 676.75 275.328125 676.75 275.492188 676.777344 275.648438 C 676.777344 275.648438 676.902344 276.59375 676.902344 276.59375 C 677.058594 277.722656 677.511719 281.132812 677.671875 282.269531 C 678.515625 288.472656 678.933594 294.746094 679.230469 301.007812 C 668.519531 298.703125 657.984375 295.339844 647.921875 290.957031 Z M 666.898438 388.660156 C 666.550781 387.273438 665.519531 386.453125 664.277344 385.871094 C 664.226562 385.84375 664.175781 385.820312 664.125 385.796875 C 664.320312 377.773438 664.988281 369.785156 666.394531 361.90625 C 667.492188 355.648438 668.890625 349.457031 669.832031 343.164062 C 670.917969 335.984375 671.566406 328.703125 671.769531 321.449219 C 671.851562 319.675781 672.191406 317.917969 672.75 316.222656 C 673.347656 314.539062 674.125 312.871094 674.75 311.183594 C 676.035156 307.789062 677.105469 304.308594 677.921875 300.789062 C 678.359375 300.871094 678.792969 300.949219 679.230469 301.027344 C 679.296875 302.421875 679.355469 303.8125 679.414062 305.203125 C 679.996094 320.503906 679.472656 336.121094 678.335938 351.246094 C 678.335938 351.25 677.421875 361.398438 677.441406 361.230469 C 676.722656 368.199219 675.65625 375.140625 674.523438 382.054688 C 673.667969 387.207031 672.660156 392.367188 671.675781 397.492188 C 670.347656 395.738281 668.945312 394.042969 667.472656 392.414062 C 667.308594 392.210938 667.136719 392.015625 666.957031 391.832031 C 666.976562 391.410156 666.992188 390.988281 667.003906 390.5625 C 667.019531 389.929688 667.078125 389.28125 666.898438 388.660156 Z M 642.066406 345.847656 C 642.128906 338.332031 642.953125 330.871094 644.386719 323.492188 C 644.90625 320.816406 645.460938 318.023438 646.027344 315.1875 C 647.429688 315.628906 648.714844 316.308594 650.054688 316.914062 C 654.4375 318.941406 658.960938 320.722656 663.6875 321.78125 C 660.835938 320.261719 657.875 319.019531 654.890625 317.8125 C 653.398438 317.21875 651.902344 316.636719 650.378906 316.109375 C 648.980469 315.652344 647.535156 315.136719 646.050781 315.074219 C 646.316406 313.742188 646.585938 312.398438 646.859375 311.050781 C 648.53125 311.925781 650.074219 312.992188 651.667969 314 C 656.761719 317.234375 662.015625 320.242188 667.523438 322.722656 C 662.640625 319.148438 657.417969 316.125 652.105469 313.25 C 650.425781 312.378906 648.714844 311.464844 646.875 310.96875 C 647.5 307.867188 648.132812 304.75 648.753906 301.683594 C 651.304688 308.476562 662.574219 315.816406 669.0625 318.203125 L 666.226562 316.386719 C 663.414062 314.570312 660.65625 312.671875 658.007812 310.632812 C 656.246094 309.273438 654.511719 307.878906 652.886719 306.371094 C 651.347656 304.929688 649.855469 303.394531 648.773438 301.570312 C 649.375 298.59375 649.964844 295.671875 650.523438 292.875 C 659.378906 296.363281 668.585938 299.023438 677.917969 300.789062 C 676.867188 304.246094 675.664062 307.664062 674.246094 310.980469 C 673.574219 312.601562 672.800781 314.144531 672.148438 315.78125 C 670.269531 315.03125 668.429688 314.234375 666.648438 313.332031 C 660.949219 310.496094 655.96875 306.507812 651.605469 301.878906 C 656.121094 309.050781 663.785156 314.292969 672.121094 315.847656 C 672.105469 315.894531 672.085938 315.9375 672.066406 315.984375 C 671.425781 317.71875 671.039062 319.546875 670.90625 321.394531 C 670.90625 321.421875 670.902344 321.445312 670.902344 321.472656 C 667.472656 319.5625 664.097656 317.625 660.84375 315.445312 C 657.445312 313.195312 654.238281 310.722656 651.03125 308.1875 C 656.222656 314.355469 663.226562 319.074219 670.894531 321.570312 C 670.605469 326.917969 670.160156 332.316406 669.488281 337.625 C 668.433594 346.636719 666.34375 355.46875 665.09375 364.457031 C 664.808594 366.570312 664.585938 368.6875 664.414062 370.8125 C 662.960938 369.601562 661.273438 368.652344 659.457031 368.023438 C 653.78125 365.972656 646.964844 367.550781 642.816406 371.921875 C 642.347656 363.234375 642.097656 354.53125 642.066406 345.847656 Z M 642.824219 372.050781 C 647.578125 368.707031 653.550781 367.320312 659.207031 368.855469 C 660.996094 369.3125 662.726562 370.03125 664.40625 370.90625 C 664.007812 375.859375 663.914062 380.832031 664.101562 385.785156 C 663.027344 385.261719 661.902344 384.808594 660.734375 384.507812 C 655.75 383.089844 650.226562 384.347656 646.410156 387.871094 C 645.570312 388.644531 644.804688 389.488281 644.144531 390.40625 C 643.597656 384.300781 643.15625 378.179688 642.824219 372.050781 Z M 667.550781 655.199219 C 667.78125 657.023438 667.855469 658.933594 667.878906 659.671875 C 668 663.820312 668.125 668.113281 665.714844 669.710938 C 664.933594 670.234375 664.121094 670.328125 663.421875 670.375 C 659.710938 670.636719 654.871094 669.964844 649.429688 668.433594 C 648.921875 668.289062 648.398438 668.21875 647.871094 668.21875 C 647.375 668.21875 646.878906 668.28125 646.394531 668.40625 C 639.144531 670.285156 632.410156 670.085938 626.363281 667.8125 C 623.585938 666.765625 617.085938 664.3125 616.699219 660.046875 C 616.460938 657.425781 618.660156 655.273438 618.683594 655.25 C 620.195312 653.769531 621.769531 653.75 623.761719 653.722656 C 625.515625 653.699219 627.507812 653.671875 629.9375 652.679688 C 633.921875 651.054688 636.816406 647.707031 640.179688 643.820312 C 640.605469 643.328125 640.984375 642.871094 641.347656 642.433594 C 642.894531 640.5625 643.917969 639.324219 645.734375 638.941406 C 647.644531 638.535156 649.816406 639.449219 651.304688 640.289062 C 655.886719 642.875 658.484375 647.125 660.382812 650.230469 C 661.949219 652.800781 662.988281 654.496094 664.4375 654.183594 C 665.328125 653.996094 665.746094 653.128906 666.085938 652.433594 C 666.210938 652.175781 666.417969 651.746094 666.539062 651.675781 C 666.605469 651.707031 667.152344 652.074219 667.550781 655.199219 Z M 688.1875 530.386719 C 687.015625 533.207031 686.355469 536.242188 686.054688 539.273438 C 685.730469 543.050781 685.984375 546.847656 685.917969 550.601562 C 685.898438 553.484375 685.769531 556.367188 685.578125 559.25 C 685.378906 559.09375 685.15625 558.957031 684.917969 558.859375 C 684.605469 558.730469 683.960938 558.59375 683.632812 558.503906 C 680.277344 557.667969 676.886719 556.984375 673.46875 556.46875 C 672.328125 556.300781 671.1875 556.152344 670.042969 556.019531 C 674.578125 556.773438 679.078125 557.753906 683.492188 559.027344 C 683.492188 559.027344 684.320312 559.265625 684.320312 559.265625 C 685.070312 559.449219 685.695312 560.035156 685.902344 560.769531 C 685.972656 561.011719 686 561.265625 685.984375 561.511719 L 685.910156 562.363281 C 685.855469 562.933594 685.792969 563.503906 685.730469 564.070312 C 684.945312 570.894531 683.390625 577.628906 681.023438 584.074219 C 679.414062 588.300781 677.648438 592.746094 676.246094 597.039062 C 671.738281 610.984375 667.839844 625.339844 666.625 639.984375 C 666.492188 643.359375 666.5625 647.304688 666.574219 650.753906 C 665.890625 650.71875 665.550781 651.414062 665.253906 652.03125 C 664.992188 652.574219 664.691406 653.1875 664.246094 653.28125 C 663.4375 653.453125 662.382812 651.738281 661.167969 649.75 C 659.21875 646.558594 656.546875 642.1875 651.757812 639.484375 C 649.503906 638.214844 647.5 637.714844 645.792969 637.992188 C 646.066406 637.101562 646.324219 636.199219 646.550781 635.292969 C 647.617188 630.984375 648.179688 626.539062 648.152344 622.09375 C 647.90625 602.621094 645.84375 583.144531 646.582031 563.667969 C 658.550781 566.285156 670.851562 567.46875 683.097656 567.175781 C 671.136719 565.976562 658.554688 564.761719 646.582031 563.609375 C 646.640625 562.113281 646.710938 560.613281 646.804688 559.113281 C 646.804688 559.113281 646.886719 557.460938 646.886719 557.460938 C 646.921875 556.375 647.871094 555.46875 648.953125 555.46875 C 648.953125 555.46875 649.363281 555.445312 649.363281 555.445312 C 656.253906 555.03125 663.183594 555.246094 670.042969 556.019531 C 663.207031 554.894531 656.253906 554.464844 649.328125 554.699219 C 649.328125 554.699219 648.914062 554.714844 648.914062 554.714844 C 648.554688 554.707031 648.203125 554.78125 647.878906 554.914062 C 648.046875 553.566406 648.257812 552.226562 648.519531 550.898438 C 648.824219 549.425781 649.160156 547.960938 649.585938 546.519531 C 651.265625 540.703125 654.382812 535.476562 656.375 529.753906 C 658.425781 524.015625 659.222656 517.941406 660.058594 511.949219 C 661.320312 503.148438 661.871094 494.203125 661.46875 485.324219 C 667.15625 484.777344 672.882812 484.757812 678.574219 485.214844 C 682.386719 485.542969 686.179688 486.074219 689.929688 486.839844 C 694.523438 487.773438 699.035156 489.046875 703.441406 490.628906 C 698.183594 503.53125 693.226562 517.398438 688.1875 530.386719 Z M 752.808594 649.261719 C 754.503906 650.027344 755.242188 651.453125 756.355469 653.613281 C 756.617188 654.117188 756.886719 654.640625 757.203125 655.21875 C 759.652344 659.722656 761.769531 663.609375 765.320312 666.050781 C 767.484375 667.535156 769.421875 667.984375 771.132812 668.382812 C 773.074219 668.832031 774.605469 669.1875 775.769531 670.953125 C 775.839844 671.0625 777.472656 673.578125 776.6875 676.066406 C 775.402344 680.160156 768.519531 681.164062 765.582031 681.597656 C 759.199219 682.53125 752.574219 681.289062 745.890625 677.910156 C 745.070312 677.496094 744.167969 677.28125 743.265625 677.28125 C 743.148438 677.28125 743.035156 677.285156 742.921875 677.292969 C 737.285156 677.628906 732.414062 677.257812 728.835938 676.210938 C 728.164062 676.015625 727.390625 675.75 726.734375 675.074219 C 724.722656 672.996094 725.757812 668.832031 726.761719 664.800781 C 726.9375 664.089844 727.414062 662.25 728.027344 660.523438 C 729.078125 657.550781 729.679688 657.296875 729.769531 657.277344 C 729.875 657.375 729.984375 657.820312 730.054688 658.117188 C 730.238281 658.867188 730.464844 659.800781 731.289062 660.175781 C 732.640625 660.789062 734.015625 659.351562 736.09375 657.175781 C 738.609375 654.546875 742.054688 650.941406 747.078125 649.394531 C 749.132812 648.761719 750.929688 648.644531 752.273438 649.058594 C 752.503906 649.132812 752.683594 649.207031 752.808594 649.261719 Z M 769.582031 544.382812 C 769.226562 544.410156 768.871094 544.515625 768.550781 544.71875 C 765.226562 546.453125 761.667969 547.730469 758.007812 548.539062 C 761.722656 547.90625 765.339844 546.722656 768.738281 545.089844 C 769.730469 544.476562 771.140625 544.984375 771.472656 546.101562 C 771.566406 546.378906 771.566406 546.667969 771.589844 546.964844 L 771.65625 547.898438 C 771.78125 549.882812 771.855469 551.871094 771.882812 553.859375 C 759.535156 557.113281 746.714844 558.070312 734.019531 556.6875 C 746.503906 559.589844 759.957031 558.613281 771.882812 553.90625 C 771.929688 557.519531 771.808594 561.136719 771.507812 564.738281 C 771.304688 567.226562 771.019531 569.707031 770.648438 572.171875 C 769.746094 578.355469 767.941406 584.324219 766.148438 590.324219 C 764.003906 597.527344 761.792969 604.703125 759.480469 611.851562 C 756.386719 621.378906 753.101562 631.003906 752.59375 641.097656 C 752.433594 643.441406 752.367188 645.789062 752.398438 648.136719 C 750.882812 647.710938 749.003906 647.835938 746.808594 648.511719 C 741.550781 650.132812 738.011719 653.835938 735.425781 656.539062 C 733.816406 658.222656 732.425781 659.675781 731.671875 659.335938 C 731.253906 659.144531 731.09375 658.484375 730.953125 657.898438 C 730.820312 657.351562 730.695312 656.835938 730.34375 656.550781 C 730.273438 656.496094 730.203125 656.453125 730.128906 656.421875 C 731.089844 650.324219 731.777344 644.105469 732.214844 637.949219 C 733.910156 616.0625 730.5 594.183594 731.273438 572.289062 C 731.480469 564.28125 731.96875 556.269531 732.800781 548.304688 C 732.96875 547.296875 734.109375 546.648438 735.066406 546.996094 C 735.570312 547.164062 736.457031 547.460938 736.96875 547.609375 C 739.523438 548.375 742.144531 548.902344 744.796875 549.199219 C 747.785156 549.515625 750.828125 549.542969 753.820312 549.214844 C 755.214844 549.070312 756.628906 548.824219 758.007812 548.539062 C 757.355469 548.644531 756.570312 548.761719 755.910156 548.847656 C 752.421875 549.269531 748.859375 549.285156 745.371094 548.832031 C 742.585938 548.484375 739.832031 547.855469 737.160156 547 C 736.84375 546.902344 735.957031 546.59375 735.667969 546.488281 C 735.667969 546.488281 735.417969 546.402344 735.417969 546.402344 C 735.101562 546.265625 734.761719 546.203125 734.421875 546.210938 C 734.359375 539.941406 734.414062 533.695312 734.78125 527.441406 C 734.902344 525.328125 735.023438 523.183594 735.058594 521.046875 C 735.15625 512.648438 734.308594 504.234375 732.644531 496.003906 C 733.0625 496.023438 734.0625 496.027344 734.523438 496.039062 C 747.617188 496.230469 760.730469 495.433594 773.707031 493.671875 C 769.410156 510.160156 768.410156 527.421875 769.582031 544.382812 Z M 795.433594 482.359375 L 795.898438 486.25 C 795.898438 486.25 795.957031 486.738281 795.957031 486.738281 C 796.101562 487.710938 795.417969 488.710938 794.460938 488.921875 L 794.351562 488.949219 L 794.234375 488.972656 L 793.753906 489.074219 L 792.796875 489.277344 C 774.289062 493.128906 755.390625 495.101562 736.484375 495.226562 C 735.875 495.226562 734.125 495.238281 733.550781 495.226562 C 733.289062 495.230469 732.796875 495.222656 732.566406 495.21875 C 732.140625 495.199219 731.378906 494.875 731.070312 494.398438 C 730.644531 493.875 730.636719 493.273438 730.570312 492.59375 C 730.371094 490.558594 730 488.332031 729.621094 486.3125 C 728.953125 482.859375 727.828125 479.511719 727.460938 476.007812 C 727.140625 472.886719 727.144531 469.433594 727.066406 466.160156 C 727.238281 465.234375 727.390625 464.304688 727.515625 463.371094 C 728.085938 459.679688 728.253906 454.996094 728.277344 450.972656 C 728.363281 440.617188 729.15625 430.28125 730.523438 420.015625 C 730.796875 417.960938 731.097656 415.910156 731.398438 413.859375 C 730.988281 415.890625 730.589844 417.925781 730.246094 419.972656 C 728.816406 428.152344 727.867188 436.429688 727.464844 444.726562 C 727.15625 450.816406 727.316406 457.566406 726.421875 463.300781 C 725.777344 467.8125 724.597656 472.171875 723.277344 476.535156 C 721.363281 483.132812 719.9375 489.863281 718.910156 496.652344 C 718.734375 497.925781 717.667969 499.015625 716.382812 499.210938 C 711.148438 500.097656 705.789062 500.203125 700.519531 499.554688 C 701.523438 496.589844 702.507812 493.617188 703.464844 490.636719 C 708.066406 492.289062 712.554688 494.28125 716.886719 496.589844 C 715.121094 495.507812 713.316406 494.496094 711.472656 493.550781 C 709.804688 483.933594 707.527344 474.433594 704.960938 465.023438 C 702.253906 455.273438 699.152344 445.683594 689.371094 440.933594 C 690.675781 441.710938 691.914062 442.648438 693.0625 443.644531 C 693.242188 443.777344 693.578125 444.117188 693.734375 444.261719 C 693.734375 444.261719 694.394531 444.890625 694.394531 444.890625 C 694.691406 445.203125 695.019531 445.582031 695.316406 445.894531 C 695.515625 446.085938 696.007812 446.742188 696.183594 446.945312 C 696.359375 447.160156 696.582031 447.4375 696.730469 447.671875 C 697.234375 448.351562 697.78125 449.226562 698.222656 449.945312 C 698.476562 450.421875 698.855469 451.0625 699.089844 451.542969 C 701.269531 455.898438 702.601562 460.625 703.894531 465.316406 C 705.210938 470.039062 706.46875 474.78125 707.734375 479.515625 C 708.976562 484.183594 710.195312 488.875 711.453125 493.539062 C 701.289062 488.316406 690.050781 485.128906 678.664062 484.136719 C 672.886719 483.628906 667.050781 483.6875 661.28125 484.289062 C 660.535156 484.378906 659.816406 483.714844 659.820312 482.960938 C 659.820312 482.847656 659.816406 482.542969 659.816406 482.425781 C 659.730469 472.203125 660.246094 462.003906 661.265625 451.824219 C 662.085938 452.105469 662.929688 452.132812 663.789062 451.820312 C 664.71875 451.4375 665.425781 450.710938 665.992188 449.902344 C 668.375 450.433594 670.5625 448.601562 671.765625 446.085938 C 672.644531 444.289062 672.496094 442.203125 671.800781 440.382812 C 671.375 439.199219 670.824219 438.105469 670.289062 437.015625 C 669.214844 434.859375 668.148438 432.71875 667.3125 430.464844 C 666.929688 429.4375 666.535156 428.21875 666.246094 427.164062 C 666.230469 427.097656 666.222656 427.066406 666.179688 426.960938 C 666.179688 426.960938 666.226562 427.171875 666.226562 427.171875 C 666.175781 426.953125 666.121094 426.738281 666.066406 426.519531 C 666.761719 424.96875 667.230469 423.355469 667.636719 421.710938 C 668.078125 419.832031 668.414062 417.945312 668.445312 416 C 667.558594 417.734375 667.023438 419.582031 666.5625 421.453125 C 666.246094 422.820312 665.976562 424.191406 665.847656 425.582031 C 665.539062 424.238281 665.269531 422.882812 665.097656 421.511719 C 664.855469 419.640625 664.707031 417.753906 664.722656 415.863281 C 664.75 414.464844 664.789062 413.035156 665.164062 411.683594 C 665.28125 411.277344 665.539062 410.722656 665.734375 411.03125 C 666.234375 411.613281 666.742188 412.796875 667.117188 413.46875 C 667.554688 414.3125 667.996094 415.160156 668.445312 416 C 668.074219 415.160156 667.058594 412.882812 666.699219 412.082031 C 666.433594 411.585938 666.277344 411.007812 665.808594 410.648438 C 664.890625 410.234375 664.554688 412.34375 664.421875 412.976562 C 663.683594 417.550781 664.269531 423.144531 665.296875 427.171875 L 665.347656 427.378906 C 665.332031 427.363281 665.316406 427.300781 665.328125 427.339844 L 665.34375 427.398438 C 665.34375 427.398438 665.371094 427.507812 665.371094 427.507812 C 665.640625 428.554688 666.023438 429.78125 666.382812 430.800781 C 667.191406 433.101562 668.246094 435.320312 669.328125 437.492188 C 670.296875 439.550781 671.519531 441.753906 671.230469 444.050781 C 670.953125 446.023438 669.34375 448.4375 667.304688 448.898438 C 666.3125 449.101562 665.277344 448.625 664.414062 447.902344 C 661.183594 445.039062 659.023438 439.605469 657.28125 435.648438 C 655.394531 431.207031 654.070312 426.546875 653.257812 421.785156 C 653.941406 429.042969 656.324219 436.0625 659.511719 442.613281 C 660.640625 444.816406 661.863281 447 663.753906 448.683594 C 664.472656 449.324219 665.191406 449.707031 665.898438 449.882812 C 665.015625 450.808594 663.890625 451.636719 662.597656 451.519531 C 658.992188 451.136719 655.929688 444.488281 654.453125 441.503906 C 651.789062 436.019531 649.710938 430.308594 648.386719 424.335938 C 648.742188 428.929688 649.894531 433.472656 651.609375 437.75 C 652.894531 440.875 656.269531 449.027344 660.339844 451.390625 C 658.4375 451.378906 657.09375 450.195312 655.855469 448.746094 C 654.53125 447.191406 653.347656 445.503906 652.226562 443.796875 C 648.355469 438.097656 646.101562 431.566406 644.402344 424.925781 C 644.664062 428.027344 645.328125 431.117188 646.269531 434.09375 C 646.8125 435.75 647.433594 437.382812 648.160156 438.964844 C 649.6875 442.117188 651.664062 445.023438 653.90625 447.695312 C 654.742188 448.660156 655.71875 449.753906 656.835938 450.53125 C 655.515625 450.652344 654.351562 449.78125 653.582031 448.742188 L 652.222656 447.054688 C 651.296875 445.949219 650.15625 444.34375 649.292969 443.183594 C 649.292969 443.183594 648.992188 442.734375 648.992188 442.734375 C 648.992188 442.734375 648.394531 441.835938 648.394531 441.835938 C 648.042969 441.304688 647.535156 440.589844 647.21875 440.035156 C 644.242188 435.199219 641.730469 429.902344 640.929688 424.25 C 640.464844 420.660156 641.667969 417.25 642.4375 413.78125 C 643.160156 410.578125 643.527344 407.292969 643.589844 404.023438 C 643.628906 403.242188 643.597656 401.574219 643.605469 400.753906 C 643.585938 400.074219 643.625 399.351562 643.808594 398.695312 C 644.136719 397.324219 645 396.164062 645.984375 395.175781 C 647.476562 393.621094 649.222656 392.308594 651.140625 391.324219 C 651.851562 391.039062 652.566406 390.769531 653.304688 390.574219 C 655.488281 389.945312 657.789062 389.730469 660.050781 389.894531 C 662.324219 390.066406 664.46875 390.394531 666.109375 392.121094 C 668.613281 394.957031 670.925781 398.003906 673.019531 401.152344 C 674.644531 403.605469 676.257812 406.414062 677.695312 408.988281 C 679.492188 412.269531 681.375 415.628906 682.074219 419.328125 C 682.664062 422.492188 681.480469 425.003906 678.382812 426.113281 C 677.625 426.371094 676.8125 426.488281 676.015625 426.398438 C 675.394531 426.332031 674.882812 426.09375 674.425781 425.644531 C 672.855469 424.035156 671.789062 421.960938 670.648438 420.019531 C 669.894531 418.691406 669.175781 417.34375 668.445312 416 C 669 417.21875 669.78125 418.988281 670.378906 420.164062 C 671.4375 422.21875 672.402344 424.359375 673.984375 426.101562 C 675.128906 427.371094 677.113281 427.34375 678.632812 426.871094 C 681.054688 426.117188 682.941406 424.175781 683.152344 421.582031 C 683.507812 417.152344 680.691406 412.253906 678.660156 408.449219 C 677.917969 407.132812 677.144531 405.757812 676.351562 404.46875 C 675.925781 403.746094 675.484375 403.027344 675.035156 402.320312 C 677.617188 402.050781 680.226562 402.019531 682.816406 402.238281 C 685.585938 408.398438 688.488281 414.550781 691.808594 420.4375 C 695.5625 427.058594 700.445312 433.15625 706.824219 437.421875 C 708.363281 438.402344 710.007812 439.285156 711.757812 439.859375 C 714.335938 440.765625 716.855469 440.632812 719.414062 439.707031 C 721.957031 438.8125 724.054688 436.964844 721.183594 434.804688 C 719.410156 433.515625 717.28125 432.851562 715.183594 432.339844 C 716.546875 432.777344 717.894531 433.296875 719.152344 433.976562 C 720.65625 434.785156 723.496094 436.660156 721.054688 438.175781 C 720.492188 438.546875 719.84375 438.8125 719.179688 439.023438 C 717.871094 439.421875 716.445312 439.695312 715.085938 439.625 C 712.308594 439.410156 709.707031 438.066406 707.398438 436.550781 C 699.0625 430.890625 693.59375 422.148438 688.902344 413.421875 C 686.957031 409.882812 684.78125 405.808594 682.832031 402.238281 C 684.671875 402.394531 686.503906 402.671875 688.304688 403.085938 C 690.558594 403.597656 692.773438 404.296875 694.902344 405.1875 C 696.515625 405.875 698.105469 406.636719 699.765625 407.199219 C 702.527344 408.191406 705.402344 408.894531 708.28125 409.414062 C 715.183594 410.671875 722.210938 411.117188 729.195312 411.566406 C 734.0625 411.84375 738.9375 412.09375 743.8125 412.292969 C 742.773438 416.578125 742.03125 420.9375 741.554688 425.324219 C 741.050781 429.886719 740.910156 434.488281 740.773438 439.0625 C 740.644531 444.171875 740.410156 449.316406 739.046875 454.253906 C 738.007812 458.097656 736.382812 461.78125 734.367188 465.21875 C 743.730469 452.480469 741.242188 440.042969 742.417969 425.402344 C 742.734375 421.027344 743.242188 416.660156 743.863281 412.296875 C 746.097656 412.386719 748.335938 412.46875 750.570312 412.535156 C 749.457031 425.535156 747.417969 438.394531 744.4375 451.097656 C 748.871094 438.800781 750.996094 425.605469 750.625 412.535156 C 759.792969 412.804688 768.96875 412.828125 778.136719 412.40625 C 780.042969 412.335938 782.453125 412.203125 784.496094 412.082031 C 782.757812 415.269531 780.894531 419.175781 781.050781 422.667969 C 781.140625 425.988281 784.070312 428.414062 787.269531 428.570312 C 787.90625 428.582031 788.554688 428.519531 789.144531 428.269531 C 789.203125 428.246094 789.261719 428.214844 789.316406 428.1875 C 791.109375 445.796875 793.332031 464.75 795.433594 482.359375 Z M 821.730469 431.972656 C 821.378906 432.988281 820.765625 434.417969 820.320312 435.414062 C 820.320312 435.414062 819.496094 437.082031 819.496094 437.082031 C 819.117188 437.859375 818.570312 438.773438 818.15625 439.539062 C 817.734375 440.300781 816.90625 441.570312 816.445312 442.324219 C 815.949219 443.046875 815.101562 444.28125 814.589844 445.023438 C 813.9375 445.859375 812.960938 447.1875 812.308594 448 C 812.308594 448 811.109375 449.441406 811.109375 449.441406 C 810.148438 450.589844 809.179688 452.0625 807.550781 452.203125 C 807.371094 452.21875 807.1875 452.214844 807.003906 452.195312 C 808.128906 451.4375 809.113281 450.359375 809.964844 449.402344 C 812.246094 446.757812 814.261719 443.882812 815.828125 440.75 C 816.578125 439.175781 817.21875 437.550781 817.785156 435.90625 C 818.765625 432.9375 819.472656 429.859375 819.769531 426.761719 C 817.984375 433.378906 815.648438 439.878906 811.699219 445.527344 C 810.554688 447.21875 809.347656 448.890625 808.003906 450.429688 C 806.734375 451.871094 805.382812 453.035156 803.46875 453.015625 C 806.601562 451.257812 809.167969 446.339844 810.496094 443.691406 C 813.210938 438.183594 815.265625 432.261719 815.796875 426.121094 C 814.394531 432.074219 812.238281 437.757812 809.503906 443.207031 C 807.992188 446.164062 804.820312 452.796875 801.222656 453.113281 C 799.933594 453.210938 798.816406 452.367188 797.945312 451.429688 C 801.113281 450.609375 803.726562 445.800781 805.085938 442.925781 C 808.011719 436.796875 810.234375 430.273438 810.960938 423.503906 C 809.78125 430.175781 807.367188 436.53125 804.3125 442.542969 C 802.609375 445.75 798.558594 453.625 794.425781 449.09375 C 793.105469 447.671875 792.34375 445.667969 792.765625 443.738281 C 793.410156 440.882812 795.109375 438.429688 796.289062 435.753906 C 799.207031 429.578125 800.589844 422.636719 800.074219 415.8125 C 799.992188 414.960938 799.882812 414.109375 799.632812 413.269531 C 799.527344 412.945312 799.417969 412.605469 799.179688 412.335938 C 798.570312 411.695312 798.085938 412.710938 797.847656 413.191406 C 797.097656 414.722656 796.425781 416.269531 795.707031 417.804688 C 796.414062 416.515625 797.417969 414.597656 798.117188 413.339844 C 798.269531 413.078125 798.421875 412.808594 798.625 412.589844 C 798.6875 412.527344 798.75 412.496094 798.769531 412.503906 C 798.789062 412.503906 798.839844 412.527344 798.890625 412.59375 C 798.941406 412.65625 798.988281 412.734375 799.027344 412.820312 C 799.414062 413.769531 799.464844 414.824219 799.535156 415.851562 C 799.617188 417.523438 799.546875 419.207031 799.382812 420.875 C 798.910156 425.882812 797.5625 430.789062 795.339844 435.304688 C 794.109375 438.007812 792.347656 440.570312 791.683594 443.527344 C 791.597656 443.925781 791.554688 444.328125 791.546875 444.726562 C 790.78125 439.003906 790.027344 433.394531 789.328125 428.183594 C 789.765625 427.949219 790.121094 427.609375 790.457031 427.246094 C 791.28125 426.296875 791.929688 425.179688 792.554688 424.097656 C 793.707031 422.050781 794.71875 419.933594 795.707031 417.804688 C 794.269531 420.351562 792.875 422.925781 791.214844 425.324219 C 790.835938 425.859375 790.445312 426.367188 790.007812 426.835938 C 789.6875 427.160156 789.3125 427.488281 788.886719 427.65625 C 787.320312 428.15625 785.570312 427.621094 784.246094 426.714844 C 781.117188 424.597656 781.851562 420.738281 783.039062 417.691406 C 783.648438 416.078125 784.421875 414.507812 785.238281 412.984375 C 785.460938 412.535156 785.847656 411.902344 786.09375 411.460938 C 787.277344 409.453125 788.386719 407.390625 789.628906 405.421875 C 792.101562 401.480469 794.90625 397.746094 797.980469 394.246094 L 798.089844 394.121094 C 798.285156 393.898438 798.46875 393.695312 798.671875 393.503906 C 799.402344 392.828125 800.28125 392.3125 801.238281 392.023438 C 801.882812 391.832031 802.582031 391.734375 803.253906 391.648438 C 805.320312 391.394531 807.421875 391.445312 809.472656 391.839844 C 810.839844 392.105469 812.1875 392.515625 813.476562 393.070312 C 815.488281 394.136719 817.296875 395.5625 818.816406 397.246094 C 819.296875 397.78125 819.757812 398.328125 820.09375 398.960938 L 820.132812 399.03125 C 820.707031 400.097656 820.953125 401.289062 820.890625 402.5 C 820.878906 403.226562 820.851562 404.601562 820.847656 405.335938 C 820.851562 409.433594 821.3125 413.570312 822.3125 417.554688 C 822.867188 419.808594 823.34375 422.0625 823.394531 424.378906 C 823.308594 426.953125 822.601562 429.550781 821.730469 431.972656 Z M 821.730469 431.972656 " fill-opacity="1" fill-rule="nonzero"/></g></svg>