<svg xmlns="http://www.w3.org/2000/svg" xmlns:xlink="http://www.w3.org/1999/xlink" width="1920" zoomAndPan="magnify" viewBox="0 0 1440 809.999993" height="1080" preserveAspectRatio="xMidYMid meet" version="1.0"><path fill="#4d4d4d" d="M 1115.816406 244.78125 C 960.078125 247.695312 659.722656 245.726562 476.769531 248.039062 C 405.585938 248.917969 341.660156 249.171875 320.910156 246.703125 C 304.46875 248.886719 283.640625 252.714844 267.226562 254.949219 L 267.132812 254.949219 C 266.960938 254.945312 266.792969 254.976562 266.636719 255.046875 C 266.476562 255.113281 266.339844 255.210938 266.222656 255.339844 C 266.109375 255.46875 266.023438 255.617188 265.972656 255.78125 C 265.917969 255.945312 265.902344 256.113281 265.925781 256.285156 C 265.945312 256.457031 266 256.617188 266.089844 256.761719 C 266.179688 256.910156 266.296875 257.03125 266.441406 257.128906 C 266.582031 257.226562 266.738281 257.289062 266.910156 257.320312 C 267.082031 257.347656 267.25 257.339844 267.417969 257.296875 C 283.832031 255.074219 304.664062 251.253906 321.09375 249.050781 C 321.210938 249.050781 321.347656 249.074219 321.128906 249.027344 C 341.84375 251.640625 406.15625 251.214844 476.800781 250.382812 C 657.761719 248.074219 962.300781 250.03125 1115.839844 247.121094 C 1125.792969 247.578125 1165.207031 252.121094 1170.320312 252.65625 C 1170.480469 252.671875 1170.632812 252.660156 1170.785156 252.617188 C 1170.933594 252.574219 1171.070312 252.5 1171.195312 252.402344 C 1171.316406 252.304688 1171.417969 252.1875 1171.492188 252.046875 C 1171.570312 251.910156 1171.617188 251.765625 1171.632812 251.605469 C 1171.652344 251.449219 1171.636719 251.296875 1171.59375 251.144531 C 1171.550781 250.996094 1171.480469 250.859375 1171.382812 250.734375 C 1171.28125 250.613281 1171.164062 250.511719 1171.027344 250.4375 C 1170.890625 250.359375 1170.742188 250.3125 1170.585938 250.296875 C 1164.90625 249.730469 1126.214844 245.167969 1115.816406 244.78125 Z M 824.5625 290.742188 C 759.050781 291.054688 372.179688 295.570312 322.410156 296.972656 C 313.882812 297.859375 304.933594 298.90625 295.035156 300.046875 C 280.59375 301.71875 266.53125 303.390625 266.53125 303.390625 C 266.378906 303.410156 266.230469 303.457031 266.09375 303.535156 C 265.960938 303.613281 265.84375 303.714844 265.746094 303.835938 C 265.648438 303.960938 265.582031 304.097656 265.539062 304.246094 C 265.496094 304.398438 265.484375 304.550781 265.503906 304.707031 C 265.519531 304.863281 265.570312 305.007812 265.644531 305.144531 C 265.722656 305.285156 265.820312 305.402344 265.941406 305.496094 C 266.066406 305.59375 266.203125 305.664062 266.351562 305.710938 C 266.503906 305.753906 266.65625 305.765625 266.8125 305.75 C 266.8125 305.75 280.875 304.078125 295.3125 302.40625 C 305.199219 301.265625 314.140625 300.21875 322.65625 299.332031 C 514.675781 295.445312 910.515625 291.980469 1109.808594 292.917969 L 1177.355469 303.464844 C 1177.511719 303.488281 1177.664062 303.480469 1177.816406 303.445312 C 1177.96875 303.40625 1178.109375 303.34375 1178.238281 303.25 C 1178.363281 303.15625 1178.46875 303.042969 1178.550781 302.910156 C 1178.632812 302.777344 1178.683594 302.632812 1178.710938 302.476562 C 1178.734375 302.320312 1178.726562 302.167969 1178.691406 302.015625 C 1178.652344 301.859375 1178.589844 301.722656 1178.496094 301.59375 C 1178.402344 301.46875 1178.289062 301.363281 1178.15625 301.28125 C 1178.019531 301.199219 1177.875 301.148438 1177.722656 301.121094 L 1109.992188 290.542969 Z M 942.691406 339.320312 C 751.363281 341.28125 510.578125 342.105469 330.171875 343.6875 C 330.039062 343.691406 329.90625 343.703125 329.777344 343.730469 C 308.902344 346.824219 282.132812 351.089844 261.269531 354.207031 C 261.121094 354.230469 260.933594 354.242188 261.097656 354.230469 C 260.941406 354.242188 260.796875 354.285156 260.65625 354.351562 C 260.519531 354.421875 260.398438 354.515625 260.292969 354.632812 C 260.191406 354.75 260.113281 354.878906 260.0625 355.027344 C 260.011719 355.175781 259.992188 355.324219 260 355.480469 C 260.007812 355.636719 260.046875 355.785156 260.113281 355.921875 C 260.179688 356.0625 260.269531 356.1875 260.386719 356.292969 C 260.5 356.394531 260.632812 356.476562 260.777344 356.527344 C 260.925781 356.582031 261.074219 356.605469 261.230469 356.597656 C 261.449219 356.574219 261.441406 356.574219 261.601562 356.554688 C 282.457031 353.4375 309.226562 349.167969 330.09375 346.082031 C 330.242188 346.058594 330.421875 346.050781 330.273438 346.058594 C 537.292969 345.199219 919.175781 340.34375 1109.109375 342.269531 C 1123.785156 343.847656 1176.226562 350.582031 1182.292969 351.339844 C 1182.449219 351.359375 1182.601562 351.347656 1182.753906 351.308594 C 1182.90625 351.265625 1183.042969 351.199219 1183.167969 351.101562 C 1183.292969 351.003906 1183.390625 350.886719 1183.46875 350.75 C 1183.546875 350.617188 1183.597656 350.46875 1183.617188 350.3125 C 1183.636719 350.15625 1183.625 350.003906 1183.585938 349.851562 C 1183.542969 349.699219 1183.476562 349.5625 1183.378906 349.4375 C 1183.28125 349.3125 1183.167969 349.210938 1183.03125 349.132812 C 1182.894531 349.054688 1182.746094 349.007812 1182.589844 348.988281 C 1176.007812 348.128906 1124.335938 341.558594 1109.371094 339.910156 C 1084.253906 338.757812 1021.539062 339.550781 942.691406 339.320312 Z M 1097.203125 385.992188 L 336.382812 387.761719 L 262.191406 404.800781 C 262.039062 404.835938 261.898438 404.898438 261.769531 404.992188 C 261.640625 405.082031 261.535156 405.195312 261.449219 405.328125 C 261.367188 405.460938 261.3125 405.605469 261.285156 405.757812 C 261.261719 405.914062 261.265625 406.070312 261.300781 406.222656 C 261.335938 406.375 261.398438 406.515625 261.488281 406.644531 C 261.582031 406.773438 261.691406 406.878906 261.824219 406.960938 C 261.960938 407.046875 262.105469 407.101562 262.257812 407.125 C 262.414062 407.152344 262.566406 407.148438 262.722656 407.113281 L 336.660156 390.136719 L 1096.988281 388.363281 L 1182.898438 404.320312 C 1183.050781 404.34375 1183.203125 404.339844 1183.355469 404.304688 C 1183.503906 404.269531 1183.644531 404.207031 1183.769531 404.117188 C 1183.894531 404.027344 1184 403.917969 1184.085938 403.789062 C 1184.167969 403.660156 1184.222656 403.519531 1184.25 403.367188 C 1184.28125 403.214844 1184.277344 403.0625 1184.246094 402.910156 C 1184.214844 402.757812 1184.15625 402.621094 1184.070312 402.492188 C 1183.984375 402.363281 1183.878906 402.253906 1183.75 402.167969 C 1183.625 402.082031 1183.484375 402.023438 1183.332031 401.988281 Z M 1095.410156 430.019531 L 340.3125 437.953125 L 261.664062 460.277344 C 261.511719 460.320312 261.375 460.386719 261.25 460.484375 C 261.125 460.582031 261.023438 460.699219 260.945312 460.835938 C 260.867188 460.976562 260.820312 461.121094 260.800781 461.277344 C 260.785156 461.4375 260.796875 461.589844 260.839844 461.742188 C 260.882812 461.894531 260.953125 462.03125 261.050781 462.15625 C 261.148438 462.28125 261.265625 462.378906 261.40625 462.457031 C 261.542969 462.53125 261.691406 462.578125 261.847656 462.597656 C 262.003906 462.613281 262.160156 462.601562 262.308594 462.558594 L 340.65625 440.320312 L 1095.089844 432.398438 L 1184.707031 458.332031 C 1184.859375 458.371094 1185.011719 458.382812 1185.164062 458.363281 C 1185.320312 458.34375 1185.464844 458.296875 1185.601562 458.21875 C 1185.738281 458.144531 1185.851562 458.042969 1185.949219 457.921875 C 1186.046875 457.800781 1186.117188 457.664062 1186.160156 457.515625 C 1186.203125 457.367188 1186.21875 457.214844 1186.199219 457.058594 C 1186.183594 456.902344 1186.136719 456.757812 1186.0625 456.621094 C 1185.992188 456.484375 1185.894531 456.367188 1185.773438 456.265625 C 1185.652344 456.167969 1185.519531 456.097656 1185.367188 456.050781 Z M 1090.074219 481.433594 L 341.039062 484.414062 L 262.359375 520.085938 C 262.214844 520.148438 262.089844 520.238281 261.980469 520.351562 C 261.871094 520.46875 261.789062 520.597656 261.730469 520.746094 C 261.675781 520.894531 261.652344 521.046875 261.65625 521.203125 C 261.660156 521.363281 261.695312 521.515625 261.761719 521.65625 C 261.824219 521.800781 261.917969 521.925781 262.03125 522.035156 C 262.148438 522.144531 262.277344 522.222656 262.425781 522.28125 C 262.574219 522.335938 262.726562 522.359375 262.886719 522.351562 C 263.042969 522.347656 263.195312 522.308594 263.339844 522.242188 L 341.558594 486.785156 L 1089.628906 483.8125 L 1183.183594 520.050781 C 1183.332031 520.105469 1183.484375 520.132812 1183.640625 520.128906 C 1183.796875 520.125 1183.949219 520.089844 1184.09375 520.027344 C 1184.238281 519.964844 1184.363281 519.875 1184.472656 519.761719 C 1184.582031 519.648438 1184.664062 519.515625 1184.71875 519.371094 C 1184.777344 519.222656 1184.804688 519.070312 1184.800781 518.914062 C 1184.796875 518.753906 1184.761719 518.605469 1184.699219 518.460938 C 1184.632812 518.316406 1184.546875 518.191406 1184.429688 518.082031 C 1184.316406 517.972656 1184.1875 517.890625 1184.039062 517.832031 Z M 347.886719 528.394531 L 265.074219 582.003906 C 264.941406 582.089844 264.828125 582.199219 264.738281 582.328125 C 264.648438 582.457031 264.585938 582.597656 264.554688 582.753906 C 264.519531 582.90625 264.519531 583.0625 264.546875 583.214844 C 264.574219 583.371094 264.632812 583.515625 264.71875 583.648438 C 264.804688 583.78125 264.910156 583.890625 265.039062 583.980469 C 265.171875 584.070312 265.3125 584.132812 265.46875 584.164062 C 265.621094 584.195312 265.777344 584.199219 265.929688 584.167969 C 266.085938 584.140625 266.230469 584.082031 266.363281 583.996094 L 348.589844 530.769531 L 1083.371094 530.253906 L 1177.816406 580.8125 C 1177.953125 580.886719 1178.101562 580.933594 1178.257812 580.949219 C 1178.414062 580.964844 1178.566406 580.949219 1178.71875 580.902344 C 1178.867188 580.855469 1179.003906 580.785156 1179.125 580.683594 C 1179.25 580.585938 1179.347656 580.464844 1179.421875 580.328125 C 1179.496094 580.1875 1179.539062 580.042969 1179.554688 579.882812 C 1179.570312 579.726562 1179.554688 579.574219 1179.511719 579.425781 C 1179.464844 579.273438 1179.390625 579.136719 1179.292969 579.015625 C 1179.191406 578.894531 1179.074219 578.796875 1178.933594 578.722656 L 1083.96875 527.882812 Z M 347.886719 528.394531 " fill-opacity="1" fill-rule="evenodd"/><path fill="#4d4d4d" d="M 456.390625 188.167969 L 454.1875 189.058594 C 456.523438 194.96875 474.367188 238.824219 478.164062 250.1875 C 486.039062 313.445312 507.960938 535.097656 511.195312 565.152344 L 513.550781 564.917969 C 510.296875 533.90625 488.472656 315.1875 480.730469 251.140625 C 480.09375 247.386719 478.667969 244.730469 475.90625 237.242188 C 472.207031 227.472656 457.1875 190.121094 456.390625 188.167969 Z M 1030.589844 187.765625 C 1029.585938 190.113281 1014.972656 226.855469 1011.140625 236.871094 C 1008.382812 244.378906 1006.96875 247.007812 1006.335938 250.773438 C 998.792969 313.761719 977.023438 535.007812 973.953125 564.59375 L 976.3125 564.828125 C 979.632812 533.425781 1001 314.117188 1008.902344 249.816406 C 1012.617188 238.59375 1030.535156 194.398438 1032.792969 188.65625 Z M 586.957031 188.261719 L 584.644531 188.78125 C 585.949219 194.96875 595.441406 236.4375 597.527344 248.886719 C 601.183594 311.839844 614.933594 534.066406 616.707031 563.363281 L 619.074219 563.21875 C 617.21875 532.644531 603.628906 312.78125 599.902344 248.886719 C 597.9375 236.378906 588.230469 194.445312 586.957031 188.261719 Z M 900.019531 188.042969 C 898.699219 194.472656 889.160156 235.980469 887.160156 248.683594 C 883.597656 311.535156 870.15625 533.820312 868.429688 563.042969 L 870.796875 563.1875 C 872.609375 532.53125 885.914062 312.691406 889.535156 248.683594 C 891.574219 236.425781 901.082031 194.5 902.339844 188.558594 Z M 518.15625 188.8125 L 515.898438 189.546875 C 519.996094 202.128906 524.875 215.632812 528.804688 226.6875 C 531.441406 234.328125 534.816406 243.074219 535.980469 248.941406 C 541.765625 311.363281 561.777344 534.046875 564.445312 563.4375 L 566.808594 563.226562 C 564.011719 532.429688 544.222656 312.179688 538.339844 248.679688 C 537.125 242.25 533.777344 233.933594 531.042969 225.898438 C 527.109375 214.828125 522.238281 201.34375 518.15625 188.816406 Z M 968.824219 188.5 C 964.761719 201.035156 959.910156 214.527344 955.992188 225.601562 C 953.273438 233.625 949.925781 241.945312 948.726562 248.394531 C 943.023438 310.867188 923.328125 533.539062 920.691406 562.976562 L 923.054688 563.1875 C 925.804688 532.429688 945.296875 312.113281 951.085938 248.652344 C 952.234375 242.808594 955.59375 234.046875 958.226562 226.390625 C 962.140625 215.328125 967.003906 201.816406 971.082031 189.230469 Z M 649.113281 189.121094 L 646.792969 189.609375 C 647.976562 195.597656 656.714844 236.128906 657.460938 247.070312 C 659.5 310.03125 668.128906 533.289062 669.222656 563.195312 L 671.59375 563.105469 C 670.449219 531.894531 661.921875 310.996094 659.832031 247.070312 C 659.144531 235.867188 650.28125 195.179688 649.113281 189.121094 Z M 837.871094 188.988281 C 836.652344 195.335938 827.9375 235.589844 827.234375 246.953125 C 825.273438 309.847656 816.964844 533.160156 815.910156 563.003906 L 818.285156 563.089844 C 819.382812 531.8125 827.609375 310.953125 829.605469 246.949219 C 830.304688 236.160156 839.070312 195.1875 840.191406 189.472656 Z M 398.664062 192.507812 L 396.59375 193.679688 C 397.921875 195.78125 415.988281 228.628906 420.535156 237.816406 C 422.539062 241.527344 424.285156 245.355469 425.769531 249.300781 C 425.808594 249.453125 426.082031 251.222656 426.410156 253.855469 C 433.65625 315.660156 455.882812 535.234375 458.8125 563.414062 L 461.171875 563.175781 C 458.097656 533.554688 436.125 316.449219 428.765625 253.5625 C 428.4375 250.914062 428.253906 249.453125 428.070312 248.71875 C 426.589844 244.578125 424.785156 240.585938 422.648438 236.738281 C 418.269531 227.710938 399.722656 194.300781 398.664062 192.507812 Z M 1088.324219 192.027344 C 1086.992188 194.160156 1068.953125 227.0625 1064.394531 236.289062 C 1062.265625 240.140625 1060.464844 244.136719 1058.992188 248.28125 C 1058.808594 249.015625 1058.632812 250.472656 1058.308594 253.121094 C 1051.144531 314.960938 1029.21875 534.570312 1026.332031 562.78125 L 1028.691406 563.015625 C 1031.726562 533.414062 1053.394531 316.289062 1060.660156 253.414062 C 1060.984375 250.78125 1061.253906 249.011719 1061.292969 248.855469 C 1062.777344 244.910156 1064.515625 241.078125 1066.515625 237.363281 C 1070.859375 228.371094 1089.34375 194.964844 1090.390625 193.195312 Z M 715.191406 195.316406 L 712.820312 195.339844 L 715.589844 564.5 L 717.960938 564.480469 Z M 771.070312 195.273438 L 768.695312 195.300781 L 771.464844 564.460938 L 773.839844 564.441406 Z M 333.273438 196.15625 L 331.34375 197.527344 C 332.636719 199.34375 367.515625 248.519531 368.941406 250.722656 C 368.925781 250.683594 368.925781 250.695312 369.027344 250.839844 C 369 250.800781 368.972656 250.761719 368.941406 250.722656 C 378.464844 312.632812 401.90625 532.023438 405.464844 561.0625 L 407.824219 560.800781 C 404.492188 531.953125 380.8125 316.027344 372.011719 254.109375 C 371.738281 252.4375 371.605469 251.507812 371.300781 250.277344 C 371.261719 250 371.160156 249.75 370.996094 249.523438 C 369.644531 247.261719 334.523438 198.019531 333.273438 196.15625 Z M 333.273438 196.15625 " fill-opacity="1" fill-rule="evenodd"/><path fill="#e6e6e6" d="M 275.179688 197.511719 C 275.179688 197.511719 267.964844 202.949219 268.859375 210.054688 C 269.75 217.15625 304.839844 245.542969 306.621094 250.871094 C 308.289062 255.863281 337.957031 527.011719 342.109375 562.070312 C 324.394531 574.3125 268.832031 619.125 268.453125 620.65625 C 268.007812 622.429688 270.933594 638.453125 270.933594 638.453125 C 300.324219 617.605469 339.53125 584.878906 356.617188 571.148438 C 418.355469 572.59375 1066.535156 571.78125 1079.070312 571.765625 C 1096.980469 586.007812 1138.160156 619.179688 1167.191406 639.710938 C 1172.210938 634.6875 1166.324219 621.804688 1165.878906 620.027344 C 1165.496094 618.5 1109.871094 573.765625 1092.140625 561.546875 C 1096.242188 526.480469 1125.535156 255.292969 1127.195312 250.296875 C 1128.96875 244.96875 1164.015625 216.53125 1164.898438 209.429688 C 1165.78125 202.324219 1158.558594 196.894531 1158.558594 196.894531 C 1158.558594 196.894531 1115.898438 237.734375 1112.761719 243.386719 C 1109.792969 248.742188 1079.074219 527.5 1075.753906 557.675781 C 1020.488281 555.761719 378.144531 558.957031 358.589844 559.054688 C 355.480469 531.152344 324.03125 249.3125 321.042969 243.941406 C 317.898438 238.289062 275.179688 197.511719 275.179688 197.511719 Z M 275.179688 197.511719 " fill-opacity="1" fill-rule="evenodd"/><path fill="#e6e6e6" d="M 232.171875 640.160156 C 232.171875 640.160156 227.101562 170.128906 235.976562 167.457031 L 244.855469 164.789062 C 244.855469 164.789062 1194.25 162.339844 1200.527344 165.476562 C 1206.808594 168.609375 1212.785156 636.964844 1206.507812 638.222656 C 1200.230469 639.484375 1166.964844 647.667969 1164.445312 638.878906 C 1161.929688 630.09375 1162.269531 218.867188 1158.5 212.589844 C 1154.726562 206.316406 282.71875 207.550781 278.328125 209.4375 C 273.933594 211.324219 278.035156 639.335938 274.929688 641.113281 C 271.824219 642.890625 236.472656 644.054688 232.171875 640.160156 Z M 232.171875 640.160156 " fill-opacity="1" fill-rule="evenodd"/><path fill="#b3b3b3" d="M 962.75 190.675781 C 691.136719 190.84375 258.191406 192.75 258.191406 192.75 L 257.347656 642.726562 C 265.863281 642.566406 273.554688 641.902344 274.929688 641.117188 C 278.035156 639.339844 273.933594 211.324219 278.328125 209.4375 C 282.71875 207.550781 1154.726562 206.316406 1158.5 212.59375 C 1162.269531 218.867188 1161.929688 630.09375 1164.445312 638.882812 C 1165.714844 643.308594 1174.789062 643.425781 1184.285156 642.292969 C 1184.671875 561.101562 1180.121094 194.660156 1177.320312 191.859375 C 1176.335938 190.878906 1086.210938 190.597656 962.75 190.675781 Z M 962.75 190.675781 " fill-opacity="1" fill-rule="evenodd"/></svg>