<svg xmlns="http://www.w3.org/2000/svg" xmlns:xlink="http://www.w3.org/1999/xlink" width="1920" zoomAndPan="magnify" viewBox="0 0 1440 809.999993" height="1080" preserveAspectRatio="xMidYMid meet" version="1.0"><defs><clipPath id="6ff103127b"><path d="M 629.71875 261.125 L 810.46875 261.125 L 810.46875 475 L 629.71875 475 Z M 629.71875 261.125 " clip-rule="nonzero"/></clipPath><clipPath id="aaba56c5f6"><path d="M 708 261.125 L 810.46875 261.125 L 810.46875 390 L 708 390 Z M 708 261.125 " clip-rule="nonzero"/></clipPath></defs><path fill="#cbc4cc" d="M 710.054688 472.484375 L 729.941406 472.484375 L 729.941406 540.078125 L 710.054688 540.078125 Z M 710.054688 472.484375 " fill-opacity="1" fill-rule="nonzero"/><g clip-path="url(#6ff103127b)"><path fill="#ffd15b" d="M 782.050781 337.546875 L 743.820312 337.539062 C 740.765625 337.539062 738.765625 334.332031 740.125 331.597656 C 746.730469 318.308594 750.917969 301.433594 750.917969 292.042969 C 750.917969 274.96875 737.074219 261.125 720 261.125 C 702.925781 261.125 689.082031 274.96875 689.082031 292.042969 C 689.082031 301.433594 693.265625 318.308594 699.875 331.597656 C 701.234375 334.332031 699.234375 337.539062 696.179688 337.539062 L 657.949219 337.546875 C 642.394531 337.546875 629.789062 350.15625 629.789062 365.707031 L 629.789062 383.765625 C 629.789062 386.964844 632.378906 389.558594 635.578125 389.558594 L 659.015625 389.558594 C 661.652344 389.558594 663.957031 391.339844 664.617188 393.890625 L 683.226562 465.535156 C 684.554688 470.636719 689.160156 474.203125 694.433594 474.203125 L 745.5625 474.203125 C 750.835938 474.203125 755.445312 470.636719 756.769531 465.535156 L 775.378906 393.890625 C 776.042969 391.339844 778.347656 389.558594 780.984375 389.558594 L 804.421875 389.558594 C 807.617188 389.558594 810.210938 386.964844 810.210938 383.765625 L 810.210938 365.707031 C 810.210938 350.15625 797.601562 337.546875 782.050781 337.546875 Z M 782.050781 337.546875 " fill-opacity="1" fill-rule="nonzero"/></g><path fill="#ffc344" d="M 752.222656 393.890625 L 733.613281 465.535156 C 732.289062 470.636719 727.679688 474.203125 722.40625 474.203125 L 745.5625 474.203125 C 750.835938 474.203125 755.445312 470.636719 756.769531 465.535156 L 775.378906 393.890625 C 776.042969 391.339844 778.347656 389.558594 780.984375 389.558594 L 757.824219 389.558594 C 755.1875 389.558594 752.886719 391.339844 752.222656 393.890625 Z M 752.222656 393.890625 " fill-opacity="1" fill-rule="nonzero"/><g clip-path="url(#aaba56c5f6)"><path fill="#ffc344" d="M 782.050781 337.546875 L 743.820312 337.539062 C 740.765625 337.539062 738.765625 334.332031 740.125 331.597656 C 746.730469 318.308594 750.917969 301.433594 750.917969 292.042969 C 750.917969 274.96875 737.074219 261.125 720 261.125 C 715.902344 261.125 711.996094 261.929688 708.421875 263.375 C 719.757812 267.960938 727.757812 279.0625 727.757812 292.042969 C 727.757812 301.433594 723.574219 318.308594 716.96875 331.597656 C 715.609375 334.332031 717.605469 337.539062 720.660156 337.539062 L 758.890625 337.546875 C 774.445312 337.546875 787.050781 350.15625 787.050781 365.707031 L 787.050781 383.765625 C 787.050781 386.964844 784.460938 389.558594 781.261719 389.558594 L 804.421875 389.558594 C 807.617188 389.558594 810.210938 386.964844 810.210938 383.765625 L 810.210938 365.707031 C 810.210938 350.15625 797.601562 337.546875 782.050781 337.546875 Z M 782.050781 337.546875 " fill-opacity="1" fill-rule="nonzero"/></g><path fill="#fff3be" d="M 706.449219 296.386719 C 704.050781 296.386719 702.109375 294.441406 702.109375 292.042969 C 702.109375 282.179688 710.132812 274.152344 720 274.152344 C 722.398438 274.152344 724.34375 276.09375 724.34375 278.492188 C 724.34375 280.890625 722.398438 282.835938 720 282.835938 C 714.921875 282.835938 710.792969 286.964844 710.792969 292.042969 C 710.792969 294.441406 708.847656 296.386719 706.449219 296.386719 Z M 706.449219 296.386719 " fill-opacity="1" fill-rule="nonzero"/><path fill="#fff3be" d="M 647.15625 370.050781 C 644.757812 370.050781 642.816406 368.105469 642.816406 365.707031 C 642.816406 357.363281 649.605469 350.574219 657.949219 350.574219 L 676.671875 350.566406 L 676.675781 350.566406 C 679.074219 350.566406 681.015625 352.507812 681.015625 354.90625 C 681.019531 357.304688 679.074219 359.25 676.675781 359.25 L 657.953125 359.257812 C 654.394531 359.257812 651.5 362.148438 651.5 365.707031 C 651.5 368.105469 649.554688 370.050781 647.15625 370.050781 Z M 647.15625 370.050781 " fill-opacity="1" fill-rule="nonzero"/><path fill="#ffd15b" d="M 752.386719 548.867188 L 687.613281 548.867188 C 682.230469 548.867188 677.867188 544.503906 677.867188 539.121094 L 677.867188 538.195312 C 677.867188 532.8125 682.230469 528.449219 687.613281 528.449219 L 752.386719 528.449219 C 757.769531 528.449219 762.132812 532.8125 762.132812 538.195312 L 762.132812 539.121094 C 762.132812 544.503906 757.769531 548.867188 752.386719 548.867188 Z M 752.386719 548.867188 " fill-opacity="1" fill-rule="nonzero"/><path fill="#ffd15b" d="M 723.6875 440.507812 C 721.289062 440.507812 719.347656 438.566406 719.347656 436.167969 L 719.347656 386.875 L 712.226562 386.875 C 709.828125 386.875 707.882812 384.933594 707.882812 382.535156 C 707.882812 380.136719 709.828125 378.191406 712.226562 378.191406 L 723.6875 378.191406 C 726.085938 378.191406 728.03125 380.136719 728.03125 382.535156 L 728.03125 436.167969 C 728.03125 438.566406 726.085938 440.507812 723.6875 440.507812 Z M 723.6875 440.507812 " fill-opacity="1" fill-rule="nonzero"/></svg>