<svg xmlns="http://www.w3.org/2000/svg" xmlns:xlink="http://www.w3.org/1999/xlink" width="1920" zoomAndPan="magnify" viewBox="0 0 1440 809.999993" height="1080" preserveAspectRatio="xMidYMid meet" version="1.0"><defs><clipPath id="4da731409d"><path d="M 609 344.796875 L 831 344.796875 L 831 465.546875 L 609 465.546875 Z M 609 344.796875 " clip-rule="nonzero"/></clipPath></defs><g clip-path="url(#4da731409d)"><path fill="#000000" d="M 824.28125 344.882812 L 615.859375 344.882812 C 612.414062 344.882812 609.621094 347.679688 609.621094 351.132812 L 609.621094 459.304688 C 609.621094 462.757812 612.414062 465.554688 615.859375 465.554688 C 619.304688 465.554688 622.09375 462.757812 622.09375 459.304688 L 622.09375 457.667969 L 646.59375 428.261719 L 793.546875 428.261719 L 818.046875 457.667969 L 818.046875 459.304688 C 818.046875 462.757812 820.835938 465.554688 824.28125 465.554688 C 827.726562 465.554688 830.519531 462.757812 830.519531 459.304688 L 830.519531 351.132812 C 830.519531 347.679688 827.726562 344.882812 824.28125 344.882812 Z M 818.046875 363.421875 L 816.089844 361.070312 L 818.046875 359.769531 Z M 814.273438 362.273438 L 815.566406 361.414062 L 818.046875 364.394531 L 818.046875 385.019531 L 809.210938 374.402344 L 810.535156 367.835938 C 810.988281 365.578125 812.351562 363.550781 814.273438 362.273438 Z M 631.742188 417.523438 L 622.09375 429.117188 L 622.09375 407.59375 L 631.742188 396 Z M 622.09375 406.617188 L 622.09375 385.996094 L 631.089844 375.183594 L 631.742188 378.433594 L 631.742188 395.023438 Z M 638.023438 371.714844 L 647.910156 371.714844 L 647.910156 389.089844 L 641.523438 389.089844 Z M 634.433594 391.789062 L 632.367188 394.273438 L 632.367188 381.527344 Z M 632.367188 395.25 L 634.589844 392.574219 L 638.082031 409.902344 L 632.367188 416.773438 Z M 641.648438 389.714844 L 647.910156 389.714844 L 647.910156 407.089844 L 645.148438 407.089844 Z M 774.269531 389.089844 L 774.269531 371.714844 L 791.609375 371.714844 L 791.609375 389.089844 Z M 791.609375 389.714844 L 791.609375 407.089844 L 774.269531 407.089844 L 774.269531 389.714844 Z M 756.308594 389.089844 L 756.308594 371.714844 L 773.644531 371.714844 L 773.644531 389.089844 Z M 773.644531 389.714844 L 773.644531 407.089844 L 756.308594 407.089844 L 756.308594 389.714844 Z M 756.308594 371.089844 L 756.308594 357.382812 L 773.644531 357.382812 L 773.644531 371.089844 Z M 738.34375 389.089844 L 738.34375 371.714844 L 755.683594 371.714844 L 755.683594 389.089844 Z M 755.683594 389.714844 L 755.683594 407.089844 L 738.34375 407.089844 L 738.34375 389.714844 Z M 738.34375 371.089844 L 738.34375 357.382812 L 755.683594 357.382812 L 755.683594 371.089844 Z M 720.382812 389.089844 L 720.382812 371.714844 L 737.722656 371.714844 L 737.722656 389.089844 Z M 737.722656 389.714844 L 737.722656 407.089844 L 720.382812 407.089844 L 720.382812 389.714844 Z M 720.382812 371.089844 L 720.382812 357.382812 L 737.722656 357.382812 L 737.722656 371.089844 Z M 702.417969 389.089844 L 702.417969 371.714844 L 719.757812 371.714844 L 719.757812 389.089844 Z M 719.757812 389.714844 L 719.757812 407.089844 L 702.417969 407.089844 L 702.417969 389.714844 Z M 702.417969 371.089844 L 702.417969 357.382812 L 719.757812 357.382812 L 719.757812 371.089844 Z M 684.457031 389.089844 L 684.457031 371.714844 L 701.796875 371.714844 L 701.796875 389.089844 Z M 701.796875 389.714844 L 701.796875 407.089844 L 684.457031 407.089844 L 684.457031 389.714844 Z M 684.457031 371.089844 L 684.457031 357.382812 L 701.796875 357.382812 L 701.796875 371.089844 Z M 666.492188 389.089844 L 666.492188 371.714844 L 683.832031 371.714844 L 683.832031 389.089844 Z M 683.832031 389.714844 L 683.832031 407.089844 L 666.492188 407.089844 L 666.492188 389.714844 Z M 666.492188 371.089844 L 666.492188 357.382812 L 683.832031 357.382812 L 683.832031 371.089844 Z M 648.53125 389.089844 L 648.53125 371.714844 L 665.871094 371.714844 L 665.871094 389.089844 Z M 665.871094 389.714844 L 665.871094 407.089844 L 648.53125 407.089844 L 648.53125 389.714844 Z M 648.53125 371.089844 L 648.53125 357.382812 L 665.871094 357.382812 L 665.871094 371.089844 Z M 665.871094 407.714844 L 665.871094 420.761719 L 648.53125 420.761719 L 648.53125 407.714844 Z M 666.492188 407.714844 L 683.832031 407.714844 L 683.832031 420.761719 L 666.492188 420.761719 Z M 684.457031 407.714844 L 701.796875 407.714844 L 701.796875 420.761719 L 684.457031 420.761719 Z M 702.417969 407.714844 L 719.757812 407.714844 L 719.757812 420.761719 L 702.417969 420.761719 Z M 720.382812 407.714844 L 737.722656 407.714844 L 737.722656 420.761719 L 720.382812 420.761719 Z M 738.34375 407.714844 L 755.683594 407.714844 L 755.683594 420.761719 L 738.34375 420.761719 Z M 756.308594 407.714844 L 773.644531 407.714844 L 773.644531 420.761719 L 756.308594 420.761719 Z M 774.269531 407.714844 L 791.609375 407.714844 L 791.609375 420.761719 L 774.269531 420.761719 Z M 774.269531 371.089844 L 774.269531 357.382812 L 791.609375 357.382812 L 791.609375 371.089844 Z M 798.617188 389.089844 L 792.230469 389.089844 L 792.230469 371.714844 L 802.117188 371.714844 Z M 792.230469 389.714844 L 798.492188 389.714844 L 794.992188 407.089844 L 792.230469 407.089844 Z M 805.550781 392.578125 L 807.777344 395.25 L 807.777344 416.777344 L 802.0625 409.90625 Z M 805.710938 391.792969 L 807.777344 381.53125 L 807.777344 394.277344 Z M 808.398438 396 L 818.046875 407.59375 L 818.046875 429.121094 L 808.398438 417.527344 Z M 808.398438 395.027344 L 808.398438 378.433594 L 809.054688 375.1875 L 818.046875 385.996094 L 818.046875 406.621094 Z M 803.195312 366.351562 L 802.242188 371.089844 L 792.230469 371.089844 L 792.230469 357.382812 L 808.394531 357.382812 C 805.734375 359.714844 803.910156 362.824219 803.195312 366.351562 Z M 647.910156 357.382812 L 647.910156 371.089844 L 637.898438 371.089844 L 636.945312 366.351562 C 636.230469 362.824219 634.40625 359.710938 631.75 357.382812 Z M 630.929688 374.398438 L 622.09375 385.015625 L 622.09375 364.394531 L 624.574219 361.414062 L 625.871094 362.273438 C 627.816406 363.566406 629.144531 365.542969 629.609375 367.835938 Z M 624.050781 361.066406 L 622.09375 363.417969 L 622.09375 359.769531 Z M 622.09375 430.09375 L 631.742188 418.5 L 631.742188 434.386719 L 622.09375 445.96875 Z M 632.367188 433.640625 L 632.367188 417.75 L 638.238281 410.6875 L 640.820312 423.492188 Z M 645.277344 407.714844 L 647.910156 407.714844 L 647.910156 420.761719 L 647.902344 420.761719 Z M 792.238281 420.761719 L 792.230469 420.761719 L 792.230469 407.714844 L 794.863281 407.714844 Z M 801.902344 410.691406 L 807.777344 417.75 L 807.777344 433.640625 L 799.324219 423.492188 Z M 808.398438 434.386719 L 808.398438 418.5 L 818.046875 430.09375 L 818.046875 445.96875 Z M 808.398438 434.386719 " fill-opacity="1" fill-rule="nonzero"/></g></svg>