<svg xmlns="http://www.w3.org/2000/svg" xmlns:xlink="http://www.w3.org/1999/xlink" width="1920" zoomAndPan="magnify" viewBox="0 0 1440 809.999993" height="1080" preserveAspectRatio="xMidYMid meet" version="1.0"><defs><clipPath id="341df22c8e"><path d="M 603 54 L 837 54 L 837 756.191406 L 603 756.191406 Z M 603 54 " clip-rule="nonzero"/></clipPath></defs><path fill="#000000" d="M 741.566406 736.75 C 740.296875 732.171875 738.589844 730.726562 736.597656 726.90625 C 729.457031 713.265625 734.273438 699.433594 728.105469 695.59375 C 726.414062 694.539062 724.601562 694.441406 724.601562 694.441406 C 723.417969 694.375 722.34375 694.625 721.40625 695.011719 C 721.535156 697.269531 721.730469 699.304688 722.003906 701.003906 C 722.339844 703.105469 722.753906 705 723.066406 706.328125 C 723.351562 707.539062 723.5625 708.285156 723.5625 708.285156 C 724.300781 710.945312 725.03125 712.855469 725.726562 714.53125 C 726.582031 716.585938 727.382812 718.292969 728.113281 720.609375 C 728.453125 721.6875 728.796875 722.972656 729.082031 724.472656 C 728.105469 724.464844 728.023438 727.414062 726.457031 727.75 C 724.117188 728.25 722.871094 721.992188 717.566406 719.140625 C 713.691406 717.050781 708.335938 717.160156 704.613281 719.5625 C 701.636719 721.484375 700.273438 724.507812 699.226562 726.96875 L 699.226562 726.972656 C 699.191406 727.054688 699.152344 727.140625 699.117188 727.222656 C 697.699219 730.558594 698.273438 731.332031 697.300781 734.285156 C 695.609375 739.433594 692.167969 742.210938 689.636719 745.015625 C 687.890625 746.949219 686.582031 748.890625 686.578125 751.636719 C 686.578125 753.085938 686.941406 753.753906 687.15625 754.074219 C 688.820312 756.550781 693.449219 755.757812 698.570312 755.347656 C 706.019531 754.742188 713.523438 755.449219 720.996094 755.347656 C 729.164062 755.230469 730.566406 755.226562 731.902344 753.871094 L 731.90625 753.871094 C 735.871094 754.023438 739.167969 752.894531 740.980469 750.699219 C 744.316406 746.652344 742.292969 739.371094 741.566406 736.75 Z M 741.566406 736.75 " fill-opacity="1" fill-rule="nonzero"/><path fill="#ecc19c" d="M 746.523438 527.589844 C 735.238281 526.941406 725.738281 524.710938 718.527344 522.417969 C 718.992188 526.734375 719.542969 532.417969 720.039062 539.09375 C 720.882812 550.527344 721.4375 558.378906 721.078125 568.46875 C 720.914062 572.894531 720.539062 578.875 719.601562 585.988281 C 722.703125 590.128906 730.535156 598.609375 742.949219 599.148438 C 751.363281 599.519531 757.828125 596.058594 761.253906 593.699219 C 761.523438 593.515625 761.824219 593.453125 762.101562 593.496094 C 762.253906 591.019531 762.4375 588.25 762.675781 585.242188 C 762.964844 581.585938 763.707031 572.8125 766.027344 555.800781 C 767.105469 547.859375 768.558594 537.929688 770.480469 526.417969 C 763.800781 527.460938 755.691406 528.109375 746.523438 527.589844 Z M 746.523438 527.589844 " fill-opacity="1" fill-rule="nonzero"/><path fill="#ecc19c" d="M 715.464844 594.640625 C 715.140625 592.8125 714.90625 590.820312 714.824219 588.492188 C 714.6875 584.605469 715.085938 582.972656 715.671875 577.335938 C 716.582031 568.578125 716.355469 565.488281 716.753906 543.25 C 716.847656 538.074219 716.992188 530.84375 717.214844 521.996094 C 717.242188 521.015625 717.269531 520.015625 717.296875 519 C 709.164062 519.835938 701.03125 520.683594 692.898438 521.542969 C 683.117188 522.574219 673.335938 523.621094 663.554688 524.679688 C 666.835938 534.835938 668.640625 543.65625 669.695312 550.398438 C 671.648438 562.914062 671.777344 573.136719 671.773438 577.050781 C 671.765625 589.640625 670.347656 593.636719 670.863281 605.523438 C 671.058594 610.011719 671.460938 614.035156 671.917969 617.464844 C 672.164062 617.351562 672.425781 617.273438 672.707031 617.242188 C 681.140625 616.296875 690.171875 614.929688 699.691406 612.996094 C 705.9375 611.726562 711.875 610.320312 717.5 608.820312 C 718.027344 608.6875 718.550781 608.714844 719.023438 608.882812 C 717.863281 603.152344 716.339844 599.472656 715.464844 594.648438 C 715.464844 594.644531 715.464844 594.640625 715.464844 594.640625 Z M 715.464844 594.640625 " fill-opacity="1" fill-rule="nonzero"/><path fill="#ecc19c" d="M 642.6875 272.363281 C 641.910156 266.835938 641.121094 262.605469 640.253906 258.40625 C 635.554688 259.707031 629.058594 260.460938 621.90625 258.207031 C 614.996094 256.03125 610.316406 251.941406 607.558594 248.847656 C 607.179688 253.144531 606.644531 259 605.933594 265.925781 C 605.203125 273.023438 604.773438 276.558594 604.578125 278.402344 C 602.71875 296.28125 607.507812 308.027344 609.929688 333.785156 C 610.328125 338.039062 610.804688 344.191406 611.019531 351.746094 C 610.488281 352.550781 609.96875 353.414062 609.464844 354.335938 C 608.246094 356.574219 606.539062 359.773438 605.890625 364.25 C 605.328125 368.125 604.640625 372.894531 607.359375 376.105469 C 609.503906 378.632812 613.601562 378.824219 621.804688 379.21875 C 631.652344 379.691406 633.164062 378.011719 633.644531 377.339844 C 634.179688 376.605469 634.441406 375.753906 634.539062 374.890625 C 634.914062 374.578125 635.21875 374.203125 635.433594 373.761719 C 635.921875 372.746094 635.851562 371.582031 635.535156 370.46875 L 635.53125 370.46875 C 635.589844 370.378906 635.640625 370.285156 635.6875 370.1875 C 636.125 369.257812 636.085938 368.199219 635.808594 367.160156 C 636.128906 366.890625 636.402344 366.582031 636.625 366.222656 C 637.492188 364.820312 637.253906 363.15625 637.144531 362.382812 C 636.765625 359.699219 634.960938 357.90625 633.589844 356.910156 C 633.652344 356.335938 633.703125 355.675781 633.734375 354.910156 C 633.992188 349.289062 634.117188 346.484375 632.691406 344.765625 C 631.921875 343.832031 630.785156 343.1875 629.40625 342.828125 C 629.199219 341.28125 629.136719 339.472656 629.425781 337.488281 C 629.738281 335.351562 630.347656 333.820312 630.566406 333.265625 C 641.332031 305.683594 643.710938 284.140625 643.796875 283.355469 L 643.796875 283.34375 C 643.644531 281.035156 643.453125 278.808594 643.214844 276.625 C 643.0625 275.1875 642.886719 273.773438 642.6875 272.363281 Z M 642.6875 272.363281 " fill-opacity="1" fill-rule="nonzero"/><path fill="#ecc19c" d="M 832.890625 274.8125 C 830.683594 264.414062 828.605469 255.359375 826.847656 247.96875 C 820.707031 251.933594 813.882812 255.929688 806.367188 259.769531 C 802.128906 261.9375 797.988281 263.890625 793.980469 265.652344 C 793.679688 265.785156 793.371094 265.867188 793.058594 265.90625 C 793.925781 267.515625 794.867188 269.171875 795.890625 270.867188 C 796.992188 272.691406 798.097656 274.417969 799.203125 276.046875 C 798.140625 276.296875 797.050781 276.554688 795.921875 276.816406 C 795.195312 276.980469 789.449219 278.289062 782.699219 279.46875 C 778.460938 280.210938 773.824219 280.90625 769.789062 281.230469 C 764.238281 281.6875 756.429688 281.730469 746.785156 279.804688 C 745.109375 279.472656 743.59375 278.574219 742.492188 277.273438 C 738.496094 272.5625 735.234375 270.714844 732.855469 269.972656 C 732.789062 269.953125 732.714844 269.929688 732.640625 269.90625 C 731.875 269.679688 730.085938 269.25 723.007812 268.121094 C 721.488281 267.878906 720.050781 267.65625 718.703125 267.453125 C 714.671875 266.839844 710.617188 268.21875 707.695312 271.070312 C 707.554688 271.210938 707.414062 271.347656 707.265625 271.484375 C 704.378906 274.175781 701.9375 275.265625 702.164062 276.78125 C 702.347656 277.953125 703.992188 278.554688 704.390625 278.699219 C 705.539062 279.117188 706.664062 279 707.613281 278.6875 C 707.441406 279.066406 707.328125 279.464844 707.277344 279.886719 C 707.136719 281.050781 707.453125 282.632812 708.515625 283.457031 C 708.773438 283.660156 709.050781 283.800781 709.355469 283.890625 C 709.253906 284.050781 709.160156 284.222656 709.066406 284.402344 C 707.96875 286.617188 708.351562 289.535156 709.894531 290.886719 C 710.414062 291.339844 711.011719 291.574219 711.789062 291.632812 C 711.625 292.074219 711.511719 292.570312 711.472656 293.113281 C 711.441406 293.558594 711.308594 295.4375 712.445312 296.6875 C 712.921875 297.207031 713.511719 297.511719 714.347656 297.652344 C 714.441406 300.40625 715.453125 301.859375 715.972656 302.480469 C 716.558594 303.179688 717.875 304.433594 725.707031 305.65625 C 729.082031 306.183594 730.976562 306.480469 733.6875 306.550781 C 738.964844 306.683594 743.753906 305.859375 747.726562 304.761719 C 750.742188 303.9375 753.921875 303.863281 756.964844 304.597656 C 767.386719 307.128906 776.375 308.65625 783.363281 309.621094 C 783.742188 309.675781 784.125 309.722656 784.503906 309.777344 C 802.675781 312.210938 817.398438 312.125 828.210938 305.917969 C 829.90625 304.945312 831.230469 303.976562 832.429688 302.542969 C 837.289062 296.714844 835.75 288.285156 832.890625 274.8125 Z M 832.890625 274.8125 " fill-opacity="1" fill-rule="nonzero"/><path fill="#ecc19c" d="M 668.335938 125.867188 C 670.734375 129.140625 675.359375 131.738281 677.570312 130.304688 C 678.511719 135.523438 679.292969 141.265625 679.757812 147.472656 C 679.941406 149.949219 680.070312 152.347656 680.140625 154.671875 L 680.140625 154.675781 C 680.152344 155.128906 680.164062 155.589844 680.179688 156.054688 L 680.179688 156.0625 C 680.199219 156.746094 680.082031 157.425781 679.8125 158.054688 C 679.160156 159.59375 678.589844 161.589844 678.664062 163.882812 C 678.964844 173.242188 689.757812 181.277344 699.332031 182.921875 C 716.074219 185.796875 733.308594 170.070312 732.371094 160.996094 C 732.339844 160.675781 731.855469 156.5 729.230469 154.46875 C 728.683594 154.050781 728.316406 153.449219 728.242188 152.765625 L 728.242188 152.753906 C 728.207031 152.457031 728.175781 152.167969 728.152344 151.875 C 727.847656 148.742188 727.773438 145.804688 727.839844 143.117188 C 727.925781 142.996094 728 142.882812 728.066406 142.78125 C 729.839844 140.132812 731.429688 136.773438 732.1875 127.472656 C 733.453125 126.777344 735.074219 125.582031 736.109375 123.613281 C 736.363281 123.128906 737.019531 121.785156 736.890625 116.644531 C 736.742188 110.621094 736.59375 106.851562 733.980469 105 C 733.492188 104.65625 732.996094 104.433594 732.535156 104.285156 C 732.417969 99.804688 732.183594 94.703125 731.765625 89.078125 C 729.066406 89.796875 726.949219 88.339844 720.777344 86.445312 C 716.804688 85.226562 691.464844 77.4375 681.542969 87.734375 C 679.871094 89.46875 679.164062 91.167969 678.15625 93.589844 C 673.613281 104.492188 677.3125 116.226562 676.707031 116.320312 C 676.140625 116.410156 675.824219 110.875 671.777344 108.332031 C 671.558594 108.199219 670.679688 107.648438 669.640625 107.355469 C 668.832031 107.125 667.933594 107.058594 667.179688 107.464844 C 664.691406 108.800781 665.4375 114.359375 665.921875 117.957031 C 666.378906 121.398438 666.671875 123.59375 668.335938 125.867188 Z M 721.371094 102.941406 C 722.800781 102.8125 724.113281 104.417969 724.300781 106.527344 C 724.488281 108.636719 723.484375 110.449219 722.050781 110.578125 C 720.621094 110.703125 719.308594 109.097656 719.121094 106.992188 C 718.929688 104.882812 719.9375 103.070312 721.371094 102.941406 Z M 695.332031 104.148438 C 696.765625 104.019531 698.074219 105.625 698.265625 107.734375 C 698.453125 109.84375 697.449219 111.652344 696.015625 111.78125 C 694.585938 111.910156 693.273438 110.304688 693.082031 108.199219 C 692.894531 106.089844 693.902344 104.277344 695.332031 104.148438 Z M 695.332031 104.148438 " fill-opacity="1" fill-rule="nonzero"/><path fill="#004aad" d="M 762.101562 593.496094 C 761.824219 593.453125 761.523438 593.515625 761.253906 593.699219 C 757.828125 596.058594 751.363281 599.519531 742.949219 599.148438 C 730.535156 598.609375 722.703125 590.128906 719.601562 585.988281 C 719.574219 585.949219 719.542969 585.90625 719.511719 585.867188 C 718.910156 585.054688 717.640625 585.28125 717.355469 586.246094 C 716.980469 587.535156 716.625 588.890625 716.300781 590.3125 C 715.964844 591.804688 715.6875 593.246094 715.464844 594.640625 C 715.464844 594.640625 715.464844 594.644531 715.464844 594.648438 C 716.339844 599.472656 717.863281 603.152344 719.023438 608.882812 C 718.550781 608.714844 718.027344 608.6875 717.5 608.820312 C 711.875 610.320312 705.9375 611.726562 699.691406 612.996094 C 690.171875 614.929688 681.140625 616.296875 672.707031 617.242188 C 672.425781 617.273438 672.164062 617.351562 671.917969 617.464844 C 670.84375 617.949219 670.195312 619.136719 670.457031 620.363281 C 671.136719 623.550781 672.035156 627.53125 673.191406 632.105469 C 673.789062 634.46875 674.457031 636.992188 675.203125 639.644531 C 683.085938 667.792969 690.214844 677.988281 695.351562 700.617188 C 696.757812 706.804688 698.429688 715.765625 699.226562 726.96875 C 700.273438 724.507812 701.636719 721.484375 704.613281 719.5625 C 708.335938 717.160156 713.691406 717.050781 717.566406 719.140625 C 722.871094 721.992188 724.117188 728.25 726.457031 727.75 C 728.023438 727.414062 728.105469 724.464844 729.082031 724.472656 C 728.796875 722.972656 728.453125 721.6875 728.113281 720.609375 C 727.382812 718.292969 726.582031 716.585938 725.726562 714.53125 C 725.03125 712.855469 724.300781 710.945312 723.5625 708.285156 C 723.5625 708.285156 723.351562 707.539062 723.066406 706.328125 C 722.753906 705 722.339844 703.105469 722.003906 701.003906 C 721.730469 699.304688 721.535156 697.269531 721.40625 695.011719 C 722.34375 694.625 723.417969 694.375 724.601562 694.441406 C 724.601562 694.441406 726.414062 694.539062 728.105469 695.59375 C 728.460938 689.59375 729.507812 680.855469 732.675781 670.910156 C 738.832031 651.589844 747.609375 644.632812 755.363281 625.378906 C 758.054688 618.703125 761.449219 608.484375 763.15625 594.867188 C 763.25 594.148438 762.726562 593.578125 762.101562 593.496094 Z M 762.101562 593.496094 " fill-opacity="1" fill-rule="nonzero"/><path fill="#004aad" d="M 828.527344 243.929688 C 825.589844 235.726562 822.957031 228.632812 820.800781 222.914062 C 811.882812 199.296875 807.003906 188.4375 798.277344 177.96875 C 795.160156 174.226562 792.90625 172.160156 790.871094 170.558594 C 782.636719 164.089844 774.335938 162.375 765.90625 160.613281 C 755.011719 158.332031 744.648438 156.109375 732.324219 153.484375 C 732.304688 153.46875 732.277344 153.449219 732.253906 153.433594 L 732.25 153.4375 C 730.859375 152.519531 729.359375 152.085938 728.152344 151.875 C 728.175781 152.167969 728.207031 152.457031 728.242188 152.753906 L 728.242188 152.765625 C 728.316406 153.449219 728.683594 154.050781 729.230469 154.46875 C 731.855469 156.5 732.339844 160.675781 732.371094 160.996094 C 733.308594 170.070312 716.074219 185.796875 699.332031 182.921875 C 689.757812 181.277344 678.964844 173.242188 678.664062 163.882812 C 678.589844 161.589844 679.160156 159.59375 679.8125 158.054688 C 680.082031 157.425781 680.199219 156.746094 680.179688 156.0625 L 680.179688 156.054688 C 680.164062 155.589844 680.152344 155.128906 680.140625 154.675781 C 679.734375 154.929688 679.316406 155.222656 678.886719 155.570312 C 678.578125 155.824219 678.269531 156.101562 677.960938 156.414062 C 669.46875 159.820312 662.464844 162.21875 657.683594 163.765625 C 643.125 168.484375 635.382812 169.820312 626.128906 177.089844 C 624.144531 178.652344 621.957031 180.382812 619.5625 183.199219 C 613.5 190.328125 611.558594 197.9375 608.90625 215.179688 C 607.644531 223.347656 606.375 232.722656 605.261719 243.152344 C 605.082031 244.804688 605.566406 246.457031 606.613281 247.742188 C 606.898438 248.089844 607.210938 248.460938 607.558594 248.847656 C 610.316406 251.941406 614.996094 256.03125 621.90625 258.207031 C 629.058594 260.460938 635.554688 259.707031 640.253906 258.40625 C 641.121094 262.605469 641.910156 266.835938 642.6875 272.363281 C 642.886719 273.773438 643.0625 275.1875 643.214844 276.625 C 643.453125 278.808594 643.644531 281.035156 643.796875 283.34375 L 643.796875 283.355469 C 644.085938 287.789062 644.222656 292.519531 644.242188 297.796875 C 644.269531 304.742188 644.085938 312.632812 643.78125 322.019531 C 643.589844 327.910156 643.347656 334.382812 643.074219 341.585938 C 642.542969 355.824219 641.679688 374.492188 640.203125 396.578125 C 640.097656 398.117188 639.992188 399.671875 639.882812 401.242188 C 639.773438 402.863281 640.671875 404.292969 642.011719 404.960938 C 641.328125 421.441406 641.273438 439.304688 642.199219 458.363281 C 643.34375 481.855469 645.785156 503.460938 648.875 522.898438 C 649.171875 524.761719 650.878906 526.0625 652.753906 525.859375 C 656.351562 525.464844 659.953125 525.070312 663.554688 524.679688 C 673.335938 523.621094 683.117188 522.574219 692.898438 521.542969 C 701.03125 520.683594 709.164062 519.835938 717.296875 519 C 717.269531 520.015625 717.242188 521.015625 717.214844 521.996094 C 717.640625 522.136719 718.078125 522.277344 718.527344 522.417969 C 725.738281 524.710938 735.238281 526.941406 746.523438 527.589844 C 755.691406 528.109375 763.800781 527.460938 770.480469 526.417969 C 771.53125 526.253906 772.542969 526.082031 773.519531 525.902344 C 776.09375 525.433594 778.148438 523.5 778.800781 520.96875 C 782.054688 508.292969 784.929688 493.78125 786.691406 477.667969 C 789.472656 452.304688 788.753906 429.84375 786.832031 411.515625 C 787.90625 410.734375 788.539062 409.433594 788.398438 408.035156 C 786.890625 393.007812 785.726562 377.136719 785.035156 360.5 C 784.300781 342.746094 784.171875 325.808594 784.503906 309.777344 C 784.125 309.722656 783.742188 309.675781 783.363281 309.621094 C 776.375 308.65625 767.386719 307.128906 756.964844 304.597656 C 753.921875 303.863281 750.742188 303.9375 747.726562 304.761719 C 743.753906 305.859375 738.964844 306.683594 733.6875 306.550781 C 730.976562 306.480469 729.082031 306.183594 725.707031 305.65625 C 717.875 304.433594 716.558594 303.179688 715.972656 302.480469 C 715.453125 301.859375 714.441406 300.40625 714.347656 297.652344 C 713.511719 297.511719 712.921875 297.207031 712.445312 296.6875 C 711.308594 295.4375 711.441406 293.558594 711.472656 293.113281 C 711.511719 292.570312 711.625 292.074219 711.789062 291.632812 C 711.011719 291.574219 710.414062 291.339844 709.894531 290.886719 C 708.351562 289.535156 707.96875 286.617188 709.066406 284.402344 C 709.160156 284.222656 709.253906 284.050781 709.355469 283.890625 C 709.050781 283.800781 708.773438 283.660156 708.515625 283.457031 C 707.453125 282.632812 707.136719 281.050781 707.277344 279.886719 C 707.328125 279.464844 707.441406 279.066406 707.613281 278.6875 C 706.664062 279 705.539062 279.117188 704.390625 278.699219 C 703.992188 278.554688 702.347656 277.953125 702.164062 276.78125 C 701.9375 275.265625 704.378906 274.175781 707.265625 271.484375 C 707.414062 271.347656 707.554688 271.210938 707.695312 271.070312 C 710.617188 268.21875 714.671875 266.839844 718.703125 267.453125 C 720.050781 267.65625 721.488281 267.878906 723.007812 268.121094 C 730.085938 269.25 731.875 269.679688 732.640625 269.90625 C 732.714844 269.929688 732.789062 269.953125 732.855469 269.972656 C 735.234375 270.714844 738.496094 272.5625 742.492188 277.273438 C 743.59375 278.574219 745.109375 279.472656 746.785156 279.804688 C 756.429688 281.730469 764.238281 281.6875 769.789062 281.230469 C 773.824219 280.90625 778.460938 280.210938 782.699219 279.46875 C 782.488281 275.71875 782.253906 271.425781 782.011719 266.707031 C 781.777344 262.238281 781.574219 258.210938 781.382812 254.566406 C 784.421875 258.816406 787.609375 262.292969 790.476562 265.039062 C 791.175781 265.707031 792.121094 266.011719 793.054688 265.90625 L 793.058594 265.90625 C 793.371094 265.867188 793.679688 265.785156 793.980469 265.652344 C 797.988281 263.890625 802.128906 261.9375 806.367188 259.769531 C 813.882812 255.929688 820.707031 251.933594 826.847656 247.96875 C 826.988281 247.882812 827.121094 247.792969 827.257812 247.703125 C 828.507812 246.894531 829.03125 245.332031 828.527344 243.929688 Z M 828.527344 243.929688 " fill-opacity="1" fill-rule="nonzero"/><path fill="#231f20" d="M 721.371094 102.941406 C 719.9375 103.070312 718.929688 104.882812 719.121094 106.992188 C 719.308594 109.097656 720.621094 110.703125 722.050781 110.578125 C 723.484375 110.449219 724.488281 108.636719 724.300781 106.527344 C 724.113281 104.417969 722.800781 102.8125 721.371094 102.941406 Z M 721.371094 102.941406 " fill-opacity="1" fill-rule="nonzero"/><path fill="#231f20" d="M 695.332031 104.148438 C 693.902344 104.277344 692.894531 106.089844 693.082031 108.199219 C 693.273438 110.304688 694.585938 111.910156 696.015625 111.78125 C 697.449219 111.652344 698.453125 109.84375 698.265625 107.734375 C 698.074219 105.625 696.765625 104.019531 695.332031 104.148438 Z M 695.332031 104.148438 " fill-opacity="1" fill-rule="nonzero"/><path fill="#231f20" d="M 697.386719 98.945312 C 700.28125 99.375 702.929688 100.488281 705.453125 102.050781 C 702.902344 99.097656 698.914062 97.3125 694.996094 97.378906 C 691.054688 97.441406 687.109375 99.453125 684.894531 102.699219 C 688.503906 99.851562 692.8125 98.3125 697.386719 98.945312 Z M 697.386719 98.945312 " fill-opacity="1" fill-rule="nonzero"/><path fill="#231f20" d="M 731.496094 100.964844 C 729.097656 97.851562 725.035156 96.082031 721.097656 96.253906 C 717.183594 96.421875 713.304688 98.441406 710.9375 101.539062 C 713.363281 99.832031 715.941406 98.5625 718.804688 97.960938 C 723.328125 97.054688 727.730469 98.335938 731.496094 100.964844 Z M 731.496094 100.964844 " fill-opacity="1" fill-rule="nonzero"/><path fill="#231f20" d="M 711.339844 124.746094 C 710.507812 125.167969 709.542969 125.386719 708.570312 125.59375 C 709.558594 125.703125 710.574219 125.679688 711.589844 125.402344 C 713.464844 124.910156 714.371094 123.277344 713.921875 121.414062 C 713.59375 119.914062 712.753906 118.667969 712.273438 117.234375 C 710.902344 113.59375 710.339844 109.742188 709.734375 105.878906 C 709.207031 109.847656 709.542969 113.949219 710.933594 117.734375 C 711.625 120.015625 714.621094 123.167969 711.339844 124.746094 Z M 711.339844 124.746094 " fill-opacity="1" fill-rule="nonzero"/><path fill="#231f20" d="M 719.175781 134.539062 C 712.84375 136.417969 707.417969 136.679688 700.929688 135.441406 C 706.453125 138.65625 714 138.308594 719.175781 134.539062 Z M 719.175781 134.539062 " fill-opacity="1" fill-rule="nonzero"/><path fill="#231f20" d="M 674.875 123.539062 C 673.972656 122.757812 672.835938 121.710938 673.222656 120.441406 C 673.335938 120.089844 673.625 119.722656 673.910156 119.253906 C 674.53125 118.328125 674.558594 117.039062 674.183594 116.011719 C 672.929688 112.390625 669.378906 114.277344 668.59375 117.09375 C 669.222656 115.84375 670.335938 114.621094 671.773438 114.574219 C 673.164062 114.617188 673.617188 116.417969 673.492188 117.554688 C 673.386719 118.585938 672.617188 119.03125 672.179688 120.042969 C 671.457031 121.769531 672.789062 123.457031 674.007812 124.511719 C 674.214844 124.707031 674.613281 125.046875 674.855469 125.316406 C 674.46875 125.382812 674.03125 125.335938 673.609375 125.257812 C 670.128906 124.519531 668.472656 119.652344 667.878906 116.535156 C 667.738281 115.601562 667.683594 114.648438 667.726562 113.703125 C 667.820312 112.519531 667.824219 111.308594 668.25 110.238281 C 669.144531 108.066406 673.148438 112.714844 673.871094 113.644531 C 671.695312 109.871094 667.40625 105.5625 666.707031 112.867188 C 666.179688 116.1875 666.957031 119.605469 668.5 122.5625 C 669.496094 124.433594 671.117188 126.25 673.34375 126.644531 C 674.234375 126.769531 675.417969 126.917969 676.144531 126.15625 C 676.550781 125.707031 676.394531 125.015625 676.050781 124.632812 C 675.707031 124.214844 675.257812 123.867188 674.875 123.539062 Z M 674.875 123.539062 " fill-opacity="1" fill-rule="nonzero"/><path fill="#231f20" d="M 748.09375 304.1875 C 747.117188 304.398438 746.195312 304.632812 745.226562 304.816406 C 741.417969 305.558594 737.546875 305.949219 733.667969 305.835938 C 729.8125 305.710938 725.902344 305.050781 722.097656 304.429688 C 721.144531 304.246094 720.195312 304.039062 719.273438 303.78125 C 718.132812 303.441406 716.996094 303.105469 716.195312 302.257812 C 715.199219 301.167969 714.691406 299.765625 714.445312 298.320312 C 715.832031 298.578125 717.378906 298.382812 718.683594 298.300781 C 722.617188 297.886719 726.492188 297.246094 730.320312 296.230469 C 725.414062 296.039062 720.546875 296.808594 715.683594 297.082031 C 714.828125 297.085938 713.914062 297.070312 713.199219 296.617188 C 711.875 295.6875 711.5625 293.855469 711.707031 292.269531 C 712.175781 292.320312 712.644531 292.316406 713.078125 292.28125 C 714.972656 292.113281 716.695312 291.671875 718.5 291.238281 C 722.589844 290.171875 726.683594 289.019531 730.644531 287.523438 C 725.230469 288.160156 719.976562 289.488281 714.671875 290.644531 C 713.148438 290.894531 711.3125 291.464844 710.078125 290.277344 C 708.65625 288.796875 708.460938 286.484375 709.105469 284.542969 C 709.386719 284.632812 709.691406 284.6875 710.007812 284.695312 C 711.539062 284.757812 712.976562 284.183594 714.355469 283.710938 C 716.195312 283.019531 725.492188 279.507812 727.527344 278.75 C 722.925781 279.699219 718.40625 281.046875 713.953125 282.527344 C 711.660156 283.210938 708.585938 284.429688 708.023438 281.132812 C 707.421875 277.460938 711.816406 275.5 714.59375 274.125 C 716.285156 273.34375 717.96875 272.582031 719.75 272.027344 C 721.511719 271.441406 723.335938 271.023438 725.1875 270.691406 C 723.304688 270.707031 721.417969 270.941406 719.5625 271.347656 C 717.707031 271.753906 715.910156 272.394531 714.152344 273.101562 C 711.40625 274.183594 707.804688 275.929688 706.804688 278.835938 C 706.476562 278.875 706.148438 278.886719 705.824219 278.859375 C 704.707031 278.761719 703.492188 278.230469 702.765625 277.398438 C 701.957031 276.40625 703.027344 275.496094 703.828125 274.871094 C 704.292969 274.507812 704.785156 274.152344 705.273438 273.789062 C 706.257812 273.0625 707.210938 272.28125 708.121094 271.4375 C 710.664062 269.085938 714.152344 267.769531 717.617188 268.046875 C 718.640625 268.113281 720.125 268.417969 721.15625 268.554688 C 723.554688 268.910156 725.945312 269.296875 728.328125 269.695312 C 729.953125 269.980469 731.5625 270.191406 733.117188 270.699219 C 736.066406 271.714844 738.527344 273.691406 740.769531 275.875 C 741.429688 276.507812 742.023438 277.179688 742.675781 277.832031 C 743.796875 278.890625 745.273438 279.609375 746.785156 279.804688 C 745.007812 279.339844 743.523438 278.261719 742.449219 276.804688 C 740.0625 273.816406 737.179688 270.988281 733.527344 269.558594 C 731.925781 268.980469 730.210938 268.699219 728.566406 268.367188 C 726.175781 267.914062 723.777344 267.527344 721.375 267.144531 C 720.296875 267 718.789062 266.695312 717.710938 266.640625 C 713.890625 266.375 710.003906 267.917969 707.34375 270.636719 C 706.511719 271.484375 705.613281 272.277344 704.691406 273.054688 C 703.699219 273.992188 701.625 275.21875 701.855469 276.8125 C 702.054688 277.859375 703.105469 278.433594 703.984375 278.753906 C 704.863281 279.101562 705.84375 279.15625 706.765625 278.953125 C 706.535156 279.6875 706.464844 280.488281 706.613281 281.375 C 706.816406 282.734375 707.683594 284 708.941406 284.484375 C 707.585938 286.730469 707.757812 290.207031 710.074219 291.746094 C 710.507812 292.019531 711.007812 292.171875 711.515625 292.246094 C 710.859375 294.007812 711.03125 296.257812 712.53125 297.515625 C 713.066406 297.925781 713.6875 298.167969 714.34375 298.300781 C 714.367188 299.589844 714.640625 300.882812 715.285156 302.011719 C 716.019531 303.449219 717.542969 304.15625 718.984375 304.675781 C 721.800781 305.667969 724.769531 306.148438 727.683594 306.648438 C 733.570312 307.707031 739.6875 307.382812 745.472656 305.902344 C 746.417969 305.660156 747.394531 305.375 748.316406 305.09375 C 751.117188 304.285156 754.082031 304.136719 756.964844 304.597656 C 754.117188 303.671875 751.023438 303.574219 748.09375 304.1875 Z M 748.09375 304.1875 " fill-opacity="1" fill-rule="nonzero"/><g clip-path="url(#341df22c8e)"><path fill="#231f20" d="M 836.015625 288.976562 C 834.109375 275.328125 830.335938 261.917969 826.996094 248.5625 C 827.117188 248.484375 827.242188 248.410156 827.359375 248.335938 C 829.046875 247.417969 829.773438 245.261719 829.027344 243.515625 L 828.777344 242.824219 C 828.777344 242.824219 827.773438 240.0625 827.773438 240.0625 C 822.433594 225.539062 817.230469 210.222656 810.601562 196.253906 C 806.363281 187.363281 800.886719 178.925781 793.6875 172.136719 C 791.128906 169.789062 788.242188 167.777344 785.179688 166.140625 C 776.453125 161.394531 764.980469 160.234375 755.378906 158.046875 C 749.03125 156.78125 739.050781 154.789062 732.660156 153.546875 C 732.519531 153.449219 732.378906 153.355469 732.234375 153.265625 L 732.226562 153.273438 C 731.042969 152.558594 729.71875 152.132812 728.375 151.910156 C 728.21875 150.589844 728.089844 149.265625 728.007812 147.9375 C 727.929688 146.742188 727.875 145.546875 727.855469 144.347656 C 728.675781 143.191406 729.414062 141.976562 730.058594 140.71875 C 732.023438 136.445312 732.484375 131.796875 732.835938 127.195312 C 734.296875 126.5 735.605469 125.378906 736.464844 123.992188 C 738.066406 121.402344 737.585938 115.644531 737.417969 112.578125 C 737.1875 109.429688 736.421875 105.242188 732.898438 104.359375 C 732.664062 99.421875 732.296875 94.5 731.820312 89.644531 C 738.375 87.886719 741.328125 78.308594 741.617188 72.308594 C 741.753906 69.273438 741.542969 64.644531 738.941406 62.609375 C 738.863281 62.546875 738.785156 62.488281 738.703125 62.433594 C 738.699219 62.429688 738.695312 62.425781 738.6875 62.421875 C 737.699219 61.675781 736.375 61.820312 735.230469 62.058594 C 734.0625 62.292969 732.914062 62.554688 731.746094 62.699219 C 730.585938 62.84375 729.402344 62.921875 728.234375 62.890625 C 722.015625 62.886719 717.285156 59.253906 711.730469 57.046875 C 709.5 56.152344 707.140625 55.488281 704.769531 55.109375 C 694.203125 53.4375 682.335938 55.925781 674.160156 63.066406 C 671.417969 65.492188 669.375 68.679688 668.039062 72.046875 C 666.019531 76.921875 665.640625 81.078125 666.3125 86.257812 C 667.140625 93.128906 668.234375 99.953125 669.527344 106.746094 C 667.726562 106.300781 665.960938 106.765625 665.195312 109.097656 C 664.335938 111.9375 664.828125 114.90625 665.179688 117.761719 C 665.457031 119.640625 665.648438 121.582031 666.304688 123.390625 C 667.296875 126.1875 669.519531 128.40625 672.066406 129.84375 C 673.953125 130.902344 676.207031 131.449219 677.605469 130.523438 C 678.839844 138.625 679.492188 146.78125 679.660156 154.964844 C 678.949219 155.417969 678.320312 155.929688 677.765625 156.484375 C 674.519531 157.703125 671.261719 158.882812 667.988281 160.023438 C 659.648438 162.976562 651.113281 165.277344 642.679688 167.953125 C 639.296875 169.054688 635.945312 170.339844 632.785156 172 C 630.421875 173.253906 628.144531 174.742188 626.023438 176.367188 C 613.160156 185.785156 611.265625 196.558594 608.804688 211.371094 C 607.125 221.859375 605.769531 232.398438 604.722656 242.96875 C 604.613281 243.902344 604.695312 244.894531 604.988281 245.808594 C 605.269531 246.714844 605.761719 247.570312 606.390625 248.273438 C 606.742188 248.691406 607.105469 249.097656 607.476562 249.496094 C 606.226562 259.441406 605.050781 269.410156 603.882812 279.359375 C 603.832031 279.992188 603.710938 281.152344 603.667969 281.796875 C 603.644531 282.261719 603.574219 283.777344 603.550781 284.238281 C 603.332031 289.660156 603.804688 295.121094 604.542969 300.46875 C 605.941406 310.042969 607.765625 319.625 608.941406 329.226562 C 609.851562 336.511719 610.511719 343.871094 610.984375 351.199219 C 609.34375 353.453125 607.964844 355.902344 606.867188 358.453125 C 605.773438 360.964844 605.261719 363.675781 604.917969 366.382812 C 604.640625 368.578125 604.511719 370.9375 605.082031 373.125 L 605.222656 373.644531 C 605.285156 373.816406 605.441406 374.25 605.503906 374.410156 C 605.757812 374.980469 606.070312 375.582031 606.449219 376.078125 C 608.734375 379.265625 613.101562 379.289062 616.628906 379.566406 C 621.324219 379.726562 626.105469 380.148438 630.746094 379.105469 C 632.976562 378.578125 634.160156 377.613281 634.472656 375.472656 C 635.816406 374.417969 636.371094 372.851562 635.675781 370.847656 C 636.238281 369.929688 636.296875 368.796875 636.015625 367.765625 C 636.347656 367.5 636.65625 367.195312 636.929688 366.835938 C 637.859375 365.523438 637.898438 363.800781 637.578125 362.324219 C 637.21875 360.289062 635.890625 358.496094 634.242188 357.328125 C 634.277344 356.972656 634.304688 356.621094 634.335938 356.273438 C 634.4375 354.953125 634.484375 353.683594 634.519531 352.390625 C 634.507812 349.882812 634.851562 346.640625 633.214844 344.53125 C 632.191406 343.347656 630.855469 342.664062 629.375 342.335938 C 629.21875 339.304688 629.707031 336.304688 630.898438 333.539062 C 631.617188 331.808594 632.390625 329.921875 633.070312 328.183594 C 634.914062 323.386719 636.554688 318.511719 638.007812 313.582031 C 640.121094 306.234375 641.898438 298.574219 642.984375 291.011719 C 643.113281 290.101562 643.234375 289.1875 643.34375 288.269531 C 643.902344 303.550781 643.105469 319.882812 642.632812 335.09375 C 641.949219 356.832031 640.878906 379.425781 639.59375 401.121094 C 639.433594 402.820312 640.433594 404.539062 641.996094 405.230469 C 639.988281 444.8125 641.964844 484.6875 648.398438 523.796875 C 648.941406 525.304688 650.375 526.410156 651.96875 526.554688 C 652.472656 526.628906 653.625 526.449219 654.089844 526.414062 C 657.214844 526.074219 660.445312 525.726562 663.75 525.375 C 669.46875 545.769531 672.039062 567.046875 670.734375 588.203125 C 670.484375 592.101562 670.234375 596.027344 670.285156 599.941406 C 670.375 605.648438 670.894531 611.351562 671.835938 616.972656 C 671.503906 617.105469 671.195312 617.289062 670.933594 617.523438 C 670.09375 618.242188 669.714844 619.449219 669.960938 620.527344 L 670.070312 621.074219 C 670.191406 621.675781 670.640625 623.761719 670.761719 624.347656 C 673.292969 635.96875 676.515625 647.449219 680.480469 658.664062 C 683.703125 667.765625 687.476562 676.632812 690.585938 685.761719 C 694.609375 697.679688 697.308594 710.042969 698.746094 722.542969 C 698.84375 723.335938 698.988281 724.652344 699.101562 725.753906 C 698.949219 726.097656 698.808594 726.429688 698.679688 726.734375 L 698.648438 726.804688 C 698.621094 726.871094 698.59375 726.9375 698.570312 726.992188 C 697.734375 728.957031 697.558594 730.101562 697.390625 731.210938 C 697.269531 732.027344 697.140625 732.871094 696.734375 734.097656 C 695.402344 738.152344 692.910156 740.734375 690.710938 743.011719 C 690.179688 743.5625 689.675781 744.082031 689.195312 744.617188 C 687.527344 746.460938 685.984375 748.589844 685.984375 751.636719 C 685.984375 752.820312 686.203125 753.726562 686.660156 754.40625 C 687.710938 755.96875 689.664062 756.398438 692.105469 756.398438 C 693.515625 756.398438 695.085938 756.253906 696.742188 756.105469 C 697.355469 756.046875 697.980469 755.992188 698.617188 755.941406 C 703.191406 755.566406 707.882812 755.699219 712.417969 755.824219 C 715.230469 755.902344 718.140625 755.980469 721.003906 755.941406 L 721.273438 755.9375 C 729.316406 755.824219 730.816406 755.804688 732.296875 754.320312 C 732.308594 754.3125 732.316406 754.300781 732.328125 754.289062 C 732.4375 754.179688 732.546875 754.058594 732.652344 753.921875 C 737.457031 754.140625 742.15625 752.222656 743.101562 746.957031 C 743.9375 742.773438 742.574219 736.660156 740.804688 732.800781 C 739.742188 730.601562 738.339844 728.777344 737.261719 726.652344 C 736.207031 724.589844 735.332031 722.445312 734.675781 720.222656 C 733.335938 715.726562 732.898438 711.046875 732.445312 706.386719 C 731.996094 702.734375 731.8125 697.5625 728.328125 695.414062 C 728.265625 695.375 728.199219 695.339844 728.132812 695.304688 C 728.566406 690.140625 729.355469 685.003906 730.535156 679.957031 C 732.539062 671.429688 735.632812 663.121094 739.863281 655.445312 C 743.679688 648.503906 748.191406 641.929688 751.796875 634.851562 C 754.601562 629.351562 757.027344 623.546875 758.902344 617.667969 C 761.179688 610.492188 762.792969 603.101562 763.726562 595.632812 L 763.8125 594.976562 C 763.992188 593.976562 763.171875 592.941406 762.171875 592.84375 C 764.472656 571.203125 767.847656 548.683594 770.40625 527.054688 C 771.386719 526.90625 772.363281 526.75 773.339844 526.578125 C 775.058594 526.332031 776.695312 525.472656 777.839844 524.15625 C 778.851562 523.058594 779.375 521.636719 779.6875 520.207031 C 788.707031 485.097656 791.296875 448.292969 786.925781 412.296875 C 788.367188 411.402344 789.292969 409.695312 789.089844 407.972656 C 789.042969 407.539062 788.898438 405.984375 788.847656 405.542969 C 785.957031 376.097656 784.519531 346.46875 784.496094 316.886719 C 784.488281 314.683594 784.492188 312.480469 784.503906 310.28125 C 785.617188 310.441406 786.734375 310.597656 787.851562 310.742188 C 793.398438 311.445312 799.070312 311.949219 804.664062 311.910156 C 811.71875 311.863281 818.9375 311.007812 825.433594 308.097656 L 826.410156 307.664062 C 826.410156 307.664062 827.359375 307.164062 827.359375 307.164062 C 829.933594 305.894531 832.4375 304.101562 833.96875 301.597656 C 836.359375 297.867188 836.4375 293.230469 836.015625 288.976562 Z M 732.921875 126.042969 C 733.277344 118.921875 733.238281 111.679688 732.902344 104.46875 C 734.734375 105.476562 735.566406 107.363281 735.820312 109.414062 C 736.105469 111.542969 736.089844 113.757812 736.15625 115.972656 C 736.1875 117.085938 736.222656 118.171875 736.203125 119.265625 C 736.144531 120.855469 736.199219 122.472656 735.421875 123.867188 C 734.789062 125.070312 733.898438 126.070312 732.855469 126.945312 C 732.878906 126.644531 732.898438 126.34375 732.921875 126.042969 Z M 677.613281 130.519531 C 678.371094 130.011719 678.878906 129.074219 678.933594 127.546875 C 678.761719 128.527344 678.273438 129.714844 677.441406 130.140625 C 675.882812 130.921875 673.886719 129.914062 672.535156 129.058594 C 670.308594 127.570312 668.386719 125.519531 667.554688 122.960938 C 667.285156 122.121094 667.109375 121.238281 666.960938 120.332031 C 666.6875 118.523438 666.453125 116.636719 666.261719 114.8125 C 666.128906 112.933594 665.652344 108.628906 667.785156 107.871094 C 668.96875 107.527344 670.289062 108.082031 671.347656 108.652344 C 673.359375 109.734375 674.65625 111.730469 675.53125 113.808594 C 675.863281 114.554688 676.101562 115.347656 676.457031 116.085938 C 676.515625 116.175781 676.578125 116.328125 676.707031 116.320312 C 676.722656 116.316406 676.734375 116.304688 676.746094 116.289062 C 676.746094 116.285156 676.746094 116.28125 676.75 116.28125 C 676.75 116.277344 676.75 116.277344 676.753906 116.273438 C 676.773438 116.230469 676.773438 116.171875 676.78125 116.125 C 676.792969 115.902344 676.765625 115.679688 676.746094 115.457031 L 676.648438 114.578125 C 676.464844 112.871094 676.226562 111.007812 676.171875 109.296875 C 675.859375 103.457031 676.710938 97.519531 679.289062 92.242188 C 683.585938 81.925781 697.570312 82.5625 706.855469 83.933594 C 712.640625 84.804688 718.34375 86.28125 723.894531 88.15625 C 726.1875 88.863281 728.503906 90.0625 730.992188 89.824219 C 731.265625 89.78125 731.527344 89.71875 731.789062 89.652344 C 732.195312 99.15625 732.316406 109.109375 732.050781 118.605469 C 731.871094 123.511719 731.636719 128.433594 730.820312 133.230469 C 730.210938 136.84375 729.152344 140.238281 726.945312 143.171875 C 724.460938 146.71875 721.191406 149.789062 717.214844 151.574219 C 716.933594 151.691406 716.273438 151.957031 715.976562 152.078125 C 715.703125 152.167969 714.96875 152.40625 714.707031 152.492188 C 711.671875 153.402344 708.449219 153.289062 705.308594 153.121094 C 696.972656 152.601562 688.035156 149.667969 683.167969 142.464844 C 681.09375 139.425781 679.910156 135.859375 679.472656 132.203125 C 679.546875 133.433594 679.703125 134.660156 679.957031 135.871094 C 680.21875 137.082031 680.570312 138.277344 681.023438 139.433594 C 685.027344 149.855469 696.671875 154.171875 707.089844 154.480469 C 709.910156 154.617188 712.820312 154.578125 715.539062 153.667969 L 716.449219 153.375 L 717.335938 153.019531 C 718.191406 152.6875 719.097656 152.203125 719.902344 151.753906 C 723.023438 149.914062 725.679688 147.382812 727.785156 144.445312 C 727.6875 147.222656 727.761719 150.007812 728.007812 152.78125 C 728.023438 153.332031 728.410156 154.125 728.902344 154.546875 C 729.121094 154.75 729.363281 154.9375 729.566406 155.152344 C 730.589844 156.222656 731.191406 157.605469 731.589844 159.027344 C 732.535156 162.003906 731.636719 164.824219 730.113281 167.433594 C 727.320312 172.0625 723.050781 175.660156 718.40625 178.351562 C 713.222656 181.25 707.234375 183.007812 701.269531 182.453125 C 694.210938 181.734375 687.378906 178.050781 682.84375 172.597656 C 680.628906 169.859375 679.105469 166.476562 679.238281 162.925781 C 679.28125 161.761719 679.492188 160.597656 679.847656 159.476562 C 680.1875 158.417969 680.734375 157.390625 680.679688 156.246094 C 680.324219 147.609375 679.402344 138.976562 677.613281 130.519531 Z M 679.660156 155.003906 C 679.667969 155.417969 679.679688 155.828125 679.683594 156.238281 C 679.707031 157.28125 679.148438 158.183594 678.835938 159.144531 C 678.433594 160.34375 678.171875 161.597656 678.101562 162.875 C 677.855469 166.707031 679.492188 170.46875 681.824219 173.410156 C 686.492188 179.199219 693.738281 183.136719 701.140625 183.867188 C 708.660156 184.523438 716.136719 181.804688 722.167969 177.433594 C 725.679688 174.886719 728.820312 171.714844 730.980469 167.929688 C 732.550781 165.105469 733.394531 161.984375 732.296875 158.820312 C 731.789062 157.1875 730.964844 155.539062 729.609375 154.429688 L 729.425781 154.277344 C 728.925781 153.929688 728.496094 153.25 728.476562 152.726562 C 728.441406 152.460938 728.410156 152.195312 728.378906 151.925781 C 729.738281 152.230469 731.046875 152.757812 732.175781 153.546875 L 732.261719 153.605469 C 732.261719 153.605469 732.261719 153.601562 732.261719 153.601562 C 732.695312 153.917969 733.097656 154.257812 733.460938 154.640625 C 737.003906 158.46875 736.277344 164.441406 734.789062 169.027344 C 731.429688 178.652344 721.132812 184.5 711.632812 186.597656 C 705.015625 188.058594 698.070312 187.605469 691.675781 185.394531 C 687.4375 183.949219 683.359375 181.789062 680.210938 178.570312 C 677.003906 175.378906 675.339844 170.964844 674.984375 166.496094 C 674.574219 162.039062 676.015625 157.679688 679.660156 155.003906 Z M 642.292969 290.890625 C 640.433594 299.558594 638.121094 308.367188 635.542969 316.855469 C 634.8125 319.257812 634.023438 321.78125 633.234375 324.164062 C 632.523438 326.300781 631.535156 329.265625 630.761719 331.425781 L 630.136719 333.238281 C 629.085938 336.128906 628.808594 339.320312 629.316406 342.324219 C 625.691406 341.554688 621.222656 342.925781 618.332031 344.507812 C 621.316406 343.355469 624.460938 342.621094 627.625 342.949219 C 629.371094 343.164062 631.257812 343.761719 632.332031 345.210938 C 632.984375 346.101562 633.15625 347.320312 633.226562 348.550781 C 633.28125 349.789062 633.230469 351.0625 633.167969 352.339844 C 633.058594 354.242188 633.03125 356.148438 632.726562 358.007812 C 632.527344 359.125 632.289062 360.175781 631.222656 360.683594 C 629.394531 361.65625 626.34375 361.421875 624.855469 359.945312 C 624.066406 359.082031 624.59375 357.964844 624.90625 356.914062 C 625.097656 356.296875 625.300781 355.636719 625.371094 354.925781 C 625.511719 353.871094 625.1875 352.769531 624.644531 351.859375 C 624.457031 351.527344 624.21875 351.136719 623.867188 350.855469 C 623.511719 350.550781 622.914062 350.535156 622.605469 350.933594 C 622.324219 351.289062 622.21875 351.734375 622.105469 352.074219 C 621.734375 353.296875 621.3125 354.472656 620.714844 355.597656 C 620.46875 356.128906 620.054688 356.59375 619.957031 357.195312 C 620 358.238281 621.332031 357.925781 622.015625 357.863281 C 622.464844 357.808594 622.914062 357.765625 623.367188 357.738281 C 623.195312 358.375 623.113281 359.027344 623.285156 359.710938 C 624.101562 362.199219 627.550781 362.890625 629.832031 362.578125 C 631.089844 362.402344 632.445312 361.867188 633.246094 360.808594 C 633.886719 359.820312 634.101562 358.660156 634.222656 357.507812 C 635.710938 359.019531 636.710938 360.910156 636.757812 363.035156 C 636.941406 365.601562 635.675781 367.117188 633.195312 367.636719 C 630.136719 368.265625 626.820312 367.886719 623.691406 367.710938 C 618.84375 367.425781 614.015625 366.820312 609.203125 366.035156 C 615.386719 368.222656 621.953125 369.140625 628.492188 369.394531 C 630.890625 369.378906 633.851562 369.378906 635.886719 367.867188 C 636.121094 372.148438 631.21875 372.328125 627.796875 372.40625 C 625.207031 372.414062 622.554688 372.355469 619.96875 372.210938 C 616.03125 371.972656 612.1875 371.351562 608.292969 370.582031 C 614.402344 373.3125 621.203125 374.046875 627.84375 373.757812 C 630.414062 373.574219 633.738281 373.3125 635.484375 371.132812 C 635.523438 371.078125 635.5625 371.019531 635.601562 370.964844 C 635.886719 373.679688 634.472656 375.042969 631.730469 375.558594 C 629.25 376.003906 626.65625 375.910156 624.117188 375.90625 C 618.941406 375.945312 613.867188 375.347656 608.75 374.480469 C 613.589844 376.460938 618.890625 377.347656 624.109375 377.335938 C 626.746094 377.332031 629.402344 377.339844 631.992188 376.648438 C 632.933594 376.394531 633.75 376.019531 634.394531 375.53125 C 634.1875 376.277344 633.832031 376.980469 633.296875 377.523438 C 632.023438 378.550781 630.242188 378.640625 628.667969 378.789062 C 626.019531 378.960938 623.355469 378.785156 620.707031 378.609375 C 618.042969 378.398438 615.359375 378.289062 612.785156 377.851562 C 610.652344 377.5 608.472656 376.851562 607.347656 374.867188 L 607.113281 374.476562 C 607.050781 374.34375 606.882812 373.988281 606.820312 373.859375 C 606.769531 373.71875 606.628906 373.359375 606.578125 373.210938 L 606.449219 372.765625 C 605.90625 370.730469 606.046875 368.636719 606.257812 366.539062 C 606.519531 363.929688 606.964844 361.328125 607.898438 358.859375 C 609.808594 353.902344 612.640625 349.320312 616.28125 345.421875 C 614.308594 347.109375 612.550781 349.046875 611.019531 351.148438 C 611.050781 342.742188 610.554688 334.246094 609.628906 325.890625 C 608.726562 317.3125 607.15625 308.800781 605.957031 300.273438 C 605.214844 295.027344 604.730469 289.574219 604.851562 284.273438 C 604.886719 283.367188 604.90625 281.957031 604.984375 281.070312 C 605.910156 270.578125 606.925781 260.058594 607.515625 249.539062 C 608.355469 250.4375 609.238281 251.292969 610.175781 252.09375 C 618.125 259.089844 629.503906 261.523438 639.636719 258.585938 C 640.84375 264.644531 641.929688 270.738281 642.542969 276.78125 C 642.746094 279.332031 643.097656 282.789062 643.222656 285.339844 C 643.234375 285.628906 643.246094 285.921875 643.257812 286.210938 C 642.953125 287.773438 642.632812 289.335938 642.292969 290.890625 Z M 624.265625 354.792969 C 624.140625 355.757812 623.660156 356.699219 623.386719 357.671875 C 622.609375 357.636719 621.820312 357.667969 621.050781 357.648438 C 620.246094 357.585938 620.214844 357.3125 620.660156 356.683594 C 621.589844 355.355469 622.339844 353.867188 622.878906 352.34375 C 623.003906 352.039062 623.09375 351.734375 623.253906 351.546875 C 623.425781 351.691406 623.632812 352.03125 623.769531 352.320312 C 624.183594 353.101562 624.421875 353.90625 624.265625 354.792969 Z M 698.5625 718.085938 C 697.667969 709.207031 696.054688 700.402344 693.664062 691.796875 C 690.539062 680.3125 685.761719 669.378906 681.828125 658.183594 C 679.574219 651.914062 677.59375 645.554688 675.753906 639.152344 C 675.125 636.851562 674.472656 634.464844 673.839844 632.070312 C 681.183594 631.683594 688.46875 630.503906 695.644531 628.90625 C 703.019531 627.214844 710.300781 625.046875 717.277344 622.101562 C 703.300781 625.800781 688.050781 629.277344 673.816406 631.984375 C 673.117188 629.332031 672.441406 626.667969 671.847656 624.101562 C 671.691406 623.429688 671.238281 621.488281 671.097656 620.855469 L 670.976562 620.3125 C 670.792969 619.578125 671.023438 618.773438 671.59375 618.261719 C 671.9375 617.953125 672.351562 617.75 672.820312 617.707031 C 675.953125 617.3125 679.082031 616.875 682.199219 616.378906 C 688.0625 615.421875 693.902344 614.324219 699.691406 612.996094 C 693.847656 614.023438 687.988281 614.957031 682.101562 615.6875 C 678.976562 616.089844 675.847656 616.453125 672.714844 616.765625 C 672.433594 616.789062 672.144531 616.855469 671.871094 616.960938 C 671.539062 613.238281 671.300781 609.511719 671.226562 605.785156 C 670.917969 597.949219 671.984375 590.246094 672.351562 582.421875 C 672.515625 578.5 672.503906 574.578125 672.363281 570.65625 C 671.753906 555.257812 669.023438 539.875 663.804688 525.367188 C 681.238281 523.496094 700.703125 521.421875 717.25 519.664062 C 717.027344 522.59375 716.882812 525.527344 716.722656 528.460938 C 716.253906 537.570312 715.957031 547.691406 715.828125 556.863281 C 715.765625 561.589844 715.765625 566.316406 715.566406 571.035156 C 715.394531 575.773438 714.746094 580.453125 714.5 585.191406 C 714.460938 587.167969 714.683594 589.128906 714.832031 591.09375 C 715.046875 593.9375 715.9375 599.777344 716.546875 601.960938 C 717.195312 604.171875 717.894531 606.308594 718.820312 608.425781 C 718.75 608.410156 718.675781 608.394531 718.601562 608.386719 C 717.898438 608.246094 717.011719 608.59375 716.351562 608.761719 C 710.839844 610.324219 705.273438 611.703125 699.691406 612.996094 C 705.34375 612.003906 710.953125 610.785156 716.53125 609.441406 L 717.574219 609.183594 C 718.785156 608.84375 720.125 609.699219 720.304688 610.941406 C 722.53125 623.226562 723.417969 635.785156 722.496094 648.242188 C 721.542969 659.652344 720.753906 671.160156 720.625 682.617188 C 720.589844 688.359375 720.613281 694.160156 721.367188 699.863281 C 722.035156 704.140625 723.035156 708.371094 724.605469 712.410156 C 726.136719 716.214844 728.058594 719.859375 728.957031 723.886719 C 728.21875 723.960938 727.867188 724.761719 727.535156 725.535156 C 727.230469 726.246094 726.886719 727.050781 726.332031 727.167969 C 725.621094 727.320312 724.832031 726.15625 723.828125 724.683594 C 722.542969 722.789062 720.78125 720.191406 717.847656 718.613281 C 713.71875 716.390625 708.144531 716.574219 704.289062 719.0625 C 701.550781 720.828125 700.109375 723.503906 699.15625 725.636719 C 699.015625 723.132812 698.828125 720.535156 698.5625 718.085938 Z M 717.351562 522.042969 C 717.742188 522.179688 718.136719 522.3125 718.527344 522.445312 C 719.148438 535.691406 720.292969 548.898438 720.507812 562.152344 C 720.605469 570.015625 720.210938 577.84375 719.621094 585.695312 C 719.445312 585.5 719.238281 585.328125 718.972656 585.253906 C 718.234375 585.003906 717.386719 585.472656 717.195312 586.21875 L 717.023438 586.859375 C 716.480469 588.894531 716.046875 590.960938 715.707031 593.042969 C 715.515625 592.378906 715.535156 591.71875 715.425781 591.183594 C 715.035156 589.210938 715.039062 587.226562 715.195312 585.230469 C 715.492188 582.105469 716.058594 578.976562 716.378906 575.84375 C 717.402344 566.734375 717.191406 556.613281 717.359375 547.414062 C 717.433594 538.988281 717.488281 530.480469 717.351562 522.042969 Z M 731.511719 753.421875 C 731.5 753.429688 731.488281 753.441406 731.476562 753.453125 C 730.328125 754.621094 728.945312 754.640625 721.257812 754.746094 L 720.988281 754.75 C 718.148438 754.789062 715.25 754.710938 712.449219 754.632812 C 707.882812 754.503906 703.160156 754.375 698.519531 754.753906 C 697.882812 754.804688 697.25 754.859375 696.632812 754.917969 C 692.488281 755.292969 688.910156 755.617188 687.652344 753.742188 C 687.53125 753.566406 687.175781 753.03125 687.175781 751.636719 C 687.175781 749.140625 688.335938 747.34375 690.078125 745.414062 C 690.339844 745.125 690.613281 744.835938 690.890625 744.542969 C 696.4375 742.539062 702.246094 741.640625 708.132812 741.78125 C 712.417969 741.882812 718.015625 742.171875 721.457031 744.960938 C 722.65625 745.953125 723.460938 747.355469 723.726562 748.90625 C 723.773438 747.265625 723.074219 745.644531 721.9375 744.453125 C 718.515625 741.03125 712.75 740.457031 708.148438 740.351562 C 702.394531 740.257812 696.511719 741.335938 691.402344 744.011719 C 691.457031 743.953125 691.511719 743.898438 691.570312 743.835938 C 693.859375 741.46875 696.449219 738.78125 697.867188 734.472656 C 698.300781 733.152344 698.4375 732.253906 698.570312 731.390625 C 698.734375 730.308594 698.890625 729.285156 699.671875 727.445312 C 699.695312 727.390625 699.71875 727.332031 699.746094 727.273438 L 699.820312 727.09375 L 699.820312 727.089844 C 700.984375 724.367188 702.269531 721.785156 704.9375 720.0625 C 708.441406 717.800781 713.519531 717.636719 717.285156 719.664062 C 719.960938 721.101562 721.558594 723.457031 722.84375 725.351562 C 724.097656 727.195312 725.085938 728.652344 726.582031 728.332031 C 727.738281 728.085938 728.234375 726.929688 728.628906 726.003906 C 728.765625 725.695312 728.957031 725.238281 729.09375 725.09375 C 729.273438 725.226562 729.890625 725.964844 730.632812 729.886719 C 731.164062 732.695312 731.566406 736.113281 731.808594 738.152344 C 733.367188 751.304688 732.140625 752.78125 731.511719 753.421875 Z M 731.339844 706.480469 C 731.703125 713.578125 732.570312 720.9375 736.007812 727.308594 C 737.464844 730.089844 739.476562 732.539062 740.492188 735.492188 C 741.820312 739.59375 743.238281 744.800781 741.582031 748.957031 C 740.148438 752.398438 736.226562 753.667969 732.707031 753.847656 C 733.691406 752.484375 734.347656 749.457031 732.992188 738.015625 C 731.746094 727.46875 730.761719 723.902344 729.085938 723.878906 C 729.050781 723.878906 729.011719 723.878906 728.976562 723.882812 C 728.753906 722.667969 728.476562 721.464844 728.121094 720.277344 C 727.535156 718.316406 726.722656 716.429688 725.96875 714.527344 C 726.90625 714.503906 727.707031 714.285156 728.574219 714.003906 C 729.5 713.667969 730.320312 713.3125 731.136719 712.660156 C 729.328125 711.921875 726.972656 712.6875 725.878906 714.296875 C 725.609375 713.609375 725.347656 712.921875 725.109375 712.222656 C 724.484375 710.40625 723.964844 708.539062 723.527344 706.652344 C 724.730469 707.472656 725.980469 708.191406 727.152344 709.042969 C 728.507812 709.984375 729.707031 710.988281 731.082031 711.980469 C 730.089844 708.800781 726.773438 706.386719 723.449219 706.324219 C 723.410156 706.148438 723.371094 705.972656 723.332031 705.796875 C 724.554688 705.53125 725.675781 705.046875 726.8125 704.59375 C 727.972656 704.09375 729.058594 703.652344 730.164062 702.949219 C 727.679688 702.25 724.609375 703.519531 723.324219 705.75 C 722.890625 703.753906 722.550781 701.742188 722.292969 699.742188 C 722.109375 698.117188 721.992188 696.476562 721.925781 694.835938 C 723.988281 694.230469 726.273438 694.664062 728.03125 695.878906 C 731.097656 698.039062 731.019531 703.054688 731.339844 706.480469 Z M 762.464844 594.496094 C 762.496094 594.59375 762.511719 594.671875 762.492188 594.808594 L 762.402344 595.457031 C 761.734375 600.414062 760.796875 605.335938 759.5625 610.183594 C 746.09375 612.066406 733.144531 610.148438 720.785156 604.363281 C 731.953125 611.878906 746.617188 614.105469 759.53125 610.3125 C 758.070312 616.035156 756.207031 621.648438 753.886719 627.082031 C 752.589844 630.207031 750.953125 633.574219 749.359375 636.558594 C 746.085938 642.773438 742.15625 648.691406 738.878906 654.917969 C 734.730469 662.722656 731.75 671.179688 730.007812 679.84375 C 728.980469 684.9375 728.328125 690.105469 728.121094 695.296875 C 726.242188 694.238281 723.925781 693.996094 721.921875 694.785156 C 721.902344 694.304688 721.886719 693.828125 721.875 693.351562 C 721.585938 681.203125 722.375 669.035156 723.238281 656.917969 C 723.613281 651.878906 724.265625 644.683594 724.199219 639.703125 C 724.199219 630.347656 723.222656 620.996094 721.351562 611.835938 L 721.136719 610.777344 C 720.945312 609.691406 720.078125 608.78125 719.03125 608.476562 C 719.039062 606.125 718.546875 603.816406 717.921875 601.574219 C 717.425781 599.867188 716.5625 596.046875 715.746094 593.179688 C 716.175781 591.078125 716.703125 588.996094 717.308594 586.941406 L 717.5 586.308594 C 717.65625 585.738281 718.316406 585.417969 718.855469 585.613281 C 719.257812 585.746094 719.4375 586.125 719.691406 586.449219 C 719.957031 586.804688 720.226562 587.15625 720.503906 587.5 C 726.699219 595.300781 735.984375 600.324219 746.097656 599.667969 C 751.605469 599.355469 756.953125 597.390625 761.507812 594.3125 C 761.859375 594.019531 762.277344 594.113281 762.464844 594.496094 Z M 764.773438 559.765625 C 763.332031 570.734375 762.242188 581.765625 762.113281 592.835938 C 761.625 592.785156 761.15625 592.953125 760.777344 593.234375 L 760.507812 593.417969 C 755.863281 596.554688 750.351562 598.476562 744.730469 598.621094 C 735.492188 598.980469 726.722656 594.167969 720.859375 587.210938 C 720.574219 586.878906 720.292969 586.539062 720.023438 586.195312 C 719.902344 586.042969 719.78125 585.878906 719.648438 585.726562 C 722.09375 572.714844 722.320312 559.359375 721.222656 546.1875 C 720.589844 538.246094 719.824219 530.3125 718.53125 522.449219 C 735.097656 528.070312 753.03125 529.644531 770.339844 527.0625 C 767.988281 537.875 766.25 548.804688 764.773438 559.765625 Z M 826.707031 305.910156 L 825.796875 306.386719 C 825.332031 306.59375 824.375 307.003906 823.914062 307.210938 C 823.191406 307.511719 822.234375 307.828125 821.503906 308.109375 C 820.679688 308.347656 819.855469 308.613281 819.03125 308.835938 C 809.574219 311.222656 799.710938 310.785156 790.0625 309.882812 C 781.730469 309.050781 773.417969 307.808594 765.1875 306.265625 C 762.441406 305.738281 759.699219 305.179688 756.964844 304.597656 C 759.667969 305.328125 762.382812 306.015625 765.113281 306.636719 C 771.511719 308.121094 777.980469 309.335938 784.488281 310.277344 C 783.832031 329.0625 783.941406 347.871094 784.753906 366.652344 C 785.34375 380.261719 786.304688 393.882812 787.636719 407.445312 L 787.679688 407.886719 L 787.703125 408.109375 C 787.84375 409.390625 787.105469 410.671875 785.945312 411.234375 C 785.726562 411.34375 785.5 411.425781 785.261719 411.476562 L 784.402344 411.660156 L 782.671875 412.027344 C 780.394531 412.5 778.003906 412.925781 775.710938 413.316406 C 758.257812 416.25 740.316406 416.269531 722.886719 413.167969 C 711.222656 411.167969 699.726562 408.117188 687.984375 406.507812 C 679.828125 405.347656 671.402344 404.785156 663.164062 404.765625 C 672.632812 405.105469 682.082031 405.976562 691.386719 407.722656 C 700.71875 409.375 709.886719 411.78125 719.1875 413.632812 C 724.042969 414.660156 728.945312 415.4375 733.867188 415.96875 C 738.230469 440.296875 744.816406 464.261719 753.492188 487.402344 C 752.667969 484.394531 751.800781 481.402344 750.953125 478.40625 C 745.003906 457.839844 739.359375 436.675781 733.921875 415.976562 C 736.582031 416.261719 739.25 416.476562 741.925781 416.625 C 750.578125 438.839844 761.296875 460.273438 773.90625 480.511719 C 763.011719 459.332031 752.375 438.058594 741.984375 416.625 C 756.589844 417.414062 771.308594 416.097656 785.582031 412.851562 C 786.050781 412.75 786.492188 412.5625 786.894531 412.316406 C 787.460938 419.3125 787.863281 426.328125 787.996094 433.34375 C 788.648438 462.882812 785.378906 492.53125 778.046875 521.15625 C 777.40625 523.234375 775.582031 524.867188 773.445312 525.269531 C 772.824219 525.375 771.742188 525.578125 771.105469 525.679688 C 753.226562 528.703125 734.722656 527.402344 717.351562 522.035156 C 717.339844 521.242188 717.324219 520.449219 717.308594 519.660156 C 717.511719 519.636719 717.71875 519.617188 717.917969 519.59375 C 719.488281 519.511719 720.949219 518.585938 721.59375 517.140625 C 721.945312 516.457031 721.988281 515.464844 722.078125 514.722656 C 722.917969 507.1875 723.613281 499.636719 724.144531 492.070312 C 725.890625 467.875 726.0625 443.566406 724.683594 419.367188 C 724.785156 422.394531 724.863281 425.421875 724.921875 428.453125 C 725.363281 449.644531 724.71875 470.863281 723.03125 491.988281 C 722.421875 499.53125 721.683594 507.0625 720.808594 514.578125 C 720.710938 515.140625 720.71875 516.097656 720.421875 516.597656 C 720.003906 517.523438 719.070312 518.167969 718.066406 518.257812 L 717.78125 518.289062 L 717.21875 518.347656 C 697.585938 520.324219 673.570312 522.859375 653.941406 525.027344 C 653.511719 525.0625 652.503906 525.226562 652.101562 525.171875 C 651.109375 525.082031 650.199219 524.441406 649.785156 523.535156 L 649.695312 523.324219 L 649.628906 523.105469 C 649.074219 519.96875 648.640625 516.800781 648.164062 513.648438 C 642.949219 477.785156 640.941406 441.460938 642.003906 405.234375 C 642.015625 405.238281 642.027344 405.246094 642.042969 405.253906 C 642.664062 405.523438 643.355469 405.632812 644.03125 405.578125 C 645.300781 405.464844 646.574219 405.367188 647.847656 405.277344 C 652.945312 404.933594 658.054688 404.761719 663.164062 404.765625 C 658.050781 404.609375 652.933594 404.652344 647.828125 404.902344 C 646.550781 404.960938 645.269531 405.035156 643.996094 405.117188 C 642.796875 405.207031 641.585938 404.648438 640.875 403.679688 C 640.332031 402.953125 640.101562 402.0625 640.191406 401.160156 L 640.265625 400.207031 C 640.363281 398.992188 640.457031 397.78125 640.546875 396.566406 C 652.582031 396.070312 664.664062 396.285156 676.644531 397.519531 C 700.9375 399.53125 724.375 407.914062 748.847656 408.429688 C 751.503906 408.492188 755.402344 408.492188 758.007812 408.382812 C 764.105469 408.226562 770.195312 407.625 776.230469 406.75 C 779.246094 406.308594 782.246094 405.78125 785.230469 405.152344 C 779.21875 406.097656 773.164062 406.792969 767.09375 407.136719 C 758.0625 407.679688 748.816406 407.578125 739.8125 406.644531 C 724.660156 405.175781 709.933594 401.089844 694.917969 398.65625 C 676.996094 395.65625 658.628906 394.917969 640.550781 396.546875 C 642.308594 373.574219 643.46875 350.496094 644.277344 327.464844 C 644.296875 326.835938 644.320312 326.207031 644.34375 325.578125 C 645.226562 330.707031 646.453125 335.796875 648 340.78125 C 653.714844 359.160156 663.554688 376.363281 676.8125 390.332031 C 661.292969 371.105469 650.183594 348.570312 644.378906 324.566406 C 644.660156 316.605469 644.933594 308.585938 644.953125 300.582031 C 650.105469 320.152344 658.617188 338.886719 669.574219 355.894531 C 678.550781 369.710938 689.226562 382.527344 701.382812 393.652344 C 689.15625 380.988281 678.121094 367.136719 668.890625 352.152344 C 658.789062 335.863281 650.835938 318.285156 644.953125 300.039062 C 644.957031 295.097656 644.863281 290.167969 644.605469 285.265625 C 644.558594 284.304688 644.421875 282.40625 644.324219 281.441406 C 644.273438 280.902344 644.195312 279.964844 644.113281 278.984375 C 649.949219 294.164062 657.375 308.765625 666.011719 322.542969 C 668.386719 326.183594 671.140625 330.484375 673.695312 333.996094 C 675.863281 337.15625 678.835938 341.007812 681.148438 344.074219 C 682.578125 345.839844 685.207031 349.144531 686.679688 350.890625 C 688.5 352.984375 690.5625 355.476562 692.425781 357.523438 C 694.355469 359.648438 697.269531 362.855469 699.265625 364.859375 C 701.25 366.960938 704.25 369.90625 706.355469 371.949219 C 707.375 372.960938 708.941406 374.382812 710.011719 375.378906 C 718.5625 383.339844 727.71875 390.671875 737.238281 397.4375 C 737.238281 397.4375 741.355469 400.28125 741.355469 400.28125 C 739.382812 398.808594 735.34375 395.714844 733.410156 394.203125 C 724.921875 387.507812 716.738281 380.359375 708.972656 372.839844 C 707.308594 371.246094 704.421875 368.3125 702.785156 366.671875 C 701.203125 365.003906 699.207031 362.914062 697.636719 361.238281 C 696.519531 359.996094 693.742188 356.917969 692.621094 355.679688 C 691.441406 354.3125 689.75 352.3125 688.570312 350.9375 C 687.457031 349.683594 684.929688 346.488281 683.839844 345.136719 C 681.722656 342.570312 679.011719 338.90625 676.988281 336.246094 C 674.597656 332.898438 671.40625 328.449219 669.152344 324.980469 C 668.382812 323.820312 667.121094 321.976562 666.417969 320.804688 C 657.847656 307.414062 650.375 293.257812 644.085938 278.652344 C 643.984375 277.472656 643.875 276.285156 643.785156 275.679688 C 641.886719 259.78125 637.367188 244.371094 634.871094 228.578125 C 632.253906 213.476562 630.125 198.289062 628.453125 183.054688 C 630.109375 202.980469 632.652344 222.832031 636.355469 242.488281 C 628.171875 230.074219 623.128906 216.191406 621.429688 201.382812 C 621.167969 212.914062 624.445312 224.5 630.320312 234.398438 C 632.105469 237.394531 634.136719 240.242188 636.425781 242.855469 C 636.488281 243.183594 636.550781 243.515625 636.613281 243.847656 C 636.941406 245.507812 637.285156 247.179688 637.632812 248.851562 C 633.84375 245.691406 630.210938 242.417969 626.878906 238.789062 C 623.3125 234.960938 620.175781 230.820312 617.140625 226.539062 C 621.257812 235.988281 628.628906 244.128906 637.679688 249.085938 C 638.332031 252.226562 638.996094 255.390625 639.628906 258.558594 C 629.484375 261.039062 618.542969 258.457031 610.789062 251.390625 C 609.496094 250.226562 608.277344 248.964844 607.183594 247.617188 C 606.085938 246.367188 605.605469 244.714844 605.828125 243.085938 C 607.039062 232.558594 608.480469 222.054688 610.179688 211.597656 C 611.128906 205.960938 612.089844 200.320312 613.871094 194.894531 C 616.160156 187.632812 620.75 181.902344 626.808594 177.378906 C 629.554688 175.226562 632.53125 173.363281 635.6875 171.867188 C 639.652344 169.964844 643.835938 168.632812 648.035156 167.269531 C 656.472656 164.628906 664.859375 161.761719 673.0625 158.449219 C 674.628906 157.8125 676.191406 157.160156 677.75 156.5 C 673.503906 160.773438 673.625 167.792969 675.683594 173.375 C 679.195312 182.355469 689.050781 186.820312 698.003906 188.386719 C 702.613281 189.167969 707.371094 188.972656 711.929688 187.976562 C 721.609375 185.820312 731.820312 179.832031 735.417969 170.152344 C 736.898438 165.609375 737.632812 159.929688 734.847656 155.730469 C 734.265625 154.882812 733.519531 154.15625 732.683594 153.566406 C 743.523438 156.0625 755.90625 158.832031 766.71875 161.230469 C 772.878906 162.558594 779.085938 164.085938 784.632812 167.15625 C 787.582031 168.785156 790.371094 170.761719 792.835938 173.058594 C 805.671875 185.3125 812.054688 202.273438 818.371094 218.484375 C 821.214844 225.859375 824.8125 235.792969 827.621094 243.238281 C 827.726562 243.558594 828.027344 244.242188 828.0625 244.535156 C 828.292969 245.648438 827.71875 246.804688 826.730469 247.351562 L 826.421875 247.550781 C 822.332031 250.226562 818.160156 252.769531 813.914062 255.183594 C 807.972656 258.578125 801.875 261.703125 795.675781 264.597656 C 795.269531 264.769531 794.0625 265.367188 793.6875 265.503906 C 792.886719 265.8125 791.960938 265.746094 791.160156 265.292969 C 790.679688 265.039062 790.023438 264.289062 789.628906 263.953125 C 786.867188 261.273438 784.300781 258.394531 781.964844 255.332031 C 781.691406 247.730469 781.410156 239.84375 781.078125 232.402344 C 781.078125 232.378906 781.078125 232.347656 781.074219 232.324219 C 790.09375 230.460938 798.050781 224.351562 802.726562 216.476562 C 803.402344 215.3125 804.023438 214.125 804.535156 212.886719 C 803.746094 213.96875 802.972656 215.046875 802.144531 216.078125 C 796.652344 223.199219 789.378906 228.722656 781.074219 232.171875 C 781.050781 231 781.003906 228.5625 780.984375 227.546875 C 780.980469 227.183594 780.980469 226.816406 780.980469 226.453125 C 788.632812 218.449219 793.984375 208.140625 796.152344 197.285156 C 794.003906 202.546875 791.773438 207.71875 789.101562 212.714844 C 786.664062 217.351562 783.886719 221.757812 780.976562 226.117188 C 780.96875 209.296875 783.640625 192.601562 787.859375 176.324219 C 782.074219 193.824219 779.054688 212.355469 779.632812 230.816406 C 780.085938 242.660156 780.808594 254.699219 781.648438 266.511719 C 781.960938 270.597656 782.273438 274.679688 782.636719 278.761719 C 780.597656 279.121094 778.558594 279.460938 776.519531 279.773438 C 769.96875 280.8125 763.339844 281.261719 756.707031 280.859375 C 753.390625 280.679688 750.082031 280.292969 746.785156 279.804688 C 760.132812 283.257812 773.234375 282.140625 786.605469 279.480469 C 801.441406 276.847656 810.285156 271.699219 825.5625 277.722656 C 821.082031 275.46875 816.078125 274.144531 811.042969 273.957031 C 806.980469 273.789062 802.9375 274.558594 798.988281 275.433594 C 798.371094 273.75 797.527344 272.214844 796.617188 270.683594 C 795.613281 269.070312 794.578125 267.503906 793.253906 266.117188 C 793.460938 266.085938 793.660156 266.039062 793.855469 265.96875 C 794.296875 265.808594 795.480469 265.265625 795.902344 265.101562 C 798.597656 263.925781 801.277344 262.707031 803.921875 261.421875 C 811.847656 257.59375 819.546875 253.296875 826.976562 248.574219 C 828.578125 256.101562 830.433594 265.171875 831.945312 272.625 C 832.761719 276.734375 833.636719 280.832031 834.261719 284.96875 C 835.578125 293.667969 835.78125 301.679688 826.707031 305.910156 Z M 793.113281 266.140625 C 793.9375 269.4375 796.09375 273.121094 798.613281 275.515625 C 797.773438 275.703125 796.9375 275.890625 796.109375 276.078125 C 791.65625 277.058594 787.179688 277.957031 782.683594 278.753906 C 782.570312 272.691406 782.335938 266.019531 782.132812 259.980469 C 782.078125 258.46875 782.023438 256.933594 781.96875 255.390625 C 784.191406 258.523438 786.671875 261.480469 789.367188 264.214844 C 789.808594 264.644531 790.421875 265.339844 790.941406 265.65625 C 791.609375 266.0625 792.375 266.222656 793.113281 266.140625 Z M 793.113281 266.140625 " fill-opacity="1" fill-rule="nonzero"/></g><path fill="#231f20" d="M 712.664062 723.480469 C 714.121094 722.808594 715.695312 722.28125 717.414062 721.882812 C 715.300781 721.46875 713.101562 721.800781 711.125 722.675781 C 709.144531 721.816406 706.941406 721.503906 704.832031 721.929688 C 706.558594 722.316406 708.132812 722.828125 709.597656 723.492188 C 707.359375 724.902344 705.585938 727.054688 704.859375 729.585938 C 706.769531 727.308594 708.808594 725.566406 711.132812 724.257812 C 713.46875 725.550781 715.519531 727.277344 717.445312 729.539062 C 716.707031 727.007812 714.914062 724.875 712.664062 723.480469 Z M 712.664062 723.480469 " fill-opacity="1" fill-rule="nonzero"/><path fill="#231f20" d="M 712.664062 731.816406 C 714.121094 731.148438 715.695312 730.621094 717.414062 730.21875 C 715.300781 729.808594 713.101562 730.136719 711.125 731.011719 C 709.144531 730.15625 706.941406 729.839844 704.832031 730.269531 C 706.558594 730.652344 708.132812 731.167969 709.597656 731.828125 C 707.359375 733.242188 705.585938 735.390625 704.859375 737.925781 C 706.769531 735.644531 708.808594 733.902344 711.132812 732.59375 C 713.46875 733.886719 715.515625 735.613281 717.445312 737.875 C 716.707031 735.347656 714.914062 733.210938 712.664062 731.816406 Z M 712.664062 731.816406 " fill-opacity="1" fill-rule="nonzero"/><path fill="#231f20" d="M 726.449219 715.617188 C 727.363281 716.628906 728.316406 717.382812 729.316406 718.226562 C 730.339844 719.050781 731.265625 719.839844 732.433594 720.539062 C 731.855469 717.910156 729.136719 715.683594 726.449219 715.617188 Z M 726.449219 715.617188 " fill-opacity="1" fill-rule="nonzero"/></svg>