<svg xmlns="http://www.w3.org/2000/svg" xmlns:xlink="http://www.w3.org/1999/xlink" width="1920" zoomAndPan="magnify" viewBox="0 0 1440 809.999993" height="1080" preserveAspectRatio="xMidYMid meet" version="1.0"><defs><clipPath id="8c80f6c586"><path d="M 563.457031 39 L 876.207031 39 L 876.207031 770.820312 L 563.457031 770.820312 Z M 563.457031 39 " clip-rule="nonzero"/></clipPath></defs><path fill="#ecc19c" d="M 754.21875 176.414062 C 764.257812 173.746094 774.988281 164.160156 774.414062 154.167969 C 774.277344 151.71875 773.480469 149.648438 772.632812 148.070312 C 772.332031 147.507812 772.148438 146.898438 772.078125 146.265625 C 772.066406 146.175781 772.058594 146.078125 772.054688 145.984375 L 772.054688 145.972656 C 772.027344 145.480469 771.992188 144.988281 771.960938 144.503906 L 771.960938 144.5 C 771.816406 142.019531 771.726562 139.453125 771.683594 136.800781 C 771.589844 130.144531 771.871094 123.957031 772.375 118.308594 C 774.867188 119.625 779.546875 116.417969 781.785156 112.703125 C 783.335938 110.121094 783.441406 107.757812 783.601562 104.050781 C 783.773438 100.171875 784.039062 94.179688 781.265625 92.996094 C 780.421875 92.636719 779.46875 92.792969 778.632812 93.113281 C 777.554688 93.523438 776.667969 94.195312 776.449219 94.359375 C 772.382812 97.453125 772.574219 103.375 771.960938 103.335938 C 771.308594 103.292969 774.128906 90.449219 768.253906 79.269531 C 766.945312 76.785156 766.03125 75.042969 764.085938 73.355469 C 752.539062 63.34375 726.300781 74.050781 722.183594 75.726562 C 715.796875 78.332031 713.679688 80.089844 710.738281 79.578125 C 710.828125 85.605469 711.066406 91.0625 711.363281 95.84375 C 710.890625 96.046875 710.382812 96.332031 709.894531 96.746094 C 707.289062 98.964844 707.492188 102.992188 707.910156 109.421875 C 708.257812 114.90625 709.085938 116.277344 709.402344 116.769531 C 710.695312 118.761719 712.535156 119.882812 713.945312 120.5 C 715.644531 130.332031 717.652344 133.757812 719.796875 136.410156 C 719.878906 136.511719 719.96875 136.625 720.066406 136.746094 C 720.34375 139.132812 720.53125 141.714844 720.570312 144.460938 C 720.574219 145.003906 720.578125 145.550781 720.574219 146.101562 C 720.574219 146.414062 720.570312 146.726562 720.5625 147.042969 L 720.5625 147.058594 C 720.550781 147.789062 720.214844 148.46875 719.675781 148.964844 C 717.070312 151.375 716.953125 155.871094 716.949219 156.21875 C 716.820312 165.96875 736.667969 181.070312 754.21875 176.414062 Z M 750.96875 92.148438 C 752.503906 92.148438 753.75 93.984375 753.75 96.246094 C 753.75 98.507812 752.503906 100.34375 750.96875 100.34375 C 749.433594 100.34375 748.1875 98.507812 748.1875 96.246094 C 748.1875 93.984375 749.433594 92.148438 750.96875 92.148438 Z M 723.128906 101.542969 C 721.59375 101.542969 720.347656 99.707031 720.347656 97.445312 C 720.347656 95.183594 721.59375 93.347656 723.128906 93.347656 C 724.664062 93.347656 725.910156 95.183594 725.910156 97.445312 C 725.910156 99.707031 724.664062 101.542969 723.128906 101.542969 Z M 723.128906 101.542969 " fill-opacity="1" fill-rule="nonzero"/><path fill="#ecc19c" d="M 639.8125 485.074219 C 640.832031 484.609375 641.097656 483.160156 641.179688 482.691406 C 641.394531 481.488281 641.097656 480.488281 640.5 479.503906 C 641.570312 479.890625 642.480469 479.828125 642.949219 479.382812 C 643.699219 478.667969 643.398438 476.863281 642.5625 475.722656 C 641.398438 474.15625 639.632812 474.433594 636.707031 473.234375 C 636.214844 473.035156 635.75 472.820312 635.324219 472.59375 C 634.8125 471.671875 634.34375 470.640625 633.957031 469.464844 C 633.800781 468.992188 633.402344 467.421875 632.589844 464.289062 C 631.753906 461.042969 631.335938 459.402344 631.226562 458.632812 C 630.761719 455.3125 631.167969 452.679688 631.515625 450.535156 C 631.628906 449.851562 632.484375 444.574219 633.273438 444.617188 C 633.863281 444.648438 634.015625 447.617188 634.832031 454.242188 C 636.125 464.683594 636.929688 466.878906 638.738281 467.769531 C 639.96875 468.378906 641.714844 468.402344 642.929688 467.601562 C 645.542969 465.867188 644.53125 461.046875 643.679688 452.03125 C 642.320312 437.597656 643.746094 437.566406 641.988281 430.957031 C 641.152344 427.796875 639.730469 423.6875 637.195312 419.109375 C 636.214844 417.335938 635.773438 415.3125 635.875 413.28125 C 635.957031 411.6875 636.078125 409.839844 636.265625 407.800781 C 637.707031 392.058594 641.460938 381.546875 645.761719 368.253906 C 652.089844 348.707031 655.253906 338.933594 657.472656 328.183594 C 660.179688 315.039062 660.972656 303.929688 661.199219 296.4375 C 661.234375 295.328125 661.433594 294.230469 661.796875 293.183594 C 663.007812 289.71875 664.179688 286.078125 665.273438 282.261719 C 667.496094 274.550781 669.125 267.21875 670.308594 260.40625 C 665.90625 261.226562 659.917969 261.707031 653.03125 260.472656 C 644.8125 259.003906 638.65625 255.6875 634.882812 253.183594 C 634.839844 253.152344 634.796875 253.125 634.753906 253.09375 C 634.492188 256.429688 634.304688 259.269531 634.167969 261.519531 C 633.394531 274.226562 633.585938 279.214844 631.628906 287.273438 C 630.394531 292.359375 629.363281 294.304688 627.921875 298.59375 C 624.230469 309.578125 623.96875 317.730469 623.078125 331.960938 C 620.769531 368.773438 617.410156 395.492188 615.953125 402.070312 C 615.8125 402.730469 615.125 405.730469 614.621094 409.851562 C 614.160156 413.625 614.085938 416.433594 614.050781 417.582031 C 613.667969 429.128906 611.675781 436.5625 611.761719 449.910156 C 611.761719 449.910156 611.78125 452.941406 612.410156 457.71875 C 613.328125 464.683594 614.492188 466.59375 615.335938 467.675781 C 616.214844 468.796875 617.222656 469.617188 618.167969 470.222656 L 618.171875 470.222656 C 618.53125 471.203125 618.960938 471.902344 619.617188 472.550781 C 621.445312 474.371094 623.949219 474.746094 625.550781 474.792969 C 626.492188 475.4375 627.710938 476.070312 629.273438 476.5625 C 632.769531 481.867188 637.5625 486.101562 639.8125 485.074219 Z M 639.8125 485.074219 " fill-opacity="1" fill-rule="nonzero"/><path fill="#ecc19c" d="M 873.394531 418.347656 C 873.355469 417.199219 873.28125 414.390625 872.820312 410.613281 C 872.3125 406.496094 871.632812 403.496094 871.484375 402.835938 C 870.035156 396.253906 866.671875 369.539062 864.363281 332.722656 C 863.472656 318.496094 863.210938 310.34375 859.515625 299.355469 C 858.078125 295.066406 857.042969 293.125 855.8125 288.039062 C 853.855469 279.976562 854.042969 274.992188 853.273438 262.28125 C 853.136719 260.035156 852.949219 257.195312 852.6875 253.859375 C 852.648438 253.890625 852.605469 253.917969 852.5625 253.949219 C 848.789062 256.453125 842.628906 259.769531 834.410156 261.238281 C 827.527344 262.472656 821.539062 261.992188 817.136719 261.167969 C 818.320312 267.984375 819.941406 275.3125 822.167969 283.027344 C 823.265625 286.839844 824.433594 290.484375 825.644531 293.949219 C 826.007812 294.996094 826.207031 296.09375 826.242188 297.199219 C 826.464844 304.695312 827.261719 315.804688 829.972656 328.949219 C 832.1875 339.699219 835.351562 349.46875 841.679688 369.019531 C 845.984375 382.3125 849.734375 392.824219 851.175781 408.566406 C 851.363281 410.601562 851.484375 412.453125 851.566406 414.046875 C 851.667969 416.074219 851.230469 418.101562 850.246094 419.875 C 847.710938 424.453125 846.292969 428.5625 845.449219 431.71875 C 843.699219 438.332031 845.121094 438.359375 843.761719 452.792969 C 842.910156 461.8125 841.898438 466.632812 844.511719 468.363281 C 845.726562 469.164062 847.472656 469.144531 848.703125 468.535156 C 850.507812 467.644531 851.316406 465.449219 852.609375 455.007812 C 853.425781 448.382812 853.582031 445.410156 854.167969 445.382812 C 854.957031 445.335938 855.8125 450.617188 855.925781 451.296875 C 856.273438 453.445312 856.675781 456.078125 856.214844 459.398438 C 856.109375 460.164062 855.6875 461.808594 854.851562 465.054688 C 854.042969 468.1875 853.640625 469.753906 853.484375 470.226562 C 853.097656 471.40625 852.632812 472.4375 852.117188 473.355469 C 851.691406 473.582031 851.230469 473.800781 850.734375 474 C 847.808594 475.195312 846.042969 474.921875 844.882812 476.488281 C 844.039062 477.625 843.742188 479.429688 844.492188 480.144531 C 844.960938 480.59375 845.871094 480.652344 846.941406 480.269531 C 846.34375 481.253906 846.046875 482.25 846.261719 483.453125 C 846.34375 483.921875 846.609375 485.371094 847.628906 485.839844 C 849.878906 486.867188 854.671875 482.632812 858.167969 477.328125 C 859.730469 476.835938 860.953125 476.203125 861.890625 475.554688 C 863.492188 475.507812 866 475.132812 867.824219 473.316406 C 868.484375 472.667969 868.910156 471.964844 869.269531 470.988281 L 869.273438 470.988281 C 870.222656 470.382812 871.226562 469.558594 872.105469 468.4375 C 872.949219 467.359375 874.117188 465.449219 875.03125 458.484375 C 875.660156 453.703125 875.679688 450.675781 875.679688 450.675781 C 875.765625 437.324219 873.769531 429.894531 873.394531 418.34375 Z M 873.394531 418.347656 " fill-opacity="1" fill-rule="nonzero"/><path fill="#ecc19c" d="M 742.386719 523.519531 C 742.3125 523.519531 742.238281 523.515625 742.167969 523.507812 C 744.8125 540.746094 744.988281 553.332031 744.570312 561.972656 C 744.421875 565.011719 744.007812 571.46875 744.1875 580.511719 C 744.261719 584.191406 744.421875 587.585938 744.617188 590.640625 C 744.949219 590.632812 745.292969 590.679688 745.632812 590.800781 C 752.007812 593.09375 762.871094 595.769531 775.691406 593.253906 C 781.394531 592.140625 786.171875 590.257812 789.929688 588.355469 C 790.265625 588.1875 790.613281 588.089844 790.960938 588.0625 C 790.800781 582.1875 790.765625 575.378906 791.007812 567.824219 C 791.199219 562.058594 791.488281 553.734375 792.765625 543.042969 C 793.523438 536.714844 794.695312 528.992188 796.574219 520.203125 C 792.28125 520.792969 787.855469 521.320312 783.308594 521.777344 C 768.441406 523.257812 754.707031 523.695312 742.386719 523.519531 Z M 742.386719 523.519531 " fill-opacity="1" fill-rule="nonzero"/><path fill="#ecc19c" d="M 648.457031 509.265625 C 648.601562 522.257812 647.574219 533.445312 646.320312 542.292969 C 644.488281 555.207031 643.574219 561.660156 640.597656 569.742188 C 637.023438 579.445312 633.128906 584.941406 631.230469 596.28125 C 630.875 598.414062 630.640625 600.417969 630.5 602.253906 L 630.503906 602.253906 C 630.898438 602.042969 631.339844 601.917969 631.8125 601.894531 C 639.792969 601.488281 649.265625 601.644531 659.785156 603.109375 C 666.832031 604.09375 673.207031 605.503906 678.828125 607.0625 C 679.367188 607.210938 679.84375 607.492188 680.222656 607.859375 C 680.726562 603.261719 680.945312 599.355469 681.054688 596.28125 C 681.371094 586.902344 680.679688 582.195312 682.742188 574.300781 C 683.492188 571.449219 683.894531 570.875 686.90625 563.109375 C 687.707031 561.054688 690 554.800781 694.578125 542.292969 C 695.925781 538.628906 697.59375 534.066406 699.558594 528.664062 C 700.886719 525.003906 702.355469 520.960938 703.953125 516.546875 C 698.101562 514.339844 691.398438 512.320312 683.914062 510.878906 C 669.730469 508.144531 657.433594 508.371094 648.457031 509.265625 Z M 648.457031 509.265625 " fill-opacity="1" fill-rule="nonzero"/><path fill="#ffffff" d="M 640.585938 690.378906 L 632.410156 674.160156 C 635.082031 669.804688 637.757812 665.453125 640.429688 661.097656 C 644.125 664.261719 647.8125 667.429688 651.503906 670.589844 L 651.511719 670.589844 C 647.382812 659.691406 639.167969 650.808594 628.734375 645.808594 L 628.734375 645.8125 C 628.519531 646.050781 628.308594 646.296875 628.09375 646.535156 C 622.5 646.515625 616.910156 646.488281 611.320312 646.46875 L 611.316406 646.46875 C 608.496094 644.925781 605.671875 643.378906 602.855469 641.835938 C 594.136719 643.0625 586.21875 646.777344 579.839844 652.238281 L 579.84375 652.242188 C 578.621094 655.125 577.398438 658.003906 576.167969 660.886719 L 576.171875 660.886719 C 572.777344 665.050781 569.375 669.21875 565.976562 673.386719 C 565.976562 673.390625 565.972656 673.390625 565.972656 673.398438 C 564.703125 677.570312 564.015625 682.003906 564.015625 686.597656 C 564.015625 689.621094 564.3125 692.578125 564.882812 695.441406 C 565.503906 694.082031 566.125 692.726562 566.75 691.371094 C 570.382812 693.304688 574.015625 695.242188 577.644531 697.171875 L 577.644531 697.175781 L 585.683594 714.367188 C 583.703125 716.53125 581.71875 718.695312 579.738281 720.863281 C 585.804688 726.085938 593.269531 729.726562 601.5 731.144531 C 604.007812 731.574219 606.585938 731.800781 609.21875 731.800781 C 609.949219 731.800781 610.675781 731.78125 611.394531 731.75 C 621.117188 731.289062 630.042969 727.753906 637.210938 722.09375 C 638.675781 720.9375 640.066406 719.691406 641.378906 718.367188 C 649.058594 710.59375 653.941406 700.050781 654.390625 688.371094 C 649.835938 689.019531 645.144531 689.730469 640.585938 690.378906 Z M 586.152344 666.847656 C 591.929688 664.214844 597.703125 661.578125 603.484375 658.945312 C 607.347656 663.785156 611.214844 668.628906 615.078125 673.46875 C 611.519531 678.367188 607.960938 683.265625 604.402344 688.164062 L 586.933594 684.695312 C 586.675781 678.75 586.414062 672.796875 586.152344 666.847656 Z M 631.269531 721.628906 C 625.027344 724.148438 618.777344 726.671875 612.53125 729.191406 C 609.265625 725.40625 606 721.617188 602.738281 717.832031 L 612.027344 705.078125 C 618.316406 705.492188 624.597656 705.910156 630.882812 706.324219 C 631.011719 711.425781 631.140625 716.527344 631.269531 721.625 Z M 631.269531 721.628906 " fill-opacity="1" fill-rule="nonzero"/><path fill="#000000" d="M 799.605469 754.226562 C 799.761719 754.460938 801.996094 757.960938 800.886719 761.476562 C 799.078125 767.234375 789.699219 768.605469 785.761719 769.179688 C 775.191406 770.730469 765.835938 767.496094 759.453125 764.269531 C 758.335938 763.707031 757.097656 763.441406 755.847656 763.515625 C 750.742188 763.824219 743.238281 763.867188 737.082031 762.070312 C 736.175781 761.804688 735.03125 761.421875 734.050781 760.410156 C 731.21875 757.492188 732.472656 752.152344 733.925781 746.304688 C 734.222656 745.113281 736.605469 735.703125 738.566406 735.929688 C 738.679688 735.941406 738.773438 735.988281 738.855469 736.054688 L 738.855469 736.058594 C 739.597656 736.648438 739.347656 739.171875 740.738281 739.800781 C 743.988281 741.273438 749.28125 729.214844 761.113281 725.566406 C 764.785156 724.4375 767.054688 724.738281 768.3125 725.125 C 768.640625 725.226562 768.898438 725.332031 769.09375 725.421875 C 772.0625 726.757812 772.9375 729.441406 775.160156 733.523438 C 778.402344 739.480469 781.113281 744.460938 785.671875 747.59375 C 791.726562 751.753906 796.542969 749.574219 799.605469 754.226562 Z M 799.605469 754.226562 " fill-opacity="1" fill-rule="nonzero"/><path fill="#000000" d="M 657.535156 739.671875 C 657.714844 745.695312 657.804688 751.179688 654.414062 753.425781 C 653.242188 754.207031 652.046875 754.335938 651.097656 754.40625 C 644.707031 754.851562 637.378906 753.210938 632.453125 751.824219 C 631.25 751.484375 629.984375 751.476562 628.773438 751.789062 C 621.851562 753.585938 612.019531 754.75 602.023438 750.992188 C 598.296875 749.589844 589.429688 746.25 588.882812 740.242188 C 588.550781 736.574219 591.476562 733.625 591.679688 733.425781 C 594.535156 730.636719 597.53125 731.472656 601.5 731.144531 C 604.007812 731.574219 606.585938 731.800781 609.21875 731.800781 C 609.949219 731.800781 610.675781 731.78125 611.394531 731.75 C 621.117188 731.289062 630.042969 727.753906 637.210938 722.09375 C 638.675781 720.9375 640.066406 719.691406 641.378906 718.367188 C 647.351562 724.6875 649.542969 732.449219 652.269531 731.867188 C 653.925781 731.511719 654.105469 728.433594 655.214844 728.546875 C 657.183594 728.742188 657.503906 738.445312 657.535156 739.671875 Z M 657.535156 739.671875 " fill-opacity="1" fill-rule="nonzero"/><path fill="#004aad" d="M 678.828125 607.0625 C 673.207031 605.503906 666.832031 604.09375 659.785156 603.109375 C 649.265625 601.644531 639.792969 601.488281 631.8125 601.894531 C 631.339844 601.917969 630.898438 602.042969 630.503906 602.253906 L 630.5 602.253906 C 629.511719 602.757812 628.816406 603.75 628.726562 604.917969 C 628.507812 607.953125 628.355469 610.6875 628.246094 613.054688 C 628.140625 615.476562 628.078125 617.523438 628.042969 619.113281 C 627.84375 627.820312 628.050781 636.820312 628.414062 645.65625 C 628.519531 645.707031 628.628906 645.757812 628.734375 645.808594 C 639.167969 650.808594 647.382812 659.691406 651.511719 670.589844 C 653.394531 675.566406 654.425781 680.960938 654.425781 686.597656 C 654.425781 687.1875 654.414062 687.78125 654.390625 688.371094 C 653.941406 700.050781 649.058594 710.59375 641.378906 718.367188 C 647.351562 724.6875 649.542969 732.449219 652.269531 731.867188 C 653.925781 731.511719 654.105469 728.433594 655.214844 728.546875 C 655.355469 721.875 655.417969 717.40625 655.429688 716.6875 C 655.671875 703.082031 663.175781 670.316406 673.257812 644.621094 C 674.175781 642.285156 675.925781 637.933594 677.609375 631.734375 C 679.914062 623.210938 680.832031 615.804688 681.21875 610.449219 C 681.292969 609.453125 680.910156 608.511719 680.222656 607.859375 C 679.84375 607.492188 679.367188 607.210938 678.828125 607.0625 Z M 678.828125 607.0625 " fill-opacity="1" fill-rule="nonzero"/><path fill="#004aad" d="M 793.914062 590.578125 C 793.773438 589.015625 792.398438 587.957031 790.960938 588.0625 C 790.613281 588.089844 790.265625 588.1875 789.929688 588.355469 C 786.171875 590.257812 781.394531 592.140625 775.691406 593.253906 C 762.871094 595.769531 752.007812 593.09375 745.632812 590.800781 C 745.292969 590.679688 744.949219 590.632812 744.617188 590.640625 C 743.289062 590.675781 742.105469 591.675781 741.949219 593.105469 C 740.773438 603.859375 740.265625 612.476562 740.015625 617.878906 C 738.097656 659.582031 743.90625 678.089844 740.957031 716.582031 C 740.355469 724.398438 739.546875 731.097656 738.855469 736.054688 L 738.855469 736.058594 C 739.597656 736.648438 739.347656 739.171875 740.738281 739.800781 C 743.988281 741.273438 749.28125 729.214844 761.113281 725.566406 C 764.785156 724.4375 767.054688 724.738281 768.3125 725.125 C 768.324219 722.011719 768.460938 718.507812 768.800781 714.695312 C 770.363281 696.921875 774.90625 688.675781 784.472656 657.257812 C 789.195312 641.757812 791.582031 633.835938 792.832031 625.683594 C 794.289062 616.195312 794.640625 607.554688 794.460938 600.136719 C 794.371094 596.671875 794.167969 593.472656 793.914062 590.578125 Z M 793.914062 590.578125 " fill-opacity="1" fill-rule="nonzero"/><path fill="#004aad" d="M 854.132812 250.492188 C 852.546875 238.253906 850.78125 227.558594 849.144531 218.699219 C 849.144531 218.699219 844.285156 192.390625 832.945312 175.871094 C 831.285156 173.453125 829.046875 172.128906 829.046875 172.128906 C 828.097656 171.570312 827.3125 171.300781 827.09375 171.21875 C 822.484375 169.5625 805.367188 159.847656 792.683594 154.304688 C 788.589844 152.515625 782.886719 150.257812 775.734375 148.152344 L 775.730469 148.152344 C 774.535156 147.203125 773.222656 146.625 772.078125 146.265625 C 772.148438 146.898438 772.332031 147.507812 772.632812 148.070312 C 773.480469 149.648438 774.277344 151.71875 774.414062 154.167969 C 774.988281 164.160156 764.257812 173.746094 754.21875 176.414062 C 736.667969 181.070312 716.820312 165.96875 716.949219 156.21875 C 716.953125 155.871094 717.070312 151.375 719.675781 148.964844 C 720.214844 148.46875 720.550781 147.789062 720.5625 147.058594 L 720.5625 147.042969 C 720.570312 146.726562 720.574219 146.414062 720.574219 146.101562 C 720.578125 145.550781 720.574219 145.003906 720.570312 144.460938 C 720.023438 144.644531 719.355469 144.886719 718.707031 145.335938 C 718.5625 145.4375 718.394531 145.5625 718.210938 145.703125 L 718.207031 145.699219 C 713.613281 147.261719 709.742188 148.640625 706.816406 149.695312 C 679.785156 159.480469 669.332031 165.320312 664.042969 168.515625 C 659.070312 171.515625 656.539062 173.058594 654.496094 175.105469 C 652.320312 177.277344 648.363281 182.300781 642.144531 202.714844 C 639.511719 211.359375 638.300781 217.9375 638.300781 217.9375 C 636.664062 226.792969 634.894531 237.488281 633.3125 249.726562 C 633.136719 251.035156 633.695312 252.316406 634.753906 253.09375 C 634.796875 253.125 634.839844 253.152344 634.882812 253.183594 C 638.65625 255.6875 644.8125 259.003906 653.03125 260.472656 C 659.917969 261.707031 665.90625 261.226562 670.308594 260.40625 C 670.894531 260.296875 671.453125 260.183594 671.976562 260.066406 C 672.617188 274.9375 672.378906 291.289062 672.378906 291.289062 C 672.207031 302.894531 671.765625 330.554688 669.757812 349.214844 C 669.539062 351.25 669.300781 353.179688 669.042969 354.96875 C 667.765625 363.835938 665.976562 373.867188 665.976562 373.867188 C 665.082031 378.902344 664.628906 381.417969 664.410156 382.292969 C 664.40625 382.324219 664.398438 382.355469 664.390625 382.386719 C 663.847656 384.554688 663.394531 386.742188 662.964844 388.9375 C 662.339844 392.097656 661.761719 395.273438 661.03125 398.410156 C 661.011719 398.503906 660.933594 398.839844 661.011719 399.257812 C 661.148438 399.96875 661.691406 400.621094 662.363281 400.890625 C 660.957031 405.875 659.222656 412.308594 657.375 419.816406 C 654.644531 430.953125 651.1875 445.03125 648.789062 461.574219 C 647.125 473.054688 645.582031 488.394531 645.648438 506.832031 C 645.652344 508.285156 646.90625 509.421875 648.347656 509.28125 C 648.382812 509.273438 648.421875 509.269531 648.457031 509.265625 C 657.433594 508.371094 669.730469 508.144531 683.914062 510.878906 C 691.398438 512.320312 698.101562 514.339844 703.953125 516.546875 C 702.355469 520.960938 700.886719 525.003906 699.558594 528.664062 C 702.730469 529.152344 706.394531 529.496094 710.453125 529.480469 C 714.351562 529.46875 717.867188 529.132812 720.933594 528.660156 C 722.851562 528.367188 724.355469 526.863281 724.664062 524.949219 C 725.316406 520.914062 726.277344 515.664062 727.6875 509.609375 C 730.308594 498.378906 732.1875 494.382812 733.804688 486.585938 C 734.210938 484.621094 734.53125 482.785156 734.789062 481.042969 C 735.058594 492.808594 734.539062 496.105469 736.144531 503.464844 C 736.644531 505.746094 737.261719 508.023438 737.875 511.222656 C 738.074219 512.28125 738.355469 513.835938 738.617188 515.695312 C 738.859375 517.421875 739.03125 519.035156 739.148438 520.5 C 739.277344 522.125 740.570312 523.382812 742.167969 523.507812 C 742.238281 523.515625 742.3125 523.519531 742.386719 523.519531 C 754.707031 523.695312 768.441406 523.257812 783.308594 521.777344 C 787.855469 521.320312 792.28125 520.792969 796.574219 520.203125 C 806.34375 518.867188 815.441406 517.210938 823.816406 515.402344 C 825.484375 515.035156 826.597656 513.457031 826.382812 511.765625 C 823.730469 490.75 821.144531 469.722656 818.621094 448.699219 C 817.207031 436.898438 815.8125 425.085938 814.4375 413.277344 C 815.082031 413.222656 815.628906 412.855469 815.914062 412.546875 C 816.390625 412.03125 816.429688 411.339844 816.445312 410.980469 C 816.539062 408.265625 816.589844 406.910156 816.085938 405.363281 C 816 405.109375 815.714844 399.824219 815.140625 389.261719 C 814.710938 381.355469 814.449219 375.335938 813.925781 363.300781 C 813.242188 347.644531 812.988281 340.253906 812.988281 330.46875 L 812.988281 330.464844 C 812.988281 306.464844 812.988281 294.464844 813.207031 287.714844 C 813.34375 283.535156 813.765625 275.902344 814.617188 260.632812 C 815.386719 260.820312 816.226562 261 817.136719 261.167969 C 821.539062 261.992188 827.527344 262.472656 834.410156 261.238281 C 842.628906 259.769531 848.789062 256.453125 852.5625 253.949219 C 852.605469 253.917969 852.648438 253.890625 852.6875 253.859375 C 853.746094 253.082031 854.304688 251.800781 854.132812 250.492188 Z M 854.132812 250.492188 " fill-opacity="1" fill-rule="nonzero"/><path fill="#231f20" d="M 750.96875 92.148438 C 749.433594 92.148438 748.1875 93.984375 748.1875 96.246094 C 748.1875 98.507812 749.433594 100.34375 750.96875 100.34375 C 752.503906 100.34375 753.75 98.507812 753.75 96.246094 C 753.75 93.984375 752.503906 92.148438 750.96875 92.148438 Z M 750.96875 92.148438 " fill-opacity="1" fill-rule="nonzero"/><path fill="#231f20" d="M 723.128906 93.347656 C 721.59375 93.347656 720.347656 95.183594 720.347656 97.445312 C 720.347656 99.707031 721.59375 101.542969 723.128906 101.542969 C 724.664062 101.542969 725.910156 99.707031 725.910156 97.445312 C 725.910156 95.183594 724.664062 93.347656 723.128906 93.347656 Z M 723.128906 93.347656 " fill-opacity="1" fill-rule="nonzero"/><path fill="#231f20" d="M 750.285156 84.984375 C 746.257812 85.390625 742.363281 87.625 739.992188 90.878906 C 742.613281 88.898438 745.449219 87.375 748.632812 86.703125 C 753.285156 85.691406 758 86.988281 761.945312 89.613281 C 759.175781 86.289062 754.597656 84.523438 750.285156 84.984375 Z M 750.285156 84.984375 " fill-opacity="1" fill-rule="nonzero"/><path fill="#231f20" d="M 725.023438 87.742188 C 728.265625 88.027344 731.265625 89.207031 734.101562 90.859375 C 731.359375 87.910156 727.230469 86.152344 723.179688 86.226562 C 718.84375 86.285156 714.507812 88.578125 712.15625 92.207031 C 715.757812 89.132812 720.285156 87.289062 725.023438 87.742188 Z M 725.023438 87.742188 " fill-opacity="1" fill-rule="nonzero"/><path fill="#231f20" d="M 738.917969 116.246094 C 737.867188 116.128906 736.8125 115.992188 735.886719 115.628906 C 733.234375 114.652344 733.980469 112.402344 734.832031 110.40625 C 735.136719 109.65625 735.402344 108.878906 735.617188 108.097656 C 736.738281 103.9375 736.710938 99.542969 735.796875 95.367188 C 735.550781 99.539062 735.324219 103.699219 734.210938 107.707031 C 733.835938 109.28125 733.058594 110.6875 732.851562 112.3125 C 732.371094 116.105469 735.949219 116.878906 738.917969 116.246094 Z M 738.917969 116.246094 " fill-opacity="1" fill-rule="nonzero"/><path fill="#231f20" d="M 728.480469 126.785156 C 734.367188 130.253906 742.390625 129.910156 747.992188 126.003906 C 741.25 127.984375 735.359375 128.230469 728.480469 126.785156 Z M 728.480469 126.785156 " fill-opacity="1" fill-rule="nonzero"/><path fill="#231f20" d="M 776.519531 113.976562 C 778.839844 113.347656 780.382812 111.265625 781.261719 109.183594 C 782.621094 105.894531 783.125 102.1875 782.253906 98.710938 C 780.828125 91 776.679688 96.03125 774.722656 100.214844 C 775.792969 98.6875 777.679688 95.890625 779.539062 95.488281 C 780.21875 95.40625 780.484375 96.140625 780.683594 96.683594 C 781.542969 99.582031 781.71875 102.777344 780.910156 105.730469 C 780.21875 108.4375 779.003906 111.6875 776.121094 112.589844 C 775.65625 112.71875 775.171875 112.816406 774.730469 112.769531 C 774.960938 112.441406 775.378906 112.023438 775.59375 111.777344 C 776.785156 110.542969 778.039062 108.640625 777.113281 106.875 C 776.550781 105.851562 775.6875 105.433594 775.480469 104.347656 C 775.242188 103.136719 775.558594 101.164062 777.046875 100.992188 C 778.585938 100.910156 779.890625 102.113281 780.679688 103.386719 C 780.269531 102.410156 779.597656 101.507812 778.648438 100.921875 C 776.765625 99.765625 775.097656 100.714844 774.636719 102.769531 C 774.34375 103.894531 774.492188 105.25 775.238281 106.175781 C 775.585938 106.644531 775.929688 107.007812 776.089844 107.375 C 776.632812 108.707031 775.515625 109.941406 774.625 110.867188 C 774.25 111.257812 773.804688 111.671875 773.484375 112.140625 C 773.160156 112.574219 773.0625 113.300781 773.519531 113.730469 C 774.351562 114.457031 775.597656 114.191406 776.519531 113.976562 Z M 776.519531 113.976562 " fill-opacity="1" fill-rule="nonzero"/><g clip-path="url(#8c80f6c586)"><path fill="#231f20" d="M 875.402344 433.832031 C 874.855469 429.335938 874.019531 422.820312 873.75 418.371094 C 873.578125 415.773438 873.296875 413.171875 872.820312 410.613281 C 873.183594 415.816406 872.890625 421.015625 873.335938 426.210938 C 873.9375 433.964844 874.976562 441.671875 874.984375 449.453125 C 875.066406 453.289062 874.671875 457.183594 874.167969 461 C 873.765625 463.488281 873.417969 466.140625 871.984375 468.261719 C 871.496094 468.957031 870.917969 469.597656 870.273438 470.175781 C 870.882812 468.175781 871.214844 466.109375 871.578125 464.050781 C 871.953125 461.644531 872.234375 459.226562 872.265625 456.78125 C 871.152344 460.253906 870.324219 463.785156 869.496094 467.324219 C 869.226562 468.46875 868.988281 469.621094 868.640625 470.671875 C 868.625 470.714844 868.613281 470.746094 868.613281 470.746094 C 868.179688 472.136719 867.292969 473.207031 866.097656 474.003906 C 865.214844 474.589844 864.21875 474.980469 863.1875 475.257812 C 864.183594 474.519531 865.039062 473.605469 865.640625 472.527344 C 867.003906 469.847656 867.726562 466.960938 868.386719 464.070312 C 868.792969 462.152344 869.113281 460.214844 869.242188 458.246094 C 867.832031 461.882812 866.71875 465.605469 865.441406 469.265625 C 865.042969 470.386719 864.667969 471.480469 864.097656 472.484375 C 863.238281 473.851562 862.023438 474.953125 860.683594 475.878906 C 860.21875 476.203125 859.730469 476.492188 859.226562 476.769531 C 860.203125 475.125 861.039062 473.394531 861.707031 471.605469 C 863.246094 467.359375 864.527344 463.03125 865.453125 458.613281 C 864.539062 461.476562 863.558594 464.296875 862.476562 467.089844 C 861.433594 469.875 860.355469 472.640625 858.820312 475.1875 C 856.527344 478.835938 853.757812 482.535156 850.039062 484.753906 C 848.257812 485.691406 847.367188 485.410156 846.996094 483.4375 C 846.476562 480.910156 848.785156 479.171875 850.222656 477.261719 C 851.914062 475.203125 853.386719 472.808594 854.09375 470.207031 C 854.535156 468.390625 855.007812 466.527344 855.429688 464.710938 C 855.820312 462.875 856.355469 461.042969 856.566406 459.164062 C 856.828125 456.609375 856.425781 453.441406 855.871094 450.90625 C 855.652344 449.28125 855.429688 447.648438 854.910156 446.085938 C 854.808594 445.820312 854.695312 445.488281 854.433594 445.265625 C 854.058594 444.992188 853.753906 445.378906 853.652344 445.671875 C 853.117188 447.382812 853.015625 449.175781 852.730469 450.929688 C 852.175781 454.898438 851.667969 458.90625 850.867188 462.824219 C 850.546875 464.246094 850.25 465.660156 849.53125 466.914062 C 848.519531 468.761719 845.210938 468.765625 844.210938 467.09375 C 843.324219 465.5625 843.539062 463.40625 843.625 461.613281 C 844.148438 455.609375 844.9375 449.585938 845.070312 443.535156 C 845.128906 441.53125 845.085938 439.496094 845.140625 437.503906 C 845.207031 435.535156 845.554688 433.613281 846.050781 431.675781 C 847.039062 427.820312 848.472656 424.070312 850.304688 420.515625 C 850.78125 419.628906 851.214844 418.644531 851.453125 417.652344 C 851.703125 416.652344 851.816406 415.617188 851.777344 414.59375 C 851.65625 412.925781 851.46875 411.28125 851.289062 409.636719 C 850.488281 397.097656 846.976562 383.398438 843.097656 371.539062 C 839.367188 359.480469 835.253906 347.492188 832.160156 335.261719 C 829.007812 322.648438 827.300781 309.683594 826.773438 296.695312 C 826.6875 295.46875 826.34375 294.246094 825.910156 293.113281 C 825.382812 291.628906 824.871094 290.136719 824.371094 288.640625 C 821.382812 279.667969 818.984375 270.5 817.144531 261.21875 C 823.894531 262.605469 830.96875 262.492188 837.714844 260.894531 C 842.933594 259.640625 847.960938 257.515625 852.488281 254.613281 C 852.5625 254.566406 852.640625 254.515625 852.71875 254.464844 C 852.820312 256.613281 853.167969 263.757812 853.167969 263.757812 C 853.441406 269.652344 853.453125 277.777344 854.40625 283.570312 C 854.933594 286.859375 855.6875 290.109375 856.734375 293.277344 C 857.261719 294.859375 857.851562 296.40625 858.386719 297.957031 C 860.007812 302.589844 861.242188 307.375 861.9375 312.234375 C 862.898438 318.738281 863.167969 325.339844 863.582031 331.910156 C 865.160156 354.976562 866.921875 378.101562 870.914062 400.894531 C 871.597656 404.136719 872.375 407.332031 872.820312 410.613281 C 872.53125 407.328125 871.878906 404.066406 871.292969 400.828125 C 868.957031 384.492188 867.695312 368.019531 866.390625 351.578125 C 865.886719 344.996094 865.445312 338.410156 865.035156 331.820312 C 864.589844 325.214844 864.320312 318.589844 863.296875 312.027344 C 862.726562 308.328125 861.855469 304.664062 860.738281 301.089844 C 859.886719 298.335938 858.777344 295.601562 857.808594 292.910156 C 855.625 286.710938 854.628906 280.179688 854.242188 273.617188 C 853.871094 268.074219 853.296875 260.046875 852.746094 254.445312 C 853.101562 254.210938 853.453125 253.941406 853.71875 253.609375 C 854.445312 252.769531 854.808594 251.621094 854.6875 250.507812 C 853.644531 241.851562 852.359375 233.203125 850.902344 224.609375 C 848.730469 211.175781 845.03125 197.929688 839.253906 185.585938 C 837.570312 182.054688 835.664062 178.640625 833.433594 175.414062 C 832.550781 174.164062 831.46875 173.085938 830.246094 172.175781 C 828.671875 170.933594 826.679688 170.484375 824.910156 169.605469 C 808.910156 161.890625 793.324219 152.792969 776.023438 148.230469 C 775.035156 147.4375 773.886719 146.851562 772.617188 146.433594 C 772.582031 146.230469 772.558594 146.023438 772.550781 145.8125 C 772.128906 139.539062 771.855469 133.054688 772.015625 126.773438 C 772.082031 124.027344 772.195312 121.28125 772.363281 118.539062 C 772.796875 118.773438 773.296875 118.898438 773.839844 118.890625 C 777.238281 118.789062 780.789062 115.566406 782.46875 112.773438 C 784.128906 110.082031 784.207031 106.800781 784.34375 103.753906 C 784.4375 101.722656 784.488281 99.6875 784.261719 97.648438 C 783.996094 94.824219 782.660156 91.382812 779.152344 92.339844 C 778.996094 92.386719 778.84375 92.441406 778.691406 92.496094 C 779.410156 85.125 779.917969 77.738281 780.144531 70.332031 C 780.359375 64.730469 779.5625 60.394531 776.941406 55.378906 C 771.144531 43.269531 756.445312 38.824219 743.867188 39.644531 C 738.734375 39.996094 733.617188 41.230469 729.027344 43.589844 C 723.300781 46.472656 718.652344 50.777344 712 51.371094 C 710.757812 51.519531 709.488281 51.546875 708.242188 51.5 C 706.980469 51.457031 705.730469 51.285156 704.46875 51.140625 C 703.226562 51 701.808594 50.964844 700.820312 51.855469 C 700.320312 52.242188 699.910156 52.742188 699.597656 53.296875 C 696.742188 58.730469 699.359375 68.4375 702.429688 73.460938 C 704.285156 76.515625 707.054688 79.558594 710.730469 80.171875 C 710.667969 85.351562 710.769531 90.65625 711.011719 95.953125 C 708.664062 96.761719 707.488281 99.144531 707.195312 101.5 C 706.792969 104.515625 707.050781 107.511719 707.269531 110.519531 C 707.519531 112.648438 707.71875 114.859375 708.800781 116.789062 C 709.851562 118.386719 711.476562 119.601562 713.25 120.269531 C 713.613281 122.480469 714.046875 124.679688 714.589844 126.859375 C 715.53125 130.722656 717.1875 134.664062 719.898438 137.671875 C 719.988281 137.777344 720.078125 137.886719 720.167969 137.992188 C 720.328125 140.164062 720.398438 142.339844 720.386719 144.515625 C 719.507812 144.773438 718.710938 145.230469 717.980469 145.777344 C 698.488281 152.308594 678.628906 158.796875 661 169.605469 C 656.351562 172.394531 653.113281 174.578125 650.4375 179.460938 C 646.542969 186.5 644.082031 194.148438 641.679688 201.777344 C 640.039062 207.128906 638.625 212.546875 637.570312 218.042969 C 637.292969 219.535156 636.605469 223.566406 636.339844 225.105469 C 635.023438 232.898438 633.871094 240.878906 632.898438 248.734375 L 632.824219 249.328125 C 632.625 250.433594 632.839844 251.617188 633.503906 252.539062 C 633.761719 252.910156 634.089844 253.226562 634.453125 253.496094 C 634.449219 253.496094 634.449219 253.496094 634.449219 253.496094 C 634.453125 253.5 634.457031 253.503906 634.460938 253.503906 C 634.503906 253.535156 634.546875 253.570312 634.589844 253.601562 C 634.589844 253.601562 634.597656 253.601562 634.609375 253.601562 C 634.640625 253.621094 634.667969 253.640625 634.699219 253.660156 C 634.445312 256.421875 634.125 259.804688 633.917969 262.476562 C 633.164062 271.800781 633.128906 281.308594 630.226562 290.285156 C 629.308594 293.273438 628.027344 296.152344 627.074219 299.140625 C 626.078125 302.144531 625.257812 305.210938 624.644531 308.316406 C 623.441406 314.546875 623.054688 320.855469 622.648438 327.117188 C 621.90625 339.644531 621.03125 352.15625 619.992188 364.65625 C 619.113281 374.777344 616.214844 399.351562 615.824219 402.085938 C 615.042969 407.597656 613.632812 414.148438 613.398438 419.460938 C 612.574219 431.121094 610.140625 442.824219 611.480469 454.550781 C 611.9375 458.191406 612.421875 461.90625 613.769531 465.359375 C 614.421875 467.101562 615.710938 468.566406 617.226562 469.628906 C 617.367188 470.066406 617.523438 470.507812 617.691406 470.929688 C 617.691406 470.929688 617.699219 470.929688 617.714844 470.929688 C 618 471.546875 618.371094 472.140625 618.839844 472.632812 C 620.371094 474.25 622.605469 474.945312 624.78125 474.855469 C 625.910156 475.589844 627.175781 476.117188 628.460938 476.40625 C 629.769531 478.542969 631.316406 480.535156 633.058594 482.339844 C 634.710938 483.976562 638.339844 487.304688 640.699219 485.347656 C 641.425781 484.691406 641.703125 483.816406 641.871094 482.9375 C 642.089844 481.984375 641.9375 480.902344 641.554688 479.984375 C 643.242188 480.429688 644.191406 479.074219 643.957031 477.421875 C 643.796875 476.003906 642.9375 474.617188 641.597656 474.050781 C 640.710938 473.667969 639.75 473.527344 638.847656 473.359375 C 637.96875 473.199219 637.09375 473.011719 636.199219 472.800781 C 636.046875 472.558594 635.902344 472.316406 635.761719 472.066406 C 635.0625 470.792969 634.523438 469.46875 634.160156 468.007812 C 633.453125 465.492188 632.382812 461.871094 631.734375 459.390625 C 631.0625 456.640625 631.160156 453.789062 631.464844 450.984375 C 631.652344 450.0625 631.898438 448.851562 632.027344 448.332031 C 632.34375 447.195312 632.574219 445.96875 633.191406 444.964844 C 633.207031 444.945312 633.222656 444.929688 633.238281 444.914062 C 633.535156 445.605469 633.542969 446.46875 633.644531 447.226562 C 633.929688 450.21875 634.164062 453.234375 634.515625 456.226562 C 634.886719 459.273438 635.183594 462.265625 636.082031 465.242188 C 636.429688 466.375 637.125 467.757812 638.308594 468.339844 C 639.484375 468.960938 640.84375 469.089844 642.132812 468.742188 C 645.03125 467.972656 645.402344 464.921875 645.316406 462.410156 C 645.265625 459.734375 644.730469 456.039062 644.453125 453.363281 C 643.953125 448.882812 643.523438 444.402344 643.355469 439.898438 C 643.265625 437.648438 643.175781 435.335938 642.617188 433.132812 C 642.472656 432.582031 642.164062 431.5 641.988281 430.957031 C 642.691406 433.910156 642.765625 436.882812 642.640625 439.90625 C 642.582031 442.925781 642.660156 445.953125 642.847656 448.96875 C 643.011719 451.988281 643.324219 454.996094 643.59375 457.988281 C 643.734375 460.335938 644.417969 464.421875 643.15625 466.375 C 642.28125 467.648438 640.285156 467.773438 638.976562 467.089844 C 637.25 466.226562 636.761719 462.371094 636.359375 460.515625 C 636.101562 459.046875 635.867188 457.5625 635.636719 456.078125 C 635.117188 452.738281 634.75 449.359375 634.148438 446.011719 C 634.03125 445.53125 633.96875 444.988281 633.652344 444.546875 C 632.402344 443.3125 631.625 449.203125 631.363281 451.269531 C 631.109375 452.5 630.90625 453.738281 630.828125 454.992188 C 630.738281 456.320312 630.773438 457.65625 630.941406 458.976562 C 631.21875 460.65625 631.644531 462.300781 632.007812 463.949219 C 632.433594 465.765625 632.902344 467.625 633.34375 469.445312 C 634.054688 472.046875 635.527344 474.441406 637.21875 476.5 C 638.167969 477.683594 639.226562 478.769531 639.929688 479.9375 C 640.453125 480.820312 640.652344 481.695312 640.445312 482.671875 C 640.335938 483.246094 640.136719 483.886719 639.738281 484.261719 C 639.074219 484.792969 638.207031 484.378906 637.402344 483.992188 C 633.6875 481.769531 630.90625 478.074219 628.621094 474.421875 C 627.097656 471.90625 626.015625 469.128906 624.960938 466.328125 C 623.882812 463.53125 622.902344 460.710938 621.988281 457.851562 C 622.914062 462.265625 624.195312 466.597656 625.734375 470.839844 C 626.40625 472.632812 627.242188 474.363281 628.222656 476.007812 C 626.265625 474.921875 624.535156 473.589844 623.339844 471.71875 C 622.773438 470.714844 622.398438 469.621094 622 468.5 C 620.722656 464.839844 619.617188 461.117188 618.199219 457.480469 C 618.328125 459.449219 618.644531 461.386719 619.050781 463.304688 C 619.464844 465.21875 619.972656 467.117188 620.625 468.984375 C 621.046875 470.152344 621.507812 471.371094 622.214844 472.441406 C 622.789062 473.238281 623.496094 473.929688 624.289062 474.511719 C 621.875 473.863281 619.578125 472.484375 618.828125 469.984375 C 618.828125 469.984375 618.808594 469.925781 618.800781 469.898438 C 618.453125 468.851562 618.214844 467.699219 617.945312 466.558594 C 617.121094 463.019531 616.292969 459.484375 615.175781 456.015625 C 615.265625 460.285156 615.941406 464.515625 616.949219 468.660156 C 617.007812 468.910156 617.082031 469.160156 617.160156 469.414062 C 616.394531 468.738281 615.714844 467.964844 615.171875 467.109375 C 613.746094 464.609375 613.4375 461.601562 613.039062 458.785156 C 612.5 454.480469 612.277344 450.078125 612.496094 445.746094 C 612.726562 436.972656 614.277344 428.296875 614.539062 419.515625 C 614.570312 414.195312 621.230469 364.082031 622.804688 346 C 623.972656 333.558594 623.898438 320.882812 626 308.578125 C 626.570312 305.519531 627.34375 302.503906 628.289062 299.539062 C 629.21875 296.539062 630.449219 293.644531 631.316406 290.613281 C 634.105469 281.5 633.90625 271.914062 634.304688 262.5 C 634.421875 259.878906 634.609375 256.460938 634.726562 253.679688 C 635.625 254.265625 636.550781 254.816406 637.488281 255.339844 C 644.648438 259.339844 652.851562 261.453125 661.050781 261.398438 C 664.152344 261.398438 667.265625 261.050781 670.300781 260.433594 C 668.890625 267.617188 667.171875 274.75 665.046875 281.757812 C 664.003906 285.269531 662.867188 288.75 661.632812 292.199219 C 661.3125 293.0625 660.984375 293.988281 660.839844 294.917969 C 660.761719 295.390625 660.707031 295.867188 660.6875 296.347656 L 660.628906 297.722656 C 660.546875 299.550781 660.433594 301.375 660.296875 303.199219 C 659.609375 312.316406 658.277344 321.382812 656.296875 330.304688 C 653.453125 342.8125 649.242188 354.945312 645.390625 367.175781 C 643.179688 374.164062 640.800781 381.128906 639.054688 388.292969 C 637.023438 396.332031 635.933594 404.597656 635.589844 412.867188 C 635.523438 413.785156 635.570312 414.75 635.730469 415.671875 C 636.003906 417.539062 636.972656 419.171875 637.871094 420.789062 C 639.582031 424.027344 640.976562 427.433594 641.988281 430.957031 C 641.121094 427.382812 639.84375 423.914062 638.214844 420.613281 C 637.386719 419.011719 636.480469 417.402344 636.273438 415.582031 C 636.144531 414.695312 636.125 413.808594 636.21875 412.898438 C 636.949219 401.003906 639.507812 389.339844 643.265625 378.050781 C 647.761719 364.074219 652.683594 350.207031 656.394531 335.988281 C 659.113281 325.28125 660.765625 314.296875 661.433594 303.277344 C 661.542969 301.4375 661.628906 299.601562 661.683594 297.761719 C 661.703125 297.019531 661.710938 295.789062 661.835938 295.078125 C 661.964844 294.1875 662.242188 293.371094 662.535156 292.511719 C 663.699219 289.019531 664.769531 285.5 665.734375 281.953125 C 667.644531 274.867188 669.199219 267.6875 670.304688 260.433594 C 670.707031 260.351562 671.109375 260.261719 671.507812 260.171875 C 671.757812 266.441406 671.816406 272.71875 671.867188 278.988281 C 671.738281 302.585938 671.363281 326.246094 668.996094 349.734375 C 667.710938 360.359375 665.804688 370.96875 663.859375 381.480469 C 663.378906 383.554688 662.867188 385.675781 662.460938 387.773438 C 662.015625 389.875 661.050781 395.253906 660.554688 397.238281 L 660.378906 398.019531 C 660.378906 398.019531 660.335938 398.214844 660.335938 398.214844 C 659.953125 399.605469 660.859375 401.09375 662.15625 401.585938 C 661.660156 403.226562 661.171875 404.871094 660.695312 406.515625 C 655.929688 423.46875 651.515625 440.5625 648.691406 457.957031 C 646.097656 473.917969 644.878906 490.097656 644.941406 506.265625 C 644.9375 506.367188 644.941406 506.730469 644.941406 506.816406 C 644.90625 508.605469 646.535156 510.144531 648.320312 509.984375 C 648.359375 509.980469 648.398438 509.976562 648.4375 509.972656 C 648.105469 521.671875 647.097656 533.296875 645.261719 544.84375 C 644.078125 552.671875 643.050781 560.546875 640.46875 568.050781 C 637.957031 575.59375 634.003906 582.636719 632.136719 590.410156 C 631.253906 594.109375 630.710938 597.882812 630.527344 601.679688 C 630.476562 601.703125 630.429688 601.726562 630.382812 601.753906 C 630.382812 601.753906 630.378906 601.753906 630.378906 601.753906 C 630.359375 601.761719 630.339844 601.773438 630.320312 601.785156 C 630.304688 601.792969 630.285156 601.800781 630.265625 601.8125 L 630.277344 601.808594 C 629.335938 602.300781 628.613281 603.191406 628.363281 604.21875 C 628.242188 604.601562 628.246094 605.308594 628.214844 605.675781 C 627.386719 618.78125 627.621094 632.011719 628.382812 645.109375 C 622.363281 642.320312 615.917969 640.90625 609.21875 640.90625 C 607.0625 640.90625 604.898438 641.058594 602.785156 641.355469 C 594.1875 642.566406 586.144531 646.203125 579.523438 651.871094 C 572.90625 657.535156 568.066406 664.90625 565.527344 673.195312 L 565.488281 673.269531 L 565.488281 673.324219 C 564.1875 677.613281 563.53125 682.078125 563.53125 686.597656 C 563.53125 689.601562 563.824219 692.601562 564.402344 695.515625 C 564.402344 695.523438 564.402344 695.53125 564.40625 695.539062 C 566.375 705.464844 571.707031 714.589844 579.421875 721.230469 C 585.117188 726.136719 591.914062 729.542969 599.199219 731.175781 C 595.035156 731.03125 592.296875 731.492188 589.898438 735.300781 C 584.949219 743.347656 594.148438 748.574219 600.582031 751.050781 C 603.265625 752.148438 606.089844 753.019531 608.949219 753.511719 C 615.765625 754.757812 622.78125 754.082031 629.453125 752.378906 C 631.152344 752.019531 632.796875 752.707031 634.425781 753.105469 C 640.074219 754.5 645.851562 755.546875 651.722656 755.042969 C 658.9375 754.296875 658.296875 745.425781 658.113281 740.054688 C 658.066406 738.609375 657.972656 737.164062 657.835938 735.722656 C 657.589844 733.539062 657.414062 731.316406 656.515625 729.253906 C 656.300781 728.746094 655.8125 728.167969 655.230469 728.121094 C 655.503906 720.992188 655.441406 713.828125 656.660156 706.773438 C 659.648438 688.828125 664.53125 671.21875 670.492188 654.046875 C 671.351562 651.660156 672.40625 648.738281 673.339844 646.378906 C 677.863281 635.363281 680.90625 623.707031 681.828125 611.8125 C 681.828125 611.8125 681.933594 610.429688 681.933594 610.429688 C 682.027344 609.074219 681.375 607.820312 680.339844 607.039062 C 680.863281 603.378906 681.207031 599.691406 681.417969 595.996094 C 681.648438 592.039062 681.617188 588.050781 681.839844 584.105469 C 682.132812 579.214844 683.089844 574.378906 685.003906 569.855469 C 687.164062 564.699219 690.398438 555.703125 692.347656 550.34375 C 694.9375 543.160156 697.480469 535.960938 699.933594 528.730469 C 705.75 529.753906 711.699219 529.972656 717.585938 529.464844 C 718.667969 529.375 719.890625 529.21875 720.96875 529.074219 C 722.191406 528.90625 723.351562 528.265625 724.121094 527.292969 C 724.648438 526.648438 724.996094 525.863281 725.144531 525.042969 C 725.660156 522.085938 726.226562 519.140625 726.851562 516.203125 C 728.097656 510.335938 729.539062 504.519531 731.273438 498.773438 C 732.613281 494.367188 733.910156 489.886719 734.800781 485.34375 C 734.746094 491.140625 734.539062 496.957031 735.695312 502.664062 C 736.394531 506.203125 737.328125 509.6875 737.816406 513.253906 C 737.976562 514.289062 738.234375 515.777344 738.34375 516.804688 C 738.484375 517.992188 738.601562 519.183594 738.6875 520.375 C 738.714844 520.679688 738.75 521.058594 738.859375 521.359375 C 739.246094 522.6875 740.4375 523.714844 741.796875 523.953125 C 741.890625 523.972656 742.039062 523.988281 742.214844 524 C 743.292969 534.984375 744.1875 545.972656 743.996094 557.007812 C 743.980469 559.449219 743.816406 562.914062 743.707031 565.390625 C 743.410156 573.574219 743.613281 581.796875 744.535156 589.929688 C 742.90625 590.003906 741.417969 591.324219 741.253906 592.980469 C 741.234375 593.109375 741.226562 593.203125 741.214844 593.316406 L 741.144531 593.972656 C 740.304688 601.835938 739.707031 609.753906 739.359375 617.65625 C 739.296875 619.335938 739.152344 623.835938 739.09375 625.570312 C 738.34375 648.421875 741.179688 671.234375 741.4375 694.039062 C 741.585938 707.863281 740.640625 721.878906 738.914062 735.589844 C 738.671875 735.484375 738.375 735.472656 738.136719 735.558594 C 735.921875 736.378906 733.976562 744.121094 733.339844 746.449219 C 732.070312 751.628906 729.441406 760.109375 736.222656 762.472656 C 737.8125 762.996094 739.460938 763.363281 741.105469 763.640625 C 746.007812 764.460938 751.035156 764.5 755.964844 764.222656 C 756.699219 764.183594 757.441406 764.285156 758.144531 764.503906 C 758.789062 764.695312 759.667969 765.1875 760.289062 765.476562 C 768.144531 769.277344 777.070312 771.171875 785.769531 769.890625 C 790.765625 769.140625 797.464844 767.972656 800.582031 763.566406 C 802.660156 760.570312 801.890625 756.445312 799.90625 753.609375 C 795.746094 747.933594 788.886719 752.515625 781.21875 742.675781 C 778.257812 738.808594 775.96875 734.382812 773.632812 730.109375 C 772.835938 728.671875 771.96875 727.183594 770.632812 726.160156 C 769.921875 725.605469 769.140625 725.230469 768.316406 725 C 768.441406 718.027344 769.085938 711.046875 770.453125 704.207031 C 773.398438 690.460938 778.804688 677.40625 782.894531 663.980469 C 785.023438 657.277344 787.097656 650.566406 789.101562 643.824219 C 790.589844 638.761719 792.027344 633.652344 792.996094 628.449219 C 795.207031 616.070312 795.722656 603.394531 794.644531 590.871094 C 794.636719 588.875 792.976562 587.25 790.980469 587.355469 C 791.257812 576.222656 791.613281 565.113281 792.433594 554.011719 C 793.230469 542.925781 794.707031 531.933594 796.457031 520.953125 C 805.855469 519.683594 815.203125 518.023438 824.457031 515.957031 C 826.214844 515.371094 827.355469 513.449219 827.082031 511.636719 C 823.015625 478.996094 818.777344 446.347656 814.496094 413.738281 C 816.027344 413.558594 816.921875 412.355469 816.894531 410.945312 C 816.933594 409.085938 817.105469 407.117188 816.511719 405.300781 C 816.503906 405.269531 816.484375 405.21875 816.492188 405.222656 C 816.492188 405.207031 816.488281 405.222656 816.484375 405.183594 C 816.484375 405.183594 816.476562 405.089844 816.476562 405.089844 C 815.734375 393.859375 814.976562 380.414062 814.445312 369.113281 C 813.847656 357.421875 813.195312 341.890625 813.011719 329.480469 C 813.292969 317.589844 813.425781 304.503906 813.664062 292.6875 C 813.699219 290.011719 813.90625 285.945312 814.078125 283.265625 C 814.507812 276.058594 814.917969 268.472656 815.339844 260.8125 C 815.9375 260.957031 816.539062 261.097656 817.144531 261.21875 C 818.839844 272.546875 821.609375 283.714844 825.277344 294.5625 C 825.488281 295.28125 825.617188 296.027344 825.664062 296.777344 C 825.941406 309.851562 827.613281 322.902344 830.746094 335.617188 C 833.832031 347.710938 838.105469 360.042969 842.015625 371.890625 C 845.179688 381.246094 848.285156 390.617188 849.980469 400.359375 C 850.160156 401.46875 850.394531 402.773438 850.542969 403.867188 C 850.722656 405.015625 850.992188 407.355469 851.1875 409.019531 C 851.242188 410.75 851.363281 412.964844 851.378906 414.59375 C 851.335938 416.074219 851.011719 417.535156 850.386719 418.871094 C 848.148438 422.828125 846.160156 426.964844 844.953125 431.382812 C 844.683594 432.363281 844.421875 433.351562 844.234375 434.367188 C 843.835938 436.375 843.820312 438.457031 843.78125 440.484375 C 843.695312 445.5 843.304688 450.484375 842.761719 455.480469 C 842.5625 457.484375 842.335938 459.484375 842.203125 461.519531 C 841.984375 464.753906 841.910156 469.109375 846.074219 469.605469 C 847.515625 469.761719 849.082031 469.371094 850.09375 468.273438 C 851.300781 466.820312 851.625 464.824219 851.984375 463.046875 C 852.695312 459.050781 853.050781 455.039062 853.441406 451.011719 C 853.632812 449.289062 853.65625 447.511719 854.074219 445.832031 C 854.105469 445.730469 854.160156 445.625 854.1875 445.597656 C 854.191406 445.597656 854.1875 445.597656 854.1875 445.597656 C 854.191406 445.597656 854.191406 445.601562 854.195312 445.597656 C 854.195312 445.597656 854.238281 445.636719 854.238281 445.636719 C 854.796875 446.398438 854.988281 447.449219 855.253906 448.355469 C 855.480469 449.214844 855.671875 450.082031 855.851562 450.953125 C 856.144531 453.496094 856.347656 456.601562 855.933594 459.085938 C 855.320312 462.054688 854.078125 465.808594 853.28125 468.769531 C 852.855469 470.507812 852.152344 472.09375 851.246094 473.566406 C 850.363281 473.769531 849.488281 473.960938 848.59375 474.121094 C 847.355469 474.359375 845.945312 474.523438 844.917969 475.390625 C 843.648438 476.484375 842.84375 478.917969 844.019531 480.332031 C 844.546875 480.863281 845.25 480.921875 845.90625 480.746094 C 845.507812 481.65625 845.332031 482.636719 845.570312 483.703125 C 845.910156 485.84375 847.324219 487.269531 849.5625 486.511719 C 851.46875 485.847656 852.988281 484.484375 854.386719 483.105469 C 856.128906 481.300781 857.675781 479.308594 858.984375 477.167969 C 860.265625 476.878906 861.542969 476.355469 862.675781 475.617188 C 863.199219 475.636719 863.730469 475.617188 864.25 475.542969 C 866.542969 475.289062 868.785156 473.828125 869.742188 471.699219 C 869.746094 471.699219 869.75 471.699219 869.75 471.699219 C 869.78125 471.617188 869.808594 471.535156 869.839844 471.453125 C 869.871094 471.378906 869.902344 471.308594 869.925781 471.230469 C 869.925781 471.230469 869.925781 471.234375 869.917969 471.238281 C 870.019531 470.960938 870.113281 470.6875 870.203125 470.40625 C 870.976562 469.871094 871.695312 469.234375 872.304688 468.507812 C 874.613281 465.644531 875.179688 460.84375 875.753906 457.289062 C 876.0625 455.097656 876.277344 452.890625 876.355469 450.675781 C 876.460938 445.050781 876.074219 439.410156 875.402344 433.832031 Z M 638.28125 475.617188 C 637.722656 474.964844 637.195312 474.292969 636.714844 473.597656 C 637.296875 473.9375 637.914062 474.21875 638.539062 474.460938 C 639.691406 474.90625 640.910156 475.144531 641.585938 475.738281 C 642.261719 476.316406 642.765625 477.421875 642.792969 478.367188 C 642.847656 479.222656 642.160156 479.484375 641.40625 479.527344 C 641.382812 479.527344 641.359375 479.527344 641.335938 479.527344 C 641.28125 479.417969 641.21875 479.3125 641.15625 479.214844 C 640.4375 478.007812 639.167969 476.675781 638.28125 475.617188 Z M 709.71875 116.277344 C 709.160156 114.992188 709.023438 113.574219 708.855469 112.148438 C 708.589844 108.683594 708.242188 105.050781 708.335938 101.617188 C 708.414062 99.390625 709.132812 97.300781 711.019531 96.054688 C 711.253906 101.144531 711.617188 106.226562 712.089844 111.175781 C 712.390625 114.136719 712.738281 117.089844 713.210938 120.027344 C 711.769531 119.042969 710.53125 117.820312 709.71875 116.277344 Z M 720.246094 138.082031 C 723.972656 142.429688 729 145.808594 734.683594 146.882812 C 737.511719 147.453125 740.421875 147.226562 743.246094 146.835938 C 746.554688 146.414062 749.828125 145.664062 752.960938 144.507812 C 763.707031 140.664062 770.925781 132.265625 770.53125 120.507812 C 770.21875 133.703125 761.082031 141.652344 748.84375 144.523438 C 746.3125 145.144531 743.738281 145.511719 741.140625 145.75 C 739.210938 145.9375 737.3125 145.921875 735.414062 145.59375 C 729.671875 144.628906 724.695312 141.144531 721 136.742188 C 718.371094 133.828125 716.914062 130.304688 715.925781 126.511719 C 714.59375 121.476562 713.878906 116.257812 713.222656 111.050781 C 712.023438 100.796875 711.238281 90.496094 710.765625 80.175781 C 711.050781 80.222656 711.335938 80.257812 711.632812 80.273438 C 714.296875 80.285156 716.644531 78.792969 719.019531 77.820312 C 730.003906 73.050781 747.070312 67.253906 758.792969 71.070312 C 762.375 72.285156 765.183594 74.554688 766.941406 77.929688 C 768.839844 81.160156 770.238281 84.65625 770.976562 88.34375 C 771.898438 92.632812 772.015625 97.097656 771.859375 101.476562 L 771.835938 102.421875 C 771.835938 102.660156 771.832031 102.898438 771.863281 103.132812 C 771.875 103.183594 771.882812 103.246094 771.910156 103.289062 C 771.910156 103.292969 771.910156 103.296875 771.914062 103.300781 C 771.914062 103.300781 771.917969 103.304688 771.917969 103.304688 C 771.929688 103.324219 771.945312 103.335938 771.960938 103.335938 C 772.03125 103.34375 772.078125 103.285156 772.113281 103.234375 C 772.332031 102.847656 772.410156 102.402344 772.542969 101.984375 C 772.929688 100.558594 773.386719 99.117188 774.097656 97.828125 C 775.207031 95.746094 777.132812 94.050781 779.429688 93.472656 C 783.039062 92.625 782.941406 98.339844 782.980469 100.71875 C 782.949219 102.679688 782.859375 104.707031 782.75 106.664062 C 782.625 108.589844 782.328125 110.46875 781.375 112.152344 C 780.105469 114.675781 775.449219 119.453125 772.386719 118.074219 C 771.421875 117.574219 770.960938 116.503906 770.660156 115.5 C 770.734375 116.0625 770.871094 116.625 771.117188 117.15625 C 771.390625 117.769531 771.820312 118.234375 772.351562 118.53125 C 771.574219 125.480469 771.179688 132.492188 771.363281 139.484375 C 771.363281 139.484375 771.457031 143.726562 771.457031 143.726562 C 771.527344 145.199219 771.40625 146.730469 772.058594 148.101562 C 772.695312 149.320312 773.222656 150.601562 773.515625 151.941406 C 775.328125 160.347656 768.804688 167.875 762.136719 172.105469 C 758.058594 174.6875 753.382812 176.355469 748.550781 176.53125 C 742.324219 176.808594 736.097656 174.960938 730.660156 171.984375 C 727.34375 170.117188 724.210938 167.8125 721.652344 164.984375 C 719.652344 162.707031 717.75 160.011719 717.402344 156.941406 C 717.253906 154.914062 717.671875 152.804688 718.554688 150.976562 C 718.863281 150.371094 719.238281 149.796875 719.714844 149.316406 C 720.261719 148.792969 720.707031 148.125 720.773438 147.351562 C 720.820312 144.257812 720.625 141.152344 720.246094 138.082031 Z M 720.386719 144.527344 C 720.382812 145.285156 720.367188 146.039062 720.339844 146.789062 L 720.332031 147.054688 C 720.328125 147.132812 720.324219 147.214844 720.3125 147.292969 C 720.230469 147.957031 719.816406 148.496094 719.328125 148.929688 C 718.785156 149.433594 718.355469 150.042969 718 150.683594 C 716.96875 152.605469 716.46875 154.835938 716.574219 157.015625 C 716.898438 160.707031 719.164062 163.839844 721.570312 166.496094 C 727.992188 173.191406 737.125 177.597656 746.441406 177.96875 C 749.335938 178.078125 752.261719 177.734375 755.046875 176.933594 C 763.191406 174.394531 770.949219 168.5 774.0625 160.363281 C 775.078125 157.613281 775.351562 154.535156 774.625 151.679688 C 774.316406 150.433594 773.84375 149.238281 773.25 148.101562 C 772.953125 147.597656 772.734375 147.050781 772.625 146.472656 C 780.5 149.566406 779.980469 158.167969 776.953125 165.070312 C 774.5 170.625 769.585938 174.699219 764.269531 177.417969 C 755.644531 181.730469 745.441406 183.066406 736.070312 180.640625 C 727.046875 178.199219 717.304688 172.898438 714.414062 163.40625 C 713.460938 159.9375 713.152344 156.183594 713.96875 152.652344 C 714.546875 150.308594 715.695312 148.0625 717.503906 146.425781 C 718.347656 145.625 719.285156 144.921875 720.386719 144.527344 Z M 579.773438 652.949219 C 579.902344 652.835938 580.027344 652.71875 580.15625 652.609375 C 586.632812 647.0625 594.507812 643.503906 602.921875 642.316406 C 603.039062 642.300781 603.152344 642.289062 603.269531 642.273438 C 605.328125 644.316406 608.542969 646 611.316406 646.46875 C 611.316406 646.46875 611.316406 646.46875 611.320312 646.46875 C 609.789062 648.402344 608.355469 650.402344 606.953125 652.425781 C 605.597656 654.382812 604.285156 656.371094 602.996094 658.375 C 597.507812 660.847656 592.066406 663.445312 586.84375 666.453125 C 586.84375 666.453125 586.84375 666.445312 586.84375 666.445312 C 586.84375 666.445312 586.515625 666.246094 586.515625 666.246094 C 583.757812 664.554688 580.566406 662.667969 577.777344 661.03125 C 577.5625 660.90625 577.046875 660.617188 576.613281 660.367188 C 578.234375 658.371094 579.453125 655.5 579.773438 652.949219 Z M 578.371094 697.234375 C 580.558594 694.171875 582.707031 691.082031 584.800781 687.957031 C 585.519531 686.875 586.238281 685.792969 586.933594 684.695312 C 586.082031 685.679688 585.253906 686.675781 584.421875 687.675781 C 581.960938 690.664062 579.546875 693.691406 577.175781 696.753906 C 574.402344 694.335938 570.234375 692.164062 566.75 691.371094 C 565.933594 691.8125 565.328125 692.550781 565.019531 693.402344 C 564.675781 691.164062 564.503906 688.882812 564.503906 686.597656 C 564.503906 683.164062 564.890625 679.765625 565.660156 676.457031 C 565.535156 678.441406 565.558594 680.425781 565.632812 682.414062 C 565.78125 685.425781 566.042969 688.417969 566.75 691.367188 C 567.195312 688.367188 567.199219 685.363281 567.089844 682.351562 C 566.960938 679.671875 566.734375 677.011719 566.191406 674.382812 C 566.269531 674.109375 566.347656 673.839844 566.429688 673.570312 L 566.445312 673.527344 C 566.542969 673.203125 566.648438 672.886719 566.753906 672.566406 C 570.035156 669.074219 573.21875 665.421875 576.308594 661.761719 C 576.65625 661.976562 577.0625 662.230469 577.0625 662.230469 C 579.722656 663.847656 582.757812 665.679688 585.476562 667.265625 C 585.714844 671.335938 586.054688 676.269531 586.445312 680.246094 C 586.585938 681.730469 586.75 683.214844 586.933594 684.695312 C 589.714844 685.835938 592.601562 686.546875 595.527344 687.144531 C 598.457031 687.710938 601.394531 688.160156 604.402344 688.164062 C 606.636719 686.070312 608.523438 683.695312 610.328125 681.246094 C 612.105469 678.773438 613.777344 676.242188 615.078125 673.46875 C 613.609375 670.699219 611.78125 668.195312 609.851562 665.75 C 608.046875 663.519531 606.167969 661.359375 604.03125 659.433594 C 605.335938 657.304688 606.617188 655.160156 607.851562 652.988281 C 609.0625 650.84375 610.242188 648.683594 611.320312 646.46875 C 614.09375 647.054688 616.886719 647.199219 619.703125 647.230469 C 622.460938 647.226562 625.203125 647.105469 627.929688 646.566406 C 627.929688 646.570312 627.929688 646.574219 627.929688 646.574219 L 627.972656 646.640625 C 628.824219 648.003906 629.746094 649.304688 630.707031 650.574219 C 633.636719 654.359375 636.761719 657.996094 640.429688 661.09375 C 638.808594 658.320312 636.859375 655.804688 634.816406 653.347656 C 632.785156 650.933594 630.65625 648.613281 628.296875 646.507812 C 628.359375 646.414062 628.417969 646.320312 628.476562 646.222656 C 628.492188 646.230469 628.507812 646.238281 628.523438 646.246094 C 638.472656 651.015625 646.207031 659.148438 650.449219 669.257812 C 649.234375 667.816406 647.863281 666.53125 646.441406 665.289062 C 644.570312 663.707031 642.628906 662.21875 640.429688 661.09375 C 640.429688 661.09375 640.429688 661.09375 640.429688 661.097656 C 638.613281 662.953125 637.164062 665.0625 635.796875 667.246094 C 634.484375 669.417969 633.28125 671.632812 632.449219 674.050781 C 629.710938 673.449219 626.496094 673.210938 623.773438 673.085938 C 620.863281 672.988281 617.96875 673.007812 615.078125 673.46875 C 617.921875 674.160156 620.808594 674.40625 623.714844 674.542969 C 626.441406 674.636719 629.660156 674.632812 632.4375 674.25 C 633.277344 677.164062 634.507812 679.898438 635.847656 682.597656 C 637.199219 685.246094 638.652344 687.828125 640.457031 690.207031 C 638.574219 692.53125 636.53125 695.675781 635.113281 697.972656 C 633.5 700.652344 631.996094 703.382812 630.882812 706.324219 C 632.984375 703.984375 634.71875 701.394531 636.355469 698.730469 C 637.753906 696.40625 639.632812 693.144531 640.832031 690.398438 C 643.109375 690.597656 645.347656 690.40625 647.59375 690.097656 C 649.738281 689.769531 651.851562 689.339844 653.894531 688.5625 C 653.414062 699.652344 648.855469 710.109375 641.03125 718.023438 C 639.738281 719.332031 638.351562 720.574219 636.910156 721.714844 C 636.800781 721.800781 636.6875 721.886719 636.578125 721.96875 C 634.847656 721.628906 633.105469 721.367188 631.359375 721.125 C 631.785156 718.746094 631.847656 716.359375 631.804688 713.957031 C 631.722656 711.386719 631.523438 708.839844 630.882812 706.324219 C 627.792969 705.542969 624.652344 705.199219 621.488281 704.972656 C 618.589844 704.796875 615.6875 704.722656 612.785156 705 C 612.738281 704.894531 612.6875 704.78125 612.6875 704.78125 C 610.15625 699.128906 607.503906 693.527344 604.402344 688.164062 C 606.324219 693.910156 608.703125 699.480469 611.199219 704.996094 C 609.746094 707.019531 608.324219 709.058594 606.941406 711.132812 C 605.484375 713.332031 604.058594 715.546875 602.738281 717.832031 C 598.582031 716.679688 594.265625 715.640625 590.0625 714.675781 C 588.761719 714.371094 587.453125 714.082031 586.148438 713.796875 C 585.882812 713.207031 585.308594 711.925781 585.308594 711.925781 C 583.113281 707.117188 580.71875 702.007812 578.371094 697.234375 Z M 636.382812 722.121094 C 629.21875 727.609375 620.703125 730.757812 611.691406 731.246094 C 612.046875 730.648438 612.390625 730.042969 612.722656 729.433594 C 614.3125 728.945312 615.878906 728.410156 617.4375 727.855469 C 622.171875 726.15625 626.824219 724.261719 631.382812 722.136719 C 633.050781 722.171875 634.714844 722.179688 636.382812 722.121094 Z M 580.199219 720.613281 C 582.324219 719.398438 584.347656 717.199219 585.410156 714.980469 C 586.882812 715.257812 588.359375 715.535156 589.835938 715.789062 C 594.082031 716.542969 598.460938 717.273438 602.738281 717.832031 C 603.921875 720.085938 605.449219 722.066406 607.082031 723.988281 C 608.675781 725.8125 610.339844 727.546875 612.289062 729.007812 C 612.027344 729.753906 611.78125 730.5 611.550781 731.253906 C 611.488281 731.257812 611.429688 731.261719 611.371094 731.261719 C 608.125 731.417969 604.796875 731.214844 601.582031 730.664062 C 593.695312 729.304688 586.308594 725.832031 580.199219 720.613281 Z M 655.253906 729.003906 C 655.394531 729.074219 655.582031 729.351562 655.710938 729.636719 C 656.472656 731.558594 656.597656 733.742188 656.792969 735.8125 C 656.996094 738.648438 657.042969 741.53125 656.984375 744.363281 C 656.890625 748.207031 656.296875 753.324219 651.574219 753.675781 C 645.929688 754.101562 640.253906 753.078125 634.789062 751.695312 C 633.328125 751.351562 631.910156 750.777344 630.382812 750.839844 C 629.617188 750.851562 628.84375 751.015625 628.105469 751.214844 C 624.675781 752.078125 621.148438 752.621094 617.617188 752.75 C 613.730469 752.914062 609.824219 752.550781 606.054688 751.609375 C 604.347656 751.171875 602.644531 750.621094 600.996094 749.988281 C 594.980469 747.761719 585.996094 743.242188 590.375 735.585938 C 592.804688 731.34375 595.769531 731.453125 599.613281 731.269531 C 600.210938 731.398438 600.8125 731.519531 601.417969 731.621094 C 603.984375 732.0625 606.609375 732.285156 609.21875 732.285156 C 609.953125 732.285156 610.691406 732.269531 611.417969 732.234375 C 620.976562 731.78125 630 728.410156 637.511719 722.476562 C 638.976562 721.320312 640.382812 720.0625 641.695312 718.734375 C 643.46875 720.78125 644.976562 723.03125 646.367188 725.351562 C 647.109375 726.578125 647.808594 727.828125 648.570312 729.058594 C 649.347656 730.21875 650.230469 731.902344 651.71875 732.234375 C 652.609375 732.410156 653.425781 731.75 653.839844 731.050781 C 654.234375 730.457031 654.480469 729.738281 654.871094 729.195312 C 654.957031 729.082031 655.050781 729 655.101562 728.980469 C 655.144531 728.96875 655.183594 728.964844 655.253906 729.003906 Z M 680.507812 610.351562 L 680.402344 611.691406 C 679.472656 622.519531 677.007812 633.210938 673.015625 643.320312 C 666.554688 659.921875 661.65625 677.097656 658.121094 694.539062 C 657.339844 698.519531 656.617188 702.679688 656.082031 706.691406 C 655.035156 713.785156 655.242188 720.96875 655.214844 728.121094 C 655.066406 728.109375 654.914062 728.132812 654.757812 728.207031 C 654.480469 728.339844 654.324219 728.53125 654.199219 728.703125 C 653.765625 729.347656 653.5625 730.015625 653.183594 730.636719 C 651.8125 733.015625 649.910156 730.035156 649.027344 728.761719 C 648.234375 727.578125 647.480469 726.347656 646.691406 725.144531 C 645.21875 722.871094 643.597656 720.671875 641.714844 718.714844 C 641.71875 718.714844 641.71875 718.710938 641.722656 718.707031 C 649.765625 710.566406 654.4375 699.800781 654.875 688.390625 C 654.898438 687.777344 654.910156 687.175781 654.910156 686.597656 C 654.910156 683.808594 654.664062 681.054688 654.171875 678.351562 C 654.269531 678.351562 654.402344 678.351562 654.402344 678.351562 C 654.335938 678.351562 654.253906 678.351562 654.171875 678.351562 C 653.679688 675.648438 652.941406 673 651.964844 670.417969 C 647.785156 659.378906 639.609375 650.484375 628.929688 645.363281 C 628.824219 645.3125 628.71875 645.261719 628.621094 645.21875 C 628.546875 645.183594 628.476562 645.152344 628.402344 645.117188 C 628.148438 634.488281 628.070312 623.78125 628.65625 613.140625 C 644.496094 616.621094 660.777344 618.199219 676.988281 617.8125 C 661.15625 616.226562 644.5 614.617188 628.660156 613.09375 C 628.816406 610.210938 629.023438 607.332031 629.289062 604.460938 C 629.480469 603.722656 630.003906 603.089844 630.667969 602.734375 C 631.027344 602.539062 631.421875 602.421875 631.835938 602.40625 C 645.886719 601.78125 660.027344 603.136719 673.691406 606.460938 C 675.199219 606.816406 676.796875 607.25 678.300781 607.652344 C 679.605469 607.890625 680.597656 609.007812 680.507812 610.351562 Z M 683.695312 569.335938 C 682.148438 573.050781 681.28125 577.050781 680.882812 581.046875 C 680.453125 586.023438 680.789062 591.027344 680.703125 595.972656 C 680.679688 599.644531 680.515625 603.320312 680.28125 606.992188 C 679.808594 606.652344 679.265625 606.402344 678.675781 606.289062 C 677.160156 605.882812 675.542969 605.449219 674.019531 605.09375 C 660.664062 601.910156 646.863281 600.648438 633.152344 601.316406 C 632.382812 601.359375 631.34375 601.339844 630.574219 601.65625 C 630.796875 599.882812 631.078125 598.117188 631.421875 596.363281 C 631.820312 594.421875 632.265625 592.492188 632.828125 590.59375 C 635.042969 582.933594 639.148438 576.042969 641.773438 568.5 C 644.472656 560.9375 645.523438 552.933594 646.625 545.039062 C 648.289062 533.445312 649.011719 521.667969 648.488281 509.96875 C 649.332031 509.894531 650.21875 509.804688 651.058594 509.742188 C 668.894531 508.242188 687.011719 510.75 703.839844 516.832031 C 696.890625 533.863281 690.347656 552.183594 683.695312 569.335938 Z M 791.042969 588.769531 C 792.128906 588.6875 793.144531 589.578125 793.214844 590.664062 C 793.214844 590.664062 793.242188 590.988281 793.242188 590.988281 C 793.511719 594.09375 793.6875 597.203125 793.765625 600.320312 C 777.5625 604.566406 760.738281 605.804688 744.082031 603.992188 C 760.457031 607.792969 778.105469 606.539062 793.769531 600.40625 C 794 609.714844 793.363281 619.050781 791.765625 628.222656 C 790.820312 633.386719 789.453125 638.453125 788.007812 643.507812 C 784.113281 657 779.949219 670.417969 775.601562 683.777344 C 773.476562 690.476562 771.347656 697.207031 770.074219 704.132812 C 768.796875 711.015625 768.285156 718.015625 768.3125 724.996094 C 765.996094 724.34375 763.367188 724.824219 761.113281 725.566406 C 765.085938 724.402344 769.570312 724.316406 772.011719 728.21875 C 772.800781 729.378906 773.675781 731.269531 774.324219 732.527344 C 777.199219 737.9375 779.910156 743.84375 784.933594 747.652344 C 785.933594 748.417969 787.042969 749.070312 788.1875 749.589844 C 789.726562 750.292969 791.371094 750.730469 792.964844 751.105469 C 794.554688 751.484375 796.125 751.847656 797.355469 752.714844 C 799.703125 754.371094 801.007812 758.058594 800.398438 760.820312 C 798.964844 766.679688 789.488281 767.992188 784.371094 768.636719 C 776.328125 769.550781 768.167969 767.636719 760.90625 764.1875 C 760.214844 763.839844 759.308594 763.382812 758.570312 763.144531 C 757.710938 762.878906 756.800781 762.757812 755.898438 762.804688 C 752.632812 763.003906 749.386719 763.042969 746.144531 762.851562 C 743.328125 762.671875 740.511719 762.316406 737.78125 761.585938 C 735.910156 761.179688 734.210938 760.273438 733.492188 758.421875 C 732.171875 754.976562 733.601562 750.257812 734.378906 746.707031 C 734.847656 744.824219 736.8125 736.839844 738.523438 736.355469 C 738.542969 736.359375 738.554688 736.363281 738.570312 736.371094 C 738.582031 736.382812 738.59375 736.390625 738.59375 736.390625 C 739.050781 736.980469 739.078125 738.0625 739.421875 738.796875 C 740.355469 741.078125 742.308594 740.394531 743.738281 739.066406 C 745.605469 737.386719 747.15625 735.472656 748.925781 733.714844 C 752.367188 730.195312 756.386719 727.113281 761.113281 725.566406 C 756.304688 726.921875 752.140625 729.933594 748.59375 733.375 C 746.800781 735.058594 745.160156 736.960938 743.296875 738.542969 C 742.242188 739.425781 740.785156 740.269531 740.15625 738.507812 C 739.800781 737.675781 739.855469 736.652344 739.28125 735.910156 C 739.28125 735.882812 739.28125 735.863281 739.28125 735.863281 C 739.28125 735.863281 739.125 735.726562 739.125 735.726562 C 739.066406 735.675781 738.996094 735.632812 738.925781 735.597656 C 742.058594 714.910156 742.789062 693.824219 741.601562 672.949219 C 740.734375 657.191406 739.917969 641.382812 740.390625 625.601562 C 740.714844 615.132812 741.414062 604.523438 742.554688 594.125 C 742.566406 593.972656 742.652344 593.265625 742.660156 593.152344 C 742.777344 591.882812 744.195312 591.023438 745.378906 591.46875 C 746.839844 591.988281 748.328125 592.46875 749.824219 592.875 C 754.960938 594.292969 760.308594 595.03125 765.636719 594.988281 C 774.09375 594.945312 782.519531 592.878906 790.066406 589.078125 C 790.367188 588.921875 790.703125 588.78125 791.042969 588.769531 Z M 790.914062 587.359375 C 790.449219 587.386719 789.992188 587.53125 789.578125 587.738281 C 782.183594 591.472656 773.917969 593.5 765.625 593.53125 C 760.429688 593.582031 755.214844 592.867188 750.203125 591.496094 C 748.945312 591.152344 747.703125 590.769531 746.472656 590.339844 C 746.054688 590.1875 745.484375 589.988281 745.046875 589.945312 C 744.902344 589.929688 744.753906 589.925781 744.613281 589.929688 C 744.53125 581.75 744.609375 573.609375 745.085938 565.453125 C 745.246094 562.667969 745.40625 559.84375 745.453125 557.027344 C 745.582031 545.949219 744.464844 534.851562 742.265625 524 C 743.007812 524.042969 744.222656 524.023438 744.574219 524.050781 C 745.777344 524.0625 746.984375 524.078125 748.1875 524.082031 C 764.289062 524.132812 780.414062 523.113281 796.378906 520.960938 C 790.757812 542.550781 789.417969 565.144531 790.914062 587.359375 Z M 824.152344 499.28125 C 824.433594 501.621094 825.179688 507.769531 825.457031 510.023438 L 825.671875 511.8125 C 825.734375 512.300781 825.671875 512.769531 825.484375 513.203125 C 825.152344 513.972656 824.449219 514.539062 823.632812 514.707031 L 823.191406 514.800781 C 819.675781 515.554688 816.140625 516.253906 812.601562 516.898438 C 790.183594 521.03125 767.378906 523.0625 744.582031 523.039062 C 744.058594 523.03125 742.4375 523.058594 741.957031 522.992188 C 740.9375 522.832031 740.035156 522.078125 739.726562 521.085938 C 739.644531 520.816406 739.601562 520.597656 739.582031 520.300781 C 739.472656 519.097656 739.335938 517.894531 739.171875 516.699219 C 739.042969 515.65625 738.765625 514.171875 738.585938 513.125 C 738.042969 509.566406 737.007812 506.039062 736.238281 502.550781 C 734.910156 496.703125 735.054688 490.6875 734.921875 484.714844 C 735.148438 483.492188 735.351562 482.265625 735.511719 481.03125 C 736.261719 476.167969 736.484375 469.996094 736.515625 464.695312 C 736.632812 451.050781 737.675781 437.425781 739.476562 423.902344 C 739.839844 421.195312 740.234375 418.492188 740.632812 415.785156 C 740.089844 418.464844 739.5625 421.148438 739.109375 423.84375 C 737.226562 434.625 735.980469 445.53125 735.445312 456.460938 C 735.082031 463.273438 735.230469 470.109375 734.570312 476.894531 C 734.125 481.242188 733.417969 485.320312 732.355469 489.71875 C 731.648438 492.617188 730.769531 495.484375 729.929688 498.378906 C 727.40625 507.070312 725.53125 515.941406 724.171875 524.882812 C 723.945312 526.566406 722.535156 527.996094 720.839844 528.253906 C 720.839844 528.253906 719.734375 528.429688 719.734375 528.429688 C 713.191406 529.4375 706.511719 529.515625 699.9375 528.710938 C 701.277344 524.761719 702.585938 520.808594 703.859375 516.839844 C 709.933594 519.035156 715.84375 521.691406 721.507812 524.800781 C 719.183594 523.40625 716.804688 522.105469 714.390625 520.882812 C 712.1875 508.179688 709.183594 495.636719 705.796875 483.207031 C 702.226562 470.363281 698.136719 457.722656 685.25 451.460938 C 686.96875 452.488281 688.601562 453.726562 690.113281 455.035156 C 690.367188 455.226562 690.769531 455.636719 691 455.847656 C 691 455.847656 691.867188 456.675781 691.867188 456.675781 C 692.261719 457.09375 692.691406 457.582031 693.085938 458.003906 C 693.359375 458.273438 693.980469 459.089844 694.230469 459.386719 C 694.457031 459.664062 694.753906 460.042969 694.949219 460.339844 C 695.613281 461.238281 696.328125 462.390625 696.914062 463.339844 C 697.246094 463.960938 697.753906 464.816406 698.054688 465.441406 C 702.3125 474.113281 704.316406 483.6875 706.9375 492.941406 C 709.46875 502.242188 711.863281 511.558594 714.371094 520.871094 C 694.046875 510.585938 670.757812 506.316406 648.085938 508.589844 C 647.042969 508.574219 646.273438 507.652344 646.359375 506.632812 C 646.351562 506.46875 646.375 504.964844 646.363281 504.800781 C 646.433594 485.285156 648.296875 465.792969 651.910156 446.609375 C 654.078125 435.097656 656.753906 423.660156 659.484375 412.265625 C 660.363281 408.703125 661.261719 405.144531 662.183594 401.59375 C 662.460938 401.699219 662.761719 401.757812 663.066406 401.757812 C 663.242188 401.761719 663.425781 401.75 663.59375 401.722656 C 663.59375 401.722656 663.980469 401.667969 663.980469 401.667969 C 667.410156 401.253906 670.890625 401.019531 674.339844 400.941406 C 675.179688 400.914062 676.011719 400.933594 676.835938 400.980469 C 677.179688 401.746094 677.664062 402.824219 677.664062 402.824219 C 681.019531 410.144531 684.5 417.445312 688.460938 424.457031 C 693.40625 433.179688 699.84375 441.214844 708.246094 446.839844 C 710.277344 448.128906 712.445312 449.292969 714.75 450.046875 C 718.148438 451.242188 721.46875 451.066406 724.839844 449.847656 C 728.191406 448.667969 730.957031 446.238281 727.171875 443.386719 C 724.835938 441.6875 722.027344 440.8125 719.265625 440.144531 C 721.0625 440.71875 722.835938 441.402344 724.492188 442.292969 C 726.472656 443.351562 730.21875 445.851562 727 447.828125 C 726.261719 448.316406 725.402344 448.667969 724.53125 448.945312 C 722.804688 449.472656 720.929688 449.835938 719.132812 449.738281 C 715.472656 449.457031 712.050781 447.691406 709.003906 445.691406 C 699.660156 439.308594 692.875 429.941406 687.394531 420.160156 C 684.667969 415.394531 681.863281 410.082031 679.207031 405.230469 C 678.648438 404.1875 677.640625 402.3125 676.914062 400.984375 C 678.160156 401.058594 679.394531 401.207031 680.640625 401.390625 C 685.355469 402.101562 689.972656 403.496094 694.347656 405.382812 C 695.773438 405.996094 697.429688 406.675781 698.921875 407.132812 C 700.398438 407.636719 702.109375 408.09375 703.625 408.472656 C 716.773438 411.511719 730.320312 412.191406 743.730469 413 C 748.152344 413.277344 752.574219 413.507812 756.996094 413.691406 C 755.621094 419.34375 754.640625 425.101562 754.015625 430.898438 C 753.351562 436.90625 753.164062 442.96875 752.980469 449 C 752.8125 455.730469 752.503906 462.507812 750.707031 469.019531 C 749.339844 474.082031 747.195312 478.933594 744.542969 483.464844 C 756.882812 466.660156 753.597656 450.308594 755.148438 431 C 755.566406 425.21875 756.238281 419.453125 757.058594 413.691406 C 760.003906 413.8125 762.949219 413.914062 765.898438 413.996094 C 764.433594 431.144531 761.738281 448.101562 757.8125 464.859375 C 763.65625 448.636719 766.457031 431.238281 765.964844 414 C 782.132812 414.449219 798.320312 414.3125 814.484375 413.738281 C 817.339844 441.980469 820.761719 471.128906 824.152344 499.28125 Z M 815.339844 260.769531 C 815.824219 251.949219 816.316406 243.023438 816.851562 234.453125 C 823.042969 234.574219 829.761719 232.15625 834.394531 228.101562 C 831.363281 229.285156 828.4375 230.53125 825.378906 231.574219 C 822.566406 232.570312 819.734375 233.359375 816.863281 234.214844 C 816.929688 233.164062 816.996094 232.117188 817.066406 231.074219 C 819.402344 230.765625 821.699219 229.96875 823.777344 228.765625 C 830.730469 224.804688 834.335938 216.285156 833.320312 208.488281 C 832.613281 215.96875 829.507812 223.460938 823.160156 227.796875 C 821.3125 229.09375 819.257812 230.109375 817.074219 230.90625 C 817.167969 229.496094 817.257812 228.097656 817.355469 226.710938 C 817.585938 223.621094 817.972656 220.449219 818.421875 217.371094 C 818.894531 214.292969 819.6875 211.234375 820.433594 208.203125 C 821.992188 202.109375 823.71875 196.054688 825.5 190.019531 C 825.5 190.019531 828.234375 180.976562 828.234375 180.976562 C 827.273438 183.671875 826.027344 187.1875 825.132812 189.902344 C 822.195312 198.886719 819.121094 207.902344 817.296875 217.195312 C 816.785156 220.28125 816.339844 223.492188 816.078125 226.605469 C 814.460938 246.878906 813.53125 267.609375 812.589844 287.9375 C 812.386719 301.640625 812.6875 315.332031 812.960938 329.023438 C 812.960938 329.503906 812.960938 329.996094 812.960938 330.507812 C 806.308594 340.511719 798.707031 349.910156 790.125 358.324219 C 785.808594 362.445312 781.507812 366.703125 776.585938 370.085938 C 775.832031 370.5625 775.105469 371.019531 774.296875 371.238281 C 774.15625 371.269531 774.050781 371.269531 773.980469 371.261719 C 773.898438 370.980469 773.960938 370.578125 774.054688 370.195312 C 774.308594 369.148438 774.742188 368.148438 775.191406 367.152344 C 777.742188 361.742188 781.074219 356.664062 783.898438 351.367188 C 792.199219 336.105469 798.84375 319.980469 804.207031 303.472656 C 805.292969 300.101562 806.53125 296.097656 807.519531 292.65625 C 806.289062 296.183594 805.035156 299.804688 803.765625 303.320312 C 797.804688 319.558594 790.976562 335.511719 782.648438 350.683594 C 779.449219 356.695312 775.5 362.320312 773.019531 368.71875 C 772.597656 369.933594 771.902344 372.296875 773.789062 372.652344 C 775.136719 372.746094 776.296875 371.875 777.34375 371.234375 C 779.886719 369.503906 782.144531 367.484375 784.40625 365.4375 C 791.09375 359.304688 797.308594 352.644531 802.824219 345.449219 C 806.472656 340.660156 809.882812 335.679688 812.960938 330.511719 C 812.96875 334.921875 813.007812 340.3125 813.066406 343.363281 C 813.242188 349.996094 813.464844 356.773438 813.71875 363.578125 C 810.832031 367.480469 807.191406 370.882812 802.78125 372.976562 C 799.066406 374.808594 794.902344 375.390625 791.210938 377.398438 C 786.164062 380.140625 783.191406 385.679688 782.667969 391.261719 C 783.996094 386.300781 786.714844 381.503906 791.277344 378.921875 C 793.800781 377.476562 796.734375 376.804688 799.503906 375.832031 C 805.59375 373.847656 810.820312 369.359375 813.726562 363.699219 C 814.046875 372.296875 814.421875 380.941406 814.808594 389.410156 C 812.515625 390.425781 810.257812 391.496094 807.953125 392.476562 C 807.152344 392.8125 806.355469 393.160156 805.546875 393.460938 C 804.394531 393.851562 803.242188 394.371094 802.042969 394.371094 C 802.035156 394.371094 802.027344 394.367188 802.019531 394.367188 C 802.125 394.042969 802.363281 393.691406 802.5625 393.386719 C 803.296875 392.320312 804.109375 391.292969 804.871094 390.226562 C 809.023438 384.527344 811.800781 377.640625 812.199219 370.578125 C 811.390625 373.996094 810.320312 377.3125 808.902344 380.464844 C 807.488281 383.617188 805.699219 386.566406 803.683594 389.382812 C 802.933594 390.460938 802.128906 391.503906 801.390625 392.613281 C 800.933594 393.328125 800.261719 394.351562 800.875 395.195312 C 802.417969 397.453125 812.21875 391.1875 814.8125 389.476562 C 814.894531 391.292969 814.976562 393.101562 815.0625 394.898438 C 815.230469 397.398438 815.398438 402.777344 815.632812 405.175781 L 815.640625 405.285156 C 815.640625 405.296875 815.648438 405.328125 815.652344 405.359375 C 809.957031 405.289062 802.449219 405.214844 796.886719 405.078125 C 784.503906 404.859375 770.929688 404.378906 758.519531 403.855469 C 746.148438 403.335938 733.757812 402.964844 721.433594 401.734375 C 717.957031 401.355469 714.230469 400.886719 710.8125 400.179688 C 707.703125 399.554688 704.628906 398.75 701.699219 397.578125 C 698.738281 396.363281 695.679688 395.25 692.574219 394.433594 C 683.269531 391.914062 673.421875 391.417969 663.914062 392.988281 C 675.023438 391.667969 686.363281 392.960938 696.839844 396.84375 C 699.089844 397.660156 701.28125 398.679688 703.539062 399.503906 C 704.914062 399.972656 706.792969 400.542969 708.191406 400.886719 C 712.4375 401.945312 716.9375 402.601562 721.28125 403.117188 C 727.25 403.761719 733.285156 404.15625 739.269531 404.472656 C 761.660156 405.5 784.074219 406.15625 806.484375 405.636719 C 808.757812 405.589844 813.140625 405.46875 815.65625 405.378906 C 815.660156 405.402344 815.664062 405.425781 815.667969 405.441406 C 815.683594 405.511719 815.691406 405.523438 815.699219 405.558594 C 815.921875 406.261719 816.019531 406.980469 816.050781 407.726562 C 816.09375 408.769531 816.035156 409.84375 816 410.914062 C 815.988281 411.421875 815.890625 411.851562 815.640625 412.167969 C 815.394531 412.46875 814.957031 412.722656 814.550781 412.796875 C 814.5 412.808594 814.449219 412.8125 814.394531 412.820312 L 814.222656 412.824219 C 814.222656 412.824219 813.820312 412.839844 813.820312 412.839844 C 790.46875 413.457031 767.117188 413.242188 743.804688 411.695312 C 730.457031 410.839844 717.011719 410.113281 703.957031 407.097656 C 702.484375 406.726562 700.804688 406.28125 699.367188 405.785156 C 697.898438 405.324219 696.332031 404.695312 694.917969 404.078125 C 690.421875 402.132812 685.703125 400.703125 680.855469 399.964844 C 678.703125 399.640625 676.484375 399.421875 674.316406 399.492188 C 670.554688 399.5625 666.824219 399.847656 663.097656 400.304688 C 662.289062 400.308594 661.585938 399.457031 661.71875 398.683594 C 661.726562 398.636719 661.730469 398.617188 661.746094 398.542969 L 661.792969 398.34375 C 661.792969 398.34375 661.96875 397.554688 661.96875 397.554688 C 662.601562 394.695312 663.195312 391.484375 663.820312 388.335938 C 665.28125 387.347656 666.835938 386.492188 668.484375 385.875 C 675.671875 383.21875 680.011719 385.714844 686.503906 388.472656 C 690.414062 390.160156 694.414062 391.683594 698.507812 392.890625 C 699.535156 393.195312 700.570312 393.46875 701.621094 393.710938 C 703.246094 394.054688 704.882812 394.433594 706.589844 394.273438 C 707.347656 394.222656 708.367188 393.75 708.441406 392.835938 C 708.664062 391.113281 705.308594 388.636719 704.117188 387.492188 C 701.804688 385.480469 699.261719 383.230469 697.082031 381.101562 C 687.878906 372.355469 681.1875 361.246094 677.832031 348.941406 C 681.210938 365.640625 690.335938 377.761719 703.164062 388.574219 C 703.953125 389.277344 704.742188 389.976562 705.480469 390.699219 C 706 391.21875 706.535156 391.734375 706.890625 392.339844 C 706.984375 392.503906 707.023438 392.667969 707.011719 392.664062 C 706.921875 392.738281 706.660156 392.828125 706.410156 392.851562 C 703.90625 393.003906 701.320312 392.183594 698.886719 391.5625 C 694.824219 390.441406 690.855469 388.976562 686.9375 387.417969 C 680.253906 384.757812 675.523438 382.398438 668.332031 385.5 C 666.714844 386.207031 665.222656 387.148438 663.839844 388.226562 C 664.199219 386.425781 664.570312 384.648438 664.96875 382.972656 C 665.917969 383.78125 667.207031 384.253906 668.441406 383.90625 C 669.886719 383.464844 670.914062 382.386719 672.265625 381.898438 C 673.511719 381.421875 674.847656 381.363281 676.171875 381.597656 C 676.503906 381.65625 676.886719 381.730469 677.246094 381.722656 C 678.625 381.613281 678.726562 380.21875 678.140625 379.292969 C 677.097656 377.558594 675.660156 376.089844 674.5 374.488281 C 671.875 371.089844 669.9375 367.324219 668.648438 363.179688 C 669.246094 369.339844 672.167969 374.0625 676.007812 378.753906 C 676.359375 379.214844 676.832031 379.808594 677.019531 380.308594 C 676.976562 380.304688 676.933594 380.300781 676.890625 380.296875 C 674.273438 379.839844 671.960938 380.34375 669.90625 382.085938 C 668.195312 383.605469 666.792969 383.847656 665.011719 382.792969 C 665.09375 382.445312 665.175781 382.105469 665.261719 381.769531 C 667.0625 371.867188 668.894531 361.949219 670.113281 351.957031 C 671.316406 358.5625 674.976562 364.632812 679.316406 369.6875 C 681.375 372.011719 683.648438 374.160156 685.640625 376.53125 C 687.910156 379.214844 689.855469 382.179688 691.738281 385.214844 C 691.394531 384.390625 691.050781 383.566406 690.664062 382.757812 C 689.519531 380.332031 688.140625 377.976562 686.535156 375.824219 C 684.144531 372.597656 681.191406 369.847656 678.726562 366.714844 C 675.050781 361.960938 671.933594 356.769531 670.230469 350.972656 C 670.527344 348.472656 670.78125 345.964844 670.988281 343.453125 C 672.03125 330.585938 672.453125 317.679688 672.746094 304.78125 C 673.082031 287.578125 673.199219 270.367188 672.054688 253.1875 C 671.597656 245.554688 669.792969 235.332031 668.753906 227.59375 C 666.203125 209.300781 665.804688 190.175781 667.441406 171.609375 C 665.417969 190.867188 665.789062 210.460938 668.308594 229.554688 C 666.3125 228.570312 664.457031 227.410156 662.820312 226.003906 C 657.429688 221.476562 654.851562 214.605469 654.121094 207.726562 C 653.144531 214.886719 656.121094 222.710938 662.117188 226.910156 C 663.996094 228.234375 666.117188 229.1875 668.320312 229.667969 C 668.480469 230.855469 668.644531 232.039062 668.820312 233.222656 C 666.230469 232.261719 663.664062 231.433594 661.097656 230.464844 C 658.382812 229.464844 655.78125 228.34375 653.050781 227.335938 C 657.117188 231.050781 663.300781 233.425781 668.839844 233.378906 C 668.875 233.613281 668.910156 233.84375 668.945312 234.078125 C 669.453125 237.96875 670.175781 242.90625 670.625 246.84375 C 671.058594 251.269531 671.332031 255.707031 671.507812 260.152344 C 671.007812 260.246094 670.289062 260.375 670.300781 260.375 C 659.640625 262.195312 648.421875 260.316406 638.960938 255.082031 C 637.621094 254.351562 636.324219 253.550781 635.0625 252.695312 C 635.0625 252.695312 635.046875 252.683594 635.039062 252.679688 C 634.035156 251.921875 633.632812 250.679688 633.882812 249.46875 C 635 241.449219 636.261719 233.292969 637.664062 225.332031 C 637.941406 223.804688 638.671875 219.765625 638.945312 218.296875 C 640.007812 212.863281 641.425781 207.492188 643.0625 202.203125 C 645.585938 194.347656 648.046875 186.289062 652.25 179.15625 C 654.539062 175.195312 657.855469 173.050781 661.675781 170.707031 C 679.128906 159.796875 698.769531 153.003906 717.957031 145.792969 C 717.753906 145.945312 717.554688 146.101562 717.363281 146.265625 C 716.398438 147.046875 715.589844 148.023438 714.933594 149.082031 C 712.945312 152.300781 712.527344 156.25 712.882812 159.953125 C 713.675781 171.863281 725.144531 179.226562 735.710938 182.011719 C 748.800781 185.441406 764.46875 181.84375 773.796875 171.785156 C 775.457031 169.898438 776.890625 167.78125 777.820312 165.4375 C 779.601562 160.890625 780.691406 155.382812 778.261719 150.871094 C 777.664062 149.820312 776.917969 148.953125 776.046875 148.25 C 790.792969 152.769531 804.289062 160.292969 817.894531 167.425781 C 820.023438 168.535156 822.210938 169.6875 824.386719 170.726562 C 825.816406 171.464844 827.398438 171.882812 828.777344 172.714844 C 831.878906 174.675781 833.546875 177.988281 835.355469 181.0625 C 839.082031 187.800781 841.882812 195.015625 844.183594 202.355469 C 846.507812 209.601562 848.292969 217.320312 849.542969 224.84375 C 851.074219 233.398438 852.40625 242.015625 853.597656 250.628906 C 853.699219 251.441406 853.445312 252.292969 852.914062 252.929688 C 852.640625 253.269531 852.289062 253.527344 851.910156 253.757812 C 847.515625 256.667969 842.648438 258.859375 837.539062 260.199219 C 831.019531 261.945312 824.132812 262.246094 817.46875 261.171875 C 816.757812 261.050781 816.050781 260.910156 815.339844 260.769531 Z M 846.121094 480.296875 C 845.578125 480.28125 845.035156 480.167969 844.765625 479.734375 C 844.367188 478.695312 845.09375 477.167969 845.859375 476.503906 C 846.535156 475.910156 847.753906 475.671875 848.902344 475.222656 C 849.527344 474.984375 850.144531 474.703125 850.726562 474.363281 C 850.246094 475.058594 849.726562 475.730469 849.164062 476.382812 C 848.167969 477.570312 846.886719 478.847656 846.121094 480.296875 Z M 846.121094 480.296875 " fill-opacity="1" fill-rule="nonzero"/></g><path fill="#231f20" d="M 764.191406 734.777344 C 763.023438 736.589844 762.429688 738.746094 762.769531 740.894531 C 763.601562 738.53125 764.609375 736.679688 765.859375 734.96875 C 765.964844 734.984375 766.070312 734.996094 766.175781 735.011719 C 768.46875 735.300781 770.65625 735.761719 772.96875 736.136719 C 771.273438 734.859375 769.132812 734.015625 766.898438 733.640625 C 767.777344 732.582031 768.761719 731.546875 769.875 730.4375 C 768.105469 730.957031 766.472656 732.039062 765.207031 733.449219 C 763.164062 733.324219 761.113281 733.597656 759.324219 734.300781 C 760.980469 734.488281 762.582031 734.609375 764.191406 734.777344 Z M 764.191406 734.777344 " fill-opacity="1" fill-rule="nonzero"/><path fill="#231f20" d="M 770.015625 740.507812 C 767.972656 740.382812 765.921875 740.65625 764.132812 741.355469 C 765.789062 741.546875 767.390625 741.667969 769 741.835938 C 767.832031 743.648438 767.238281 745.804688 767.578125 747.953125 C 768.410156 745.589844 769.417969 743.738281 770.664062 742.03125 C 770.773438 742.042969 770.878906 742.054688 770.984375 742.070312 C 773.277344 742.359375 775.464844 742.820312 777.777344 743.195312 C 776.078125 741.917969 773.9375 741.074219 771.707031 740.699219 C 772.585938 739.644531 773.570312 738.605469 774.683594 737.496094 C 772.914062 738.015625 771.277344 739.097656 770.015625 740.507812 Z M 770.015625 740.507812 " fill-opacity="1" fill-rule="nonzero"/></svg>