<svg xmlns="http://www.w3.org/2000/svg" xmlns:xlink="http://www.w3.org/1999/xlink" width="1920" zoomAndPan="magnify" viewBox="0 0 1440 809.999993" height="1080" preserveAspectRatio="xMidYMid meet" version="1.0"><path fill="#000000" d="M 879.832031 649.117188 C 880.648438 648.765625 882.136719 652.527344 884.207031 652.324219 C 886.359375 652.113281 886.171875 647.910156 889.734375 644.355469 C 893.0625 641.035156 897.484375 640.441406 898.089844 640.371094 C 903.828125 639.679688 907.230469 643.179688 909.273438 641.398438 C 910.980469 639.90625 909.648438 636.535156 910.355469 636.292969 C 911.753906 635.816406 917.277344 648.710938 920.585938 656.179688 C 930.746094 679.125 932.664062 679.511719 933.308594 686.644531 C 933.667969 690.570312 934.984375 705.121094 925.492188 712.578125 C 920.011719 716.882812 910.742188 718.964844 904.902344 715.148438 C 902.890625 713.832031 901.8125 712.160156 900.910156 710.636719 C 893.933594 698.863281 894.644531 691.351562 889.476562 678.511719 C 886.949219 672.226562 884.996094 669.613281 882.023438 660.777344 C 879.195312 652.375 879.160156 649.402344 879.832031 649.117188 Z M 879.832031 649.117188 " fill-opacity="1" fill-rule="nonzero"/><path fill="#000000" d="M 659.820312 646.472656 C 659.949219 646.28125 660.074219 646.089844 660.199219 645.894531 C 661.898438 643.242188 663.574219 640.363281 665.179688 637.222656 C 665.8125 635.96875 666.363281 634.828125 666.839844 633.796875 C 667.140625 633.140625 667.417969 632.53125 667.667969 631.960938 C 669.914062 626.863281 670.515625 624.628906 673.851562 622.378906 C 685.441406 614.546875 701.910156 625.519531 707.335938 618.710938 C 711.289062 613.753906 704.9375 604.960938 707.144531 603.695312 C 710.582031 601.730469 730.214844 620.621094 725.796875 633.84375 C 725.125 635.855469 724 637.421875 723.402344 638.246094 C 718.441406 645.140625 710.65625 646.765625 706.4375 648.148438 C 692.285156 652.777344 695.808594 662.019531 676.746094 673.210938 C 664.449219 680.429688 655.367188 681.058594 649.878906 680.730469 C 644.433594 680.40625 639.667969 680.125 638.183594 677.195312 C 635.390625 671.691406 648.09375 664.488281 659.820312 646.472656 Z M 659.820312 646.472656 " fill-opacity="1" fill-rule="nonzero"/><path fill="#ecc19c" d="M 564.574219 148.320312 C 565.3125 151.546875 566.15625 153.691406 566.851562 156.859375 C 568.101562 162.5625 567.230469 164.152344 567.792969 169.183594 C 568.949219 179.492188 574.164062 186.855469 577.578125 191.671875 C 579.15625 193.898438 580.644531 195.980469 582.238281 197.769531 L 582.238281 197.773438 C 584.71875 200.566406 587.4375 202.636719 591.085938 203.402344 C 593.546875 203.917969 595.53125 203.652344 597.90625 203.324219 C 598.417969 203.261719 598.917969 203.175781 599.410156 203.085938 C 600.457031 202.890625 601.453125 202.640625 602.394531 202.363281 C 602.363281 204.472656 602.621094 207.765625 604.25 211.320312 C 605.246094 213.5 607.074219 217.492188 610.710938 218.933594 C 614.917969 220.609375 619.4375 218.023438 623.234375 215.773438 C 625.429688 214.476562 636.367188 207.738281 643.035156 192.296875 C 644.121094 189.789062 645.417969 186.296875 646.394531 181.921875 C 647.023438 179.101562 645.800781 176.21875 643.386719 174.632812 C 642.085938 173.78125 640.703125 172.613281 639.472656 171.011719 C 639.394531 170.910156 639.320312 170.808594 639.246094 170.703125 C 638.324219 169.441406 637.703125 168.191406 637.28125 167.089844 C 641.378906 162.652344 641.808594 156.601562 641.867188 155.644531 C 641.9375 154.363281 642.117188 151.175781 641.296875 148.546875 C 640.808594 146.996094 639.972656 145.632812 638.558594 144.980469 C 636.511719 144.035156 633.695312 144.765625 631.964844 146.292969 C 628.585938 149.269531 630.007812 154.667969 628.722656 154.929688 C 627.292969 155.21875 625.257812 148.613281 621.324219 140.917969 C 617.507812 133.460938 615.601562 129.730469 613.050781 128.023438 C 605.136719 122.726562 591.898438 128.046875 580.617188 132.578125 C 570.316406 136.714844 567.074219 139.792969 563.347656 139.398438 C 563.429688 140.96875 563.605469 142.964844 563.976562 145.246094 C 564.164062 146.390625 564.363281 147.398438 564.574219 148.320312 Z M 564.574219 148.320312 " fill-opacity="1" fill-rule="nonzero"/><path fill="#ecc19c" d="M 714.53125 278.664062 C 710.402344 278.425781 705.964844 278.34375 701.265625 278.515625 C 690.921875 278.890625 681.75 280.375 674.019531 282.199219 C 673.996094 282.207031 673.976562 282.210938 673.957031 282.210938 L 673.957031 282.214844 C 674.285156 283.796875 674.648438 285.414062 675.042969 287.0625 C 675.484375 288.890625 675.941406 290.667969 676.421875 292.378906 C 674.335938 292.292969 672.230469 292.386719 669.902344 292.460938 C 660.574219 292.765625 649.902344 293.113281 640.417969 292.195312 C 636.257812 291.789062 629.914062 290.417969 618.195312 287.765625 L 618.191406 287.765625 C 616.519531 287.386719 614.730469 286.980469 612.828125 286.546875 C 607.53125 285.34375 603.015625 284.277344 599.613281 283.453125 C 598.300781 283.136719 597.195312 282.261719 596.582031 281.054688 C 594.140625 276.28125 591.789062 272.308594 589.820312 269.195312 C 587.09375 264.886719 588.914062 268.265625 579.792969 255.960938 C 577.855469 253.339844 576.15625 251.007812 574.644531 251.375 C 573.289062 251.707031 572.625 254.0625 572.53125 255.636719 C 572.398438 257.84375 573.328125 259.316406 575.234375 262.769531 C 576.019531 264.199219 577.117188 266.234375 578.40625 268.746094 C 575.066406 267.785156 572.324219 266.773438 570.21875 265.917969 C 562.734375 262.882812 557.96875 259.660156 554.816406 261.769531 C 553.539062 262.621094 552.601562 264.300781 552.636719 265.816406 C 552.671875 267.0625 553.351562 267.820312 555.949219 271.195312 C 554.28125 271.007812 552.628906 271.167969 551.476562 272.171875 C 550.0625 273.410156 549.558594 275.800781 550.164062 277.488281 C 550.660156 278.855469 551.722656 279.328125 555.734375 281.71875 C 554.472656 281.679688 553.15625 281.855469 552.308594 282.753906 C 551.300781 283.824219 551.128906 285.730469 551.808594 287.046875 C 552.398438 288.195312 553.535156 288.699219 554.664062 289.066406 C 554.03125 289.726562 553.421875 290.617188 553.363281 291.695312 C 553.089844 297.101562 567.230469 302.347656 576.246094 304.304688 C 580.421875 305.210938 586.066406 305.964844 592.917969 305.566406 C 594.320312 305.480469 595.722656 305.699219 597.046875 306.183594 C 602.167969 308.066406 612.8125 311.972656 626.40625 316.933594 C 626.40625 316.933594 632.046875 318.992188 641.28125 321.640625 C 653.632812 325.1875 672.410156 329.800781 692.734375 331.972656 C 694.214844 332.132812 697.421875 332.414062 700.542969 330.71875 C 704 328.835938 705.585938 325.476562 706.519531 323.296875 C 710.992188 312.855469 712.320312 301.902344 712.878906 297.070312 C 713.417969 292.453125 713.878906 288.210938 714.273438 284.421875 L 714.273438 284.414062 C 714.492188 282.359375 714.691406 280.441406 714.867188 278.664062 C 714.757812 278.675781 714.644531 278.675781 714.53125 278.664062 Z M 714.53125 278.664062 " fill-opacity="1" fill-rule="nonzero"/><path fill="#ecc19c" d="M 832.632812 508.425781 C 829.648438 501.433594 827.390625 494.84375 825.660156 488.878906 C 825.402344 489.878906 824.894531 490.8125 824.15625 491.582031 C 820.195312 495.699219 813.804688 501.03125 804.707031 504.214844 C 788.777344 509.789062 774.046875 505.46875 765.46875 501.628906 C 771.375 512.765625 777.664062 521.324219 782.757812 527.449219 C 791.789062 538.308594 800.316406 545.429688 804.996094 549.296875 C 809.949219 553.398438 814.417969 556.648438 817.945312 559.074219 C 818.082031 558.082031 818.574219 557.140625 819.382812 556.457031 C 823.070312 553.339844 827.441406 548.996094 831.542969 543.195312 C 835.261719 537.925781 837.769531 532.863281 839.464844 528.625 C 839.878906 527.609375 840.648438 526.832031 841.578125 526.398438 C 838.578125 521.164062 835.511719 515.167969 832.632812 508.425781 Z M 832.632812 508.425781 " fill-opacity="1" fill-rule="nonzero"/><path fill="#ecc19c" d="M 661.386719 440.429688 C 642.519531 430.492188 623.941406 433.542969 615.105469 435.953125 C 614.398438 436.144531 613.71875 436 613.195312 435.644531 C 609.871094 443.515625 607.402344 450.304688 605.632812 455.53125 C 598.496094 476.578125 598.683594 483.953125 598.820312 486.507812 C 599.160156 493.011719 600.761719 498.523438 602.445312 502.730469 C 603.035156 502.160156 603.855469 501.808594 604.773438 501.847656 C 611.113281 502.117188 619.0625 501.828125 627.996094 500.007812 C 637.0625 498.15625 644.53125 495.261719 650.179688 492.5625 C 650.289062 492.285156 650.410156 491.988281 650.542969 491.691406 C 655.082031 481.484375 666.425781 476.710938 673.371094 473.78125 C 676.066406 472.652344 678.269531 471.902344 680.40625 471.054688 C 682.722656 470.136719 684.953125 469.101562 687.644531 467.316406 C 684.488281 461.117188 676.765625 448.527344 661.386719 440.429688 Z M 661.386719 440.429688 " fill-opacity="1" fill-rule="nonzero"/><path fill="#004aad" d="M 707.144531 603.695312 C 694.933594 588.136719 689.203125 574.148438 686.226562 563.824219 C 681.175781 546.328125 682.613281 534.453125 673.691406 517.550781 C 667.65625 506.105469 659.882812 498.070312 653.890625 492.878906 C 652.945312 492.054688 651.601562 491.878906 650.472656 492.425781 C 650.375 492.46875 650.277344 492.519531 650.179688 492.5625 C 644.53125 495.261719 637.0625 498.15625 627.996094 500.007812 C 619.0625 501.828125 611.113281 502.117188 604.773438 501.847656 C 603.855469 501.808594 603.035156 502.160156 602.445312 502.730469 C 601.617188 503.535156 601.242188 504.78125 601.648438 506.003906 C 603.398438 511.246094 605.273438 515.964844 607.148438 520.175781 C 610 526.59375 612.851562 531.8125 615.269531 535.867188 C 634.011719 567.269531 655.933594 577.550781 670.414062 612.988281 C 671.902344 616.636719 673.035156 619.863281 673.851562 622.378906 C 685.441406 614.546875 701.910156 625.519531 707.335938 618.710938 C 711.289062 613.753906 704.9375 604.960938 707.144531 603.695312 Z M 707.144531 603.695312 " fill-opacity="1" fill-rule="nonzero"/><path fill="#004aad" d="M 901.144531 621.667969 C 898.453125 617.429688 896.058594 611.265625 891.265625 598.941406 C 875.78125 559.082031 877.71875 551.488281 867.949219 540.816406 C 863.726562 536.207031 856.679688 530.320312 844.667969 526.230469 C 843.617188 525.871094 842.515625 525.960938 841.578125 526.398438 C 840.648438 526.832031 839.878906 527.609375 839.464844 528.625 C 837.769531 532.863281 835.261719 537.925781 831.542969 543.195312 C 827.441406 548.996094 823.070312 553.339844 819.382812 556.457031 C 818.574219 557.140625 818.082031 558.082031 817.945312 559.074219 C 817.839844 559.839844 817.953125 560.636719 818.292969 561.375 C 820.003906 565.109375 821.785156 568.425781 823.527344 571.347656 C 826.285156 575.964844 828.953125 579.597656 831.152344 582.335938 C 845 599.570312 859.648438 605.632812 869.386719 624.167969 C 870.199219 625.722656 872.089844 629.464844 874.152344 634.199219 C 876.527344 639.652344 878.378906 644.691406 879.832031 649.113281 L 879.832031 649.117188 C 880.644531 648.765625 882.136719 652.527344 884.207031 652.324219 C 886.359375 652.113281 886.171875 647.910156 889.734375 644.355469 C 893.0625 641.035156 897.484375 640.441406 898.089844 640.371094 C 903.828125 639.679688 907.230469 643.179688 909.273438 641.398438 C 910.980469 639.90625 909.648438 636.535156 910.355469 636.292969 L 910.355469 636.289062 C 907.539062 630.578125 904.164062 626.429688 901.144531 621.667969 Z M 901.144531 621.667969 " fill-opacity="1" fill-rule="nonzero"/><path fill="#004aad" d="M 824.15625 491.582031 C 824.894531 490.8125 825.402344 489.878906 825.660156 488.878906 C 825.925781 487.875 825.933594 486.796875 825.664062 485.761719 C 820.550781 466.019531 814.464844 445.304688 807.214844 423.8125 C 803.09375 411.59375 798.824219 399.824219 794.472656 388.511719 L 794.472656 388.507812 C 795.382812 385.910156 796.078125 382.414062 796.382812 377.695312 C 796.492188 375.96875 795.902344 374.277344 794.730469 373.003906 C 787.15625 364.804688 778.875 354.769531 770.765625 342.765625 C 768.792969 339.847656 766.832031 336.8125 764.894531 333.65625 C 751.675781 312.164062 744.558594 293.386719 740.273438 281.921875 C 736.785156 272.566406 732.507812 258.933594 723.949219 231.664062 C 715.75 205.527344 715.183594 202.679688 710.90625 197.535156 C 698.023438 182.039062 677.484375 176.914062 667.136719 174.335938 C 660.191406 172.601562 654.042969 171.773438 649.210938 171.371094 C 645.925781 169.339844 641.433594 170.410156 639.472656 171.011719 C 640.703125 172.613281 642.085938 173.78125 643.386719 174.632812 C 645.800781 176.21875 647.023438 179.101562 646.394531 181.921875 C 645.417969 186.296875 644.121094 189.789062 643.035156 192.296875 C 636.367188 207.738281 625.429688 214.476562 623.234375 215.773438 C 619.4375 218.023438 614.917969 220.609375 610.710938 218.933594 C 607.074219 217.492188 605.246094 213.5 604.25 211.320312 C 602.621094 207.765625 602.363281 204.472656 602.394531 202.363281 C 601.453125 202.640625 600.457031 202.890625 599.410156 203.085938 C 598.917969 203.175781 598.417969 203.261719 597.90625 203.324219 C 595.53125 203.652344 593.546875 203.917969 591.085938 203.402344 C 587.4375 202.636719 584.71875 200.566406 582.238281 197.773438 C 580.507812 200 578.453125 203.355469 577.414062 207.757812 C 575.464844 216.074219 578.371094 223.074219 580.242188 227.421875 C 582.714844 233.15625 584.957031 235.101562 589.886719 241.816406 C 592.523438 245.414062 593.875 247.570312 595.578125 250.523438 C 597.640625 254.097656 600.226562 258.839844 606.210938 268.683594 C 609.042969 273.339844 613.09375 279.886719 618.191406 287.765625 L 618.195312 287.765625 C 629.914062 290.417969 636.257812 291.789062 640.417969 292.195312 C 649.902344 293.113281 660.574219 292.765625 669.902344 292.460938 C 672.230469 292.386719 674.335938 292.292969 676.421875 292.378906 C 675.941406 290.667969 675.484375 288.890625 675.042969 287.0625 C 674.648438 285.414062 674.285156 283.796875 673.957031 282.214844 L 673.957031 282.210938 C 673.976562 282.210938 673.996094 282.207031 674.019531 282.199219 C 681.75 280.375 690.921875 278.890625 701.265625 278.515625 C 705.964844 278.34375 710.402344 278.425781 714.53125 278.664062 C 714.644531 278.675781 714.757812 278.675781 714.867188 278.664062 C 714.691406 280.441406 714.492188 282.359375 714.273438 284.414062 L 714.273438 284.421875 C 713.878906 288.210938 713.417969 292.453125 712.878906 297.070312 C 712.320312 301.902344 710.992188 312.855469 706.519531 323.296875 C 705.585938 325.476562 704 328.835938 700.542969 330.71875 C 697.421875 332.414062 694.214844 332.132812 692.734375 331.972656 C 672.410156 329.800781 653.632812 325.1875 641.28125 321.640625 C 644.488281 326.195312 647.75 331.847656 650.328125 338.625 C 651.910156 342.761719 652.949219 346.574219 653.640625 349.753906 C 654.523438 353.800781 654.839844 356.820312 654.960938 358.160156 C 655.125 360.015625 655.214844 361.804688 655.238281 363.507812 C 655.300781 368.058594 654.921875 372.054688 654.417969 375.328125 C 653.1875 375.394531 652.132812 375.722656 651.300781 376.367188 C 649.617188 377.664062 648.746094 380.3125 648.527344 382.199219 C 648.433594 383.058594 648.457031 383.871094 648.5625 384.640625 C 646.011719 386.695312 642.589844 389.957031 637.605469 395.179688 C 627.511719 405.753906 621.578125 415.292969 618.964844 419.773438 C 616.179688 424.542969 614.003906 428.949219 612.328125 432.710938 C 611.820312 433.855469 612.292969 435.054688 613.195312 435.644531 C 613.71875 436 614.398438 436.144531 615.105469 435.953125 C 623.941406 433.542969 642.519531 430.492188 661.386719 440.429688 C 676.765625 448.527344 684.488281 461.117188 687.644531 467.316406 C 684.953125 469.101562 682.722656 470.136719 680.40625 471.054688 C 682.746094 471.878906 685.511719 472.347656 688.378906 471.660156 C 692.328125 470.714844 692.878906 468.425781 700.71875 461.507812 C 707.042969 455.917969 708.886719 455.460938 713.570312 450.453125 C 714.800781 449.132812 715.875 447.886719 716.792969 446.75 C 719.007812 450.648438 721.5625 454.9375 724.882812 459.871094 C 731.34375 469.460938 741.367188 482.480469 756.542969 496.300781 C 757.636719 497.300781 758.832031 498.179688 760.117188 498.914062 C 761.425781 499.664062 763.238281 500.628906 765.46875 501.625 L 765.46875 501.628906 C 774.046875 505.46875 788.777344 509.789062 804.707031 504.214844 C 813.804688 501.03125 820.195312 495.699219 824.15625 491.582031 Z M 824.15625 491.582031 " fill-opacity="1" fill-rule="nonzero"/><path fill="#231f20" d="M 595.492188 146.964844 C 594.109375 147.257812 593.335938 149.140625 593.765625 151.179688 C 594.195312 153.210938 595.660156 154.625 597.042969 154.335938 C 598.421875 154.046875 599.195312 152.160156 598.765625 150.125 C 598.335938 148.089844 596.871094 146.675781 595.492188 146.964844 Z M 595.492188 146.964844 " fill-opacity="1" fill-rule="nonzero"/><path fill="#231f20" d="M 571.414062 153.3125 C 570.03125 153.605469 569.261719 155.492188 569.6875 157.523438 C 570.117188 159.5625 571.585938 160.976562 572.964844 160.6875 C 574.347656 160.394531 575.117188 158.507812 574.691406 156.472656 C 574.261719 154.4375 572.792969 153.023438 571.414062 153.3125 Z M 571.414062 153.3125 " fill-opacity="1" fill-rule="nonzero"/><path fill="#231f20" d="M 599.378906 141.296875 C 601.132812 141.546875 602.859375 142.058594 604.5625 142.789062 C 598.613281 137.609375 588.824219 139.410156 584.605469 145.917969 C 587.078125 143.898438 589.796875 142.386719 592.855469 141.605469 C 594.984375 141.101562 597.207031 140.980469 599.378906 141.296875 Z M 599.378906 141.296875 " fill-opacity="1" fill-rule="nonzero"/><path fill="#231f20" d="M 581.6875 171.921875 C 582.699219 171.761719 583.644531 171.429688 584.527344 170.984375 C 583.003906 171.1875 579.730469 171.800781 579.234375 169.875 C 579.09375 169.265625 579.199219 168.644531 579.332031 168.003906 C 579.542969 167.09375 579.839844 166.113281 580.03125 165.175781 C 580.84375 161.304688 581.023438 157.304688 580.449219 153.394531 C 579.902344 157.257812 579.480469 161.085938 578.652344 164.878906 C 578.382812 166.320312 577.808594 167.808594 577.921875 169.363281 C 578.066406 171.441406 579.816406 172.234375 581.6875 171.921875 Z M 581.6875 171.921875 " fill-opacity="1" fill-rule="nonzero"/><path fill="#231f20" d="M 596.851562 181.445312 C 591.4375 185.042969 586.445312 186.867188 579.984375 187.585938 C 586.105469 189.03125 593.078125 186.472656 596.851562 181.445312 Z M 596.851562 181.445312 " fill-opacity="1" fill-rule="nonzero"/><path fill="#231f20" d="M 633.71875 165.414062 C 636.917969 163.199219 637.96875 159.511719 635.808594 156.167969 C 637.398438 159.515625 636.34375 162.753906 633.207031 164.648438 C 632.289062 165.207031 631.273438 165.652344 630.25 165.84375 C 629.855469 165.90625 629.464844 165.964844 629.101562 165.851562 C 629.101562 165.851562 629.101562 165.847656 629.101562 165.847656 C 629.097656 165.847656 629.097656 165.847656 629.097656 165.84375 C 629.09375 165.839844 629.097656 165.832031 629.097656 165.824219 C 629.09375 165.800781 629.085938 165.773438 629.09375 165.726562 L 629.09375 165.660156 C 629.214844 164.914062 629.632812 164.1875 630.0625 163.554688 C 630.367188 163.125 630.699219 162.746094 631.082031 162.449219 C 631.550781 162.078125 632.023438 161.910156 632.523438 161.457031 C 633.390625 160.695312 633.53125 159.378906 633.105469 158.367188 C 632.707031 157.320312 632.257812 156.339844 632.0625 155.253906 C 631.785156 153.488281 631.796875 151.457031 632.550781 149.84375 C 633.289062 148.117188 635.675781 146.976562 637.425781 147.734375 C 638.328125 148.195312 638.789062 149.164062 639.097656 150.109375 C 640.019531 153.332031 639.472656 156.785156 638.730469 160.035156 C 639.554688 157.917969 640.117188 155.675781 640.261719 153.363281 C 640.535156 149.371094 639.003906 144.941406 634.152344 146.714844 C 630.664062 147.992188 630.132812 152.316406 630.675781 155.507812 C 630.835938 156.390625 631.148438 157.28125 631.492188 158.078125 C 631.714844 158.601562 631.929688 159.101562 631.964844 159.484375 C 632.019531 160.570312 631.070312 160.695312 630.246094 161.410156 C 629.742188 161.824219 629.335938 162.324219 629 162.832031 C 628.472656 163.664062 628.003906 164.546875 627.890625 165.566406 C 627.886719 165.722656 627.882812 165.871094 627.917969 166.039062 C 628.414062 168.277344 632.632812 166.273438 633.71875 165.414062 Z M 629.074219 165.832031 C 629.074219 165.835938 629.082031 165.839844 629.085938 165.84375 C 629.082031 165.839844 629.082031 165.835938 629.074219 165.835938 C 629.074219 165.832031 629.070312 165.832031 629.066406 165.832031 C 629.066406 165.832031 629.070312 165.832031 629.074219 165.832031 Z M 629.074219 165.832031 " fill-opacity="1" fill-rule="nonzero"/><path fill="#231f20" d="M 933.898438 686.589844 C 933.484375 682.050781 932.558594 680.152344 929.484375 673.863281 C 927.578125 669.960938 924.964844 664.613281 921.125 655.941406 C 920.824219 655.261719 920.503906 654.539062 920.171875 653.785156 C 918.535156 650.074219 916.5 645.457031 914.75 641.90625 C 911.734375 635.78125 910.890625 635.488281 910.167969 635.734375 C 910.144531 635.742188 910.128906 635.75 910.109375 635.757812 C 908.175781 631.679688 905.292969 627.492188 902.84375 623.769531 C 898.316406 617.023438 895.90625 609.183594 892.925781 601.6875 C 889.484375 592.675781 886.109375 583.382812 883.085938 574.21875 C 882.335938 571.917969 880.835938 567.265625 880.121094 564.957031 C 878.074219 558.761719 876.425781 552.378906 873.125 546.660156 C 872.960938 546.34375 872.664062 545.921875 872.46875 545.609375 C 872.089844 545.011719 871.488281 544.113281 871.050781 543.574219 C 865.359375 536.011719 857.195312 530.558594 848.429688 527.171875 C 847.664062 526.878906 846.90625 526.582031 846.128906 526.324219 C 845.4375 526.101562 844.425781 525.664062 843.695312 525.648438 C 842.910156 525.582031 842.128906 525.75 841.429688 526.085938 C 838.59375 520.019531 835.746094 514 833.152344 507.835938 C 830.601562 501.914062 828.347656 495.902344 826.042969 489.875 C 826.582031 488.539062 826.691406 487.03125 826.335938 485.628906 C 823.214844 473.488281 819.796875 461.332031 816.105469 449.355469 C 809.855469 429.078125 802.777344 408.992188 794.800781 389.324219 C 796.226562 385.679688 796.726562 381.351562 796.996094 377.765625 C 797.15625 375.777344 796.351562 373.71875 794.953125 372.324219 C 774.921875 350.539062 758.835938 325.226562 747.34375 297.964844 C 735.992188 270.976562 728.339844 242.613281 719.214844 214.828125 C 717.832031 210.644531 716.566406 206.390625 714.660156 202.394531 C 714 201.058594 713.210938 199.773438 712.308594 198.589844 C 704.097656 188.007812 691.84375 181.519531 679.304688 177.507812 C 669.695312 174.515625 659.8125 172.191406 649.765625 171.417969 C 649.628906 171.324219 649.492188 171.234375 649.347656 171.152344 C 646.703125 169.570312 642.910156 169.855469 639.636719 170.960938 C 638.800781 169.941406 638.085938 168.824219 637.523438 167.628906 C 641.664062 163.449219 643.140625 156.964844 642.507812 151.171875 C 642.378906 150 642.136719 148.734375 641.660156 147.59375 C 645.230469 137.890625 645.003906 126.972656 641.109375 117.390625 C 633.585938 98.964844 615.371094 91.050781 596.292969 94.179688 C 589.601562 95.320312 583.128906 98.140625 578.066406 102.714844 C 572.757812 107.394531 570.28125 113.363281 562.765625 114.878906 C 561.058594 115.261719 559.308594 115.285156 557.554688 115.191406 C 556.136719 115.125 554.628906 115.09375 553.574219 116.214844 C 553.5 116.285156 553.433594 116.359375 553.367188 116.433594 C 552.636719 117.234375 552.1875 118.265625 551.949219 119.316406 C 550.8125 124.890625 553.097656 131.679688 556.710938 136 C 558.390625 137.953125 560.738281 139.671875 563.367188 139.945312 C 563.449219 142.378906 563.675781 144.8125 564.140625 147.210938 C 565.003906 152.339844 567.125 157.253906 567.078125 162.488281 C 567.09375 163.773438 567.035156 165.085938 567.0625 166.414062 C 567.183594 173.0625 569.285156 179.589844 572.59375 185.320312 C 575.269531 189.785156 578.183594 194.03125 581.542969 198.019531 L 581.542969 198.039062 C 581.625 198.128906 581.707031 198.21875 581.789062 198.308594 C 577.265625 203.941406 575.363281 211.671875 576.828125 218.800781 C 577.527344 222.503906 578.894531 226.011719 580.46875 229.410156 C 582.046875 232.808594 584.441406 235.8125 586.695312 238.730469 C 589.648438 242.582031 592.480469 246.492188 594.890625 250.707031 L 594.890625 250.710938 L 594.984375 250.867188 C 600.363281 260.34375 606.0625 269.652344 612.078125 278.742188 C 613.886719 281.488281 615.726562 284.210938 617.601562 286.914062 C 614.617188 286.238281 611.632812 285.554688 608.597656 284.851562 C 607.007812 284.480469 602.832031 283.511719 601.296875 283.15625 C 601.09375 283.113281 599.941406 282.839844 599.773438 282.808594 C 598.628906 282.539062 597.644531 281.753906 597.125 280.695312 C 594.910156 276.425781 592.5 272.246094 589.867188 268.21875 C 588.523438 266.097656 586.71875 264.273438 585.203125 262.28125 C 583.378906 259.972656 580.917969 256.75 579.101562 254.363281 C 578.097656 253.164062 576.546875 250.863281 574.777344 251.019531 C 573.917969 251.113281 573.308594 251.898438 572.980469 252.613281 C 572.445312 253.816406 572.222656 255.101562 572.289062 256.402344 C 572.371094 257.691406 572.925781 258.902344 573.523438 260.011719 C 575.058594 262.734375 576.566406 265.453125 578.085938 268.175781 C 575.460938 267.292969 572.867188 266.328125 570.3125 265.234375 C 566.914062 263.832031 563.65625 262.082031 560.132812 260.953125 C 558.757812 260.554688 557.167969 260.246094 555.71875 260.707031 C 553.539062 261.425781 552.039062 263.800781 552.277344 266.074219 C 552.460938 267.308594 553.375 268.222656 554.117188 269.132812 C 554.542969 269.625 554.972656 270.113281 555.40625 270.59375 C 553.21875 270.347656 551.132812 270.84375 549.941406 273.007812 C 549.070312 274.675781 548.910156 276.835938 549.984375 278.441406 C 550.453125 279.09375 551.167969 279.539062 551.820312 279.90625 C 552.800781 280.4375 553.796875 280.902344 554.816406 281.335938 C 553.726562 281.300781 552.660156 281.550781 551.828125 282.363281 C 550.59375 283.632812 550.386719 285.664062 551.125 287.234375 C 551.648438 288.414062 552.960938 289.171875 554.089844 289.460938 C 554.136719 289.472656 554.183594 289.484375 554.226562 289.496094 C 552.699219 291.167969 552.925781 293.1875 554.398438 294.988281 C 558.347656 299.507812 565.914062 302.125 571.539062 303.839844 C 577.742188 305.652344 584.269531 306.433594 590.722656 306 C 591.78125 305.945312 592.859375 305.785156 593.910156 305.753906 C 594.957031 305.738281 596.015625 305.890625 597.046875 306.183594 C 596.070312 305.742188 595.011719 305.460938 593.925781 305.359375 C 592.839844 305.273438 591.785156 305.351562 590.707031 305.308594 C 588.585938 305.277344 586.464844 305.148438 584.355469 304.933594 C 578.039062 304.289062 571.847656 302.695312 565.890625 300.519531 C 562.925781 299.421875 559.996094 298.1875 557.339844 296.480469 C 554.777344 294.828125 552.269531 292.402344 554.308594 289.519531 C 555.710938 289.902344 557.203125 290.046875 558.601562 289.652344 C 557.136719 289.46875 555.789062 289.019531 554.46875 288.414062 C 553.542969 287.988281 552.777344 287.53125 552.386719 286.640625 C 551.816406 285.304688 552.070312 283.410156 553.410156 282.636719 C 554.570312 281.976562 556.210938 282.007812 557.570312 281.902344 C 557.984375 282.050781 558.382812 282.179688 558.84375 282.238281 C 559.070312 282.265625 559.429688 282.238281 559.550781 281.933594 C 559.777344 281.207031 558.476562 280.402344 557.992188 280.039062 C 556.117188 278.8125 554.074219 277.871094 551.902344 277.308594 C 553.308594 278.410156 554.847656 279.273438 556.382812 280.152344 C 557.222656 280.644531 558.09375 281.066406 558.828125 281.640625 C 558.871094 281.675781 558.910156 281.714844 558.9375 281.742188 C 558.53125 281.867188 558.03125 281.820312 557.578125 281.878906 C 556.90625 281.652344 556.054688 281.449219 555.3125 281.367188 C 554.003906 280.308594 552.519531 279.414062 551.320312 278.257812 C 550.214844 277.023438 550.480469 275.042969 551.183594 273.679688 C 552.921875 270.441406 558.007812 272.09375 561.050781 272.402344 C 561.414062 272.582031 561.785156 272.769531 562.203125 272.785156 C 562.28125 272.78125 562.375 272.777344 562.488281 272.699219 C 562.976562 272.242188 562.132812 271.511719 561.824219 271.195312 C 559.710938 269.351562 557.242188 267.996094 554.601562 267.074219 C 555.992188 268.304688 557.53125 269.304688 559.078125 270.304688 C 560.089844 270.988281 561.199219 271.542969 562.09375 272.351562 C 562.101562 272.359375 562.109375 272.371094 562.117188 272.382812 C 561.78125 272.445312 561.425781 272.390625 561.074219 272.378906 C 559.5625 271.664062 557.460938 270.855469 555.566406 270.613281 C 555.191406 270.039062 554.808594 269.46875 554.429688 268.898438 C 553.867188 267.992188 553.105469 267.085938 553.027344 266 C 552.992188 264.574219 553.851562 263.121094 554.988281 262.324219 C 555.648438 261.871094 556.417969 261.6875 557.238281 261.714844 C 559.863281 261.910156 562.292969 263.257812 564.734375 264.304688 C 566.402344 265.054688 568.085938 265.804688 569.804688 266.472656 C 574.953125 268.480469 580.351562 269.910156 585.835938 270.546875 C 583.234375 269.816406 580.660156 269.039062 578.117188 268.183594 C 577.242188 266.457031 575.695312 263.3125 575.003906 262.054688 C 574.085938 260.246094 572.878906 258.445312 572.769531 256.375 C 572.742188 255.1875 573 253.933594 573.519531 252.875 C 573.699219 252.53125 573.914062 252.203125 574.1875 251.976562 C 575.160156 251.167969 576.226562 252.214844 576.917969 252.9375 C 577.988281 254.0625 580.476562 257.632812 581.410156 258.886719 C 583.375 261.578125 585.410156 264.253906 587.527344 266.820312 C 588.535156 268.097656 589.363281 269.554688 590.226562 270.945312 C 592.160156 274.136719 593.996094 277.402344 595.691406 280.730469 L 595.972656 281.285156 C 596.59375 282.5625 597.753906 283.578125 599.117188 284.003906 C 599.523438 284.136719 600.5625 284.355469 600.980469 284.464844 C 606.054688 285.671875 613.535156 287.429688 618.039062 288.453125 C 624.835938 289.949219 631.566406 291.59375 638.472656 292.640625 C 641.941406 293.082031 645.433594 293.230469 648.921875 293.328125 C 655.875 293.503906 662.820312 293.222656 669.757812 292.9375 C 673.203125 292.789062 676.652344 292.554688 680.0625 293.109375 C 686.917969 294.164062 693.082031 297.984375 697.792969 303.003906 C 693.261719 297.71875 687.078125 293.703125 680.179688 292.414062 C 678.941406 292.183594 677.691406 292.054688 676.433594 291.988281 C 676.480469 290.328125 676.195312 288.742188 675.796875 287.148438 C 675.429688 285.660156 675.003906 284.210938 674.300781 282.835938 C 674.457031 282.804688 674.632812 282.773438 674.632812 282.773438 L 674.632812 282.753906 C 678.375 281.890625 682.171875 281.171875 685.972656 280.621094 C 695.433594 279.226562 705.03125 278.808594 714.582031 279.316406 C 714.648438 279.320312 714.71875 279.316406 714.785156 279.316406 C 714.601562 280.820312 714.15625 284.402344 714.15625 284.402344 C 712.917969 293.734375 712.019531 304.289062 709.390625 313.359375 C 708.515625 316.488281 707.460938 319.566406 706.191406 322.550781 C 704.394531 327.140625 701.433594 330.84375 696.257812 331.347656 C 694.671875 331.53125 693.117188 331.34375 691.519531 331.148438 C 690.3125 331.015625 687.867188 330.710938 686.664062 330.546875 C 680.195312 329.6875 673.761719 328.570312 667.363281 327.304688 C 652.984375 324.351562 638.707031 320.722656 624.839844 315.882812 C 616.359375 312.875 605.515625 309.089844 597.046875 306.183594 C 602.078125 308.164062 610.289062 311.289062 615.359375 313.242188 C 620.816406 315.277344 628.292969 318.292969 633.816406 319.964844 C 636.445312 320.808594 639.089844 321.617188 641.742188 322.390625 C 651.40625 338.09375 656.328125 356.664062 654.4375 375.09375 C 652.613281 375.238281 651.117188 375.945312 650.121094 377.394531 C 648.8125 379.367188 648.246094 381.820312 648.5 384.164062 C 647.289062 385.113281 646.136719 386.144531 645 387.167969 C 640.660156 391.195312 636.53125 395.421875 632.609375 399.867188 C 624.003906 409.667969 616.832031 420.757812 611.59375 432.710938 C 611.113281 434.039062 611.742188 435.550781 612.898438 436.277344 C 607.996094 446.601562 604 457.371094 600.945312 468.386719 C 599.835938 472.632812 598.835938 476.9375 598.394531 481.320312 C 597.695312 488.496094 599.40625 495.847656 602.277344 502.355469 C 601.433594 503.109375 600.925781 504.25 601.074219 505.414062 C 601.097656 505.660156 601.15625 505.902344 601.226562 506.140625 L 601.429688 506.765625 C 605.101562 518.003906 610.078125 528.839844 616.324219 538.886719 C 617.726562 541.109375 619.164062 543.316406 620.679688 545.464844 C 630.589844 559.910156 643.625 571.820312 654.25 585.667969 C 662.636719 596.554688 669.109375 608.84375 673.648438 621.808594 C 673.605469 621.835938 673.5625 621.859375 673.519531 621.890625 C 670.484375 623.941406 669.578125 626.042969 667.941406 629.855469 C 667.691406 630.433594 667.425781 631.054688 667.128906 631.722656 C 666.878906 632.292969 666.605469 632.898438 666.308594 633.550781 C 665.792969 634.65625 665.238281 635.804688 664.652344 636.953125 C 663.164062 639.871094 661.507812 642.757812 659.730469 645.535156 C 659.71875 645.550781 659.710938 645.5625 659.703125 645.578125 C 659.578125 645.769531 659.457031 645.957031 659.324219 646.152344 C 654.214844 654.007812 648.988281 659.714844 644.792969 664.300781 C 639.25 670.351562 635.90625 674.007812 637.660156 677.460938 C 639.296875 680.695312 644.183594 680.984375 649.84375 681.316406 C 650.597656 681.363281 651.351562 681.386719 652.113281 681.386719 C 660.097656 681.382812 668.28125 678.863281 677.042969 673.71875 C 686.652344 668.078125 690.660156 662.824219 693.878906 658.605469 C 697.132812 654.339844 699.703125 650.96875 706.621094 648.707031 C 707.125 648.542969 707.6875 648.371094 708.277344 648.191406 C 712.707031 646.847656 719.402344 644.816406 723.882812 638.589844 C 724.457031 637.796875 725.652344 636.140625 726.359375 634.03125 C 728.207031 628.496094 725.898438 622.449219 723.632812 618.351562 C 721.109375 613.785156 717.28125 609.152344 713.386719 605.957031 C 711.640625 604.523438 708.472656 602.257812 706.855469 603.183594 C 706.835938 603.195312 706.820312 603.207031 706.800781 603.21875 C 706.40625 602.679688 705.742188 601.765625 705.742188 601.765625 L 705.039062 600.804688 C 705.039062 600.804688 704.359375 599.824219 704.359375 599.824219 C 694.25 585.605469 687.113281 569.28125 684.164062 552.0625 C 682.996094 545.804688 682.148438 539.46875 680.53125 533.28125 C 680.21875 532.015625 679.738281 530.480469 679.367188 529.234375 C 679.234375 528.851562 678.539062 526.816406 678.390625 526.386719 C 673.632812 513.59375 665.382812 502.238281 655.097656 493.324219 L 654.1875 492.542969 C 653.171875 491.660156 651.644531 491.445312 650.425781 492.003906 C 655.019531 481.738281 666.15625 476.933594 676.074219 473.105469 C 677.75 472.488281 679.363281 471.914062 680.949219 471.28125 C 684.375 472.660156 688.667969 472.882812 691.796875 470.675781 C 693.226562 469.675781 694.855469 467.933594 696.121094 466.742188 C 697.492188 465.40625 698.875 464.097656 700.304688 462.828125 C 703.132812 460.226562 706.140625 457.871094 709.089844 455.410156 C 711.851562 453.058594 714.246094 450.308594 716.351562 447.367188 C 719.191406 452.320312 722.152344 457.207031 725.445312 461.875 C 730.871094 469.683594 736.898438 477.058594 743.425781 483.960938 C 746.65625 487.355469 750.125 490.765625 753.589844 493.929688 C 754.609375 494.820312 756.125 496.246094 757.148438 497.078125 C 759.628906 499.070312 762.574219 500.363281 765.46875 501.625 C 762.65625 500.234375 759.785156 498.835938 757.386719 496.789062 C 753.96875 493.660156 750.523438 490.15625 747.320312 486.800781 C 744.066406 483.371094 740.9375 479.824219 737.910156 476.199219 C 729.867188 466.496094 722.738281 456.074219 716.640625 445.042969 C 713.535156 439.566406 710.582031 433.933594 706.910156 428.71875 C 699.558594 418.34375 689.738281 409.78125 678.71875 403.484375 C 673.210938 400.351562 667.421875 397.726562 661.449219 395.664062 C 662.90625 396.265625 664.324219 396.839844 665.808594 397.511719 C 670.105469 399.414062 674.378906 401.613281 678.367188 404.082031 C 686 408.6875 692.976562 414.371094 698.964844 420.953125 C 693.824219 418.847656 688.476562 417.230469 683.042969 416.074219 C 665.257812 412.296875 646.328125 413.402344 629.21875 419.601562 C 649.585938 414.175781 671.21875 413.792969 691.652344 419.050781 C 694.171875 419.671875 696.667969 420.398438 699.15625 421.164062 C 703.640625 426.121094 707.566406 431.585938 710.789062 437.472656 C 712.613281 440.738281 714.429688 444.019531 716.292969 447.269531 C 713.804688 449.859375 711.257812 452.378906 708.394531 454.550781 C 703.726562 457.941406 699.195312 461.636719 695.175781 465.796875 C 694.035156 466.957031 692.375 468.804688 691.140625 469.796875 C 688.3125 471.976562 684.488281 472.003906 681.09375 471.222656 C 683.398438 470.292969 685.636719 469.234375 687.910156 467.71875 L 688.265625 467.484375 C 687.320312 465.582031 686.285156 463.71875 685.15625 461.921875 C 676.816406 448.386719 663.152344 438.175781 647.621094 434.535156 C 637.941406 432.238281 627.753906 432.339844 618.0625 434.507812 C 617.09375 434.726562 616.128906 434.960938 615.171875 435.21875 C 614.710938 435.347656 614.496094 435.390625 614.070312 435.296875 C 613.117188 435.066406 612.527344 433.925781 612.941406 433.023438 C 612.953125 432.988281 612.988281 432.921875 613.007812 432.867188 C 613.007812 432.867188 613.085938 432.699219 613.085938 432.699219 C 619.804688 417.441406 629.660156 403.726562 641.421875 391.949219 C 642.792969 390.546875 644.179688 389.160156 645.601562 387.8125 C 647.738281 385.835938 649.902344 383.832031 652.464844 382.445312 C 653.730469 381.765625 655.136719 381.40625 656.5625 381.273438 C 658.722656 381.03125 660.933594 381.230469 663.042969 381.761719 C 668.039062 383.023438 672.4375 385.972656 676.246094 389.375 C 677.710938 390.683594 679.089844 392.089844 680.378906 393.570312 C 677.878906 390.539062 675.03125 387.765625 671.800781 385.488281 C 667.773438 382.636719 663.007812 380.535156 658 380.542969 C 655.992188 380.558594 653.925781 380.835938 652.125 381.78125 C 650.84375 382.449219 649.652344 383.265625 648.519531 384.152344 C 648.339844 381.308594 649.566406 377.261719 652.203125 376.042969 C 660.425781 372.726562 680.082031 388.429688 686.308594 394.039062 C 688.78125 396.25 691.105469 398.59375 693.246094 401.128906 C 695.378906 403.6875 697.574219 406.304688 700.039062 408.582031 C 702.957031 411.34375 706.058594 413.851562 709.304688 416.167969 C 724.664062 439.230469 747.089844 457.449219 772.628906 468.144531 C 778.242188 470.519531 784.207031 472.585938 790.078125 474.222656 C 794.824219 475.535156 799.632812 476.628906 804.480469 477.445312 C 799.695312 476.324219 794.949219 475.050781 790.277344 473.558594 C 757.828125 463.371094 729.917969 443.550781 709.582031 416.367188 C 716.125 421.003906 723.246094 424.851562 730.640625 428.296875 C 739.90625 432.722656 749.570312 436.3125 759.480469 439 C 763.695312 440.140625 768.03125 441.15625 772.316406 441.972656 C 755.238281 437.957031 738.792969 431.554688 723.363281 423.238281 C 718.324219 420.578125 712.851562 417.171875 708.621094 413.9375 C 704.683594 410.925781 700.847656 407.726562 697.53125 404.035156 C 697.070312 403.523438 696.617188 402.996094 696.167969 402.46875 C 704.167969 405.5625 712.503906 407.785156 720.980469 409.109375 C 733.507812 411.089844 749.492188 413.328125 761.355469 407.929688 C 763.429688 406.933594 765.386719 405.625 767 403.9375 C 768.5 402.285156 770 400.621094 771.882812 399.410156 C 774.632812 397.570312 777.902344 396.601562 781.214844 396.640625 C 784.789062 396.664062 788.347656 397.25 791.300781 394.644531 C 792.847656 393.289062 793.964844 391.441406 794.78125 389.371094 C 804.421875 416.019531 813.238281 443.101562 820.804688 470.398438 C 822.214844 475.394531 823.675781 480.917969 825.011719 485.964844 C 825.414062 487.507812 825.089844 489.230469 824.164062 490.527344 C 823.660156 491.210938 823.003906 491.796875 822.40625 492.402344 C 820.511719 494.265625 818.472656 495.980469 816.308594 497.523438 C 803.832031 506.597656 787.75 508.605469 773.066406 504.308594 C 770.507812 503.558594 767.917969 502.667969 765.46875 501.628906 C 765.46875 501.628906 765.46875 501.628906 765.46875 501.625 C 765.46875 501.628906 765.46875 501.628906 765.46875 501.628906 C 775.339844 522.464844 791.1875 540.105469 809.792969 553.570312 C 812.332031 555.410156 814.921875 557.179688 817.574219 558.839844 C 817.386719 559.8125 817.515625 560.847656 818.003906 561.824219 C 821.539062 569.714844 826.039062 577.207031 831.5625 583.867188 C 838.507812 592.488281 847.296875 599.367188 855.273438 606.921875 C 856.402344 607.96875 857.453125 609.085938 858.539062 610.175781 C 858.789062 610.449219 859.308594 611.019531 859.574219 611.3125 C 860.414062 612.203125 861.457031 613.4375 862.246094 614.410156 C 862.625 614.855469 863.179688 615.554688 863.511719 616.015625 C 863.722656 616.296875 864.863281 617.828125 865.042969 618.066406 L 865.324219 618.492188 L 865.890625 619.347656 C 868.90625 623.886719 871.308594 628.851562 873.613281 633.835938 C 875.847656 638.644531 877.824219 643.574219 879.628906 648.5625 C 879.621094 648.566406 879.609375 648.570312 879.597656 648.574219 C 879.101562 648.789062 877.585938 649.4375 881.464844 660.964844 C 883.332031 666.503906 884.8125 669.652344 886.25 672.699219 C 887.101562 674.511719 887.984375 676.382812 888.929688 678.734375 C 891.015625 683.910156 892.125 688.175781 893.203125 692.304688 C 894.75 698.25 896.214844 703.871094 900.402344 710.933594 C 901.363281 712.5625 902.480469 714.265625 904.582031 715.640625 C 906.832031 717.113281 909.53125 717.75 912.332031 717.75 C 917.164062 717.75 922.285156 715.847656 925.855469 713.042969 C 932.324219 707.964844 935.027344 699.066406 933.898438 686.589844 Z M 707.4375 604.207031 C 707.835938 603.976562 709.4375 604.242188 712.640625 606.867188 C 719.664062 612.628906 728.214844 624.75 725.238281 633.65625 C 724.59375 635.597656 723.507812 637.097656 722.925781 637.902344 C 718.679688 643.804688 712.214844 645.765625 707.9375 647.066406 C 707.335938 647.246094 706.769531 647.417969 706.257812 647.585938 C 698.988281 649.964844 696.1875 653.636719 692.941406 657.890625 C 689.621094 662.242188 685.859375 667.179688 676.445312 672.703125 C 667.058594 678.214844 658.375 680.652344 649.910156 680.140625 C 644.617188 679.828125 640.042969 679.558594 638.710938 676.929688 C 637.324219 674.199219 640.640625 670.578125 645.660156 665.09375 C 649.796875 660.578125 654.925781 654.96875 659.976562 647.300781 C 660.3125 648.925781 660.78125 650.460938 661.234375 652.050781 C 661.796875 653.898438 662.296875 655.703125 663.085938 657.503906 C 663.609375 653.972656 662.460938 649.777344 660.210938 646.945312 C 660.242188 646.898438 660.273438 646.851562 660.304688 646.804688 C 660.429688 646.621094 660.550781 646.4375 660.667969 646.25 C 660.679688 646.238281 660.6875 646.226562 660.695312 646.210938 C 660.722656 646.171875 660.75 646.128906 660.773438 646.085938 C 662.023438 646.476562 663.25 646.675781 664.53125 646.890625 C 666.015625 647.105469 667.429688 647.308594 668.964844 647.257812 C 666.890625 645.59375 663.695312 644.960938 661.066406 645.625 C 662.738281 642.980469 664.296875 640.246094 665.703125 637.488281 C 666.144531 636.613281 666.574219 635.746094 666.980469 634.890625 C 667.183594 636.210938 667.515625 637.472656 667.855469 638.773438 C 668.316406 640.414062 668.761719 642 669.519531 643.570312 C 670.082031 640.519531 669.167969 636.8125 667.253906 634.304688 C 667.296875 634.214844 667.335938 634.128906 667.378906 634.042969 C 667.679688 633.382812 667.953125 632.773438 668.207031 632.199219 C 668.210938 632.195312 668.210938 632.191406 668.210938 632.191406 C 669.277344 632.609375 670.34375 632.828125 671.460938 633.042969 C 672.777344 633.257812 674.027344 633.429688 675.398438 633.324219 C 673.609375 631.765625 670.757812 631.140625 668.414062 631.730469 C 668.628906 631.234375 668.832031 630.765625 669.023438 630.320312 C 670.625 626.59375 671.429688 624.722656 674.179688 622.867188 C 680.113281 618.855469 687.421875 619.941406 693.871094 620.898438 C 699.859375 621.785156 705.027344 622.554688 707.796875 619.078125 C 710.324219 615.90625 708.984375 611.378906 708.003906 608.074219 C 707.53125 606.476562 706.941406 604.492188 707.4375 604.207031 Z M 613.722656 436.632812 C 614.261719 436.804688 615.054688 436.714844 615.527344 436.554688 C 620.230469 435.300781 625.070312 434.5625 629.925781 434.328125 C 646.621094 433.40625 663.109375 439.445312 675.074219 451.164062 C 679.855469 455.828125 683.902344 461.246094 687.015625 467.15625 C 684.890625 468.5625 682.625 469.722656 680.253906 470.667969 C 669.671875 474.808594 655.289062 480.027344 650.394531 492.019531 C 650.390625 492.019531 650.382812 492.023438 650.378906 492.023438 C 643.257812 495.5625 635.75 498.238281 627.996094 500.007812 C 634.269531 498.871094 640.414062 497.0625 646.328125 494.671875 C 647.804688 494.078125 649.273438 493.421875 650.710938 492.761719 C 651.664062 492.332031 652.832031 492.523438 653.601562 493.21875 L 654.484375 494.015625 C 662.671875 501.4375 669.554688 510.351562 674.320312 520.335938 C 675.328125 522.378906 676.269531 524.726562 677.085938 526.863281 C 677.339844 527.632812 677.992188 529.464844 678.203125 530.222656 C 680.441406 537.417969 681.421875 544.867188 682.851562 552.3125 C 685.699219 568.046875 692.09375 583.070312 701.371094 596.089844 C 703.0625 598.554688 704.90625 600.910156 706.777344 603.234375 C 705.574219 604.019531 706.148438 605.960938 706.875 608.40625 C 707.832031 611.636719 709.019531 615.652344 706.875 618.34375 C 704.527344 621.289062 699.671875 620.566406 694.046875 619.734375 C 687.4375 618.753906 679.953125 617.644531 673.667969 621.792969 C 669.625 608.597656 663.398438 596.070312 655.128906 585.007812 C 646.820312 573.742188 636.761719 563.933594 628.082031 553.003906 C 620.007812 543 613.179688 532.019531 607.84375 520.328125 C 625.574219 524.1875 644.964844 520.339844 659.816406 509.914062 C 643.90625 518.609375 625.824219 522.183594 607.808594 520.246094 C 607.378906 519.308594 606.960938 518.367188 606.550781 517.417969 C 604.90625 513.632812 603.425781 509.761719 602.066406 505.859375 C 601.441406 504.175781 602.769531 502.25 604.566406 502.222656 C 605.25 502.226562 606.480469 502.269531 607.167969 502.265625 C 614.171875 502.277344 621.167969 501.546875 627.996094 500.007812 C 620.277344 501.414062 612.378906 501.902344 604.546875 501.46875 C 603.707031 501.460938 602.925781 501.792969 602.3125 502.324219 C 600.109375 495.578125 598.769531 488.5 599.621094 481.457031 C 600.179688 477.164062 601.1875 472.941406 602.308594 468.753906 C 605.300781 457.761719 609.0625 447.019531 612.953125 436.308594 C 613.191406 436.453125 613.449219 436.5625 613.722656 436.632812 Z M 652.230469 176.789062 C 652.554688 178.878906 652.410156 181.042969 652.125 183.164062 C 650.101562 195.894531 642.90625 207.699219 632.972656 215.816406 C 631.367188 217.140625 629.472656 218.433594 627.730469 219.585938 C 620.738281 224.300781 613.445312 227.6875 605.941406 221.824219 C 604.285156 220.507812 602.84375 218.863281 601.742188 217.054688 L 601.328125 216.371094 L 600.953125 215.660156 C 600.855469 215.484375 600.679688 215.121094 600.605469 214.9375 C 600.164062 213.992188 599.777344 212.917969 599.511719 211.914062 C 598.804688 209.242188 598.742188 206.433594 599.277344 203.714844 C 599.558594 203.664062 599.839844 203.605469 600.125 203.550781 C 600.882812 203.378906 601.632812 203.175781 602.375 202.949219 C 602.355469 203.726562 602.378906 204.507812 602.445312 205.285156 C 602.679688 208.230469 603.675781 211.046875 605.015625 213.667969 C 608.429688 220.449219 613.785156 221.5 620.265625 218.148438 C 634.46875 211.15625 644.214844 196.601562 646.972656 181.210938 C 647.246094 178.324219 645.710938 175.59375 643.222656 174.171875 C 641.875 173.292969 640.667969 172.207031 639.644531 170.96875 C 645.265625 169.46875 651.105469 170.3125 652.230469 176.789062 Z M 578.054688 191.132812 C 576.535156 189.007812 575.070312 186.875 573.777344 184.640625 C 570.53125 179.085938 568.410156 172.832031 568.132812 166.382812 C 568.058594 163.789062 568.152344 161.078125 567.609375 158.503906 C 567 155.007812 565.648438 151.6875 564.8125 148.261719 C 565.023438 148.210938 565.257812 148.15625 565.425781 148.113281 C 565.710938 148.050781 565.972656 147.949219 566.257812 147.90625 C 568.953125 147.269531 571.703125 147.175781 574.457031 147.488281 C 575.570312 147.605469 576.679688 147.777344 577.84375 147.96875 C 574.140625 145.230469 568.351562 145.117188 564.785156 148.140625 C 564.703125 147.804688 564.625 147.464844 564.558594 147.125 C 564.011719 144.800781 563.617188 142.335938 563.398438 139.949219 C 563.6875 139.976562 563.976562 139.992188 564.273438 139.984375 C 566.269531 139.925781 568.160156 138.996094 569.914062 138.183594 C 572.042969 137.160156 574.132812 136.121094 576.269531 135.171875 C 580.53125 133.277344 584.921875 131.570312 589.304688 129.972656 C 593.667969 128.40625 598.128906 127.007812 602.757812 126.574219 C 606.636719 126.222656 610.902344 126.683594 613.84375 129.425781 C 615.863281 131.480469 617.152344 134.09375 618.585938 136.621094 C 619.148438 137.648438 619.703125 138.683594 620.257812 139.71875 C 621.9375 142.816406 623.46875 145.96875 624.960938 149.164062 C 625.460938 150.085938 627.09375 154.097656 628.289062 154.820312 C 628.300781 154.828125 628.3125 154.835938 628.328125 154.84375 C 628.351562 154.859375 628.378906 154.871094 628.40625 154.882812 C 628.425781 154.890625 628.449219 154.902344 628.472656 154.910156 C 628.496094 154.914062 628.515625 154.917969 628.539062 154.921875 C 628.558594 154.925781 628.578125 154.933594 628.597656 154.933594 C 628.640625 154.9375 628.683594 154.9375 628.722656 154.929688 C 628.761719 154.917969 628.800781 154.90625 628.835938 154.886719 C 629.519531 154.558594 629.558594 152.410156 629.738281 151.757812 C 629.9375 150.644531 630.207031 149.542969 630.710938 148.574219 C 631.203125 147.601562 631.921875 146.777344 632.824219 146.210938 C 634.515625 145.125 636.960938 144.65625 638.695312 145.761719 C 640.425781 146.925781 640.917969 149.332031 641.132812 151.316406 C 641.660156 157.265625 640.214844 163.886719 635.597656 167.988281 C 634.070312 169.257812 630.316406 172.160156 628.457031 170.429688 C 627.683594 169.644531 627.527344 168.402344 627.488281 167.324219 C 626.976562 172.964844 631.4375 171.980469 634.808594 169.785156 C 635.804688 169.175781 636.695312 168.460938 637.492188 167.664062 C 638.46875 170.207031 640.15625 172.503906 642.304688 174.199219 C 642.582031 174.425781 642.902344 174.660156 643.195312 174.867188 C 644.425781 175.722656 645.375 176.980469 645.824219 178.414062 C 646.085938 179.289062 646.179688 180.214844 646.058594 181.113281 C 645.921875 182.035156 645.632812 182.972656 645.398438 183.875 C 644.402344 187.535156 642.933594 191.21875 641.25 194.621094 C 638.210938 200.597656 634.152344 206.082031 629.140625 210.550781 C 626.296875 213.121094 623.09375 215.261719 619.703125 217.042969 C 616.433594 218.777344 612.527344 219.945312 609.25 217.597656 C 607.707031 216.53125 606.550781 214.96875 605.625 213.339844 C 604.683594 211.671875 603.84375 209.921875 603.292969 208.078125 C 602.796875 206.414062 602.503906 204.683594 602.417969 202.933594 C 612.214844 199.9375 620.472656 192.394531 624.796875 183.15625 C 619.445312 192.996094 609.523438 201.015625 598.296875 202.648438 C 591.789062 203.828125 587.332031 202.425781 582.933594 197.507812 L 582.933594 197.503906 C 581.160156 195.53125 579.628906 193.328125 578.054688 191.132812 Z M 787.816406 395.277344 C 787.542969 395.351562 787.265625 395.410156 786.984375 395.460938 C 780.609375 385.976562 773.921875 376.734375 767.351562 367.398438 C 757.003906 352.714844 744.328125 334.433594 733.953125 319.867188 C 750.039062 346.125 767.894531 371.273438 786.9375 395.464844 C 785.074219 395.773438 783.121094 395.542969 781.203125 395.578125 C 777.710938 395.554688 774.21875 396.617188 771.328125 398.585938 C 769.402344 399.839844 767.804688 401.597656 766.316406 403.292969 C 756.375 413.542969 734.035156 410.605469 721.042969 408.703125 C 712.554688 407.488281 704.195312 405.375 696.132812 402.425781 C 695.515625 401.703125 694.90625 400.972656 694.28125 400.242188 C 692.101562 397.671875 689.671875 395.304688 687.148438 393.089844 C 686.019531 392.054688 684.09375 390.4375 681.6875 388.585938 C 687.207031 391.285156 693.03125 393.535156 698.898438 395.394531 C 705.8125 397.621094 712.855469 399.699219 720.148438 400.195312 C 728.875 400.84375 737.839844 398.839844 745.324219 394.285156 C 737.554688 398 728.832031 399.675781 720.253906 398.867188 C 714.535156 398.394531 708.941406 396.984375 703.421875 395.414062 C 695.773438 393.277344 688.234375 390.859375 680.839844 387.9375 C 673.1875 382.148438 661.421875 374.5625 654.464844 375.09375 C 655.21875 371.539062 655.625 367.925781 655.714844 364.300781 C 659.828125 371 666.175781 376.632812 673.90625 378.609375 C 676.246094 379.261719 678.71875 379.761719 681.121094 380.125 C 696.414062 382.335938 711.90625 382.695312 727.328125 382.96875 C 714.433594 381.65625 701.433594 381.011719 688.542969 379.660156 C 683.734375 379.144531 678.917969 378.589844 674.230469 377.414062 C 673.570312 377.261719 672.589844 376.945312 671.929688 376.753906 C 665.265625 374.582031 659.851562 369.738281 655.71875 364.164062 C 655.8125 359.726562 655.425781 355.273438 654.597656 350.898438 C 659.28125 356.195312 665.59375 358.925781 672.742188 359.179688 C 679.972656 359.476562 687.160156 359.351562 694.339844 360.261719 C 699.101562 360.8125 703.835938 361.652344 708.558594 362.660156 C 703.992188 361.085938 699.273438 359.933594 694.492188 359.167969 C 687.335938 357.933594 680.027344 358.007812 672.8125 357.847656 C 669.988281 357.746094 667.195312 357.429688 664.519531 356.570312 C 660.789062 355.359375 657.4375 353.253906 654.542969 350.605469 C 652.5625 340.410156 648.175781 330.640625 641.894531 322.4375 C 648.628906 324.402344 655.429688 326.136719 662.277344 327.644531 C 671.882812 329.765625 681.585938 331.421875 691.367188 332.5 C 693.015625 332.703125 694.746094 332.886719 696.40625 332.667969 C 702.027344 332.070312 705.410156 328.007812 707.273438 323 C 709.757812 316.894531 711.347656 310.46875 712.339844 303.96875 C 713.269531 298.335938 713.726562 290.371094 714.375 284.578125 C 720.164062 293.761719 726.898438 302.378906 734.308594 310.328125 C 739.246094 315.660156 744.636719 320.566406 749.433594 326.007812 C 756.636719 334.164062 762.582031 343.320312 767.535156 353.027344 C 763.015625 342.085938 756.582031 331.863281 748.625 323.070312 C 744.332031 318.371094 739.660156 314.015625 735.277344 309.410156 C 727.761719 301.601562 720.867188 293.25 714.378906 284.554688 C 714.382812 284.515625 714.386719 284.472656 714.390625 284.433594 C 714.386719 284.46875 714.6875 280.832031 714.8125 279.316406 C 716.640625 279.269531 718.214844 277.640625 718.125 275.796875 C 717.179688 266.75 716.585938 257.664062 716.503906 248.5625 C 716.410156 240.484375 716.679688 232.394531 717.269531 224.335938 C 716.09375 234.386719 715.582031 244.515625 715.695312 254.640625 C 715.785156 261.472656 716.144531 268.316406 716.808594 275.121094 L 716.84375 275.5 C 716.847656 275.558594 716.859375 275.632812 716.859375 275.679688 C 716.976562 276.769531 716.140625 277.824219 715.0625 277.988281 C 714.917969 278.007812 714.765625 278.015625 714.628906 278.011719 L 713.121094 277.929688 C 700.1875 277.242188 687.160156 278.433594 674.550781 281.382812 C 674.390625 281.417969 674.054688 281.5 673.90625 281.53125 C 673.84375 281.546875 673.925781 281.527344 673.957031 281.535156 L 673.289062 282.203125 C 673.359375 282.117188 673.816406 281.550781 673.816406 281.550781 C 672.578125 281.84375 671.3125 280.875 671.234375 279.605469 C 670.953125 277.394531 670.535156 274.382812 670.089844 271.289062 C 686.542969 255.230469 700.003906 236.007812 709.5 215.074219 C 698.304688 235.09375 685.105469 253.882812 670.078125 271.207031 C 669.550781 267.550781 668.984375 263.792969 668.566406 261.121094 C 667.375 253.027344 665.980469 244.511719 664.480469 236.191406 C 667.792969 228.378906 673.058594 221.546875 679.867188 216.472656 C 680.84375 215.722656 681.863281 215.015625 682.890625 214.304688 C 673.746094 217.890625 666.457031 226.324219 664.4375 235.960938 C 664.027344 233.6875 663.609375 231.433594 663.183594 229.203125 C 665.816406 221.136719 669.820312 213.582031 675.34375 207.144531 C 680.867188 200.613281 687.722656 195.382812 695.289062 191.363281 C 691.242188 192.855469 687.402344 194.9375 683.859375 197.441406 C 673.324219 204.882812 665.570312 216.417969 663.167969 229.121094 C 662.824219 227.3125 662.476562 225.523438 662.125 223.757812 C 663.992188 235.851562 665.925781 249.042969 667.507812 261.273438 C 668.195312 266.199219 669.367188 274.957031 669.9375 279.769531 C 670.078125 281.742188 671.988281 283.222656 673.921875 282.90625 C 673.832031 286.003906 674.660156 289.292969 676.1875 291.976562 C 674.035156 291.875 671.871094 291.953125 669.726562 291.996094 C 660.222656 292.199219 650.6875 292.472656 641.210938 291.601562 C 636.921875 291.199219 632.730469 290.242188 628.496094 289.347656 C 624.847656 288.542969 621.273438 287.746094 617.691406 286.933594 C 614.515625 281.636719 609.980469 274.082031 607.023438 269.058594 C 603.34375 262.863281 599.808594 256.621094 596.265625 250.34375 L 596.265625 250.339844 L 596.175781 250.179688 C 596.070312 249.992188 595.960938 249.8125 595.855469 249.625 C 597.675781 244.070312 600.65625 241.746094 605.613281 238.542969 C 610.148438 235.445312 614.394531 231.835938 617.914062 227.605469 C 613.628906 231.011719 609.347656 234.320312 604.816406 237.375 C 603.691406 238.148438 602.554688 238.917969 601.449219 239.773438 C 598.363281 242.007812 596.226562 245.609375 595.699219 249.351562 C 593.378906 245.332031 590.632812 241.542969 587.785156 237.890625 C 586.277344 235.929688 584.722656 234.023438 583.398438 232.003906 C 582.054688 229.976562 581.027344 227.761719 580.089844 225.523438 C 579.015625 222.996094 578.132812 220.398438 577.632812 217.710938 C 576.335938 210.898438 577.917969 204.03125 581.828125 198.351562 C 583.292969 199.972656 584.941406 201.472656 586.90625 202.558594 C 590.917969 204.8125 594.960938 204.523438 599.234375 203.722656 C 598.746094 205.621094 598.542969 207.601562 598.691406 209.574219 C 598.875 212.0625 599.617188 214.46875 600.730469 216.691406 C 602.59375 220.265625 605.550781 223.359375 609.277344 224.972656 C 616.601562 228.199219 623.855469 223.859375 629.84375 219.828125 C 635.828125 215.878906 640.972656 210.6875 644.910156 204.703125 C 646.71875 201.972656 648.308594 198.992188 649.585938 195.984375 C 652.027344 190.09375 654.019531 183.054688 652.984375 176.652344 C 652.585938 174.609375 651.511719 172.617188 649.78125 171.425781 C 658.347656 172.230469 666.742188 174.195312 674.980469 176.621094 C 686.121094 179.921875 697.078125 184.8125 705.71875 192.71875 C 708.855469 195.691406 711.925781 198.882812 713.816406 202.804688 C 714.445312 204.101562 714.960938 205.460938 715.472656 206.820312 C 725.714844 237.15625 733.605469 268.957031 746.066406 298.507812 C 751.996094 312.691406 759.226562 326.316406 767.601562 339.195312 C 750.90625 319.984375 737.324219 298.214844 727.429688 274.746094 C 735.78125 299.410156 749.984375 322.167969 768.46875 340.523438 C 776.273438 352.359375 785.050781 363.550781 794.695312 373.949219 C 796.066406 375.800781 795.808594 377.703125 795.59375 379.855469 C 795.027344 385.179688 793.710938 393.566406 787.816406 395.277344 Z M 879.660156 648.554688 C 877.308594 640.828125 874.34375 633.289062 870.84375 626.011719 C 868.464844 621.019531 865.441406 616.265625 861.882812 612.03125 C 854.746094 603.582031 845.738281 597.015625 838.09375 589.097656 C 832.761719 583.691406 828.074219 577.667969 824.105469 571.199219 C 829.863281 569.703125 835.335938 566.90625 840.039062 563.246094 C 848.136719 556.898438 854.125 547.703125 856.269531 537.625 C 854.863281 541.464844 853.117188 545.140625 851.015625 548.585938 C 844.832031 558.851562 835.140625 566.671875 824.066406 571.128906 C 822.328125 568.292969 820.722656 565.367188 819.269531 562.375 C 819.042969 561.882812 818.597656 561.078125 818.460938 560.566406 C 818.121094 559.371094 818.441406 558.015625 819.273438 557.085938 C 819.730469 556.605469 820.285156 556.171875 820.765625 555.71875 C 824.832031 551.980469 828.476562 547.789062 831.542969 543.195312 C 828.246094 547.585938 824.496094 551.652344 820.308594 555.199219 L 819.523438 555.859375 C 818.480469 556.609375 817.816406 557.65625 817.585938 558.796875 C 815.097656 556.902344 812.628906 554.996094 810.21875 553.019531 C 802.644531 546.820312 795.304688 540.296875 788.664062 533.097656 C 779.746094 523.542969 772.09375 512.902344 765.46875 501.628906 C 782.210938 509.605469 801.589844 509.4375 817.023438 498.535156 C 819.253906 496.976562 821.359375 495.234375 823.320312 493.347656 C 823.984375 492.6875 824.6875 492.070312 825.25 491.308594 C 825.515625 490.945312 825.742188 490.554688 825.925781 490.144531 C 827.292969 496.398438 829.375 502.488281 831.851562 508.390625 C 834.492188 514.5625 837.597656 520.558594 841.382812 526.113281 C 840.523438 526.542969 839.800781 527.238281 839.371094 528.105469 C 837.308594 533.402344 834.730469 538.480469 831.542969 543.195312 C 834.945312 538.640625 837.683594 533.605469 839.910156 528.386719 C 840.707031 526.890625 842.542969 526.066406 844.179688 526.488281 C 844.359375 526.535156 844.523438 526.585938 844.71875 526.664062 L 845.855469 527.085938 C 855.589844 530.710938 864.71875 536.710938 870.707031 545.3125 C 872.953125 548.628906 874.488281 552.320312 875.796875 556.128906 C 878.847656 565.363281 881.621094 574.722656 884.960938 583.871094 C 888.261719 593.042969 891.835938 602.109375 895.566406 611.113281 C 897.457031 615.621094 899.484375 620.113281 902.398438 624.066406 C 904.988281 627.726562 907.964844 631.796875 910.082031 635.769531 C 909.472656 636.046875 909.515625 636.828125 909.570312 637.730469 C 909.628906 638.785156 909.714844 640.230469 908.886719 640.953125 C 908.152344 641.59375 907.144531 641.320312 905.273438 640.742188 C 903.382812 640.152344 901.027344 639.421875 898.019531 639.785156 C 897.15625 639.890625 892.6875 640.578125 889.320312 643.9375 C 887.46875 645.78125 886.609375 647.746094 885.914062 649.324219 C 885.242188 650.863281 884.855469 651.667969 884.148438 651.738281 C 883.242188 651.828125 882.355469 650.726562 881.636719 649.84375 C 880.960938 649.011719 880.375 648.296875 879.660156 648.554688 Z M 925.128906 712.117188 C 919.929688 716.195312 910.84375 718.328125 905.226562 714.65625 C 903.339844 713.417969 902.308594 711.84375 901.414062 710.335938 C 897.3125 703.414062 895.871094 697.871094 894.34375 692.007812 C 893.257812 687.84375 892.136719 683.539062 890.023438 678.292969 C 889.066406 675.910156 888.175781 674.023438 887.316406 672.195312 C 885.894531 669.183594 884.425781 666.066406 882.582031 660.585938 C 880.046875 653.054688 879.996094 650.578125 880.09375 649.855469 C 880.28125 650.046875 880.527344 650.34375 880.722656 650.585938 C 881.570312 651.632812 882.730469 653.054688 884.265625 652.910156 C 885.691406 652.769531 886.265625 651.457031 886.996094 649.800781 C 887.648438 648.3125 888.460938 646.460938 890.152344 644.773438 C 893.246094 641.683594 897.367188 641.050781 898.160156 640.953125 C 900.921875 640.621094 903.140625 641.3125 904.925781 641.867188 C 906.789062 642.445312 908.398438 642.945312 909.660156 641.839844 C 910.921875 640.738281 910.816406 638.886719 910.746094 637.664062 C 910.738281 637.519531 910.726562 637.355469 910.722656 637.199219 C 911.195312 637.769531 912.148438 639.234375 913.980469 643.011719 C 915.648438 646.449219 917.558594 650.777344 919.09375 654.257812 C 919.425781 655.015625 919.746094 655.738281 920.046875 656.417969 C 923.894531 665.109375 926.515625 670.46875 928.425781 674.382812 C 931.503906 680.679688 932.332031 682.371094 932.722656 686.699219 C 933.816406 698.746094 931.261719 707.300781 925.128906 712.117188 Z M 925.128906 712.117188 " fill-opacity="1" fill-rule="nonzero"/><path fill="#231f20" d="M 900.347656 656.734375 C 900.597656 656.820312 900.84375 656.902344 901.09375 656.988281 C 904.285156 658.101562 907.242188 659.632812 910.226562 661.261719 C 907.832031 658.6875 904.6875 656.710938 901.277344 655.550781 C 902.921875 653.535156 904.835938 651.679688 907.066406 649.960938 C 904.28125 651.050781 901.828125 652.863281 899.859375 655.117188 C 897.054688 654.367188 894.117188 654.164062 891.300781 654.636719 C 893.898438 655.042969 896.429688 655.546875 898.914062 656.28125 C 896.441406 659.570312 894.925781 663.609375 894.769531 667.683594 C 896.15625 663.570312 897.949219 659.953125 900.347656 656.734375 Z M 900.347656 656.734375 " fill-opacity="1" fill-rule="nonzero"/><path fill="#231f20" d="M 906.574219 669.777344 C 908.222656 667.761719 910.132812 665.90625 912.363281 664.1875 C 909.578125 665.277344 907.125 667.089844 905.15625 669.34375 C 902.347656 668.589844 899.410156 668.390625 896.601562 668.863281 C 899.199219 669.269531 901.726562 669.773438 904.214844 670.507812 C 901.738281 673.796875 900.222656 677.832031 900.070312 681.90625 C 901.453125 677.792969 903.246094 674.179688 905.644531 670.960938 C 905.894531 671.046875 906.144531 671.125 906.390625 671.214844 C 909.582031 672.324219 912.539062 673.855469 915.523438 675.488281 C 913.136719 672.914062 909.988281 670.9375 906.574219 669.777344 Z M 906.574219 669.777344 " fill-opacity="1" fill-rule="nonzero"/></svg>