<svg xmlns="http://www.w3.org/2000/svg" xmlns:xlink="http://www.w3.org/1999/xlink" width="1920" zoomAndPan="magnify" viewBox="0 0 1440 809.999993" height="1080" preserveAspectRatio="xMidYMid meet" version="1.0"><defs><clipPath id="82d54610ee"><path d="M 622.152344 64 L 817 64 L 817 747 L 622.152344 747 Z M 622.152344 64 " clip-rule="nonzero"/></clipPath></defs><path fill="#ecc19c" d="M 756.398438 186.996094 C 756.964844 186.503906 762.128906 181.921875 761.195312 177.097656 C 760.894531 175.542969 759.699219 172.632812 757.289062 170.714844 C 756.941406 170.4375 756.675781 170.269531 756.429688 170.097656 C 756.140625 169.898438 755.878906 169.695312 755.535156 169.308594 C 753.878906 167.472656 753.617188 165.113281 753.480469 163.808594 C 753.390625 162.980469 753.398438 162.34375 753.546875 160.308594 C 753.644531 158.988281 753.78125 157.28125 753.988281 155.261719 L 753.988281 155.257812 C 754.082031 155.144531 754.167969 155.035156 754.242188 154.945312 C 756.242188 152.46875 758.117188 149.269531 759.703125 140.09375 C 759.910156 138.890625 760.113281 137.582031 760.308594 136.160156 C 760.113281 137.582031 759.910156 138.890625 759.703125 140.09375 C 761.019531 139.519531 762.738281 138.472656 763.945312 136.609375 C 764.238281 136.152344 765.011719 134.871094 765.335938 129.753906 C 765.726562 123.753906 765.917969 119.996094 763.484375 117.921875 C 763.03125 117.535156 762.554688 117.269531 762.113281 117.078125 C 762.394531 112.617188 762.613281 107.523438 762.699219 101.902344 C 759.953125 102.375 757.976562 100.738281 752.015625 98.304688 C 748.171875 96.738281 723.683594 86.746094 712.90625 96.09375 C 711.089844 97.667969 710.238281 99.292969 709.015625 101.609375 C 703.53125 112.042969 706.164062 124.035156 705.554688 124.074219 C 704.984375 124.109375 705.160156 118.582031 701.367188 115.695312 C 701.164062 115.542969 700.335938 114.914062 699.328125 114.53125 C 698.546875 114.234375 697.660156 114.085938 696.871094 114.421875 C 694.28125 115.527344 694.53125 121.121094 694.6875 124.742188 C 694.839844 128.203125 694.9375 130.40625 696.386719 132.816406 C 698.367188 136.105469 702.398438 138.964844 704.792969 138.203125 C 705.464844 141.738281 706.03125 145.707031 706.351562 150.054688 C 706.609375 153.527344 706.667969 156.777344 706.609375 159.773438 C 706.5625 161.804688 705.730469 163.738281 704.277344 165.152344 C 703.484375 165.925781 702.695312 166.695312 701.90625 167.464844 C 702.050781 167.53125 702.199219 167.617188 702.34375 167.730469 C 702.890625 168.144531 703.117188 168.679688 703.15625 168.757812 C 703.597656 169.699219 712.542969 181.320312 726.539062 186.84375 C 729.585938 188.042969 747.167969 194.984375 756.398438 186.996094 Z M 761.527344 124.984375 C 761.679688 123.222656 761.832031 121.296875 761.976562 119.210938 C 761.832031 121.296875 761.679688 123.222656 761.527344 124.984375 C 761.460938 125.777344 761.390625 126.550781 761.320312 127.300781 C 761.390625 126.550781 761.460938 125.777344 761.527344 124.984375 Z M 761.210938 128.40625 C 761.140625 129.136719 761.070312 129.839844 760.996094 130.527344 C 761.066406 129.839844 761.140625 129.136719 761.210938 128.40625 Z M 761.210938 128.40625 " fill-opacity="1" fill-rule="nonzero"/><path fill="#ecc19c" d="M 658.730469 364.894531 C 658.210938 364.421875 657.742188 363.898438 657.324219 363.324219 C 655.484375 360.777344 653.816406 357.492188 653.53125 353.582031 C 653.003906 346.296875 657.800781 343.941406 660.457031 334.738281 C 661.367188 331.589844 661.445312 329.644531 660.828125 320.554688 C 660.144531 319.347656 659.367188 317.984375 658.523438 316.503906 C 654.507812 309.476562 653.390625 307.617188 653.429688 304.792969 C 653.472656 301.769531 654.792969 300.375 656.890625 296.238281 C 657.496094 295.046875 658.152344 293.652344 658.8125 292.046875 C 659.90625 289.398438 661.011719 286.171875 661.917969 282.351562 C 657.042969 281.601562 651.570312 280.445312 645.699219 278.648438 C 638.035156 276.308594 631.46875 273.421875 626.054688 270.59375 C 625.761719 273.34375 625.59375 275.667969 625.488281 277.429688 C 624.78125 289.179688 625.921875 292.84375 625.566406 300.546875 C 625.53125 301.25 625.4375 303.023438 625.792969 305.335938 C 626.191406 307.933594 626.933594 309.808594 627.21875 310.53125 C 634.722656 329.503906 635.308594 334.375 642.59375 348.058594 C 646.046875 354.539062 650.65625 362.339844 656.714844 370.816406 C 657.375 368.558594 658.078125 366.570312 658.730469 364.894531 Z M 658.730469 364.894531 " fill-opacity="1" fill-rule="nonzero"/><path fill="#ecc19c" d="M 795.496094 286.59375 C 791.496094 287.136719 787.765625 287.371094 784.371094 287.410156 C 782.835938 297.667969 783.484375 309.84375 785.179688 329.511719 C 789.199219 321.792969 793.207031 313.335938 797.015625 304.148438 C 799.761719 297.523438 802.160156 291.109375 804.261719 284.960938 C 801.546875 285.609375 798.617188 286.171875 795.496094 286.59375 Z M 795.496094 286.59375 " fill-opacity="1" fill-rule="nonzero"/><path fill="#ecc19c" d="M 784.960938 572.542969 C 785.367188 565.671875 786.003906 563.59375 785.878906 556.855469 C 785.710938 547.886719 784.433594 543.617188 784.25 533.53125 C 784.199219 530.867188 784.238281 528.464844 784.316406 526.410156 C 782.175781 526.96875 779.957031 527.492188 777.664062 527.964844 C 761.109375 531.363281 746.550781 530.921875 735.660156 529.566406 C 735.617188 535.757812 735.835938 541.050781 736.105469 545.210938 C 736.609375 553.085938 736.863281 557.027344 738.003906 560.964844 C 739.433594 565.894531 740.816406 567.59375 741.535156 572.507812 C 742.265625 577.464844 741.675781 581.292969 741.402344 583.238281 C 739.8125 594.453125 739.128906 610.523438 740.109375 620.488281 C 741.089844 630.410156 743.476562 631.75 746.96875 644.488281 C 749.4375 653.492188 751.988281 666.460938 751.941406 683.253906 C 755.796875 681.769531 761.371094 680.21875 768.15625 680.207031 C 772.808594 680.199219 776.796875 680.917969 779.894531 681.75 C 780.054688 681.792969 780.203125 681.851562 780.339844 681.925781 C 780.433594 676.289062 780.675781 668.417969 781.328125 659.089844 C 783.628906 626.292969 787.632812 623.695312 786.558594 604.289062 C 785.921875 592.824219 784.128906 586.613281 784.960938 572.542969 Z M 784.960938 572.542969 " fill-opacity="1" fill-rule="nonzero"/><path fill="#ecc19c" d="M 656.382812 520.191406 C 655.867188 525.253906 655.21875 531.921875 654.550781 539.710938 C 652.996094 557.847656 653.109375 561.351562 651.988281 569.171875 C 649.414062 587.09375 646.210938 586.78125 643.753906 601.84375 C 641.714844 614.332031 642.667969 625.109375 644.566406 646.660156 C 645.292969 654.882812 646.453125 665.445312 648.40625 677.757812 C 652.566406 676.546875 658.03125 675.449219 664.464844 675.417969 C 667.9375 675.402344 671.082031 675.703125 673.820312 676.132812 C 673.871094 676.140625 673.921875 676.152344 673.972656 676.164062 C 675.007812 672.125 676.230469 667.246094 677.570312 661.734375 C 683.507812 637.273438 686.472656 625.042969 687.25 614.785156 C 688.210938 602.09375 686.808594 599.179688 689.023438 587.941406 C 690.898438 578.417969 693.445312 572.71875 695.871094 566.023438 C 699.019531 557.355469 702.753906 544.871094 705.09375 528.453125 C 700.894531 528.132812 696.554688 527.707031 692.101562 527.148438 C 679.023438 525.515625 667.074219 523.035156 656.382812 520.191406 Z M 656.382812 520.191406 " fill-opacity="1" fill-rule="nonzero"/><path fill="#cbdb2a" d="M 814.582031 727.460938 C 814.746094 727.710938 817.078125 731.363281 815.925781 735.03125 C 814.035156 741.042969 804.246094 742.476562 800.128906 743.078125 C 789.09375 744.691406 779.332031 741.316406 772.664062 737.949219 C 771.5 737.359375 770.207031 737.082031 768.902344 737.164062 C 763.574219 737.484375 755.738281 737.527344 749.3125 735.652344 C 748.363281 735.375 747.167969 734.976562 746.144531 733.921875 C 743.191406 730.871094 744.5 725.300781 746.019531 719.195312 C 746.296875 718.074219 748.332031 710.019531 750.230469 708.578125 C 750.441406 708.417969 750.652344 708.335938 750.859375 708.363281 C 752.019531 708.496094 751.515625 711.671875 753.128906 712.402344 C 756.519531 713.9375 762.046875 701.351562 774.398438 697.546875 C 778.601562 696.25 781.050781 696.753906 782.265625 697.203125 C 782.449219 697.269531 782.601562 697.335938 782.730469 697.390625 C 785.832031 698.785156 786.742188 701.589844 789.0625 705.851562 C 792.449219 712.070312 795.277344 717.265625 800.039062 720.539062 C 806.359375 724.882812 811.386719 722.605469 814.582031 727.460938 Z M 814.582031 727.460938 " fill-opacity="1" fill-rule="nonzero"/><path fill="#cbdb2a" d="M 678.589844 712.335938 C 680.703125 715.433594 678.714844 717.269531 680.015625 725.839844 C 681.277344 734.15625 683.59375 735.234375 682.488281 738.335938 C 679.890625 745.613281 664.839844 746.089844 662.085938 746.175781 C 656.519531 746.351562 647.085938 746.648438 643.339844 740.8125 C 641.292969 737.613281 641.769531 733.859375 642.53125 727.875 C 643.171875 722.84375 643.652344 719.082031 646.402344 715.460938 L 646.402344 715.457031 C 651.019531 709.382812 658.441406 708.417969 661.273438 708.046875 C 663.054688 707.816406 674.5 706.324219 678.589844 712.332031 Z M 678.589844 712.335938 " fill-opacity="1" fill-rule="nonzero"/><path fill="#004aad" d="M 781.460938 683.953125 C 781.515625 683.101562 781.066406 682.316406 780.339844 681.925781 C 780.203125 681.851562 780.054688 681.792969 779.894531 681.75 C 776.796875 680.917969 772.808594 680.199219 768.15625 680.207031 C 761.371094 680.21875 755.796875 681.769531 751.941406 683.253906 C 751.695312 683.351562 751.453125 683.445312 751.21875 683.539062 C 750.335938 683.898438 749.800781 684.808594 749.910156 685.757812 C 750.292969 689.074219 750.5625 692.667969 750.636719 696.503906 C 750.71875 700.804688 750.554688 704.84375 750.230469 708.578125 C 750.441406 708.417969 750.652344 708.335938 750.859375 708.363281 C 752.019531 708.496094 751.515625 711.671875 753.128906 712.402344 C 756.519531 713.9375 762.046875 701.351562 774.398438 697.546875 C 778.601562 696.25 781.050781 696.753906 782.265625 697.203125 C 782.25 697.105469 782.230469 697.007812 782.210938 696.910156 C 781.285156 691.890625 781.226562 687.449219 781.460938 683.953125 Z M 781.460938 683.953125 " fill-opacity="1" fill-rule="nonzero"/><path fill="#004aad" d="M 674.273438 694.347656 C 673.484375 690.707031 673.054688 685.308594 675.070312 678.09375 C 675.308594 677.246094 674.804688 676.382812 673.972656 676.164062 C 673.921875 676.152344 673.871094 676.140625 673.820312 676.132812 C 671.082031 675.703125 667.9375 675.402344 664.464844 675.417969 C 658.03125 675.449219 652.566406 676.546875 648.40625 677.757812 C 648.394531 677.757812 648.386719 677.761719 648.375 677.765625 C 647.617188 677.984375 647.15625 678.738281 647.292969 679.515625 C 648.222656 684.824219 648.910156 691.53125 648.574219 699.253906 C 648.304688 705.394531 647.449219 710.84375 646.402344 715.457031 C 651.019531 709.382812 658.441406 708.417969 661.273438 708.046875 C 663.054688 707.816406 674.5 706.324219 678.589844 712.332031 C 678.519531 711.199219 678.398438 709.992188 678.214844 708.726562 C 677.253906 702.082031 675.320312 699.160156 674.273438 694.347656 Z M 674.273438 694.347656 " fill-opacity="1" fill-rule="nonzero"/><path fill="#004aad" d="M 815.203125 279.023438 C 813.425781 241.578125 811.699219 214.203125 811.046875 206.433594 C 810.875 204.40625 810.460938 200.121094 807.515625 196.25 C 805.238281 193.257812 802.460938 191.84375 800.519531 190.882812 C 779.515625 180.480469 774.070312 179.742188 768.265625 175.433594 C 767.625 174.957031 766.089844 173.78125 763.796875 172.617188 C 762.902344 172.160156 761.890625 171.707031 760.769531 171.292969 C 759.117188 170.691406 757.617188 170.324219 756.429688 170.097656 C 756.675781 170.269531 756.941406 170.4375 757.289062 170.714844 C 759.699219 172.632812 760.894531 175.542969 761.195312 177.097656 C 762.128906 181.921875 756.964844 186.503906 756.398438 186.996094 C 747.167969 194.984375 729.585938 188.042969 726.539062 186.84375 C 712.542969 181.320312 703.597656 169.699219 703.15625 168.757812 C 703.117188 168.679688 702.890625 168.144531 702.34375 167.730469 C 702.199219 167.617188 702.050781 167.53125 701.90625 167.464844 C 701.550781 167.292969 701.230469 167.238281 701.074219 167.21875 C 700.390625 167.132812 699.824219 167.335938 699.550781 167.445312 C 696.988281 168.496094 681.171875 177.554688 671.535156 180.796875 C 665.769531 182.738281 659.554688 183.542969 652.621094 188.742188 C 651.246094 189.777344 646.808594 193.289062 641.214844 204.089844 C 635.859375 214.429688 633.902344 222.832031 631.574219 232.472656 C 629.785156 239.871094 627 251.199219 623.230469 265.777344 C 622.792969 267.476562 623.5625 269.265625 625.113281 270.097656 C 625.421875 270.257812 625.738281 270.425781 626.054688 270.59375 C 631.46875 273.421875 638.035156 276.308594 645.699219 278.648438 C 651.570312 280.445312 657.042969 281.601562 661.917969 282.351562 C 661.011719 286.171875 659.90625 289.398438 658.8125 292.046875 C 659.125 296.644531 659.507812 302.109375 659.949219 308.253906 C 660.320312 313.433594 660.617188 317.417969 660.828125 320.554688 C 661.445312 329.644531 661.367188 331.589844 660.457031 334.738281 C 657.800781 343.941406 653.003906 346.296875 653.53125 353.582031 C 653.816406 357.492188 655.484375 360.777344 657.324219 363.324219 C 657.742188 363.898438 658.210938 364.421875 658.730469 364.894531 C 658.078125 366.570312 657.375 368.558594 656.714844 370.816406 C 656.285156 372.273438 655.871094 373.84375 655.5 375.515625 C 653.976562 382.367188 654.007812 386.9375 653.464844 395.683594 C 653.234375 399.414062 652.863281 404.386719 652.257812 410.339844 C 652.15625 411.316406 652.050781 412.320312 651.9375 413.347656 C 651.828125 414.355469 652.238281 415.308594 652.960938 415.925781 C 650.539062 429.726562 648.375 444.316406 646.605469 459.652344 C 644.445312 478.398438 643.109375 496.234375 642.382812 513.007812 C 642.304688 514.785156 643.421875 516.394531 645.117188 516.925781 C 648.703125 518.046875 652.457031 519.144531 656.382812 520.191406 C 667.074219 523.039062 679.023438 525.515625 692.101562 527.148438 C 696.554688 527.707031 700.894531 528.132812 705.09375 528.453125 C 709.675781 528.796875 714.101562 529.011719 718.351562 529.125 C 720.160156 529.171875 721.757812 527.972656 722.230469 526.230469 C 723.292969 522.3125 724.695312 517.230469 726.40625 511.324219 C 727.757812 516.410156 729.105469 521.496094 730.457031 526.582031 C 730.839844 528.007812 732.03125 529.070312 733.496094 529.277344 C 734.199219 529.378906 734.921875 529.472656 735.660156 529.566406 C 746.550781 530.921875 761.109375 531.363281 777.664062 527.964844 C 779.957031 527.492188 782.175781 526.96875 784.316406 526.410156 C 790.292969 524.84375 795.652344 522.972656 800.351562 521.054688 C 801.75 520.480469 802.640625 519.105469 802.621094 517.59375 C 802.359375 498.714844 801.09375 478.167969 798.304688 456.253906 C 797.007812 446.078125 795.46875 436.300781 793.757812 426.945312 C 794.863281 426.207031 795.410156 424.75 794.875 423.378906 C 793.644531 420.214844 793.425781 417.605469 793.519531 415.648438 C 793.675781 412.203125 794.765625 411.304688 795.148438 407.089844 C 795.566406 402.503906 794.585938 400.109375 793.925781 395.683594 C 792.863281 388.605469 793.75 383.984375 793.925781 380.40625 C 794.207031 374.597656 792.875 365.847656 786.359375 352.449219 C 786.886719 348.554688 786.601562 345.4375 786.453125 343.839844 C 785.988281 338.652344 785.558594 333.898438 785.179688 329.515625 L 785.179688 329.511719 C 783.484375 309.84375 782.835938 297.667969 784.371094 287.410156 C 787.765625 287.371094 791.496094 287.136719 795.496094 286.59375 C 798.617188 286.171875 801.546875 285.609375 804.261719 284.960938 C 807.4375 284.207031 810.320312 283.335938 812.894531 282.449219 C 814.339844 281.949219 815.273438 280.550781 815.203125 279.023438 Z M 815.203125 279.023438 " fill-opacity="1" fill-rule="nonzero"/><path fill="#231f20" d="M 751.132812 114.75 C 749.699219 114.75 748.539062 116.464844 748.539062 118.574219 C 748.539062 120.6875 749.699219 122.402344 751.132812 122.402344 C 752.566406 122.402344 753.726562 120.6875 753.726562 118.574219 C 753.726562 116.464844 752.566406 114.75 751.132812 114.75 Z M 751.132812 114.75 " fill-opacity="1" fill-rule="nonzero"/><path fill="#231f20" d="M 725.148438 113.632812 C 723.714844 113.632812 722.554688 115.34375 722.554688 117.457031 C 722.554688 119.570312 723.714844 121.28125 725.148438 121.28125 C 726.582031 121.28125 727.746094 119.570312 727.746094 117.457031 C 727.746094 115.34375 726.582031 113.632812 725.148438 113.632812 Z M 725.148438 113.632812 " fill-opacity="1" fill-rule="nonzero"/><path fill="#231f20" d="M 727.328125 108.550781 C 730.296875 109.175781 732.949219 110.597656 735.394531 112.449219 C 733.179688 109.410156 729.546875 107.324219 725.785156 106.945312 C 721.757812 106.515625 717.488281 108.164062 714.90625 111.261719 C 718.589844 108.816406 722.980469 107.605469 727.328125 108.550781 Z M 727.328125 108.550781 " fill-opacity="1" fill-rule="nonzero"/><path fill="#231f20" d="M 761.375 113.6875 C 759.179688 110.300781 755.132812 108.15625 751.085938 108.105469 C 747.304688 108.035156 743.449219 109.675781 740.890625 112.429688 C 743.539062 110.882812 746.339844 109.785156 749.363281 109.515625 C 753.789062 109.09375 758.007812 110.816406 761.375 113.6875 Z M 761.375 113.6875 " fill-opacity="1" fill-rule="nonzero"/><path fill="#231f20" d="M 742.058594 132.453125 C 741.867188 130.933594 741.140625 129.625 740.789062 128.15625 C 739.75 124.414062 739.542969 120.53125 739.308594 116.636719 C 738.457031 120.53125 738.429688 124.636719 739.476562 128.515625 C 739.679688 129.246094 739.925781 129.972656 740.210938 130.671875 C 741.003906 132.539062 741.699219 134.636719 739.226562 135.546875 C 738.359375 135.886719 737.378906 136.011719 736.394531 136.125 C 739.175781 136.710938 742.496094 136.003906 742.058594 132.453125 Z M 742.058594 132.453125 " fill-opacity="1" fill-rule="nonzero"/><path fill="#231f20" d="M 727.925781 145.230469 C 733.152344 148.878906 740.644531 149.199219 746.136719 145.957031 C 739.734375 147.308594 734.207031 147.078125 727.925781 145.230469 Z M 727.925781 145.230469 " fill-opacity="1" fill-rule="nonzero"/><path fill="#231f20" d="M 703.070312 131.101562 C 702.238281 130.238281 701.195312 129.085938 701.703125 127.84375 C 701.851562 127.5 702.171875 127.164062 702.496094 126.726562 C 703.191406 125.863281 703.335938 124.59375 703.058594 123.546875 C 702.628906 121.625 701.070312 120.742188 699.316406 121.816406 C 698.429688 122.367188 697.800781 123.210938 697.417969 124.121094 C 698.15625 122.929688 699.371094 121.808594 700.808594 121.882812 C 702.195312 122.046875 702.496094 123.886719 702.273438 125.019531 C 702.078125 126.03125 701.269531 126.417969 700.746094 127.378906 C 699.882812 129.023438 701.050781 130.800781 702.164062 131.949219 C 702.367188 132.183594 702.757812 132.574219 702.972656 132.875 C 702.558594 132.921875 702.105469 132.832031 701.671875 132.710938 C 698.984375 131.867188 697.847656 128.835938 697.203125 126.308594 C 696.449219 123.550781 696.613281 120.570312 697.414062 117.867188 C 697.601562 117.359375 697.847656 116.671875 698.484375 116.75 C 700.21875 117.125 701.976562 119.734375 702.976562 121.160156 C 701.144531 117.246094 697.277344 112.570312 695.949219 119.757812 C 695.136719 123.003906 695.605469 126.464844 696.875 129.53125 C 697.691406 131.476562 699.132812 133.414062 701.300781 134.003906 C 702.164062 134.203125 703.320312 134.457031 704.101562 133.773438 C 704.527344 133.371094 704.433594 132.691406 704.132812 132.289062 C 703.835938 131.847656 703.417969 131.460938 703.070312 131.101562 Z M 703.070312 131.101562 " fill-opacity="1" fill-rule="nonzero"/><path fill="#231f20" d="M 661.488281 712.925781 C 658.023438 714.59375 654.964844 717.109375 652.785156 720.25 C 656.191406 717.269531 659.816406 715 663.742188 713.449219 C 667.855469 714.550781 671.738281 716.40625 675.464844 719.082031 C 672.957031 716.113281 669.601562 713.933594 665.921875 712.667969 C 668.828125 711.742188 671.894531 711.1875 675.15625 711.007812 C 671.324219 710.261719 667.324219 710.679688 663.648438 712.015625 C 659.890625 711.132812 655.921875 711.171875 652.242188 712.257812 C 655.460938 712.125 658.535156 712.339844 661.488281 712.925781 Z M 661.488281 712.925781 " fill-opacity="1" fill-rule="nonzero"/><path fill="#231f20" d="M 666.460938 721.96875 C 669.367188 721.039062 672.4375 720.484375 675.699219 720.304688 C 671.867188 719.558594 667.867188 719.976562 664.191406 721.3125 C 660.433594 720.433594 656.460938 720.46875 652.785156 721.554688 C 655.996094 721.421875 659.074219 721.640625 662.03125 722.222656 C 658.5625 723.894531 655.507812 726.40625 653.324219 729.546875 C 656.730469 726.570312 660.355469 724.300781 664.28125 722.746094 C 668.398438 723.847656 672.285156 725.707031 676.007812 728.378906 C 673.5 725.410156 670.144531 723.234375 666.460938 721.96875 Z M 666.460938 721.96875 " fill-opacity="1" fill-rule="nonzero"/><g clip-path="url(#82d54610ee)"><path fill="#231f20" d="M 815.058594 727.148438 C 813.191406 724.316406 810.761719 723.753906 807.949219 723.101562 C 805.699219 722.578125 803.148438 721.988281 800.359375 720.070312 C 795.707031 716.875 792.859375 711.640625 789.5625 705.578125 C 789.140625 704.800781 788.769531 704.085938 788.410156 703.390625 C 786.824219 700.316406 785.675781 698.09375 782.960938 696.871094 C 782.824219 696.8125 782.65625 696.742188 782.460938 696.667969 C 782.371094 696.636719 782.28125 696.605469 782.1875 696.578125 C 781.648438 692.378906 781.523438 688.164062 781.90625 683.957031 C 782.011719 682.882812 781.339844 681.820312 780.363281 681.382812 C 780.910156 667.773438 781.867188 654.152344 783.667969 640.65625 C 784.40625 635.042969 785.414062 629.398438 786.304688 623.800781 C 787.953125 614.117188 787.5 604.1875 786.386719 594.472656 C 785.65625 588.019531 785.167969 581.585938 785.433594 575.097656 C 785.542969 570.230469 786.238281 565.378906 786.359375 560.496094 C 786.605469 552.328125 784.957031 544.28125 784.507812 536.15625 C 784.34375 533.132812 784.28125 530.101562 784.3125 527.074219 C 789.183594 525.824219 793.984375 524.285156 798.667969 522.449219 L 800.011719 521.917969 C 800.492188 521.726562 801.011719 521.535156 801.4375 521.226562 C 802.613281 520.417969 803.324219 519.011719 803.300781 517.589844 C 803.300781 517.589844 803.289062 516.871094 803.289062 516.871094 C 803.253906 515.476562 803.25 513.945312 803.199219 512.558594 C 802.566406 485.734375 799.816406 458.953125 794.863281 432.582031 C 794.539062 430.898438 794.210938 429.21875 793.875 427.539062 C 794.171875 427.367188 794.445312 427.160156 794.675781 426.90625 C 795.71875 425.824219 795.890625 424.214844 795.277344 422.878906 C 794.242188 420.171875 793.765625 417.203125 794.152344 414.324219 C 794.328125 412.941406 794.816406 411.636719 795.132812 410.261719 C 795.464844 408.855469 795.632812 407.421875 795.691406 405.988281 C 795.855469 403.128906 795.207031 400.285156 794.65625 397.515625 C 794.125 394.769531 793.8125 391.984375 793.777344 389.1875 C 793.671875 384.960938 794.523438 380.738281 794.121094 376.507812 C 793.390625 368.347656 790.332031 360.605469 786.773438 353.292969 C 786.78125 353.242188 786.792969 353.191406 786.800781 353.140625 C 787.132812 351.167969 787.28125 349.160156 787.257812 347.160156 C 787.246094 346.160156 787.191406 345.160156 787.109375 344.167969 C 786.726562 339.398438 786.238281 333.867188 785.773438 328.5 C 793.726562 314.980469 799.933594 300.394531 804.167969 285.292969 C 806.59375 284.75 808.996094 284.113281 811.367188 283.371094 C 812.257812 283.058594 813.234375 282.882812 814.015625 282.328125 C 815.074219 281.597656 815.703125 280.304688 815.65625 279.019531 L 815.628906 278.335938 L 815.578125 276.96875 C 814.890625 259.683594 814.035156 242.347656 812.992188 225.082031 C 812.605469 218.875 812.164062 212.191406 811.660156 205.972656 C 811.101562 198.910156 807.527344 193.460938 801.042969 190.503906 C 796.117188 188.113281 791.160156 185.789062 786.132812 183.617188 C 781.152344 181.382812 775.964844 179.59375 771.15625 177.015625 C 769.976562 176.375 768.824219 175.578125 767.738281 174.796875 C 764.59375 172.570312 760.988281 170.992188 757.210938 170.242188 C 756.664062 169.859375 756.140625 169.574219 755.710938 169.0625 C 753.882812 167.023438 753.503906 164.101562 753.613281 161.453125 C 753.65625 160.304688 753.820312 158.035156 753.925781 156.390625 C 754.121094 156.160156 754.316406 155.921875 754.507812 155.683594 L 754.660156 155.496094 C 756.097656 153.746094 757.242188 151.710938 758.003906 149.589844 C 759.109375 146.425781 759.835938 143.167969 760.367188 139.875 C 761.878906 139.308594 763.269531 138.308594 764.246094 137.007812 C 766.046875 134.597656 766.085938 128.792969 766.195312 125.757812 C 766.246094 122.597656 765.878906 118.382812 762.4375 117.179688 C 762.664062 112.265625 762.761719 107.34375 762.703125 102.441406 C 769.355469 101.289062 773.152344 92.023438 773.972656 86.105469 C 774.382812 83.117188 774.585938 78.480469 772.191406 76.230469 C 772.113281 76.15625 772.035156 76.089844 771.957031 76.023438 C 771.953125 76.023438 771.953125 76.023438 771.953125 76.023438 C 771.035156 75.191406 769.707031 75.222656 768.550781 75.355469 C 767.371094 75.488281 766.203125 75.648438 765.027344 75.691406 C 763.863281 75.734375 762.679688 75.707031 761.519531 75.570312 C 755.316406 75.015625 750.96875 71 745.628906 68.308594 C 743.496094 67.21875 741.207031 66.351562 738.890625 65.765625 C 728.558594 63.167969 716.523438 64.585938 707.785156 70.945312 C 704.847656 73.109375 702.535156 76.089844 700.910156 79.3125 C 698.460938 83.992188 697.722656 88.042969 697.917969 93.265625 C 698.128906 100.175781 698.601562 107.066406 699.273438 113.945312 C 697.523438 113.335938 695.753906 113.660156 694.789062 115.871094 C 694.003906 117.730469 693.945312 119.683594 693.921875 121.632812 C 693.929688 123.539062 694.035156 125.378906 694.164062 127.28125 C 694.328125 130.316406 695.371094 133.023438 697.53125 135.195312 C 699.238281 137.078125 702.621094 139.1875 704.8125 138.429688 C 705.359375 144.785156 705.882812 151.097656 705.984375 157.46875 C 705.984375 158.101562 706.046875 159.71875 706 160.316406 C 705.910156 161.832031 705.359375 163.296875 704.417969 164.519531 C 704.039062 165.015625 703.570312 165.492188 703.164062 165.976562 C 702.855469 166.332031 702.554688 166.6875 702.253906 167.050781 C 701.363281 166.59375 700.269531 166.542969 699.328125 166.984375 C 691.929688 170.722656 684.800781 174.953125 677.25 178.394531 C 675.570312 179.164062 673.273438 180.15625 671.535156 180.796875 C 674.007812 180.019531 676.898438 178.882812 679.273438 177.84375 C 686.199219 174.894531 692.945312 171.210938 699.71875 167.929688 C 700.824219 167.433594 702.167969 167.851562 702.644531 168.96875 C 702.664062 169.011719 702.695312 169.058594 702.71875 169.105469 L 702.882812 169.375 C 703.980469 170.964844 705.285156 172.402344 706.59375 173.8125 C 710.910156 178.363281 715.921875 182.265625 721.457031 185.230469 C 727.019531 188.121094 733.089844 190.121094 739.292969 191.046875 C 745.460938 191.929688 752.617188 191.503906 757.316406 186.898438 C 758.835938 185.394531 760.160156 183.699219 761.019531 181.714844 C 762.332031 178.777344 761.777344 176.113281 760.136719 173.445312 C 759.394531 172.234375 758.4375 171.140625 757.285156 170.292969 C 759.632812 170.863281 761.886719 171.738281 764 172.882812 C 768.851562 179.425781 765.058594 186.832031 759.132812 191.167969 C 758.730469 191.425781 758.335938 191.691406 757.933594 191.941406 C 757.933594 191.941406 756.675781 192.625 756.675781 192.625 C 755.648438 193.097656 754.4375 193.640625 753.359375 193.96875 C 741.230469 197.808594 725.839844 194.613281 715.003906 188.359375 C 707.800781 184.292969 701.792969 178.238281 697.914062 170.902344 C 699.707031 174.921875 702.179688 178.6875 705.21875 181.90625 C 707.578125 184.417969 710.300781 186.640625 713.179688 188.523438 C 724.558594 195.78125 739.894531 199.261719 753.023438 195.316406 C 756.84375 194.144531 760.449219 192.015625 762.980469 188.878906 C 765.191406 186.210938 766.863281 182.84375 766.683594 179.296875 C 766.566406 176.941406 765.566406 174.699219 764.054688 172.910156 C 765.257812 173.566406 766.410156 174.300781 767.503906 175.121094 C 767.863281 175.390625 768.226562 175.671875 768.601562 175.941406 L 769.15625 176.34375 C 772.75 178.816406 776.835938 180.421875 780.785156 182.199219 C 787.449219 185.132812 794.035156 188.242188 800.535156 191.527344 C 805.589844 193.894531 808.953125 197.945312 809.996094 203.453125 C 810.554688 206.457031 810.6875 211.1875 810.949219 214.257812 C 812.246094 234.253906 813.492188 256.925781 814.636719 277.015625 L 814.714844 278.378906 L 814.753906 279.058594 C 814.808594 280.054688 814.34375 281.0625 813.53125 281.652344 C 813.203125 281.902344 812.804688 282.0625 812.414062 282.1875 C 811.984375 282.339844 811.554688 282.488281 811.125 282.632812 C 802.550781 285.515625 793.550781 287.121094 784.5 287.40625 C 784.609375 286.535156 784.738281 285.648438 784.855469 284.828125 C 785.320312 283.113281 786.070312 280.601562 786.597656 279.097656 C 791.089844 266.570312 795.886719 253.554688 800.34375 240.996094 C 802.125 238.1875 803.828125 235.335938 805.203125 232.296875 C 808.089844 225.707031 808.953125 218.277344 807.945312 211.1875 C 807.660156 216.839844 807.058594 222.433594 805.402344 227.84375 C 804.46875 231.085938 803.039062 234.136719 801.59375 237.1875 C 801.851562 236.277344 802.078125 235.355469 802.246094 234.414062 C 802.570312 232.644531 802.667969 230.847656 802.6875 229.085938 C 802.582031 220.34375 803.453125 211.660156 805.605469 203.140625 C 804.484375 206.460938 803.613281 209.871094 802.953125 213.324219 C 802.121094 217.644531 801.703125 222.039062 801.570312 226.433594 C 801.496094 228.9375 801.488281 231.75 800.980469 234.175781 C 800.296875 237.554688 798.996094 240.820312 797.832031 244.074219 C 796.644531 247.367188 795.449219 250.664062 794.300781 253.972656 C 792.015625 260.601562 789.851562 267.257812 787.753906 273.945312 C 786.808594 277.109375 785.40625 281.332031 784.824219 284.699219 C 784.261719 287.234375 783.769531 289.976562 783.542969 292.523438 C 782.367188 304.859375 783.550781 317.261719 784.503906 329.570312 C 784.792969 333.269531 785.875 343.382812 786.058594 347.183594 C 786.109375 349.121094 786.007812 351.058594 785.742188 352.976562 C 785.472656 354.894531 785.023438 356.792969 784.40625 358.625 C 783.800781 360.457031 782.882812 362.203125 782.117188 364.035156 C 780.988281 366.71875 780.074219 369.488281 779.382812 372.304688 C 779.355469 369.773438 779.152344 367.101562 778.929688 364.585938 C 777.617188 351.585938 775.203125 338.710938 772.296875 325.980469 C 773.964844 338.113281 776.007812 350.261719 777.347656 362.433594 C 777.792969 366.601562 778.199219 370.785156 778.125 374.96875 C 777.550781 383.417969 781.355469 391.09375 787.542969 396.667969 C 782.019531 390.691406 778.59375 383.246094 779.335938 375.015625 C 779.371094 374.457031 779.378906 373.6875 779.386719 373.054688 C 780.292969 370.054688 781.390625 367.125 782.734375 364.308594 C 783.566406 362.519531 784.550781 360.796875 785.253906 358.929688 C 785.9375 357.117188 786.425781 355.242188 786.765625 353.335938 C 790.109375 360.695312 793.03125 368.429688 793.609375 376.546875 C 793.828125 379.363281 793.492188 382.132812 793.238281 384.941406 C 792.867188 389.175781 793.066406 393.480469 793.835938 397.667969 C 794.347656 400.421875 794.9375 403.144531 794.753906 405.945312 C 794.679688 407.324219 794.507812 408.703125 794.179688 410.035156 C 793.84375 411.402344 793.339844 412.757812 793.144531 414.179688 C 792.730469 417.0625 793.121094 420.015625 794.0625 422.753906 C 794.164062 423.078125 794.3125 423.417969 794.410156 423.738281 C 794.894531 425.132812 793.820312 426.75 792.351562 426.847656 C 746.632812 428.289062 700.761719 424.742188 655.789062 416.382812 C 655.5 416.328125 654.511719 416.148438 654.261719 416.09375 C 653.535156 415.917969 652.910156 415.390625 652.59375 414.714844 C 652.296875 414.148438 652.355469 413.480469 652.421875 412.875 C 652.507812 412.054688 652.585938 411.234375 652.664062 410.410156 C 654.894531 410.796875 658.890625 411.460938 660.878906 411.777344 C 675.152344 414.097656 689.808594 415.949219 704.191406 417.605469 C 733.132812 421.015625 762.367188 422.417969 791.480469 420.742188 C 778.578125 420.863281 765.574219 420.6875 752.636719 420.128906 C 729.109375 414.933594 707.171875 403.453125 689.625 386.890625 C 693.855469 391.570312 698.5625 395.84375 703.605469 399.667969 C 717.296875 410.046875 733.542969 417.148438 750.484375 420.03125 C 746.6875 419.855469 742.894531 419.644531 739.113281 419.398438 C 713.277344 417.65625 686.648438 414.453125 660.929688 411.417969 C 660.929688 411.417969 654.378906 410.605469 652.664062 410.390625 C 653.054688 406.304688 653.386719 402.199219 653.640625 398.113281 C 654.164062 389.695312 654.019531 381.164062 656.226562 372.960938 C 656.847656 370.457031 657.601562 367.988281 658.488281 365.5625 C 659.421875 366.398438 660.492188 367.082031 661.71875 367.542969 C 667.441406 369.691406 673.136719 372.019531 678.726562 374.484375 C 693.648438 381.113281 708.125 388.757812 722.285156 396.886719 C 725.113281 398.527344 727.929688 400.1875 730.738281 401.863281 C 728.007812 400.066406 725.25 398.300781 722.46875 396.578125 C 711.351562 389.660156 699.894531 383.277344 688.144531 377.5 C 679.707031 373.328125 671.023438 369.621094 662.222656 366.28125 C 660.441406 365.570312 658.867188 364.367188 657.769531 362.785156 C 655.921875 360.21875 654.585938 357.253906 654.242188 354.105469 L 654.1875 353.519531 L 654.167969 352.933594 C 654.167969 352.589844 654.125 352.101562 654.179688 351.765625 C 654.207031 351.425781 654.210938 350.9375 654.296875 350.609375 L 654.386719 350.035156 C 654.386719 350.035156 654.527344 349.472656 654.527344 349.472656 C 655.324219 346.371094 657.339844 343.6875 658.726562 340.78125 C 659.644531 338.933594 660.394531 336.957031 660.972656 334.972656 C 661.851562 332.175781 661.804688 329.164062 661.652344 326.289062 C 661.574219 324.648438 661.457031 323.015625 661.328125 321.382812 C 660.625 312.792969 659.710938 301.953125 658.917969 293.214844 C 660.324219 289.722656 661.347656 286.074219 661.914062 282.371094 C 662.007812 282.382812 662.101562 282.394531 662.191406 282.40625 C 662.136719 283.796875 662.105469 285.179688 662.117188 286.558594 C 662.128906 295.820312 665.039062 304.542969 666.773438 313.492188 C 668.089844 320.78125 668.304688 328.265625 667.734375 335.644531 C 667.460938 338.9375 667.027344 342.21875 666.433594 345.46875 C 667.910156 339.007812 668.644531 332.378906 668.660156 325.75 C 668.714844 319.105469 667.777344 312.464844 666.226562 306.011719 C 664.746094 299.59375 663.421875 293.144531 663.40625 286.546875 C 663.386719 278.441406 664.691406 270 665.597656 261.941406 C 666.160156 257.058594 666.84375 252.066406 667.582031 247.214844 C 668.53125 240.652344 669.972656 234.203125 670.652344 227.582031 C 671.84375 214.253906 666.820312 200.929688 659.097656 190.238281 C 665.878906 200.460938 670.3125 212.660156 669.808594 225.035156 C 669.664062 227.460938 669.3125 229.960938 668.898438 232.355469 C 667.761719 238.867188 666.484375 245.371094 665.5625 251.925781 C 665.101562 255.058594 664.636719 258.632812 664.261719 261.777344 C 663.945312 264.484375 663.597656 267.230469 663.273438 269.988281 C 658.714844 254.75 657.046875 238.789062 658.386719 222.929688 C 655.195312 238.707031 656.921875 255.550781 663.230469 270.367188 C 663.070312 271.746094 662.917969 273.132812 662.777344 274.515625 C 657.789062 266.785156 653.84375 258.429688 651.414062 249.558594 C 648.808594 240.359375 647.898438 230.796875 648.203125 221.238281 C 646.542969 232.578125 647.859375 244.335938 651.765625 255.101562 C 654.3125 262.167969 658.027344 268.863281 662.761719 274.6875 C 662.503906 277.253906 662.300781 279.820312 662.195312 282.371094 C 659.347656 281.875 656.515625 281.289062 653.707031 280.601562 C 643.925781 278.179688 634.453125 274.523438 625.59375 269.726562 C 624.988281 269.425781 624.457031 268.96875 624.128906 268.378906 C 623.714844 267.660156 623.585938 266.789062 623.789062 265.988281 C 623.824219 265.820312 623.882812 265.617188 623.925781 265.433594 L 624.214844 264.304688 C 626.3125 256.140625 630.1875 240.859375 632.226562 232.632812 C 633.277344 228.261719 634.433594 223.394531 635.753906 219.132812 C 637.542969 213.214844 639.949219 207.496094 642.90625 202.0625 C 645.523438 197.386719 648.410156 192.6875 652.570312 189.238281 C 655.605469 186.851562 659.019531 184.996094 662.667969 183.6875 C 665.585938 182.621094 668.613281 181.851562 671.535156 180.796875 C 668.558594 181.71875 665.511719 182.363281 662.550781 183.347656 C 658.117188 184.816406 653.769531 186.992188 650.324219 190.210938 C 647.765625 192.660156 645.671875 195.546875 643.78125 198.523438 C 639.839844 204.828125 636.753906 211.660156 634.523438 218.75 C 630.523438 232.625 626.628906 249.96875 623.058594 264.003906 L 622.78125 265.136719 C 622.738281 265.332031 622.691406 265.503906 622.644531 265.714844 C 622.269531 267.25 622.808594 268.945312 623.988281 269.984375 C 624.226562 270.191406 624.53125 270.414062 624.8125 270.558594 C 625.199219 270.761719 625.589844 270.960938 625.976562 271.160156 C 625.109375 277.640625 624.722656 284.214844 624.960938 290.753906 C 625.03125 292.734375 625.132812 295.492188 625.105469 297.453125 C 625.101562 299.683594 624.804688 302.007812 625.054688 304.230469 C 625.265625 306.519531 625.828125 308.785156 626.675781 310.910156 C 628.300781 315.078125 629.882812 319.265625 631.40625 323.480469 C 633.71875 329.785156 635.972656 336.191406 638.976562 342.230469 C 643.929688 352.269531 649.890625 361.828125 656.648438 370.730469 C 654.792969 376.851562 653.828125 383.242188 653.550781 389.636719 C 653.121094 396.664062 652.578125 403.683594 651.800781 410.683594 L 651.5625 412.78125 L 651.503906 413.304688 C 651.484375 413.507812 651.476562 413.710938 651.492188 413.910156 C 651.542969 414.910156 652.078125 415.835938 652.871094 416.429688 C 651.824219 422.015625 650.84375 427.613281 649.949219 433.222656 C 645.691406 459.597656 642.984375 486.226562 641.761719 512.914062 C 641.625 514.828125 642.832031 516.75 644.636719 517.429688 C 648.5 518.65625 652.390625 519.792969 656.308594 520.84375 C 655.671875 526.328125 654.769531 534.703125 654.191406 539.980469 C 653.109375 549.855469 652.769531 559.824219 651.308594 569.652344 C 650.695312 573.738281 649.890625 577.773438 648.730469 581.722656 C 648.03125 584.105469 647.179688 586.40625 646.351562 588.765625 C 642.996094 598.21875 641.789062 608.371094 641.980469 618.367188 C 642.125 625.023438 642.695312 631.648438 643.304688 638.265625 C 644.453125 651.277344 645.980469 664.261719 648.292969 677.121094 C 648.289062 677.121094 648.285156 677.121094 648.28125 677.125 C 647.335938 677.316406 646.4375 678.421875 646.671875 679.621094 C 648.761719 691.0625 648.683594 702.855469 646.621094 714.296875 C 646.394531 714.558594 646.167969 714.828125 645.953125 715.113281 L 645.835938 715.269531 C 643.09375 718.96875 642.59375 722.875 641.96875 727.804688 C 641.207031 733.792969 640.703125 737.746094 642.863281 741.117188 C 646.050781 746.089844 652.988281 746.816406 658.550781 746.816406 C 659.828125 746.816406 661.03125 746.777344 662.101562 746.742188 C 668.894531 746.53125 680.644531 745.179688 683.019531 738.527344 C 683.679688 736.683594 683.230469 735.417969 682.550781 733.503906 C 681.960938 731.847656 681.15625 729.582031 680.574219 725.753906 C 679.984375 721.855469 680.085938 719.347656 680.15625 717.515625 C 680.238281 715.433594 680.292969 714.015625 679.265625 712.335938 C 679.265625 712.335938 679.269531 712.335938 679.273438 712.335938 L 679.265625 712.335938 C 679.230469 712.277344 679.195312 712.222656 679.160156 712.164062 L 679.058594 712.015625 C 678.902344 711.78125 678.726562 711.558594 678.546875 711.347656 C 678.425781 709.035156 678.121094 706.730469 677.601562 704.46875 C 677.027344 701.890625 676.089844 699.394531 675.347656 696.875 C 674.617188 694.371094 674.203125 691.792969 674.148438 689.199219 C 674.054688 685.453125 674.691406 681.710938 675.703125 678.109375 C 675.964844 677.007812 675.21875 675.824219 674.136719 675.546875 C 677.386719 663.636719 680.566406 651.460938 683.433594 639.46875 C 684.894531 633.308594 686.28125 627.128906 687.222656 620.859375 C 688.160156 614.578125 688.328125 608.210938 688.335938 601.878906 C 688.246094 594.015625 689.734375 586.273438 691.96875 578.765625 C 693.335938 574.234375 695.113281 569.871094 696.664062 565.382812 C 700.058594 555.667969 702.492188 545.644531 704.109375 535.488281 C 704.464844 533.371094 704.742188 531.238281 705.011719 529.105469 C 709.609375 529.441406 714.214844 529.65625 718.820312 529.746094 C 720.75 529.613281 722.4375 528.128906 722.871094 526.257812 C 723.808594 522.808594 725.691406 516.175781 726.695312 512.480469 C 727.667969 516.417969 728.949219 521.632812 729.882812 525.261719 C 730.117188 526.109375 730.292969 527.339844 730.890625 528.027344 C 731.496094 528.855469 732.453125 529.417969 733.472656 529.570312 C 734.199219 529.683594 734.925781 529.789062 735.652344 529.886719 C 735.429688 537.910156 735.746094 545.945312 736.363281 553.945312 C 736.503906 555.570312 736.699219 557.203125 737.015625 558.820312 C 737.613281 562.023438 738.929688 565.109375 739.972656 568.152344 C 740.949219 571.1875 741.3125 574.402344 741.289062 577.585938 C 741.265625 580.816406 740.597656 584 740.253906 587.210938 C 739.054688 598.558594 738.433594 610.039062 739.554688 621.417969 C 739.734375 623.050781 739.988281 624.683594 740.367188 626.292969 C 741.09375 629.503906 742.375 632.542969 743.511719 635.601562 C 748.273438 648.523438 750.820312 662.214844 751.648438 675.949219 C 751.78125 678.132812 751.863281 680.382812 751.921875 682.582031 C 751.671875 682.675781 751.421875 682.773438 751.175781 682.875 C 749.914062 683.300781 749.113281 684.601562 749.324219 685.910156 L 749.390625 686.460938 C 750.261719 693.574219 750.507812 700.726562 750.253906 707.90625 C 750.128906 707.960938 750.007812 708.035156 749.886719 708.125 C 748.003906 709.558594 746.167969 716.246094 745.46875 719.058594 C 744.011719 724.917969 742.503906 730.976562 745.738281 734.316406 C 746.933594 735.550781 748.378906 735.972656 749.152344 736.199219 C 754.207031 737.671875 761.050781 738.203125 768.9375 737.730469 C 770.125 737.65625 771.328125 737.90625 772.410156 738.453125 C 779.796875 742.1875 787.140625 744.066406 794.320312 744.066406 C 796.296875 744.066406 798.261719 743.921875 800.210938 743.636719 C 804.476562 743.015625 814.46875 741.554688 816.464844 735.203125 C 817.710938 731.238281 815.164062 727.3125 815.058594 727.148438 Z M 764.941406 122.472656 C 765.042969 124.613281 764.832031 126.8125 764.703125 129.019531 C 764.632812 130.128906 764.570312 131.214844 764.453125 132.296875 C 764.25 133.878906 764.15625 135.492188 763.253906 136.8125 C 762.511719 137.953125 761.53125 138.867188 760.40625 139.640625 C 760.949219 136.199219 761.289062 132.722656 761.632812 129.273438 C 761.976562 125.289062 762.246094 121.285156 762.433594 117.273438 C 764.191406 118.429688 764.871094 120.394531 764.941406 122.472656 Z M 760.816406 177.546875 C 760.957031 178.820312 760.664062 180.125 760.121094 181.324219 C 759.152344 183.414062 757.589844 185.289062 755.804688 186.753906 C 752.394531 189.542969 747.847656 190.273438 743.527344 190.125 C 728.519531 189.265625 714.300781 181.40625 704.722656 169.945312 C 704.355469 169.476562 703.957031 169.003906 703.644531 168.496094 C 703.367188 167.882812 702.910156 167.414062 702.363281 167.105469 C 702.722656 166.820312 703.074219 166.535156 703.425781 166.246094 C 703.933594 165.820312 704.433594 165.429688 704.917969 164.964844 C 705.878906 164.015625 706.582031 162.78125 706.9375 161.449219 C 707.285156 160.144531 707.226562 158.796875 707.273438 157.46875 C 707.355469 151.050781 706.667969 144.582031 704.851562 138.417969 C 705.808594 138.066406 706.53125 137.160156 706.769531 135.425781 C 706.523438 136.382812 705.898438 137.542969 705.074219 137.871094 C 702.164062 138.996094 697.976562 134.671875 696.765625 132.300781 C 695.414062 129.90625 695.476562 127.089844 695.347656 124.402344 C 695.328125 122.136719 694.714844 115.527344 697.441406 114.851562 C 698.660156 114.617188 699.921875 115.292969 700.929688 115.960938 C 702.832031 117.222656 703.941406 119.328125 704.621094 121.46875 C 704.882812 122.242188 705.042969 123.054688 705.328125 123.820312 C 705.378906 123.914062 705.425781 124.070312 705.554688 124.074219 C 705.570312 124.074219 705.582031 124.0625 705.59375 124.042969 C 705.597656 124.042969 705.597656 124.039062 705.601562 124.039062 C 705.601562 124.035156 705.601562 124.03125 705.605469 124.03125 C 705.628906 123.988281 705.636719 123.929688 705.644531 123.882812 C 705.65625 123.8125 705.660156 123.738281 705.664062 123.664062 C 705.675781 123.429688 705.667969 122.554688 705.652344 122.335938 C 705.617188 120.621094 705.542969 118.75 705.640625 117.046875 C 705.839844 111.210938 707.210938 105.378906 710.242188 100.363281 C 715.441406 90.460938 729.277344 92.347656 738.40625 94.535156 C 744.082031 95.921875 749.621094 97.894531 754.972656 100.257812 C 757.183594 101.164062 759.375 102.554688 761.863281 102.546875 C 762.136719 102.527344 762.40625 102.492188 762.671875 102.449219 C 762.140625 113.632812 761.3125 124.851562 759.757812 135.941406 C 758.667969 142.4375 757.820312 149.699219 753.46875 154.832031 L 753.316406 155.003906 L 753.316406 155.015625 C 751.71875 156.945312 749.898438 158.671875 747.863281 160.097656 C 744.726562 162.28125 740.988281 163.652344 737.160156 163.761719 C 725.878906 163.644531 712.554688 159.296875 708.332031 147.804688 C 707.421875 145.34375 706.96875 142.726562 706.890625 140.101562 C 706.816406 142.734375 707.136719 145.402344 707.953125 147.933594 C 711.296875 158.585938 722.800781 163.714844 733.164062 164.773438 C 735.804688 165.128906 738.617188 165.203125 741.234375 164.523438 C 746.203125 163.378906 750.570312 160.296875 753.859375 156.464844 C 753.597656 158.738281 753.210938 161.460938 753.273438 163.527344 C 753.425781 166.417969 754.289062 169.226562 756.886719 170.824219 C 758.933594 172.464844 760.417969 174.953125 760.816406 177.546875 Z M 784.910156 318.109375 C 784.199219 308.667969 783.472656 299.183594 784.253906 289.730469 C 784.308594 289.023438 784.398438 288.226562 784.5 287.410156 C 791.089844 287.449219 797.6875 286.734375 804.121094 285.300781 C 798.234375 299.730469 792.113281 314.011719 785.75 328.234375 C 785.445312 324.691406 785.152344 321.226562 784.910156 318.109375 Z M 659.859375 311.648438 C 659.859375 311.648438 660.15625 316.625 660.324219 319.480469 C 659.074219 316.863281 657.378906 313.609375 656.148438 311.230469 C 655.039062 309.019531 653.824219 306.707031 654.128906 304.175781 C 654.363281 301.644531 656.011719 299.542969 657.078125 297.28125 C 657.730469 295.992188 658.332031 294.671875 658.875 293.328125 C 659.140625 298.769531 659.585938 306.59375 659.859375 311.648438 Z M 637.375 335.585938 C 634.074219 327.28125 631.269531 318.722656 627.871094 310.4375 C 626.601562 307.398438 626 304.125 626.121094 300.839844 C 626.15625 299.859375 626.175781 298.414062 626.164062 297.453125 C 626.101562 292.949219 625.597656 288.507812 625.589844 284.015625 C 625.539062 279.738281 625.71875 275.457031 626.015625 271.179688 C 634.738281 275.632812 644.042969 278.941406 653.625 280.953125 C 656.367188 281.535156 659.132812 282.007812 661.914062 282.371094 C 660.304688 287.324219 658.429688 292.128906 655.9375 296.683594 C 654.917969 298.644531 653.59375 300.480469 653.023438 302.671875 C 652.171875 306.121094 653.511719 308.851562 655.21875 311.734375 C 656.847656 314.496094 658.5625 317.179688 660.347656 319.832031 C 660.402344 320.792969 660.441406 321.441406 660.441406 321.441406 C 660.589844 324.667969 660.871094 327.960938 660.613281 331.164062 C 660.484375 332.730469 660.039062 334.320312 659.523438 335.804688 C 659.003906 337.324219 658.390625 338.8125 657.660156 340.25 C 655.832031 343.90625 653.042969 347.398438 652.875 351.691406 C 652.71875 354.230469 653.238281 356.820312 654.207031 359.160156 C 655.214844 361.519531 656.570312 363.84375 658.472656 365.546875 C 657.789062 367.246094 657.183594 368.972656 656.652344 370.722656 C 649.277344 359.554688 642.480469 347.957031 637.375 335.585938 Z M 679.023438 717.472656 C 678.949219 719.347656 678.847656 721.917969 679.453125 725.925781 C 680.050781 729.859375 680.878906 732.1875 681.480469 733.886719 C 682.140625 735.746094 682.472656 736.683594 681.953125 738.144531 C 680.382812 742.542969 673.136719 745.261719 662.066406 745.609375 C 656.578125 745.78125 647.390625 746.074219 643.820312 740.503906 C 641.882812 737.480469 642.339844 733.890625 643.09375 727.945312 C 643.734375 722.929688 644.195312 719.304688 646.855469 715.804688 L 646.929688 715.703125 C 651.40625 709.910156 658.617188 708.96875 661.347656 708.609375 C 665.191406 708.109375 674.46875 707.5 678.042969 712.539062 L 678.121094 712.65625 C 679.152344 714.167969 679.105469 715.34375 679.023438 717.472656 Z M 674.46875 677.9375 L 674.375 678.300781 C 673.09375 683.144531 672.660156 688.28125 673.589844 693.226562 C 674.292969 697.164062 676.113281 700.753906 677.160156 704.582031 C 677.773438 706.765625 678.199219 709.003906 678.472656 711.257812 C 674.269531 706.394531 665.089844 706.976562 661.195312 707.484375 C 658.476562 707.839844 651.5 708.757812 646.726562 714.171875 C 649.484375 702.882812 649.84375 691.015625 647.933594 679.558594 L 647.910156 679.40625 C 647.832031 678.964844 648.121094 678.496094 648.554688 678.382812 C 655.664062 676.308594 664.144531 675.53125 671.820312 676.511719 C 672.359375 676.589844 673.230469 676.671875 673.742188 676.769531 C 674.269531 676.847656 674.621094 677.425781 674.46875 677.9375 Z M 703.367188 537.761719 C 701.441406 547.015625 698.910156 556.148438 695.664062 565.027344 C 693.460938 570.9375 691.007812 576.832031 689.472656 582.984375 C 687.894531 589.132812 686.917969 595.511719 686.976562 601.867188 C 686.96875 605.023438 686.96875 608.160156 686.800781 611.308594 C 686.660156 614.421875 686.371094 617.59375 685.949219 620.679688 C 683.023438 639.140625 678.109375 657.28125 674.109375 675.542969 C 674.066406 675.53125 674.023438 675.519531 673.980469 675.511719 C 673.625 675.449219 673.304688 675.402344 672.972656 675.351562 C 670.003906 674.917969 667 674.722656 664 674.75 C 658.765625 674.777344 653.132812 675.683594 648.316406 677.113281 C 646.523438 664.183594 645.3125 651.195312 644.359375 638.179688 C 643.648438 628.28125 642.757812 618.367188 643.601562 608.472656 C 644.207031 601.925781 645.414062 595.414062 647.609375 589.199219 C 648.703125 586.089844 649.847656 582.921875 650.636719 579.667969 C 652.207031 573.171875 653.070312 566.546875 653.519531 559.894531 C 654.132812 550.277344 654.835938 539.78125 655.632812 530.117188 C 655.816406 527.824219 656.144531 523.484375 656.335938 520.851562 C 672.242188 525.113281 688.558594 527.898438 704.984375 529.105469 C 704.484375 531.996094 703.957031 534.886719 703.367188 537.761719 Z M 733.554688 528.988281 C 732.21875 528.839844 731.050781 527.828125 730.691406 526.53125 C 729.492188 522.335938 728 516.796875 726.71875 512.390625 C 726.757812 512.253906 726.792969 512.121094 726.828125 511.992188 C 731.054688 496.453125 736.652344 481.324219 740.472656 465.671875 C 743.078125 454.242188 744.5625 442.574219 744.929688 430.859375 C 744.023438 448.417969 740.554688 465.710938 734.875 482.328125 C 731.257812 493.4375 727.65625 504.632812 724.507812 515.894531 C 724.195312 516.980469 721.925781 525.046875 721.667969 525.929688 C 721.328125 527.425781 719.90625 528.542969 718.375 528.484375 C 693.707031 527.804688 669.144531 523.714844 645.578125 516.398438 C 644.351562 516.101562 643.355469 515.140625 643.085938 513.898438 C 642.945312 513.359375 643.042969 512.425781 643.054688 511.875 C 643.925781 491.421875 645.582031 471.003906 648.03125 450.679688 C 649.386719 439.234375 651.035156 427.820312 652.878906 416.4375 C 653.222656 416.691406 653.609375 416.886719 654.027344 416.992188 C 654.238281 417.046875 654.398438 417.070312 654.574219 417.105469 L 655.613281 417.308594 C 699.902344 426.03125 745.195312 429.640625 790.308594 428.074219 C 790.632812 428.070312 791.59375 428.027344 791.894531 428.023438 C 792.566406 428.042969 793.257812 427.882812 793.855469 427.550781 C 795.050781 434.90625 796.160156 442.277344 797.089844 449.671875 C 799.894531 471.492188 801.53125 493.460938 801.90625 515.457031 L 801.929688 516.890625 C 801.929688 517.242188 801.964844 517.855469 801.890625 518.191406 C 801.714844 519.21875 800.976562 520.101562 800.003906 520.464844 L 799.839844 520.53125 L 799.507812 520.667969 C 797.3125 521.550781 795.054688 522.402344 792.816406 523.160156 C 776.574219 528.722656 759.234375 530.9375 742.109375 529.816406 C 740.203125 529.683594 738.300781 529.53125 736.402344 529.320312 C 735.453125 529.226562 734.503906 529.097656 733.554688 528.988281 Z M 746.886719 642.183594 C 746.214844 639.828125 745.464844 637.492188 744.632812 635.191406 C 743.527344 632.113281 742.296875 629.128906 741.625 626.007812 C 741.28125 624.445312 741.03125 622.863281 740.863281 621.269531 C 740.339844 616.453125 740.292969 611.59375 740.359375 606.75 C 740.484375 598.648438 741.03125 590.558594 742.125 582.53125 C 742.34375 580.902344 742.476562 579.25 742.480469 577.597656 C 742.480469 574.289062 742.050781 570.960938 740.976562 567.820312 C 740.4375 566.253906 739.792969 564.765625 739.253906 563.25 C 738.121094 560.214844 737.460938 557.085938 737.136719 553.867188 C 736.332031 545.902344 735.785156 537.898438 735.667969 529.890625 C 751.847656 532.105469 768.457031 531.140625 784.28125 527.082031 C 784.117188 530.109375 784.066406 533.140625 784.148438 536.167969 C 784.324219 544.285156 785.75 552.339844 785.375 560.46875 C 785.320312 562.082031 785.191406 563.6875 785.027344 565.300781 C 783.835938 574.988281 783.871094 584.90625 785.0625 594.609375 C 785.738281 601.050781 786.238281 607.511719 785.992188 613.980469 C 785.746094 620.457031 784.484375 626.835938 783.554688 633.25 C 781.191406 649.171875 780.339844 665.304688 780.34375 681.371094 C 780.195312 681.308594 780.039062 681.257812 779.878906 681.222656 C 776.542969 680.261719 773.09375 679.730469 769.621094 679.582031 C 763.613281 679.363281 757.554688 680.386719 751.953125 682.570312 C 751.984375 680.375 752.003906 678.117188 751.929688 675.9375 C 751.65625 664.539062 750.015625 653.15625 746.886719 642.183594 Z M 750.574219 686.332031 C 750.566406 686.179688 750.5 685.6875 750.503906 685.550781 C 750.5 685.21875 750.605469 684.890625 750.804688 684.625 C 751.070312 684.242188 751.488281 684.109375 751.902344 683.957031 C 760.726562 680.542969 770.574219 679.9375 779.753906 682.234375 C 780.503906 682.402344 781.039062 683.128906 781.015625 683.90625 C 780.957031 685.390625 780.953125 686.890625 781.019531 688.378906 C 781.15625 691.132812 781.511719 693.875 782.117188 696.554688 C 780.03125 695.898438 777.316406 696.050781 774.234375 697.003906 C 767.019531 699.226562 762.15625 704.3125 758.605469 708.027344 C 756.28125 710.457031 754.445312 712.378906 753.363281 711.886719 C 752.761719 711.613281 752.535156 710.683594 752.335938 709.863281 C 752.101562 708.902344 751.863281 707.90625 750.929688 707.800781 C 750.726562 707.773438 750.519531 707.804688 750.316406 707.882812 C 751.222656 700.753906 751.269531 693.492188 750.574219 686.332031 Z M 815.382812 734.863281 C 813.597656 740.535156 804.101562 741.921875 800.046875 742.515625 C 791.257812 743.804688 782.128906 742.097656 772.921875 737.441406 C 771.800781 736.875 770.570312 736.582031 769.339844 736.582031 C 769.183594 736.582031 769.027344 736.585938 768.871094 736.597656 C 761.109375 737.0625 754.402344 736.546875 749.472656 735.109375 C 748.539062 734.835938 747.464844 734.464844 746.554688 733.527344 C 743.757812 730.640625 745.1875 724.890625 746.570312 719.332031 C 747.601562 715.199219 749.265625 710.023438 750.570312 709.03125 C 750.683594 708.949219 750.761719 708.921875 750.800781 708.925781 C 750.957031 708.992188 751.144531 709.761719 751.234375 710.128906 C 751.480469 711.148438 751.789062 712.417969 752.894531 712.921875 C 754.710938 713.742188 756.585938 711.78125 759.425781 708.8125 C 762.890625 705.1875 767.636719 700.222656 774.566406 698.085938 C 777.582031 697.15625 780.175781 697.035156 782.070312 697.734375 L 782.074219 697.734375 C 782.238281 697.796875 782.382812 697.859375 782.5 697.910156 C 784.847656 698.96875 785.863281 700.933594 787.402344 703.914062 C 787.761719 704.613281 788.136719 705.335938 788.566406 706.121094 C 791.933594 712.3125 794.84375 717.65625 799.714844 721.003906 C 802.683594 723.046875 805.34375 723.664062 807.691406 724.207031 C 810.375 724.828125 812.496094 725.320312 814.109375 727.773438 C 814.207031 727.921875 816.46875 731.40625 815.382812 734.863281 Z M 815.382812 734.863281 " fill-opacity="1" fill-rule="nonzero"/></g><path fill="#231f20" d="M 779.695312 707.324219 C 782.089844 707.625 784.382812 708.125 786.777344 708.578125 C 784.945312 707.265625 782.664062 706.402344 780.292969 706.027344 C 781.25 704.890625 782.328125 703.789062 783.550781 702.628906 C 781.710938 703.21875 780.019531 704.371094 778.707031 705.851562 C 776.570312 705.714844 774.421875 705.972656 772.53125 706.65625 C 774.304688 706.816406 776.023438 706.921875 777.753906 707.097656 C 776.492188 708.996094 775.828125 711.261719 776.128906 713.542969 C 776.9375 711.050781 777.988281 709.078125 779.3125 707.273438 C 779.441406 707.289062 779.570312 707.304688 779.695312 707.324219 Z M 779.695312 707.324219 " fill-opacity="1" fill-rule="nonzero"/><path fill="#231f20" d="M 788.570312 709.996094 C 786.730469 710.589844 785.039062 711.742188 783.730469 713.222656 C 781.589844 713.082031 779.441406 713.339844 777.550781 714.027344 C 779.324219 714.183594 781.042969 714.292969 782.773438 714.464844 C 781.511719 716.367188 780.84375 718.632812 781.148438 720.914062 C 781.957031 718.425781 783.003906 716.453125 784.332031 714.644531 C 784.460938 714.660156 784.589844 714.675781 784.714844 714.695312 C 787.109375 714.996094 789.398438 715.496094 791.796875 715.949219 C 789.964844 714.636719 787.683594 713.773438 785.3125 713.398438 C 786.269531 712.257812 787.347656 711.15625 788.570312 709.996094 Z M 788.570312 709.996094 " fill-opacity="1" fill-rule="nonzero"/></svg>