<svg xmlns="http://www.w3.org/2000/svg" xmlns:xlink="http://www.w3.org/1999/xlink" width="1920" zoomAndPan="magnify" viewBox="0 0 1440 809.999993" height="1080" preserveAspectRatio="xMidYMid meet" version="1.0"><defs><clipPath id="eb577c232d"><path d="M 529.292969 602 L 594 602 L 594 665.582031 L 529.292969 665.582031 Z M 529.292969 602 " clip-rule="nonzero"/></clipPath><clipPath id="17d2ef29db"><path d="M 529.292969 600 L 595 600 L 595 665.582031 L 529.292969 665.582031 Z M 529.292969 600 " clip-rule="nonzero"/></clipPath></defs><g clip-path="url(#eb577c232d)"><path fill="#ffffff" d="M 591.277344 620.875 C 588.1875 613.570312 582.464844 607.652344 575.300781 604.3125 L 575.296875 604.316406 C 574.632812 605.0625 573.96875 605.808594 573.304688 606.558594 L 573.304688 606.5625 C 569.480469 606.542969 565.65625 606.527344 561.832031 606.511719 C 559.246094 605.097656 556.664062 603.6875 554.082031 602.273438 L 554.082031 602.269531 C 549.121094 603.5 544.621094 605.882812 540.878906 609.117188 C 539.851562 611.535156 538.828125 613.953125 537.800781 616.371094 L 537.800781 616.375 C 535.503906 619.230469 533.207031 622.089844 530.914062 624.945312 L 530.910156 624.945312 L 530.910156 624.949219 C 530.1875 627.621094 529.800781 630.429688 529.800781 633.328125 C 529.800781 635.390625 529.996094 637.410156 530.371094 639.367188 C 530.703125 638.648438 531.03125 637.933594 531.359375 637.214844 C 533.839844 638.539062 536.324219 639.863281 538.808594 641.183594 L 538.808594 641.1875 L 544.304688 652.941406 C 543.019531 654.347656 541.730469 655.753906 540.445312 657.15625 C 546.078125 662.207031 553.511719 665.289062 561.667969 665.320312 C 561.710938 665.324219 561.753906 665.324219 561.796875 665.324219 C 569.3125 665.324219 576.21875 662.734375 581.683594 658.398438 C 587.1875 654.023438 591.21875 647.875 592.910156 640.816406 C 593.484375 638.414062 593.792969 635.90625 593.792969 633.328125 C 593.792969 628.910156 592.898438 624.703125 591.277344 620.875 Z M 544.625 620.449219 C 548.578125 618.648438 552.527344 616.847656 556.476562 615.046875 C 559.121094 618.355469 561.761719 621.664062 564.402344 624.976562 C 561.96875 628.324219 559.535156 631.675781 557.105469 635.023438 L 545.160156 632.652344 C 544.984375 628.585938 544.804688 624.515625 544.625 620.449219 Z M 562.664062 663.078125 C 560.429688 660.488281 558.199219 657.898438 555.964844 655.3125 L 562.316406 646.589844 C 566.617188 646.875 570.914062 647.160156 575.210938 647.441406 C 575.300781 650.929688 575.386719 654.417969 575.476562 657.90625 C 571.207031 659.632812 566.933594 661.355469 562.664062 663.078125 Z M 581.847656 636.539062 L 576.253906 625.449219 C 578.082031 622.472656 579.914062 619.492188 581.742188 616.515625 C 584.675781 619.03125 587.609375 621.550781 590.542969 624.066406 L 590.546875 624.070312 C 590.761719 627.78125 590.980469 631.496094 591.195312 635.207031 C 588.078125 635.652344 584.964844 636.097656 581.847656 636.539062 Z M 581.847656 636.539062 " fill-opacity="1" fill-rule="nonzero"/></g><path fill="#004aad" d="M 797.273438 251.101562 C 796.976562 250.964844 796.660156 250.820312 796.332031 250.667969 C 794.710938 249.902344 793.59375 249.285156 792.683594 248.765625 C 791.578125 248.136719 790.785156 247.65625 789.789062 247.253906 C 789.1875 247.011719 788.601562 246.832031 788.027344 246.707031 C 786.851562 245.3125 785.445312 243.738281 783.816406 242.0625 C 777.8125 235.898438 772.242188 232.015625 769.386719 230.046875 C 762.753906 225.476562 763.070312 226.851562 760.070312 224.148438 C 758.230469 222.488281 756.53125 220.546875 754.242188 220.734375 C 752.777344 220.855469 752.058594 221.761719 750.332031 221.585938 C 748.734375 221.429688 747.902344 220.511719 747.058594 220.023438 C 745.917969 219.359375 744.542969 219.355469 743.101562 219.691406 C 735.40625 214.777344 730.652344 213.601562 727.625 213.574219 C 726.386719 213.566406 724.40625 213.742188 721.808594 213.148438 C 721.460938 213.070312 721.097656 212.976562 720.730469 212.867188 C 717.996094 212.058594 716.851562 211.011719 714.257812 210.664062 C 712.851562 210.46875 711.570312 210.558594 710.503906 210.742188 C 711.628906 212.007812 713.007812 213.0625 714.734375 213.675781 C 714.738281 213.679688 714.742188 213.679688 714.75 213.679688 C 715.535156 213.960938 715.910156 214.851562 715.53125 215.59375 C 714.875 216.902344 714.238281 218.011719 713.6875 218.90625 C 707.675781 228.71875 698.878906 234.65625 691.863281 236.332031 C 690.25 236.714844 688.65625 236.890625 686.886719 236.613281 C 685.355469 236.375 680.601562 235.785156 679.136719 232.207031 C 678.425781 230.472656 678.75 228.699219 679.1875 227.449219 C 679.410156 226.804688 679.457031 226.109375 679.308594 225.445312 C 679.277344 225.304688 679.253906 225.191406 679.234375 225.128906 C 678.179688 225.386719 677.21875 225.667969 676.277344 226 L 676.273438 226 C 672.558594 227.289062 669.175781 229.265625 661.417969 233.046875 C 656.074219 235.652344 654.972656 236.148438 653.152344 237.824219 C 650.875 239.917969 649.640625 242.433594 648.621094 245.417969 C 644.914062 256.289062 645.894531 268.199219 645.136719 281.539062 C 644.953125 284.761719 644.585938 289.5625 643.742188 295.445312 C 643.636719 296.179688 643.960938 296.910156 644.574219 297.324219 C 644.644531 297.371094 644.714844 297.417969 644.785156 297.460938 C 647.613281 299.328125 650.558594 300.585938 653.8125 300.875 C 655.394531 301.015625 657.59375 301.078125 660.226562 300.722656 C 660.472656 302.304688 660.675781 304.078125 660.816406 306.171875 C 661.097656 310.492188 661.460938 321.347656 659.535156 333.050781 C 659.449219 333.550781 659.351562 334.136719 659.242188 334.808594 C 658.765625 337.675781 658.097656 342.078125 657.828125 347.839844 C 657.753906 349.460938 657.71875 350.980469 657.710938 352.359375 C 657.003906 353.714844 656.34375 355.277344 655.839844 357.082031 C 654.910156 360.417969 655.78125 360.054688 654.839844 363.621094 C 653.558594 368.507812 651.515625 370.757812 650.28125 374.671875 L 650.28125 374.675781 C 649.4375 375.925781 648.582031 377.265625 647.730469 378.695312 C 647.234375 379.53125 646.777344 380.332031 646.355469 381.09375 C 645.632812 382.410156 645.015625 383.609375 644.511719 384.636719 C 644.210938 385.25 644.265625 385.949219 644.601562 386.488281 C 638.851562 395.71875 632.527344 407.570312 627.171875 421.949219 C 622.003906 435.824219 619.058594 448.511719 617.339844 459.039062 C 617.089844 460.574219 617.558594 462.128906 618.605469 463.265625 C 618.683594 463.347656 618.765625 463.4375 618.855469 463.519531 C 626.566406 470.757812 632.855469 472.351562 637.410156 472.289062 C 642.316406 472.21875 646.761719 470.199219 652.765625 470.375 L 652.769531 470.375 C 654.3125 470.414062 655.960938 470.605469 657.746094 471.007812 C 658.863281 471.261719 659.890625 471.5625 660.816406 471.886719 C 660.457031 472.878906 660.105469 473.8125 659.765625 474.683594 C 659.390625 475.664062 659.691406 476.722656 660.425781 477.363281 C 660.707031 477.613281 661.050781 477.792969 661.445312 477.890625 C 667.828125 479.417969 674.921875 481.503906 682.488281 484.375 C 688.335938 486.59375 693.652344 488.976562 698.433594 491.363281 C 699.542969 491.914062 700.621094 492.46875 701.671875 493.023438 C 702.957031 493.699219 704.542969 493.089844 705.042969 491.722656 C 707.347656 485.40625 709.601562 479.746094 711.675781 474.800781 C 713.726562 469.917969 715.601562 465.742188 717.183594 462.335938 C 722.425781 451.050781 727.214844 442.242188 731.371094 432.296875 C 733.90625 426.226562 736.207031 419.730469 738.230469 411.992188 C 739 409.054688 739.59375 406.441406 740.046875 404.316406 C 740.054688 404.316406 740.0625 404.320312 740.070312 404.320312 C 741.082031 404.460938 742.027344 403.785156 742.226562 402.785156 C 742.957031 399.097656 743.933594 393.816406 744.902344 387.464844 C 746.824219 374.835938 746.949219 369.492188 748.789062 358.835938 C 750.445312 349.25 752.238281 342.640625 752.960938 339.734375 C 755.757812 328.472656 758.480469 308.542969 758.765625 270.53125 L 758.765625 270.527344 C 761.273438 270.441406 764.128906 271.550781 768.105469 273.136719 C 772.636719 274.941406 776.464844 277.121094 779.613281 279.273438 C 780.5 279.882812 781.710938 279.667969 782.332031 278.792969 C 782.894531 278.007812 783.457031 277.210938 784.019531 276.402344 C 786.214844 273.25 788.429688 269.9375 790.644531 266.453125 C 793.382812 262.140625 795.886719 257.929688 798.175781 253.863281 C 798.273438 253.691406 798.34375 253.511719 798.382812 253.332031 C 798.585938 252.445312 798.148438 251.496094 797.273438 251.101562 Z M 797.273438 251.101562 " fill-opacity="1" fill-rule="nonzero"/><path fill="#004aad" d="M 692.367188 532.390625 C 691.648438 532.167969 690.839844 532.246094 690.125 532.699219 C 687.15625 534.585938 683.097656 536.652344 678.007812 537.984375 C 672.332031 539.46875 667.316406 539.523438 663.652344 539.21875 C 663.15625 539.175781 662.683594 539.269531 662.273438 539.460938 L 662.273438 539.464844 C 661.300781 539.917969 660.644531 540.929688 660.71875 542.085938 C 660.84375 544.042969 661.011719 546.414062 661.222656 549.105469 C 661.347656 550.738281 661.496094 552.488281 661.65625 554.335938 C 663.636719 576.984375 665.59375 583.234375 664.640625 596.570312 C 664.105469 604.125 662.875 610.535156 662.222656 613.636719 C 661.847656 615.433594 661.445312 617.160156 661.027344 618.808594 C 661.3125 618.652344 661.621094 618.523438 661.957031 618.417969 C 662.683594 618.191406 664.5 617.796875 667.714844 619.238281 C 675.945312 622.9375 678.695312 632.132812 681.175781 631.359375 C 682.355469 630.988281 682.28125 628.746094 683.09375 628.753906 C 683.214844 628.753906 683.335938 628.804688 683.445312 628.902344 C 683.472656 628.695312 683.5 628.488281 683.523438 628.277344 C 684.347656 621.5 684.039062 616.394531 683.980469 615.058594 C 683.285156 599.269531 694.183594 579.992188 695.355469 554.476562 C 695.570312 549.894531 695.5625 543.058594 694.25 534.5625 C 694.082031 533.46875 693.308594 532.675781 692.367188 532.390625 Z M 692.367188 532.390625 " fill-opacity="1" fill-rule="nonzero"/><path fill="#000000" d="M 736.421875 435.726562 C 736.796875 436.683594 736.703125 437.554688 736.601562 438.242188 C 735.929688 442.863281 733.632812 447.824219 731.882812 451.117188 C 731.457031 451.921875 731.253906 452.824219 731.292969 453.734375 C 731.5 458.941406 730.8125 466.125 726.589844 472.664062 C 725.015625 475.101562 721.269531 480.898438 716.902344 480.359375 C 714.238281 480.027344 712.59375 477.488281 712.484375 477.3125 C 711.933594 476.4375 711.714844 475.621094 711.675781 474.800781 C 713.726562 469.917969 715.601562 465.742188 717.183594 462.335938 C 722.425781 451.050781 727.214844 442.242188 731.371094 432.296875 C 733.808594 432.96875 735.71875 433.925781 736.421875 435.726562 Z M 736.421875 435.726562 " fill-opacity="1" fill-rule="nonzero"/><path fill="#000000" d="M 683.445312 628.902344 C 684.675781 629.910156 685.417969 635.855469 685.519531 636.671875 C 686.046875 641.035156 686.476562 645.003906 684.167969 646.863281 C 683.367188 647.507812 682.507812 647.679688 681.824219 647.792969 C 677.214844 648.539062 671.789062 647.835938 668.121094 647.15625 C 667.226562 646.992188 666.308594 647.070312 665.449219 647.378906 C 660.542969 649.140625 653.488281 650.640625 645.984375 648.574219 C 643.1875 647.804688 636.527344 645.972656 635.730469 641.648438 C 635.246094 639.003906 637.175781 636.675781 637.3125 636.515625 C 639.941406 633.429688 643.230469 635.4375 647.980469 632.96875 C 651.558594 631.113281 653.964844 627.753906 656.84375 623.734375 C 658.523438 621.394531 659.40625 619.695312 661.027344 618.808594 C 661.3125 618.652344 661.621094 618.523438 661.957031 618.417969 C 662.683594 618.191406 664.5 617.796875 667.714844 619.238281 C 675.945312 622.9375 678.695312 632.132812 681.175781 631.359375 C 682.355469 630.988281 682.28125 628.746094 683.09375 628.753906 C 683.214844 628.753906 683.335938 628.804688 683.445312 628.902344 Z M 683.445312 628.902344 " fill-opacity="1" fill-rule="nonzero"/><path fill="#ecc19c" d="M 955.355469 295.089844 C 955.140625 293.144531 950.238281 292.539062 942.433594 290.921875 C 930.472656 288.445312 930.558594 287.503906 926.316406 287.722656 C 924.035156 287.839844 924.058594 288.113281 915.222656 289.429688 C 915.222656 289.429688 911.394531 290 906.910156 290.585938 C 895.472656 292.089844 873.851562 283.394531 872.894531 283.003906 C 836.457031 268.144531 836.574219 266.570312 826.1875 263.714844 C 823.621094 263.011719 815.820312 260.964844 805.871094 256.746094 C 802.890625 255.484375 800.34375 254.292969 798.382812 253.332031 C 798.34375 253.511719 798.273438 253.691406 798.175781 253.863281 C 795.886719 257.929688 793.382812 262.140625 790.644531 266.453125 C 788.429688 269.9375 786.214844 273.25 784.019531 276.402344 C 788.640625 277.882812 792.570312 279.273438 795.703125 280.425781 C 798.296875 281.378906 801.160156 282.4375 804.804688 283.976562 C 811.273438 286.714844 815.859375 289.132812 816.894531 289.667969 C 832.074219 297.457031 866.558594 300.460938 873.203125 301.042969 C 884.472656 302.023438 891.109375 301.894531 898.515625 304.453125 C 900 304.96875 902.371094 305.886719 905.722656 305.972656 C 909.554688 306.070312 910.949219 304.988281 918.136719 303.507812 C 922.910156 302.523438 925.332031 302.042969 927.117188 302.625 C 928.910156 303.210938 930.851562 304.605469 934.730469 307.394531 C 936.871094 308.933594 938.535156 310.277344 939.820312 309.6875 C 940.367188 309.4375 940.832031 308.847656 940.9375 308.199219 C 941.222656 306.492188 938.921875 305.074219 934.917969 301.660156 C 933.929688 300.816406 932.925781 299.878906 932.089844 299.105469 C 935.417969 300.054688 938.144531 301.511719 939.585938 302.5 C 943.433594 305.128906 945.769531 308.46875 948.113281 307.722656 C 948.179688 307.699219 949.265625 307.339844 949.507812 306.480469 C 949.890625 305.109375 947.800781 303.574219 944.492188 300.757812 C 943.429688 299.851562 942.03125 298.632812 940.390625 297.128906 C 943.609375 298.085938 945.929688 299.382812 947.585938 300.542969 C 949.324219 301.765625 951.558594 303.707031 953.238281 302.960938 C 953.855469 302.6875 954.480469 302.019531 954.535156 301.25 C 954.617188 299.933594 952.988281 299.019531 950.1875 297.179688 C 952.328125 297.476562 953.980469 297.453125 954.863281 296.382812 C 955.015625 296.195312 955.421875 295.695312 955.355469 295.089844 Z M 955.355469 295.089844 " fill-opacity="1" fill-rule="nonzero"/><path fill="#ecc19c" d="M 714.75 213.679688 C 714.742188 213.679688 714.738281 213.679688 714.734375 213.675781 C 713.007812 213.0625 711.628906 212.007812 710.503906 210.742188 C 708.542969 208.554688 707.332031 205.746094 706.367188 203.511719 C 705.6875 201.933594 704.890625 199.738281 704.34375 196.988281 C 706.214844 196.835938 708.511719 194.175781 709.386719 191.535156 C 710.0625 189.488281 709.761719 187.824219 709.285156 185.210938 C 708.789062 182.476562 708.027344 178.257812 705.902344 177.867188 C 705.253906 177.75 704.617188 178.011719 704.082031 178.367188 C 703.398438 178.824219 702.882812 179.433594 702.757812 179.582031 C 700.410156 182.382812 701.484375 186.488281 701.050781 186.558594 C 700.585938 186.628906 700.519531 177.21875 694.648438 170.351562 C 693.34375 168.824219 692.429688 167.753906 690.808594 166.886719 C 681.164062 161.730469 664.550781 173.355469 661.945312 175.175781 C 657.902344 178.007812 656.703125 179.566406 654.566406 179.679688 C 655.585938 183.867188 656.617188 187.636719 657.582031 190.925781 C 657.28125 191.144531 656.972656 191.421875 656.699219 191.789062 C 655.234375 193.75 656.015625 196.527344 657.320312 200.945312 C 658.433594 204.71875 659.226562 205.542969 659.527344 205.835938 C 660.746094 207.023438 662.207031 207.515625 663.289062 207.722656 C 666.03125 214.308594 667.976562 216.382812 669.890625 217.894531 C 669.964844 217.953125 670.046875 218.015625 670.132812 218.085938 C 671.367188 219.050781 674.210938 221.148438 678.082031 221.992188 C 678.523438 222.890625 678.929688 223.941406 679.234375 225.128906 C 679.253906 225.191406 679.277344 225.304688 679.308594 225.445312 C 679.457031 226.109375 679.410156 226.804688 679.1875 227.449219 C 678.75 228.699219 678.425781 230.472656 679.136719 232.207031 C 680.601562 235.785156 685.355469 236.375 686.886719 236.613281 C 688.65625 236.890625 690.25 236.714844 691.863281 236.332031 C 698.878906 234.65625 707.675781 228.71875 713.6875 218.90625 C 714.238281 218.011719 714.875 216.902344 715.53125 215.59375 C 715.910156 214.851562 715.535156 213.960938 714.75 213.679688 Z M 666.695312 193.039062 C 665.621094 193.28125 664.464844 192.199219 664.105469 190.621094 C 663.746094 189.042969 664.324219 187.566406 665.394531 187.324219 C 666.46875 187.078125 667.625 188.164062 667.984375 189.742188 C 668.34375 191.320312 667.765625 192.796875 666.695312 193.039062 Z M 685.925781 187.796875 C 684.855469 188.035156 683.699219 186.953125 683.339844 185.375 C 682.980469 183.796875 683.558594 182.320312 684.628906 182.078125 C 685.703125 181.832031 686.859375 182.917969 687.21875 184.496094 C 687.578125 186.074219 687 187.550781 685.925781 187.796875 Z M 685.925781 187.796875 " fill-opacity="1" fill-rule="nonzero"/><path fill="#ecc19c" d="M 698.433594 491.363281 C 693.652344 488.976562 688.335938 486.59375 682.488281 484.375 C 674.921875 481.503906 667.828125 479.417969 661.445312 477.890625 C 661.050781 477.792969 660.707031 477.613281 660.425781 477.363281 C 659.691406 476.722656 659.390625 475.664062 659.765625 474.683594 C 660.105469 473.8125 660.457031 472.878906 660.816406 471.886719 C 659.890625 471.5625 658.863281 471.261719 657.746094 471.007812 C 655.960938 470.605469 654.3125 470.414062 652.769531 470.375 L 652.765625 470.375 C 646.761719 470.199219 642.316406 472.21875 637.410156 472.289062 C 632.855469 472.351562 626.566406 470.757812 618.855469 463.519531 C 618.765625 463.4375 618.683594 463.347656 618.605469 463.265625 C 616.816406 472.3125 615.988281 479.917969 615.582031 485.65625 C 615.226562 490.710938 615.171875 494.636719 617.714844 497.882812 C 620.722656 501.722656 625.644531 502.425781 626.84375 502.59375 C 633.433594 503.535156 637.207031 500.019531 651.417969 494.1875 C 653.269531 493.425781 654.960938 492.765625 656.433594 492.210938 C 656.152344 494.097656 655.941406 496.089844 655.824219 498.167969 C 655.433594 505.214844 656.269531 510.773438 656.964844 515.230469 C 658.585938 525.660156 661.058594 530.65625 662.273438 539.460938 C 662.683594 539.269531 663.15625 539.175781 663.652344 539.21875 C 667.316406 539.523438 672.332031 539.46875 678.007812 537.984375 C 683.097656 536.652344 687.15625 534.585938 690.125 532.699219 C 690.839844 532.246094 691.648438 532.167969 692.367188 532.390625 C 692.089844 531.171875 691.761719 529.90625 691.375 528.597656 C 690.203125 524.640625 689.507812 523.792969 689.085938 521.007812 C 688.738281 518.71875 688.53125 514.742188 691.945312 505.417969 C 693.332031 501.640625 695.378906 496.792969 698.433594 491.363281 Z M 698.433594 491.363281 " fill-opacity="1" fill-rule="nonzero"/><path fill="#ecc19c" d="M 647.1875 350.375 C 650.445312 347.0625 654.867188 342.007812 659.242188 334.808594 C 659.351562 334.136719 659.449219 333.550781 659.535156 333.050781 C 661.460938 321.347656 661.097656 310.492188 660.816406 306.171875 C 660.675781 304.078125 660.472656 302.304688 660.226562 300.722656 C 657.59375 301.078125 655.394531 301.015625 653.8125 300.875 C 650.558594 300.585938 647.613281 299.328125 644.785156 297.460938 C 644.5625 298.28125 644.316406 299.1875 644.035156 300.15625 C 643.53125 301.886719 641.929688 307.410156 640.097656 311.5 C 637.722656 316.816406 635.800781 317.84375 631.710938 323.757812 C 627.765625 329.460938 626.832031 332.425781 623.746094 338.265625 C 619.039062 347.164062 613.53125 354.085938 602.511719 367.9375 C 596.898438 374.992188 596.28125 375.316406 587.910156 385.757812 C 583.910156 390.753906 580.535156 395.066406 577.988281 398.355469 C 576.976562 399.660156 576.402344 401.253906 576.347656 402.902344 C 576.273438 405.042969 576.230469 406.902344 576.203125 408.414062 C 576.105469 414.296875 576.242188 415.527344 576.628906 416.945312 C 577.015625 418.34375 577.945312 420.011719 579.808594 423.347656 C 583.097656 429.238281 584.167969 429.84375 585.019531 429.792969 C 585.742188 429.75 586.492188 429.230469 586.824219 428.558594 C 587.703125 426.78125 585.191406 424.789062 583.835938 420.21875 C 583.761719 419.972656 583.695312 419.730469 583.636719 419.5 C 584.386719 419.894531 585.304688 419.980469 586.027344 419.75 C 586.867188 419.484375 587.359375 418.808594 587.8125 417.703125 C 588.917969 417.925781 590.246094 418.144531 591.765625 418.296875 C 594.179688 418.546875 595.390625 418.667969 596.742188 418.335938 C 599.714844 417.601562 602.734375 415.101562 602.355469 413.285156 C 602.179688 412.441406 601.277344 411.785156 600.464844 411.601562 C 599.019531 411.273438 597.9375 412.457031 596.597656 413.074219 C 596.171875 413.269531 595.671875 413.429688 595.070312 413.511719 C 598.785156 410.816406 599.050781 408.558594 599.050781 407.75 C 600.59375 406.433594 603.164062 403.875 602.570312 401.804688 C 602.414062 401.257812 601.996094 400.59375 601.257812 399.421875 C 600.660156 398.472656 600.089844 397.691406 599.632812 397.097656 C 602.578125 393.820312 603.632812 392.445312 604.433594 390.402344 C 604.964844 389.035156 605.234375 387.769531 605.367188 386.730469 C 605.46875 385.929688 605.835938 385.183594 606.394531 384.601562 C 607.046875 383.925781 607.859375 383.089844 608.792969 382.15625 C 625.378906 365.558594 635.683594 362.070312 647.1875 350.375 Z M 647.1875 350.375 " fill-opacity="1" fill-rule="nonzero"/><path fill="#231f20" d="M 955.542969 294.425781 C 954.90625 293.410156 953.710938 293.066406 952.664062 292.691406 C 950.25 291.957031 947.769531 291.523438 945.316406 291 C 942.152344 290.359375 938.707031 289.625 935.585938 288.839844 C 933.960938 288.445312 932.371094 287.996094 930.738281 287.601562 C 929.917969 287.410156 929.050781 287.253906 928.183594 287.214844 C 926.476562 287.121094 924.753906 287.332031 923.105469 287.667969 C 920.652344 288.128906 918.195312 288.539062 915.734375 288.941406 C 912.921875 289.347656 908.636719 290.09375 905.871094 290.4375 C 902.582031 290.742188 899.171875 290.382812 895.90625 289.914062 C 894.859375 289.683594 893.8125 289.460938 892.773438 289.191406 L 891.980469 289 C 891.980469 289 891.195312 288.789062 891.195312 288.789062 C 884.375 286.96875 877.703125 284.621094 871.207031 281.871094 C 863.191406 278.5 855.175781 275.121094 847.222656 271.605469 C 840.710938 268.835938 834.382812 265.527344 827.527344 263.632812 C 817.679688 261.09375 808.035156 257.765625 798.789062 253.515625 C 798.957031 252.859375 798.84375 252.132812 798.460938 251.570312 C 798.1875 251.152344 797.765625 250.84375 797.308594 250.652344 C 796.546875 250.3125 795.792969 249.964844 795.050781 249.589844 C 792.773438 248.496094 790.691406 246.890625 788.160156 246.367188 C 788 246.332031 787.839844 246.300781 787.679688 246.273438 C 782.617188 239.9375 776.496094 234.425781 769.824219 229.796875 C 767.785156 228.371094 765.667969 226.957031 763.421875 225.863281 C 761.121094 224.828125 759.640625 222.808594 757.632812 221.328125 C 756.03125 220.15625 754.292969 219.859375 752.46875 220.691406 C 751.734375 221 751.074219 221.175781 750.296875 221.074219 C 749.050781 220.96875 748.222656 220.128906 747.152344 219.523438 C 745.753906 218.839844 744.199219 218.902344 742.613281 219.339844 C 738.832031 216.617188 734.636719 214.199219 730.007812 213.292969 C 728.40625 212.949219 726.726562 213.105469 725.113281 213.066406 C 723.007812 213.003906 720.953125 212.570312 718.980469 211.8125 C 718.320312 211.566406 717.664062 211.273438 716.96875 211.03125 C 715.042969 210.328125 712.878906 210.210938 710.890625 210.652344 C 710.867188 210.628906 710.847656 210.609375 710.824219 210.585938 C 709.109375 208.757812 707.933594 206.449219 706.878906 204.175781 C 705.808594 201.933594 704.960938 199.59375 704.390625 197.171875 C 706.175781 197.074219 708.253906 194.855469 709.101562 193.214844 C 710.414062 190.964844 710.457031 188.726562 709.984375 186.238281 C 709.5 183.71875 709.183594 180.484375 707.539062 178.386719 C 706.460938 177.09375 705.152344 177.21875 704.027344 177.921875 C 703.363281 172.667969 702.546875 167.433594 701.53125 162.230469 C 701.019531 159.558594 700.171875 156.800781 698.585938 154.523438 C 697.03125 152.21875 695.160156 150.121094 692.820312 148.558594 C 686.140625 144.335938 677.328125 144.515625 670.046875 146.992188 C 667.003906 148.050781 664.101562 149.59375 661.628906 151.667969 C 658.09375 154.589844 655.527344 158.328125 650.980469 159.796875 C 650.140625 160.09375 649.257812 160.316406 648.378906 160.480469 C 647.496094 160.648438 646.59375 160.726562 645.691406 160.828125 C 644.804688 160.925781 643.808594 161.128906 643.257812 161.902344 C 643.257812 161.902344 643.257812 161.902344 643.257812 161.90625 C 643.207031 161.96875 643.160156 162.035156 643.117188 162.101562 C 641.714844 164.1875 642.640625 167.609375 643.460938 169.785156 C 645.164062 174.179688 649.332031 180.15625 654.5625 180.105469 C 654.597656 180.105469 654.628906 180.101562 654.660156 180.101562 C 655.453125 183.777344 656.355469 187.429688 657.355469 191.058594 C 654.988281 192.539062 655.429688 195.753906 656.003906 198.105469 C 656.417969 199.78125 656.875 201.425781 657.484375 203.039062 C 657.890625 204.042969 658.332031 205.125 659.113281 205.949219 C 660.097656 206.898438 661.425781 207.488281 662.773438 207.671875 C 663.375 209.15625 664.023438 210.621094 664.746094 212.058594 C 665.621094 213.75 666.628906 215.414062 667.972656 216.84375 C 669.335938 218.25 670.894531 219.371094 672.5625 220.367188 C 674.335938 221.398438 676.296875 222.160156 678.320312 222.554688 C 678.664062 223.398438 678.933594 224.269531 679.132812 225.152344 C 678.183594 225.355469 677.078125 225.675781 676.25 225.929688 C 672.136719 227.320312 668.304688 229.414062 664.386719 231.257812 C 662.4375 232.203125 660.476562 233.113281 658.519531 234.050781 C 657.050781 234.773438 655.535156 235.464844 654.1875 236.425781 C 650.324219 239.1875 648.714844 243.167969 647.441406 247.566406 C 644.949219 256.410156 645.152344 265.992188 644.910156 275.117188 C 644.78125 281.949219 644.296875 288.761719 643.410156 295.539062 C 643.339844 296.402344 643.816406 297.253906 644.570312 297.671875 C 644.613281 297.699219 644.652344 297.722656 644.695312 297.746094 C 643.707031 300.949219 642.683594 304.140625 641.5 307.265625 C 640.28125 310.480469 638.910156 313.652344 636.832031 316.351562 C 634.703125 319.066406 632.449219 321.710938 630.542969 324.601562 C 629.574219 326.042969 628.667969 327.535156 627.832031 329.058594 C 625.398438 333.632812 623.335938 338.367188 620.617188 342.777344 C 615.257812 351.589844 608.582031 359.695312 602.464844 367.992188 C 597.941406 373.335938 592.992188 378.839844 588.585938 384.269531 C 585.4375 388.097656 581.632812 392.953125 578.527344 396.847656 C 578.03125 397.507812 577.277344 398.335938 576.898438 399.070312 C 576.195312 400.300781 575.828125 401.738281 575.824219 403.15625 C 575.800781 404.003906 575.75 406.308594 575.726562 407.183594 C 575.683594 408.976562 575.65625 410.769531 575.6875 412.566406 C 575.722656 413.917969 575.746094 415.328125 576.078125 416.667969 C 576.648438 418.890625 577.953125 420.816406 579.039062 422.796875 C 580.164062 424.742188 581.265625 426.726562 582.664062 428.496094 C 583.261719 429.199219 584.007812 430.136719 585.039062 430.070312 C 586.058594 429.964844 586.941406 429.226562 587.179688 428.230469 C 587.289062 427.746094 587.1875 427.246094 587.019531 426.796875 C 586.691406 425.9375 586.207031 425.183594 585.769531 424.390625 C 584.980469 423.019531 584.296875 421.589844 583.8125 420.078125 C 584.714844 420.429688 585.757812 420.46875 586.640625 420.007812 C 587.46875 419.539062 587.949219 418.722656 588.304688 417.839844 C 589.402344 418.140625 590.523438 418.363281 591.648438 418.542969 C 594.695312 419.019531 596.65625 419.308594 599.5 417.738281 C 600.9375 416.914062 602.671875 415.597656 602.890625 413.804688 C 603.03125 412.136719 601.191406 410.878906 599.644531 411.089844 C 598.589844 411.234375 597.703125 411.972656 596.882812 412.472656 C 596.707031 412.582031 596.53125 412.675781 596.347656 412.757812 C 596.46875 412.679688 596.585938 412.59375 596.703125 412.507812 C 598.273438 411.316406 599.6875 409.542969 599.558594 407.441406 C 601.226562 406.367188 602.960938 404.683594 603.171875 402.667969 C 603.285156 401.453125 602.445312 400.421875 601.796875 399.511719 C 601.246094 398.753906 600.640625 398.027344 599.949219 397.382812 C 601.222656 395.941406 602.457031 394.46875 603.519531 392.875 C 604.636719 391.125 605.265625 389.085938 605.519531 387.035156 C 605.550781 386.714844 605.59375 386.371094 605.691406 386.066406 C 605.953125 385.101562 606.769531 384.382812 607.421875 383.664062 C 607.421875 383.664062 608.792969 382.15625 608.792969 382.15625 C 608.257812 382.664062 607.113281 383.746094 606.578125 384.261719 C 605.921875 384.839844 605.402344 385.601562 605.226562 386.46875 C 605.085938 387.296875 604.925781 388.128906 604.667969 388.929688 C 603.757812 392.230469 601.296875 394.660156 599.046875 397.117188 C 598.355469 397.855469 596.957031 399.347656 596.269531 400.085938 C 595.804688 400.578125 595.335938 401.0625 594.863281 401.546875 C 594.164062 402.28125 593.339844 403.015625 592.777344 403.894531 C 591.828125 405.34375 591.054688 406.914062 590.425781 408.515625 L 590.390625 408.605469 L 590.390625 408.617188 C 589.984375 409.738281 589.582031 410.863281 589.183594 411.988281 C 588.558594 413.707031 588.089844 415.492188 587.472656 417.199219 C 587.261719 417.746094 587.039062 418.289062 586.722656 418.691406 C 586.097656 419.542969 584.851562 419.558594 583.953125 419.144531 C 582.207031 418.398438 582.625 416.308594 582.96875 414.792969 C 583.699219 411.832031 584.574219 408.886719 584.964844 405.835938 C 585.269531 403.675781 585.414062 401.105469 585.328125 398.792969 C 585.226562 401.261719 584.9375 403.691406 584.476562 406.0625 C 584.09375 406.414062 583.726562 406.726562 583.332031 406.960938 C 583.101562 407.089844 582.777344 407.257812 582.496094 407.515625 C 581.480469 408.441406 581.804688 409.453125 582.128906 410.59375 C 582.285156 411.183594 582.414062 411.789062 582.59375 412.433594 C 583.042969 411.390625 582.953125 410.203125 582.832031 409.113281 C 582.820312 408.621094 583.121094 408.246094 583.480469 407.929688 C 583.789062 407.6875 584.054688 407.390625 584.269531 407.0625 C 584.234375 407.226562 584.199219 407.390625 584.164062 407.550781 C 583.640625 409.941406 582.839844 412.246094 582.207031 414.609375 C 581.675781 416.578125 581.347656 418.917969 583.558594 419.96875 C 583.628906 420.003906 583.699219 420.035156 583.773438 420.0625 C 584.167969 421.613281 584.78125 423.105469 585.515625 424.527344 C 585.847656 425.203125 586.417969 426.230469 586.636719 426.925781 C 586.941406 427.730469 586.769531 428.566406 586.078125 429.085938 C 585.386719 429.621094 584.644531 429.695312 584.015625 429.0625 C 583.390625 428.484375 582.886719 427.738281 582.414062 427.019531 C 581.453125 425.535156 580.597656 423.972656 579.746094 422.402344 C 578.921875 420.851562 578.015625 419.285156 577.359375 417.667969 C 576.703125 416.042969 576.6875 414.292969 576.671875 412.554688 C 576.671875 410.777344 576.6875 408.988281 576.746094 407.207031 L 576.820312 404.527344 C 576.851562 403.78125 576.832031 402.644531 576.972656 401.925781 C 577.144531 400.898438 577.539062 399.90625 578.128906 399.042969 C 578.378906 398.667969 579.039062 397.84375 579.332031 397.472656 C 583.035156 392.769531 588.8125 385.253906 592.546875 380.574219 C 595.300781 377.085938 598.191406 373.617188 600.894531 370.078125 L 602.476562 367.984375 C 609.109375 360.0625 615.960938 352.070312 621.457031 343.289062 C 624.21875 338.898438 626.332031 334.128906 628.726562 329.546875 C 630.363281 326.539062 632.265625 323.675781 634.332031 320.945312 C 636.433594 318.222656 638.742188 315.507812 640.105469 312.292969 C 642.160156 307.625 643.511719 302.695312 644.710938 297.757812 C 645.585938 298.3125 646.492188 298.832031 647.433594 299.273438 C 651.226562 301.15625 655.570312 301.386719 659.707031 300.800781 C 660.042969 302.890625 660.25 305.003906 660.363281 307.128906 C 660.710938 313.585938 660.570312 320.070312 659.992188 326.511719 C 659.707031 329.484375 659.265625 332.4375 658.847656 335.394531 C 658.167969 336.402344 657.480469 337.40625 656.773438 338.390625 C 652.683594 344.121094 647.929688 349.394531 642.625 354.019531 C 637.023438 358.894531 630.804688 362.996094 624.925781 367.523438 C 619.171875 371.964844 613.722656 376.828125 608.792969 382.15625 C 615.152344 376.210938 621.902344 370.730469 628.992188 365.699219 C 633.097656 362.742188 637.304688 359.792969 641.199219 356.542969 C 647.34375 351.402344 652.734375 345.328125 657.011719 338.550781 C 657.644531 337.5625 658.246094 336.554688 658.828125 335.535156 C 658.347656 338.960938 657.90625 342.394531 657.800781 345.863281 C 657.699219 347.667969 657.714844 349.480469 657.714844 351.289062 C 656.808594 352.882812 656.0625 354.570312 655.546875 356.332031 C 655.238281 357.390625 654.96875 358.46875 654.910156 359.582031 C 654.886719 360.6875 654.886719 361.644531 654.644531 362.703125 C 654.21875 364.765625 653.53125 366.769531 652.652344 368.707031 C 651.910156 370.359375 651.101562 372.015625 650.546875 373.753906 C 650.375 374 650.199219 374.25 650.027344 374.5 L 649.976562 374.574219 L 649.976562 374.582031 C 649.335938 375.519531 648.714844 376.472656 648.113281 377.4375 C 646.890625 379.402344 645.738281 381.480469 644.679688 383.546875 L 644.273438 384.324219 C 643.828125 385.058594 643.855469 386.039062 644.335938 386.75 C 644.351562 386.777344 644.371094 386.796875 644.386719 386.824219 C 641.570312 391.171875 638.9375 395.683594 636.492188 400.25 C 626.796875 418.496094 620.175781 438.371094 616.875 458.769531 C 616.515625 460.582031 617.140625 462.546875 618.480469 463.816406 C 616.726562 471.515625 615.566406 479.363281 615.023438 487.25 C 614.925781 488.882812 614.867188 490.535156 615.035156 492.167969 C 615.496094 497.683594 619.304688 501.316406 624.511719 502.652344 C 630.054688 504.125 633.867188 502.59375 638.804688 500.253906 C 643.1875 498.167969 647.527344 496.035156 651.980469 494.121094 C 652.96875 493.703125 654.8125 492.910156 656 492.398438 C 655.992188 492.457031 655.980469 492.519531 655.96875 492.578125 C 654.914062 499.144531 655.035156 505.871094 656.027344 512.4375 C 656.589844 516.367188 657.324219 520.289062 658.359375 524.125 C 659.699219 529.125 661.296875 534.042969 662.214844 539.148438 C 662.191406 539.160156 662.164062 539.167969 662.140625 539.179688 L 661.964844 539.257812 C 661.964844 539.257812 661.964844 539.261719 661.964844 539.269531 C 660.984375 539.785156 660.324219 540.882812 660.363281 542.003906 C 660.652344 547.382812 661.105469 553.589844 661.589844 558.960938 C 662.683594 572.28125 665.398438 585.5625 664.074219 598.964844 C 663.660156 603.964844 662.996094 608.953125 662.042969 613.882812 C 661.734375 615.339844 661.433594 616.804688 661.136719 618.269531 C 661.027344 618.320312 660.921875 618.371094 660.820312 618.425781 C 659.457031 619.171875 658.582031 620.449219 657.480469 622.0625 C 657.171875 622.511719 656.851562 622.980469 656.492188 623.480469 C 653.691406 627.394531 651.269531 630.773438 647.78125 632.585938 C 645.691406 633.671875 643.878906 633.859375 642.277344 634.027344 C 640.261719 634.238281 638.523438 634.421875 636.980469 636.234375 C 636.753906 636.503906 634.789062 638.921875 635.304688 641.726562 C 636.148438 646.316406 642.957031 648.191406 645.867188 648.992188 C 648.351562 649.675781 650.910156 650.019531 653.539062 650.019531 C 657.425781 650.019531 661.457031 649.273438 665.597656 647.789062 C 666.386719 647.503906 667.234375 647.433594 668.042969 647.582031 C 671.828125 648.285156 677.304688 648.964844 681.894531 648.222656 C 682.457031 648.128906 683.496094 647.960938 684.4375 647.203125 C 686.984375 645.152344 686.457031 640.816406 685.949219 636.621094 C 685.699219 634.542969 684.976562 629.597656 683.726562 628.566406 C 683.660156 628.511719 683.589844 628.46875 683.515625 628.429688 C 684.1875 623.875 684.386719 619.234375 684.226562 614.632812 C 684.1875 612.269531 684.390625 609.902344 684.742188 607.5625 C 686.691406 595.8125 691.066406 584.625 693.421875 572.945312 C 695.933594 561.257812 696.6875 549.140625 694.976562 537.285156 C 694.890625 536.695312 694.8125 536.101562 694.714844 535.511719 C 694.621094 534.980469 694.554688 534.167969 694.296875 533.691406 C 693.921875 532.875 693.160156 532.316406 692.316406 532.105469 C 691.882812 529.523438 691.191406 526.972656 690.355469 524.492188 C 689.472656 521.972656 689.171875 519.3125 689.503906 516.671875 C 689.925781 513.132812 691 509.679688 692.15625 506.304688 C 693.847656 501.347656 695.929688 496.554688 698.210938 491.828125 C 699.238281 492.34375 700.632812 493.082031 701.660156 493.578125 C 703.121094 494.242188 704.976562 493.429688 705.507812 491.925781 C 706.84375 488.253906 708.351562 484.332031 709.785156 480.710938 C 710.429688 479.054688 711.097656 477.40625 711.777344 475.765625 C 712 476.8125 712.574219 477.78125 713.308594 478.5625 C 715.507812 480.992188 718.378906 481.296875 721.089844 479.5 C 723.460938 477.925781 725.179688 475.605469 726.730469 473.28125 C 729.902344 468.625 731.535156 463.027344 731.777344 457.421875 C 731.863281 456.046875 731.808594 454.648438 731.785156 453.273438 C 731.8125 452.648438 731.964844 452.027344 732.238281 451.464844 C 732.507812 450.929688 732.917969 450.136719 733.167969 449.609375 C 734.601562 446.730469 738 438.449219 736.5625 435.546875 C 735.679688 433.621094 733.550781 432.84375 731.625 432.359375 C 735.230469 423.453125 738.089844 414.242188 739.949219 404.816406 C 739.988281 404.820312 740.03125 404.828125 740.070312 404.832031 C 741.285156 404.996094 742.601562 404.117188 742.785156 402.605469 C 744.21875 395.269531 745.433594 387.886719 746.390625 380.472656 C 747.445312 372.011719 748.261719 363.527344 749.90625 355.15625 C 750.925781 349.5625 752.296875 344.054688 753.644531 338.527344 C 756.453125 326.003906 757.421875 313.171875 758.105469 300.386719 C 758.574219 290.664062 758.769531 280.75 758.765625 271.023438 C 760.699219 270.953125 762.617188 271.621094 764.476562 272.273438 C 769.789062 274.175781 774.878906 276.632812 779.535156 279.832031 C 780.53125 280.390625 781.871094 280.148438 782.605469 279.277344 C 782.804688 279.042969 784.160156 277.082031 784.367188 276.800781 C 784.417969 276.726562 784.46875 276.652344 784.523438 276.578125 C 785.425781 276.890625 786.34375 277.21875 787.25 277.542969 C 796.902344 280.976562 806.464844 284.742188 815.554688 289.492188 C 819.585938 291.679688 823.980469 293.21875 828.390625 294.4375 C 848.289062 299.894531 868.972656 301.035156 889.449219 302.402344 C 887.191406 302.058594 884.917969 301.828125 882.644531 301.621094 C 864.523438 299.984375 846.296875 298.113281 828.664062 293.457031 C 826.546875 292.878906 824.242188 292.15625 822.179688 291.40625 C 817.882812 289.894531 813.960938 287.519531 809.777344 285.726562 C 803.53125 282.894531 797.070312 280.574219 790.558594 278.4375 C 788.558594 277.78125 786.550781 277.15625 784.535156 276.554688 C 786.859375 273.203125 789.164062 269.746094 791.324219 266.300781 C 793.542969 262.769531 795.710938 259.113281 797.773438 255.484375 L 798.390625 254.386719 L 798.542969 254.109375 C 798.652344 253.929688 798.730469 253.738281 798.78125 253.535156 C 807.351562 257.949219 816.414062 261.460938 825.71875 264.039062 C 826.761719 264.339844 827.804688 264.628906 828.832031 264.964844 C 830.890625 265.617188 832.902344 266.394531 834.890625 267.253906 C 840.832031 269.847656 846.8125 272.628906 852.796875 275.15625 C 858.75 277.707031 864.890625 280.234375 870.898438 282.625 C 878.964844 285.851562 887.339844 288.480469 895.914062 289.917969 C 899.171875 290.609375 902.5625 291.113281 905.910156 290.945312 C 907.335938 290.851562 909.476562 290.535156 910.890625 290.375 C 914.164062 289.972656 917.554688 289.542969 920.804688 289.011719 C 922.425781 288.773438 924.085938 288.398438 925.703125 288.257812 C 926.511719 288.203125 927.332031 288.175781 928.128906 288.21875 C 929.75 288.304688 931.328125 288.8125 932.910156 289.222656 C 938.539062 290.769531 944.308594 291.777344 950.015625 292.933594 C 951.148438 293.222656 954.925781 293.859375 954.96875 295.222656 C 954.980469 295.507812 954.828125 295.820312 954.597656 296.113281 C 954.167969 296.675781 953.429688 296.921875 952.648438 296.984375 C 951.03125 297.101562 949.371094 296.753906 947.761719 296.515625 C 944.660156 295.988281 941.5 295.703125 938.351562 295.84375 C 938.933594 294.28125 938.585938 292.347656 936.777344 291.835938 C 935.261719 291.433594 933.707031 291.726562 932.199219 291.90625 C 930.738281 292.113281 929.296875 292.316406 927.851562 292.492188 C 923.496094 293.019531 919.113281 292.980469 914.75 292.390625 C 919.050781 293.4375 923.527344 293.703125 927.933594 293.328125 C 930.125 293.167969 932.296875 292.796875 934.472656 292.664062 C 935.382812 292.644531 936.507812 292.558594 937.183594 293.230469 C 937.777344 293.925781 937.613281 294.957031 937.261719 295.777344 C 937.003906 296.375 936.554688 296.699219 935.933594 296.925781 C 935.308594 297.171875 934.601562 297.324219 933.902344 297.46875 C 932.558594 297.738281 930.84375 297.949219 929.632812 298.09375 C 927.828125 298.292969 926.023438 298.46875 924.214844 298.652344 C 923.613281 298.722656 923.007812 298.789062 922.394531 298.945312 C 921.175781 299.273438 920.125 299.992188 919.238281 300.851562 C 918.386719 301.714844 917.597656 302.601562 916.597656 303.292969 C 918.195312 302.457031 919.320312 300.933594 920.910156 300.105469 C 921.429688 299.832031 921.96875 299.613281 922.523438 299.5 C 923.503906 299.3125 925.050781 299.285156 926.070312 299.222656 C 927.699219 299.125 929.25 299.027344 930.816406 298.871094 C 931.335938 299.027344 931.855469 299.195312 932.367188 299.375 C 933.296875 300.277344 934.21875 301.1875 935.171875 302.0625 C 936.726562 303.496094 938.453125 304.785156 939.871094 306.339844 C 940.3125 306.851562 940.675781 307.441406 940.617188 308.003906 C 940.566406 308.570312 940.152344 309.144531 939.644531 309.351562 C 938.53125 309.757812 937.144531 308.554688 936.207031 307.921875 L 934.488281 306.660156 C 932.75 305.40625 931.046875 304.085938 929.175781 303.007812 C 928.519531 302.644531 927.855469 302.316406 927.125 302.097656 C 926.363281 301.871094 925.589844 301.84375 924.847656 301.871094 C 922.675781 301.984375 920.570312 302.5 918.464844 302.917969 C 917.070312 303.210938 915.667969 303.519531 914.285156 303.875 C 909.523438 305.136719 907.007812 306.207031 901.917969 305.140625 C 900.53125 304.859375 899.207031 304.378906 897.851562 303.960938 C 895.105469 303.140625 892.28125 302.652344 889.449219 302.402344 C 892.972656 302.976562 896.382812 303.882812 899.695312 305.175781 C 903.089844 306.40625 906.871094 306.800781 910.390625 305.875 C 913.160156 305.175781 915.871094 304.464844 918.667969 303.917969 C 920.738281 303.519531 922.804688 303.035156 924.894531 302.898438 C 927.019531 302.710938 928.707031 303.851562 930.464844 304.984375 C 931.636719 305.757812 932.796875 306.582031 933.957031 307.402344 C 933.957031 307.402344 935.699219 308.632812 935.699219 308.632812 C 936.613281 309.238281 937.546875 309.933594 938.675781 310.167969 C 940.492188 310.570312 941.945312 308.417969 940.996094 306.855469 C 940.433594 305.882812 939.539062 305.1875 938.707031 304.488281 C 937.59375 303.589844 936.46875 302.730469 935.359375 301.84375 C 934.53125 301.171875 933.363281 300.167969 932.449219 299.40625 C 934.921875 300.28125 937.316406 301.449219 939.492188 302.980469 C 940.621094 303.785156 941.65625 304.714844 942.726562 305.632812 C 943.859375 306.574219 944.890625 307.597656 946.332031 308.144531 C 947.101562 308.441406 948.0625 308.410156 948.789062 307.976562 C 950.207031 307.21875 950.398438 305.828125 949.398438 304.625 C 948.714844 303.757812 947.855469 303.078125 947.023438 302.390625 C 945.925781 301.492188 944.796875 300.652344 943.71875 299.75 C 942.835938 299.039062 941.949219 298.332031 941.050781 297.636719 C 942.507812 298.203125 943.933594 298.867188 945.410156 299.738281 C 946.214844 300.210938 946.984375 300.726562 947.734375 301.285156 C 949.40625 302.46875 951.957031 304.679688 954.007812 303.015625 C 954.941406 302.265625 955.285156 300.902344 954.453125 299.949219 C 953.976562 299.367188 953.320312 298.941406 952.699219 298.5625 C 952.136719 298.226562 951.566406 297.910156 950.992188 297.601562 C 952.628906 297.792969 954.273438 297.703125 955.183594 296.585938 C 955.671875 296.042969 955.972656 295.152344 955.542969 294.425781 Z M 596.949219 400.71875 C 597.894531 399.644531 598.875 398.585938 599.835938 397.503906 C 600.253906 398.335938 600.679688 399.136719 601.101562 399.949219 C 601.507812 400.796875 602.207031 401.65625 602.132812 402.59375 C 602.054688 403.523438 601.503906 404.429688 600.976562 405.222656 C 600.53125 405.878906 600.027344 406.511719 599.519531 407.15625 C 599.414062 406.546875 599.226562 406.023438 599.042969 405.492188 C 598.453125 403.855469 597.753906 402.273438 596.925781 400.746094 C 596.933594 400.738281 596.941406 400.730469 596.949219 400.71875 Z M 592.957031 405.539062 C 593.140625 406.183594 593.226562 406.753906 593.125 407.375 C 593.003906 407.886719 592.746094 408.464844 592.257812 408.707031 C 592.035156 408.804688 591.734375 408.792969 591.4375 408.761719 C 591.875 407.648438 592.371094 406.570312 592.957031 405.539062 Z M 591.304688 409.125 C 592.339844 409.972656 593.664062 409.332031 594.039062 407.9375 C 594.292969 407.003906 593.851562 405.894531 593.027344 405.414062 C 593.214844 405.085938 593.410156 404.761719 593.617188 404.445312 C 594.160156 403.605469 594.871094 402.964844 595.558594 402.214844 C 595.976562 401.773438 596.386719 401.328125 596.800781 400.878906 C 597.140625 402.554688 597.632812 404.164062 598.105469 405.796875 C 598.273438 406.421875 598.503906 407.070312 598.53125 407.703125 C 598.539062 408.789062 598.066406 409.777344 597.472656 410.6875 C 596.910156 411.546875 596.199219 412.324219 595.484375 413.074219 C 593.738281 413.550781 591.816406 413.15625 590.0625 412.605469 C 590.472656 411.445312 590.890625 410.289062 591.304688 409.125 Z M 589.011719 415.792969 C 589.328125 414.746094 589.675781 413.714844 590.035156 412.691406 C 592.261719 413.800781 595 414.4375 597.28125 413.179688 C 598.144531 412.742188 598.84375 412.148438 599.757812 412.03125 C 600.613281 411.960938 601.640625 412.554688 601.851562 413.382812 C 602.019531 414.792969 600.113281 416.214844 599.007812 416.882812 C 596.457031 418.433594 594.53125 418.203125 591.703125 418.035156 C 590.582031 417.980469 589.460938 417.875 588.339844 417.757812 C 588.597656 417.097656 588.789062 416.40625 589.011719 415.792969 Z M 660.078125 205.871094 C 659.179688 205.039062 658.835938 203.847656 658.414062 202.699219 C 658.144531 201.910156 657.910156 201.109375 657.671875 200.292969 C 657.203125 198.664062 656.671875 197.054688 656.382812 195.4375 C 656.082031 193.871094 656.253906 192.292969 657.375 191.128906 C 658.335938 194.613281 659.386719 198.078125 660.519531 201.507812 C 661.199219 203.527344 661.910156 205.535156 662.707031 207.507812 C 661.726562 207.121094 660.832031 206.601562 660.078125 205.871094 Z M 678.367188 222.5625 C 680.140625 222.902344 681.960938 222.960938 683.753906 222.664062 C 685.667969 222.335938 687.445312 221.644531 689.238281 220.9375 C 695.332031 218.445312 701.253906 213.875 702.898438 207.210938 C 703.597656 204.445312 703.480469 201.511719 702.769531 198.765625 C 703.136719 200.613281 703.242188 202.507812 703.046875 204.367188 C 702.386719 211.109375 697.289062 216.125 691.441406 218.953125 C 689.773438 219.789062 688.035156 220.453125 686.261719 221.03125 C 685.378906 221.316406 684.496094 221.550781 683.597656 221.6875 C 679.027344 222.421875 674.398438 220.703125 670.785156 217.9375 C 668.484375 216.320312 666.914062 214.09375 665.621094 211.601562 C 663.066406 206.621094 661.234375 201.222656 659.460938 195.902344 C 657.804688 190.851562 656.074219 185.230469 654.683594 180.097656 C 655.867188 180.039062 656.949219 179.433594 657.882812 178.761719 C 659.359375 177.695312 660.753906 176.585938 662.25 175.566406 C 669.035156 170.914062 680.953125 163.917969 689.289062 166.695312 C 691.542969 167.441406 692.914062 168.863281 694.414062 170.632812 C 697.070312 173.671875 698.746094 177.441406 699.792969 181.320312 C 700.148438 182.621094 700.421875 183.949219 700.683594 185.273438 C 700.757812 185.574219 700.832031 186.160156 700.949219 186.429688 C 700.964844 186.464844 700.980469 186.507812 701.003906 186.53125 C 701.007812 186.535156 701.007812 186.535156 701.007812 186.539062 C 701.011719 186.539062 701.011719 186.542969 701.015625 186.542969 C 701.027344 186.554688 701.039062 186.558594 701.050781 186.558594 C 701.152344 186.53125 701.15625 186.394531 701.179688 186.308594 C 701.261719 185.644531 701.246094 184.964844 701.320312 184.300781 C 701.460938 182.828125 701.84375 181.324219 702.753906 180.152344 C 703.507812 179.214844 704.867188 177.902344 706.101562 178.402344 C 708.003906 179.371094 708.542969 184.375 708.980469 186.410156 C 709.433594 188.773438 709.5 190.640625 708.386719 192.835938 C 707.269531 195.152344 704.003906 198.980469 702.066406 195.25 C 702.621094 196.703125 703.460938 197.21875 704.378906 197.175781 C 704.792969 199.632812 705.519531 202.046875 706.503906 204.339844 C 708.097656 208.398438 710.597656 212.710938 714.652344 214.078125 C 715.0625 214.21875 715.4375 214.863281 715.144531 215.390625 C 714.933594 215.792969 714.71875 216.222656 714.496094 216.613281 C 712.707031 219.835938 710.515625 222.839844 708.015625 225.546875 C 703.941406 229.886719 698.96875 233.535156 693.292969 235.441406 C 691.433594 236.042969 689.480469 236.464844 687.519531 236.277344 C 685.726562 236.082031 683.871094 235.753906 682.257812 234.953125 C 679.210938 233.503906 678.296875 230.484375 679.375 227.390625 C 679.554688 226.765625 679.574219 226.101562 679.429688 225.476562 C 679.179688 224.464844 678.8125 223.492188 678.367188 222.5625 Z M 676.300781 226.066406 C 677.105469 225.769531 678.199219 225.398438 679.132812 225.15625 C 679.160156 225.277344 679.1875 225.398438 679.210938 225.523438 C 679.316406 226.117188 679.261719 226.730469 679.070312 227.292969 C 678.378906 229.066406 678.214844 231.152344 679.160156 232.894531 C 680.582031 235.535156 683.722656 236.519531 686.492188 236.960938 C 689.015625 237.472656 691.621094 237 694.027344 236.183594 C 702.105469 233.425781 708.769531 227.359375 713.367188 220.28125 C 714.226562 218.96875 715.015625 217.609375 715.71875 216.207031 L 715.929688 215.78125 C 716.414062 214.84375 715.882812 213.613281 714.886719 213.292969 L 714.851562 213.28125 C 714.890625 213.292969 714.929688 213.3125 714.960938 213.335938 C 714.171875 213.03125 713.390625 212.6875 712.691406 212.195312 C 712.058594 211.769531 711.480469 211.261719 710.945312 210.707031 C 712.933594 210.578125 714.910156 210.851562 716.722656 211.664062 C 718.023438 212.246094 719.335938 212.9375 720.730469 213.335938 C 721.039062 213.429688 721.347656 213.515625 721.664062 213.59375 C 720.800781 216.214844 719.707031 218.757812 718.351562 221.140625 C 715.855469 225.566406 712.507812 229.4375 708.636719 232.714844 C 708.234375 233.066406 707.394531 233.785156 706.984375 234.128906 C 703.710938 236.882812 700.054688 239.371094 695.855469 240.414062 C 691.691406 241.429688 687.242188 240.9375 683.238281 239.464844 C 677.136719 237.191406 674.039062 232.480469 676.25 226.085938 C 676.265625 226.078125 676.28125 226.074219 676.300781 226.066406 Z M 656.003906 492.363281 C 654.792969 492.792969 652.867188 493.484375 651.871094 493.851562 C 647.492188 495.476562 642.75 497.589844 638.46875 499.511719 C 633.628906 501.640625 630.109375 503.097656 624.773438 501.664062 C 619.972656 500.390625 616.488281 497.167969 616.015625 492.0625 C 615.828125 490.484375 615.863281 488.890625 615.933594 487.300781 C 616.335938 479.441406 617.257812 471.628906 618.511719 463.847656 C 618.550781 463.882812 618.585938 463.917969 618.621094 463.953125 C 618.964844 464.257812 619.585938 464.816406 619.933594 465.128906 C 624.734375 469.273438 630.679688 472.714844 637.199219 472.628906 C 639.894531 472.601562 642.519531 471.949219 645.132812 471.410156 C 647.714844 470.820312 650.214844 470.507812 652.699219 470.53125 C 651.40625 473.421875 649.824219 477.523438 648.640625 480.460938 C 647.476562 483.4375 645.761719 487.652344 644.734375 490.632812 C 646.695312 487.546875 648.253906 484.234375 649.609375 480.84375 C 650.925781 477.496094 652.042969 474.0625 652.738281 470.53125 C 655.269531 470.558594 657.789062 470.9375 660.367188 471.742188 C 660.25 472.0625 660.136719 472.378906 660.015625 472.695312 L 659.410156 474.296875 C 659.300781 474.589844 659.171875 474.921875 659.148438 475.234375 C 659.019531 476.21875 659.472656 477.210938 660.230469 477.816406 C 658.222656 482.449219 656.808594 487.351562 656.003906 492.363281 Z M 685.085938 636.726562 C 685.566406 640.683594 686.0625 644.777344 683.894531 646.523438 C 683.191406 647.089844 682.421875 647.253906 681.753906 647.363281 C 678.21875 647.9375 673.53125 647.71875 668.203125 646.726562 C 667.238281 646.550781 666.238281 646.632812 665.300781 646.96875 C 658.53125 649.398438 652.070312 649.800781 646.097656 648.15625 C 643.347656 647.398438 636.90625 645.625 636.160156 641.570312 C 635.710938 639.117188 637.5625 636.890625 637.640625 636.796875 C 638.960938 635.25 640.464844 635.089844 642.367188 634.890625 C 644.042969 634.714844 645.945312 634.515625 648.183594 633.355469 C 651.855469 631.449219 654.332031 627.992188 657.199219 623.988281 C 657.5625 623.476562 657.886719 623.007812 658.195312 622.554688 C 659.277344 620.976562 660.054688 619.835938 661.238281 619.1875 C 661.496094 619.046875 661.78125 618.925781 662.085938 618.832031 C 662.535156 618.695312 663.019531 618.625 663.546875 618.625 C 664.703125 618.625 666.039062 618.960938 667.539062 619.636719 C 672.144531 621.707031 675.003906 625.546875 677.089844 628.351562 C 678.8125 630.667969 679.953125 632.195312 681.304688 631.773438 C 682.132812 631.515625 682.460938 630.652344 682.71875 629.960938 C 682.820312 629.691406 682.992188 629.242188 683.089844 629.1875 C 683.097656 629.1875 683.125 629.195312 683.164062 629.230469 L 683.171875 629.238281 C 683.941406 629.871094 684.691406 633.453125 685.085938 636.726562 Z M 691.226562 505.972656 C 689.972656 509.398438 688.902344 512.917969 688.527344 516.570312 C 688.238281 519.324219 688.648438 522.171875 689.714844 524.722656 C 690.695312 527.144531 691.542969 529.589844 692.277344 532.097656 C 691.550781 531.925781 690.765625 532.015625 690.113281 532.425781 C 686.394531 534.886719 682.292969 536.757812 678.007812 537.984375 C 682.078125 537.023438 685.988281 535.417969 689.589844 533.296875 C 690 533.058594 690.636719 532.625 691.113281 532.574219 C 692.476562 532.304688 693.851562 533.34375 693.960938 534.722656 C 694.90625 541.476562 695.253906 548.320312 694.84375 555.128906 C 694.5 561.039062 693.632812 566.941406 692.402344 572.730469 C 690.523438 581.902344 687.453125 591.269531 685.359375 600.410156 C 684.308594 605.070312 683.515625 609.847656 683.71875 614.648438 C 684.027344 619.238281 683.960938 623.84375 683.496094 628.421875 C 683.367188 628.355469 683.234375 628.320312 683.097656 628.320312 L 683.089844 628.320312 C 682.410156 628.320312 682.144531 629.027344 681.90625 629.652344 C 681.703125 630.195312 681.46875 630.8125 681.046875 630.945312 C 680.277344 631.183594 679.125 629.628906 677.789062 627.832031 C 675.644531 624.953125 672.707031 621.007812 667.894531 618.84375 C 665.519531 617.777344 663.476562 617.492188 661.828125 618.003906 C 661.601562 618.074219 661.382812 618.15625 661.175781 618.25 C 663.75 608.71875 665.339844 598.847656 665.335938 588.945312 C 665.316406 582.335938 664.367188 575.429688 663.640625 568.859375 C 662.902344 562.453125 662.234375 555.757812 661.664062 549.175781 C 666.738281 549.980469 671.980469 549.757812 677.011719 548.75 C 682.1875 547.671875 687.230469 545.730469 691.660156 542.84375 C 687.757812 544.570312 683.785156 546.039062 679.65625 547.074219 C 673.773438 548.582031 667.730469 549.152344 661.65625 549.109375 C 661.449219 546.710938 661.253906 544.328125 661.070312 541.980469 C 661.011719 541.046875 661.574219 540.15625 662.402344 539.738281 L 662.402344 539.742188 C 662.667969 539.613281 662.953125 539.535156 663.25 539.511719 C 663.507812 539.484375 663.929688 539.527344 664.199219 539.542969 C 664.867188 539.578125 665.53125 539.605469 666.199219 539.605469 C 670.1875 539.625 674.179688 539.097656 678.007812 537.984375 C 674.144531 538.875 670.167969 539.28125 666.210938 539.101562 C 665.554688 539.074219 664.894531 539.035156 664.238281 538.980469 L 663.75 538.9375 C 663.246094 538.878906 662.710938 538.945312 662.238281 539.136719 C 661.734375 533.984375 660.332031 528.949219 659.144531 523.929688 C 657.957031 518.8125 657.113281 513.601562 656.578125 508.382812 C 655.773438 500.550781 656.351562 492.597656 658.195312 484.945312 C 658.765625 482.550781 659.472656 480.1875 660.261719 477.84375 C 660.5625 478.078125 660.910156 478.253906 661.285156 478.347656 L 662.125 478.554688 C 674.574219 481.625 686.675781 486.085938 698.15625 491.800781 C 695.347656 496.25 693.046875 501.035156 691.226562 505.972656 Z M 736.417969 437.636719 C 735.828125 441.699219 734.175781 445.550781 732.351562 449.207031 C 732.089844 449.726562 731.664062 450.527344 731.386719 451.042969 C 731.046875 451.71875 730.847656 452.46875 730.804688 453.222656 C 730.773438 453.914062 730.835938 454.632812 730.820312 455.324219 C 730.824219 461.4375 729.328125 467.632812 725.964844 472.785156 C 723.339844 476.988281 718.554688 483.210938 713.515625 478.359375 C 712.734375 477.621094 712.101562 476.695312 711.824219 475.65625 C 716.382812 464.660156 721.621094 453.964844 726.792969 443.238281 C 728.515625 439.671875 730.128906 436.050781 731.617188 432.375 C 734.09375 433.175781 736.800781 434.628906 736.417969 437.636719 Z M 736.519531 417.574219 C 732.527344 430.746094 726.1875 442.953125 720.101562 455.257812 C 714.527344 466.542969 709.527344 478.148438 705.152344 489.960938 L 704.558594 491.566406 C 704.394531 491.988281 704.089844 492.351562 703.6875 492.5625 C 703.1875 492.832031 702.574219 492.867188 702.058594 492.640625 L 701.902344 492.566406 L 701.710938 492.46875 L 700.945312 492.074219 C 700.058594 491.621094 698.765625 490.953125 697.875 490.511719 C 686.5625 484.921875 674.621094 480.582031 662.355469 477.613281 C 661.96875 477.507812 661.214844 477.390625 660.90625 477.132812 C 660.082031 476.550781 659.878906 475.527344 660.289062 474.632812 C 662.546875 468.742188 664.398438 462.683594 665.816406 456.535156 C 667.613281 448.945312 668.667969 441.222656 669.417969 433.46875 C 672.222656 428.882812 674.449219 423.921875 676.332031 418.902344 C 676.679688 418.050781 677.035156 417.210938 677.460938 416.417969 C 680.042969 411.527344 684.847656 408.304688 689.824219 406.160156 C 692.382812 405.066406 695.023438 404.230469 697.703125 403.464844 C 694.945312 403.902344 692.210938 404.578125 689.574219 405.523438 C 683.222656 407.847656 677.703125 411.957031 675.414062 418.542969 C 673.667969 423.554688 671.695312 428.445312 669.441406 433.257812 C 669.785156 429.675781 670.066406 426.085938 670.328125 422.496094 C 670.972656 415.667969 672.410156 408.929688 674.238281 402.324219 C 672.238281 408.894531 670.699219 415.625 669.933594 422.457031 C 669.277344 429.289062 668.703125 436.125 667.632812 442.90625 C 666.160156 452.71875 663.800781 462.410156 660.375 471.722656 C 655.316406 469.90625 650.292969 469.875 645.035156 470.910156 C 639.46875 472.078125 634.964844 472.636719 629.585938 470.3125 C 625.816406 468.710938 622.445312 466.207031 619.457031 463.421875 C 619.113281 463.117188 618.78125 462.78125 618.535156 462.394531 C 617.988281 461.582031 617.722656 460.59375 617.777344 459.617188 C 617.792969 459.160156 618.132812 457.449219 618.199219 456.96875 C 622.5625 432.242188 631.566406 408.417969 644.398438 386.835938 C 644.582031 387.089844 644.8125 387.300781 645.078125 387.460938 L 646.214844 388.128906 C 653.808594 392.503906 661.988281 395.886719 670.511719 397.964844 C 676.175781 399.390625 682.035156 400.039062 687.855469 400.414062 C 690.210938 400.578125 695.890625 400.84375 698.320312 400.96875 C 712.242188 401.613281 726.132812 402.871094 739.933594 404.8125 C 738.953125 409.109375 737.820312 413.367188 736.519531 417.574219 Z M 797.992188 252.976562 C 797.992188 253.316406 797.785156 253.671875 797.621094 253.949219 C 797.621094 253.949219 796.996094 255.039062 796.996094 255.039062 C 792.300781 263.140625 787.25 271.109375 781.746094 278.6875 C 781.304688 279.132812 780.578125 279.226562 780.03125 278.921875 C 779.558594 278.613281 778.984375 278.222656 778.488281 277.90625 C 774.234375 275.136719 769.585938 273.046875 764.820312 271.324219 C 760.320312 269.648438 756.207031 269.035156 752.824219 273.179688 C 751.207031 275.207031 750.296875 277.707031 749.613281 280.15625 C 745.996094 294.824219 743.453125 309.734375 741.371094 324.683594 C 741.652344 323.03125 741.933594 321.378906 742.226562 319.726562 C 744.546875 306.539062 747.109375 293.355469 750.457031 280.390625 C 750.914062 278.796875 751.460938 277.234375 752.222656 275.792969 C 753.335938 273.664062 755.046875 271.773438 757.410156 271.203125 C 757.859375 271.097656 758.308594 271.039062 758.753906 271.023438 C 758.691406 273.589844 758.671875 276.507812 758.578125 279.058594 C 758.367188 287.464844 758.003906 296.230469 757.402344 304.617188 C 756.613281 315.230469 755.585938 325.863281 753.359375 336.277344 C 752.917969 338.359375 752.382812 340.417969 751.851562 342.484375 C 750.796875 346.625 749.851562 350.792969 749.039062 354.988281 C 747.359375 363.367188 746.5 371.882812 745.410156 380.347656 C 744.429688 387.734375 743.222656 395.09375 741.78125 402.40625 L 741.726562 402.667969 C 741.605469 403.394531 740.867188 403.925781 740.144531 403.808594 C 723.25 401.277344 705.246094 400.222656 687.914062 399.445312 C 682.148438 399.097656 676.34375 398.476562 670.726562 397.089844 C 662.277344 395.058594 654.136719 391.769531 646.585938 387.480469 L 645.832031 387.046875 C 645.691406 386.96875 645.261719 386.722656 645.171875 386.617188 C 644.6875 386.171875 644.539062 385.421875 644.820312 384.828125 C 644.84375 384.777344 644.882812 384.703125 644.914062 384.640625 C 644.914062 384.640625 645.3125 383.867188 645.3125 383.867188 C 645.742188 383.070312 646.1875 382.128906 646.644531 381.285156 C 654.914062 386.839844 664.375 390.824219 674.253906 392.453125 C 684.246094 394.066406 694.398438 393.738281 704.460938 394.359375 C 716.527344 394.972656 728.546875 396.414062 740.449219 398.484375 C 728.640625 395.800781 716.605469 394.117188 704.519531 393.375 C 691.582031 392.582031 681.691406 393.015625 671.308594 390.988281 C 680.660156 389.757812 689.703125 386.203125 697.53125 380.953125 C 704.316406 376.371094 710.285156 370.453125 714.757812 363.597656 C 703.914062 377.496094 688.277344 387.335938 671.019531 390.933594 C 664.96875 389.726562 658.738281 387.671875 651.628906 384.042969 C 650.734375 383.585938 649.847656 383.105469 648.972656 382.613281 C 648.191406 382.179688 647.417969 381.730469 646.652344 381.269531 C 646.742188 381.105469 646.832031 380.941406 646.925781 380.789062 C 650.082031 375.097656 653.515625 370.292969 657.964844 365.273438 C 659.3125 363.765625 660.726562 362.304688 662.0625 360.785156 C 668.789062 353.1875 674.730469 344.933594 680.296875 336.460938 C 674.582031 344.820312 668.5625 353 661.75 360.5 C 661.066406 361.25 660.378906 361.988281 659.679688 362.722656 C 656.460938 366.027344 653.488281 369.578125 650.824219 373.355469 C 651.507812 371.839844 652.335938 370.402344 653.113281 368.925781 C 653.984375 367.261719 654.726562 365.488281 655.230469 363.671875 C 655.449219 362.875 655.644531 362.082031 655.734375 361.25 C 655.792969 360.691406 655.78125 360.140625 655.820312 359.636719 C 655.894531 358.632812 656.175781 357.621094 656.488281 356.621094 C 657.117188 354.625 658.003906 352.710938 659.128906 350.941406 C 660.0625 349.394531 661.320312 347.886719 662.386719 346.417969 C 664.746094 343.082031 666.203125 339.203125 666.992188 335.21875 C 667.515625 332.589844 667.761719 329.890625 667.78125 327.21875 C 667.539062 329.347656 667.230469 331.460938 666.773438 333.535156 C 665.773438 338.175781 664.03125 342.703125 661.105469 346.464844 L 660.121094 347.730469 C 659.257812 348.824219 658.46875 349.980469 657.769531 351.195312 C 657.816406 350.265625 657.875 349.117188 657.875 349.117188 C 658.007812 345.878906 658.355469 342.648438 658.8125 339.441406 C 659.113281 337.300781 659.496094 335.175781 659.878906 333.046875 C 661.351562 324.480469 661.808594 315.75 661.378906 307.070312 C 661.179688 302.71875 660.53125 298.34375 659.222656 294.179688 C 657.925781 290.039062 656.558594 285.972656 655.632812 281.742188 C 653.253906 271.207031 652.292969 260.371094 652.425781 249.578125 C 651.800781 259.855469 652.425781 270.230469 654.410156 280.339844 C 655.320312 285.132812 656.78125 289.84375 658.25 294.472656 C 658.886719 296.542969 659.359375 298.648438 659.703125 300.773438 C 655.601562 301.152344 651.320312 300.820312 647.652344 298.832031 C 646.699219 298.339844 645.78125 297.789062 644.890625 297.183594 C 644.386719 296.894531 644.039062 296.34375 644.042969 295.757812 C 645.066406 288.933594 645.703125 282.042969 645.878906 275.144531 C 646.289062 264.453125 645.84375 253.367188 649.941406 243.285156 C 650.957031 240.851562 652.558594 238.671875 654.679688 237.089844 C 655.964844 236.140625 657.414062 235.449219 658.847656 234.714844 C 662.722656 232.789062 666.578125 230.789062 670.410156 228.773438 C 672.316406 227.792969 674.234375 226.835938 676.242188 226.089844 C 673.464844 232.523438 676.746094 237.757812 682.941406 240.21875 C 686.371094 241.59375 690.207031 242.226562 693.886719 241.792969 C 694.21875 241.753906 694.679688 241.707031 695 241.628906 C 695.320312 241.550781 695.785156 241.5 696.097656 241.402344 L 697.183594 241.109375 C 698.070312 240.835938 698.953125 240.492188 699.804688 240.121094 C 702.65625 238.8125 705.25 236.914062 707.621094 234.882812 C 708.039062 234.519531 708.859375 233.796875 709.269531 233.425781 C 712.03125 231 714.539062 228.253906 716.570312 225.183594 C 718.925781 221.660156 720.6875 217.710938 721.699219 213.601562 C 722.804688 213.875 723.9375 214.046875 725.074219 214.082031 C 725.808594 214.117188 726.542969 214.105469 727.253906 214.097656 C 732.652344 214.128906 737.753906 216.910156 742.492188 219.375 C 739.523438 220.226562 736.453125 222.351562 734.074219 223.328125 C 729.53125 225.328125 724.570312 226.085938 719.613281 226.136719 C 725.40625 226.484375 731.417969 225.589844 736.628906 222.921875 C 739.300781 221.652344 743.824219 218.878906 746.699219 220.378906 C 747.386719 220.769531 748.058594 221.394531 748.839844 221.714844 C 749.265625 221.894531 749.71875 222.019531 750.175781 222.074219 C 753.097656 222.421875 753.828125 219.941406 757.027344 222.175781 C 758.621094 223.320312 760.042969 225.074219 761.839844 226.148438 C 762.929688 226.789062 764.066406 227.273438 765.140625 227.90625 C 773.472656 232.894531 781.066406 239.070312 787.621094 246.265625 C 786.109375 246.011719 784.566406 246.082031 783.054688 246.183594 C 778.808594 246.34375 774.789062 247.914062 770.902344 249.484375 C 766.75 251.171875 761.082031 253.496094 756.941406 255.21875 C 761.132812 253.636719 766.859375 251.445312 771.042969 249.847656 C 774.164062 248.699219 777.3125 247.484375 780.613281 247.03125 C 782.242188 246.824219 783.9375 246.75 785.578125 246.773438 C 788.207031 246.816406 790.09375 247.65625 792.277344 248.976562 C 786.890625 251.773438 781.390625 254.292969 775.648438 256.25 C 772.125 257.488281 768.535156 258.488281 764.929688 259.460938 C 774.683594 258.464844 784.410156 254.804688 792.34375 249.015625 C 792.382812 249.042969 792.421875 249.066406 792.464844 249.089844 C 793.917969 249.9375 795.425781 250.71875 796.960938 251.417969 C 797.601562 251.660156 798.039062 252.289062 797.992188 252.976562 Z M 946.515625 302.980469 C 947.1875 303.660156 949.675781 305.59375 948.921875 306.574219 C 948.4375 307.238281 947.453125 307.496094 946.679688 307.167969 C 945.472656 306.695312 944.40625 305.703125 943.382812 304.863281 C 941.777344 303.492188 940.054688 302.109375 938.140625 301.15625 C 935.976562 300.054688 933.730469 299.253906 931.414062 298.808594 C 932.289062 298.710938 933.175781 298.59375 934.085938 298.441406 C 935.476562 298.167969 937.207031 297.859375 938.003906 296.574219 C 938.960938 296.878906 939.882812 297.191406 940.792969 297.539062 C 942.644531 299.410156 944.546875 301.25 946.515625 302.980469 Z M 952.433594 298.941406 C 953.105469 299.527344 954.140625 300.210938 954.136719 301.144531 C 954.113281 301.785156 953.523438 302.375 952.949219 302.566406 C 951.742188 302.894531 950.476562 301.921875 949.492188 301.273438 C 948.328125 300.441406 947.15625 299.570312 945.875 298.910156 C 944.175781 298.003906 942.359375 297.34375 940.503906 296.910156 L 940.5 296.90625 L 940.457031 296.898438 C 939.667969 296.714844 938.863281 296.578125 938.0625 296.480469 C 938.109375 296.394531 938.152344 296.308594 938.191406 296.214844 C 938.246094 296.109375 938.292969 295.996094 938.335938 295.882812 C 941.484375 295.949219 944.59375 296.363281 947.671875 297.019531 C 948.492188 297.152344 949.5625 297.410156 950.660156 297.5625 C 951.25 298.027344 951.851562 298.480469 952.433594 298.941406 Z M 952.433594 298.941406 " fill-opacity="1" fill-rule="nonzero"/><path fill="#231f20" d="M 660.941406 621.976562 C 661.605469 622.832031 662.25 623.683594 662.828125 624.574219 C 661.171875 624.640625 659.539062 625.054688 658.195312 625.820312 C 659.898438 625.75 661.523438 625.609375 663.207031 625.605469 C 663.292969 625.605469 663.375 625.605469 663.457031 625.605469 C 663.867188 626.332031 664.222656 627.089844 664.5 627.898438 C 664.757812 628.621094 664.953125 629.371094 665.144531 630.175781 C 665.578125 628.644531 665.335938 627.03125 664.648438 625.613281 C 665.832031 625.636719 667.007812 625.695312 668.226562 625.714844 C 666.996094 625.050781 665.535156 624.679688 664.046875 624.585938 C 663.257812 623.449219 662.175781 622.515625 660.941406 621.976562 Z M 660.941406 621.976562 " fill-opacity="1" fill-rule="nonzero"/><path fill="#231f20" d="M 659.9375 629.261719 C 659.152344 628.125 658.066406 627.191406 656.832031 626.648438 C 657.496094 627.507812 658.140625 628.359375 658.71875 629.246094 C 657.0625 629.316406 655.429688 629.726562 654.085938 630.496094 C 655.789062 630.421875 657.414062 630.285156 659.097656 630.28125 C 659.183594 630.28125 659.265625 630.28125 659.347656 630.28125 C 659.757812 631.007812 660.113281 631.765625 660.390625 632.574219 C 660.648438 633.296875 660.84375 634.046875 661.035156 634.847656 C 661.46875 633.320312 661.226562 631.707031 660.539062 630.289062 C 661.726562 630.3125 662.898438 630.371094 664.117188 630.390625 C 662.886719 629.726562 661.429688 629.355469 659.9375 629.261719 Z M 659.9375 629.261719 " fill-opacity="1" fill-rule="nonzero"/><g clip-path="url(#17d2ef29db)"><path fill="#231f20" d="M 575.445312 604 C 571.15625 602 566.566406 600.988281 561.796875 600.988281 C 559.160156 600.988281 556.535156 601.304688 553.996094 601.933594 C 549.101562 603.144531 544.488281 605.539062 540.652344 608.851562 L 540.640625 608.863281 C 535.742188 613.105469 532.261719 618.628906 530.578125 624.847656 C 530.578125 624.851562 530.578125 624.855469 530.574219 624.859375 C 529.832031 627.605469 529.453125 630.453125 529.453125 633.328125 C 529.453125 635.382812 529.648438 637.4375 530.03125 639.433594 C 531.347656 646.320312 534.964844 652.707031 540.214844 657.414062 C 546.113281 662.707031 553.730469 665.640625 561.652344 665.667969 C 561.699219 665.671875 561.75 665.671875 561.796875 665.671875 C 569.179688 665.671875 576.128906 663.25 581.898438 658.667969 C 587.546875 654.183594 591.574219 647.871094 593.25 640.898438 C 593.839844 638.429688 594.140625 635.882812 594.140625 633.328125 C 594.140625 628.960938 593.285156 624.726562 591.597656 620.738281 C 588.46875 613.339844 582.730469 607.394531 575.445312 604 Z M 540.808594 609.644531 C 540.90625 609.554688 541.003906 609.46875 541.105469 609.378906 L 541.117188 609.371094 C 544.867188 606.132812 549.378906 603.792969 554.164062 602.609375 C 554.269531 602.582031 554.375 602.558594 554.480469 602.535156 C 555.582031 603.253906 556.703125 603.949219 557.824219 604.636719 C 558.648438 605.132812 560.203125 606.0625 561.21875 606.65625 C 559.515625 609.238281 557.734375 612.027344 556.125 614.652344 C 555.1875 615.085938 554.257812 615.542969 553.324219 615.984375 C 550.558594 617.324219 547.808594 618.699219 545.113281 620.179688 C 545.113281 620.167969 545.109375 620.160156 545.109375 620.148438 C 542.730469 618.785156 540.316406 617.476562 537.800781 616.371094 C 539.253906 614.632812 540.433594 611.957031 540.808594 609.644531 Z M 530.585938 638.597656 C 530.296875 636.867188 530.148438 635.097656 530.148438 633.328125 C 530.148438 631.378906 530.332031 629.445312 530.683594 627.542969 C 530.5 630.753906 530.675781 633.984375 531.042969 637.183594 C 530.882812 637.652344 530.726562 638.121094 530.585938 638.597656 Z M 561.773438 664.976562 C 561.742188 664.976562 561.710938 664.976562 561.667969 664.972656 C 553.949219 664.945312 546.539062 662.109375 540.78125 656.988281 C 542.171875 656.238281 543.46875 654.828125 544.125 653.382812 C 545.128906 653.570312 546.132812 653.761719 547.140625 653.933594 C 550.046875 654.441406 553.039062 654.9375 555.964844 655.3125 C 553.125 654.515625 550.175781 653.796875 547.300781 653.136719 C 546.417969 652.925781 545.527344 652.730469 544.636719 652.535156 C 544.457031 652.125 544.066406 651.261719 544.066406 651.261719 C 542.570312 647.976562 540.933594 644.488281 539.328125 641.226562 C 540.820312 639.136719 542.28125 637.023438 543.707031 634.886719 C 544.195312 634.148438 544.6875 633.40625 545.160156 632.652344 C 544.574219 633.324219 544.003906 634.003906 543.4375 634.683594 C 541.75 636.722656 540.097656 638.789062 538.476562 640.878906 C 536.667969 639.277344 533.988281 637.859375 531.664062 637.289062 C 531.664062 637.257812 531.667969 637.203125 531.667969 637.203125 C 531.835938 633.382812 531.714844 629.535156 531.0625 625.765625 C 531.121094 625.527344 531.179688 625.285156 531.246094 625.046875 C 531.246094 625.042969 531.246094 625.039062 531.25 625.035156 C 531.292969 624.875 531.335938 624.714844 531.382812 624.554688 C 532.640625 623.484375 533.722656 622.261719 534.761719 620.984375 C 535.910156 619.539062 536.984375 618.050781 537.800781 616.375 L 537.800781 616.371094 C 537.800781 616.371094 537.800781 616.371094 537.800781 616.375 C 537.800781 616.371094 537.800781 616.371094 537.800781 616.371094 C 539.824219 617.953125 541.964844 619.367188 544.132812 620.730469 C 544.191406 622.679688 544.285156 624.625 544.441406 626.570312 C 544.605469 628.605469 544.808594 630.636719 545.160156 632.652344 C 547.058594 633.449219 549.03125 633.941406 551.03125 634.351562 C 553.035156 634.738281 555.046875 635.039062 557.105469 635.023438 C 558.648438 633.601562 559.941406 631.984375 561.175781 630.304688 C 562.390625 628.613281 563.53125 626.882812 564.402344 624.976562 C 563.414062 623.074219 562.167969 621.355469 560.847656 619.683594 C 559.613281 618.160156 558.328125 616.6875 556.859375 615.382812 C 558.644531 612.605469 560.515625 609.578125 562.199219 606.742188 L 562.292969 606.585938 C 565.9375 607.144531 569.628906 607.15625 573.300781 606.925781 L 573.496094 606.910156 C 573.496094 606.90625 573.5 606.902344 573.503906 606.902344 C 574.550781 608.679688 575.804688 610.296875 577.125 611.875 C 578.546875 613.535156 580.027344 615.132812 581.742188 616.515625 C 580.660156 614.597656 579.324219 612.875 577.921875 611.199219 C 576.574219 609.632812 575.175781 608.121094 573.582031 606.792969 C 574.117188 606.082031 574.632812 605.363281 575.109375 604.609375 C 575.125 604.617188 575.136719 604.621094 575.152344 604.628906 C 582.28125 607.953125 587.894531 613.769531 590.957031 621.007812 C 591.007812 621.125 591.054688 621.242188 591.101562 621.359375 C 590.820312 622.160156 590.558594 622.964844 590.3125 623.773438 C 589.175781 622.335938 587.859375 621.089844 586.480469 619.894531 C 584.996094 618.636719 583.464844 617.453125 581.742188 616.515625 C 581.742188 616.515625 581.738281 616.515625 581.738281 616.519531 C 581.738281 616.515625 581.742188 616.515625 581.742188 616.515625 C 580.488281 617.773438 579.488281 619.214844 578.554688 620.710938 C 577.734375 622.0625 576.980469 623.441406 576.433594 624.933594 C 576.355469 624.933594 576.273438 624.929688 576.273438 624.929688 C 572.320312 624.789062 568.355469 624.726562 564.402344 624.976562 C 568.222656 625.523438 572.074219 625.777344 575.925781 625.953125 C 576.8125 627.710938 577.726562 629.457031 578.679688 631.179688 C 579.664062 632.957031 580.671875 634.710938 581.769531 636.417969 C 580.449219 637.980469 579.101562 640.074219 578.082031 641.71875 C 577.074219 643.398438 575.839844 645.511719 575.066406 647.40625 C 573.003906 646.882812 570.910156 646.648438 568.796875 646.496094 C 566.816406 646.375 564.839844 646.328125 562.859375 646.53125 C 562.824219 646.457031 562.789062 646.375 562.789062 646.375 C 561.058594 642.511719 559.242188 638.683594 557.105469 635.023438 C 558.402344 638.953125 560.019531 642.765625 561.722656 646.53125 C 560.734375 647.910156 559.765625 649.304688 558.828125 650.71875 C 557.832031 652.226562 556.859375 653.742188 555.964844 655.3125 C 556.761719 656.863281 557.804688 658.222656 558.917969 659.535156 C 560.003906 660.777344 561.136719 661.953125 562.472656 662.9375 C 562.464844 662.957031 562.453125 662.988281 562.453125 662.988281 C 562.21875 663.648438 561.988281 664.308594 561.773438 664.976562 Z M 561.867188 664.976562 C 562.195312 664.410156 562.511719 663.839844 562.820312 663.265625 C 564.992188 662.570312 567.132812 661.789062 569.261719 660.964844 C 571.382812 660.140625 573.480469 659.269531 575.5625 658.34375 C 576.558594 658.386719 577.558594 658.414062 578.558594 658.425781 C 579.402344 658.433594 580.25 658.4375 581.09375 658.414062 C 575.542969 662.695312 568.90625 664.960938 561.867188 664.976562 Z M 592.574219 640.738281 C 590.9375 647.558594 586.992188 653.734375 581.464844 658.125 C 581.386719 658.1875 581.308594 658.246094 581.226562 658.308594 C 580.355469 658.144531 579.480469 658.007812 578.601562 657.875 C 577.585938 657.730469 576.574219 657.597656 575.558594 657.480469 C 575.847656 655.882812 575.894531 654.277344 575.863281 652.660156 C 575.808594 650.925781 575.671875 649.210938 575.226562 647.515625 C 576.570312 645.964844 577.945312 643.933594 578.972656 642.261719 C 579.96875 640.609375 581.175781 638.441406 581.949219 636.550781 C 583.511719 636.71875 585.050781 636.597656 586.59375 636.390625 C 588.023438 636.175781 589.425781 635.890625 590.78125 635.371094 C 590.941406 635.824219 591.101562 636.285156 591.261719 636.71875 C 591.703125 637.921875 592.164062 639.113281 592.675781 640.285156 C 592.640625 640.433594 592.609375 640.585938 592.574219 640.738281 Z M 592.75 639.949219 C 592.527344 638.792969 592.265625 637.644531 591.984375 636.5 C 591.871094 636.046875 591.753906 635.597656 591.636719 635.148438 C 591.59375 633.300781 591.511719 631.453125 591.382812 629.609375 C 591.253906 627.757812 591.085938 625.90625 590.855469 624.066406 C 590.984375 623.246094 591.101562 622.421875 591.199219 621.597656 C 592.6875 625.328125 593.445312 629.269531 593.445312 633.328125 C 593.445312 635.558594 593.210938 637.78125 592.75 639.949219 Z M 592.75 639.949219 " fill-opacity="1" fill-rule="nonzero"/></g><path fill="#231f20" d="M 683.019531 177.183594 C 680.273438 178.105469 677.910156 180.28125 676.769531 182.929688 C 678.285156 181.132812 680.023438 179.617188 682.140625 178.644531 C 685.222656 177.203125 688.71875 177.359375 691.886719 178.570312 C 689.429688 176.6875 685.957031 176.179688 683.019531 177.183594 Z M 683.019531 177.183594 " fill-opacity="1" fill-rule="nonzero"/><path fill="#231f20" d="M 664.304688 182.347656 C 661.285156 183.070312 658.625 185.359375 657.558594 188.265625 C 659.589844 185.546875 662.449219 183.542969 665.828125 183.109375 C 668.136719 182.796875 670.417969 183.140625 672.65625 183.847656 C 670.277344 182.222656 667.117188 181.652344 664.304688 182.347656 Z M 664.304688 182.347656 " fill-opacity="1" fill-rule="nonzero"/><path fill="#231f20" d="M 675.402344 195.585938 C 675.390625 196.746094 675.070312 197.847656 675.183594 199.015625 C 675.292969 200.472656 676.324219 201.4375 677.796875 201.359375 C 678.597656 201.324219 679.34375 201.105469 680.039062 200.800781 C 679.285156 200.882812 678.53125 200.953125 677.824219 200.847656 C 675.820312 200.589844 675.984375 198.898438 676.261719 197.371094 C 676.355469 196.796875 676.417969 196.214844 676.445312 195.636719 C 676.570312 192.558594 675.851562 189.492188 674.554688 186.726562 C 675.042969 189.675781 675.546875 192.613281 675.402344 195.585938 Z M 675.402344 195.585938 " fill-opacity="1" fill-rule="nonzero"/><path fill="#231f20" d="M 687.917969 206.167969 C 683.535156 208.617188 679.445312 209.726562 674.421875 209.804688 C 679.082031 211.292969 684.628906 209.78125 687.917969 206.167969 Z M 687.917969 206.167969 " fill-opacity="1" fill-rule="nonzero"/><path fill="#231f20" d="M 705.785156 180.128906 C 706.351562 180.808594 706.636719 181.691406 706.988281 182.53125 C 707.242188 183.210938 707.429688 183.917969 707.546875 184.632812 C 707.851562 187.046875 707.789062 190.996094 705.417969 192.355469 C 705.113281 192.519531 704.789062 192.664062 704.472656 192.699219 C 704.582031 192.4375 704.804688 192.078125 704.917969 191.871094 C 705.554688 190.820312 706.128906 189.296875 705.207031 188.210938 C 704.652344 187.585938 703.980469 187.429688 703.664062 186.707031 C 703.304688 185.898438 703.214844 184.472656 704.226562 184.113281 C 705.285156 183.8125 706.386719 184.445312 707.136719 185.210938 C 706.699219 184.59375 706.085938 184.070312 705.328125 183.8125 C 703.84375 183.300781 702.816406 184.242188 702.828125 185.738281 C 702.796875 186.570312 703.121094 187.496094 703.789062 188.019531 C 704.105469 188.292969 704.402344 188.492188 704.570312 188.722656 C 705.160156 189.5625 704.574219 190.605469 704.097656 191.390625 C 703.902344 191.722656 703.652344 192.082031 703.503906 192.460938 C 703.347656 192.8125 703.398438 193.335938 703.785156 193.5625 C 704.480469 193.9375 705.304688 193.554688 705.914062 193.257812 C 707.433594 192.449219 708.183594 190.753906 708.464844 189.164062 C 708.890625 186.652344 708.65625 183.988281 707.496094 181.699219 C 705.28125 176.546875 703.183594 180.714844 702.480469 183.941406 C 702.785156 183.089844 704.601562 178.742188 705.785156 180.128906 Z M 705.785156 180.128906 " fill-opacity="1" fill-rule="nonzero"/><path fill="#231f20" d="M 685.925781 187.796875 C 687 187.550781 687.578125 186.074219 687.21875 184.496094 C 686.859375 182.917969 685.703125 181.832031 684.628906 182.078125 C 683.558594 182.320312 682.980469 183.796875 683.339844 185.375 C 683.699219 186.953125 684.855469 188.035156 685.925781 187.796875 Z M 685.925781 187.796875 " fill-opacity="1" fill-rule="nonzero"/><path fill="#231f20" d="M 665.394531 187.324219 C 664.324219 187.566406 663.746094 189.042969 664.105469 190.621094 C 664.464844 192.199219 665.621094 193.28125 666.695312 193.039062 C 667.765625 192.796875 668.34375 191.320312 667.984375 189.742188 C 667.625 188.164062 666.46875 187.078125 665.394531 187.324219 Z M 665.394531 187.324219 " fill-opacity="1" fill-rule="nonzero"/></svg>