<svg xmlns="http://www.w3.org/2000/svg" xmlns:xlink="http://www.w3.org/1999/xlink" width="1920" zoomAndPan="magnify" viewBox="0 0 1440 809.999993" height="1080" preserveAspectRatio="xMidYMid meet" version="1.0"><defs><clipPath id="a876184979"><path d="M 779 297 L 818.851562 297 L 818.851562 465 L 779 465 Z M 779 297 " clip-rule="nonzero"/></clipPath><clipPath id="a10672459e"><path d="M 621 99 L 818.851562 99 L 818.851562 711.496094 L 621 711.496094 Z M 621 99 " clip-rule="nonzero"/></clipPath></defs><path fill="#000000" d="M 764.910156 675.757812 C 770.125 690.011719 782.855469 693.808594 781.410156 702.710938 C 781.316406 703.285156 781.144531 704.28125 780.511719 705.390625 C 777.195312 711.242188 766.65625 710.6875 763.257812 710.511719 C 758.214844 710.246094 752.140625 709.929688 747.367188 705.703125 C 743.527344 702.292969 742.230469 697.855469 737.257812 696.683594 C 734.992188 696.152344 734.359375 696.855469 733.15625 696.027344 C 729.65625 693.613281 731.699219 685.304688 733.375 678.480469 C 734.183594 675.203125 735.839844 668.46875 737.984375 668.492188 C 739.652344 668.511719 740.082031 672.574219 742.292969 672.785156 C 744.15625 672.96875 744.894531 670.179688 747.824219 667.917969 C 751.488281 665.078125 757.207031 664.132812 760.53125 666.0625 C 763.398438 667.722656 763.0625 670.703125 764.910156 675.757812 Z M 764.910156 675.757812 " fill-opacity="1" fill-rule="nonzero"/><path fill="#000000" d="M 703.929688 678.480469 C 705.605469 685.304688 707.648438 693.613281 704.144531 696.027344 C 702.945312 696.855469 702.3125 696.152344 700.046875 696.683594 C 695.074219 697.855469 693.777344 702.292969 689.9375 705.703125 C 685.167969 709.929688 679.089844 710.246094 674.046875 710.511719 C 670.652344 710.6875 660.109375 711.242188 656.792969 705.390625 C 656.160156 704.28125 655.992188 703.285156 655.898438 702.710938 C 654.449219 693.808594 667.179688 690.011719 672.394531 675.757812 C 674.242188 670.707031 673.90625 667.726562 676.773438 666.0625 C 676.773438 666.0625 676.777344 666.0625 676.777344 666.0625 C 680.101562 664.132812 685.816406 665.078125 689.480469 667.917969 C 692.410156 670.179688 693.148438 672.96875 695.011719 672.785156 C 697.222656 672.574219 697.65625 668.515625 699.316406 668.492188 L 699.320312 668.492188 C 701.46875 668.46875 703.121094 675.203125 703.929688 678.480469 Z M 703.929688 678.480469 " fill-opacity="1" fill-rule="nonzero"/><path fill="#ffffff" d="M 730.976562 345.597656 C 728.621094 336.050781 722.769531 327.6875 714.648438 322.203125 C 713.6875 322.992188 712.730469 323.777344 711.769531 324.5625 C 707.089844 323.796875 702.414062 323.027344 697.734375 322.261719 C 694.851562 320.027344 691.964844 317.789062 689.074219 315.554688 C 682.765625 316.085938 676.789062 318.125 671.574219 321.355469 C 671.574219 321.355469 671.574219 321.359375 671.570312 321.359375 C 669.84375 324.117188 668.113281 326.878906 666.386719 329.636719 L 666.382812 329.636719 C 663.015625 332.683594 659.644531 335.734375 656.277344 338.785156 L 656.277344 338.789062 C 656.277344 338.789062 656.273438 338.792969 656.273438 338.792969 C 654.863281 341.921875 653.84375 345.285156 653.277344 348.832031 C 652.875 351.355469 652.71875 353.867188 652.796875 356.332031 C 653.339844 355.515625 653.882812 354.707031 654.421875 353.894531 C 657.203125 356 659.984375 358.101562 662.765625 360.210938 L 667.199219 375.679688 C 665.347656 377.148438 663.5 378.617188 661.648438 380.085938 C 661.75 380.210938 661.851562 380.332031 661.953125 380.453125 C 662.402344 380.5 662.816406 380.550781 663.195312 380.601562 C 668.582031 381.324219 669.542969 382.632812 669.800781 383.023438 C 670.484375 384.066406 670.785156 385.660156 670.128906 386.820312 C 670.011719 387.027344 669.84375 387.257812 669.546875 387.484375 C 673.148438 390.039062 677.222656 392.015625 681.648438 393.257812 C 681.652344 393.261719 681.65625 393.257812 681.65625 393.257812 C 683.417969 393.246094 684.839844 393.125 685.757812 393.039062 C 686.140625 393.003906 686.515625 392.964844 686.882812 392.921875 C 694.582031 392.035156 699.511719 389.632812 702.085938 392 C 702.242188 392.144531 702.625 392.496094 702.820312 392.964844 C 704.273438 392.472656 705.0625 392.253906 705.824219 392.4375 C 707.75 391.75 709.605469 390.914062 711.390625 389.941406 C 711.558594 389.851562 711.726562 389.757812 711.890625 389.664062 L 711.898438 389.664062 C 719.496094 385.378906 725.625 378.648438 729.074219 370.339844 C 730.253906 367.507812 731.117188 364.5 731.621094 361.34375 C 732.484375 355.929688 732.210938 350.601562 730.976562 345.597656 Z M 689.507812 331.664062 L 689.511719 331.660156 C 692.097656 336.230469 694.6875 340.800781 697.273438 345.367188 C 693.640625 348.992188 690.007812 352.621094 686.375 356.246094 L 672.210938 351.007812 C 672.789062 345.992188 673.367188 340.976562 673.945312 335.960938 C 679.132812 334.527344 684.320312 333.097656 689.507812 331.664062 Z M 704.390625 387.851562 C 698.828125 389.128906 693.261719 390.402344 687.695312 391.679688 L 687.691406 391.679688 C 685.46875 388.074219 683.242188 384.46875 681.015625 380.859375 L 690.496094 371.425781 C 695.703125 372.613281 700.90625 373.800781 706.113281 374.988281 C 705.539062 379.277344 704.964844 383.5625 704.394531 387.851562 Z M 728.078125 363.132812 C 724.171875 363.070312 720.273438 363.003906 716.371094 362.941406 L 711.691406 348.265625 C 714.511719 344.976562 717.332031 341.6875 720.152344 338.398438 C 723.257812 342.054688 726.355469 345.707031 729.457031 349.367188 C 728.996094 353.957031 728.535156 358.546875 728.078125 363.132812 Z M 728.078125 363.132812 " fill-opacity="1" fill-rule="nonzero"/><path fill="#ecc19c" d="M 661.902344 517.09375 C 662.769531 524.15625 663.222656 531.921875 662.957031 540.269531 C 662.914062 541.734375 662.84375 543.179688 662.757812 544.59375 C 663.1875 544.496094 663.652344 544.535156 664.09375 544.746094 C 668.484375 546.882812 675.3125 549.433594 683.953125 549.902344 C 690.878906 550.277344 696.71875 549.1875 700.945312 547.976562 C 701.570312 547.796875 702.179688 547.929688 702.648438 548.261719 C 704.09375 543.269531 704.933594 540.375 705.09375 539.828125 C 706.472656 535.003906 708.03125 526.535156 708.699219 510.53125 C 702.105469 514.179688 692.355469 518.132812 680.117188 518.753906 C 673.398438 519.09375 667.28125 518.363281 661.902344 517.09375 Z M 661.902344 517.09375 " fill-opacity="1" fill-rule="nonzero"/><path fill="#ecc19c" d="M 764.644531 517.433594 C 748.855469 517.742188 736.390625 512.769531 728.730469 508.636719 C 729.398438 526.28125 730.847656 535.082031 732.214844 539.828125 C 732.3125 540.183594 733.214844 543.28125 734.652344 548.265625 C 735.121094 547.933594 735.730469 547.796875 736.359375 547.976562 C 740.585938 549.1875 746.425781 550.277344 753.351562 549.902344 C 761.996094 549.433594 768.820312 546.882812 773.214844 544.746094 C 773.652344 544.53125 774.117188 544.496094 774.546875 544.59375 C 774.460938 543.179688 774.394531 541.734375 774.347656 540.269531 C 774.074219 531.640625 774.566406 523.636719 775.488281 516.386719 C 772.109375 516.976562 768.488281 517.355469 764.644531 517.433594 Z M 764.644531 517.433594 " fill-opacity="1" fill-rule="nonzero"/><path fill="#ecc19c" d="M 748.902344 153.921875 C 748.769531 157.058594 748.679688 159.0625 747.367188 161.242188 C 745.46875 164.386719 741.511719 167.097656 739.402344 165.984375 C 738.980469 170.765625 738.738281 176 738.820312 181.632812 C 738.855469 183.875 738.933594 186.046875 739.054688 188.148438 C 739.066406 188.304688 739.078125 188.457031 739.085938 188.617188 C 739.101562 188.875 739.121094 189.132812 739.132812 189.394531 L 739.132812 189.402344 C 739.167969 190.019531 739.332031 190.621094 739.625 191.167969 C 740.339844 192.503906 741.011719 194.253906 741.128906 196.324219 C 741.613281 204.78125 732.539062 212.890625 724.042969 215.148438 C 709.195312 219.085938 692.402344 206.3125 692.511719 198.058594 C 692.515625 197.765625 692.613281 193.964844 694.816406 191.925781 C 695.269531 191.503906 695.554688 190.929688 695.566406 190.3125 L 695.566406 190.300781 C 695.570312 190.03125 695.578125 189.765625 695.578125 189.5 C 695.578125 189.347656 695.578125 189.191406 695.578125 189.039062 C 695.582031 186.367188 695.414062 183.871094 695.148438 181.585938 C 695.066406 181.484375 694.988281 181.386719 694.921875 181.300781 C 693.105469 179.058594 691.40625 176.15625 689.96875 167.84375 C 688.777344 167.320312 687.21875 166.371094 686.125 164.683594 C 685.859375 164.265625 685.160156 163.105469 684.859375 158.464844 C 684.507812 153.027344 684.339844 149.621094 686.542969 147.742188 C 686.953125 147.394531 687.382812 147.152344 687.785156 146.980469 C 687.53125 142.933594 687.332031 138.320312 687.253906 133.21875 C 689.746094 133.648438 691.535156 132.164062 696.941406 129.960938 C 700.421875 128.542969 722.621094 119.480469 732.390625 127.957031 C 734.039062 129.382812 734.808594 130.855469 735.914062 132.957031 C 740.886719 142.414062 738.503906 153.285156 739.054688 153.320312 C 739.574219 153.351562 739.410156 148.339844 742.851562 145.726562 C 743.035156 145.585938 743.785156 145.015625 744.695312 144.671875 C 745.40625 144.398438 746.210938 144.265625 746.925781 144.570312 C 749.273438 145.574219 749.050781 150.640625 748.902344 153.921875 Z M 748.902344 153.921875 " fill-opacity="1" fill-rule="nonzero"/><g clip-path="url(#a876184979)"><path fill="#ecc19c" d="M 817.320312 422.535156 C 816.328125 414.785156 815.9375 413.542969 815.667969 409.382812 C 815.394531 405.175781 815.511719 402.09375 815.558594 400.519531 C 816.773438 359.132812 813.207031 336.34375 813.207031 336.34375 C 811.835938 327.578125 810.101562 320.542969 808.953125 306.859375 C 808.667969 303.457031 808.484375 300.410156 808.363281 297.847656 C 803.125 298.910156 797.34375 299.804688 791.082031 300.363281 C 788.054688 300.632812 784.273438 300.53125 779.855469 300.5625 C 781.199219 307.707031 782.894531 317.652344 784.398438 329.585938 C 786.21875 344.113281 785.460938 343.34375 786.835938 352.527344 C 790.128906 374.542969 794.585938 379.5 795.292969 397.109375 C 795.804688 409.867188 793.777344 415.070312 792.980469 416.921875 C 791.589844 420.15625 790.207031 421.84375 789.226562 424.789062 C 788.957031 425.582031 788.722656 426.464844 788.523438 427.488281 C 787.714844 431.625 788.6875 432 788.523438 440.75 C 788.394531 447.46875 787.765625 450.375 789.402344 451.316406 C 790.660156 452.039062 792.726562 451.285156 793.898438 450.132812 C 794.140625 449.890625 794.34375 449.640625 794.507812 449.351562 C 795.335938 447.917969 795.269531 445.675781 795.183594 440.253906 C 795.089844 434.867188 795.050781 432.171875 795.144531 432.160156 C 795.515625 432.113281 799.355469 440.460938 796.832031 448.949219 C 796.398438 450.414062 795.8125 451.742188 795.191406 452.960938 C 793.105469 457.070312 790.605469 459.925781 791.992188 462.488281 C 792.054688 462.609375 792.84375 464.019531 794.078125 464.136719 C 794.507812 464.179688 794.964844 464.066406 795.578125 463.554688 C 795.773438 463.808594 796.019531 464.011719 796.316406 464.121094 C 796.554688 464.203125 796.808594 464.226562 797.15625 464.109375 C 797.53125 463.984375 798.007812 463.707031 798.679688 463.175781 C 798.964844 463.484375 799.304688 463.726562 799.714844 463.839844 C 800.140625 463.960938 800.683594 463.957031 801.992188 463.042969 C 802.152344 463.132812 802.328125 463.207031 802.515625 463.257812 C 804.644531 463.855469 806.976562 461.378906 809.570312 458.628906 C 811.347656 456.746094 813.175781 454.800781 814.683594 451.597656 C 815.726562 449.378906 816.144531 447.277344 816.96875 443.066406 C 817.707031 439.328125 818.15625 437.042969 818.308594 434.089844 C 818.367188 432.949219 818.414062 431.109375 817.320312 422.535156 Z M 817.320312 422.535156 " fill-opacity="1" fill-rule="nonzero"/></g><path fill="#ecc19c" d="M 705.824219 392.4375 C 705.0625 392.253906 704.273438 392.472656 702.820312 392.964844 C 702.625 392.496094 702.242188 392.144531 702.085938 392 C 699.511719 389.632812 694.582031 392.035156 686.882812 392.921875 C 686.515625 392.964844 686.140625 393.003906 685.757812 393.039062 C 684.839844 393.125 683.417969 393.246094 681.65625 393.257812 C 681.65625 393.257812 681.652344 393.261719 681.648438 393.257812 C 677.222656 392.015625 673.148438 390.039062 669.546875 387.484375 C 669.84375 387.257812 670.011719 387.027344 670.128906 386.820312 C 670.785156 385.660156 670.484375 384.066406 669.800781 383.023438 C 669.542969 382.632812 668.582031 381.324219 663.195312 380.601562 C 662.816406 380.550781 662.402344 380.5 661.953125 380.453125 C 661.851562 380.332031 661.75 380.210938 661.648438 380.085938 L 661.648438 380.082031 C 656.292969 373.476562 653.0625 365.179688 652.796875 356.332031 C 652.71875 353.867188 652.875 351.355469 653.277344 348.832031 C 653.84375 345.285156 654.863281 341.921875 656.273438 338.792969 L 656.273438 338.789062 L 656.277344 338.789062 L 656.277344 338.785156 C 656.636719 337.980469 657.023438 337.1875 657.4375 336.417969 C 654.902344 331.800781 653.417969 328.851562 652.816406 325.535156 C 652.792969 325.425781 652.773438 325.3125 652.753906 325.199219 C 652.570312 324.082031 652.464844 322.785156 653.660156 315.128906 C 654.164062 311.917969 654.894531 307.570312 655.941406 302.375 C 652.496094 303.597656 647 304.925781 640.355469 304.132812 C 635.359375 303.539062 631.222656 301.921875 628.042969 300.199219 C 627.917969 303.800781 627.796875 308.316406 627.753906 313.488281 C 627.648438 326.34375 627.621094 332.902344 628.792969 339.492188 C 630.496094 349.09375 633.652344 355.9375 636.007812 361.039062 C 639.933594 369.535156 644.75 376.898438 651.445312 387.148438 C 652.148438 388.226562 652.796875 389.207031 653.375 390.066406 C 653.566406 390.363281 653.753906 390.640625 653.929688 390.90625 C 654.613281 391.921875 655.484375 392.789062 656.511719 393.453125 C 658.464844 394.722656 660.886719 396.179688 663.738281 397.640625 C 667.011719 399.316406 670.273438 400.992188 674.722656 402.257812 C 678.257812 403.257812 684.539062 404.964844 692.308594 403.574219 C 695.847656 402.941406 698.070312 401.953125 702.210938 400.109375 C 707.527344 397.738281 708.269531 396.527344 708.320312 395.570312 C 708.328125 395.4375 708.320312 395.296875 708.304688 395.160156 C 710.214844 394.269531 711.484375 393.507812 711.796875 392.21875 C 711.980469 391.460938 711.820312 390.597656 711.390625 389.941406 C 709.605469 390.914062 707.75 391.75 705.824219 392.4375 Z M 705.824219 392.4375 " fill-opacity="1" fill-rule="nonzero"/><path fill="#004aad" d="M 702.648438 548.261719 C 702.179688 547.929688 701.570312 547.796875 700.945312 547.976562 C 696.71875 549.1875 690.878906 550.277344 683.953125 549.902344 C 675.3125 549.433594 668.484375 546.882812 664.09375 544.746094 C 663.652344 544.53125 663.1875 544.496094 662.757812 544.59375 C 662.003906 544.769531 661.371094 545.367188 661.21875 546.207031 C 660.898438 548.007812 660.554688 550.058594 660.21875 552.324219 C 660.019531 553.679688 659.820312 555.113281 659.628906 556.617188 C 659.410156 558.34375 657.410156 574.359375 657.976562 588.53125 C 658.398438 599.0625 660.066406 604.402344 667.992188 633.496094 C 669.894531 640.480469 672.941406 651.714844 676.773438 666.058594 L 676.773438 666.0625 C 676.773438 666.0625 676.777344 666.0625 676.777344 666.0625 C 680.101562 664.132812 685.816406 665.078125 689.480469 667.917969 C 692.410156 670.179688 693.148438 672.96875 695.011719 672.785156 C 697.222656 672.574219 697.65625 668.515625 699.316406 668.492188 C 698.566406 658.8125 698.394531 651.027344 698.367188 645.984375 C 698.183594 610.96875 704.070312 591.304688 702.445312 573.5625 C 702.265625 571.648438 701.570312 565.054688 702.554688 556.394531 C 702.816406 554.074219 703.152344 552.019531 703.476562 550.308594 C 703.640625 549.46875 703.265625 548.695312 702.648438 548.261719 Z M 702.648438 548.261719 " fill-opacity="1" fill-rule="nonzero"/><path fill="#004aad" d="M 777.082031 552.324219 C 776.746094 550.058594 776.40625 548.007812 776.085938 546.207031 C 775.933594 545.367188 775.300781 544.769531 774.546875 544.59375 C 774.117188 544.496094 773.652344 544.53125 773.214844 544.746094 C 768.820312 546.882812 761.996094 549.433594 753.351562 549.902344 C 746.425781 550.277344 740.585938 549.1875 736.359375 547.976562 C 735.730469 547.796875 735.121094 547.933594 734.652344 548.265625 C 734.039062 548.699219 733.664062 549.46875 733.828125 550.308594 C 734.15625 552.019531 734.492188 554.074219 734.753906 556.398438 C 735.730469 565.054688 735.039062 571.648438 734.863281 573.5625 C 733.230469 591.304688 739.121094 610.96875 738.9375 645.984375 C 738.910156 651.027344 738.742188 658.8125 737.984375 668.492188 C 739.652344 668.511719 740.082031 672.574219 742.292969 672.785156 C 744.15625 672.96875 744.894531 670.179688 747.824219 667.917969 C 751.488281 665.078125 757.207031 664.132812 760.53125 666.0625 L 760.53125 666.058594 C 764.359375 651.714844 767.410156 640.480469 769.3125 633.496094 C 777.238281 604.402344 778.90625 599.0625 779.328125 588.53125 C 779.894531 574.359375 777.898438 558.34375 777.679688 556.617188 C 777.484375 555.113281 777.285156 553.679688 777.082031 552.324219 Z M 777.082031 552.324219 " fill-opacity="1" fill-rule="nonzero"/><path fill="#004aad" d="M 814.992188 293.898438 C 812.863281 282.710938 810.28125 265.667969 802.058594 240.351562 C 798.699219 229.996094 795.160156 217.207031 785.246094 207.746094 C 783.582031 206.15625 781.953125 204.867188 781.835938 204.773438 C 775.519531 199.796875 769.714844 197.863281 756 193.878906 C 750.199219 192.195312 745.167969 190.773438 741.171875 189.664062 C 741.164062 189.664062 741.15625 189.65625 741.148438 189.648438 C 740.480469 189.15625 739.773438 188.828125 739.085938 188.617188 C 739.101562 188.875 739.121094 189.132812 739.132812 189.394531 L 739.132812 189.402344 C 739.167969 190.019531 739.332031 190.621094 739.625 191.167969 C 740.339844 192.503906 741.011719 194.253906 741.128906 196.324219 C 741.613281 204.78125 732.539062 212.890625 724.042969 215.148438 C 709.195312 219.085938 692.402344 206.3125 692.511719 198.058594 C 692.515625 197.765625 692.613281 193.964844 694.816406 191.925781 C 695.269531 191.503906 695.554688 190.929688 695.566406 190.3125 L 695.566406 190.300781 C 695.570312 190.03125 695.578125 189.765625 695.578125 189.5 C 695.578125 189.347656 695.578125 189.191406 695.578125 189.039062 C 694.417969 189.273438 692.746094 189.800781 691.285156 191.082031 C 688.015625 192.246094 685.003906 193.386719 682.269531 194.464844 C 679.535156 195.542969 677.078125 196.558594 674.917969 197.480469 C 673.097656 198.253906 662.789062 202.691406 652.351562 209.039062 C 650.605469 210.101562 648.324219 211.542969 645.75 213.882812 C 645.535156 214.078125 641.550781 217.742188 638.375 222.90625 C 628.808594 238.464844 624.394531 265.28125 624.394531 265.28125 C 623.226562 272.40625 621.964844 282.15625 621.488281 293.910156 C 621.445312 294.972656 621.90625 295.988281 622.734375 296.660156 C 624 297.679688 625.777344 298.964844 628.042969 300.199219 C 631.222656 301.921875 635.359375 303.539062 640.355469 304.132812 C 647 304.925781 652.496094 303.597656 655.941406 302.375 C 656.121094 302.3125 656.300781 302.246094 656.472656 302.183594 C 657.535156 301.785156 658.324219 300.890625 658.578125 299.789062 L 660.066406 293.269531 C 660.140625 294.378906 660.203125 295.539062 660.25 296.757812 C 660.503906 303.082031 660.519531 313.613281 660.085938 324.496094 C 659.96875 327.507812 659.820312 330.269531 659.675781 332.722656 C 662.816406 328.125 666.886719 324.253906 671.570312 321.359375 C 671.574219 321.359375 671.574219 321.355469 671.574219 321.355469 C 676.789062 318.125 682.765625 316.085938 689.074219 315.554688 C 692.222656 315.285156 695.449219 315.394531 698.703125 315.914062 C 704.609375 316.855469 710 319.058594 714.648438 322.203125 C 722.769531 327.6875 728.621094 336.050781 730.976562 345.597656 C 732.210938 350.601562 732.484375 355.929688 731.621094 361.34375 C 731.117188 364.5 730.253906 367.507812 729.074219 370.339844 C 725.625 378.648438 719.496094 385.378906 711.898438 389.664062 L 711.890625 389.664062 C 711.726562 389.757812 711.558594 389.851562 711.390625 389.941406 C 711.820312 390.597656 711.980469 391.460938 711.796875 392.21875 C 711.484375 393.507812 710.214844 394.269531 708.304688 395.160156 C 708.320312 395.296875 708.328125 395.4375 708.320312 395.570312 C 708.269531 396.527344 707.527344 397.738281 702.210938 400.109375 C 698.070312 401.953125 695.847656 402.941406 692.308594 403.574219 C 684.539062 404.964844 678.257812 403.257812 674.722656 402.257812 C 670.273438 400.992188 667.011719 399.316406 663.738281 397.640625 C 660.886719 396.179688 658.464844 394.722656 656.511719 393.453125 C 655.484375 392.789062 654.613281 391.921875 653.929688 390.90625 C 653.753906 390.640625 653.566406 390.363281 653.375 390.066406 C 651.847656 397.644531 650.324219 405.21875 648.800781 412.796875 C 648.445312 414.570312 649.464844 416.332031 651.1875 416.898438 C 651.292969 416.929688 651.394531 416.964844 651.503906 416.996094 C 650.160156 432.472656 648.226562 451.699219 645.609375 468.234375 C 643.648438 480.652344 641.421875 492.542969 639.027344 503.878906 C 638.679688 505.527344 639.382812 507.210938 640.796875 508.121094 C 644.910156 510.773438 652.207031 514.808594 661.902344 517.09375 C 667.28125 518.363281 673.398438 519.09375 680.117188 518.753906 C 692.355469 518.132812 702.105469 514.179688 708.699219 510.53125 C 711.109375 509.207031 713.097656 507.914062 714.628906 506.84375 C 715.667969 506.117188 716.300781 504.949219 716.351562 503.683594 C 716.730469 494.179688 717.070312 484.675781 717.375 475.167969 C 717.515625 470.644531 717.652344 466.121094 717.777344 461.601562 C 719.269531 470.8125 720.492188 480.558594 721.335938 490.796875 C 721.664062 494.765625 721.917969 498.664062 722.109375 502.492188 C 722.179688 503.878906 722.910156 505.152344 724.085938 505.902344 C 725.347656 506.710938 726.902344 507.652344 728.730469 508.636719 C 736.390625 512.769531 748.855469 517.742188 764.644531 517.433594 C 768.488281 517.355469 772.109375 516.976562 775.488281 516.386719 C 786.6875 514.433594 795.210938 510.199219 800.234375 507.214844 C 801.667969 506.359375 802.46875 504.75 802.304688 503.089844 C 801.097656 490.75 799.425781 477.722656 797.15625 464.109375 C 796.808594 464.226562 796.554688 464.203125 796.316406 464.121094 C 796.019531 464.011719 795.773438 463.808594 795.578125 463.554688 C 794.964844 464.066406 794.507812 464.179688 794.078125 464.136719 C 792.84375 464.019531 792.054688 462.609375 791.992188 462.488281 C 790.605469 459.925781 793.105469 457.070312 795.191406 452.960938 C 795.082031 452.367188 794.96875 451.773438 794.859375 451.171875 C 794.742188 450.5625 794.628906 449.953125 794.507812 449.351562 C 794.34375 449.640625 794.140625 449.890625 793.898438 450.132812 C 792.726562 451.285156 790.660156 452.039062 789.402344 451.316406 C 787.765625 450.375 788.394531 447.46875 788.523438 440.75 C 788.6875 432 787.714844 431.625 788.523438 427.488281 C 788.722656 426.464844 788.957031 425.582031 789.226562 424.789062 C 788.476562 421.65625 787.714844 418.566406 786.941406 415.53125 C 788.523438 414.949219 789.476562 413.332031 789.222656 411.660156 C 789.011719 410.273438 788.808594 408.902344 788.605469 407.539062 C 785.082031 383.621094 782.820312 363.300781 781.328125 347.789062 C 779.53125 329.066406 778.484375 313.453125 777.917969 300.582031 C 778.578125 300.570312 779.222656 300.566406 779.855469 300.5625 C 784.273438 300.53125 788.054688 300.632812 791.082031 300.363281 C 797.34375 299.804688 803.125 298.910156 808.363281 297.847656 C 810 297.515625 811.585938 297.164062 813.121094 296.800781 C 814.421875 296.496094 815.242188 295.210938 814.992188 293.898438 Z M 814.992188 293.898438 " fill-opacity="1" fill-rule="nonzero"/><path fill="#231f20" d="M 721.292969 143.851562 C 719.992188 143.851562 718.941406 145.40625 718.941406 147.320312 C 718.941406 149.234375 719.992188 150.789062 721.292969 150.789062 C 722.59375 150.789062 723.644531 149.234375 723.644531 147.320312 C 723.644531 145.40625 722.59375 143.851562 721.292969 143.851562 Z M 721.292969 143.851562 " fill-opacity="1" fill-rule="nonzero"/><path fill="#231f20" d="M 697.738281 144.867188 C 696.4375 144.867188 695.386719 146.421875 695.386719 148.335938 C 695.386719 150.25 696.4375 151.800781 697.738281 151.800781 C 699.039062 151.800781 700.089844 150.25 700.089844 148.335938 C 700.089844 146.421875 699.039062 144.867188 697.738281 144.867188 Z M 697.738281 144.867188 " fill-opacity="1" fill-rule="nonzero"/><path fill="#231f20" d="M 720.714844 137.796875 C 717.308594 138.140625 714.015625 140.03125 712.003906 142.78125 C 714.21875 141.101562 716.625 139.808594 719.316406 139.242188 C 723.257812 138.382812 727.242188 139.484375 730.578125 141.707031 C 728.234375 138.902344 724.367188 137.410156 720.714844 137.796875 Z M 720.714844 137.796875 " fill-opacity="1" fill-rule="nonzero"/><path fill="#231f20" d="M 699.34375 140.117188 C 702.085938 140.363281 704.625 141.359375 707.023438 142.765625 C 704.699219 140.273438 701.207031 138.789062 697.78125 138.851562 C 694.113281 138.898438 690.449219 140.835938 688.453125 143.902344 C 691.503906 141.296875 695.328125 139.734375 699.34375 140.117188 Z M 699.34375 140.117188 " fill-opacity="1" fill-rule="nonzero"/><path fill="#231f20" d="M 711.097656 164.242188 C 710.207031 164.144531 709.316406 164.027344 708.53125 163.722656 C 706.28125 162.898438 706.914062 160.992188 707.632812 159.300781 C 707.894531 158.664062 708.117188 158.007812 708.296875 157.34375 C 709.246094 153.828125 709.222656 150.109375 708.457031 146.578125 C 708.25 150.109375 708.0625 153.628906 707.121094 157.019531 C 706.804688 158.351562 706.144531 159.539062 705.96875 160.917969 C 705.570312 164.132812 708.578125 164.765625 711.097656 164.242188 Z M 711.097656 164.242188 " fill-opacity="1" fill-rule="nonzero"/><path fill="#231f20" d="M 702.265625 173.160156 C 707.25 176.085938 714.035156 175.792969 718.777344 172.496094 C 713.085938 174.183594 708.074219 174.390625 702.265625 173.160156 Z M 702.265625 173.160156 " fill-opacity="1" fill-rule="nonzero"/><path fill="#231f20" d="M 742.910156 162.3125 C 744.871094 161.78125 746.175781 160.023438 746.917969 158.265625 C 748.066406 155.484375 748.492188 152.347656 747.757812 149.40625 C 746.550781 142.886719 743.046875 147.144531 741.394531 150.679688 C 742.296875 149.386719 743.890625 147.015625 745.464844 146.675781 C 746.042969 146.605469 746.269531 147.226562 746.4375 147.6875 C 747.164062 150.140625 747.316406 152.84375 746.632812 155.347656 C 746.226562 156.96875 745.628906 158.648438 744.511719 159.886719 C 743.734375 160.773438 742.550781 161.390625 741.386719 161.296875 C 741.46875 161.183594 741.578125 161.058594 741.675781 160.945312 C 742.628906 159.898438 743.847656 158.6875 743.65625 157.113281 C 743.558594 155.863281 742.230469 155.296875 742.023438 154.175781 C 741.871094 153.429688 741.992188 152.511719 742.429688 151.878906 C 742.902344 151.160156 743.839844 151.234375 744.550781 151.574219 C 745.324219 151.941406 745.964844 152.597656 746.429688 153.359375 C 745.480469 150.90625 742.164062 149.480469 741.320312 152.839844 C 741.070312 153.789062 741.199219 154.9375 741.832031 155.71875 C 742.125 156.117188 742.417969 156.421875 742.550781 156.734375 C 743.015625 157.859375 742.066406 158.910156 741.3125 159.691406 C 740.996094 160.023438 740.617188 160.375 740.347656 160.769531 C 740.074219 161.132812 739.996094 161.742188 740.375 162.105469 C 741.078125 162.722656 742.132812 162.496094 742.910156 162.3125 Z M 742.910156 162.3125 " fill-opacity="1" fill-rule="nonzero"/><path fill="#231f20" d="M 682.359375 672.515625 C 681.15625 670.894531 679.691406 669.484375 678.074219 668.472656 C 679.105469 669.980469 680.160156 671.410156 681.164062 672.894531 C 678.972656 673.667969 676.9375 674.863281 675.351562 676.378906 C 677.511719 675.582031 679.566406 674.722656 681.726562 674 C 681.773438 673.980469 681.816406 673.96875 681.863281 673.953125 C 681.890625 673.992188 681.917969 674.03125 681.941406 674.074219 C 683.203125 675.972656 684.285156 677.921875 685.503906 679.875 C 685.191406 677.707031 684.320312 675.507812 683.070312 673.550781 C 684.777344 673.003906 686.484375 672.523438 688.222656 671.96875 C 686.324219 671.773438 684.304688 671.976562 682.359375 672.515625 Z M 682.359375 672.515625 " fill-opacity="1" fill-rule="nonzero"/><path fill="#231f20" d="M 679.039062 681.984375 C 677.839844 680.359375 676.371094 678.953125 674.757812 677.941406 C 675.789062 679.445312 676.839844 680.875 677.84375 682.359375 C 675.65625 683.132812 673.621094 684.328125 672.035156 685.847656 C 674.195312 685.050781 676.246094 684.1875 678.410156 683.464844 C 678.457031 683.449219 678.5 683.433594 678.546875 683.417969 C 678.570312 683.460938 678.597656 683.5 678.625 683.542969 C 679.886719 685.441406 680.96875 687.386719 682.183594 689.34375 C 681.871094 687.175781 681.003906 684.976562 679.753906 683.019531 C 681.457031 682.472656 683.171875 681.988281 684.90625 681.4375 C 683.003906 681.238281 680.984375 681.445312 679.039062 681.984375 Z M 679.039062 681.984375 " fill-opacity="1" fill-rule="nonzero"/><path fill="#231f20" d="M 759.230469 668.472656 C 757.613281 669.484375 756.148438 670.894531 754.945312 672.515625 C 753 671.976562 750.980469 671.773438 749.082031 671.96875 C 750.820312 672.523438 752.527344 673.003906 754.234375 673.550781 C 752.984375 675.511719 752.117188 677.707031 751.804688 679.875 C 753.019531 677.921875 754.101562 675.972656 755.363281 674.074219 C 755.386719 674.03125 755.414062 673.992188 755.441406 673.953125 C 755.488281 673.96875 755.53125 673.980469 755.578125 674 C 757.738281 674.722656 759.792969 675.582031 761.953125 676.378906 C 760.367188 674.863281 758.332031 673.667969 756.140625 672.894531 C 757.148438 671.410156 758.199219 669.980469 759.230469 668.472656 Z M 759.230469 668.472656 " fill-opacity="1" fill-rule="nonzero"/><path fill="#231f20" d="M 758.265625 681.984375 C 756.320312 681.445312 754.300781 681.238281 752.398438 681.4375 C 754.136719 681.988281 755.847656 682.472656 757.550781 683.019531 C 756.304688 684.976562 755.433594 687.175781 755.121094 689.34375 C 756.339844 687.386719 757.417969 685.441406 758.679688 683.539062 C 758.707031 683.5 758.734375 683.460938 758.757812 683.417969 C 758.804688 683.433594 758.847656 683.449219 758.894531 683.464844 C 761.058594 684.1875 763.109375 685.050781 765.269531 685.847656 C 763.683594 684.332031 761.648438 683.132812 759.460938 682.359375 C 760.464844 680.878906 761.519531 679.445312 762.546875 677.941406 C 760.933594 678.953125 759.46875 680.359375 758.265625 681.984375 Z M 758.265625 681.984375 " fill-opacity="1" fill-rule="nonzero"/><g clip-path="url(#a10672459e)"><path fill="#231f20" d="M 818.523438 428.214844 C 818.082031 424.425781 817.5 420.65625 816.851562 416.898438 C 816.402344 414.398438 815.945312 411.910156 815.667969 409.382812 C 815.683594 411.925781 815.976562 414.460938 816.261719 416.984375 C 816.527344 419.152344 816.847656 422.355469 817.09375 424.546875 C 817.425781 428.308594 818.019531 432.050781 817.582031 435.804688 C 817.320312 438.304688 816.792969 440.777344 816.324219 443.253906 C 815.824219 445.703125 815.453125 448.21875 814.5625 450.539062 C 812.980469 454.65625 809.863281 457.878906 806.847656 461.058594 C 805.664062 462.191406 804.058594 463.710938 802.324219 463.171875 C 802.339844 463.160156 802.359375 463.148438 802.378906 463.136719 C 804.074219 462.015625 805.578125 460.679688 807.066406 459.320312 C 808.5625 457.929688 810.128906 456.570312 811.199219 454.789062 C 811.914062 453.585938 812.320312 452.21875 812.601562 450.871094 C 813.386719 446.921875 813.773438 442.898438 813.660156 438.878906 C 813.027344 442.824219 812.40625 446.746094 811.476562 450.613281 C 811.171875 451.859375 810.820312 453.078125 810.148438 454.167969 C 809.519531 455.234375 808.632812 456.183594 807.71875 457.132812 C 806.335938 458.542969 804.929688 459.972656 803.5 461.339844 C 802.554688 462.191406 801.589844 463.195312 800.417969 463.683594 C 799.894531 463.871094 799.351562 463.671875 798.910156 463.355469 C 798.992188 463.296875 799.074219 463.242188 799.148438 463.183594 C 800.746094 462 802.222656 460.628906 803.648438 459.257812 C 804.125 458.796875 804.59375 458.332031 805.0625 457.859375 C 806.195312 456.652344 807.46875 455.390625 808.195312 453.8125 C 808.914062 452.242188 809.070312 450.511719 809.261719 448.835938 C 809.613281 445.550781 809.796875 442.242188 809.695312 438.933594 C 809.273438 441.546875 808.90625 444.152344 808.507812 446.75 C 808.097656 448.941406 808 451.277344 807.09375 453.316406 C 806.40625 454.730469 805.257812 455.882812 804.21875 457.066406 C 802.902344 458.511719 801.539062 459.945312 800.171875 461.355469 C 799.261719 462.25 798.355469 463.253906 797.257812 463.890625 C 796.871094 464.125 796.441406 464.113281 796.070312 463.929688 C 796.898438 463.21875 797.585938 462.195312 798.128906 461.480469 C 799.210938 459.941406 800.15625 458.320312 801.132812 456.722656 C 802.269531 454.855469 803.378906 452.902344 804.070312 450.808594 C 805.386719 446.957031 805.898438 442.804688 805.527344 438.769531 C 805.46875 443.105469 804.636719 447.390625 802.933594 451.363281 C 802.203125 453.054688 801.210938 454.59375 800.226562 456.160156 C 798.894531 458.207031 797.613281 460.367188 796.058594 462.226562 C 795.398438 462.925781 794.636719 463.917969 793.652344 463.378906 C 793.050781 463.050781 792.476562 462.324219 792.28125 461.609375 C 792.074219 460.8125 792.246094 460.03125 792.539062 459.234375 C 793.707031 456.390625 795.585938 453.894531 796.652344 450.910156 C 797.101562 449.722656 797.453125 448.492188 797.664062 447.242188 C 798.304688 443.527344 797.921875 439.644531 796.761719 436.089844 C 797.28125 438.523438 797.515625 441.003906 797.375 443.457031 C 797.265625 446.164062 796.574219 448.753906 795.484375 451.191406 C 795.410156 450.65625 795.195312 450.140625 794.851562 449.710938 C 795.03125 449.425781 795.175781 449.125 795.265625 448.816406 C 795.777344 447.082031 795.640625 445.261719 795.628906 443.488281 C 795.546875 439.824219 795.304688 436.167969 795.265625 432.507812 C 795.503906 432.859375 795.675781 433.277344 795.855469 433.65625 C 796.207031 434.445312 796.503906 435.261719 796.761719 436.089844 C 796.710938 435.738281 795.488281 431.25 795 432.136719 C 794.753906 435.550781 794.890625 440.027344 794.832031 443.496094 C 794.804688 444.78125 794.8125 446.066406 794.640625 447.332031 C 794.507812 448.535156 793.988281 449.609375 792.945312 450.253906 C 792.03125 450.847656 790.808594 451.332031 789.789062 450.898438 C 788.785156 450.410156 788.917969 448.910156 788.875 447.921875 C 788.953125 444.484375 789.203125 440.964844 789.140625 437.503906 C 789.164062 434.914062 788.738281 432.308594 788.8125 429.746094 C 789 427.234375 789.660156 424.730469 790.773438 422.460938 C 791.535156 420.917969 792.417969 419.390625 793.113281 417.796875 C 794.933594 413.769531 795.375 409.292969 795.511719 404.929688 C 795.589844 402.332031 795.480469 399.695312 795.292969 397.109375 C 795.285156 400.574219 795.199219 404.046875 794.792969 407.488281 C 794.394531 410.894531 793.75 414.300781 792.246094 417.398438 C 791.519531 418.945312 790.617188 420.40625 789.8125 421.988281 C 789.59375 422.417969 789.390625 422.859375 789.203125 423.304688 C 789.042969 420.84375 788.296875 418.078125 787.195312 415.992188 C 788.933594 415.328125 790.023438 413.414062 789.71875 411.582031 C 789.652344 411.214844 789.539062 410.359375 789.46875 409.976562 C 786.292969 389.359375 783.585938 368.539062 781.328125 347.789062 C 782.289062 359.289062 783.460938 370.773438 784.8125 382.234375 C 785.816406 390.726562 786.933594 399.21875 788.140625 407.691406 C 744.480469 422.015625 696.765625 423.058594 652.523438 410.632812 C 673.148438 417.269531 694.828125 420.535156 716.488281 420.492188 C 738.148438 420.421875 759.835938 417.09375 780.433594 410.378906 C 783.027344 409.5625 785.589844 408.644531 788.144531 407.707031 C 788.335938 409.050781 788.527344 410.390625 788.722656 411.730469 C 788.945312 413.125 788.089844 414.574219 786.761719 415.042969 C 786.761719 415.042969 786.691406 415.074219 786.691406 415.074219 L 784.308594 415.871094 C 762.140625 423.207031 738.761719 426.9375 715.40625 426.761719 C 694.636719 426.660156 673.882812 423.476562 654.003906 417.460938 C 653.320312 417.21875 650.929688 416.628906 650.414062 416.203125 C 649.40625 415.523438 648.847656 414.269531 649.003906 413.0625 C 650.429688 405.460938 651.925781 397.867188 653.339844 390.261719 C 653.457031 390.453125 653.570312 390.644531 653.6875 390.832031 C 654.0625 391.453125 654.511719 392.046875 655.03125 392.566406 C 655.535156 393.089844 656.144531 393.546875 656.746094 393.945312 C 660.328125 396.378906 664.128906 398.46875 668.035156 400.339844 C 670.660156 401.578125 673.414062 402.558594 676.226562 403.28125 C 681.140625 404.625 686.347656 405.113281 691.398438 404.300781 C 693.558594 403.976562 695.71875 403.398438 697.738281 402.582031 C 699.085938 402.035156 700.394531 401.425781 701.699219 400.824219 C 703.660156 399.898438 705.683594 398.984375 707.386719 397.59375 C 708.296875 396.867188 708.667969 396.019531 708.542969 395.140625 C 709.917969 395.015625 711.289062 394.445312 712.039062 393.199219 C 712.625 392.179688 712.402344 390.699219 711.46875 390 C 719.558594 385.707031 726.167969 378.519531 729.636719 369.933594 C 739.339844 346.449219 724.296875 319.523438 699.234375 315.390625 C 683.722656 312.761719 668.585938 319.308594 659.746094 331.78125 C 659.824219 330.734375 659.953125 329.039062 659.953125 329.039062 C 659.953125 329.039062 660.207031 325.351562 660.207031 325.351562 C 660.796875 315.515625 661.085938 305.648438 660.734375 295.789062 C 660.589844 292.082031 660.308594 288.375 659.75 284.707031 C 658.511719 276.15625 655.835938 267.914062 654.386719 259.410156 C 651.753906 244.90625 650.960938 230.09375 651.5 215.367188 C 650.335938 228.878906 650.679688 242.53125 652.664062 255.953125 C 653.539062 262.0625 654.917969 268.09375 656.378906 274.082031 C 657.070312 276.886719 657.6875 279.707031 658.195312 282.542969 C 651.597656 274.824219 646.398438 265.957031 643.171875 256.324219 C 641.128906 250.339844 639.855469 244.101562 639.121094 237.820312 C 639.136719 250.609375 643.195312 263.386719 650.542969 273.859375 C 652.804688 277.074219 655.378906 280.070312 658.234375 282.75 C 658.367188 283.511719 658.492188 284.273438 658.609375 285.035156 C 648.832031 279.3125 640.703125 271.445312 634.332031 262.085938 C 636.183594 266.03125 638.691406 269.675781 641.5625 272.949219 C 646.253906 278.199219 652.078125 282.546875 658.628906 285.160156 C 658.796875 286.277344 658.945312 287.394531 659.070312 288.515625 C 659.332031 290.695312 659.496094 292.886719 659.621094 295.078125 C 659.160156 297.003906 658.507812 299.734375 658.308594 300.273438 C 657.679688 301.773438 656.34375 302.105469 654.933594 302.542969 C 644.386719 305.898438 632.398438 303.667969 623.71875 296.835938 L 623.160156 296.394531 L 623.023438 296.28125 C 622.585938 295.917969 622.253906 295.421875 622.09375 294.878906 C 622.007812 294.582031 621.96875 294.269531 621.980469 293.960938 L 621.996094 293.605469 C 622.046875 292.644531 622.09375 291.683594 622.152344 290.71875 C 622.738281 281.113281 623.792969 271.515625 625.601562 262.058594 C 627.519531 252.640625 629.96875 243.292969 633.46875 234.332031 C 634.882812 230.773438 636.460938 227.261719 638.398438 223.957031 C 640.816406 219.863281 643.871094 216.09375 647.503906 213.019531 C 651.207031 209.96875 655.484375 207.6875 659.648438 205.324219 C 669.671875 199.753906 680.246094 195.242188 690.972656 191.199219 C 689.890625 192.171875 689.058594 193.417969 688.601562 194.894531 C 687.953125 196.945312 687.824219 199.179688 688.289062 201.277344 C 689.574219 206.414062 693.449219 210.859375 697.519531 214.082031 C 709.125 223.265625 724.398438 223.324219 736.28125 214.609375 C 738.847656 212.679688 741.121094 210.289062 742.6875 207.472656 C 744.292969 204.652344 744.867188 201.375 744.785156 198.167969 C 744.699219 195.101562 743.914062 191.65625 741.347656 189.71875 C 748.269531 191.847656 755.8125 193.964844 762.675781 196.167969 C 767.992188 197.878906 773.339844 199.644531 778.070312 202.648438 C 789.558594 209.917969 795.457031 221.621094 799.449219 234.210938 C 804.140625 248.414062 808.324219 262.796875 811.328125 277.453125 C 812.445312 282.765625 813.515625 288.617188 814.558594 293.984375 C 814.765625 294.945312 814.1875 295.992188 813.261719 296.320312 C 812.855469 296.453125 811.691406 296.699219 811.265625 296.800781 C 804.90625 298.3125 798.433594 299.378906 791.933594 300.089844 C 787.46875 300.578125 782.96875 300.40625 778.484375 300.5625 C 778.144531 291.664062 777.898438 282.75 777.933594 273.839844 C 786.894531 270.382812 794.304688 262.910156 797.757812 253.960938 C 792.667969 262.21875 786.222656 268.710938 777.933594 273.703125 C 777.945312 271.785156 777.964844 269.863281 778.003906 267.945312 C 779.65625 265.386719 781.148438 262.683594 782.484375 259.929688 C 786.945312 250.667969 789.917969 240.601562 790.820312 230.347656 C 787.984375 243.230469 783.703125 255.695312 778.011719 267.589844 C 778.15625 260.347656 778.519531 253.113281 779.203125 245.894531 C 779.972656 237.425781 780.980469 228.980469 782.230469 220.570312 C 782.648438 217.761719 783.09375 214.960938 783.554688 212.164062 C 782.96875 214.9375 782.414062 217.722656 781.910156 220.515625 C 779.128906 235.882812 777.207031 251.441406 776.84375 267.066406 C 776.269531 294.03125 778.253906 321.011719 781.328125 347.789062 C 780.285156 333.839844 779.316406 319.308594 778.675781 305.332031 C 778.609375 303.75 778.546875 302.167969 778.484375 300.582031 C 778.945312 300.582031 779.402344 300.585938 779.859375 300.589844 C 782.183594 315.699219 784.335938 330.828125 785.421875 346.074219 C 785.691406 349.140625 786.15625 352.179688 786.660156 355.210938 C 786.984375 357.199219 787.359375 359.277344 787.773438 361.25 C 789.375 369.523438 792.175781 377.507812 793.835938 385.75 C 794.542969 389.351562 795.015625 393.4375 795.292969 397.109375 C 795.257812 394.890625 795.125 391.660156 794.875 389.460938 C 794.6875 387.496094 794.351562 385.328125 794.007812 383.382812 C 792.554688 375.875 790.28125 368.546875 788.902344 361.023438 C 788.132812 357.042969 787.46875 353.007812 786.960938 348.984375 C 786.699219 346.96875 786.527344 344.953125 786.371094 342.925781 C 786.070312 338.851562 785.609375 334.777344 785.074219 330.726562 C 783.75 320.617188 782.050781 310.546875 779.859375 300.589844 C 783.894531 300.632812 787.941406 300.828125 791.96875 300.480469 C 797.476562 300.039062 802.953125 299.269531 808.375 298.214844 C 808.550781 302.648438 808.726562 307.445312 809.125 311.835938 C 809.726562 318.816406 810.867188 325.746094 812.054688 332.648438 C 812.4375 334.941406 812.800781 337.226562 813.046875 339.542969 C 815.316406 360.375 815.484375 381.441406 815.347656 402.386719 C 815.34375 404.722656 815.453125 407.058594 815.667969 409.382812 C 815.582031 407.054688 815.585938 404.71875 815.671875 402.390625 C 816.679688 381.425781 816.613281 360.273438 814.191406 339.40625 C 812.945312 330.15625 810.734375 321.09375 809.714844 311.773438 C 809.140625 307.40625 808.8125 302.636719 808.394531 298.210938 C 809.875 297.925781 811.347656 297.617188 812.820312 297.289062 C 814.214844 297.113281 815.324219 296.050781 815.460938 294.644531 C 813.496094 281.453125 810.699219 268.222656 807.183594 255.34375 C 805.21875 248.101562 802.917969 240.964844 800.582031 233.835938 C 795.871094 219.015625 788.371094 205.789062 773.5 199.292969 C 766.554688 196.371094 759.253906 194.59375 752.023438 192.582031 C 749.359375 191.859375 744.109375 190.4375 741.335938 189.707031 C 741.292969 189.675781 741.253906 189.644531 741.210938 189.613281 C 740.710938 189.261719 740.117188 188.960938 739.511719 188.75 C 739.042969 182.371094 738.929688 175.953125 739.21875 169.566406 C 739.265625 168.4375 739.324219 167.304688 739.394531 166.175781 C 740.128906 166.566406 741.066406 166.554688 741.972656 166.269531 C 745.171875 165.207031 748.140625 162.105469 748.96875 158.824219 C 749.40625 157.144531 749.433594 155.382812 749.523438 153.671875 C 749.601562 151.953125 749.644531 150.230469 749.453125 148.507812 C 749.230469 146.121094 748.105469 143.210938 745.144531 144.019531 C 745.007812 144.058594 744.878906 144.105469 744.746094 144.152344 C 745.355469 137.914062 745.785156 131.664062 745.972656 125.394531 C 746.152344 120.652344 745.484375 116.996094 743.261719 112.746094 C 738.359375 102.503906 725.925781 98.742188 715.285156 99.4375 C 710.945312 99.734375 706.613281 100.78125 702.734375 102.773438 C 697.886719 105.210938 693.949219 108.851562 688.324219 109.355469 C 687.273438 109.476562 686.199219 109.5 685.140625 109.460938 C 684.078125 109.425781 683.019531 109.28125 681.949219 109.160156 C 680.902344 109.039062 679.699219 109.011719 678.863281 109.761719 C 678.441406 110.089844 678.09375 110.515625 677.832031 110.984375 C 675.417969 115.570312 677.632812 123.796875 680.230469 128.039062 C 681.78125 130.617188 684.164062 133.199219 687.25 133.714844 C 687.195312 138.097656 687.285156 142.589844 687.492188 147.074219 C 685.503906 147.757812 684.507812 149.777344 684.261719 151.765625 C 683.925781 154.320312 684.140625 156.855469 684.328125 159.398438 C 684.539062 161.195312 684.707031 163.066406 685.621094 164.699219 C 686.507812 166.054688 687.882812 167.082031 689.386719 167.648438 C 689.695312 169.515625 690.0625 171.375 690.519531 173.222656 C 691.324219 176.5 692.707031 179.796875 695.007812 182.363281 C 695.082031 182.453125 695.15625 182.542969 695.234375 182.628906 C 695.390625 184.773438 695.453125 186.925781 695.410156 189.070312 C 693.734375 189.367188 692.207031 190.097656 690.992188 191.183594 C 678.277344 195.503906 665.824219 200.699219 654.183594 207.433594 C 651.234375 209.132812 648.308594 210.925781 645.757812 213.203125 C 638.027344 220.070312 633.648438 229.75 630.359375 239.359375 C 627.269531 248.542969 624.929688 257.988281 623.4375 267.5625 C 622.117188 276.429688 621.234375 285.382812 621.007812 294.347656 C 621.089844 295.382812 621.617188 296.367188 622.425781 297.015625 C 622.53125 297.101562 623.03125 297.492188 623.152344 297.582031 C 624.679688 298.757812 626.3125 299.792969 628.019531 300.6875 C 627.609375 308.222656 627.285156 315.773438 627.238281 323.324219 C 627.191406 329.125 627.277344 334.988281 628.414062 340.703125 C 629.800781 348.359375 632.71875 355.636719 636.144531 362.582031 C 640.402344 371.269531 645.925781 379.238281 651.445312 387.148438 C 647.460938 380.558594 643.292969 374.074219 639.683594 367.269531 C 635.292969 358.78125 631.382812 349.90625 629.585938 340.476562 C 628.441406 334.828125 628.285156 329.082031 628.1875 323.320312 C 628.050781 315.78125 628.125 308.246094 628.046875 300.703125 C 636.273438 305 646.222656 305.90625 655.03125 302.851562 C 655.3125 302.75 655.601562 302.65625 655.890625 302.554688 C 654.285156 308.175781 653.183594 313.917969 652.382812 319.703125 C 652.210938 321.179688 652.011719 322.640625 652.070312 324.203125 C 652.097656 324.527344 652.140625 324.855469 652.191406 325.175781 C 645.84375 321.636719 637.941406 320.273438 630.792969 321.484375 C 634.550781 321.78125 638.238281 322.132812 641.929688 322.828125 C 645.417969 323.453125 648.808594 324.371094 652.222656 325.363281 C 652.667969 327.949219 653.820312 330.378906 655.097656 332.65625 C 655.75 333.785156 656.429688 334.894531 657.148438 335.980469 C 651.546875 346.460938 650.800781 359.449219 655.859375 370.792969 C 657.332031 374.132812 659.289062 377.25 661.609375 380.042969 C 659.6875 379.957031 657.765625 380.042969 655.875 380.324219 C 659.304688 380.460938 662.679688 380.796875 665.964844 381.65625 C 666.609375 381.828125 667.242188 382.03125 667.824219 382.296875 C 668.335938 382.539062 668.925781 382.839844 669.242188 383.277344 C 669.390625 383.492188 669.539062 383.769531 669.636719 384.042969 C 670.957031 387.429688 667.519531 387.929688 664.449219 388.273438 C 661.773438 388.589844 659.042969 388.453125 656.316406 388.085938 C 658.933594 388.96875 661.753906 389.335938 664.550781 389.230469 C 666.890625 390.605469 669.421875 391.679688 672.050781 392.433594 C 677.871094 394.105469 684.070312 394.023438 690.007812 393.054688 C 692.230469 392.703125 694.40625 392.175781 696.609375 391.820312 C 698.253906 391.605469 700.136719 391.253906 701.535156 392.324219 C 701.949219 392.667969 702.335938 393.042969 702.347656 393.578125 C 702.164062 395.011719 697.484375 396.394531 696.105469 396.988281 C 694.015625 397.765625 691.957031 398.558594 689.785156 399.035156 C 684.691406 400.125 679.464844 400.414062 674.257812 400.136719 C 680.191406 400.929688 686.347656 400.871094 692.179688 399.382812 C 693.640625 398.980469 695.0625 398.492188 696.472656 397.988281 C 697.878906 397.480469 699.296875 397.015625 700.707031 396.382812 C 701.757812 395.878906 703.25 395.183594 703.503906 393.835938 C 703.554688 393.472656 703.507812 393.125 703.390625 392.804688 C 704.191406 392.574219 705.027344 392.355469 705.824219 392.558594 C 706.941406 392.910156 708.171875 394.238281 708.066406 395.574219 C 707.914062 396.808594 706.234375 397.628906 705.21875 398.226562 C 703.964844 398.886719 702.65625 399.445312 701.339844 400.011719 C 698.71875 401.121094 696.101562 402.246094 693.316406 402.808594 C 686.21875 404.296875 679.238281 403.214844 672.433594 400.9375 C 669.746094 400.039062 667.167969 398.824219 664.59375 397.558594 C 662.019531 396.308594 659.5 394.953125 657.054688 393.460938 C 656.4375 393.097656 655.871094 392.722656 655.34375 392.238281 C 654.390625 391.40625 653.460938 389.941406 652.707031 388.898438 L 651.445312 387.148438 C 652.070312 388.1875 652.699219 389.222656 653.335938 390.253906 C 651.75 397.613281 650.207031 404.980469 648.652344 412.34375 C 648.347656 413.449219 648.46875 414.691406 649.128906 415.65625 C 649.625 416.4375 650.46875 417 651.34375 417.25 C 651.386719 417.265625 651.429688 417.277344 651.472656 417.292969 C 650.453125 427.492188 649.339844 438.0625 648.042969 448.199219 C 645.75 466.6875 642.445312 485.039062 638.585938 503.261719 C 638.0625 505.097656 638.550781 507.035156 640.035156 508.269531 C 646.730469 512.789062 654.175781 515.945312 661.914062 517.710938 C 661.992188 521.671875 662.234375 526.992188 662.347656 530.84375 C 662.519531 535.320312 662.523438 539.773438 662.742188 544.253906 C 662.371094 544.324219 662.019531 544.480469 661.722656 544.71875 C 661.28125 545.0625 660.96875 545.574219 660.859375 546.128906 L 660.808594 546.414062 C 660.808594 546.414062 660.710938 546.980469 660.710938 546.980469 C 658.257812 560.542969 657.003906 574.378906 657.363281 588.167969 C 657.511719 596.65625 659.664062 604.921875 661.851562 613.066406 C 666.441406 629.8125 671.78125 648.816406 676.625 665.554688 L 676.265625 665.554688 L 676.265625 665.777344 C 674.332031 667.023438 673.839844 668.890625 673.171875 671.4375 C 672.851562 672.644531 672.492188 674.011719 671.917969 675.582031 C 669.457031 682.304688 665.363281 686.601562 661.753906 690.394531 C 657.757812 694.589844 654.597656 697.902344 655.394531 702.792969 C 655.480469 703.324219 655.664062 704.433594 656.351562 705.644531 C 659.046875 710.398438 666.117188 711.121094 670.796875 711.121094 C 672.140625 711.121094 673.289062 711.0625 674.078125 711.019531 C 679.109375 710.757812 685.371094 710.425781 690.277344 706.082031 C 691.652344 704.859375 692.695312 703.53125 693.699219 702.246094 C 695.527344 699.914062 697.101562 697.902344 700.164062 697.179688 C 701.125 696.953125 701.753906 696.964844 702.308594 696.972656 C 703.023438 696.984375 703.640625 696.996094 704.433594 696.449219 C 708.226562 693.832031 706.207031 685.613281 704.421875 678.351562 C 703.1875 673.332031 701.671875 667.984375 699.335938 667.984375 C 699.332031 667.984375 699.324219 667.984375 699.320312 667.984375 L 699.3125 667.984375 C 699.304688 667.984375 699.296875 667.984375 699.292969 667.988281 C 698.988281 662.339844 698.769531 656.6875 698.738281 651.035156 C 698.652344 641.585938 698.996094 632.125 699.683594 622.699219 C 700.292969 614.722656 701.167969 606.765625 702.042969 598.808594 C 702.703125 592.292969 703.386719 585.714844 703.273438 579.128906 L 703.21875 576.929688 C 703.21875 576.929688 703.066406 574.734375 703.066406 574.734375 C 702.753906 571.121094 702.460938 567.503906 702.53125 563.875 C 702.597656 559.347656 703.019531 554.824219 703.816406 550.367188 C 703.996094 549.34375 703.515625 548.441406 702.757812 547.960938 C 704.367188 543.542969 706.007812 539.101562 706.921875 534.476562 C 708.414062 526.808594 708.90625 518.972656 708.714844 511.171875 C 709.011719 511.003906 709.308594 510.835938 709.605469 510.664062 C 711.324219 509.683594 713 508.632812 714.625 507.5 C 715.878906 506.734375 716.761719 505.386719 716.867188 503.910156 C 717.011719 500.332031 717.191406 493.792969 717.3125 490.15625 C 717.617188 481.535156 717.851562 472.511719 718.03125 463.433594 C 719.292969 472.441406 720.273438 481.496094 720.941406 490.566406 C 721.046875 492.347656 721.300781 496.664062 721.40625 498.496094 C 721.40625 498.496094 721.5625 501.140625 721.5625 501.140625 C 721.628906 501.972656 721.597656 503.101562 721.914062 503.894531 C 722.273438 504.933594 723.011719 505.832031 723.953125 506.40625 L 724.234375 506.585938 C 724.234375 506.585938 724.796875 506.945312 724.796875 506.945312 C 726.074219 507.75 727.386719 508.503906 728.714844 509.21875 C 728.554688 514.902344 728.746094 520.597656 729.292969 526.257812 C 729.746094 530.867188 730.40625 535.480469 731.785156 539.929688 C 732.046875 540.769531 732.679688 542.648438 732.96875 543.515625 C 733.480469 545.003906 733.988281 546.492188 734.539062 547.964844 C 733.78125 548.449219 733.308594 549.359375 733.488281 550.371094 C 734.289062 554.828125 734.710938 559.351562 734.773438 563.878906 C 734.84375 567.507812 734.550781 571.125 734.238281 574.734375 L 734.085938 576.933594 C 734.085938 576.933594 734.035156 579.132812 734.035156 579.132812 C 733.917969 585.71875 734.601562 592.292969 735.261719 598.808594 C 736.136719 606.769531 737.011719 614.722656 737.621094 622.699219 C 738.308594 632.125 738.652344 641.585938 738.566406 651.035156 C 738.535156 656.6875 738.316406 662.339844 738.011719 667.984375 C 738.003906 667.984375 738 667.984375 737.992188 667.984375 C 737.984375 667.984375 737.980469 667.984375 737.972656 667.984375 C 735.632812 667.984375 734.117188 673.335938 732.882812 678.359375 C 731.097656 685.613281 729.078125 693.832031 732.867188 696.449219 C 733.660156 696.996094 734.28125 696.984375 734.996094 696.972656 C 735.550781 696.964844 736.183594 696.953125 737.140625 697.179688 C 740.203125 697.902344 741.777344 699.914062 743.605469 702.246094 C 744.613281 703.53125 745.652344 704.859375 747.03125 706.082031 C 751.933594 710.425781 758.195312 710.757812 763.234375 711.019531 C 764.023438 711.0625 765.167969 711.121094 766.511719 711.121094 C 771.1875 711.121094 778.257812 710.398438 780.953125 705.644531 C 781.644531 704.433594 781.824219 703.324219 781.910156 702.792969 C 782.707031 697.902344 779.550781 694.589844 775.550781 690.394531 C 771.941406 686.601562 767.847656 682.304688 765.386719 675.582031 C 764.8125 674.011719 764.453125 672.644531 764.136719 671.4375 C 763.4375 668.785156 762.929688 666.863281 760.785156 665.621094 C 760.75 665.601562 760.710938 665.582031 760.671875 665.5625 C 765.523438 648.824219 770.863281 629.816406 775.453125 613.066406 C 777.644531 604.921875 779.792969 596.65625 779.9375 588.167969 C 780.304688 574.375 779.050781 560.542969 776.589844 546.976562 C 776.589844 546.976562 776.492188 546.414062 776.492188 546.414062 C 776.417969 545.757812 776.109375 545.121094 775.582031 544.71875 C 775.285156 544.480469 774.933594 544.324219 774.5625 544.253906 C 774.777344 539.671875 774.785156 535.066406 774.96875 530.488281 C 775.105469 525.976562 775.355469 521.492188 775.472656 516.972656 C 783.949219 515.519531 792.195312 512.546875 799.734375 508.078125 C 801.558594 507.148438 802.78125 505.65625 802.78125 503.523438 C 801.851562 493.828125 800.496094 484.179688 798.964844 474.558594 C 798.414062 471.117188 797.816406 467.683594 797.183594 464.253906 C 797.757812 464.121094 798.355469 463.742188 798.859375 463.390625 C 799.898438 464.53125 801.132812 463.925781 802.289062 463.191406 C 804.542969 464.160156 807.050781 461.515625 808.582031 460.105469 C 809.492188 459.207031 810.386719 458.3125 811.265625 457.382812 C 813.039062 455.507812 814.550781 453.335938 815.554688 450.941406 C 816.542969 448.539062 816.976562 446 817.496094 443.484375 C 817.746094 442.242188 818 440.996094 818.230469 439.738281 C 818.570312 437.851562 818.820312 435.921875 818.902344 433.992188 C 818.980469 432.054688 818.726562 430.125 818.523438 428.214844 Z M 686.390625 164.269531 C 685.914062 163.183594 685.800781 161.980469 685.65625 160.777344 C 685.429688 157.84375 685.136719 154.769531 685.214844 151.867188 C 685.285156 149.980469 685.894531 148.207031 687.496094 147.15625 C 687.695312 151.464844 688.003906 155.761719 688.402344 159.953125 C 688.65625 162.457031 688.953125 164.960938 689.351562 167.445312 C 688.128906 166.613281 687.078125 165.578125 686.390625 164.269531 Z M 695.742188 190.558594 C 695.785156 187.9375 695.621094 185.308594 695.296875 182.707031 C 698.453125 186.386719 702.707031 189.246094 707.515625 190.15625 C 709.910156 190.636719 712.371094 190.445312 714.757812 190.117188 C 717.558594 189.757812 720.324219 189.125 722.976562 188.148438 C 732.066406 184.898438 738.175781 177.792969 737.84375 167.847656 C 737.582031 179.011719 729.847656 185.742188 719.496094 188.171875 C 717.894531 188.558594 716.265625 188.847656 714.628906 189.035156 C 712.464844 189.300781 710.277344 189.46875 708.132812 189.074219 C 704.390625 188.441406 700.941406 186.53125 698.1875 183.949219 C 696.621094 182.476562 695.132812 180.800781 694.015625 178.976562 C 692.914062 177.132812 692.214844 175.042969 691.636719 172.925781 C 690.515625 168.667969 689.90625 164.253906 689.351562 159.847656 C 688.339844 151.171875 687.671875 142.449219 687.277344 133.71875 C 687.519531 133.757812 687.761719 133.789062 688.011719 133.800781 C 689.167969 133.835938 690.277344 133.453125 691.3125 133.027344 C 697.125 130.390625 703.066406 128.019531 709.273438 126.539062 C 715.320312 125.117188 721.886719 124.066406 727.914062 126.015625 C 729.851562 126.683594 731.671875 127.757812 733.050781 129.273438 C 734.410156 130.820312 735.363281 132.777344 736.277344 134.628906 C 738.730469 139.945312 739.207031 145.949219 738.96875 151.742188 L 738.949219 152.546875 C 738.949219 152.746094 738.945312 152.949219 738.972656 153.148438 C 738.980469 153.1875 738.988281 153.242188 739.011719 153.277344 C 739.011719 153.28125 739.011719 153.285156 739.015625 153.285156 C 739.015625 153.289062 739.015625 153.289062 739.019531 153.292969 C 739.03125 153.308594 739.042969 153.316406 739.054688 153.320312 C 739.171875 153.316406 739.214844 153.171875 739.257812 153.085938 C 739.519531 152.390625 739.664062 151.65625 739.898438 150.957031 C 740.402344 149.390625 741.128906 147.851562 742.3125 146.710938 C 743.359375 145.761719 744.957031 144.699219 746.414062 144.953125 C 747.867188 145.335938 748.113281 147.289062 748.28125 148.636719 C 748.453125 150.28125 748.371094 151.957031 748.308594 153.617188 C 748.1875 156.054688 748.257812 158.609375 747.023438 160.78125 C 745.925781 162.929688 742.085938 166.898438 739.441406 165.808594 C 738.730469 165.5 738.167969 164.457031 737.953125 163.609375 C 738.015625 164.082031 738.132812 164.554688 738.335938 165 C 738.578125 165.554688 738.945312 165.933594 739.382812 166.171875 C 738.578125 173.246094 738.332031 180.382812 738.617188 187.5 C 738.707031 188.820312 738.578125 190.210938 739.25 191.410156 C 740.285156 193.378906 740.808594 195.628906 740.601562 197.851562 C 739.996094 203.722656 735.53125 208.433594 730.746094 211.507812 C 727.050781 213.867188 722.765625 215.269531 718.375 215.285156 C 713.394531 215.292969 708.457031 213.796875 704.109375 211.40625 C 701.304688 209.824219 698.652344 207.875 696.488281 205.480469 C 694.792969 203.554688 693.183594 201.273438 692.890625 198.675781 C 692.765625 196.957031 693.121094 195.175781 693.867188 193.628906 C 694.125 193.113281 694.445312 192.628906 694.847656 192.222656 C 695.308594 191.777344 695.6875 191.210938 695.742188 190.558594 Z M 695.410156 189.082031 C 695.402344 189.417969 695.394531 189.75 695.382812 190.085938 C 695.390625 190.496094 695.304688 190.917969 695.078125 191.269531 C 694.929688 191.503906 694.730469 191.710938 694.523438 191.898438 C 694.066406 192.324219 693.703125 192.839844 693.402344 193.378906 C 692.53125 195.007812 692.105469 196.890625 692.195312 198.734375 C 692.472656 201.859375 694.386719 204.507812 696.425781 206.753906 C 701.859375 212.417969 709.582031 216.144531 717.464844 216.457031 C 719.914062 216.546875 722.386719 216.257812 724.742188 215.582031 C 731.632812 213.433594 738.195312 208.449219 740.828125 201.5625 C 741.6875 199.238281 741.917969 196.636719 741.300781 194.222656 C 741.042969 193.167969 740.644531 192.15625 740.140625 191.195312 C 739.792969 190.601562 739.570312 189.957031 739.546875 189.253906 C 739.535156 189.097656 739.527344 188.9375 739.515625 188.777344 C 740.121094 189.03125 740.75 189.402344 741.132812 189.71875 C 745.59375 193.226562 744.703125 202.683594 741.945312 207.050781 C 736.667969 215.714844 725.15625 220.363281 715.265625 219.820312 C 709.085938 219.449219 703.085938 216.988281 698.167969 213.246094 C 694.179688 210.167969 690.375 206.046875 688.957031 201.113281 C 688.460938 199.132812 688.507812 196.992188 689.042969 195.027344 C 689.863281 191.960938 692.363281 189.804688 695.410156 189.082031 Z M 729.046875 369.347656 C 728.972656 367.242188 728.773438 364.6875 728.589844 363.183594 C 729.171875 358.773438 729.707031 353.570312 729.792969 349.503906 C 730.105469 348.546875 730.410156 347.585938 730.691406 346.617188 C 732.464844 354.398438 731.753906 362.277344 729.046875 369.347656 Z M 698.246094 322.394531 C 701.523438 323.25 704.84375 323.921875 708.167969 324.542969 C 709.242188 324.742188 710.316406 324.933594 711.394531 325.113281 C 712.039062 326.191406 712.695312 327.261719 713.359375 328.328125 C 715.511719 331.757812 717.722656 335.152344 720.152344 338.398438 C 718.992188 335.957031 717.707031 333.582031 716.386719 331.222656 C 715.109375 328.945312 713.78125 326.695312 712.421875 324.464844 C 713.292969 324.238281 714.035156 323.625 714.429688 322.8125 C 721.582031 327.640625 727.246094 334.867188 729.988281 343.960938 C 730.222656 344.730469 730.425781 345.5 730.609375 346.273438 C 730.132812 347.167969 729.679688 348.078125 729.238281 348.988281 C 728.105469 347.011719 726.726562 345.226562 725.269531 343.488281 C 723.699219 341.660156 722.0625 339.902344 720.152344 338.398438 C 718.390625 339.714844 716.890625 341.289062 715.457031 342.933594 C 714.183594 344.4375 712.980469 345.988281 712 347.707031 C 711.90625 347.6875 711.808594 347.667969 711.808594 347.667969 C 707.050781 346.726562 701.875 345.710938 697.109375 344.855469 C 697.101562 344.859375 697.097656 344.867188 697.09375 344.871094 C 696.246094 342.546875 695.125 340.363281 693.921875 338.214844 C 692.707031 336.097656 691.421875 334.03125 689.886719 332.125 C 692.613281 329.074219 695.496094 325.734375 698.117188 322.597656 L 698.25 322.441406 C 698.25 322.441406 698.246094 322.421875 698.246094 322.394531 Z M 655.632812 332.386719 C 654.488281 329.75 653.394531 327.039062 653.226562 324.15625 C 653.214844 322.746094 653.421875 321.277344 653.59375 319.859375 C 654.335938 314.082031 655.253906 308.339844 655.917969 302.546875 C 656.558594 302.324219 657.183594 302.066406 657.675781 301.589844 C 658.042969 301.246094 658.328125 300.820312 658.511719 300.355469 C 658.605469 300.128906 658.667969 299.878906 658.714844 299.644531 L 658.867188 298.9375 C 658.867188 298.9375 659.292969 296.933594 659.636719 295.308594 C 659.644531 295.484375 659.65625 295.664062 659.667969 295.839844 C 660.226562 307.832031 660.058594 319.835938 659.703125 331.84375 C 659.351562 332.339844 659.007812 332.847656 658.679688 333.363281 C 658.152344 334.183594 657.660156 335.027344 657.199219 335.882812 C 656.679688 334.710938 656.140625 333.554688 655.632812 332.386719 Z M 653.105469 355.65625 C 653.105469 355.660156 653.105469 355.660156 653.105469 355.660156 C 653.078125 350.832031 653.921875 346.101562 655.5625 341.671875 C 654.695312 345.652344 654.257812 349.722656 654.066406 353.796875 C 653.734375 354.410156 653.410156 355.027344 653.105469 355.65625 Z M 676.574219 392.578125 C 672.453125 392.167969 668.445312 391.007812 664.699219 389.222656 C 664.988281 389.210938 665.28125 389.195312 665.570312 389.171875 C 666.96875 389.003906 668.789062 388.847656 669.957031 387.90625 C 671.433594 389.386719 673.210938 390.53125 675.085938 391.441406 C 676.1875 391.960938 677.332031 392.402344 678.503906 392.726562 C 677.859375 392.691406 677.21875 392.644531 676.574219 392.578125 Z M 680.730469 392.78125 C 679.097656 391.957031 677.117188 391.066406 675.613281 390.339844 C 674.007812 389.582031 671.871094 388.507812 670.136719 387.742188 C 670.332031 387.558594 670.507812 387.351562 670.648438 387.109375 C 671.449219 385.625 671.121094 383.890625 670.214844 382.5625 C 668.90625 380.96875 666.085938 380.546875 664.15625 380.261719 C 663.355469 380.160156 662.554688 380.089844 661.753906 380.050781 C 663.875 379.375 666.09375 377.589844 667.203125 375.679688 C 667.203125 375.679688 667.199219 375.679688 667.199219 375.679688 C 666.929688 372.984375 666.296875 370.375 665.570312 367.777344 C 664.816406 365.191406 663.96875 362.640625 662.765625 360.210938 C 662.765625 360.210938 662.765625 360.210938 662.769531 360.210938 C 660.867188 357.78125 657.648438 355.300781 654.761719 354.039062 C 654.769531 354.011719 654.785156 353.9375 654.785156 353.9375 C 655.710938 349.296875 656.320312 344.582031 656.289062 339.851562 C 656.503906 339.355469 656.722656 338.863281 656.957031 338.378906 C 658.664062 337.296875 660.238281 336.011719 661.742188 334.664062 C 663.429688 333.117188 665.039062 331.503906 666.386719 329.636719 C 666.382812 329.636719 666.382812 329.636719 666.378906 329.640625 C 666.382812 329.636719 666.382812 329.636719 666.382812 329.636719 L 666.386719 329.636719 C 668.417969 327.8125 670.339844 324.863281 671.304688 322.175781 C 671.441406 322.089844 671.578125 321.996094 671.714844 321.910156 C 671.722656 321.910156 671.730469 321.910156 671.730469 321.910156 C 671.730469 321.910156 671.867188 321.828125 671.867188 321.828125 C 677.496094 318.351562 683.601562 316.503906 689.683594 316.101562 C 692.003906 318.179688 694.585938 320.332031 697.003906 322.316406 C 694.40625 325.15625 691.671875 328.234375 689.179688 331.144531 C 687.941406 331.492188 686.710938 331.867188 685.476562 332.226562 C 681.8125 333.324219 678.160156 334.464844 674.554688 335.742188 C 674.558594 335.730469 674.558594 335.714844 674.558594 335.703125 C 671.917969 333.574219 669.230469 331.492188 666.386719 329.636719 C 668.570312 331.953125 670.925781 334.101562 673.324219 336.195312 C 673.011719 338.597656 672.746094 341.007812 672.550781 343.421875 C 672.351562 345.917969 672.199219 348.414062 672.210938 350.921875 C 670.425781 352.089844 668.550781 353.742188 667.0625 355.171875 C 665.488281 356.730469 663.992188 358.34375 662.769531 360.210938 C 664.667969 359.035156 666.320312 357.582031 667.917969 356.046875 C 669.378906 354.601562 671.109375 352.820312 672.328125 351.074219 C 674.472656 352.359375 676.753906 353.320312 679.082031 354.199219 C 681.386719 355.035156 683.710938 355.78125 686.140625 356.203125 C 686.457031 358.703125 687.242188 361.722656 687.84375 363.996094 C 688.550781 366.535156 689.34375 369.035156 690.496094 371.425781 C 690.28125 368.78125 689.703125 366.222656 689.023438 363.675781 C 688.398438 361.429688 687.449219 358.484375 686.441406 356.183594 C 689.046875 353.828125 692.292969 350.792969 694.832031 348.371094 L 697.421875 345.886719 C 701.882812 346.871094 706.730469 347.875 711.21875 348.789062 C 712.664062 353.292969 714.3125 358.378906 715.824219 362.839844 C 713.132812 366.113281 709.902344 370.117188 707.324219 373.421875 C 707.324219 373.421875 706.113281 374.988281 706.113281 374.988281 C 706.789062 374.273438 708.148438 372.8125 708.8125 372.089844 C 711.265625 369.417969 714.507812 365.792969 716.902344 363.070312 C 718.65625 363.476562 720.429688 363.601562 722.214844 363.648438 C 724.015625 363.664062 725.800781 363.59375 727.570312 363.238281 C 727.957031 365.40625 728.375 367.566406 728.914062 369.703125 C 725.667969 377.945312 719.703125 385.066406 711.800781 389.628906 C 711.238281 389.417969 710.636719 389.214844 710.0625 389.019531 C 708.246094 388.417969 706.410156 387.871094 704.566406 387.359375 C 705.214844 385.449219 705.578125 383.488281 705.859375 381.5 C 706.136719 379.339844 706.3125 377.179688 706.113281 374.988281 C 703.632812 373.925781 701.054688 373.222656 698.441406 372.609375 C 695.820312 372.027344 693.191406 371.542969 690.496094 371.425781 C 688.585938 372.644531 686.925781 374.136719 685.324219 375.710938 C 683.742188 377.304688 682.238281 378.957031 681.015625 380.859375 C 678.894531 379.550781 676.632812 378.582031 674.324219 377.699219 C 672.003906 376.84375 669.660156 376.082031 667.203125 375.679688 C 669.320312 376.992188 671.582031 377.960938 673.894531 378.84375 C 676.214844 379.695312 678.558594 380.457031 681.015625 380.859375 C 681.707031 382.902344 682.726562 384.765625 683.832031 386.589844 C 684.941406 388.355469 686.117188 390.0625 687.585938 391.5625 C 687.449219 391.816406 687.316406 392.070312 687.183594 392.324219 C 685.042969 392.613281 682.886719 392.777344 680.730469 392.78125 Z M 703.371094 392.75 C 703.007812 391.820312 702.046875 391.097656 701.160156 390.738281 C 699.636719 390.164062 697.960938 390.386719 696.417969 390.628906 C 694.203125 391.003906 692.015625 391.53125 689.8125 391.914062 C 689.011719 392.058594 688.207031 392.1875 687.398438 392.296875 C 687.523438 392.140625 687.652344 391.984375 687.777344 391.824219 C 689.179688 391.628906 690.578125 391.40625 691.96875 391.15625 C 696.152344 390.398438 700.296875 389.46875 704.410156 388.386719 C 705.625 388.636719 706.839844 388.875 708.0625 389.085938 C 709.292969 389.296875 710.527344 389.496094 711.765625 389.648438 C 709.949219 390.691406 708.03125 391.601562 706.019531 392.359375 C 705.203125 392.152344 704.367188 392.378906 703.371094 392.75 Z M 707.738281 393.492188 C 707.144531 392.855469 706.589844 392.507812 706.03125 392.363281 C 707.878906 391.730469 709.675781 390.949219 711.402344 390.035156 C 711.683594 391.902344 711.085938 392.816406 709.640625 393.9375 C 709.265625 394.246094 708.878906 394.566406 708.507812 394.949219 C 708.398438 394.460938 708.140625 393.972656 707.738281 393.492188 Z M 699.324219 669.003906 L 699.316406 668.492188 L 699.324219 669.003906 C 699.636719 668.992188 700.488281 669.324219 701.648438 672.421875 C 702.421875 674.480469 703.027344 676.957031 703.433594 678.601562 C 705.054688 685.191406 707.070312 693.394531 703.855469 695.609375 C 703.332031 695.972656 702.972656 695.964844 702.324219 695.957031 C 701.742188 695.945312 701.011719 695.933594 699.933594 696.1875 C 696.523438 696.992188 694.761719 699.238281 692.898438 701.621094 C 691.921875 702.867188 690.910156 704.160156 689.601562 705.320312 C 684.964844 709.429688 678.898438 709.746094 674.015625 710.003906 C 670.648438 710.179688 660.398438 710.714844 657.234375 705.140625 C 656.636719 704.089844 656.484375 703.140625 656.398438 702.628906 C 655.683594 698.238281 658.6875 695.085938 662.488281 691.09375 C 665.988281 687.421875 670.339844 682.855469 672.875 675.933594 C 673.464844 674.316406 673.832031 672.925781 674.15625 671.695312 C 674.839844 669.101562 675.25 667.535156 677.027344 666.503906 L 677.113281 666.453125 C 680.210938 664.726562 685.59375 665.550781 689.171875 668.320312 C 690.375 669.25 691.183594 670.257812 691.898438 671.148438 C 692.875 672.371094 693.71875 673.425781 695.0625 673.292969 C 696.496094 673.15625 697.25 671.816406 697.917969 670.636719 C 698.367188 669.835938 698.835938 669.007812 699.324219 669.003906 Z M 704.847656 538.925781 C 704.117188 541.863281 703.332031 544.953125 702.714844 547.933594 C 702.121094 547.578125 701.367188 547.472656 700.625 547.765625 C 698.019531 548.542969 695.351562 549.113281 692.65625 549.46875 C 689.773438 549.847656 686.859375 549.988281 683.953125 549.902344 C 689.59375 550.328125 695.308594 549.769531 700.78125 548.324219 C 701.902344 547.902344 703.085938 548.609375 703.171875 549.785156 C 703.183594 549.9375 703.171875 550.089844 703.140625 550.242188 C 703.140625 550.242188 703.035156 550.777344 703.035156 550.777344 C 702.46875 553.648438 702.070312 556.554688 701.824219 559.46875 C 701.472656 563.851562 701.441406 568.261719 701.824219 572.640625 C 701.945312 573.867188 702.027344 575.738281 702.109375 576.976562 C 702.109375 576.976562 702.140625 579.144531 702.140625 579.144531 C 702.136719 591.496094 700.023438 603.761719 699.085938 616.078125 C 697.855469 630.589844 697.59375 645.246094 698.597656 659.78125 C 698.773438 662.519531 699.003906 665.257812 699.269531 667.988281 C 698.21875 668.03125 697.613281 669.097656 697.03125 670.132812 C 696.460938 671.144531 695.867188 672.191406 694.964844 672.28125 C 694.203125 672.355469 693.664062 671.722656 692.691406 670.511719 C 691.976562 669.625 691.089844 668.519531 689.792969 667.515625 C 685.933594 664.527344 680.074219 663.660156 676.644531 665.550781 C 673.78125 654.042969 670.683594 641.933594 667.667969 630.503906 C 665.351562 621.632812 662.859375 612.800781 660.746094 603.886719 C 659.699219 599.4375 658.941406 594.957031 658.671875 590.402344 C 658.410156 585.859375 658.433594 581.25 658.585938 576.703125 C 658.859375 568.628906 659.53125 560.554688 660.632812 552.542969 C 672.007812 558.558594 685.65625 560.394531 698.203125 557.550781 C 685.378906 558.6875 672.699219 556.976562 660.640625 552.480469 C 660.890625 550.6875 661.160156 548.894531 661.453125 547.109375 C 661.453125 547.109375 661.539062 546.542969 661.539062 546.542969 C 661.582031 546.058594 661.769531 545.574219 662.160156 545.265625 C 662.65625 544.851562 663.375 544.757812 663.957031 545.042969 C 664.65625 545.367188 665.355469 545.6875 666.066406 545.980469 C 671.75 548.328125 677.832031 549.710938 683.953125 549.902344 C 682.425781 549.777344 680.90625 549.605469 679.402344 549.355469 C 674.886719 548.628906 670.464844 547.308594 666.304688 545.429688 C 665.609375 545.121094 664.925781 544.792969 664.242188 544.457031 C 663.804688 544.230469 663.292969 544.160156 662.808594 544.242188 C 664.105469 535.464844 663.851562 526.425781 662.035156 517.738281 C 677.636719 521.269531 694.414062 519.160156 708.617188 511.226562 C 707.507812 520.484375 706.921875 529.820312 704.847656 538.925781 Z M 716.363281 490.121094 C 716.226562 493.480469 715.960938 500.0625 715.835938 503.351562 C 715.867188 504.722656 715.175781 505.917969 714.011719 506.613281 C 712.410156 507.714844 710.753906 508.746094 709.058594 509.695312 C 688.148438 521.824219 660.824219 520.820312 640.769531 507.386719 C 639.773438 506.585938 639.304688 505.21875 639.578125 503.972656 C 639.578125 503.972656 639.679688 503.492188 639.679688 503.492188 C 644.589844 480.109375 648.164062 456.453125 650.207031 432.644531 C 650.640625 428.121094 651.109375 421.980469 651.480469 417.292969 C 655.542969 418.628906 659.695312 419.886719 663.828125 420.972656 C 673.90625 423.640625 684.203125 425.5625 694.566406 426.699219 C 702.523438 427.574219 710.53125 427.984375 718.53125 427.941406 C 717.859375 447.960938 717.238281 470.121094 716.363281 490.121094 Z M 763.152344 671.699219 C 763.472656 672.925781 763.839844 674.316406 764.433594 675.933594 C 766.964844 682.855469 771.316406 687.421875 774.816406 691.09375 C 778.617188 695.085938 781.621094 698.238281 780.90625 702.628906 C 780.824219 703.140625 780.667969 704.085938 780.066406 705.140625 C 776.90625 710.714844 766.65625 710.179688 763.28125 710.003906 C 758.40625 709.746094 752.34375 709.429688 747.707031 705.320312 C 746.398438 704.160156 745.386719 702.867188 744.40625 701.621094 C 742.542969 699.238281 740.78125 696.992188 737.375 696.1875 C 736.507812 695.984375 735.867188 695.953125 735.347656 695.953125 C 735.21875 695.953125 735.09375 695.953125 734.980469 695.957031 C 734.328125 695.964844 733.972656 695.972656 733.445312 695.609375 C 730.234375 693.394531 732.25 685.191406 733.875 678.59375 C 734.277344 676.957031 734.882812 674.484375 735.65625 672.421875 C 736.816406 669.324219 737.667969 668.992188 737.980469 669.003906 C 738.46875 669.007812 738.9375 669.835938 739.386719 670.632812 C 740.054688 671.816406 740.808594 673.15625 742.242188 673.292969 C 743.585938 673.421875 744.429688 672.371094 745.410156 671.148438 C 746.121094 670.257812 746.933594 669.25 748.136719 668.320312 C 751.742188 665.527344 757.191406 664.710938 760.273438 666.5 C 762.054688 667.535156 762.46875 669.101562 763.152344 671.699219 Z M 774.5 544.242188 C 774.011719 544.160156 773.5 544.230469 773.058594 544.457031 C 772.378906 544.796875 771.691406 545.121094 771 545.433594 C 766.835938 547.308594 762.414062 548.628906 757.902344 549.359375 C 756.394531 549.605469 754.875 549.777344 753.351562 549.902344 C 759.472656 549.710938 765.554688 548.332031 771.238281 545.980469 C 771.949219 545.6875 772.648438 545.371094 773.34375 545.042969 C 773.929688 544.757812 774.648438 544.855469 775.140625 545.265625 C 775.449219 545.515625 775.65625 545.875 775.722656 546.261719 L 775.765625 546.542969 L 775.851562 547.109375 C 776.144531 548.894531 776.414062 550.6875 776.660156 552.480469 C 764.613281 556.96875 751.914062 558.695312 739.101562 557.550781 C 751.648438 560.386719 765.300781 558.566406 776.667969 552.542969 C 777.773438 560.550781 778.449219 568.625 778.71875 576.703125 C 778.871094 581.25 778.894531 585.855469 778.632812 590.402344 C 778.359375 594.957031 777.605469 599.4375 776.5625 603.886719 C 774.449219 612.800781 771.953125 621.632812 769.636719 630.503906 C 766.617188 641.9375 763.523438 654.035156 760.65625 665.550781 C 757.226562 663.664062 751.371094 664.527344 747.511719 667.515625 C 746.214844 668.519531 745.328125 669.625 744.613281 670.511719 C 743.640625 671.722656 743.101562 672.351562 742.339844 672.28125 C 741.4375 672.191406 740.84375 671.144531 740.273438 670.132812 C 739.691406 669.097656 739.085938 668.027344 738.035156 667.988281 C 738.300781 665.257812 738.53125 662.519531 738.707031 659.78125 C 739.714844 645.25 739.449219 630.589844 738.21875 616.078125 C 737.277344 603.765625 735.167969 591.5 735.164062 579.144531 L 735.195312 576.976562 C 735.273438 575.738281 735.367188 573.859375 735.484375 572.644531 C 735.859375 568.261719 735.832031 563.851562 735.480469 559.472656 C 735.238281 556.554688 734.835938 553.652344 734.269531 550.78125 C 734.269531 550.78125 734.164062 550.242188 734.164062 550.242188 C 733.902344 548.855469 735.226562 547.84375 736.523438 548.324219 C 741.996094 549.769531 747.707031 550.328125 753.351562 549.902344 C 750.445312 549.988281 747.53125 549.847656 744.648438 549.46875 C 741.949219 549.109375 739.285156 548.542969 736.679688 547.765625 C 735.929688 547.46875 735.175781 547.578125 734.582031 547.941406 C 734.265625 546.402344 733.902344 544.875 733.542969 543.351562 C 730.472656 532.25 730.085938 520.667969 728.800781 509.265625 C 729.402344 509.585938 730.003906 509.902344 730.613281 510.210938 C 744.480469 517.328125 760.285156 519.554688 775.359375 516.992188 C 773.46875 525.917969 773.1875 535.214844 774.5 544.242188 Z M 801.125 495.65625 C 801.207031 496.597656 801.714844 501.421875 801.769531 502.25 C 801.945312 503.496094 801.914062 504.710938 801.144531 505.734375 C 800.660156 506.433594 799.992188 506.800781 799.238281 507.222656 C 793.902344 510.253906 788.191406 512.644531 782.269531 514.257812 C 764.925781 519.140625 745.871094 516.96875 729.917969 508.664062 C 728.355469 507.863281 726.824219 507.003906 725.324219 506.089844 C 725.160156 505.992188 724.632812 505.660156 724.484375 505.570312 C 723.71875 505.121094 723.113281 504.414062 722.804688 503.574219 C 722.539062 502.90625 722.539062 501.808594 722.476562 501.089844 L 722.28125 498.441406 C 722.140625 496.625 721.835938 492.253906 721.683594 490.503906 C 720.839844 481.335938 719.625 472.183594 718.039062 463.109375 C 718.277344 451.21875 718.429688 439.238281 718.546875 427.941406 C 734.894531 427.847656 751.230469 425.847656 767.113281 421.980469 C 773.023438 420.515625 778.882812 418.828125 784.648438 416.875 C 785.203125 416.683594 786.394531 416.28125 786.929688 416.089844 C 786.929688 418.695312 787.6875 421.792969 788.871094 424.132812 C 788.207031 425.910156 787.78125 427.773438 787.636719 429.671875 C 787.535156 432.316406 787.953125 434.898438 787.921875 437.519531 C 788.007812 440.9375 787.75 444.503906 787.722656 447.929688 C 787.746094 449.324219 787.816406 451.226562 789.328125 451.886719 C 790.871094 452.542969 792.925781 451.796875 794.199219 450.523438 C 794.15625 451.25 794.375 451.984375 794.824219 452.5625 C 794.605469 452.992188 794.371094 453.414062 794.128906 453.832031 C 793.523438 454.90625 792.871094 455.957031 792.261719 457.070312 C 791.640625 458.234375 791.042969 459.441406 791 460.832031 C 790.929688 462.605469 792.367188 464.726562 794.273438 464.753906 C 794.890625 464.730469 795.457031 464.4375 795.96875 464.015625 C 796.328125 464.308594 796.746094 464.351562 797.179688 464.253906 C 798.726562 474.691406 800.054688 485.160156 801.125 495.65625 Z M 801.125 495.65625 " fill-opacity="1" fill-rule="nonzero"/></g></svg>