<svg xmlns="http://www.w3.org/2000/svg" xmlns:xlink="http://www.w3.org/1999/xlink" width="1920" zoomAndPan="magnify" viewBox="0 0 1440 809.999993" height="1080" preserveAspectRatio="xMidYMid meet" version="1.0"><defs><clipPath id="b2c689535b"><path d="M 592.054688 636 L 847.804688 636 L 847.804688 689.886719 L 592.054688 689.886719 Z M 592.054688 636 " clip-rule="nonzero"/></clipPath><clipPath id="515c1ff86b"><path d="M 592.054688 618 L 847.804688 618 L 847.804688 672 L 592.054688 672 Z M 592.054688 618 " clip-rule="nonzero"/></clipPath></defs><g clip-path="url(#b2c689535b)"><path fill="#ffc344" d="M 720.003906 636.863281 C 711.402344 636.867188 702.890625 637.046875 694.46875 637.40625 C 686.046875 637.761719 677.882812 638.285156 669.972656 638.980469 C 662.066406 639.675781 654.578125 640.527344 647.507812 641.53125 C 640.433594 642.535156 633.921875 643.675781 627.96875 644.949219 L 592.054688 644.949219 L 592.054688 663.140625 C 592.054688 663.570312 592.109375 664 592.210938 664.429688 C 592.3125 664.859375 592.464844 665.289062 592.671875 665.714844 C 592.878906 666.144531 593.132812 666.570312 593.441406 666.996094 C 593.746094 667.421875 594.105469 667.847656 594.511719 668.265625 C 594.921875 668.6875 595.378906 669.109375 595.886719 669.527344 C 596.398438 669.941406 596.957031 670.355469 597.566406 670.769531 C 598.171875 671.179688 598.828125 671.589844 599.535156 671.992188 C 600.238281 672.398438 600.992188 672.800781 601.792969 673.195312 C 602.59375 673.59375 603.441406 673.988281 604.335938 674.375 C 605.234375 674.765625 606.175781 675.148438 607.164062 675.527344 C 608.148438 675.90625 609.179688 676.28125 610.257812 676.648438 C 611.332031 677.019531 612.453125 677.382812 613.617188 677.738281 C 614.78125 678.097656 615.984375 678.449219 617.234375 678.792969 C 618.480469 679.140625 619.769531 679.480469 621.097656 679.8125 C 622.425781 680.144531 623.792969 680.46875 625.199219 680.789062 C 626.605469 681.105469 628.050781 681.417969 629.53125 681.722656 C 631.011719 682.027344 632.527344 682.320312 634.078125 682.609375 C 635.628906 682.898438 637.214844 683.179688 638.835938 683.453125 C 640.453125 683.726562 642.101562 683.992188 643.785156 684.246094 C 645.464844 684.503906 647.175781 684.75 648.917969 684.988281 C 650.660156 685.226562 652.429688 685.457031 654.222656 685.679688 C 656.019531 685.898438 657.839844 686.113281 659.6875 686.316406 C 661.535156 686.519531 663.402344 686.710938 665.296875 686.894531 C 667.1875 687.078125 669.101562 687.253906 671.039062 687.417969 C 672.972656 687.582031 674.925781 687.738281 676.894531 687.882812 C 678.871094 688.027344 680.859375 688.160156 682.863281 688.285156 C 684.863281 688.410156 686.882812 688.527344 688.914062 688.628906 C 690.945312 688.734375 692.988281 688.828125 695.039062 688.914062 C 697.09375 688.996094 699.15625 689.070312 701.226562 689.132812 C 703.300781 689.195312 705.378906 689.25 707.460938 689.292969 C 709.546875 689.335938 711.632812 689.367188 713.722656 689.386719 C 715.816406 689.40625 717.90625 689.417969 720.003906 689.417969 C 722.09375 689.417969 724.1875 689.40625 726.28125 689.386719 C 728.371094 689.367188 730.460938 689.332031 732.542969 689.292969 C 734.628906 689.25 736.703125 689.195312 738.773438 689.132812 C 740.847656 689.070312 742.910156 688.996094 744.964844 688.914062 C 747.015625 688.828125 749.058594 688.734375 751.089844 688.628906 C 753.121094 688.527344 755.136719 688.410156 757.140625 688.285156 C 759.144531 688.160156 761.132812 688.027344 763.105469 687.882812 C 765.078125 687.738281 767.03125 687.582031 768.964844 687.417969 C 770.898438 687.253906 772.8125 687.078125 774.707031 686.894531 C 776.597656 686.710938 778.46875 686.519531 780.316406 686.316406 C 782.160156 686.113281 783.980469 685.898438 785.777344 685.679688 C 787.574219 685.457031 789.34375 685.226562 791.085938 684.988281 C 792.824219 684.75 794.535156 684.503906 796.21875 684.246094 C 797.898438 683.992188 799.550781 683.726562 801.167969 683.453125 C 802.789062 683.179688 804.375 682.898438 805.925781 682.609375 C 807.476562 682.324219 808.992188 682.027344 810.472656 681.722656 C 811.953125 681.417969 813.398438 681.105469 814.804688 680.789062 C 816.210938 680.46875 817.578125 680.144531 818.90625 679.8125 C 820.234375 679.476562 821.523438 679.140625 822.769531 678.792969 C 824.015625 678.449219 825.222656 678.097656 826.386719 677.738281 C 827.546875 677.382812 828.667969 677.019531 829.746094 676.648438 C 830.820312 676.28125 831.851562 675.90625 832.839844 675.527344 C 833.824219 675.148438 834.765625 674.765625 835.660156 674.375 C 836.554688 673.988281 837.40625 673.59375 838.207031 673.195312 C 839.007812 672.800781 839.761719 672.398438 840.46875 671.992188 C 841.171875 671.589844 841.832031 671.179688 842.4375 670.769531 C 843.046875 670.355469 843.605469 669.941406 844.113281 669.527344 C 844.621094 669.109375 845.082031 668.6875 845.488281 668.265625 C 845.898438 667.84375 846.257812 667.421875 846.5625 666.996094 C 846.871094 666.570312 847.125 666.144531 847.332031 665.714844 C 847.539062 665.289062 847.691406 664.859375 847.792969 664.429688 C 847.898438 664 847.949219 663.570312 847.949219 663.140625 L 847.949219 644.953125 L 812.292969 644.953125 C 806.324219 643.675781 799.796875 642.535156 792.703125 641.527344 C 785.609375 640.523438 778.097656 639.671875 770.167969 638.976562 C 762.238281 638.28125 754.050781 637.757812 745.605469 637.402344 C 737.15625 637.046875 728.625 636.871094 720.003906 636.871094 Z M 720.003906 636.863281 " fill-opacity="1" fill-rule="nonzero"/></g><g clip-path="url(#515c1ff86b)"><path fill="#ffde59" d="M 847.949219 644.949219 C 847.949219 645.378906 847.898438 645.808594 847.792969 646.238281 C 847.691406 646.667969 847.539062 647.097656 847.332031 647.523438 C 847.125 647.953125 846.871094 648.378906 846.5625 648.804688 C 846.257812 649.230469 845.898438 649.652344 845.488281 650.074219 C 845.082031 650.496094 844.621094 650.917969 844.113281 651.335938 C 843.605469 651.75 843.046875 652.164062 842.4375 652.578125 C 841.832031 652.988281 841.171875 653.398438 840.46875 653.800781 C 839.761719 654.207031 839.007812 654.609375 838.207031 655.003906 C 837.40625 655.402344 836.558594 655.796875 835.664062 656.183594 C 834.765625 656.574219 833.824219 656.957031 832.839844 657.335938 C 831.851562 657.714844 830.820312 658.089844 829.746094 658.457031 C 828.667969 658.828125 827.546875 659.191406 826.386719 659.550781 C 825.222656 659.90625 824.015625 660.257812 822.769531 660.601562 C 821.523438 660.949219 820.234375 661.285156 818.90625 661.621094 C 817.578125 661.953125 816.210938 662.277344 814.800781 662.597656 C 813.398438 662.914062 811.953125 663.226562 810.472656 663.53125 C 808.992188 663.835938 807.476562 664.128906 805.925781 664.417969 C 804.375 664.707031 802.789062 664.988281 801.171875 665.261719 C 799.550781 665.535156 797.902344 665.800781 796.21875 666.054688 C 794.535156 666.3125 792.824219 666.558594 791.085938 666.796875 C 789.34375 667.035156 787.574219 667.265625 785.777344 667.488281 C 783.984375 667.707031 782.160156 667.921875 780.316406 668.125 C 778.46875 668.328125 776.597656 668.519531 774.707031 668.703125 C 772.8125 668.886719 770.898438 669.0625 768.964844 669.226562 C 767.03125 669.390625 765.078125 669.546875 763.105469 669.691406 C 761.132812 669.835938 759.144531 669.96875 757.140625 670.09375 C 755.136719 670.21875 753.121094 670.335938 751.089844 670.4375 C 749.058594 670.542969 747.015625 670.636719 744.964844 670.722656 C 742.910156 670.804688 740.847656 670.878906 738.773438 670.941406 C 736.703125 671.003906 734.628906 671.058594 732.542969 671.101562 C 730.460938 671.140625 728.371094 671.171875 726.28125 671.195312 C 724.1875 671.214844 722.09375 671.226562 720.003906 671.226562 C 717.90625 671.226562 715.816406 671.214844 713.722656 671.195312 C 711.632812 671.175781 709.546875 671.144531 707.460938 671.101562 C 705.378906 671.058594 703.300781 671.003906 701.226562 670.941406 C 699.15625 670.878906 697.09375 670.804688 695.039062 670.722656 C 692.988281 670.636719 690.945312 670.542969 688.914062 670.4375 C 686.882812 670.335938 684.863281 670.21875 682.863281 670.09375 C 680.859375 669.96875 678.871094 669.835938 676.894531 669.691406 C 674.925781 669.546875 672.972656 669.390625 671.039062 669.226562 C 669.101562 669.0625 667.1875 668.886719 665.296875 668.703125 C 663.402344 668.519531 661.535156 668.328125 659.6875 668.125 C 657.839844 667.921875 656.019531 667.707031 654.222656 667.488281 C 652.425781 667.265625 650.65625 667.035156 648.917969 666.796875 C 647.175781 666.558594 645.464844 666.3125 643.78125 666.054688 C 642.101562 665.800781 640.449219 665.535156 638.832031 665.261719 C 637.214844 664.988281 635.628906 664.707031 634.078125 664.417969 C 632.527344 664.128906 631.011719 663.835938 629.527344 663.53125 C 628.046875 663.226562 626.605469 662.914062 625.199219 662.597656 C 623.792969 662.277344 622.425781 661.953125 621.097656 661.621094 C 619.769531 661.285156 618.480469 660.949219 617.234375 660.601562 C 615.984375 660.257812 614.78125 659.90625 613.617188 659.546875 C 612.453125 659.191406 611.332031 658.828125 610.257812 658.457031 C 609.179688 658.089844 608.148438 657.714844 607.164062 657.335938 C 606.175781 656.957031 605.234375 656.574219 604.339844 656.183594 C 603.441406 655.796875 602.59375 655.402344 601.792969 655.003906 C 600.992188 654.605469 600.238281 654.207031 599.535156 653.800781 C 598.832031 653.394531 598.171875 652.988281 597.566406 652.578125 C 596.957031 652.164062 596.398438 651.75 595.890625 651.332031 C 595.378906 650.917969 594.921875 650.496094 594.511719 650.074219 C 594.105469 649.652344 593.746094 649.230469 593.441406 648.804688 C 593.132812 648.378906 592.878906 647.953125 592.671875 647.523438 C 592.464844 647.097656 592.3125 646.667969 592.210938 646.238281 C 592.109375 645.808594 592.054688 645.378906 592.054688 644.949219 C 592.054688 644.519531 592.109375 644.089844 592.210938 643.660156 C 592.3125 643.230469 592.464844 642.800781 592.671875 642.375 C 592.878906 641.945312 593.132812 641.519531 593.441406 641.09375 C 593.746094 640.667969 594.105469 640.246094 594.515625 639.824219 C 594.921875 639.402344 595.382812 638.980469 595.890625 638.566406 C 596.398438 638.148438 596.957031 637.734375 597.566406 637.324219 C 598.171875 636.910156 598.828125 636.503906 599.535156 636.097656 C 600.242188 635.691406 600.996094 635.292969 601.796875 634.894531 C 602.597656 634.496094 603.445312 634.105469 604.339844 633.714844 C 605.234375 633.328125 606.175781 632.941406 607.164062 632.5625 C 608.148438 632.183594 609.183594 631.808594 610.257812 631.441406 C 611.335938 631.070312 612.457031 630.707031 613.617188 630.351562 C 614.78125 629.992188 615.988281 629.640625 617.234375 629.296875 C 618.484375 628.953125 619.769531 628.613281 621.101562 628.28125 C 622.429688 627.949219 623.792969 627.621094 625.203125 627.304688 C 626.605469 626.984375 628.050781 626.671875 629.53125 626.371094 C 631.011719 626.066406 632.527344 625.769531 634.078125 625.480469 C 635.628906 625.191406 637.214844 624.910156 638.835938 624.636719 C 640.453125 624.363281 642.101562 624.101562 643.785156 623.84375 C 645.464844 623.585938 647.175781 623.339844 648.917969 623.101562 C 650.660156 622.863281 652.429688 622.632812 654.222656 622.410156 C 656.019531 622.191406 657.839844 621.976562 659.6875 621.777344 C 661.535156 621.574219 663.402344 621.378906 665.296875 621.195312 C 667.1875 621.011719 669.101562 620.835938 671.039062 620.671875 C 672.972656 620.507812 674.925781 620.351562 676.898438 620.207031 C 678.871094 620.0625 680.859375 619.929688 682.863281 619.804688 C 684.863281 619.679688 686.882812 619.566406 688.914062 619.460938 C 690.945312 619.355469 692.988281 619.261719 695.039062 619.175781 C 697.09375 619.09375 699.15625 619.019531 701.226562 618.957031 C 703.300781 618.894531 705.378906 618.839844 707.460938 618.800781 C 709.546875 618.757812 711.632812 618.726562 713.722656 618.703125 C 715.816406 618.683594 717.90625 618.671875 720.003906 618.671875 C 722.09375 618.671875 724.1875 618.683594 726.28125 618.703125 C 728.371094 618.726562 730.460938 618.757812 732.542969 618.800781 C 734.628906 618.839844 736.703125 618.894531 738.773438 618.957031 C 740.847656 619.019531 742.910156 619.09375 744.964844 619.175781 C 747.015625 619.261719 749.058594 619.355469 751.089844 619.460938 C 753.121094 619.5625 755.136719 619.679688 757.140625 619.804688 C 759.144531 619.929688 761.132812 620.0625 763.105469 620.207031 C 765.078125 620.351562 767.03125 620.507812 768.964844 620.671875 C 770.898438 620.835938 772.8125 621.011719 774.707031 621.195312 C 776.597656 621.378906 778.46875 621.570312 780.316406 621.773438 C 782.160156 621.976562 783.980469 622.1875 785.777344 622.410156 C 787.574219 622.632812 789.34375 622.863281 791.085938 623.101562 C 792.824219 623.339844 794.535156 623.585938 796.21875 623.84375 C 797.898438 624.097656 799.550781 624.363281 801.167969 624.636719 C 802.789062 624.910156 804.375 625.191406 805.925781 625.480469 C 807.476562 625.769531 808.992188 626.066406 810.472656 626.367188 C 811.953125 626.671875 813.398438 626.984375 814.804688 627.304688 C 816.210938 627.621094 817.578125 627.945312 818.90625 628.28125 C 820.234375 628.613281 821.523438 628.949219 822.769531 629.296875 C 824.015625 629.640625 825.222656 629.992188 826.386719 630.351562 C 827.546875 630.707031 828.667969 631.070312 829.746094 631.441406 C 830.820312 631.808594 831.851562 632.183594 832.839844 632.5625 C 833.824219 632.941406 834.765625 633.324219 835.660156 633.714844 C 836.554688 634.101562 837.40625 634.496094 838.207031 634.894531 C 839.007812 635.289062 839.761719 635.691406 840.46875 636.097656 C 841.171875 636.5 841.832031 636.910156 842.4375 637.320312 C 843.046875 637.734375 843.605469 638.148438 844.113281 638.5625 C 844.621094 638.980469 845.082031 639.402344 845.488281 639.824219 C 845.898438 640.246094 846.257812 640.667969 846.5625 641.09375 C 846.871094 641.519531 847.125 641.945312 847.332031 642.375 C 847.539062 642.800781 847.691406 643.230469 847.792969 643.660156 C 847.898438 644.089844 847.949219 644.519531 847.949219 644.949219 Z M 847.949219 644.949219 " fill-opacity="1" fill-rule="nonzero"/></g><path fill="#ffc344" d="M 720.003906 631.976562 C 716.203125 631.980469 712.441406 632.058594 708.71875 632.214844 C 704.996094 632.375 701.386719 632.605469 697.894531 632.914062 C 694.398438 633.222656 691.089844 633.597656 687.964844 634.042969 C 684.839844 634.484375 681.960938 634.988281 679.332031 635.554688 L 663.460938 635.554688 L 663.460938 643.601562 C 663.460938 643.980469 663.550781 644.359375 663.730469 644.738281 C 663.914062 645.117188 664.1875 645.496094 664.546875 645.867188 C 664.90625 646.242188 665.355469 646.609375 665.894531 646.976562 C 666.429688 647.339844 667.054688 647.695312 667.761719 648.046875 C 668.472656 648.398438 669.261719 648.742188 670.132812 649.078125 C 671.007812 649.414062 671.957031 649.742188 672.988281 650.058594 C 674.015625 650.375 675.117188 650.679688 676.292969 650.972656 C 677.464844 651.269531 678.710938 651.550781 680.019531 651.820312 C 681.328125 652.089844 682.699219 652.34375 684.128906 652.585938 C 685.5625 652.828125 687.046875 653.054688 688.585938 653.265625 C 690.128906 653.476562 691.714844 653.671875 693.347656 653.851562 C 694.980469 654.03125 696.652344 654.191406 698.363281 654.339844 C 700.074219 654.484375 701.816406 654.613281 703.585938 654.722656 C 705.359375 654.832031 707.152344 654.925781 708.972656 655 C 710.785156 655.074219 712.613281 655.128906 714.457031 655.167969 C 716.300781 655.207031 718.148438 655.222656 720 655.222656 C 721.851562 655.222656 723.699219 655.207031 725.542969 655.167969 C 727.386719 655.128906 729.214844 655.074219 731.03125 655 C 732.847656 654.925781 734.640625 654.832031 736.414062 654.722656 C 738.1875 654.613281 739.929688 654.484375 741.640625 654.339844 C 743.347656 654.195312 745.019531 654.03125 746.652344 653.851562 C 748.289062 653.671875 749.871094 653.476562 751.414062 653.265625 C 752.953125 653.054688 754.4375 652.828125 755.871094 652.585938 C 757.300781 652.34375 758.671875 652.089844 759.980469 651.820312 C 761.292969 651.550781 762.535156 651.269531 763.707031 650.972656 C 764.882812 650.679688 765.984375 650.375 767.011719 650.058594 C 768.042969 649.742188 768.992188 649.414062 769.863281 649.078125 C 770.738281 648.742188 771.527344 648.398438 772.238281 648.046875 C 772.945312 647.695312 773.570312 647.339844 774.105469 646.972656 C 774.644531 646.609375 775.09375 646.242188 775.457031 645.867188 C 775.816406 645.496094 776.085938 645.117188 776.269531 644.738281 C 776.449219 644.359375 776.542969 643.980469 776.542969 643.601562 L 776.542969 635.554688 L 760.785156 635.554688 C 758.148438 634.992188 755.261719 634.484375 752.128906 634.039062 C 748.996094 633.59375 745.675781 633.21875 742.171875 632.910156 C 738.667969 632.605469 735.046875 632.371094 731.316406 632.214844 C 727.582031 632.058594 723.8125 631.980469 720 631.980469 Z M 720.003906 631.976562 " fill-opacity="1" fill-rule="nonzero"/><path fill="#ffd15b" d="M 776.542969 635.554688 C 776.542969 635.933594 776.453125 636.3125 776.273438 636.691406 C 776.089844 637.070312 775.820312 637.449219 775.457031 637.820312 C 775.097656 638.195312 774.648438 638.5625 774.109375 638.925781 C 773.574219 639.292969 772.949219 639.648438 772.238281 640 C 771.53125 640.351562 770.738281 640.695312 769.867188 641.03125 C 768.996094 641.367188 768.042969 641.695312 767.015625 642.011719 C 765.984375 642.328125 764.882812 642.632812 763.710938 642.925781 C 762.535156 643.222656 761.292969 643.503906 759.984375 643.773438 C 758.675781 644.042969 757.304688 644.296875 755.871094 644.539062 C 754.441406 644.78125 752.957031 645.007812 751.417969 645.21875 C 749.875 645.429688 748.289062 645.625 746.65625 645.804688 C 745.023438 645.984375 743.351562 646.148438 741.640625 646.292969 C 739.929688 646.4375 738.1875 646.566406 736.414062 646.675781 C 734.644531 646.789062 732.851562 646.878906 731.03125 646.953125 C 729.21875 647.027344 727.390625 647.085938 725.546875 647.121094 C 723.703125 647.160156 721.855469 647.175781 720.003906 647.175781 C 718.152344 647.175781 716.300781 647.160156 714.460938 647.121094 C 712.617188 647.082031 710.789062 647.027344 708.972656 646.953125 C 707.152344 646.878906 705.363281 646.785156 703.589844 646.675781 C 701.816406 646.566406 700.074219 646.4375 698.363281 646.292969 C 696.652344 646.144531 694.980469 645.984375 693.347656 645.804688 C 691.714844 645.625 690.128906 645.429688 688.589844 645.21875 C 687.050781 645.007812 685.566406 644.78125 684.132812 644.539062 C 682.699219 644.296875 681.328125 644.042969 680.019531 643.773438 C 678.710938 643.503906 677.46875 643.222656 676.292969 642.925781 C 675.121094 642.632812 674.019531 642.328125 672.988281 642.011719 C 671.960938 641.695312 671.007812 641.367188 670.136719 641.03125 C 669.265625 640.695312 668.472656 640.351562 667.761719 640 C 667.054688 639.648438 666.429688 639.292969 665.894531 638.925781 C 665.355469 638.5625 664.90625 638.195312 664.546875 637.820312 C 664.1875 637.449219 663.914062 637.070312 663.734375 636.691406 C 663.554688 636.3125 663.460938 635.933594 663.460938 635.554688 C 663.460938 635.171875 663.554688 634.792969 663.734375 634.414062 C 663.914062 634.035156 664.1875 633.660156 664.546875 633.285156 C 664.910156 632.914062 665.359375 632.542969 665.898438 632.179688 C 666.433594 631.816406 667.058594 631.457031 667.765625 631.105469 C 668.476562 630.753906 669.265625 630.410156 670.136719 630.074219 C 671.011719 629.738281 671.960938 629.414062 672.992188 629.09375 C 674.019531 628.78125 675.121094 628.472656 676.296875 628.179688 C 677.472656 627.886719 678.710938 627.605469 680.019531 627.335938 C 681.332031 627.066406 682.703125 626.808594 684.132812 626.570312 C 685.566406 626.328125 687.050781 626.101562 688.589844 625.890625 C 690.128906 625.675781 691.714844 625.484375 693.347656 625.304688 C 694.984375 625.125 696.65625 624.960938 698.367188 624.816406 C 700.074219 624.667969 701.816406 624.542969 703.589844 624.429688 C 705.363281 624.320312 707.152344 624.226562 708.972656 624.152344 C 710.789062 624.078125 712.617188 624.023438 714.460938 623.988281 C 716.304688 623.949219 718.152344 623.929688 720.003906 623.929688 C 721.855469 623.929688 723.703125 623.949219 725.546875 623.984375 C 727.390625 624.023438 729.21875 624.078125 731.03125 624.152344 C 732.851562 624.226562 734.644531 624.320312 736.414062 624.429688 C 738.1875 624.542969 739.929688 624.667969 741.640625 624.816406 C 743.351562 624.960938 745.023438 625.121094 746.65625 625.300781 C 748.289062 625.480469 749.875 625.675781 751.414062 625.890625 C 752.953125 626.101562 754.4375 626.328125 755.871094 626.570312 C 757.300781 626.808594 758.671875 627.066406 759.980469 627.335938 C 761.292969 627.605469 762.535156 627.886719 763.707031 628.179688 C 764.882812 628.472656 765.984375 628.78125 767.015625 629.097656 C 768.042969 629.414062 768.996094 629.738281 769.867188 630.074219 C 770.738281 630.410156 771.527344 630.753906 772.238281 631.105469 C 772.949219 631.457031 773.574219 631.816406 774.109375 632.179688 C 774.648438 632.542969 775.097656 632.914062 775.457031 633.285156 C 775.820312 633.660156 776.089844 634.035156 776.273438 634.414062 C 776.453125 634.792969 776.542969 635.171875 776.542969 635.554688 Z M 776.542969 635.554688 " fill-opacity="1" fill-rule="nonzero"/><path fill="#ffde59" d="M 705.835938 120.582031 L 734.171875 120.582031 L 734.171875 637.03125 C 723.617188 639.828125 714.046875 639.410156 705.835938 637.03125 Z M 705.835938 120.582031 " fill-opacity="1" fill-rule="nonzero"/></svg>