<svg xmlns="http://www.w3.org/2000/svg" xmlns:xlink="http://www.w3.org/1999/xlink" width="1920" zoomAndPan="magnify" viewBox="0 0 1440 809.999993" height="1080" preserveAspectRatio="xMidYMid meet" version="1.0"><defs><clipPath id="c54727db14"><path d="M 452.410156 252 L 987.910156 252 L 987.910156 567 L 452.410156 567 Z M 452.410156 252 " clip-rule="nonzero"/></clipPath><clipPath id="c69b66e961"><path d="M 452.488281 412 L 987.5 412 L 987.5 572.671875 L 452.488281 572.671875 Z M 452.488281 412 " clip-rule="nonzero"/></clipPath><clipPath id="e008042ae9"><path d="M 452.410156 252 L 987.910156 252 L 987.910156 413 L 452.410156 413 Z M 452.410156 252 " clip-rule="nonzero"/></clipPath></defs><g clip-path="url(#c54727db14)"><path fill="#ea1f29" d="M 954.453125 463.691406 C 942.140625 480.617188 923.976562 496.265625 900.539062 509.816406 C 800.972656 567.296875 638.972656 567.296875 539.457031 509.816406 C 492.570312 482.757812 466.75 447.195312 466.75 409.675781 C 466.75 409.011719 466.75 408.296875 466.800781 407.632812 C 467.703125 370.925781 493.425781 336.167969 539.402344 309.589844 C 589.191406 280.820312 654.566406 266.460938 719.949219 266.460938 C 785.371094 266.460938 850.753906 280.820312 900.539062 309.589844 C 946.5625 336.167969 972.285156 370.925781 973.1875 407.679688 C 973.238281 408.34375 973.238281 409.058594 973.238281 409.722656 C 973.238281 428.457031 966.769531 446.714844 954.453125 463.691406 Z M 907.667969 297.222656 C 804.15625 237.457031 635.785156 237.457031 532.273438 297.222656 C 480.828125 326.941406 452.488281 366.882812 452.488281 409.675781 C 452.488281 452.515625 480.828125 492.457031 532.320312 522.175781 C 584.054688 552.035156 652 566.96875 719.996094 566.96875 C 753.996094 566.96875 787.9375 563.210938 819.890625 555.792969 C 851.84375 548.28125 881.804688 537.105469 907.667969 522.175781 C 959.117188 492.457031 987.5 452.515625 987.5 409.722656 C 987.5 366.882812 959.117188 326.941406 907.667969 297.222656 " fill-opacity="1" fill-rule="nonzero"/></g><g clip-path="url(#c69b66e961)"><path fill="#c40013" d="M 987.5 415.433594 C 987.5 458.222656 959.117188 498.164062 907.667969 527.882812 C 881.804688 542.8125 851.84375 553.988281 819.890625 561.496094 C 787.9375 568.914062 753.996094 572.671875 719.996094 572.671875 C 652 572.671875 584.054688 557.746094 532.320312 527.882812 C 480.828125 498.164062 452.488281 458.222656 452.488281 415.386719 C 452.488281 414.433594 452.488281 413.480469 452.535156 412.527344 C 453.769531 454.277344 481.96875 493.125 532.320312 522.175781 C 584.054688 552.035156 652 566.96875 719.996094 566.96875 C 753.996094 566.96875 787.9375 563.210938 819.890625 555.792969 C 851.84375 548.28125 881.804688 537.105469 907.667969 522.175781 C 957.972656 493.125 986.21875 454.277344 987.453125 412.582031 C 987.5 413.527344 987.5 414.480469 987.5 415.433594 " fill-opacity="1" fill-rule="nonzero"/></g><g clip-path="url(#e008042ae9)"><path fill="#f45665" d="M 907.667969 297.222656 C 804.15625 237.457031 635.785156 237.457031 532.273438 297.222656 C 480.828125 326.941406 452.488281 366.882812 452.488281 409.675781 C 452.488281 410.628906 452.488281 411.578125 452.535156 412.527344 C 453.769531 370.828125 481.96875 331.984375 532.273438 302.929688 C 635.785156 243.164062 804.15625 243.164062 907.667969 302.929688 C 957.972656 331.984375 986.21875 370.828125 987.453125 412.582031 C 987.5 411.628906 987.5 410.675781 987.5 409.722656 C 987.5 366.882812 959.117188 326.941406 907.667969 297.222656 " fill-opacity="1" fill-rule="nonzero"/></g><path fill="#c40013" d="M 973.238281 405.636719 C 973.238281 406.300781 973.238281 407.015625 973.1875 407.679688 C 972.285156 370.925781 946.5625 336.167969 900.539062 309.589844 C 850.753906 280.820312 785.371094 266.460938 719.949219 266.460938 C 654.566406 266.460938 589.191406 280.820312 539.402344 309.589844 C 493.425781 336.167969 467.703125 370.925781 466.800781 407.632812 C 466.75 406.964844 466.75 406.253906 466.75 405.585938 C 466.75 368.121094 492.570312 332.550781 539.402344 305.5 C 589.191406 276.730469 654.566406 262.371094 719.949219 262.371094 C 785.371094 262.371094 850.753906 276.730469 900.539062 305.5 C 947.417969 332.550781 973.238281 368.121094 973.238281 405.636719 " fill-opacity="1" fill-rule="nonzero"/></svg>