<svg xmlns="http://www.w3.org/2000/svg" xmlns:xlink="http://www.w3.org/1999/xlink" width="1920" zoomAndPan="magnify" viewBox="0 0 1440 809.999993" height="1080" preserveAspectRatio="xMidYMid meet" version="1.0"><defs><clipPath id="dac8cc2c2a"><path d="M 549 276.144531 L 664 276.144531 L 664 457 L 549 457 Z M 549 276.144531 " clip-rule="nonzero"/></clipPath><clipPath id="f3ce209759"><path d="M 608 276.144531 L 844 276.144531 L 844 313 L 608 313 Z M 608 276.144531 " clip-rule="nonzero"/></clipPath><clipPath id="a735a9a10f"><path d="M 546.75 292 L 785 292 L 785 534.144531 L 546.75 534.144531 Z M 546.75 292 " clip-rule="nonzero"/></clipPath></defs><path fill="#000000" d="M 829.835938 316.074219 L 875.882812 477.148438 C 876.023438 477.648438 875.738281 478.167969 875.238281 478.3125 C 874.738281 478.453125 874.21875 478.167969 874.078125 477.667969 L 828.03125 316.59375 C 827.886719 316.09375 828.175781 315.574219 828.675781 315.429688 C 829.171875 315.289062 829.691406 315.578125 829.835938 316.074219 Z M 829.835938 316.074219 " fill-opacity="1" fill-rule="nonzero"/><path fill="#000000" d="M 819.464844 321.1875 L 863.871094 482.992188 C 864.011719 483.492188 863.714844 484.007812 863.214844 484.144531 C 862.714844 484.28125 862.199219 483.988281 862.0625 483.488281 L 817.652344 321.683594 C 817.515625 321.183594 817.808594 320.667969 818.308594 320.53125 C 818.808594 320.394531 819.328125 320.6875 819.464844 321.1875 Z M 819.464844 321.1875 " fill-opacity="1" fill-rule="nonzero"/><path fill="#000000" d="M 804.355469 326.464844 L 850.585938 489.175781 C 850.726562 489.675781 850.4375 490.195312 849.9375 490.339844 C 849.4375 490.480469 848.921875 490.191406 848.777344 489.691406 L 802.550781 326.976562 C 802.40625 326.476562 802.695312 325.957031 803.195312 325.816406 C 803.695312 325.675781 804.214844 325.964844 804.355469 326.464844 Z M 804.355469 326.464844 " fill-opacity="1" fill-rule="nonzero"/><path fill="#000000" d="M 792.164062 332.117188 L 837.300781 495.195312 C 837.4375 495.695312 837.144531 496.214844 836.644531 496.351562 C 836.144531 496.492188 835.628906 496.199219 835.492188 495.699219 L 790.355469 332.621094 C 790.214844 332.121094 790.507812 331.601562 791.007812 331.464844 C 791.507812 331.324219 792.023438 331.617188 792.164062 332.117188 Z M 792.164062 332.117188 " fill-opacity="1" fill-rule="nonzero"/><path fill="#000000" d="M 781.105469 351.140625 L 824.554688 501.382812 C 824.699219 501.878906 824.414062 502.402344 823.914062 502.546875 C 823.417969 502.691406 822.898438 502.402344 822.753906 501.902344 L 779.300781 351.664062 C 779.15625 351.167969 779.445312 350.644531 779.941406 350.5 C 780.441406 350.355469 780.960938 350.644531 781.105469 351.140625 Z M 781.105469 351.140625 " fill-opacity="1" fill-rule="nonzero"/><path fill="#000000" d="M 779.785156 395.699219 L 812 507.941406 C 812.140625 508.441406 811.855469 508.960938 811.355469 509.105469 C 810.859375 509.25 810.335938 508.960938 810.195312 508.460938 L 777.980469 396.21875 C 777.835938 395.722656 778.125 395.199219 778.621094 395.058594 C 779.121094 394.914062 779.640625 395.203125 779.785156 395.699219 Z M 779.785156 395.699219 " fill-opacity="1" fill-rule="nonzero"/><path fill="#000000" d="M 778.691406 440.707031 L 799.621094 513.226562 C 799.765625 513.722656 799.480469 514.246094 798.980469 514.390625 C 798.484375 514.53125 797.960938 514.246094 797.820312 513.746094 L 776.886719 441.226562 C 776.746094 440.730469 777.03125 440.207031 777.527344 440.0625 C 778.027344 439.917969 778.546875 440.207031 778.691406 440.707031 Z M 778.691406 440.707031 " fill-opacity="1" fill-rule="nonzero"/><path fill="#000000" d="M 602.503906 283.101562 L 648.996094 404.808594 C 649.183594 405.296875 648.941406 405.839844 648.457031 406.023438 C 647.972656 406.210938 647.429688 405.964844 647.242188 405.480469 L 600.75 283.773438 C 600.566406 283.289062 600.808594 282.746094 601.292969 282.558594 C 601.777344 282.375 602.320312 282.617188 602.503906 283.101562 Z M 602.503906 283.101562 " fill-opacity="1" fill-rule="nonzero"/><path fill="#000000" d="M 592.347656 286.214844 L 638.164062 409.992188 C 638.34375 410.476562 638.097656 411.019531 637.609375 411.199219 C 637.125 411.378906 636.582031 411.132812 636.402344 410.644531 L 590.585938 286.867188 C 590.40625 286.378906 590.65625 285.839844 591.140625 285.660156 C 591.628906 285.480469 592.167969 285.726562 592.347656 286.214844 Z M 592.347656 286.214844 " fill-opacity="1" fill-rule="nonzero"/><path fill="#000000" d="M 581.332031 290.878906 L 626.273438 417.085938 C 626.449219 417.578125 626.195312 418.113281 625.707031 418.289062 C 625.21875 418.460938 624.679688 418.207031 624.507812 417.71875 L 579.5625 291.511719 C 579.390625 291.023438 579.644531 290.484375 580.132812 290.308594 C 580.621094 290.136719 581.15625 290.390625 581.332031 290.878906 Z M 581.332031 290.878906 " fill-opacity="1" fill-rule="nonzero"/><path fill="#000000" d="M 568.589844 295.371094 L 612.671875 422.765625 C 612.84375 423.257812 612.582031 423.792969 612.09375 423.960938 C 611.605469 424.132812 611.070312 423.871094 610.898438 423.382812 L 566.816406 295.984375 C 566.648438 295.496094 566.90625 294.960938 567.398438 294.789062 C 567.886719 294.621094 568.421875 294.878906 568.589844 295.371094 Z M 568.589844 295.371094 " fill-opacity="1" fill-rule="nonzero"/><path fill="#000000" d="M 557.75 301.589844 L 599.59375 429.503906 C 599.753906 430 599.484375 430.53125 598.992188 430.691406 C 598.5 430.851562 597.96875 430.582031 597.808594 430.089844 L 555.964844 302.175781 C 555.804688 301.683594 556.070312 301.152344 556.5625 300.992188 C 557.058594 300.828125 557.585938 301.097656 557.75 301.589844 Z M 557.75 301.589844 " fill-opacity="1" fill-rule="nonzero"/><path fill="#000000" d="M 555.855469 336.589844 L 588.226562 436.230469 C 588.386719 436.722656 588.117188 437.253906 587.625 437.414062 C 587.132812 437.574219 586.601562 437.304688 586.441406 436.8125 L 554.070312 337.167969 C 553.910156 336.675781 554.179688 336.144531 554.671875 335.984375 C 555.164062 335.824219 555.695312 336.09375 555.855469 336.589844 Z M 555.855469 336.589844 " fill-opacity="1" fill-rule="nonzero"/><path fill="#000000" d="M 554.988281 376.738281 L 577.375 441.386719 C 577.542969 441.875 577.285156 442.410156 576.792969 442.582031 C 576.304688 442.75 575.769531 442.492188 575.601562 442 L 553.214844 377.355469 C 553.042969 376.863281 553.304688 376.328125 553.792969 376.160156 C 554.285156 375.988281 554.816406 376.25 554.988281 376.738281 Z M 554.988281 376.738281 " fill-opacity="1" fill-rule="nonzero"/><path fill="#000000" d="M 628.46875 281.863281 L 675.902344 402.601562 C 676.089844 403.085938 675.855469 403.632812 675.371094 403.820312 C 674.890625 404.011719 674.34375 403.773438 674.15625 403.292969 L 626.722656 282.550781 C 626.53125 282.066406 626.769531 281.523438 627.253906 281.332031 C 627.734375 281.140625 628.28125 281.378906 628.46875 281.863281 Z M 628.46875 281.863281 " fill-opacity="1" fill-rule="nonzero"/><path fill="#000000" d="M 643.042969 285.277344 L 688.855469 405.855469 C 689.039062 406.339844 688.796875 406.882812 688.3125 407.066406 C 687.828125 407.25 687.285156 407.007812 687.101562 406.523438 L 641.289062 285.945312 C 641.105469 285.457031 641.347656 284.914062 641.832031 284.730469 C 642.316406 284.546875 642.859375 284.789062 643.042969 285.277344 Z M 643.042969 285.277344 " fill-opacity="1" fill-rule="nonzero"/><path fill="#000000" d="M 658.28125 285.878906 L 707.015625 413.078125 C 707.199219 413.5625 706.957031 414.105469 706.476562 414.289062 C 705.992188 414.476562 705.449219 414.234375 705.261719 413.75 L 656.53125 286.554688 C 656.34375 286.070312 656.585938 285.527344 657.070312 285.339844 C 657.554688 285.152344 658.097656 285.394531 658.28125 285.878906 Z M 658.28125 285.878906 " fill-opacity="1" fill-rule="nonzero"/><path fill="#000000" d="M 673.949219 288.261719 L 722.996094 418.695312 C 723.179688 419.179688 722.933594 419.722656 722.449219 419.90625 C 721.964844 420.089844 721.421875 419.84375 721.242188 419.359375 L 672.191406 288.925781 C 672.007812 288.4375 672.253906 287.898438 672.738281 287.714844 C 673.226562 287.53125 673.765625 287.777344 673.949219 288.261719 Z M 673.949219 288.261719 " fill-opacity="1" fill-rule="nonzero"/><path fill="#000000" d="M 691.199219 290.652344 L 738.191406 421.808594 C 738.367188 422.296875 738.113281 422.835938 737.625 423.011719 C 737.136719 423.183594 736.601562 422.929688 736.425781 422.441406 L 689.433594 291.285156 C 689.257812 290.796875 689.511719 290.261719 690 290.085938 C 690.488281 289.910156 691.023438 290.164062 691.199219 290.652344 Z M 691.199219 290.652344 " fill-opacity="1" fill-rule="nonzero"/><path fill="#000000" d="M 708.894531 291.664062 L 754.585938 427.839844 C 754.75 428.332031 754.484375 428.863281 753.992188 429.027344 C 753.503906 429.191406 752.96875 428.929688 752.804688 428.4375 L 707.113281 292.261719 C 706.949219 291.769531 707.214844 291.238281 707.707031 291.070312 C 708.199219 290.90625 708.730469 291.171875 708.894531 291.664062 Z M 708.894531 291.664062 " fill-opacity="1" fill-rule="nonzero"/><path fill="#000000" d="M 728.480469 294.027344 L 773.914062 435.355469 C 774.070312 435.847656 773.800781 436.378906 773.308594 436.535156 C 772.8125 436.695312 772.285156 436.425781 772.125 435.929688 L 726.695312 294.605469 C 726.535156 294.109375 726.808594 293.582031 727.300781 293.421875 C 727.792969 293.261719 728.324219 293.535156 728.480469 294.027344 Z M 728.480469 294.027344 " fill-opacity="1" fill-rule="nonzero"/><path fill="#000000" d="M 746.457031 297.515625 L 777.957031 392.855469 C 778.121094 393.347656 777.851562 393.878906 777.359375 394.042969 C 776.867188 394.207031 776.335938 393.9375 776.175781 393.445312 L 744.675781 298.105469 C 744.511719 297.613281 744.777344 297.082031 745.269531 296.917969 C 745.761719 296.753906 746.292969 297.023438 746.457031 297.515625 Z M 746.457031 297.515625 " fill-opacity="1" fill-rule="nonzero"/><path fill="#000000" d="M 762.910156 300.179688 L 781.84375 352.96875 C 782.019531 353.457031 781.765625 353.996094 781.28125 354.171875 C 780.792969 354.34375 780.253906 354.09375 780.078125 353.601562 L 761.140625 300.8125 C 760.964844 300.324219 761.21875 299.789062 761.707031 299.613281 C 762.195312 299.4375 762.734375 299.691406 762.910156 300.179688 Z M 762.910156 300.179688 " fill-opacity="1" fill-rule="nonzero"/><path fill="#000000" d="M 780.433594 302.480469 L 793.492188 335.796875 C 793.679688 336.277344 793.445312 336.824219 792.960938 337.011719 C 792.476562 337.203125 791.933594 336.964844 791.746094 336.480469 L 778.683594 303.167969 C 778.496094 302.683594 778.734375 302.140625 779.214844 301.949219 C 779.699219 301.761719 780.242188 302 780.433594 302.480469 Z M 780.433594 302.480469 " fill-opacity="1" fill-rule="nonzero"/><path fill="#000000" d="M 796.453125 302.101562 L 803.476562 325.34375 C 803.625 325.839844 803.347656 326.363281 802.851562 326.515625 C 802.355469 326.664062 801.828125 326.382812 801.679688 325.886719 L 794.65625 302.644531 C 794.503906 302.148438 794.785156 301.625 795.28125 301.472656 C 795.777344 301.324219 796.300781 301.605469 796.453125 302.101562 Z M 796.453125 302.101562 " fill-opacity="1" fill-rule="nonzero"/><path fill="#000000" d="M 814.980469 306.480469 L 818.90625 318.871094 C 819.0625 319.367188 818.789062 319.894531 818.292969 320.050781 C 817.800781 320.210938 817.273438 319.9375 817.117188 319.441406 L 813.191406 307.050781 C 813.035156 306.554688 813.308594 306.027344 813.804688 305.871094 C 814.296875 305.710938 814.824219 305.988281 814.980469 306.480469 Z M 814.980469 306.480469 " fill-opacity="1" fill-rule="nonzero"/><path fill="#000000" d="M 776.378906 504.203125 L 882.351562 455.152344 C 882.820312 454.933594 883.378906 455.140625 883.597656 455.609375 C 883.8125 456.082031 883.609375 456.640625 883.136719 456.859375 L 777.167969 505.910156 C 776.695312 506.125 776.136719 505.921875 775.921875 505.449219 C 775.703125 504.980469 775.910156 504.421875 776.378906 504.203125 Z M 776.378906 504.203125 " fill-opacity="1" fill-rule="nonzero"/><path fill="#000000" d="M 776.011719 481.71875 L 876.601562 435.640625 C 877.070312 435.425781 877.628906 435.632812 877.84375 436.105469 C 878.058594 436.578125 877.851562 437.132812 877.382812 437.351562 L 776.792969 483.429688 C 776.320312 483.644531 775.765625 483.4375 775.546875 482.964844 C 775.332031 482.492188 775.539062 481.9375 776.011719 481.71875 Z M 776.011719 481.71875 " fill-opacity="1" fill-rule="nonzero"/><path fill="#000000" d="M 775.089844 461.464844 L 871.226562 418.542969 C 871.699219 418.332031 872.253906 418.546875 872.464844 419.019531 C 872.675781 419.492188 872.464844 420.050781 871.992188 420.261719 L 775.855469 463.179688 C 775.382812 463.390625 774.828125 463.179688 774.617188 462.703125 C 774.40625 462.230469 774.617188 461.675781 775.089844 461.464844 Z M 775.089844 461.464844 " fill-opacity="1" fill-rule="nonzero"/><path fill="#000000" d="M 776.019531 441.769531 L 866.214844 401.449219 C 866.6875 401.238281 867.242188 401.453125 867.453125 401.925781 C 867.667969 402.398438 867.453125 402.957031 866.980469 403.167969 L 776.785156 443.484375 C 776.3125 443.695312 775.757812 443.484375 775.542969 443.011719 C 775.332031 442.535156 775.546875 441.980469 776.019531 441.769531 Z M 776.019531 441.769531 " fill-opacity="1" fill-rule="nonzero"/><path fill="#000000" d="M 778.484375 418.15625 L 859.769531 381.167969 C 860.242188 380.953125 860.796875 381.160156 861.011719 381.632812 C 861.226562 382.105469 861.015625 382.664062 860.546875 382.878906 L 779.261719 419.867188 C 778.789062 420.082031 778.234375 419.875 778.019531 419.402344 C 777.804688 418.929688 778.015625 418.371094 778.484375 418.15625 Z M 778.484375 418.15625 " fill-opacity="1" fill-rule="nonzero"/><path fill="#000000" d="M 776.304688 396.296875 L 854.0625 361.328125 C 854.535156 361.113281 855.089844 361.324219 855.304688 361.796875 C 855.515625 362.273438 855.304688 362.828125 854.832031 363.039062 L 777.074219 398.011719 C 776.601562 398.226562 776.046875 398.011719 775.835938 397.539062 C 775.621094 397.066406 775.832031 396.511719 776.304688 396.296875 Z M 776.304688 396.296875 " fill-opacity="1" fill-rule="nonzero"/><path fill="#000000" d="M 778.5 373.425781 L 848.363281 342.996094 C 848.835938 342.789062 849.390625 343.007812 849.597656 343.484375 C 849.804688 343.957031 849.585938 344.511719 849.113281 344.71875 L 779.25 375.152344 C 778.773438 375.359375 778.21875 375.140625 778.011719 374.664062 C 777.808594 374.1875 778.023438 373.632812 778.5 373.425781 Z M 778.5 373.425781 " fill-opacity="1" fill-rule="nonzero"/><path fill="#000000" d="M 776.308594 355.777344 L 842.644531 326.019531 C 843.117188 325.804688 843.671875 326.019531 843.882812 326.492188 C 844.09375 326.964844 843.882812 327.523438 843.410156 327.734375 L 777.074219 357.492188 C 776.601562 357.707031 776.046875 357.492188 775.835938 357.019531 C 775.621094 356.546875 775.835938 355.988281 776.308594 355.777344 Z M 776.308594 355.777344 " fill-opacity="1" fill-rule="nonzero"/><path fill="#000000" d="M 555.292969 434.140625 L 652.097656 387.929688 C 652.566406 387.703125 653.125 387.902344 653.347656 388.371094 C 653.570312 388.839844 653.375 389.402344 652.90625 389.625 L 556.097656 435.835938 C 555.632812 436.058594 555.070312 435.863281 554.847656 435.394531 C 554.625 434.925781 554.824219 434.363281 555.292969 434.140625 Z M 555.292969 434.140625 " fill-opacity="1" fill-rule="nonzero"/><path fill="#000000" d="M 554.167969 419.960938 L 647.839844 375.179688 C 648.304688 374.957031 648.867188 375.15625 649.089844 375.621094 C 649.3125 376.089844 649.117188 376.652344 648.648438 376.875 L 554.976562 421.65625 C 554.511719 421.882812 553.949219 421.683594 553.726562 421.214844 C 553.503906 420.746094 553.699219 420.1875 554.167969 419.960938 Z M 554.167969 419.960938 " fill-opacity="1" fill-rule="nonzero"/><path fill="#000000" d="M 554.183594 401.984375 L 642.210938 361.835938 C 642.683594 361.621094 643.242188 361.828125 643.457031 362.300781 C 643.671875 362.773438 643.460938 363.332031 642.992188 363.546875 L 554.960938 403.695312 C 554.492188 403.910156 553.933594 403.703125 553.71875 403.230469 C 553.503906 402.757812 553.710938 402.199219 554.183594 401.984375 Z M 554.183594 401.984375 " fill-opacity="1" fill-rule="nonzero"/><path fill="#000000" d="M 555.734375 385.417969 L 638.328125 348.636719 C 638.800781 348.425781 639.355469 348.640625 639.566406 349.113281 C 639.777344 349.585938 639.5625 350.144531 639.089844 350.355469 L 556.496094 387.132812 C 556.023438 387.34375 555.46875 387.132812 555.257812 386.65625 C 555.046875 386.183594 555.261719 385.628906 555.734375 385.417969 Z M 555.734375 385.417969 " fill-opacity="1" fill-rule="nonzero"/><path fill="#000000" d="M 555.507812 370.515625 L 632.996094 336.925781 C 633.46875 336.71875 634.023438 336.9375 634.230469 337.414062 C 634.433594 337.890625 634.214844 338.445312 633.742188 338.648438 L 556.253906 372.242188 C 555.777344 372.445312 555.226562 372.226562 555.019531 371.753906 C 554.8125 371.277344 555.03125 370.722656 555.507812 370.515625 Z M 555.507812 370.515625 " fill-opacity="1" fill-rule="nonzero"/><path fill="#000000" d="M 555.503906 356.371094 L 628.316406 324.328125 C 628.792969 324.117188 629.347656 324.332031 629.554688 324.808594 C 629.761719 325.285156 629.546875 325.835938 629.074219 326.046875 L 556.257812 358.09375 C 555.785156 358.300781 555.230469 358.085938 555.023438 357.609375 C 554.8125 357.136719 555.027344 356.582031 555.503906 356.371094 Z M 555.503906 356.371094 " fill-opacity="1" fill-rule="nonzero"/><path fill="#000000" d="M 554.964844 340.621094 L 625.472656 313.339844 C 625.957031 313.152344 626.5 313.394531 626.6875 313.878906 C 626.875 314.359375 626.632812 314.90625 626.148438 315.09375 L 555.640625 342.375 C 555.160156 342.5625 554.617188 342.320312 554.429688 341.835938 C 554.242188 341.351562 554.480469 340.808594 554.964844 340.621094 Z M 554.964844 340.621094 " fill-opacity="1" fill-rule="nonzero"/><path fill="#000000" d="M 555.550781 325.460938 L 619.570312 301.5 C 620.058594 301.316406 620.597656 301.5625 620.777344 302.050781 C 620.960938 302.535156 620.714844 303.078125 620.230469 303.257812 L 556.210938 327.222656 C 555.722656 327.402344 555.183594 327.15625 555 326.671875 C 554.820312 326.183594 555.066406 325.644531 555.550781 325.460938 Z M 555.550781 325.460938 " fill-opacity="1" fill-rule="nonzero"/><path fill="#000000" d="M 554.40625 311.890625 L 614.550781 289.949219 C 615.039062 289.769531 615.578125 290.023438 615.753906 290.507812 C 615.929688 290.996094 615.679688 291.535156 615.191406 291.714844 L 555.046875 313.65625 C 554.5625 313.832031 554.023438 313.582031 553.84375 313.09375 C 553.667969 312.605469 553.917969 312.066406 554.40625 311.890625 Z M 554.40625 311.890625 " fill-opacity="1" fill-rule="nonzero"/><path fill="#000000" d="M 823.394531 317.222656 L 599.863281 284.984375 C 599.347656 284.910156 598.992188 284.433594 599.066406 283.917969 C 599.140625 283.40625 599.617188 283.050781 600.128906 283.125 L 823.664062 315.363281 C 824.175781 315.4375 824.53125 315.914062 824.457031 316.425781 C 824.382812 316.941406 823.90625 317.296875 823.394531 317.222656 Z M 823.394531 317.222656 " fill-opacity="1" fill-rule="nonzero"/><path fill="#000000" d="M 811.96875 321.800781 L 583.125 288.632812 C 582.613281 288.558594 582.257812 288.082031 582.332031 287.570312 C 582.40625 287.054688 582.882812 286.699219 583.394531 286.773438 L 812.238281 319.941406 C 812.753906 320.015625 813.109375 320.492188 813.035156 321.007812 C 812.960938 321.519531 812.484375 321.878906 811.96875 321.800781 Z M 811.96875 321.800781 " fill-opacity="1" fill-rule="nonzero"/><path fill="#000000" d="M 795.789062 328.089844 L 571.953125 292.886719 C 571.4375 292.804688 571.089844 292.324219 571.167969 291.8125 C 571.25 291.300781 571.730469 290.949219 572.242188 291.03125 L 796.078125 326.234375 C 796.589844 326.316406 796.941406 326.796875 796.859375 327.308594 C 796.78125 327.820312 796.300781 328.171875 795.789062 328.089844 Z M 795.789062 328.089844 " fill-opacity="1" fill-rule="nonzero"/><path fill="#000000" d="M 656.695312 385.996094 L 883.277344 453.796875 C 883.777344 453.945312 884.058594 454.46875 883.910156 454.96875 C 883.761719 455.464844 883.238281 455.746094 882.742188 455.597656 L 656.160156 387.796875 C 655.664062 387.648438 655.378906 387.125 655.527344 386.628906 C 655.675781 386.132812 656.199219 385.847656 656.695312 385.996094 Z M 656.695312 385.996094 " fill-opacity="1" fill-rule="nonzero"/><path fill="#000000" d="M 650.707031 372.890625 L 878.917969 437.269531 C 879.417969 437.410156 879.707031 437.929688 879.566406 438.429688 C 879.425781 438.929688 878.910156 439.222656 878.410156 439.078125 L 650.199219 374.699219 C 649.699219 374.558594 649.410156 374.039062 649.550781 373.539062 C 649.691406 373.039062 650.207031 372.75 650.707031 372.890625 Z M 650.707031 372.890625 " fill-opacity="1" fill-rule="nonzero"/><path fill="#000000" d="M 646.125 362.339844 L 874.054688 419.226562 C 874.554688 419.351562 874.863281 419.863281 874.738281 420.363281 C 874.613281 420.867188 874.101562 421.175781 873.597656 421.050781 L 645.671875 364.164062 C 645.167969 364.039062 644.863281 363.53125 644.988281 363.027344 C 645.113281 362.523438 645.625 362.214844 646.125 362.339844 Z M 646.125 362.339844 " fill-opacity="1" fill-rule="nonzero"/><path fill="#000000" d="M 643.558594 348.664062 L 866.648438 402.222656 C 867.152344 402.34375 867.460938 402.851562 867.339844 403.355469 C 867.21875 403.859375 866.714844 404.171875 866.210938 404.050781 L 643.121094 350.492188 C 642.617188 350.371094 642.304688 349.863281 642.425781 349.359375 C 642.546875 348.855469 643.054688 348.542969 643.558594 348.664062 Z M 643.558594 348.664062 " fill-opacity="1" fill-rule="nonzero"/><path fill="#000000" d="M 633.5625 335.835938 L 860.917969 380.5625 C 861.425781 380.664062 861.757812 381.15625 861.65625 381.667969 C 861.558594 382.175781 861.066406 382.507812 860.554688 382.40625 L 633.199219 337.683594 C 632.691406 337.582031 632.359375 337.085938 632.457031 336.578125 C 632.558594 336.070312 633.050781 335.738281 633.5625 335.835938 Z M 633.5625 335.835938 " fill-opacity="1" fill-rule="nonzero"/><path fill="#000000" d="M 630.128906 321.875 L 856.066406 362.328125 C 856.574219 362.417969 856.914062 362.90625 856.824219 363.417969 C 856.730469 363.929688 856.246094 364.269531 855.734375 364.179688 L 629.800781 323.726562 C 629.289062 323.632812 628.949219 323.144531 629.039062 322.636719 C 629.132812 322.125 629.621094 321.785156 630.128906 321.875 Z M 630.128906 321.875 " fill-opacity="1" fill-rule="nonzero"/><path fill="#000000" d="M 628.113281 309.621094 L 848.359375 343.238281 C 848.871094 343.316406 849.222656 343.796875 849.144531 344.308594 C 849.066406 344.820312 848.585938 345.171875 848.074219 345.09375 L 627.832031 311.480469 C 627.320312 311.402344 626.96875 310.921875 627.046875 310.410156 C 627.125 309.894531 627.601562 309.542969 628.113281 309.621094 Z M 628.113281 309.621094 " fill-opacity="1" fill-rule="nonzero"/><path fill="#000000" d="M 624.679688 299.363281 L 844.457031 327.851562 C 844.96875 327.917969 845.332031 328.390625 845.265625 328.902344 C 845.199219 329.417969 844.730469 329.78125 844.214844 329.714844 L 624.4375 301.226562 C 623.925781 301.160156 623.5625 300.691406 623.628906 300.175781 C 623.695312 299.660156 624.164062 299.296875 624.679688 299.363281 Z M 624.679688 299.363281 " fill-opacity="1" fill-rule="nonzero"/><g clip-path="url(#dac8cc2c2a)"><path fill="#000000" d="M 551.65625 293.976562 L 611.039062 276.628906 C 612.636719 276.160156 614.332031 276.984375 614.949219 278.53125 L 663.671875 400.085938 C 664.304688 401.667969 663.605469 403.472656 662.074219 404.214844 L 554.589844 456.203125 C 552.980469 456.980469 551.042969 456.304688 550.265625 454.691406 C 549.488281 453.082031 550.164062 451.140625 551.773438 450.363281 L 659.253906 398.375 L 657.660156 402.503906 L 608.9375 280.949219 L 612.851562 282.855469 L 553.472656 300.203125 C 551.753906 300.707031 549.957031 299.71875 549.457031 298 C 548.953125 296.28125 549.941406 294.480469 551.65625 293.976562 Z M 551.65625 293.976562 " fill-opacity="1" fill-rule="nonzero"/></g><path fill="#000000" d="M 776.390625 524.144531 L 888.296875 469.1875 L 886.621094 473.042969 L 837.195312 310.496094 L 841.546875 312.542969 L 779.140625 338.816406 C 777.492188 339.511719 775.59375 338.734375 774.898438 337.085938 C 774.207031 335.433594 774.980469 333.53125 776.628906 332.839844 L 839.035156 306.5625 C 839.882812 306.207031 840.835938 306.226562 841.667969 306.617188 C 842.496094 307.007812 843.125 307.730469 843.390625 308.609375 L 892.820312 471.15625 C 893.28125 472.675781 892.574219 474.3125 891.148438 475.011719 L 779.242188 529.96875 C 777.636719 530.757812 775.695312 530.09375 774.910156 528.484375 C 774.121094 526.878906 774.785156 524.933594 776.390625 524.144531 Z M 776.390625 524.144531 " fill-opacity="1" fill-rule="nonzero"/><g clip-path="url(#f3ce209759)"><path fill="#000000" d="M 612.328125 276.582031 L 840.882812 305.960938 C 842.65625 306.1875 843.910156 307.8125 843.679688 309.589844 C 843.453125 311.367188 841.832031 312.621094 840.054688 312.394531 L 611.5 283.011719 C 609.726562 282.785156 608.472656 281.160156 608.703125 279.382812 C 608.929688 277.605469 610.550781 276.351562 612.328125 276.582031 Z M 612.328125 276.582031 " fill-opacity="1" fill-rule="nonzero"/></g><path fill="#000000" d="M 665.746094 401.46875 L 665.746094 401.472656 L 663.457031 398.371094 L 886.796875 466.96875 C 888.507812 467.496094 889.46875 469.308594 888.945312 471.019531 C 888.417969 472.734375 886.605469 473.695312 884.898438 473.171875 L 661.554688 404.570312 C 660.195312 404.152344 659.265625 402.894531 659.265625 401.472656 L 659.265625 401.46875 C 659.265625 399.679688 660.71875 398.226562 662.507812 398.226562 C 664.296875 398.226562 665.746094 399.679688 665.746094 401.46875 Z M 665.746094 401.46875 " fill-opacity="1" fill-rule="nonzero"/><g clip-path="url(#a735a9a10f)"><path fill="#000000" d="M 546.800781 453.425781 L 547.699219 298.585938 C 547.707031 296.878906 548.464844 295.261719 549.765625 294.164062 C 551.070312 293.0625 552.789062 292.589844 554.472656 292.867188 L 778.617188 329.921875 C 781.417969 330.382812 783.480469 332.804688 783.492188 335.648438 L 784.382812 528.257812 C 784.398438 531.480469 781.804688 534.101562 778.585938 534.117188 C 775.367188 534.132812 772.75 531.535156 772.734375 528.3125 L 771.84375 335.699219 L 776.71875 341.429688 L 552.574219 304.375 L 559.347656 298.652344 L 558.453125 453.492188 C 558.433594 456.714844 555.8125 459.308594 552.59375 459.289062 C 549.375 459.273438 546.785156 456.644531 546.800781 453.425781 Z M 546.800781 453.425781 " fill-opacity="1" fill-rule="nonzero"/></g></svg>