<svg xmlns="http://www.w3.org/2000/svg" xmlns:xlink="http://www.w3.org/1999/xlink" width="1920" zoomAndPan="magnify" viewBox="0 0 1440 809.999993" height="1080" preserveAspectRatio="xMidYMid meet" version="1.0"><defs><clipPath id="7572dd3f6f"><path d="M 559.671875 285.757812 L 880.671875 285.757812 L 880.671875 524.257812 L 559.671875 524.257812 Z M 559.671875 285.757812 " clip-rule="nonzero"/></clipPath><clipPath id="870434fe88"><path d="M 0.671875 28 L 111 28 L 111 236 L 0.671875 236 Z M 0.671875 28 " clip-rule="nonzero"/></clipPath><clipPath id="0148cd9da4"><path d="M 101 16 L 321.320312 16 L 321.320312 239.257812 L 101 239.257812 Z M 101 16 " clip-rule="nonzero"/></clipPath><clipPath id="cbea9d56f8"><rect x="0" width="322" y="0" height="240"/></clipPath></defs><g clip-path="url(#7572dd3f6f)"><g transform="matrix(1, 0, 0, 1, 559, 285)"><g clip-path="url(#cbea9d56f8)"><path fill="#000000" d="M 59.066406 37.667969 L 16.410156 186.570312 C 16.277344 187.03125 16.542969 187.511719 17.007812 187.644531 C 17.46875 187.777344 17.949219 187.511719 18.082031 187.050781 L 60.738281 38.148438 C 60.871094 37.6875 60.605469 37.203125 60.144531 37.074219 C 59.679688 36.941406 59.199219 37.207031 59.066406 37.667969 Z M 59.066406 37.667969 " fill-opacity="1" fill-rule="nonzero"/><path fill="#000000" d="M 68.675781 42.394531 L 27.535156 191.96875 C 27.410156 192.433594 27.679688 192.910156 28.144531 193.039062 C 28.605469 193.164062 29.085938 192.894531 29.210938 192.429688 L 70.351562 42.855469 C 70.480469 42.390625 70.207031 41.914062 69.746094 41.785156 C 69.28125 41.660156 68.804688 41.929688 68.675781 42.394531 Z M 68.675781 42.394531 " fill-opacity="1" fill-rule="nonzero"/><path fill="#000000" d="M 82.671875 47.273438 L 39.847656 197.691406 C 39.714844 198.152344 39.984375 198.632812 40.445312 198.761719 C 40.90625 198.894531 41.386719 198.625 41.519531 198.164062 L 84.347656 47.746094 C 84.476562 47.285156 84.210938 46.804688 83.746094 46.671875 C 83.285156 46.542969 82.804688 46.808594 82.671875 47.273438 Z M 82.671875 47.273438 " fill-opacity="1" fill-rule="nonzero"/><path fill="#000000" d="M 93.96875 52.5 L 52.152344 203.253906 C 52.023438 203.714844 52.296875 204.195312 52.757812 204.324219 C 53.222656 204.449219 53.699219 204.179688 53.828125 203.71875 L 95.644531 52.960938 C 95.773438 52.5 95.5 52.023438 95.039062 51.894531 C 94.574219 51.765625 94.097656 52.035156 93.96875 52.5 Z M 93.96875 52.5 " fill-opacity="1" fill-rule="nonzero"/><path fill="#000000" d="M 104.210938 70.085938 L 63.957031 208.972656 C 63.824219 209.433594 64.089844 209.914062 64.550781 210.046875 C 65.011719 210.179688 65.496094 209.914062 65.628906 209.453125 L 105.882812 70.570312 C 106.015625 70.109375 105.75 69.625 105.289062 69.492188 C 104.828125 69.359375 104.347656 69.625 104.210938 70.085938 Z M 104.210938 70.085938 " fill-opacity="1" fill-rule="nonzero"/><path fill="#000000" d="M 105.4375 111.277344 L 75.59375 215.035156 C 75.460938 215.496094 75.726562 215.980469 76.1875 216.113281 C 76.648438 216.242188 77.132812 215.976562 77.261719 215.515625 L 107.105469 111.757812 C 107.238281 111.296875 106.972656 110.816406 106.511719 110.683594 C 106.050781 110.550781 105.570312 110.816406 105.4375 111.277344 Z M 105.4375 111.277344 " fill-opacity="1" fill-rule="nonzero"/><path fill="#000000" d="M 106.449219 152.878906 L 87.058594 219.921875 C 86.925781 220.382812 87.191406 220.863281 87.652344 220.996094 C 88.113281 221.128906 88.59375 220.863281 88.730469 220.402344 L 108.117188 153.363281 C 108.253906 152.902344 107.984375 152.421875 107.523438 152.289062 C 107.0625 152.152344 106.582031 152.417969 106.449219 152.878906 Z M 106.449219 152.878906 " fill-opacity="1" fill-rule="nonzero"/><path fill="#000000" d="M 269.667969 7.1875 L 226.597656 119.699219 C 226.425781 120.144531 226.652344 120.648438 227.101562 120.820312 C 227.546875 120.992188 228.050781 120.765625 228.222656 120.320312 L 271.292969 7.808594 C 271.464844 7.359375 271.242188 6.855469 270.792969 6.6875 C 270.34375 6.515625 269.839844 6.738281 269.667969 7.1875 Z M 269.667969 7.1875 " fill-opacity="1" fill-rule="nonzero"/><path fill="#000000" d="M 279.078125 10.0625 L 236.632812 124.488281 C 236.46875 124.9375 236.695312 125.4375 237.148438 125.605469 C 237.597656 125.769531 238.097656 125.542969 238.265625 125.089844 L 280.707031 10.667969 C 280.875 10.21875 280.644531 9.71875 280.195312 9.550781 C 279.746094 9.382812 279.246094 9.613281 279.078125 10.0625 Z M 279.078125 10.0625 " fill-opacity="1" fill-rule="nonzero"/><path fill="#000000" d="M 289.285156 14.375 L 247.648438 131.046875 C 247.488281 131.5 247.722656 131.996094 248.175781 132.15625 C 248.628906 132.320312 249.125 132.082031 249.285156 131.632812 L 290.921875 14.960938 C 291.082031 14.507812 290.847656 14.011719 290.394531 13.851562 C 289.941406 13.6875 289.445312 13.925781 289.285156 14.375 Z M 289.285156 14.375 " fill-opacity="1" fill-rule="nonzero"/><path fill="#000000" d="M 301.085938 18.527344 L 260.246094 136.296875 C 260.089844 136.75 260.332031 137.246094 260.785156 137.402344 C 261.238281 137.558594 261.734375 137.320312 261.890625 136.867188 L 302.730469 19.097656 C 302.886719 18.644531 302.644531 18.148438 302.191406 17.992188 C 301.738281 17.835938 301.242188 18.074219 301.085938 18.527344 Z M 301.085938 18.527344 " fill-opacity="1" fill-rule="nonzero"/><path fill="#000000" d="M 311.132812 24.277344 L 272.367188 142.527344 C 272.21875 142.984375 272.464844 143.472656 272.921875 143.625 C 273.378906 143.773438 273.871094 143.523438 274.019531 143.066406 L 312.785156 24.820312 C 312.933594 24.363281 312.683594 23.871094 312.226562 23.722656 C 311.773438 23.574219 311.28125 23.824219 311.132812 24.277344 Z M 311.132812 24.277344 " fill-opacity="1" fill-rule="nonzero"/><path fill="#000000" d="M 312.886719 56.632812 L 282.894531 148.746094 C 282.746094 149.199219 282.996094 149.691406 283.453125 149.839844 C 283.910156 149.988281 284.398438 149.738281 284.550781 149.28125 L 314.539062 57.167969 C 314.6875 56.710938 314.4375 56.222656 313.980469 56.074219 C 313.523438 55.925781 313.035156 56.175781 312.886719 56.632812 Z M 312.886719 56.632812 " fill-opacity="1" fill-rule="nonzero"/><path fill="#000000" d="M 313.6875 93.746094 L 292.949219 153.507812 C 292.792969 153.960938 293.035156 154.457031 293.488281 154.613281 C 293.941406 154.773438 294.4375 154.53125 294.59375 154.078125 L 315.332031 94.316406 C 315.488281 93.863281 315.25 93.367188 314.792969 93.210938 C 314.339844 93.054688 313.847656 93.292969 313.6875 93.746094 Z M 313.6875 93.746094 " fill-opacity="1" fill-rule="nonzero"/><path fill="#000000" d="M 245.613281 6.039062 L 201.671875 117.65625 C 201.496094 118.105469 201.71875 118.609375 202.164062 118.785156 C 202.609375 118.960938 203.117188 118.738281 203.292969 118.292969 L 247.234375 6.675781 C 247.410156 6.230469 247.1875 5.726562 246.742188 5.550781 C 246.296875 5.375 245.789062 5.59375 245.613281 6.039062 Z M 245.613281 6.039062 " fill-opacity="1" fill-rule="nonzero"/><path fill="#000000" d="M 232.113281 9.195312 L 189.671875 120.664062 C 189.5 121.113281 189.726562 121.613281 190.175781 121.785156 C 190.625 121.953125 191.125 121.730469 191.296875 121.28125 L 233.738281 9.8125 C 233.910156 9.367188 233.683594 8.863281 233.234375 8.691406 C 232.785156 8.523438 232.285156 8.746094 232.113281 9.195312 Z M 232.113281 9.195312 " fill-opacity="1" fill-rule="nonzero"/><path fill="#000000" d="M 217.996094 9.753906 L 172.851562 127.339844 C 172.675781 127.789062 172.902344 128.289062 173.351562 128.460938 C 173.796875 128.632812 174.300781 128.410156 174.472656 127.960938 L 219.621094 10.378906 C 219.792969 9.929688 219.566406 9.425781 219.117188 9.253906 C 218.671875 9.082031 218.167969 9.308594 217.996094 9.753906 Z M 217.996094 9.753906 " fill-opacity="1" fill-rule="nonzero"/><path fill="#000000" d="M 203.484375 11.957031 L 158.042969 132.535156 C 157.875 132.984375 158.101562 133.484375 158.550781 133.652344 C 159 133.820312 159.5 133.59375 159.671875 133.144531 L 205.109375 12.570312 C 205.277344 12.121094 205.050781 11.621094 204.601562 11.449219 C 204.152344 11.28125 203.652344 11.507812 203.484375 11.957031 Z M 203.484375 11.957031 " fill-opacity="1" fill-rule="nonzero"/><path fill="#000000" d="M 187.5 14.167969 L 143.96875 135.410156 C 143.804688 135.863281 144.039062 136.359375 144.492188 136.523438 C 144.945312 136.683594 145.441406 136.449219 145.605469 135.996094 L 189.136719 14.753906 C 189.300781 14.300781 189.066406 13.804688 188.613281 13.640625 C 188.160156 13.480469 187.664062 13.714844 187.5 14.167969 Z M 187.5 14.167969 " fill-opacity="1" fill-rule="nonzero"/><path fill="#000000" d="M 171.109375 15.101562 L 128.78125 140.984375 C 128.628906 141.441406 128.875 141.933594 129.328125 142.085938 C 129.785156 142.238281 130.277344 141.992188 130.429688 141.539062 L 172.757812 15.652344 C 172.910156 15.199219 172.664062 14.707031 172.210938 14.554688 C 171.753906 14.402344 171.261719 14.644531 171.109375 15.101562 Z M 171.109375 15.101562 " fill-opacity="1" fill-rule="nonzero"/><path fill="#000000" d="M 152.960938 17.289062 L 110.875 147.933594 C 110.726562 148.390625 110.980469 148.878906 111.4375 149.027344 C 111.894531 149.175781 112.382812 148.921875 112.53125 148.464844 L 154.617188 17.820312 C 154.765625 17.363281 154.515625 16.875 154.058594 16.726562 C 153.601562 16.578125 153.109375 16.832031 152.960938 17.289062 Z M 152.960938 17.289062 " fill-opacity="1" fill-rule="nonzero"/><path fill="#000000" d="M 136.308594 20.511719 L 107.128906 108.648438 C 106.976562 109.101562 107.226562 109.59375 107.679688 109.746094 C 108.136719 109.894531 108.628906 109.648438 108.78125 109.191406 L 137.960938 21.054688 C 138.113281 20.601562 137.863281 20.109375 137.410156 19.957031 C 136.953125 19.808594 136.460938 20.054688 136.308594 20.511719 Z M 136.308594 20.511719 " fill-opacity="1" fill-rule="nonzero"/><path fill="#000000" d="M 121.070312 22.972656 L 103.527344 71.773438 C 103.363281 72.226562 103.597656 72.722656 104.050781 72.882812 C 104.503906 73.046875 105 72.8125 105.164062 72.359375 L 122.707031 23.558594 C 122.867188 23.109375 122.632812 22.613281 122.179688 22.449219 C 121.730469 22.289062 121.230469 22.523438 121.070312 22.972656 Z M 121.070312 22.972656 " fill-opacity="1" fill-rule="nonzero"/><path fill="#000000" d="M 104.835938 25.101562 L 92.738281 55.898438 C 92.5625 56.34375 92.78125 56.847656 93.230469 57.023438 C 93.675781 57.199219 94.179688 56.980469 94.355469 56.535156 L 106.453125 25.738281 C 106.628906 25.289062 106.410156 24.785156 105.964844 24.609375 C 105.515625 24.433594 105.011719 24.65625 104.835938 25.101562 Z M 104.835938 25.101562 " fill-opacity="1" fill-rule="nonzero"/><path fill="#000000" d="M 89.996094 24.75 L 83.488281 46.234375 C 83.347656 46.695312 83.609375 47.179688 84.066406 47.320312 C 84.527344 47.457031 85.011719 47.199219 85.152344 46.738281 L 91.660156 25.253906 C 91.796875 24.792969 91.539062 24.308594 91.078125 24.167969 C 90.617188 24.03125 90.132812 24.289062 89.996094 24.75 Z M 89.996094 24.75 " fill-opacity="1" fill-rule="nonzero"/><path fill="#000000" d="M 72.828125 28.800781 L 69.195312 40.253906 C 69.046875 40.710938 69.300781 41.199219 69.757812 41.34375 C 70.21875 41.492188 70.707031 41.238281 70.851562 40.78125 L 74.488281 29.324219 C 74.632812 28.867188 74.378906 28.378906 73.921875 28.234375 C 73.460938 28.089844 72.972656 28.34375 72.828125 28.800781 Z M 72.828125 28.800781 " fill-opacity="1" fill-rule="nonzero"/><path fill="#000000" d="M 108.589844 211.578125 L 10.417969 166.234375 C 9.980469 166.035156 9.464844 166.222656 9.265625 166.660156 C 9.0625 167.09375 9.253906 167.609375 9.6875 167.8125 L 107.859375 213.15625 C 108.296875 213.359375 108.8125 213.167969 109.015625 212.734375 C 109.214844 212.296875 109.027344 211.78125 108.589844 211.578125 Z M 108.589844 211.578125 " fill-opacity="1" fill-rule="nonzero"/><path fill="#000000" d="M 108.929688 190.796875 L 15.746094 148.199219 C 15.308594 148 14.792969 148.191406 14.59375 148.628906 C 14.390625 149.0625 14.585938 149.578125 15.019531 149.777344 L 108.207031 192.375 C 108.644531 192.574219 109.160156 192.382812 109.359375 191.945312 C 109.558594 191.511719 109.367188 190.996094 108.929688 190.796875 Z M 108.929688 190.796875 " fill-opacity="1" fill-rule="nonzero"/><path fill="#000000" d="M 109.78125 172.070312 L 20.722656 132.394531 C 20.285156 132.199219 19.769531 132.394531 19.574219 132.832031 C 19.378906 133.273438 19.574219 133.785156 20.015625 133.980469 L 109.074219 173.65625 C 109.511719 173.851562 110.027344 173.65625 110.222656 173.21875 C 110.417969 172.78125 110.222656 172.265625 109.78125 172.070312 Z M 109.78125 172.070312 " fill-opacity="1" fill-rule="nonzero"/><path fill="#000000" d="M 108.921875 153.863281 L 25.367188 116.59375 C 24.925781 116.398438 24.414062 116.59375 24.21875 117.03125 C 24.019531 117.46875 24.21875 117.984375 24.65625 118.179688 L 108.214844 155.449219 C 108.652344 155.644531 109.167969 155.449219 109.363281 155.011719 C 109.558594 154.574219 109.363281 154.058594 108.921875 153.863281 Z M 108.921875 153.863281 " fill-opacity="1" fill-rule="nonzero"/><path fill="#000000" d="M 106.636719 132.035156 L 31.335938 97.84375 C 30.902344 97.644531 30.386719 97.835938 30.1875 98.273438 C 29.988281 98.710938 30.179688 99.226562 30.617188 99.421875 L 105.917969 133.617188 C 106.355469 133.816406 106.871094 133.621094 107.070312 133.1875 C 107.269531 132.75 107.074219 132.234375 106.636719 132.035156 Z M 106.636719 132.035156 " fill-opacity="1" fill-rule="nonzero"/><path fill="#000000" d="M 108.65625 111.828125 L 36.625 79.5 C 36.1875 79.304688 35.671875 79.5 35.472656 79.9375 C 35.277344 80.375 35.472656 80.886719 35.910156 81.085938 L 107.945312 113.414062 C 108.382812 113.609375 108.898438 113.414062 109.09375 112.976562 C 109.292969 112.539062 109.097656 112.023438 108.65625 111.828125 Z M 108.65625 111.828125 " fill-opacity="1" fill-rule="nonzero"/><path fill="#000000" d="M 106.625 90.6875 L 41.902344 62.554688 C 41.464844 62.363281 40.953125 62.566406 40.761719 63.003906 C 40.570312 63.445312 40.769531 63.957031 41.210938 64.148438 L 105.933594 92.28125 C 106.371094 92.472656 106.882812 92.269531 107.074219 91.828125 C 107.269531 91.390625 107.066406 90.878906 106.625 90.6875 Z M 106.625 90.6875 " fill-opacity="1" fill-rule="nonzero"/><path fill="#000000" d="M 108.65625 74.371094 L 47.203125 46.859375 C 46.765625 46.664062 46.25 46.859375 46.054688 47.296875 C 45.855469 47.734375 46.054688 48.25 46.492188 48.445312 L 107.945312 75.957031 C 108.382812 76.152344 108.898438 75.957031 109.09375 75.519531 C 109.292969 75.082031 109.09375 74.566406 108.65625 74.371094 Z M 108.65625 74.371094 " fill-opacity="1" fill-rule="nonzero"/><path fill="#000000" d="M 313.40625 146.8125 L 223.726562 104.09375 C 223.292969 103.886719 222.773438 104.070312 222.566406 104.503906 C 222.359375 104.933594 222.542969 105.453125 222.976562 105.660156 L 312.660156 148.378906 C 313.09375 148.585938 313.613281 148.402344 313.820312 147.96875 C 314.023438 147.535156 313.839844 147.019531 313.40625 146.8125 Z M 313.40625 146.8125 " fill-opacity="1" fill-rule="nonzero"/><path fill="#000000" d="M 314.449219 133.703125 L 227.671875 92.304688 C 227.238281 92.101562 226.71875 92.28125 226.511719 92.714844 C 226.304688 93.148438 226.488281 93.667969 226.921875 93.875 L 313.699219 135.273438 C 314.132812 135.480469 314.652344 135.296875 314.855469 134.863281 C 315.0625 134.429688 314.878906 133.910156 314.449219 133.703125 Z M 314.449219 133.703125 " fill-opacity="1" fill-rule="nonzero"/><path fill="#000000" d="M 314.433594 117.085938 L 232.882812 79.972656 C 232.445312 79.773438 231.929688 79.964844 231.730469 80.402344 C 231.53125 80.839844 231.726562 81.351562 232.160156 81.550781 L 313.710938 118.667969 C 314.148438 118.867188 314.664062 118.675781 314.863281 118.238281 C 315.0625 117.800781 314.871094 117.285156 314.433594 117.085938 Z M 314.433594 117.085938 " fill-opacity="1" fill-rule="nonzero"/><path fill="#000000" d="M 312.996094 101.769531 L 236.484375 67.769531 C 236.042969 67.574219 235.53125 67.769531 235.335938 68.210938 C 235.140625 68.648438 235.335938 69.160156 235.777344 69.355469 L 312.289062 103.359375 C 312.730469 103.550781 313.242188 103.355469 313.4375 102.917969 C 313.632812 102.480469 313.4375 101.964844 312.996094 101.769531 Z M 312.996094 101.769531 " fill-opacity="1" fill-rule="nonzero"/><path fill="#000000" d="M 313.207031 87.996094 L 241.421875 56.941406 C 240.980469 56.753906 240.46875 56.957031 240.277344 57.394531 C 240.089844 57.835938 240.289062 58.347656 240.730469 58.539062 L 312.515625 89.589844 C 312.957031 89.78125 313.46875 89.578125 313.660156 89.136719 C 313.851562 88.699219 313.648438 88.1875 313.207031 87.996094 Z M 313.207031 87.996094 " fill-opacity="1" fill-rule="nonzero"/><path fill="#000000" d="M 313.210938 74.921875 L 245.753906 45.296875 C 245.316406 45.101562 244.804688 45.300781 244.609375 45.742188 C 244.417969 46.179688 244.617188 46.691406 245.054688 46.886719 L 312.511719 76.511719 C 312.949219 76.703125 313.464844 76.503906 313.65625 76.066406 C 313.851562 75.625 313.652344 75.113281 313.210938 74.921875 Z M 313.210938 74.921875 " fill-opacity="1" fill-rule="nonzero"/><path fill="#000000" d="M 313.710938 60.359375 L 248.390625 35.140625 C 247.941406 34.964844 247.4375 35.1875 247.265625 35.636719 C 247.09375 36.082031 247.316406 36.585938 247.761719 36.761719 L 313.082031 61.980469 C 313.53125 62.152344 314.035156 61.929688 314.207031 61.484375 C 314.378906 61.035156 314.15625 60.53125 313.710938 60.359375 Z M 313.710938 60.359375 " fill-opacity="1" fill-rule="nonzero"/><path fill="#000000" d="M 313.164062 46.34375 L 253.859375 24.195312 C 253.410156 24.027344 252.90625 24.253906 252.738281 24.703125 C 252.570312 25.152344 252.800781 25.652344 253.25 25.820312 L 312.558594 47.972656 C 313.007812 48.140625 313.507812 47.914062 313.675781 47.460938 C 313.84375 47.011719 313.617188 46.511719 313.164062 46.34375 Z M 313.164062 46.34375 " fill-opacity="1" fill-rule="nonzero"/><path fill="#000000" d="M 314.226562 33.800781 L 258.507812 13.515625 C 258.058594 13.351562 257.558594 13.582031 257.394531 14.035156 C 257.230469 14.484375 257.460938 14.984375 257.914062 15.148438 L 313.632812 35.429688 C 314.082031 35.59375 314.582031 35.363281 314.746094 34.914062 C 314.910156 34.460938 314.679688 33.964844 314.226562 33.800781 Z M 314.226562 33.800781 " fill-opacity="1" fill-rule="nonzero"/><path fill="#000000" d="M 65.035156 38.726562 L 272.117188 8.925781 C 272.59375 8.859375 272.921875 8.417969 272.855469 7.941406 C 272.785156 7.46875 272.34375 7.136719 271.871094 7.207031 L 64.785156 37.007812 C 64.3125 37.078125 63.980469 37.519531 64.050781 37.992188 C 64.117188 38.46875 64.558594 38.796875 65.035156 38.726562 Z M 65.035156 38.726562 " fill-opacity="1" fill-rule="nonzero"/><path fill="#000000" d="M 75.617188 42.964844 L 287.621094 12.300781 C 288.097656 12.230469 288.425781 11.792969 288.359375 11.316406 C 288.289062 10.84375 287.847656 10.511719 287.371094 10.582031 L 75.371094 41.242188 C 74.894531 41.3125 74.5625 41.753906 74.632812 42.226562 C 74.703125 42.703125 75.144531 43.03125 75.617188 42.964844 Z M 75.617188 42.964844 " fill-opacity="1" fill-rule="nonzero"/><path fill="#000000" d="M 90.609375 48.777344 L 297.972656 16.230469 C 298.449219 16.15625 298.773438 15.710938 298.699219 15.238281 C 298.625 14.765625 298.179688 14.441406 297.703125 14.515625 L 90.339844 47.058594 C 89.867188 47.132812 89.542969 47.578125 89.617188 48.050781 C 89.691406 48.527344 90.136719 48.851562 90.609375 48.777344 Z M 90.609375 48.777344 " fill-opacity="1" fill-rule="nonzero"/><path fill="#000000" d="M 219.464844 102.308594 L 9.558594 164.984375 C 9.097656 165.121094 8.835938 165.605469 8.972656 166.066406 C 9.109375 166.523438 9.59375 166.785156 10.054688 166.648438 L 219.960938 103.972656 C 220.421875 103.835938 220.683594 103.351562 220.546875 102.890625 C 220.410156 102.429688 219.925781 102.167969 219.464844 102.308594 Z M 219.464844 102.308594 " fill-opacity="1" fill-rule="nonzero"/><path fill="#000000" d="M 225.011719 90.1875 L 13.597656 149.707031 C 13.136719 149.835938 12.867188 150.316406 12.996094 150.777344 C 13.125 151.238281 13.605469 151.507812 14.070312 151.378906 L 225.484375 91.859375 C 225.949219 91.730469 226.214844 91.25 226.085938 90.789062 C 225.957031 90.328125 225.476562 90.058594 225.011719 90.1875 Z M 225.011719 90.1875 " fill-opacity="1" fill-rule="nonzero"/><path fill="#000000" d="M 229.257812 80.4375 L 18.105469 133.023438 C 17.636719 133.140625 17.355469 133.613281 17.46875 134.078125 C 17.585938 134.542969 18.058594 134.828125 18.523438 134.710938 L 229.675781 82.125 C 230.144531 82.007812 230.425781 81.535156 230.3125 81.070312 C 230.195312 80.605469 229.722656 80.324219 229.257812 80.4375 Z M 229.257812 80.4375 " fill-opacity="1" fill-rule="nonzero"/><path fill="#000000" d="M 231.636719 67.796875 L 24.964844 117.304688 C 24.5 117.417969 24.210938 117.886719 24.324219 118.351562 C 24.433594 118.820312 24.902344 119.105469 25.371094 118.996094 L 232.042969 69.484375 C 232.507812 69.375 232.796875 68.90625 232.683594 68.4375 C 232.574219 67.972656 232.105469 67.683594 231.636719 67.796875 Z M 231.636719 67.796875 " fill-opacity="1" fill-rule="nonzero"/><path fill="#000000" d="M 240.898438 55.9375 L 30.273438 97.285156 C 29.800781 97.375 29.496094 97.832031 29.585938 98.304688 C 29.679688 98.773438 30.136719 99.082031 30.609375 98.988281 L 241.234375 57.640625 C 241.703125 57.550781 242.011719 57.09375 241.917969 56.621094 C 241.828125 56.152344 241.371094 55.84375 240.898438 55.9375 Z M 240.898438 55.9375 " fill-opacity="1" fill-rule="nonzero"/><path fill="#000000" d="M 244.078125 43.03125 L 34.769531 80.425781 C 34.296875 80.511719 33.980469 80.960938 34.066406 81.433594 C 34.148438 81.90625 34.601562 82.222656 35.074219 82.136719 L 244.382812 44.742188 C 244.855469 44.65625 245.167969 44.207031 245.085938 43.734375 C 245 43.261719 244.550781 42.945312 244.078125 43.03125 Z M 244.078125 43.03125 " fill-opacity="1" fill-rule="nonzero"/><path fill="#000000" d="M 245.945312 31.703125 L 41.910156 62.777344 C 41.433594 62.851562 41.105469 63.292969 41.179688 63.769531 C 41.253906 64.242188 41.695312 64.566406 42.171875 64.496094 L 246.207031 33.421875 C 246.679688 33.347656 247.007812 32.90625 246.933594 32.429688 C 246.863281 31.957031 246.417969 31.628906 245.945312 31.703125 Z M 245.945312 31.703125 " fill-opacity="1" fill-rule="nonzero"/><path fill="#000000" d="M 249.125 22.21875 L 45.523438 48.554688 C 45.046875 48.617188 44.710938 49.050781 44.773438 49.527344 C 44.835938 50.003906 45.269531 50.339844 45.746094 50.277344 L 249.347656 23.941406 C 249.824219 23.882812 250.160156 23.445312 250.101562 22.96875 C 250.039062 22.492188 249.601562 22.15625 249.125 22.21875 Z M 249.125 22.21875 " fill-opacity="1" fill-rule="nonzero"/><path fill="#000000" d="M 316.773438 17.242188 L 261.765625 1.203125 C 260.28125 0.769531 258.714844 1.53125 258.136719 2.964844 L 213.003906 115.332031 C 212.417969 116.792969 213.0625 118.460938 214.484375 119.148438 L 314.054688 167.207031 C 315.546875 167.925781 317.34375 167.300781 318.0625 165.8125 C 318.785156 164.320312 318.160156 162.527344 316.667969 161.808594 L 217.09375 113.75 L 218.574219 117.5625 L 263.707031 5.195312 L 260.082031 6.957031 L 315.09375 22.996094 C 316.683594 23.460938 318.347656 22.546875 318.8125 20.957031 C 319.277344 19.367188 318.363281 17.703125 316.773438 17.242188 Z M 316.773438 17.242188 " fill-opacity="1" fill-rule="nonzero"/><g clip-path="url(#870434fe88)"><path fill="#000000" d="M 108.582031 230.015625 L 4.910156 179.210938 L 6.460938 182.777344 L 52.25 32.511719 L 48.21875 34.402344 L 106.03125 58.691406 C 107.558594 59.332031 109.316406 58.617188 109.960938 57.089844 C 110.601562 55.5625 109.886719 53.808594 108.359375 53.164062 L 50.542969 28.875 C 49.761719 28.546875 48.875 28.566406 48.105469 28.925781 C 47.335938 29.285156 46.757812 29.953125 46.511719 30.765625 L 0.71875 181.03125 C 0.289062 182.4375 0.945312 183.945312 2.265625 184.59375 L 105.9375 235.398438 C 107.425781 236.128906 109.222656 235.511719 109.953125 234.027344 C 110.683594 232.539062 110.066406 230.746094 108.582031 230.015625 Z M 108.582031 230.015625 " fill-opacity="1" fill-rule="nonzero"/></g><path fill="#000000" d="M 260.570312 1.15625 L 48.835938 28.316406 C 47.191406 28.527344 46.03125 30.03125 46.242188 31.671875 C 46.453125 33.316406 47.957031 34.476562 49.597656 34.265625 L 261.332031 7.105469 C 262.976562 6.894531 264.140625 5.390625 263.929688 3.75 C 263.71875 2.109375 262.214844 0.945312 260.570312 1.15625 Z M 260.570312 1.15625 " fill-opacity="1" fill-rule="nonzero"/><path fill="#000000" d="M 211.082031 116.609375 L 213.203125 113.746094 L 6.296875 177.160156 C 4.714844 177.644531 3.824219 179.324219 4.308594 180.90625 C 4.796875 182.488281 6.472656 183.378906 8.058594 182.890625 L 214.960938 119.476562 C 216.222656 119.089844 217.082031 117.929688 217.082031 116.609375 C 217.082031 114.953125 215.738281 113.613281 214.082031 113.613281 C 212.425781 113.613281 211.082031 114.953125 211.082031 116.609375 Z M 211.082031 116.609375 " fill-opacity="1" fill-rule="nonzero"/><g clip-path="url(#0148cd9da4)"><path fill="#000000" d="M 321.269531 164.640625 L 320.441406 21.5 C 320.433594 19.921875 319.730469 18.429688 318.523438 17.410156 C 317.316406 16.394531 315.726562 15.957031 314.167969 16.214844 L 106.519531 50.46875 C 103.921875 50.894531 102.011719 53.132812 102 55.761719 L 101.175781 233.816406 C 101.160156 236.796875 103.566406 239.21875 106.546875 239.234375 C 109.527344 239.246094 111.953125 236.84375 111.96875 233.867188 L 112.792969 55.8125 L 108.277344 61.105469 L 315.925781 26.851562 L 309.648438 21.5625 L 310.480469 164.703125 C 310.496094 167.679688 312.925781 170.078125 315.90625 170.0625 C 318.886719 170.042969 321.289062 167.617188 321.269531 164.640625 Z M 321.269531 164.640625 " fill-opacity="1" fill-rule="nonzero"/></g></g></g></g></svg>