<svg xmlns="http://www.w3.org/2000/svg" xmlns:xlink="http://www.w3.org/1999/xlink" width="1920" zoomAndPan="magnify" viewBox="0 0 1440 809.999993" height="1080" preserveAspectRatio="xMidYMid meet" version="1.0"><path fill="#4d4d4d" d="M 885.5625 337.992188 C 820.40625 339.214844 694.75 338.386719 618.210938 339.355469 C 588.429688 339.722656 561.6875 339.832031 553.003906 338.796875 C 546.128906 339.710938 537.414062 341.316406 530.546875 342.25 L 530.507812 342.25 C 530.355469 342.246094 530.226562 342.300781 530.125 342.414062 C 530.023438 342.527344 529.984375 342.660156 530 342.808594 C 530.019531 342.960938 530.089844 343.078125 530.214844 343.164062 C 530.34375 343.25 530.480469 343.273438 530.625 343.234375 C 537.492188 342.304688 546.207031 340.703125 553.082031 339.78125 C 553.128906 339.78125 553.1875 339.789062 553.097656 339.769531 C 561.761719 340.867188 588.667969 340.6875 618.222656 340.335938 C 693.929688 339.371094 821.335938 340.191406 885.570312 338.972656 C 889.734375 339.164062 906.222656 341.066406 908.363281 341.289062 C 908.5 341.304688 908.621094 341.269531 908.730469 341.183594 C 908.835938 341.097656 908.898438 340.988281 908.910156 340.851562 C 908.925781 340.714844 908.890625 340.59375 908.804688 340.484375 C 908.722656 340.378906 908.609375 340.316406 908.472656 340.300781 C 906.097656 340.066406 889.910156 338.152344 885.5625 337.992188 Z M 763.710938 357.242188 C 736.304688 357.375 574.453125 359.265625 553.632812 359.851562 C 550.066406 360.222656 546.320312 360.664062 542.179688 361.140625 C 536.136719 361.839844 530.253906 362.539062 530.253906 362.539062 C 530.121094 362.558594 530.011719 362.621094 529.925781 362.726562 C 529.84375 362.835938 529.808594 362.957031 529.824219 363.09375 C 529.839844 363.226562 529.902344 363.339844 530.007812 363.421875 C 530.117188 363.507812 530.238281 363.542969 530.371094 363.527344 C 530.371094 363.527344 536.253906 362.828125 542.296875 362.128906 C 546.433594 361.652344 550.171875 361.210938 553.734375 360.839844 C 634.070312 359.214844 799.671875 357.761719 883.046875 358.152344 L 911.304688 362.570312 C 911.441406 362.59375 911.5625 362.5625 911.675781 362.480469 C 911.785156 362.402344 911.851562 362.292969 911.871094 362.15625 C 911.894531 362.023438 911.863281 361.898438 911.78125 361.789062 C 911.703125 361.679688 911.59375 361.613281 911.457031 361.589844 L 883.125 357.160156 Z M 813.132812 377.589844 C 733.089844 378.410156 632.355469 378.757812 556.878906 379.421875 C 556.824219 379.421875 556.769531 379.425781 556.714844 379.4375 C 547.980469 380.734375 536.78125 382.519531 528.054688 383.824219 C 527.992188 383.835938 527.914062 383.839844 527.980469 383.835938 C 527.847656 383.847656 527.734375 383.902344 527.644531 384.003906 C 527.554688 384.105469 527.515625 384.222656 527.523438 384.359375 C 527.53125 384.496094 527.585938 384.609375 527.683594 384.699219 C 527.785156 384.789062 527.902344 384.832031 528.035156 384.828125 C 528.128906 384.816406 528.125 384.816406 528.191406 384.808594 C 536.917969 383.503906 548.117188 381.714844 556.847656 380.421875 C 556.910156 380.414062 556.984375 380.410156 556.921875 380.414062 C 643.53125 380.054688 803.292969 378.019531 882.753906 378.824219 C 888.894531 379.488281 910.832031 382.308594 913.371094 382.625 C 913.507812 382.640625 913.628906 382.609375 913.738281 382.523438 C 913.84375 382.441406 913.90625 382.332031 913.925781 382.195312 C 913.941406 382.058594 913.910156 381.9375 913.824219 381.828125 C 913.742188 381.71875 913.632812 381.65625 913.496094 381.640625 C 910.742188 381.28125 889.125 378.527344 882.863281 377.839844 C 872.355469 377.355469 846.117188 377.6875 813.132812 377.589844 Z M 877.773438 397.136719 L 559.476562 397.882812 L 528.4375 405.015625 C 528.304688 405.046875 528.203125 405.121094 528.128906 405.238281 C 528.058594 405.355469 528.035156 405.480469 528.066406 405.613281 C 528.097656 405.746094 528.171875 405.851562 528.285156 405.921875 C 528.402344 405.996094 528.527344 406.015625 528.660156 405.984375 L 559.59375 398.875 L 877.683594 398.132812 L 913.625 404.816406 C 913.757812 404.835938 913.878906 404.808594 913.988281 404.730469 C 914.097656 404.652344 914.167969 404.546875 914.191406 404.417969 C 914.214844 404.285156 914.191406 404.160156 914.117188 404.050781 C 914.042969 403.9375 913.9375 403.867188 913.808594 403.839844 Z M 877.023438 415.582031 L 561.121094 418.902344 L 528.21875 428.253906 C 528.085938 428.289062 527.984375 428.367188 527.917969 428.488281 C 527.851562 428.609375 527.835938 428.734375 527.875 428.867188 C 527.910156 429 527.988281 429.101562 528.109375 429.167969 C 528.230469 429.234375 528.355469 429.246094 528.488281 429.207031 L 561.265625 419.894531 L 876.890625 416.578125 L 914.382812 427.4375 C 914.511719 427.472656 914.636719 427.457031 914.753906 427.390625 C 914.875 427.324219 914.953125 427.226562 914.988281 427.097656 C 915.027344 426.964844 915.015625 426.84375 914.949219 426.722656 C 914.886719 426.601562 914.789062 426.523438 914.660156 426.484375 Z M 874.789062 437.117188 L 561.425781 438.363281 L 528.507812 453.304688 C 528.382812 453.359375 528.296875 453.453125 528.246094 453.582031 C 528.199219 453.710938 528.203125 453.839844 528.257812 453.964844 C 528.316406 454.089844 528.410156 454.175781 528.539062 454.222656 C 528.667969 454.273438 528.792969 454.265625 528.917969 454.210938 L 561.644531 439.355469 L 874.605469 438.113281 L 913.742188 453.289062 C 913.871094 453.339844 914 453.335938 914.125 453.28125 C 914.25 453.226562 914.335938 453.132812 914.386719 453.003906 C 914.4375 452.875 914.433594 452.75 914.378906 452.625 C 914.324219 452.5 914.230469 452.410156 914.101562 452.363281 Z M 564.289062 456.785156 L 529.644531 479.242188 C 529.527344 479.316406 529.457031 479.417969 529.425781 479.554688 C 529.398438 479.6875 529.421875 479.8125 529.496094 479.929688 C 529.570312 480.042969 529.675781 480.117188 529.808594 480.144531 C 529.945312 480.171875 530.070312 480.148438 530.183594 480.074219 L 564.585938 457.78125 L 871.988281 457.566406 L 911.496094 478.742188 C 911.617188 478.804688 911.746094 478.820312 911.875 478.777344 C 912.007812 478.738281 912.105469 478.660156 912.167969 478.539062 C 912.234375 478.417969 912.246094 478.289062 912.207031 478.160156 C 912.167969 478.027344 912.085938 477.929688 911.964844 477.863281 L 872.238281 456.570312 Z M 564.289062 456.785156 " fill-opacity="1" fill-rule="evenodd"/><path fill="#4d4d4d" d="M 609.683594 314.277344 L 608.761719 314.652344 C 609.742188 317.128906 617.207031 335.496094 618.792969 340.253906 C 622.089844 366.753906 631.257812 459.59375 632.613281 472.183594 L 633.597656 472.082031 C 632.234375 459.09375 623.105469 367.480469 619.867188 340.65625 C 619.601562 339.082031 619.003906 337.972656 617.847656 334.835938 C 616.300781 330.742188 610.019531 315.097656 609.683594 314.277344 Z M 849.90625 314.109375 C 849.484375 315.09375 843.371094 330.484375 841.769531 334.679688 C 840.617188 337.824219 840.023438 338.925781 839.757812 340.5 C 836.601562 366.886719 827.496094 459.554688 826.210938 471.949219 L 827.199219 472.046875 C 828.585938 458.894531 837.527344 367.035156 840.832031 340.101562 C 842.386719 335.402344 849.882812 316.886719 850.828125 314.484375 Z M 664.308594 314.320312 L 663.339844 314.535156 C 663.886719 317.128906 667.855469 334.496094 668.730469 339.710938 C 670.257812 366.078125 676.011719 459.160156 676.753906 471.433594 L 677.746094 471.371094 C 676.96875 458.566406 671.28125 366.476562 669.722656 339.710938 C 668.902344 334.472656 664.839844 316.910156 664.308594 314.320312 Z M 795.28125 314.226562 C 794.726562 316.921875 790.738281 334.304688 789.898438 339.628906 C 788.410156 365.953125 782.785156 459.058594 782.0625 471.296875 L 783.054688 471.359375 C 783.8125 458.519531 789.378906 366.4375 790.894531 339.625 C 791.746094 334.492188 795.726562 316.929688 796.25 314.445312 Z M 635.523438 314.550781 L 634.582031 314.859375 C 636.292969 320.125 638.335938 325.78125 639.980469 330.414062 C 641.082031 333.613281 642.496094 337.277344 642.980469 339.734375 C 645.402344 365.878906 653.773438 459.152344 654.890625 471.464844 L 655.878906 471.375 C 654.707031 458.476562 646.429688 366.222656 643.96875 339.625 C 643.460938 336.933594 642.058594 333.449219 640.914062 330.082031 C 639.269531 325.445312 637.230469 319.796875 635.523438 314.550781 Z M 824.066406 314.417969 C 822.367188 319.667969 820.335938 325.320312 818.695312 329.957031 C 817.558594 333.320312 816.160156 336.804688 815.65625 339.503906 C 813.269531 365.671875 805.03125 458.941406 803.929688 471.269531 L 804.917969 471.359375 C 806.066406 458.476562 814.222656 366.195312 816.644531 339.613281 C 817.125 337.164062 818.53125 333.496094 819.632812 330.289062 C 821.269531 325.65625 823.304688 319.996094 825.011719 314.726562 Z M 690.3125 314.679688 L 689.339844 314.882812 C 689.835938 317.390625 693.492188 334.367188 693.804688 338.949219 C 694.65625 365.324219 698.265625 458.835938 698.726562 471.359375 L 699.714844 471.324219 C 699.238281 458.25 695.667969 365.726562 694.796875 338.949219 C 694.507812 334.257812 690.800781 317.214844 690.3125 314.679688 Z M 769.277344 314.625 C 768.769531 317.28125 765.125 334.140625 764.828125 338.902344 C 764.007812 365.246094 760.53125 458.78125 760.09375 471.28125 L 761.085938 471.316406 C 761.542969 458.214844 764.984375 365.707031 765.820312 338.902344 C 766.113281 334.382812 769.78125 317.21875 770.25 314.828125 Z M 585.53125 316.097656 L 584.667969 316.585938 C 585.222656 317.46875 592.78125 331.226562 594.683594 335.074219 C 595.523438 336.628906 596.253906 338.230469 596.875 339.886719 C 596.890625 339.949219 597.003906 340.691406 597.140625 341.792969 C 600.171875 367.679688 609.472656 459.648438 610.695312 471.453125 L 611.683594 471.355469 C 610.398438 458.945312 601.207031 368.011719 598.125 341.667969 C 597.988281 340.5625 597.914062 339.949219 597.835938 339.640625 C 597.21875 337.90625 596.460938 336.234375 595.566406 334.625 C 593.738281 330.84375 585.976562 316.847656 585.53125 316.097656 Z M 874.058594 315.894531 C 873.5 316.789062 865.957031 330.570312 864.046875 334.433594 C 863.15625 336.046875 862.402344 337.722656 861.785156 339.457031 C 861.710938 339.765625 861.636719 340.375 861.5 341.484375 C 858.503906 367.386719 849.332031 459.371094 848.125 471.1875 L 849.113281 471.289062 C 850.378906 458.886719 859.445312 367.941406 862.484375 341.605469 C 862.621094 340.503906 862.734375 339.761719 862.75 339.699219 C 863.371094 338.046875 864.097656 336.441406 864.933594 334.886719 C 866.753906 331.117188 874.484375 317.125 874.921875 316.382812 Z M 717.957031 317.273438 L 716.964844 317.285156 L 718.121094 471.910156 L 719.113281 471.902344 Z M 741.332031 317.257812 L 740.339844 317.265625 L 741.5 471.890625 L 742.492188 471.882812 Z M 558.175781 317.625 L 557.371094 318.199219 C 557.910156 318.960938 572.503906 339.558594 573.101562 340.480469 C 573.09375 340.464844 573.09375 340.46875 573.132812 340.53125 C 573.125 340.511719 573.113281 340.496094 573.101562 340.480469 C 577.082031 366.414062 586.890625 458.304688 588.378906 470.46875 L 589.367188 470.359375 C 587.972656 458.277344 578.066406 367.832031 574.382812 341.898438 C 574.269531 341.199219 574.214844 340.808594 574.085938 340.292969 C 574.070312 340.179688 574.027344 340.074219 573.960938 339.980469 C 573.394531 339.03125 558.699219 318.40625 558.175781 317.625 Z M 558.175781 317.625 " fill-opacity="1" fill-rule="evenodd"/><path fill="#e6e6e6" d="M 533.875 318.191406 C 533.875 318.191406 530.855469 320.472656 531.226562 323.445312 C 531.601562 326.421875 546.28125 338.3125 547.027344 340.542969 C 547.722656 342.632812 560.136719 456.207031 561.875 470.890625 C 554.460938 476.019531 531.21875 494.789062 531.058594 495.429688 C 530.875 496.171875 532.097656 502.882812 532.097656 502.882812 C 544.394531 494.152344 560.792969 480.445312 567.941406 474.691406 C 593.773438 475.296875 864.945312 474.957031 870.1875 474.949219 C 877.679688 480.917969 894.910156 494.8125 907.054688 503.410156 C 909.152344 501.304688 906.691406 495.910156 906.503906 495.167969 C 906.34375 494.527344 883.074219 475.789062 875.65625 470.671875 C 877.371094 455.984375 889.625 342.394531 890.320312 340.304688 C 891.0625 338.070312 905.726562 326.160156 906.09375 323.183594 C 906.464844 320.207031 903.441406 317.933594 903.441406 317.933594 C 903.441406 317.933594 885.59375 335.039062 884.28125 337.40625 C 883.039062 339.652344 870.1875 456.410156 868.800781 469.050781 C 845.679688 468.246094 576.949219 469.585938 568.769531 469.628906 C 567.46875 457.941406 554.3125 339.890625 553.058594 337.640625 C 551.746094 335.273438 533.875 318.191406 533.875 318.191406 Z M 533.875 318.191406 " fill-opacity="1" fill-rule="evenodd"/><path fill="#e6e6e6" d="M 515.878906 503.597656 C 515.878906 503.597656 513.757812 306.722656 517.472656 305.605469 L 521.1875 304.488281 C 521.1875 304.488281 918.375 303.460938 921 304.773438 C 923.628906 306.085938 926.128906 502.261719 923.503906 502.789062 C 920.875 503.316406 906.957031 506.742188 905.90625 503.0625 C 904.851562 499.382812 904.996094 327.136719 903.417969 324.507812 C 901.839844 321.878906 537.027344 322.398438 535.191406 323.1875 C 533.351562 323.980469 535.066406 503.253906 533.769531 504 C 532.46875 504.742188 517.679688 505.230469 515.878906 503.597656 Z M 515.878906 503.597656 " fill-opacity="1" fill-rule="evenodd"/><path fill="#b3b3b3" d="M 821.523438 315.328125 C 707.894531 315.398438 526.765625 316.199219 526.765625 316.199219 L 526.414062 504.675781 C 529.976562 504.605469 533.195312 504.328125 533.769531 504 C 535.066406 503.253906 533.351562 323.980469 535.191406 323.1875 C 537.027344 322.398438 901.839844 321.878906 903.417969 324.507812 C 904.996094 327.136719 904.851562 499.382812 905.90625 503.0625 C 906.4375 504.917969 910.234375 504.964844 914.207031 504.492188 C 914.367188 470.484375 912.464844 317 911.289062 315.824219 C 910.878906 315.414062 873.175781 315.296875 821.523438 315.328125 Z M 821.523438 315.328125 " fill-opacity="1" fill-rule="evenodd"/></svg>